<svg xmlns="http://www.w3.org/2000/svg" width="45"  viewBox="0 0 714.22 841.41"><defs><style>.cls-1{fill:#e2deb4;stroke:#b11f24;stroke-miterlimit:10;stroke-width:0.25px;}.cls-2{fill:#b11f24;}</style></defs><title>Brown Girls Food Club Logo</title><g id="Background"><rect class="cls-1" x="-5.96" y="-1.26" width="720.18" height="844"/></g><g id="New_Logo" data-name="New Logo"><path class="cls-2" d="M395.49,124.52c-38.82,25.77-60.17,71-70.22,115.07s-12,89.47-19.88,133.89c-3.89,21.83-9.34,43.72-18.9,63.82-10.47,22-24.71,41.87-39.7,61C217.24,536,184.31,573,169.34,619.45c-14,43.47-8.12,97.23,29.33,127.44,3.31,2.67,7.9,3.24,11.14,0,2.78-2.78,3.3-8.42,0-11.13-30.38-25-36.13-69.12-26.16-105.28C196,585.86,227.34,550,255.43,514.41c14.69-18.58,29-37.56,40.61-58.28a262.85,262.85,0,0,0,24.29-61.75c11.07-42.46,12.95-86.52,20.76-129.57,4.2-23.17,10.09-46.43,19.89-67.93,10.59-23.22,26.07-42.29,43.6-60.58,5.7-6-1.76-16.65-9.09-11.78Z"/><path class="cls-2" d="M401.39,131.86c-14.94-14.23-37.61-17-57.18-13.09-21.64,4.32-40.13,17.6-53.67,34.71-31.71,40.07-34.74,92.81-42.86,141.23-4.37,26.06-10.37,52.37-23.5,75.57-12.39,21.91-30,40.43-41.1,63.14-11.25,23.13-16.14,48.58-19.65,73.87-3.77,27.11-7.25,54.37-9,81.68-1.95,30.41-1.45,61.56,5.41,91.38,5.15,22.37,15.23,45.51,36.09,57.27a2,2,0,0,0,2-3.4c-18.55-11.56-27.81-32.5-32.71-53-6.15-25.74-7.14-52.42-6-78.76S163.68,550,167,523.91c3.08-24.3,6.39-48.85,14.63-72,8.42-23.68,23.67-42.68,37.78-63.1,14-20.24,23.11-42.24,28.65-66.16,11.08-47.74,9.32-99.27,31.92-143.85,11-21.76,28-41.92,51.13-51.28a75.14,75.14,0,0,1,69,6,1,1,0,0,0,1.25-1.62Z"/><path class="cls-2" d="M395.29,130.66a4,4,0,0,0,4.73-2,2,2,0,0,0-1.18-2.89c-1.22-.5-2.48-.89-3.73-1.32l-.56,4.13c3.18.05,5.72,1.09,8.71,2,2.45.72,3.79-2.72,1.7-4-2.95-1.85-7-2.26-10.41-2.14a2.12,2.12,0,0,0-.56,4.14c1.26.36,2.52.76,3.81,1l-1.38-2.42c0,.45-.25.66-.73.62a1.51,1.51,0,0,0-.4,3Z"/><path class="cls-2" d="M404.57,134.77c7.83,1.11,15.15,2.92,21.32,8.16,6,5.09,13.41,15.92,8.07,23.75-4.58,6.71-13.71,0-18.9,6.66-1.58,2-2.35,4.44-3.51,6.69-2.16,4.18-5.48,4.71-9.87,4.83-6.33.17-11.8.88-16,6.16-4.66,5.92-6.67,12.38-13.19,16.83-10,6.85-26.09,11.26-28.41,25.15-1,5.81,2,11.86,8.21,12.59,5.08.59,10-2.44,10.12-7.81.08-3.24-5.25-4.13-5.8-.78a2.79,2.79,0,0,1-5,1.4c-2.15-2.57-6.28.74-4.59,3.54A53.63,53.63,0,0,1,352,287.31c-3.71,10.66-12.17,28.76,2.3,35.89,9.14,4.5,21.29-4.95,18.91-15-1.23-5.14-6.21-9.67-11.74-8.46a7.79,7.79,0,0,0-5.39,11.29c1.38,2.77,5.72.82,4.93-2.08-.85-3.09,3-3.21,4.82-2.12,1,.59,1.62,2.81,1.64,3.92a7.4,7.4,0,0,1-2.47,5.09c-3.61,3.47-8.66,3.15-11.27-1.24-5.11-8.58,2-19,4.53-27.25,5-16.12,2.49-34-6.1-48.39l-4.59,3.54c4.33,5.25,13.69,2.77,14.8-4l-5.8-.79c-.08,3.28-4.94,1.92-6,.22-2.46-3.88,1.22-9.16,3.89-11.82,4.47-4.43,10.45-7.07,15.88-10.09,5.11-2.85,10-6.11,13.56-10.87,4.34-5.85,5.88-13.75,14.37-14.36,5.27-.39,11.16.42,15.37-3.56a19.41,19.41,0,0,0,4-6.43c1.82-4,2.72-5.57,7.7-5.35,6.15.27,11.15-1.39,14.19-7.22,2.91-5.59,1.65-12.27-.92-17.72-5.75-12.16-20.33-21.66-34-19.2-1.64.29-1.7,3.14,0,3.39Z"/><path class="cls-2" d="M376.11,360.93c-3.95-5.66-7.77-14.89-.05-19.36,4.63-2.68,10.88-2,15.9-1.13,7.67,1.33,16.82,3.59,23.84-1.17a11.28,11.28,0,0,0,4.87-8c.42-3.16-.43-6.25-.38-9.4,0-2,.28-4.16,1.73-5.66,1.94-2,4-.93,6.15-.7,2.82.31,5.05.42,6.5-2.5,1.57-3.16.75-7.35-.47-10.46l-1.42,1.86c4.09.4,4.86-3.68,4.69-6.84-.18-3.39-1.23-5.74,2.31-6.3a11.66,11.66,0,0,1,3.22.26,58.44,58.44,0,0,0,6.7,1c3.36.09,6.6-1,7.68-4.54.92-3-.06-6.51-.44-9.47-.48-3.73-1-7.46-1.62-11.17a104.37,104.37,0,0,0-6-22.11c-2.06-5-2.88-8.28-.95-13.45a83.51,83.51,0,0,0,3.86-12.93c2.28-11.39,2.51-23.54-3.11-34-3.31-6.14-6.36-13.82-11-19.06-1.37-1.55-3.63.72-2.27,2.27,2.59,2.94,4.25,7.37,6.13,10.78,1.65,3,3.48,5.95,5,9,3.36,6.76,3.71,14.09,3.23,21.53a72.4,72.4,0,0,1-2.73,15.65c-1.1,3.73-3.25,7.48-3.61,11.39-.29,3.14.92,5.8,2.12,8.61a89.36,89.36,0,0,1,4.83,15.07c.95,4.12,1.66,8.29,2.28,12.47.51,3.43,3.66,15-.81,16.68-4.29,1.6-9.27-1.73-13.73-.86a5.51,5.51,0,0,0-3.89,2.5c-.95,1.59,0,10.74-1.92,10.55a1.47,1.47,0,0,0-1.41,1.86c.79,2,2,5.56.93,7.67-1.8,3.56-5.57.24-8.13.58-3.32.44-5.53,3.6-6.37,6.61-1.73,6.24,2.85,13.92-3.44,18.58-4.12,3.05-10.39,2.77-15.18,2.12-8.18-1.11-18-4.41-25.46.84-8.13,5.68-4.84,16.32,1.23,22.06.59.56,1.66-.18,1.16-.89Z"/><path class="cls-2" d="M439.89,235c-8.78-7.6-13-18.81-25.81-20.4-11.77-1.46-22.53,5.27-29.65,14.15-1,1.26.72,3.08,1.8,1.81,7.42-8.67,17.8-15.58,29.73-13,11.15,2.46,13.65,13.92,23,18.58.71.35,1.59-.59.91-1.18Z"/><path class="cls-2" d="M421.42,246.08c-15.66-1.07-32.18.32-45-10.53-1.46-1.24-3.59.87-2.12,2.12,13.5,11.46,30.47,10.28,47.08,11.41,1.93.13,1.92-2.87,0-3Z"/><path class="cls-2" d="M432.34,250.09a27,27,0,0,0-8.37-3.53c-1.88-.45-2.68,2.44-.8,2.9a24,24,0,0,1,7.66,3.22c1.62,1.06,3.13-1.54,1.51-2.59Z"/><path class="cls-2" d="M431.8,250.5c1.49-6.59-2.26-12.68-7.82-16.11-7.48-4.61-17.09-3.23-25.09-.94a1.29,1.29,0,0,0,.69,2.48c6.54-1.3,13.59-2.75,20.08-.41,6.24,2.26,10.48,8,10,14.69a1.1,1.1,0,0,0,2.16.29Z"/><path class="cls-2" d="M431.36,252.75a1.41,1.41,0,0,0-1.8,1.26,13.32,13.32,0,0,1-2.35,2.62,16.46,16.46,0,0,1-6.25,3.24,21.91,21.91,0,0,1-11.14.12c-9-2.26-15-9.21-21.82-14.87a1.15,1.15,0,0,0-1.63,1.62c7.24,8,17.7,16.33,29,16.11a20.62,20.62,0,0,0,12.17-3.9c1.77-1.36,5.37-4.47,4.23-7a.82.82,0,0,0-.92-.37l-.45.12a.78.78,0,0,0-.53.93l.07.34c.15.85,1.29.53,1.38-.18Z"/><path class="cls-2" d="M435.16,278.89c-3.89-4-11.17-1.7-13.3,3.1-2.69,6.1,3.5,12.86,9.73,11.78,1.38-.23,1.08-2.59-.33-2.46-4.5.42-9.54-4.27-6.9-8.89,2-3.44,6.54-3.87,9.78-2.2a.85.85,0,0,0,1-1.33Z"/><path class="cls-2" d="M436.14,288.31l-.32-.24a.94.94,0,0,0-.93,0,1.72,1.72,0,0,0-.94,2.47c1.13,1.8,3.16,0,4.54.58,1.21.55,2.28-1.17,1.06-1.81a10,10,0,0,0-6.41-1.09l.86,2a5.71,5.71,0,0,1,3.89-.79l.32-2.31h-5.92l.61,2.27a5.31,5.31,0,0,1,3.59-.54l-.29-2.29a4,4,0,0,1-3.4.35v2.48a17.3,17.3,0,0,1,13.05,2,1.4,1.4,0,0,0,1.41-2.41A20.13,20.13,0,0,0,432.12,287a1.29,1.29,0,0,0,0,2.48,7.4,7.4,0,0,0,5.34-.67c1.24-.62.47-2.19-.63-2.33a8.55,8.55,0,0,0-5.16.9c-1.11.53-.54,2.28.62,2.27l5.92-.09a1.18,1.18,0,0,0,0-2.35,8.09,8.09,0,0,0-5.34,1.17,1.12,1.12,0,0,0,.86,2,7.41,7.41,0,0,1,4.76.75l1.06-1.81a3.18,3.18,0,0,0-1.54-.39,19.76,19.76,0,0,0-2.76.93.89.89,0,0,0,.89-1.54Z"/><path class="cls-2" d="M427.85,254.42a6.76,6.76,0,0,0,.68-4.28,1.47,1.47,0,0,0-1.64-1.07,1.51,1.51,0,0,0-1.3,1.47,7.47,7.47,0,0,1-.48,1.45,1.52,1.52,0,0,0,1,1.85,1.54,1.54,0,0,0,1.85-1.05,10.36,10.36,0,0,0,.59-2.25l-2.95.4a3.29,3.29,0,0,1-.38,2,1.54,1.54,0,0,0,.54,2.05,1.5,1.5,0,0,0,2.05-.54Z"/><path class="cls-2" d="M427.93,254.31a14.19,14.19,0,0,0,1.49-2.51l-2.59-1.52a10.42,10.42,0,0,1-1.36,2.28,1.53,1.53,0,0,0,0,2.12,1.51,1.51,0,0,0,2.12,0,12.77,12.77,0,0,0,1.83-2.88,1.57,1.57,0,0,0-.54-2.06,1.51,1.51,0,0,0-2.05.54,14.52,14.52,0,0,1-1.49,2.52,1.52,1.52,0,0,0,.54,2,1.54,1.54,0,0,0,2.05-.54Z"/><path class="cls-2" d="M426.82,258.45a13.85,13.85,0,0,0,4.27-4.7c.79-1.43-1.22-3.17-2.36-1.82a14.11,14.11,0,0,1-3.26,3c-1.64,1-.13,3.62,1.51,2.59a16.44,16.44,0,0,0,3.87-3.43l-2.36-1.81a10.38,10.38,0,0,1-3.19,3.62c-1.58,1.08-.08,3.68,1.52,2.59Z"/><path class="cls-2" d="M427,257.14a13.7,13.7,0,0,0,5.29-5.12l-2.6-1.51a10.22,10.22,0,0,1-4.09,4.54,1.5,1.5,0,0,0,1.52,2.59,13.06,13.06,0,0,0,5.17-5.62,1.5,1.5,0,0,0-2.6-1.51,10.73,10.73,0,0,1-4.2,4c-1.71.91-.19,3.5,1.51,2.59Z"/><path class="cls-2" d="M433.71,304.77c.63-3.18-1.56-5.44-4.68-5.9-2.49-.36-5.16.31-7.61.64-3.83.52-7.65,1.08-11.48,1.62-1.5.21-.86,2.49.63,2.28,3-.42,6-.83,9-1.26,2.6-.36,12.32-3,12.26,2.37,0,1,1.65,1.32,1.86.25Z"/><path class="cls-2" d="M409.66,303.43A113.7,113.7,0,0,0,426.8,315c1.07.58,2.41-.95,1.36-1.76a114.15,114.15,0,0,0-17.48-11.09c-.8-.41-1.81.69-1,1.32Z"/><path class="cls-2" d="M430.23,305c-2-.1-4.08-.21-6.12-.26-.92,0-1.16,1.47-.23,1.64a6.67,6.67,0,0,0,5.05-.82.91.91,0,0,0,0-1.57,11.1,11.1,0,0,0-12.54.39,1,1,0,0,0,0,1.69,9.09,9.09,0,0,0,9.16.11,1,1,0,0,0,.45-1.11,3.92,3.92,0,0,0-6-2.62,1,1,0,0,0,.23,1.82,15.5,15.5,0,0,0,6.14.43l-.27-2a11,11,0,0,0-3.68,2,1,1,0,0,0,.44,1.68,10.51,10.51,0,0,0,6.72-.81,1,1,0,0,0,0-1.74,8.86,8.86,0,0,0-3.42-.94c-.93-.08-1.26,1.13-.71,1.73a2.77,2.77,0,0,0,3.74.55,1,1,0,0,0-.25-1.86l-1.68-.07L427.1,302c.4-.61-3,.13-2-.06a7.12,7.12,0,0,0-2.36,1.16,1,1,0,0,0,.79,1.88c1.56-.42,5.31-1.22,5.78,1.36l1.53-1.18-1.24-1.9-2.07.28a7.57,7.57,0,0,1,.45,5.16l2-.25.11-1.64h-1.52c1.61.85,1.58,1.74-.09,2.65l-1.24.5-2.22-2.3-.4,1.53,3.44,1,.79-1.39a9.54,9.54,0,0,1-8.77-2.22l-.24,1.81a7.06,7.06,0,0,1,6.88.3l.28-2.13a4.58,4.58,0,0,1-5.9-2.23l-.69,1.72a9.44,9.44,0,0,1,8.67,2.35l.23-1.84a6.1,6.1,0,0,1-5.68-.06l.55,1.33a2.56,2.56,0,0,1,4.48-1l1.43-1.86A15.85,15.85,0,0,0,417.61,302c-1.32.22-1,2.41.31,2.34l10.26-.56a1.21,1.21,0,0,0,.61-2.23,10.84,10.84,0,0,0-11.76.62,1.23,1.23,0,0,0-.55,1.35,3.16,3.16,0,0,0,4.63,1.92c1.21-.55.42-2.12-.61-2.24l-6.46-.73c-1-.11-1.42,1.08-1,1.81a7,7,0,0,0,5.88,3.61,14.71,14.71,0,0,0,4-.23c1.22-.2,2.42-.55,3.65-.73,1.07-.16,5.73-.57,6.22,0l.18,1.39.17-.3a1.14,1.14,0,0,0-2-1.15l-.19.29a1.18,1.18,0,0,0,.18,1.39c1.84,2.32,4.34-.88,2.13-2.84-4.93-4.39-14.71,3.86-18.15-2.64l-1,1.82,6.46.72-.61-2.24-1.09-.47-.56,1.35a8.46,8.46,0,0,1,9.34-.62l.6-2.23-10.26.57.32,2.33A13.54,13.54,0,0,1,428.89,307c1.14.85,2.24-.9,1.43-1.85a4.92,4.92,0,0,0-8.43,2.1,1.2,1.2,0,0,0,.55,1.33,8.37,8.37,0,0,0,8.05,0,1.18,1.18,0,0,0,.24-1.84,11.88,11.88,0,0,0-11-2.95,1.18,1.18,0,0,0-.7,1.72,6.82,6.82,0,0,0,8.53,3.29,1.17,1.17,0,0,0,.27-2.12,9.47,9.47,0,0,0-9.21-.28,1.15,1.15,0,0,0-.23,1.81,11.89,11.89,0,0,0,11,2.77,1.14,1.14,0,0,0,.79-1.39,4.28,4.28,0,0,0-7-2.15,1.12,1.12,0,0,0-.18,1.35,6.86,6.86,0,0,0,5.5,3.32,1,1,0,0,0,.95-.55c.78-1.7.24-3.3-1.71-3.71a1.13,1.13,0,0,0-1.24.5,2.9,2.9,0,0,0,3.32,4.38c3.61-1.26,2.34-5.55.18-7.44a1.09,1.09,0,0,0-1.52,0,3.29,3.29,0,0,0-.43,4.23,1.08,1.08,0,0,0,1.95-.25,9.46,9.46,0,0,0-.48-6.29c-.41-1-2.18-1-2.06.28a4.22,4.22,0,0,0,2.29,3.7,1.05,1.05,0,0,0,1.53-1.18C430.64,302,426,302.2,423,303l.79,1.87a4.75,4.75,0,0,1,3.95-1,1,1,0,0,0,.88-.5l.21-.31a1,1,0,0,0-.16-1.24c-2.27-2.39-4.92,2.13-.29,3.47l-.25-1.85-1.29-.23-.71,1.72,2.41.66v-1.74a7.1,7.1,0,0,1-5.18.62l.45,1.67,2.8-1.47c1-.32.9-2.11-.27-2a14.17,14.17,0,0,1-5.61-.35l.24,1.82c2.45.94,2.44,1.37-.05,1.3a6.55,6.55,0,0,1-3.57-1.09v1.69a9.5,9.5,0,0,1,10.63-.51V304l-3.68.78-.22,1.64c2,0,4.08-.12,6.12-.2a.61.61,0,0,0,0-1.21Z"/><path class="cls-2" d="M429.55,304.57a2.24,2.24,0,0,0-.1.37,2.87,2.87,0,0,0-.12.55,2.61,2.61,0,0,0,.09.88,1.73,1.73,0,0,0,1.47,1.27,1.71,1.71,0,0,0,1.71-1.19,1.42,1.42,0,0,0-1-1.82,1.11,1.11,0,0,0-1.36.76,1.12,1.12,0,0,0,.77,1.36.85.85,0,0,1-.55-.95c.09-.35,0-.08,0,0s0,0,.07-.09c-.08.08-.05.07.07,0l-.21.12.5-.14c-.15,0,.06,0,.12,0a1.25,1.25,0,0,1,.12.08c.07,0-.07-.11,0,0a1.14,1.14,0,0,1-.07-.22s-.06-.36-.05-.29a4,4,0,0,1,0-.49.74.74,0,0,0-1.45-.19Z"/><path class="cls-2" d="M431.57,306c.07.05.11.05,0,0s.13.12,0,0c.05.13.06.15,0,.08v0c0,.07,0,.38,0,.06,0,0,.05-.36,0-.14s0,0,0,0,0-.12,0-.17c0,.11-.09.1,0,.05a.47.47,0,0,0,.07-.12s-.12.16,0,.05.07-.06.1-.1c-.13.1-.16.12-.09.08s0,0,0,0a.37.37,0,0,1-.21,0c-.25,0,.12.06-.09,0s.1.15-.13-.08c0,0-.15-.22-.08-.09a.83.83,0,0,1-.1-.38c0,.15,0-.13,0-.15,0,.14,0-.1.05-.12-.08.16.15-.18.07-.07s-.08.13,0,0,.08,0,0,0l-.1.06-.14.06s.29-.1.13-.05.21,0,.07,0,.19,0,.19,0,.33.16.16.06a3,3,0,0,1,.23.21c0,.05.17.37.12.21a1.23,1.23,0,0,0-2.41.33,1.67,1.67,0,0,0,1.22,1.64,2,2,0,0,0,1.59-.32,2,2,0,0,0,.64-2.95,1.9,1.9,0,0,0-3,.48,2.33,2.33,0,0,0-.32,1.66c.12.3.14.34.05.13,0,.05,0,.09.05.13a2,2,0,0,0,.2.41,1.6,1.6,0,0,0,.69.6.94.94,0,0,0,.94-1.62Z"/><path class="cls-2" d="M430.25,305a3.22,3.22,0,0,0,.15.92l.35.86v-.63l0,.1a1.31,1.31,0,0,0,1.9,1.46,1.3,1.3,0,0,0-.31-2.36l-.09,0,.71.54c-.17-.29-.33-.59-.51-.87a4.9,4.9,0,0,0-.74-.82.88.88,0,0,0-1-.14.89.89,0,0,0-.39,1Z"/><path class="cls-2" d="M431.22,306.23a20.68,20.68,0,0,0-.64-2.58l-.76,1.34s.29-.16.14-.06-.1,0,0,0,.08,0,0,0a.81.81,0,0,1,.24.25l-.15-.57c0-.18,0-.16,0,0a1.06,1.06,0,0,0,0,.5c.07.22,0-.09,0,.05s0-.23,0,.06a1.22,1.22,0,0,0,0,.73,1.14,1.14,0,0,0,1.38.78,1.55,1.55,0,0,0,1.07-1.63,2.08,2.08,0,0,0-.23-.95l-.2-.25c-.28-.23-.33-.26-.15-.1s.13.13.06.05l-.21-.27A2.36,2.36,0,0,0,429,303a1.11,1.11,0,0,0-.5,1.24,24.37,24.37,0,0,0,1.25,2.63c.47.86,1.68.25,1.5-.63Z"/><path class="cls-2" d="M431,306c.51-.33,1.05-.59,1.54-.94a1.13,1.13,0,0,0-.26-2,18,18,0,0,0-3.59-1.24,1.24,1.24,0,0,0-1.45.71,1.23,1.23,0,0,0,.5,1.54,19.8,19.8,0,0,0,3.94,1.15l-.5-1.88c-.41.45-.76,1-1.17,1.41-.59.67.17,1.83,1,1.29Z"/><path class="cls-2" d="M427.2,302.79c1.61.31,4,.13,4.56,2.1.26.93-.59,7.21-2.61,5.32l-1.56,2,1.71.89,1-2.36a15.9,15.9,0,0,1-5.57-2,1.32,1.32,0,0,0-1.8,1.79,7.59,7.59,0,0,0,3.58,3.16,1.32,1.32,0,0,0,1.33-2.27L425,309.62l-1.32,2.25c.82.4,1.65.79,2.48,1.16,1.46.64,2.75-1.41,1.28-2.19-.81-.42-1.62-.82-2.44-1.22a1.31,1.31,0,0,0-1.32,2.25l2.84,1.8,1.33-2.27a5.3,5.3,0,0,1-2.64-2.21l-1.8,1.79a17.77,17.77,0,0,0,6.22,2.26c1.33.21,2.4-1.64,1-2.36l-1.71-.87c-1.24-.64-2.67,1-1.56,2a3.55,3.55,0,0,0,4.55.31c1.7-1.18,2.11-3.43,2.3-5.35.42-4.37-2.8-6.68-7-6a.92.92,0,0,0,0,1.76Z"/><path class="cls-2" d="M412.12,303.54a1.94,1.94,0,0,0,1,1.12,3.84,3.84,0,0,0,1.52.39,1,1,0,0,0,.72-1.74,4.47,4.47,0,0,0-2.55-1.2,1.13,1.13,0,0,0-.3,2.21,3.8,3.8,0,0,1,1.62.59l.51-1.9a5.21,5.21,0,0,1-1.69-.28c-.45-.09-1,.3-.8.81Z"/><path class="cls-2" d="M414.73,247.73c-3.81,1.84.66,7.5,2.86,8.71,3.91,2.17,8.6.48,11-3.1l-2.73-.74c-.11,1.67-.5,3.23-2.3,3.52a8.88,8.88,0,0,1-4.07-.32c-2.63-1-3.33-4.09-2.31-6.48a1.5,1.5,0,0,0-2.59-1.52c-3.44,4.48,0,10.6,5.28,11.16a8.58,8.58,0,0,0,6.94-2.39c1.55-1.56,2.92-4.46,1.68-6.56a1.54,1.54,0,0,0-2.06-.54l-.16.1a1.51,1.51,0,0,0-.69,1.69l0,.15c.54,1.85,3.44,1.06,2.89-.8l0-.15-.69,1.7.17-.1-2-.53c.65,1.11-1.27,3.09-2,3.58a5.67,5.67,0,0,1-4.09.83,4.09,4.09,0,0,1-2.62-6.62l-2.59-1.52c-1.76,4.14-.56,9.36,4.1,10.88,2,.65,5.37.92,7.35,0s2.65-4.13,2.75-6.12c.08-1.53-2-1.9-2.73-.74a5.29,5.29,0,0,1-8.82.62c-.37-.45-1.66-2.25-1-2.8,1.17-.92-.32-2.52-1.5-2Z"/><path class="cls-2" d="M418.87,248.15c1.35,1.28,3.84,1.36,5.59,1.27a1.31,1.31,0,0,0,.35-2.55,14.74,14.74,0,0,0-4.41-.85,1.35,1.35,0,0,0-.36,2.64,32,32,0,0,0,5.42,1.25,1.26,1.26,0,0,0,.63-2.34,32.41,32.41,0,0,0-5.33-1.5l-.36,2.64a12.39,12.39,0,0,1,3.72.66l.34-2.54a19.57,19.57,0,0,1-2.76.06,8.06,8.06,0,0,0-2.5,0,.75.75,0,0,0-.33,1.24Z"/><path class="cls-2" d="M417.05,247.91c-2.28,2.27-.6,6.35,2,7.57,3.1,1.46,6.92-.79,7.54-4.06h-2.68c.28,1.57-2.5,1.61-3.32,1.11s-1.16-2.26,0-2.69L419,247.77a3.79,3.79,0,0,0-.41,1.17c-.19,1.16,1.19,2.26,2.14,1.24a3.69,3.69,0,0,0,.7-1c.49-1-.34-2.51-1.59-2.06a4.37,4.37,0,0,0-.72,7.84c3.09,1.83,8.37-.18,7.43-4.29-.28-1.28-2.48-1.39-2.68,0-.26,1.77-2.08,3.32-3.91,2.54s-1.88-2.86-1.58-4.51a.83.83,0,0,0-1.37-.8Z"/><path class="cls-2" d="M420.4,248c-1.6-.27-2.65,1.32-2.83,2.75a3.69,3.69,0,0,0,2.3,3.84,4.48,4.48,0,0,0,4.67-.69c1.35-1.17,1.95-3.75.15-4.8a1.27,1.27,0,0,0-1.85,1.42c.26.78.67,1.3-.23,1.84a2.15,2.15,0,0,1-2,.1,1.55,1.55,0,0,1-1-1.58c.07-.76.63-1.15,1.07-1.7.29-.37.27-1.08-.31-1.18Z"/><path class="cls-2" d="M397.56,342.88c-1.93,8.59.45,17.41,4.95,24.86,4.71,7.8,12.15,13.26,18.1,20,12.36,14,20.27,32.34,18.17,51.29-2.13,19.19-14.95,34.62-26.41,49.28-11.67,14.94-22.09,31.32-40.48,38.44-9,3.49-18.53,5.4-28,7.11s-20.53,2.24-29,7.43c-7.09,4.33-.63,15.49,6.53,11.17s17.7-4.53,26-6c9-1.57,18-3.33,26.55-6.4A74.79,74.79,0,0,0,397.38,527c7.94-6.73,14-15.51,20.32-23.69,12.05-15.58,25.83-31.17,31.64-50.4,5.87-19.38,1.33-40.65-8.68-57.85a103.7,103.7,0,0,0-19.78-24.14c-4.14-3.79-8.22-7.28-11-12.27s-3.66-10.42-4.77-15.78c-.79-3.78-6.76-3.72-7.59,0Z"/><path class="cls-2" d="M391.48,373.9a2,2,0,0,0,2-2l-.07-.53a2.11,2.11,0,0,0-.51-.88l-.41-.31a2,2,0,0,0-1-.27,1.45,1.45,0,0,0-.77.17,1.78,1.78,0,0,0-1,1.05,1.45,1.45,0,0,0-.17.77l.07.53a1.91,1.91,0,0,0,.51.88l.4.31a2,2,0,0,0,1,.27Z"/><path class="cls-2" d="M393.71,378.74c2.56,0,2.57-4,0-4s-2.57,4,0,4Z"/><path class="cls-2" d="M394.22,380.94a2.68,2.68,0,0,1,.07.27,2,2,0,0,0,3.26.86,1.94,1.94,0,0,0-.86-3.25l-.27-.07a1.81,1.81,0,0,0-1.74.46,1.83,1.83,0,0,0-.46,1.73Z"/><path class="cls-2" d="M396.35,383.81l0,.35a1.13,1.13,0,0,0,.13.54,1.27,1.27,0,0,0,.74.74,1.13,1.13,0,0,0,.54.13l.38-.05a1.41,1.41,0,0,0,.62-.37l.22-.28a1.38,1.38,0,0,0,.19-.71l.05-.35a1.21,1.21,0,0,0-.13-.56,1.08,1.08,0,0,0-.3-.46,1,1,0,0,0-.47-.3,1,1,0,0,0-.56-.13l-.38.05a1.44,1.44,0,0,0-.64.38l-.23.29a1.46,1.46,0,0,0-.2.73Z"/><path class="cls-2" d="M396.17,390.75c4.24-3.84,10.57-2.77,12.59,2.94.81,2.3.93,5.37-.86,7.26s-4.76,1.84-7.12,1.58c-1.66-.18-1.64,2.42,0,2.6,3.38.38,7.28-.11,9.47-3s1.95-7,.54-10.1c-2.78-6.12-12.06-8.92-16.21-2.49-.64,1,.76,2,1.59,1.22Z"/><path class="cls-2" d="M387.7,391.56c-12.12-1.42-12.46,20.63-.42,20.31,4.9-.12,8.75-4.29,9.28-9A11.11,11.11,0,0,0,387,390.71c-1.82-.3-2.6,2.48-.77,2.78,4,.66,7.25,3.44,7.57,7.7a7.41,7.41,0,0,1-5.85,8c-4.58.84-7.56-4-7.53-8.13,0-4.63,3.36-7,7.42-8.21a.66.66,0,0,0-.18-1.29Z"/><path class="cls-2" d="M377,395.3c-7.56-6.47-16.2,5.27-12.73,12.59.83,1.74,3.41.22,2.59-1.52-2-4.21,3.25-13,8-8.95,1.46,1.25,3.59-.86,2.12-2.12Z"/><path class="cls-2" d="M388.45,395.28a6.9,6.9,0,0,0-6.49,6.88,5.64,5.64,0,0,0,7.44,5.58c3.66-1.24,5-5.88,3.28-9.16-1.84-3.46-6.83-4-8.32,0-.51,1.35,1.34,2.15,2.25,1.31l1.6-1.44-2.1-1.62a17.57,17.57,0,0,1-2,3.32c-.91,1.23,1,2.62,2.07,1.6l1.62-1.61-2-1.57-1.72,3.09c-.68,1.23,1.05,2.72,2,1.56A13.29,13.29,0,0,1,388.4,401l-1.72-1.72a14,14,0,0,1-1.84,2.9,1.25,1.25,0,0,0,1.77,1.77,21,21,0,0,0,2.89-2.84l-2-1.52-2.91,4c-.72,1,.72,2.44,1.71,1.71l3.2-2.37-1.71-1.71-3.17,4.59c-.64.92.42,2.09,1.41,1.83a7,7,0,0,0,5.18-7.34l-2.14.88c1,1.14.4,1.75.24,2.94-.2,1.54,0,1.35.84.75a3.89,3.89,0,0,0,1.44-2.24,4.24,4.24,0,0,0-2.12-4.75c-1.47-.75-2.76,1.48-1.29,2.2a1.65,1.65,0,0,1,.56,2.62c-.6.64-1.44.72-1.8,1.61a2.07,2.07,0,0,0,1.95,2.78c3.93.06,3.74-5.57,1.95-7.68a1.26,1.26,0,0,0-2.13.89,4.46,4.46,0,0,1-3.34,4.93l1.4,1.83,3.18-4.58c.69-1-.71-2.44-1.71-1.71l-3.2,2.37,1.71,1.71,2.91-4c.84-1.14-1.05-2.61-2-1.52a21,21,0,0,1-2.89,2.84l1.77,1.77a17.14,17.14,0,0,0,2.25-3.4c.5-1-.62-2.54-1.73-1.73a16.43,16.43,0,0,0-2.85,2.61l2,1.56,1.76-3.08a1.31,1.31,0,0,0-2.05-1.58l-1.64,1.59,2.06,1.59a17.08,17.08,0,0,0,2-3.3,1.35,1.35,0,0,0-2.11-1.62L384.7,398l2.26,1.32c.66-1.71,2.65-.67,3.3.31a4.11,4.11,0,0,1,.57,3,3.49,3.49,0,0,1-4.34,2.87c-2.21-.65-2.68-3.33-1.94-5.24a6.44,6.44,0,0,1,4.08-3.65.7.7,0,0,0-.18-1.36Z"/><path class="cls-2" d="M402,393.9c-.42-1.94,2-1.7,2.89-1.11a5.1,5.1,0,0,1,1.79,2c.78,1.49.86,3.53-.76,4.48a2.73,2.73,0,0,1-3-4.53l-1.61-1.62-1,1.57c-.59.95.66,2.36,1.63,1.62l2.22-1.69-1.76-1.35a10.67,10.67,0,0,1-1.7,3.3c-.85,1.14.91,2.26,1.87,1.43l2.77-2.4-1.85-1.43-2.17,3.51a1.18,1.18,0,0,0,1.6,1.6l2.56-1.67L403.9,396l-2.17,3.88a1.16,1.16,0,0,0,1.58,1.58l2.85-1.82-1.57-1.56a1.72,1.72,0,0,1-1.49.88l1.1,1.91c2.07-1.81,3.87-4.47,1.72-7l-1.44,1.87a1.89,1.89,0,0,1,.82,2.81l2.08.86c-.34-2.94,0-6.87-3.87-7.43A4.14,4.14,0,0,0,400,393.1c-1.14,1.22-.25,4.15-.12,5.68l2.27-.61-1.69-3.65-1.66,1.66a3.53,3.53,0,0,1,1.32,4h2.35c-.19-.55-1.78-7-.3-6.67l-.54-2.05c-2.38,1.84-3,5.71-.72,7.88a1.05,1.05,0,0,0,1.64-1.27c-.89-1.74-.79-3.63.82-4.88a1.24,1.24,0,0,0-.55-2.05c-5.33-1.31-3.6,7.17-2.7,9.69a1.23,1.23,0,0,0,2.35,0,6,6,0,0,0-2.44-6.74c-1.1-.78-2.13.68-1.67,1.67l1.69,3.65a1.23,1.23,0,0,0,2.27-.62l-.26-3c-.08-1-.1-1.68,1.26-1.34,1.94.47,1.45,3.51,1.62,5,.1.91,1.34,1.79,2.08.87a4.26,4.26,0,0,0-1.35-6.59,1.19,1.19,0,0,0-1.44,1.86c1.19,1.32-.76,2.9-1.64,3.67s.11,2.06,1.11,1.9a4,4,0,0,0,2.87-1.93c.64-1-.62-2.16-1.57-1.57l-2.86,1.81,1.58,1.58,2.19-3.87c.55-1-.59-2.24-1.59-1.59l-2.57,1.65,1.6,1.6,2.18-3.5c.75-1.19-.87-2.26-1.85-1.43l-2.78,2.4,1.86,1.43a12.74,12.74,0,0,0,2-3.85c.28-.92-.91-2-1.76-1.35l-2.21,1.7,1.62,1.62,1-1.56c.59-.95-.65-2.35-1.62-1.62-2.41,1.8-3.12,5.46-.85,7.72a5.15,5.15,0,0,0,7.59-.75c1.94-2.87.16-6.89-2.58-8.53-2.48-1.48-6.74-.06-5.21,3.35.36.8,1.52.21,1.35-.57Z"/><path class="cls-2" d="M377.34,401.51c3.62,0,3.63-5.63,0-5.63s-3.62,5.63,0,5.63Z"/><path class="cls-2" d="M374.09,402.79v.34a2.1,2.1,0,0,0,.24,1.11,2.62,2.62,0,0,0,1.53,1.53A2.1,2.1,0,0,0,377,406l.77-.1a2.92,2.92,0,0,0,1.27-.74l.45-.58a2.88,2.88,0,0,0,.39-1.46v-.34a2.11,2.11,0,0,0-.25-1.11,2.09,2.09,0,0,0-.59-.93,3.21,3.21,0,0,0-2-.85l-.77.11a2.78,2.78,0,0,0-1.27.74l-.45.58a2.88,2.88,0,0,0-.39,1.46Z"/><path class="cls-2" d="M379,408.57l.07-.21-1,1.32.05,0a1.68,1.68,0,0,0,.65-.59,1.32,1.32,0,0,0,.3-.51,1.86,1.86,0,0,0,.2-.9l-.09-.61-.23-.56a1.78,1.78,0,0,0-.6-.65,1.19,1.19,0,0,0-.51-.3,1.79,1.79,0,0,0-.89-.2l-.62.09-.55.23a1.79,1.79,0,0,0-.65.6,1.1,1.1,0,0,0-.3.51,1.82,1.82,0,0,0-.2.89l.08.62.24.55a2.2,2.2,0,0,0,.83.83l.05,0-1-1.32.07.21.22.51a1.59,1.59,0,0,0,.55.6,1.18,1.18,0,0,0,.47.28,1.68,1.68,0,0,0,.83.18l.57-.08.51-.21a2.44,2.44,0,0,0,1-1.28Z"/><path class="cls-2" d="M383.29,416.37c3.13,0,3.13-4.85,0-4.85s-3.12,4.85,0,4.85Z"/><path class="cls-2" d="M387.76,416.64c3,0,3-4.64,0-4.64s-3,4.64,0,4.64Z"/><path class="cls-2" d="M391.48,415c2.8,0,2.81-4.36,0-4.36s-2.81,4.36,0,4.36Z"/><path class="cls-2" d="M394.45,412.73a1.76,1.76,0,0,0,0-3.52,1.76,1.76,0,0,0,0,3.52Z"/><path class="cls-2" d="M395.94,410.83c3.17,0,3.17-4.92,0-4.92s-3.17,4.92,0,4.92Z"/><path class="cls-2" d="M396.63,404.11l-.08.18,0,.07-.21.49a3.33,3.33,0,0,0-.07.54,2.16,2.16,0,0,0,.57,1.37,1.42,1.42,0,0,0,.62.4,1.47,1.47,0,0,0,.74.17l.52-.07a2,2,0,0,0,.85-.5l.3-.39a1.88,1.88,0,0,0,.27-1,3.33,3.33,0,0,0-.07-.54l-.21-.49,0-.07-.08-.18a1.87,1.87,0,0,0-.64-.64,1.83,1.83,0,0,0-1.81,0,1.87,1.87,0,0,0-.64.64Z"/><path class="cls-2" d="M398.17,403.14c2.86,0,2.86-4.43,0-4.43s-2.85,4.43,0,4.43Z"/><path class="cls-2" d="M397.06,398.84c2.58,0,2.58-4,0-4s-2.58,4,0,4Z"/><path class="cls-2" d="M396.31,395.7c2.85,0,2.86-4.43,0-4.43s-2.85,4.43,0,4.43Z"/><path class="cls-2" d="M392.22,392.62c2.72,0,2.72-4.22,0-4.22s-2.72,4.22,0,4.22Z"/><path class="cls-2" d="M388.13,390.76c2.71,0,2.72-4.22,0-4.22s-2.72,4.22,0,4.22Z"/><path class="cls-2" d="M384.41,392.09c3,0,3-4.64,0-4.64s-3,4.64,0,4.64Z"/><path class="cls-2" d="M377.44,390.29l-.09.27,1.06-1.38a.83.83,0,0,0-.27.19,1.76,1.76,0,0,0-.6.67l-.24.56a1.77,1.77,0,0,0,0,.94,1.67,1.67,0,0,0,.28.88l.37.47a1.69,1.69,0,0,0,.75.49,1.71,1.71,0,0,0,.91.2l.63-.08a1.72,1.72,0,0,0,.8-.42,1.84,1.84,0,0,0,.61-.66l.24-.57a1.76,1.76,0,0,0,0-.94,1.82,1.82,0,0,0-.28-.87l-.37-.48a1.66,1.66,0,0,0-.5-.38l1.06,1.38-.09-.27-.22-.53a1.72,1.72,0,0,0-.58-.62,1.11,1.11,0,0,0-.48-.28,1.7,1.7,0,0,0-.86-.19l-.59.08-.52.22a2.39,2.39,0,0,0-1,1.32Z"/><path class="cls-2" d="M376.56,393c-.11.07-.17.13-.29.22a2.27,2.27,0,0,0-.74.95,1.28,1.28,0,0,0-.16.6,2.09,2.09,0,0,0,0,.35l.08.63v0l0,.05,0,.13.23.56a1.71,1.71,0,0,0,.6.65,1.19,1.19,0,0,0,.51.3,1.82,1.82,0,0,0,.89.2l.62-.09.55-.23a1.71,1.71,0,0,0,.65-.6A1.64,1.64,0,0,0,380,396a2.6,2.6,0,0,0,.15-.84v0l-.09-.63-.24-.57-.37-.49-.48-.37h0l0,0a2.32,2.32,0,0,0-2.31,0Z"/><path class="cls-2" d="M392.17,386.79l-.28.42-.21.51a1.6,1.6,0,0,0,0,.84,1.08,1.08,0,0,0,.14.53,1.6,1.6,0,0,0,.44.68l.43.33.5.21a1.6,1.6,0,0,0,.84,0,1.56,1.56,0,0,0,.78-.25l.43-.28a2.17,2.17,0,0,0,.79-.8,2.07,2.07,0,0,0,.31-1.11l-.08-.59a2.31,2.31,0,0,0-.57-1,1.65,1.65,0,0,0-.71-.46,1.7,1.7,0,0,0-.86-.19,2.21,2.21,0,0,0-1.12.3,2.33,2.33,0,0,0-.79.8Z"/><path class="cls-2" d="M394.61,385.05l-.28.43-.18.44a1.47,1.47,0,0,0,0,.75,1,1,0,0,0,.13.47,1.31,1.31,0,0,0,.39.6l.37.29.45.18a1.43,1.43,0,0,0,.74,0,1.41,1.41,0,0,0,.69-.22l.43-.28a2,2,0,0,0,.7-.71,1.94,1.94,0,0,0,.27-1l-.07-.53a2,2,0,0,0-.5-.87,1.48,1.48,0,0,0-.64-.4,1.4,1.4,0,0,0-.76-.17,1.94,1.94,0,0,0-1,.27,2.07,2.07,0,0,0-.71.7Z"/><path class="cls-2" d="M400.41,410.44c3.62,0,3.62-5.63,0-5.63s-3.63,5.63,0,5.63Z"/><path class="cls-2" d="M404.5,409.75c3.21,0,3.22-5,0-5s-3.22,5,0,5Z"/><path class="cls-2" d="M409,408.05c2.94,0,3-4.57,0-4.57s-2.94,4.57,0,4.57Z"/><path class="cls-2" d="M412.31,404.24a1.83,1.83,0,0,0,0-3.65,1.83,1.83,0,0,0,0,3.65Z"/><path class="cls-2" d="M413.43,400.2c2.89,0,2.9-4.5,0-4.5s-2.9,4.5,0,4.5Z"/><path class="cls-2" d="M413.06,396.71c2.71,0,2.72-4.22,0-4.22s-2.72,4.22,0,4.22Z"/><path class="cls-2" d="M362.09,409.45a2,2,0,0,0,1-.22,2,2,0,0,0,.82-.54,1.85,1.85,0,0,0,.53-.82,1.89,1.89,0,0,0,.22-1l-.09-.68a2.49,2.49,0,0,0-.66-1.13l-.52-.41a2.55,2.55,0,0,0-1.29-.35,2,2,0,0,0-1,.22,1.9,1.9,0,0,0-.83.54,1.94,1.94,0,0,0-.53.82,2,2,0,0,0-.22,1l.09.68a2.49,2.49,0,0,0,.66,1.13l.52.41a2.66,2.66,0,0,0,1.3.35Z"/><path class="cls-2" d="M375,411.34l-.36.07-.44.19a1.27,1.27,0,0,0-.52.48.82.82,0,0,0-.24.41,1.35,1.35,0,0,0-.16.71l.06.5.19.44a1.45,1.45,0,0,0,.48.53,1.47,1.47,0,0,0,.63.33l.36.07a2,2,0,0,0,1,0,1.92,1.92,0,0,0,.86-.5l.3-.39a1.87,1.87,0,0,0,.26-1,1.46,1.46,0,0,0-.16-.74,1.42,1.42,0,0,0-.4-.62,1.92,1.92,0,0,0-.86-.5,2,2,0,0,0-1,0Z"/><path class="cls-2" d="M362.83,398.18c3.17,0,3.17-4.92,0-4.92s-3.17,4.92,0,4.92Z"/><path class="cls-2" d="M366.55,397.11a2.1,2.1,0,0,0,1.11-.24,2.62,2.62,0,0,0,1.53-1.53,2.1,2.1,0,0,0,.24-1.11l-.1-.77a2.92,2.92,0,0,0-.74-1.27l-.58-.45a2.88,2.88,0,0,0-1.46-.39,2.11,2.11,0,0,0-1.11.25,2.52,2.52,0,0,0-1.52,1.52,2.11,2.11,0,0,0-.25,1.11l.1.77a3,3,0,0,0,.74,1.27l.59.45a2.84,2.84,0,0,0,1.45.39Z"/><path class="cls-2" d="M370.64,394.83c3.17,0,3.18-4.92,0-4.92s-3.17,4.92,0,4.92Z"/><path class="cls-2" d="M371.87,392.87l.15.28a2.28,2.28,0,0,0,2,1.13,2.27,2.27,0,0,0,1.16-.31,2.3,2.3,0,0,0,.82-.82l.15-.28a2.46,2.46,0,0,0-4.25-2.49,2.45,2.45,0,0,0,0,2.49Z"/><path class="cls-2" d="M393.28,372.84l0,.31a2,2,0,0,0,.22,1,2,2,0,0,0,.54.83,2.87,2.87,0,0,0,1.84.76l.69-.09a2.49,2.49,0,0,0,1.15-.67l.41-.52a2.66,2.66,0,0,0,.35-1.32l0-.31a2,2,0,0,0-.23-1,2.38,2.38,0,0,0-1.39-1.39,2,2,0,0,0-1-.23l-.7.1a2.56,2.56,0,0,0-1.16.67l-.42.54a2.79,2.79,0,0,0-.36,1.33Z"/><path class="cls-2" d="M400,380.61l.17.69.18.42a1.36,1.36,0,0,0,.45.5,1.66,1.66,0,0,0,1.07.37,1.93,1.93,0,0,0,.88-.24,1.75,1.75,0,0,0,.81-1.05l.17-.69a1.92,1.92,0,0,0-.5-1.88,1.92,1.92,0,0,0-2.73,0,2,2,0,0,0-.5,1.88Z"/><path class="cls-2" d="M400.83,383.07l0,.34a2.37,2.37,0,0,0,.62,1.52,2.45,2.45,0,0,0,1.52.63l.57-.08a2.07,2.07,0,0,0,.95-.55l.33-.43a2.11,2.11,0,0,0,.3-1.09l0-.34a1.62,1.62,0,0,0-.19-.84,1.51,1.51,0,0,0-.45-.7,2.44,2.44,0,0,0-1.54-.64l-.58.08a2.12,2.12,0,0,0-1,.56l-.34.44a2.14,2.14,0,0,0-.3,1.1Z"/><path class="cls-2" d="M387.32,368.65l.07.29A2.41,2.41,0,0,0,388,370a2.37,2.37,0,0,0,1,.6,2.45,2.45,0,0,0,1.26,0,2.32,2.32,0,0,0,1-.6,2.53,2.53,0,0,0,.61-1.05l.06-.29a2.43,2.43,0,0,0-.62-2.36l-.49-.38a2.41,2.41,0,0,0-1.23-.33,1.76,1.76,0,0,0-.93.2,1.83,1.83,0,0,0-.78.51,2.48,2.48,0,0,0-.63,1.07,2.56,2.56,0,0,0,0,1.29Z"/><path class="cls-2" d="M390.89,369.89l.13.71.21.49a1.59,1.59,0,0,0,.53.59,1.06,1.06,0,0,0,.46.26,1.59,1.59,0,0,0,.8.18,2.42,2.42,0,0,0,1.05-.28,1.58,1.58,0,0,0,.58-.54,1.53,1.53,0,0,0,.37-.7l.14-.71a2.32,2.32,0,0,0,0-1.17,2.25,2.25,0,0,0-.57-1,2.31,2.31,0,0,0-1.57-.65,2.27,2.27,0,0,0-1.56.65,2.07,2.07,0,0,0-.57,1,2.12,2.12,0,0,0,0,1.17Z"/><path class="cls-2" d="M406.36,381.35a1.37,1.37,0,0,0,0-2.74,1.37,1.37,0,0,0,0,2.74Z"/><path class="cls-2" d="M407.17,382.82l.06.35.19.43a1.33,1.33,0,0,0,.46.51,1,1,0,0,0,.39.23,1.39,1.39,0,0,0,.69.15l.48-.06.43-.18a1.33,1.33,0,0,0,.5-.47,1.24,1.24,0,0,0,.32-.61l.07-.35a1.85,1.85,0,0,0-.48-1.81l-.38-.29a1.82,1.82,0,0,0-.94-.26,1.45,1.45,0,0,0-.71.16,1.49,1.49,0,0,0-.6.39,1.85,1.85,0,0,0-.48,1.81Z"/><path class="cls-2" d="M408.48,387.77l.42.18.54.22a1.62,1.62,0,0,0,.9,0,1.16,1.16,0,0,0,.57-.15,1.78,1.78,0,0,0,.72-.46l.35-.46.23-.54a1.69,1.69,0,0,0,0-.89,1.61,1.61,0,0,0-.27-.84l-.18-.42a2.27,2.27,0,0,0-.87-.87,2.38,2.38,0,0,0-1.22-.33l-.65.08A2.54,2.54,0,0,0,408,384a1.9,1.9,0,0,0-.5.78,1.87,1.87,0,0,0-.21.93,2.41,2.41,0,0,0,.33,1.23,2.59,2.59,0,0,0,.87.87Z"/><path class="cls-2" d="M411.57,390.77a1.38,1.38,0,0,0,0-2.75,1.38,1.38,0,0,0,0,2.75Z"/><path class="cls-2" d="M409.79,392.6a6.7,6.7,0,0,0,1.44,2.68,2,2,0,0,0,3.36-1.4,5.23,5.23,0,0,0-.66-2.42,2.33,2.33,0,0,0-1-1.28,2.21,2.21,0,0,0-1.65-.22,2.16,2.16,0,0,0-1.28,1,2.08,2.08,0,0,0-.22,1.65Z"/><path class="cls-2" d="M412.68,396.47l.38,0a1.31,1.31,0,0,0,.7-.16,1.41,1.41,0,0,0,.59-.37,1.5,1.5,0,0,0,.38-.59,1.44,1.44,0,0,0,.15-.71l-.06-.48a1.84,1.84,0,0,0-.47-.81L414,393a2,2,0,0,0-.92-.25l-.38,0a1.35,1.35,0,0,0-.71.16,1.31,1.31,0,0,0-.6.39,1.39,1.39,0,0,0-.39.59,1.41,1.41,0,0,0-.16.72l.07.5a1.9,1.9,0,0,0,.48.82l.37.29a2,2,0,0,0,.94.26Z"/><path class="cls-2" d="M400.15,377.58a4.43,4.43,0,0,0-.79-1.07,2.38,2.38,0,0,0-.86-.49L398,376a1.47,1.47,0,0,0-.75.16,1,1,0,0,0-.42.25,1,1,0,0,0-.35.35,1.84,1.84,0,0,0-.42,1.17,2.91,2.91,0,0,0,.16.88l.15.41a2.12,2.12,0,0,0,.53.92l.42.32a2.08,2.08,0,0,0,1.05.29,1.57,1.57,0,0,0,.8-.18,1.55,1.55,0,0,0,.67-.43,1.64,1.64,0,0,0,.43-.67,1.55,1.55,0,0,0,.18-.8,2.11,2.11,0,0,0-.29-1Z"/><path class="cls-2" d="M328.21,395.89a4.9,4.9,0,0,0,2.94-1.82l-2.51-1.46c-1.42,4.71,4.55,5.67,6.71,2.06l-2.75-.36c.82,3.21,5.08,7,7.07,2.35l-2.8-.76c.45,3.34,4,7.09,6.42,3l-2.74-.36c.77,4.26,5.79,5.42,7.53,1.24l-2.95-.4c.07,1.33.06,3.09,1.22,4,1.67,1.29,5.07-1.08,6.24.89a1.51,1.51,0,0,0,2.35.31l1.85-2.16-2.51-.66c.52,3.67,3.6,4.11,6.83,4.27,1.93.09,1.92-2.91,0-3-1.58-.08-3.62.16-3.94-2.07a1.51,1.51,0,0,0-2.51-.66l-1.84,2.15,2.36.31a4.14,4.14,0,0,0-3.21-2.43c-1.41-.22-3.73,1.18-3.84-.93a1.5,1.5,0,0,0-2.94-.4l-1.75-1.24a1.52,1.52,0,0,0-2.74-.36l-.83-1.5c-.16-1.24-2.13-2.32-2.79-.75-1.07-.11-1.6-.65-1.58-1.63a1.52,1.52,0,0,0-2.75-.36l-1.22.25A1.51,1.51,0,0,0,329,392l-1.61,1c-1.83.6-1.05,3.49.79,2.9Z"/><path class="cls-2" d="M321.51,388.09c-.94,1.51-.55,3.39,1.33,3.81a5,5,0,0,0,4.26-1.19L325,388.59a4.41,4.41,0,0,0-.62,5.77c1.11,1.56,3.71.07,2.59-1.51a1.49,1.49,0,0,1,.15-2.14c1.44-1.3-.68-3.4-2.12-2.12.11-.09-.34.19-.43.23a5.83,5.83,0,0,1-.69.16c-.13,0-.27,0-.4,0,.13,0,0-.09.11,0l.12.1a.85.85,0,0,1,.24.8c-.05,0,.2-.36.17-.32,1-1.65-1.58-3.15-2.59-1.51Z"/><path class="cls-2" d="M322.44,388.07l2.44-.34c0,.77,1.12,1.41,1.68.7l3.56.72a1.14,1.14,0,0,0,1.67.68l4.13,1.38a1.19,1.19,0,0,0,2.15.28c1.47-2.19,2.54,1.53,4,2.23a1.24,1.24,0,0,0,1.67-.44l2.3,1a1.28,1.28,0,0,0,1.86.76l4.43.95a1.31,1.31,0,0,0,2.24,0l2.79-.28A1.35,1.35,0,0,0,359,397c1.54-.56,2.17-1.59,2.06,1.73-.05,1.75,2.59,1.72,2.7,0s.43-4.88-1.49-5.79-2.55.94-4,1.48l1.69,1.29c-.56-4.82-5.45-4.85-7.7-1h2.24a5.24,5.24,0,0,0-7.95-1.82l1.86.75c-.87-3.42-5.07-5.71-6.85-1.52l1.67-.44c-1.6-.77-1.34-3.26-3.32-3.74s-3,1.1-3.9,2.44l2.15.28c-1.21-3.25-4.5-4.59-7.55-2.72l1.67.68c-.75-4.15-5.23-5-7.29-1.31l1.82.49c-.31-4.35-5.27-4.05-5.74.16-.08.77,1.15.9,1.34.18Z"/><path class="cls-2" d="M401,383.14c-.09,0-5.1-1.84-3.39-3,1-.68.75-2.54-.66-2.43l-1.91-1.82c.9-.9,0-2.68-1.3-2.23l-1.67-.82c.58-.93-.4-2.42-1.51-2q-2-1.93-.14-3.12a1.32,1.32,0,0,0-1.87-1.87c-1.53,1.46-3.47,3.69-2.22,5.93a4,4,0,0,0,4.94,1.64l-1.52-2c-2.11,3.38,1.46,5.88,4.7,4.76l-1.3-2.24c-3.13,3.15,0,6.67,3.8,6.31l-.65-2.42c-1.47,1.06-2.25,2.62-1.29,4.4,1.1,2,3.69,2.44,5.76,2.61,1.07.1,1.06-1.38.23-1.72Z"/><path class="cls-2" d="M395.54,370.71c2.07,1.1,2.69,2.64,1.87,4.6a1.2,1.2,0,0,0,.83,1.47c2,.27,5.39,1.71,3.83,4.54a1.3,1.3,0,0,0,1.12,1.93c2.22-.07,3.36,1.08,3.4,3.46a1.39,1.39,0,0,0,1.32,1.74l.44.28c-.91,1.26,1.19,2.9,2.17,1.67,1.85-2.31.1-4.57-2.61-4.69l1.32,1.73c1.38-4-2.47-6.59-6-6.76l1.11,1.93c2.24-4.28-1.66-7.7-5.74-8.17l1.15,1.5c1.06-3.14-.73-5.46-3.59-6.63-.84-.34-1.26.94-.58,1.4Z"/><path class="cls-2" d="M323,385.45a3.73,3.73,0,0,0-1.87.68,4.55,4.55,0,0,0-1.33,1.59.89.89,0,0,0,.77,1.32,2,2,0,0,0,1.7-.91,5.2,5.2,0,0,1,.4-.53s.16-.06.14,0h0a.57.57,0,0,1-.3-.64.93.93,0,0,0,1.8.5c.44-1.17-.83-1.87-1.81-1.71a2,2,0,0,0-1.23.69c-.13.17-.49.88-.72.88l.85,1.12a3.47,3.47,0,0,1,1.9-1.79.63.63,0,0,0-.32-1.16Z"/><path class="cls-2" d="M323.77,388.1c-.52.2-1,.46-1.52.64,0,0-.15,0-.13,0v0c.23,0,.1.19-.39.53l-1.21-2.06a11.32,11.32,0,0,0-1.89,2.37c-.43,1,.53,2.3,1.59,1.59a11.05,11.05,0,0,0,2-2.21c.72-.87.07-2.5-1.2-2.07a2.14,2.14,0,0,0-.72,3.57c1.32,1.4,3.49.26,4.37-1.06a.85.85,0,0,0-1-1.24Z"/><path class="cls-2" d="M376.28,390.68l.17.09c.1.06,0,0,0,0l.12.11c.14.15-.08-.11,0,.05a3.44,3.44,0,0,0,.3.35c-.11-.12,0,0,0,.06s.09.21,0,.07a.73.73,0,0,0,1.4-.39,1.89,1.89,0,0,0-.71-1.15,2.47,2.47,0,0,0-1.11-.39c-.62-.08-.85.9-.32,1.16Z"/><path class="cls-2" d="M377.49,390.46a3.18,3.18,0,0,0-.68.15l-.63.27a.77.77,0,0,0,.59,1.4c.2,0,.41-.09.61-.15a4.22,4.22,0,0,0,.68-.32.74.74,0,0,0-.57-1.35Z"/><path class="cls-2" d="M383.43,391.76c.46-.45,1-.31,1.57-.48a.81.81,0,0,0,.19-1.47c-1.07-.55-2.24.23-2.84,1.11-.45.66.54,1.38,1.08.84Z"/><path class="cls-2" d="M390.27,388.91c.26-.21,1.53-1.68,1.9-.89.61,1.28,2.28.28,2.11-.89-.07-.47.62-.6.91-.49a1.2,1.2,0,0,0,1.48-.84c.16-.92.1-1.31,1-1a1,1,0,0,0,1.3-1v-.25a1.2,1.2,0,0,0-.59-1c-2.13-1.22-3.65.73-4,2.68l1.47-.84a2.93,2.93,0,0,0-3.77,3.41l2.11-.89c-1.38-2.72-4.55-.92-5.34,1.22-.34.89.85,1.32,1.44.84Z"/><path class="cls-2" d="M395.52,389.35c-2.33.3-3.59,2.92-3.53,5.06a1,1,0,0,0,2.05.28,8.14,8.14,0,0,1,.94-2.16,5.08,5.08,0,0,1,1.29-1.56c2.29-.9-.3-3.71-1.41-1.84-.49.82-1.28,1.45-1.77,2.3a10.15,10.15,0,0,0-1.07,2.7l2.06.28c-.1-1.73.89-2.67,1.93-3.88.34-.4.16-1.27-.49-1.18Z"/><path class="cls-2" d="M365.62,401.53c-1.63,3.12.14,7,3.06,8.65,3.51,2,7.79.66,10.5-2,1.28-1.27-.59-3-1.93-1.93C375,408,370.06,408,369,404.64c-1-3.14,2.46-5.77,4.81-7.06,1.45-.81.42-2.84-1.08-2.55-7.35,1.42-8.18,11-2.88,15.27a1.32,1.32,0,0,0,1.86-1.86c-1.6-1.77-2.91-3.75-2.56-6.25a5.18,5.18,0,0,1,4.32-4.47l-1.07-2.55c-4,2.21-8.55,6.84-5.47,11.51,2.85,4.31,8.48,4.54,12.29,1.48l-1.93-1.93c-4.21,4.26-10.47,1.83-10-4.25a.9.9,0,0,0-1.66-.45Z"/><path class="cls-2" d="M374,397.92c-.13-.08-.09-.06.12,0l.32.06a4.58,4.58,0,0,1,.49.15,1.79,1.79,0,0,1,.81.54l1.82-1.4A4.33,4.33,0,0,0,375.5,396a2.72,2.72,0,0,0-2.42-.08,1.09,1.09,0,0,0-.22,1.69,3.58,3.58,0,0,0,1.77.77,13.45,13.45,0,0,0,1.64.67,1.17,1.17,0,0,0,.89-2.12,3.76,3.76,0,0,0-1.79-.67,2.91,2.91,0,0,0-1.7.46.67.67,0,0,0,.34,1.24Z"/><path class="cls-2" d="M373.93,400.93c.53-.13.82,0,.87.38l-.13.5a1.45,1.45,0,0,1-1.07-.07,3.11,3.11,0,0,1-.23.28,4.87,4.87,0,0,0-.52.76l1.27-.51c.63.17.16.83-.31.65.07,0,0-.08,0-.09a1.31,1.31,0,0,0-.25,0l.61.16c.16.12-.07-.32.06-.28s0,.1,0,.1c-.48.08-.12,0-.12.1a.62.62,0,0,1,.17-.48c.12,0,.11,0,0,0,.13,0,.13,0,0,0,.28.1.05-.14.2.1,0-.06.38.57.14.46-.06,0,.33-.25.3-.23s.35-.19.35-.15a.73.73,0,0,1-.72-.7c0-.12,0-.09,0,.08a2.79,2.79,0,0,1-.5.63c-.1.08-.3.15-.38.25-.21.26-.22-.19.09.13l.34,1.28a2.27,2.27,0,0,1,.41-.84c.36-.39.08.07,0,0a.23.23,0,0,1-.07-.07.53.53,0,0,1-.13-.42c0-.09,0-.13.07-.11l-.07,0c-.05,0-.24,0-.15,0-.25-.07-.21,0-.36-.13.08,0-.07-.07-.07-.08s-.07-.1.05-.27.44-.29.42-.22-.23-.38-.1-.34-.37.34-.32.31a2.09,2.09,0,0,1-1.25.26l1.16,2a2.17,2.17,0,0,1,1.57-1.41l-1.53-.62c-.09-.15,0-.2.11-.3a1.38,1.38,0,0,0-.47,1.81,1.35,1.35,0,0,0,1.81.48A2.41,2.41,0,0,0,376,401a1.38,1.38,0,0,0-1.53-.63,4.93,4.93,0,0,0-3.31,3c-.36.86.53,1.66,1.3,1.71,2,.11,4.78-1.42,4.16-3.79a2.6,2.6,0,0,0-2.56-1.81,3.21,3.21,0,0,0-2.6,1.48,2.94,2.94,0,0,0,1.85,4.45,3,3,0,0,0,2.73-.62,2.35,2.35,0,0,0,.51-3,2.57,2.57,0,0,0-3-.9,3.89,3.89,0,0,0-2.08,2.65,1.34,1.34,0,0,0,.34,1.29c2.55,2.59,7.37-2.74,4.45-4.58-1.35-.85-3.38.22-4,1.53a2.27,2.27,0,1,0,4.32.53,2.52,2.52,0,0,0-3.57-1.64,2.63,2.63,0,0,0-.79,3.64,1.85,1.85,0,0,0,2.07.88,2.71,2.71,0,0,0,1.75-1.33c.88-1.7-.95-4-2.8-3a2,2,0,0,0,.38,3.57,1.13,1.13,0,0,0,1.27-.51c.42-.92,1.3-1.59.95-2.73a1.63,1.63,0,0,0-2.06-1,1.28,1.28,0,0,0-.52,2,1.15,1.15,0,0,0,1.89-.15c.32-.7-.37-1.59-1.12-1.12Z"/><path class="cls-2" d="M362.52,408.74l0,.37a.67.67,0,0,0,.66.67.68.68,0,0,0,.67-.67v-.37a.67.67,0,0,0-.2-.48.66.66,0,0,0-.48-.2.74.74,0,0,0-.48.2.72.72,0,0,0-.2.48Z"/><path class="cls-2" d="M325.55,389.76l.23.2a.94.94,0,0,0,1.17.88l.27.27a1,1,0,0,0,1.72.71l1.27-1.2-1.61-.21.44,1.48c0,1,1.12,1.25,1.78.74l1.15-.9h-1.5l.95,1.12a1.1,1.1,0,0,0,1.31.17l.47.41c-.42,1.28,1.36,1.86,2.05.87l.29.11c-.51,1.42,1.72,2,2.25.62l-.11-.47a1.21,1.21,0,0,0,1.71,1.71l.58.07a1.24,1.24,0,0,0,2.43.32l.08.14,2.22,1.3,2.14-2.32-1.91-.78-.18,2,2.4.31-.39.4,2.47,1,.72-1.19,2.31,1.34-.42.86,2.55,1.07.15,1h2.78l.45-1,2.25,1.3.33-.86,2.56,1.06-1.36.56,2.5.66a7.41,7.41,0,0,1-.21-4.83,1.52,1.52,0,0,0-2.51-1.46l-7.3,1.74,1.5,1.5,2.31-2.93-2-2.06c-1.5,2.73-3,2.65-5.32,3.86l-2.21-1.7.05.07c.45-1.34-1.11-2.22-2.2-1.69l-2.93-1.45a1.51,1.51,0,0,0-2.2-.9l-.06-.21-2.17-1.67q-2.13,5.29-4.6.12l-2.67-1.13.65.67-2.22-1.28-1-1a1.48,1.48,0,0,0-1.86-1.42l-2.13-.2V390h.58l-.87-2.15.29-.25c-1.4-.11-2,2.13-.73,2.72,9.36,4.2,21.43,12,32.05,8.37a1.43,1.43,0,0,0,.62-2.35c-1.94-2.18-4.45-1.76-7.22-2.22a39,39,0,0,1-12.4-4.43l-1.45,2.48,2.36,2.24,1.25-2.17-3.71-1.7L334.28,393c6.28,2,11.23,5.88,16.5,9.65,3.54,2.54,7.2,3.07,10.92.47a1.48,1.48,0,0,0,.64-1.58c-.37-2.51.75-4.13-2.09-5.21a1.44,1.44,0,0,0-1.39.37l-.66.54c-1.23,1,.15,2.6,1.39,2.39l3.58-.62-1.78-1.79-.71,1.92c-.45,1.25,1.1,2.22,2.14,1.65l2.68-1.48-2.14-.87,0,1.06c-.24,1.26,1.46,2.69,2.44,1.42l2.36-3.06-2.29-1.77a8.77,8.77,0,0,0-1.92,5.84c0,1.6,2.58,2.06,2.87.39l.3-1.75c.32-1.85-2.5-2.64-2.82-.78l-.3,1.75,2.88.39a5.43,5.43,0,0,1,1.51-4.37c1.14-1.5-1.39-2.93-2.52-1.47l-2.36,3.06,2.66,1.13a5.17,5.17,0,0,0,0-2.62,1.47,1.47,0,0,0-2.14-.87l-2.68,1.49,2.14,1.64.7-1.93c.41-1.13-.8-2-1.79-1.79l-3.57.67,1.4,2.39c-1.05.89-.74,1.93-.58,3l.64-1.58c-5.11,3.54-10.08-2.14-14.09-4.9a41.24,41.24,0,0,0-11.15-5.6,1.46,1.46,0,0,0-1.41,2.42,9,9,0,0,0,5.76,2.54c1.19.12,1.67-1.3,1.25-2.18a6,6,0,0,0-3.75-3.4c-1.51-.64-2.52,1.86-1.11,2.62a42.82,42.82,0,0,0,8.95,3.75c2.18.61,8.57.65,10.12,2.41l.63-2.36c-9.76,3.27-21.2-4.27-29.83-8.17l-.74,2.72.62,0a1.46,1.46,0,0,0,1.26-.73l.35-.52a1.48,1.48,0,0,0-.88-2.14,2.59,2.59,0,0,0-2.83.29,1.47,1.47,0,0,0,0,2.52,4.84,4.84,0,0,0,4.39.51L326,389.11c-.39,5.24,6.81,6.41,6.88,1a1.48,1.48,0,0,0-2.22-1.27c-4.59,3.44,2.36,7.87,3.66,2.66a1.47,1.47,0,0,0-2.68-1.13c-2.34,3.08.34,6.23,3.61,6.8,2.75.47,9-1.83,5.68-5.51-1.71-1.88-5.27-.58-4.46,2.19,1.06,3.65,4.48.68,5.15-1.33.45-1.33-1.1-2.19-2.17-1.67-4.53,2.15-1.2,8.1,3.06,5.35l-2.2-.9c.93,3.47,4.16,4.77,7.33,3.25l-2.2-1.69c-1.52,4.58,4.88,6.26,5.74,1.52a1.52,1.52,0,0,0-2.21-1.69,2.91,2.91,0,0,0,.36,5.44c3.69,1.4,7.5-2.35,9.07-5.19a1.51,1.51,0,0,0-2.05-2c-2.56,1.14-3.53,2.82-3.8,5.52a1.5,1.5,0,0,0,1.5,1.5c6.93-.47,3.75-8,.46-5.49a3,3,0,0,0-.06,4.57c2.62,2.51,6.8,0,9-1.7l-2.5-1.46a12.52,12.52,0,0,0,.21,6.43,1.51,1.51,0,0,0,2.51.66c1.5-1.78,4-6.63.4-7.87-2.91-1-4.14,3.11-4.16,5.19a1.52,1.52,0,0,0,2.56,1.07c5-4.23-5.84-9.5-5.45-1.27a1.51,1.51,0,0,0,2.26,1.29c2.16-1.51,2.82-5-.33-6-3.45-1.11-5.09,2.42-4.41,5.19a1.45,1.45,0,0,0,2.78,0c.66-2,1.53-5.56-1.26-6.39-2.6-.77-3.9,1.92-4.36,3.92-.33,1.47,1.83,2.56,2.55,1.08.93-1.91,2.39-5.55-.61-6.45-2.38-.72-3.56,1.52-4.05,3.45a1.39,1.39,0,0,0,2.31,1.34c3.29-3.33-3.1-7.19-5.28-1.48-.57,1.5,1.67,2.25,2.47,1,3.66-5.52-6.45-6.58-4.47-1.06a1.33,1.33,0,0,0,2.4.31,3.87,3.87,0,0,0,.42-4,1.32,1.32,0,0,0-1.91-.77,6.71,6.71,0,0,0-3,3.26,1.29,1.29,0,0,0,2.22,1.3c2.52-4-3.33-6.6-4.68-2.09h2.38c-.38-2.77-2.85-3.31-4.72-1.45l1.71,1.71c2.88-3-2.31-6.1-3.85-1.86l2.25.62c1.18-3.44-2.67-4.56-4.48-1.86l2.06.86c1.16-3.84-2-2.26-3.4-3.8a1.08,1.08,0,0,0-1.5,0l-1.13.92,1.79.74a2.75,2.75,0,0,0-.77-2.51,1,1,0,0,0-1.6-.21l-1.24,1.23,1.71.71c0-2.1-1.81-2.48-3-2.94-.91-.35-1.55,1.17-.67,1.59Z"/><path class="cls-2" d="M407.85,382.66a1.08,1.08,0,0,0,0-2.16,1.08,1.08,0,0,0,0,2.16Z"/><path class="cls-2" d="M405.64,382.17l.05.84,1-1a2.77,2.77,0,0,1-1.45-.27c-1.3-.46-1.93,1.43-.89,2.13.55-.43.44-.68-.33-.76a7.28,7.28,0,0,0-.77-.31,3.23,3.23,0,0,0-1.45-.06c-.55.12-2.34,2-2.47,2v2.44a9,9,0,0,1,6.29-.1l-.31-2.34-1.3.07-.91,2.2a12.55,12.55,0,0,1,4.73,1.19l-.26-2.05h.18l-1.28,2.19a3.93,3.93,0,0,1,2.53,1.3l1.61-2.08a5.32,5.32,0,0,1-2.05-2.49l-2.19,1.68a1.46,1.46,0,0,1,.26.73,1.22,1.22,0,0,0,2.21.29,2.29,2.29,0,0,0-.5-3c-1.15-1.24-2.8.33-2.19,1.68a7.16,7.16,0,0,0,3.12,3.38,1.33,1.33,0,0,0,1.6-2.08,6.07,6.07,0,0,0-3.7-2,1.33,1.33,0,0,0-1.28,2.2,2.33,2.33,0,0,0,3.52,0,1.32,1.32,0,0,0-.26-2.05,15.88,15.88,0,0,0-6.05-1.52,1.3,1.3,0,0,0-.91,2.2,3.47,3.47,0,0,0,4.41.32,1.29,1.29,0,0,0-.3-2.33,11.12,11.12,0,0,0-7.65.12,1.28,1.28,0,0,0,0,2.44c1.24.38,2-.13,2.88-.95a5.35,5.35,0,0,0,.47-.67.8.8,0,0,1,1.29-.15c.52.07,1,.45,1.54.47,2.64.07,2.47-2.88.69-4l-.9,2.12a4.2,4.2,0,0,0,2.33,0,1,1,0,0,0,.71-1.25,2,2,0,0,0-.83-1.28.73.73,0,0,0-1.21.71Z"/><path class="cls-2" d="M392.2,387.6a13,13,0,0,0-3.61,2.86l1.87,1.09c.26-1.38,1.65-2.9,3.18-2.11l.68-2.52c-2,0-4.45-.41-5.8,1.49-1,1.35-.94,3.42.68,4.24a1.4,1.4,0,0,0,1.9-.49A23.64,23.64,0,0,1,393,389a6,6,0,0,1,1-1.18c.45-.36.69-.28,1.22-.27a1.13,1.13,0,0,0,1.08-1.42c-.69-1.93-2.85-1.43-4.11-.37a15.62,15.62,0,0,0-3.48,5l1.9-.5c-.15-.06-.14,0,0,.19a.54.54,0,0,1,.07-.32c.23-.16.2-.27.51-.39.9-.36,2.15,0,3.11-.11a1.36,1.36,0,0,0,.35-2.65c-2.78-1-6.55,1.11-6.41,4.28.05,1,1.56,1.61,2.09.57a8.69,8.69,0,0,1,2.57-3,.72.72,0,0,0-.72-1.24Z"/><path class="cls-2" d="M387.72,389.77c-3-1.16-5.67.59-6.84,3.39-.35.82.66,1.69,1.43,1.43a2.12,2.12,0,0,0,1.69-2.31,1.22,1.22,0,0,0-1.2-1.2,5.13,5.13,0,0,0-5.05,5.34,1.28,1.28,0,0,0,2.5.34c.51-1.33,1.27-3.59,3.28-3.19l-.59-2.22c-2.54,2.92-10.45-2.22-11.49,3.43a2,2,0,0,0,1.34,2.43,2.12,2.12,0,0,0,1.79-.36c.7-.33,3-3,4.09-2.32l-.66-1.16.62-.69a1.11,1.11,0,0,0-.66,1.62l.1.14a1.27,1.27,0,0,0,1.38.56l.24-.07a1.36,1.36,0,0,0,1-1.29v-.27a1.33,1.33,0,0,0-.66-1.15,3.82,3.82,0,0,0-3.45.07c-1,.38-2.73,2.23-3.6,2.19l1.19.69c-.41-.73,3.88-.08,4.36,0a9.12,9.12,0,0,0,2.39.13,5.46,5.46,0,0,0,3.91-2.07c.55-.69.52-2.05-.58-2.22-3.63-.57-5.31,2-6.45,5.07l2.51.34c-.09-1.62.75-2.6,2.5-2.94l-1.2-1.2.09.06,1.44,1.44a4.2,4.2,0,0,1,4.39-2.59c.87,0,.92-1.15.2-1.42Z"/><path class="cls-2" d="M372,415c-.1.09,1,.34,1.25.42a7.93,7.93,0,0,0,2.21.42c1.79,0,2.78-1.4,3-3.06l-2.21.9c3.57,2.26,6.92-2.12,4.38-5.23-1.22-1.5-3.33.63-2.12,2.12.53.65-.3.8-.74.52a1.51,1.51,0,0,0-2.21.9c-.1.72,0,.78-.38.84s-1.38-.4-1.86-.52a3.54,3.54,0,0,0-3.45.57c-1.46,1.27.67,3.38,2.12,2.12Z"/><path class="cls-2" d="M363.57,402.75c-3.94,1.11-3.38,6.61-.57,8.62,1.57,1.13,3.07-1.47,1.51-2.59-.75-.54-1.31-2.81-.15-3.14a1.5,1.5,0,0,0-.79-2.89Z"/><path class="cls-2" d="M381.09,407c-3.85,2.34-.5,7,3.23,6.35l-1.48-.83a2.2,2.2,0,0,0,2.16,1.82,3.44,3.44,0,0,0,1.75-.37,3.5,3.5,0,0,1,2.61-.6c3,.33,6.43-2.94,6.52-5.95a1.11,1.11,0,0,0-1.66-1c-1.87,1.31-2.39,4-4.94,4.09a6,6,0,0,0-1.75,0,16.64,16.64,0,0,0-2.37,1.35,1.23,1.23,0,0,0-1.48-.84q-3.27-1.06-1.64-3.09a.7.7,0,0,0-1-.95Z"/><path class="cls-2" d="M370.2,414.4a4,4,0,0,0,3.07-1.42l-2.51-.67a2,2,0,0,1,.28,1.07,1.51,1.51,0,0,0,2.26,1.3c1.81-1.11,3.6-.45,4.86-2.55a1.52,1.52,0,0,0-1.7-2.2c-.89.24-1.76.54-2.65.78a15.8,15.8,0,0,1-1.78.41c-.76.12-1.11-.22-.85.71s.42.53,1.22.49a10.91,10.91,0,0,1,1.71.11,20.31,20.31,0,0,1,2.43.44,1.52,1.52,0,0,0,1.9-1.44,5.48,5.48,0,0,1,1.45-3.25l-2.5-.66a1.49,1.49,0,0,1,0,1,1.5,1.5,0,0,0,2.74,1.15l1.1-2.09-2.74-.36.82,2.15,2.74-1.16,0-1.38c.67-1.81-2.23-2.59-2.89-.8a4.15,4.15,0,0,0,.32,3.69c.77,1.48,3.35.46,2.74-1.15l-.82-2.15a1.52,1.52,0,0,0-2.74-.36l-1.1,2.1,2.74,1.16a5.06,5.06,0,0,0,0-2.62,1.51,1.51,0,0,0-2.51-.66,9,9,0,0,0-2.33,5.37l1.9-1.45c-2.24-.55-8.6-1.94-8.83,1.85-.26,4.3,6.81,1.51,8.75,1l-1.69-2.2c-.56.92-2.82.88-3.78,1.47l2.25,1.29a3.33,3.33,0,0,0-.38-1.86,1.52,1.52,0,0,0-2.51-.67l-.95.55c-1.91.13-1.93,3.13,0,3Z"/><path class="cls-2" d="M364.73,411.6a2.38,2.38,0,0,1,2.71,1.23c1,1.62,3.64.11,2.59-1.52a5.44,5.44,0,0,0-6.1-2.6,1.5,1.5,0,0,0,.8,2.89Z"/><path class="cls-2" d="M366.57,409.54a9.54,9.54,0,0,0-3.58-2.78,1.51,1.51,0,0,0-1.69.69,2.35,2.35,0,0,0-.21,2.09,1.51,1.51,0,0,0,2.5.66c.34-.35.72-.64,1.05-1l-2.36-1.81a3,3,0,0,0,0,3.5,1.54,1.54,0,0,0,2.05.53,1.51,1.51,0,0,0,.54-2.05c.11.15-.2-.31-.16-.1,0-.1.12-.26.19-.37.94-1.41-1.23-3.1-2.36-1.82-.32.37-.7.66-1,1l2.51.67q-.15-.5-.09.21l-1.7.69a7.34,7.34,0,0,1,2.26,2c1.33,1.4,3.45-.72,2.12-2.12Z"/><path class="cls-2" d="M368.46,410.42l-1.61-2a1.51,1.51,0,0,0-2.56,1.06,3.36,3.36,0,0,0,5.6,2.35l-2.12-2.12s-.31.33-.21.24.06,0,0-.05.25,0,0,0l-.49,0a1.54,1.54,0,0,0-1.5,1.5,1.5,1.5,0,0,0,1.5,1.5,3.42,3.42,0,0,0,2.81-1.07,1.5,1.5,0,0,0-2.12-2.12c.09-.07.09-.08,0,0s-.08.05,0,0-.23.06,0,0c-.09,0-.44,0-.13,0,0,0-.38-.11-.2,0s-.17-.11-.17-.11c.21.15-.05-.11,0,0s-.09-.15-.1-.18c.12.26,0-.24,0,.07l-2.56,1.06,1.6,2a1.51,1.51,0,0,0,2.13,0,1.55,1.55,0,0,0,0-2.12Z"/><path class="cls-2" d="M365.05,404.87a8.39,8.39,0,0,0-.95,6.1,1.52,1.52,0,0,0,2.2.89,5.48,5.48,0,0,0,1.68-.95l-2.35-.3a2.07,2.07,0,0,1,.36.85c.2,1.9,3.21,1.92,3,0a5.19,5.19,0,0,0-.77-2.36,1.53,1.53,0,0,0-2.36-.31,4,4,0,0,1-1.07.48l2.2.9a5.16,5.16,0,0,1,.65-3.78,1.5,1.5,0,0,0-2.59-1.52Z"/><path class="cls-2" d="M379.23,403.92a5.44,5.44,0,0,1-.83,3.77l1.62-.21a1.86,1.86,0,0,1-.82-1.24,1.14,1.14,0,0,0-2.28,0,4.88,4.88,0,0,1-.38,1.72l2.28.63a4.66,4.66,0,0,1,.59-1.35l-1.66.44a.41.41,0,0,1,.07.22c.23,1.11,1.64.83,2,0a1.81,1.81,0,0,0-.59-2.12,1.23,1.23,0,0,0-1.9.24,5.46,5.46,0,0,0-.78,1.94,1.18,1.18,0,0,0,2.28.63,6.7,6.7,0,0,0,.38-2.35h-2.28a3.38,3.38,0,0,0,1.85,2.85,1,1,0,0,0,1.51-.61,7.76,7.76,0,0,0,.24-4.74c-.2-.68-1.36-.59-1.29.18Z"/><path class="cls-2" d="M392,393.4c3,4.48,5.8,9.5,2.66,14.75-.65,1.08.92,2.36,1.78,1.37,3.77-4.3,1.73-9.37-1.44-13.35-.86-1.07-2.73.35-1.92,1.48a29.17,29.17,0,0,1,4.47,9,1.21,1.21,0,0,0,1.13.86c5.67.6,10.82-.79,13.9-5.9l-2.11-.89a5.72,5.72,0,0,1-1.94,3.7l1.65,1.65a21.91,21.91,0,0,0,4-7c.45-1.29-1.48-2-2.16-.91-2.71,4.54-6.6,6.7-11.6,7.95-1.23.31-1,2.38.3,2.26,5.69-.53,10.49-4.2,13.35-9l-2.17-.91a18.1,18.1,0,0,1-3.35,6c-.94,1.14.6,2.76,1.65,1.65a9,9,0,0,0,2.52-4.74,1.16,1.16,0,0,0-2.11-.89c-2.68,4.5-7.11,5.27-11.91,4.72l1.14.87a31.41,31.41,0,0,0-4.63-9.61l-1.92,1.47c2.22,2.83,4.33,6.75,1.57,10l1.78,1.37c3.18-5.54,1.26-12.72-3.48-16.77-.59-.5-1.62.15-1.14.88Z"/><path class="cls-2" d="M365.68,410.09c.07-.21-.23.31-.27.38-.57,1-.17.37,0,.24a2.3,2.3,0,0,0-.8,3.05,2.63,2.63,0,0,0,3.69,1,3.05,3.05,0,0,0,1.32-3.75,3.52,3.52,0,0,0-3.48-2,10,10,0,0,0-1.08.14l-.33.05c.25,0,.28,0,.11,0-.34.07-.36.07,0,.1.16.08.14.06-.05-.06a1.12,1.12,0,0,1-.29-.19,2.22,2.22,0,0,0-2.5.18,2.28,2.28,0,0,0-.81,2.36,3.31,3.31,0,0,0,3.53,2.33c.57,0,1.12-.2,1.69-.25q-.36.06.06,0h-.2q-.21-3.57-.93-2.28a1.74,1.74,0,0,1,.84-.7h1.2l.34.14.8.81-.08-.12-.34,2.7c1.4-1.36,1.77-4-.33-5a1.48,1.48,0,0,0-2.13.87Z"/><path class="cls-2" d="M291.92,461.69c2.24,15.17,7.14,30.25,10.79,45.15,3.69,15.07,7.31,30.15,11,45.22,7.41,30.31,13.62,60.77,17.37,91.76.69,5.68,9.7,5.75,9,0a723.33,723.33,0,0,0-17.53-92.39Q316.79,529,310.9,506.58c-4-15.41-7.18-31.68-12.88-46.58a3.17,3.17,0,0,0-6.1,1.69Z"/><path class="cls-2" d="M298.9,468.8c1.1-3.11.43-7,.18-10.2-.28-3.51-.57-6.71-2.78-9.54-1.88-2.42-5.86-.86-6.58,1.74-.87,3.17.25,6.43.91,9.57s.73,6.42,2.19,9.22,5.19,1.74,6.08-.79Z"/><path class="cls-2" d="M284,462.59c.77,3.6,2.93,6.85,4.46,10.19A103,103,0,0,1,293,484.17l9.61-4.05q-4.21-8.82-8.5-17.63c-3-6.18-11.71-.77-9.09,5.31a436.29,436.29,0,0,1,20.95,61.86c2.61,9.9,5,19.87,7.46,29.81,2.58,10.43,4.57,21.62,9,31.46,1.84,4.13,8.76,2.06,8.47-2.29-.7-10.46-4.11-21-6.63-31.16-2.62-10.56-5.13-21.15-7.92-31.66a471.7,471.7,0,0,0-21.67-62.07L285,467.8q4.23,8.83,8.51,17.63c2.6,5.33,11.48,1.59,9.61-4.05-2.45-7.37-5.74-17.9-12-22.9-3.25-2.58-8-.25-7,4.11Z"/><path class="cls-2" d="M428,381.71c4.89,13.24,20.43,20.93,30.9,29.14,13.36,10.48,22.33,24.69,30.67,39.24,4.19,7.3,8.52,14.58,12.08,22.22,3.84,8.24,5.17,17.23,8.83,25.47,1.59,3.6,3.68,6.94,5.54,10.39,2.32,4.28,3.6,8.68,5.12,13.26,2.71,8.21,7.42,15.33,12.32,22.38,1.92,2.75,6.45.16,4.54-2.65-5.3-7.76-9.77-15.32-12.5-24.35-2.48-8.2-7.51-14.83-10.64-22.7-3.22-8.1-4.76-16.58-8.5-24.55-3.58-7.64-7.94-14.88-12.26-22.12-8.21-13.76-17-27.69-29.53-38-5.67-4.67-11.92-8.54-17.86-12.83-6.56-4.74-11.59-10-17-15.92-.67-.74-2.09,0-1.73,1Z"/><path class="cls-2" d="M535.5,543.22c-.22.08-.46.14-.67.23l-.08,0h.08a3.6,3.6,0,0,0-.44.12,1,1,0,0,0-.44.62.8.8,0,0,0,.35.86,1.06,1.06,0,0,0,.65.12.82.82,0,0,0,.41-.17c.28-.21-.12.08.1-.08l.59-.41a.72.72,0,0,0-.55-1.31Z"/><path class="cls-2" d="M535.6,544.92c2.31,0,4.53.37,5.85,2.49l1.89-1.45c-1.71-1.86-4.51-3.68-7.13-3.48a1.14,1.14,0,0,0-.31,2.23,25.71,25.71,0,0,1,3.12,1,9.28,9.28,0,0,1,2.62,1.95c.93,1,2.64-.3,1.88-1.45-1.68-2.55-5.41-4.47-8.3-2.7a.77.77,0,0,0,.38,1.42Z"/><path class="cls-2" d="M543.31,547.76c1.18-2.93,1.75-6,2.81-9,1.17-3.29,2.91-6.46,3.66-9.88a1.07,1.07,0,0,0-1.95-.82,50.71,50.71,0,0,0-6,19.51c-.07.9,1.16.91,1.45.2Z"/><path class="cls-2" d="M598.13,537.76c-1.45,3.72-1.67,7.85-2.55,11.73-1.39,6.19-3.46,12.21-4.87,18.41a180.12,180.12,0,0,1-15.49,42c-3.15,6.21-6.39,12.41-9.83,18.48-3.14,5.55-7.07,11.76-13.43,13.93-9.93,3.39-22.25-4-30.74-8.51-1.67-.89-3.16,1.63-1.49,2.55,8.58,4.74,19.88,11,30,9.48,13-1.9,18.88-17.15,24.16-27.27,7.44-14.27,14.44-28.93,18-44.7,2.65-11.75,7.05-23.82,7.57-35.95,0-.83-1.09-.87-1.36-.19Z"/><path class="cls-2" d="M563.15,450.47c-2.83-6.33-7.62-11.13-11.47-16.8-4.81-7.08-5.35-14.77-3.52-23,.42-1.88-2.47-2.68-2.89-.79-1.58,7-1.82,14.31,1.33,21,3.62,7.69,10.47,13.26,14,21.08.79,1.75,3.37.23,2.59-1.52Z"/><path class="cls-2" d="M602.8,454.79a79.62,79.62,0,0,1,3.33-8.69,26.2,26.2,0,0,1,6.71-7.25c1.07-.81,0-2.66-1.08-1.84-5.26,3.86-11.2,11.32-10.66,18.3a.89.89,0,0,0,.44.77c.71.3.92.37,1.61,0a.69.69,0,0,0-.35-1.27Z"/><path class="cls-2" d="M547.89,411.48c1.82-4.54,3.92-9,6.07-13.37.81-1.66,3.67-7.72,5.6-4.84s1.23,9,1,12.39c-.12,1.93,2.88,1.93,3,0,.23-4.09,1.18-13.64-3.31-16-2.68-1.4-5.4,1.3-6.83,3.27-3.72,5.13-6.11,11.9-8.47,17.75-.72,1.79,2.18,2.57,2.9.8Z"/><path class="cls-2" d="M563.76,406.29a15.13,15.13,0,0,1,.47-3.67l-3-.4a24.57,24.57,0,0,0,.22,3.54,1.54,1.54,0,0,0,1.5,1.5,1.52,1.52,0,0,0,1.5-1.5,24.57,24.57,0,0,1-.22-3.54,1.51,1.51,0,0,0-2.95-.4,19.76,19.76,0,0,0-.57,4.47,1.5,1.5,0,0,0,3,0Z"/><path class="cls-2" d="M562.75,415.46c-.39,2,.57,3.57,1.93,5,2.36,2.46,5.05,4.68,7.61,6.92.32.29.79-.17.47-.47-1.67-1.58-3.36-3.12-5.06-4.67-1.85-1.68-4.84-3.69-4.35-6.6.07-.39-.52-.56-.6-.17Z"/><path class="cls-2" d="M563.27,404.61a34.72,34.72,0,0,0,.2,11.28c.08.43.77.33.76-.1-.09-3.67-.19-7.33-.28-11a.39.39,0,0,0-.77-.1,26.19,26.19,0,0,0,1.7,17.3c.2.45,1,.13.81-.34a33.62,33.62,0,0,1-2.42-15.52c0-.43-.58-.46-.72-.1-1.29,3.59-.54,7.34.23,11l1-.27a37.08,37.08,0,0,1-1-11.59.57.57,0,0,0-1.12-.15c-.83,4.3.22,8.25,1.52,12.35a.58.58,0,0,0,1.12-.3,35.93,35.93,0,0,1,.05-10.61l-1.09-.3c-.83,5.64-1.44,12.21,3.64,16.06.46.34,1-.41.61-.78-4.44-4-4-9.59-3.16-15,.11-.71-1-1-1.09-.3a38.29,38.29,0,0,0-.08,11.21l1.12-.3c-1.23-3.87-2.33-7.67-1.54-11.75l-1.12-.15A36.75,36.75,0,0,0,562.78,417c.16.64,1.12.37,1-.27-.8-3.59-1.27-6.83-.5-10.49l-.72-.1a36.52,36.52,0,0,0,2.29,15.76l.81-.34a26.41,26.41,0,0,1-1.7-16.65l-.78-.11.3,11,.76-.1a38.63,38.63,0,0,1-.34-11c0-.34-.56-.43-.61-.08Z"/><path class="cls-2" d="M589.7,365a21.31,21.31,0,0,0-7.14,11.4c-1,3.84-2.28,10.54-.84,14.33,3.06,8,10.83-5.3,12.54-7.9.63-1-.92-1.87-1.56-.91-1.63,2.48-2.9,5.49-5.07,7.54-4.82,4.54-4.44-2.58-4.33-5.43.27-6.81,2.24-13.32,7.67-17.76.9-.73-.38-2-1.27-1.27Z"/><path class="cls-2" d="M589.05,367.68c4.25-5.55,10.58,1.43,9.54,6.54-.22,1.13,1.51,1.62,1.74.48,1.48-7.28-7.34-15.11-12.83-7.93-.71.92.86,1.82,1.55.91Z"/><path class="cls-2" d="M601.83,377.83c-3.09,1.64-4.35,5.45-5.75,8.46A45.51,45.51,0,0,0,592,398.42c-.5,3.24.21,11.12,5.3,7.3,3.46-2.6,6-7.42,8.56-10.84,2-2.59,6.54-6.6,7-10,.8-6-8.05-8-12.15-6.8a.9.9,0,0,0,.48,1.74c2.89-.83,8.07-.44,9.38,3.08,1,2.71-1.25,4.68-2.64,6.53l-8.7,11.65c-.8,1.08-1.61,2.16-2.44,3.23q-5.13-1.81-3.33-6.32a34.27,34.27,0,0,1,1.6-5.68c1.41-4,3.59-11.1,7.31-13.6a.49.49,0,0,0-.5-.85Z"/><path class="cls-2" d="M612.49,388.92a23,23,0,0,0-8.2,7.25c-1.68,2.3-4.59,6.37-3.63,9.45.72,2.34,3.18,2.59,5.12,1.54s3.26-2.6,5.06-3.65c1.18-.69,2.65-2,3.95-1.18s1.06,2.33,1.49,3.7c.25.77,1.54.68,1.48-.2-.12-1.68-.08-4.72-1.82-5.6-2.13-1.09-5.71,1.56-7.34,2.68-1.24.85-6,5.57-6.24.38-.07-1.41,1.71-3.81,2.45-5,2.2-3.49,5.17-6,8.32-8.57.49-.4-.13-1.08-.64-.83Z"/><path class="cls-2" d="M611.38,391.83c2-1,4.5-2,6.69-.7,2.79,1.6,2.66,5.09,2,7.68-.81,3.3-2.4,6.49-3.59,9.67-.38,1,1.21,1.42,1.6.44,1.92-4.83,6.17-12.06,2.83-17.16-2.31-3.54-7.25-3.39-10.09-.64a.45.45,0,0,0,.54.71Z"/><path class="cls-2" d="M615.79,403.27c-.12,1-.5,7.3,2,5.68a1.66,1.66,0,0,0,.37-2.34,7.12,7.12,0,0,0-1.28-1.17,2.53,2.53,0,0,1-.73-2.66.68.68,0,0,0-1.32-.36,3.85,3.85,0,0,0,1,3.84c.21.2.46.36.68.54a.63.63,0,0,1,.47.72c-.07-.39-.13-.78-.18-1.16-.12-1-.15-2.07-.17-3.09a.44.44,0,0,0-.87,0Z"/><path class="cls-2" d="M464,338.66c12.81,12.23,27.48,22.88,41.18,34.09s27.51,22.68,41.33,33.94c1.05.85,2.55-.63,1.5-1.49-14-11.52-28.21-22.9-42.29-34.38-13.52-11-26.69-23.09-41-33.07-.54-.37-1.16.46-.7.91Z"/><path class="cls-2" d="M505.11,294.4c6.23-1.2,12.14-.17,15.36,5.9,2.79,5.26,2,11.61,1.51,17.29-1.05,11.81-2.58,23.51-1,35.35.25,1.89,3.25,1.91,3,0a111.11,111.11,0,0,1,0-24.86c.65-7.07,2.1-14.46,1.3-21.55-1.31-11.65-9.81-17.17-21-15-1.9.37-1.09,3.26.8,2.89Z"/><path class="cls-2" d="M468.61,340.25c-6.27-8.78-.65-20.31,5.25-27.76,1.19-1.49-.92-3.63-2.12-2.12-6.7,8.46-12.84,21.42-5.72,31.4,1.11,1.56,3.72.06,2.59-1.52Z"/><path class="cls-2" d="M464.48,337.24a111.23,111.23,0,0,0,51.26,16.62,283.29,283.29,0,0,1,31.15,3.4C557,359,566.8,362,576.83,364.09a1.12,1.12,0,0,0,.6-2.15c-17.27-6.78-37.53-9.08-55.93-10.18-9.8-.58-19.16-1.2-28.58-4.21-9.61-3.07-18.59-7.33-27.71-11.56a.72.72,0,0,0-.73,1.25Z"/><path class="cls-2" d="M518,294.74c9.16,9.13,18.66,17.82,27.38,27.39a370.72,370.72,0,0,1,25.41,31.23c.81,1.11,2.68,0,1.87-1.08C557.28,331.08,539.43,310,518.58,294c-.45-.35-1,.39-.59.77Z"/><path class="cls-2" d="M564.92,420a233.77,233.77,0,0,0,34.53,27.3c.9.57,1.64-.79.82-1.4-11.75-8.68-23.11-17.54-34.28-27-.73-.61-1.77.39-1.07,1.06Z"/><path class="cls-2" d="M600.55,444.78l-.46-.16-.19,1.52A59.1,59.1,0,0,0,624,427.77c1.88-2.47,6.25-6.6,5.45-9.91-.41-1.71-2.23-2.86-3.43-4-2.59-2.42-5.21-4.82-7.82-7.22-1.2-1.11-3,.66-1.8,1.8,1.85,1.8,3.7,3.6,5.56,5.38.89.86,3.83,2.74,4.21,4,1,3.25-5,9.23-7,11.57-5.71,6.74-13,10.43-20.25,15.09a1,1,0,0,0,.23,1.77l.68.21a.8.8,0,0,0,.79-.21l.5-.48c.47-.44,0-1.06-.57-1Z"/><path class="cls-2" d="M594.32,382.68c.44.35.87.72,1.28,1.1a4,4,0,0,0,1.37,1.1.78.78,0,0,0,.95-.95,3.15,3.15,0,0,0-1.15-1.44,11.31,11.31,0,0,0-1.46-1.09c-.76-.5-1.73.7-1,1.28Z"/><path class="cls-2" d="M577.06,363.64a29.21,29.21,0,0,1,3.78,4.08c1,1.31,1.67,2.85,2.71,4.12.51.62,1.48,0,1.29-.75-.91-3.36-4.25-6.52-6.91-8.58-.65-.49-1.46.58-.87,1.13Z"/><path class="cls-2" d="M572.09,353.2c-2.43,1.28-1.11,5.14,0,6.95a5,5,0,0,0,3.32,2.22c1.4.37,2.76.21,4.07,1a6,6,0,0,1,2.66,5.3.53.53,0,0,0,1.06,0,6.64,6.64,0,0,0-3.15-6.28,9.1,9.1,0,0,0-3.61-1,4.83,4.83,0,0,1-4-2.84c-.69-1.37-1.39-3.68,0-4.94.26-.24-.07-.62-.35-.47Z"/><path class="cls-2" d="M573.33,353.41c5.42-3.44,11.06.24,11.26,6.4.12,4-.77,8.22-1.25,12.21-.11.84,1.22.84,1.32,0,.62-5.41,3.22-13.94-.9-18.56a7.78,7.78,0,0,0-10.85-.6c-.3.26.09.77.42.55Z"/><path class="cls-2" d="M599.61,373.1a21.23,21.23,0,0,1-.74,7.61l.77.11c0-2.71.05-5.41,0-8.12a.43.43,0,0,0-.86,0c0,2.71,0,5.41,0,8.12a.39.39,0,0,0,.76.1,18.36,18.36,0,0,0,.6-7.9c-.06-.34-.63-.26-.61.08Z"/><path class="cls-2" d="M594.26,383a15.58,15.58,0,0,1,3.09-4.82c.46-.46-.25-1.17-.72-.72a39.41,39.41,0,0,0-4.35,5l.9.53,2.65-5.19-.9-.53L593.21,381c-.22.47.41,1.1.79.61l2.69-3.39-.84-.34-.2.59c-.4.48.28,1.17.69.69a1.79,1.79,0,0,0,.49-1.28c0-.39-.56-.69-.83-.35l-2.71,3.37.79.61,1.75-3.75c.27-.6-.59-1.13-.9-.53q-1.33,2.59-2.65,5.19a.52.52,0,0,0,.9.53,37.8,37.8,0,0,1,4.17-4.77l-.72-.72a10.94,10.94,0,0,0-3,5.25c-.08.39.5.69.68.29Z"/><path class="cls-2" d="M611.05,391.69c2-2,5.07-3.17,7.75-1.6s3.25,4.84,2.48,7.55a.34.34,0,0,0,.62.26,6.64,6.64,0,0,0-2.48-8.87c-2.95-1.71-7.27-.84-9,2.19a.39.39,0,0,0,.61.47Z"/><path class="cls-2" d="M576.75,352.23c-2.33,1-7,2.13-6.67,5.59.25,2.83,3.42,3.51,5.69,3.77v-1.06c-1.15-.11-3-.36-3.92-1.16-2.11-1.84-2-3.18,0-4.79a14.07,14.07,0,0,1,5.42-2.32l-.46-1.1c-1.87,1-3.83,1.89-5.64,3-.56.34-1.42.63-1.73,1.29-.83,1.73,1.34,2.95,2.27,3.91l.83-.83L570.67,357a.58.58,0,0,0-.91.7,6,6,0,0,0,4.09,3.53c.6.18,1-.75.43-1-1.64-.78-2.26-.88-2-2.9s1-2.38,2.58-3.34c3.22-2,7.78-1.87,9.33,2.19s-.36,9.75-1.06,13.92c-.11.66.89.94,1,.28.93-5.46,4.92-18.11-4.15-19-3.15-.3-7.47,1.67-9.15,4.44-1.55,2.56.7,4.31,2.88,5.36l.44-1a4.53,4.53,0,0,1-3.39-3l-.91.7,1.91,1.58c.57.47,1.36-.28.83-.83a3.84,3.84,0,0,0-.83-.83q-1.72-2.34.7-2.83c1.14-1.13,3.58-1.9,5-2.66a.61.61,0,0,0-.47-1.1c-2.59.67-8,2.41-8.31,5.8-.33,3.16,4.83,4.41,7.08,4.69.59.08.73-.95.14-1a17.48,17.48,0,0,1-2.16-.4q-3-4.71.42-5.72c.87-.65,2.05-.92,3-1.55a.38.38,0,0,0-.39-.65Z"/><path class="cls-2" d="M573.1,360.87c1.83.89,3.85,1.28,5.6,2.36a9.31,9.31,0,0,1,3.61,4.37c.21.46,1.06.25,1-.27-.57-4.41-6.08-6.86-10-7.22a.41.41,0,0,0-.21.76Z"/><path class="cls-2" d="M562,394.26a82.19,82.19,0,0,0-.07,17.74l1.11-.15a37.24,37.24,0,0,1-1.35-11c0-.75-1.14-.75-1.17,0a96.87,96.87,0,0,0,.38,11.8c.07.82,1.31.85,1.3,0q-.07-6.44-.17-12.86a.69.69,0,0,0-1.37,0,52.37,52.37,0,0,0,2.52,18.72.68.68,0,0,0,1.32-.36,67.25,67.25,0,0,1-1.88-11.88.69.69,0,0,0-1.37,0,56.09,56.09,0,0,0,1.31,12.39c.2.91,1.6.52,1.4-.39-.54-2.46-1.07-4.92-1.54-7.4-.14-.73-1.29-.56-1.28.17a47.36,47.36,0,0,0,.61,6.83c.12.77,1.49.6,1.39-.19l-.77-6.31-1.46.2.53,3.58a.76.76,0,0,0,1.27.33,1.55,1.55,0,0,0,.51-1.48h-1.54A48.16,48.16,0,0,0,564,424.63c.32.94,1.83.54,1.5-.42A47.21,47.21,0,0,1,563.2,414c-.11-1-1.64-1-1.54,0l-.16.56,1.39.18-.57-3.57c-.13-.82-1.56-.63-1.45.2l.83,6.31,1.39-.19a52.22,52.22,0,0,1-.66-6.45l-1.29.17c.51,2.48,1,5,1.4,7.45l1.4-.39a53.26,53.26,0,0,1-1.34-12h-1.37a70.41,70.41,0,0,0,1.93,12.24l1.32-.36A52,52,0,0,1,562,399.83h-1.37l.24,12.86h1.3a113.48,113.48,0,0,1-.51-11.8H560.5a42.36,42.36,0,0,0,1.43,11.26c.16.6,1.18.5,1.11-.15a109.49,109.49,0,0,1-.33-17.74c0-.48-.68-.46-.73,0Z"/><path class="cls-2" d="M540.28,540.29c-8.32-5.56-15.75,3.08-19.91,9.45-5.48,8.4-5.65,19.14-5.63,28.86,0,18.81,4,41.49-6.09,58.53-5.07,8.6,8.2,16.32,13.36,7.8,9.41-15.56,8.1-32.64,7.55-50.08-.29-9.36-1-19,.13-28.3.68-5.37,3.4-14.39,9.23-15.85,5-1.25,5.27-7.8,1.36-10.41Z"/><path class="cls-2" d="M544.13,539.3a221.45,221.45,0,0,0-9.68,31.35c-2.2,9.3-3.9,19.3-2.56,28.84.12.82,1.46.62,1.43-.19a100.23,100.23,0,0,1,3.7-30.85c2.61-9.63,6.07-19.1,8.13-28.87a.53.53,0,0,0-1-.28Z"/><path class="cls-2" d="M284.73,480.18c-5.45,12.25-8.29,26-12.2,38.83q-6.28,20.68-13.21,41.16-13.75,40.47-29.59,80.21c-1.34,3.36,4.1,4.83,5.42,1.49q15.69-39.75,28.92-80.39,6.54-20.09,12.64-40.32c3.91-13.07,9-26.72,10.51-40.3a1.35,1.35,0,0,0-2.49-.68Z"/><path class="cls-2" d="M539.76,666.21a40.42,40.42,0,0,1-20.07,14.9c-9.9,3.34-20.1-.37-29.33-4.06-1.07-.43-1.54,1.31-.48,1.74,10.14,4.05,21.09,7.69,31.78,3.5a42.67,42.67,0,0,0,19.65-15.17c.68-.94-.88-1.84-1.55-.91Z"/><path class="cls-2" d="M207.79,644.35c5.17.26,10.14-.68,15.26-1.17,5.78-.57,11.64.12,17.41.54,11.48.83,22.94,1.9,34.4,2.88,22.76,1.95,45.86,3.86,68.7,2.15,22.05-1.64,44.18-2.47,66.26-3.68a33.42,33.42,0,0,1,8.05.38c2.38.44,4.77,1.92,7.06,2.26,3.55.53,8.33-1.64,11.9-2.33a162.78,162.78,0,0,1,33.63-2.82,175.46,175.46,0,0,1,37.44,4.62c10.71,2.55,20.62,7,30.58,11.52,1.74.79,3.27-1.8,1.51-2.59-3.77-1.71-7.4-3.69-11.21-5.32-4.5-1.94-9.31-3-13.94-4.6-9.68-3.41-20.22-4.84-30.41-5.83a172.66,172.66,0,0,0-33.41,0q-7.54.75-15,2.17c-2.41.46-4.78,1.11-7.18,1.57-3,.57-4.2.09-7.06-.76-9.8-2.9-20.81-.53-30.83,0-11.41.57-22.83.94-34.23,1.59a522,522,0,0,1-70.08-.29c-13.11-1-26.2-2.29-39.31-3.33-6.8-.54-13.77-1.39-20.59-1.3-6.38.08-12.55,1.73-19,1.41-1.93-.09-1.93,2.91,0,3Z"/><path class="cls-2" d="M515.41,684c1.63,1.61,1.71,4.52-.74,5.21a9,9,0,0,1-3,0c-3.66-.28-7.33-.73-11-1.26-5.92-.86-11.73-2.12-17.57-3.37a.89.89,0,0,0-.48,1.72,159,159,0,0,0,17.53,3.51c4.64.69,10,2,14.63,1.39,5.51-.72,5.85-5.51,1.42-8.23a.68.68,0,0,0-.82,1.06Z"/><path class="cls-2" d="M513.82,690c.77,3,.19,4.58-1.76,4.89a8.31,8.31,0,0,1-1.93.34,37.86,37.86,0,0,1-4.52.32,90.34,90.34,0,0,1-9.16-.2c-6.6-.46-12.86-1.9-19.3-3.3a.86.86,0,0,0-.45,1.65A75.39,75.39,0,0,0,510.39,697c2.42-.36,5.66-1.11,6.62-3.7.87-2.38-.55-3.87-2.67-4.56a.67.67,0,0,0-.52,1.22Z"/><path class="cls-2" d="M486.25,695.57c6.84,6.75,16.93,7.79,26.09,8.07,2.53.07,5,0,7.56,0,2.33-.06,8.16-1.27,3.58,2.34-5.45,4.31-14.75,5-21.36,4.68-28.18-1.16-50.8-22.88-79.18-23.42a1.16,1.16,0,0,0,0,2.32c22.34.44,40.72,14.14,61.61,20.07,8.6,2.43,17.82,3.79,26.72,2.45,4.66-.71,17.05-3,16.05-9.69a1,1,0,0,0-1-.72c-13.14-.54-28.24,1.5-39.36-7.07-.57-.43-1.25.49-.76,1Z"/><path class="cls-2" d="M268,707.18c-16.12-.28-32.23,1.54-48.35.42a96,96,0,0,1-23.57-4.38C189.33,701,182,696,174.67,696.78c-2.11.24-2.78,3.18-.52,3.87,3.94,1.19,7.83,2,11.69,3.56a120.71,120.71,0,0,0,11.56,4.19,104,104,0,0,0,21.39,3.47c16.35,1.11,32.94-.22,49.24-1.55a1.57,1.57,0,0,0,0-3.14Z"/><path class="cls-2" d="M309,400.85l-.09,0a.59.59,0,0,0-.72.73c1.84,6.27,9.15,10.38,13.62,14.55,10.06,9.37,21,18.24,33.25,24.52s26.39,9.5,40.17,6.1A43.63,43.63,0,0,0,424.46,423c7-15.24,3.4-32.62-4.65-46.68a1.42,1.42,0,0,0-2.45,1.44c9.78,16.68,12.32,37.86-.93,53.5-11.16,13.17-29.51,17.23-45.85,13.11-17.15-4.33-32.25-15.8-45.13-27.48-3.35-3-6.56-6.39-10.21-9.07-2.39-1.75-4.79-3.85-6-6.68l-.67.86.08,0c.73.12,1.06-.92.32-1.13Z"/><path class="cls-2" d="M247.16,596.73l1.84,1,1.16-1.51C230,589,208.62,577.81,187,585.88c-1.17.43-1.12,2.43.32,2.33a114.62,114.62,0,0,1,55.3,10.07l.94-2.25a392.92,392.92,0,0,0-49.29-13.58l-.34,2.49a152.51,152.51,0,0,1,55.2,15.51l1-2.4c-19.19-5.57-37.52-15.85-58-14.94a1.31,1.31,0,0,0,0,2.61,236.27,236.27,0,0,1,26.25,5c7.79,1.95,15.3,4.89,23.06,6.85a1.3,1.3,0,0,0,.69-2.51c-8.37-2.12-16.45-5.26-24.87-7.3a240.9,240.9,0,0,0-25.13-4.64v2.61c20.25-.89,38.39,9.36,57.33,14.86,1.4.41,2.37-1.72,1-2.4a155.54,155.54,0,0,0-56.52-15.78,1.27,1.27,0,0,0-.34,2.49,390.93,390.93,0,0,1,49.32,13.51c1.3.45,2.22-1.66.95-2.24a117,117,0,0,0-56.54-10.33l.31,2.34c21.15-7.93,42.27,3.15,62,10,1.08.38,1.58-1,1-1.72a2.86,2.86,0,0,0-3.65-1.12c-.72.21-.63,1.46.19,1.38Z"/><path class="cls-2" d="M260.32,553.43c-11.43-5.06-24-7.53-36.39-8.65-1.4-.13-1.74,2.24-.33,2.48,12.45,2.14,24.87,4.41,36.65,9.1,1.38.55,2.35-1.75,1-2.4a105,105,0,0,0-38.37-10.21c-1.45-.1-1.81,2.34-.34,2.58,12,2,24,4.1,35.07,9.22a1.31,1.31,0,0,0,1.32-2.26,22.63,22.63,0,0,0-9.95-3.82c-1.48-.2-2.18,2-.63,2.3a24.85,24.85,0,0,1,9.26,3.78l1.32-2.26c-11.32-5.23-23.48-7.45-35.7-9.49l-.35,2.58a101.34,101.34,0,0,1,37,9.85l1-2.4c-11.78-4.69-24.23-6.9-36.68-9l-.34,2.49c12.34,1.08,23.9,4.16,35.68,7.81,1,.31,1.68-1.26.71-1.69Z"/><path class="cls-2" d="M265.47,541.41l0,.12.28-.48a1.82,1.82,0,0,0-.44.68c0,.11,0,.24-.08.35l-.17.83a1.52,1.52,0,1,0,2.93,0l-.17-.83c0-.11,0-.24-.07-.35a2,2,0,0,0-.45-.68l.28.48,0-.12a1.06,1.06,0,0,0-2,0Z"/><path class="cls-2" d="M263.53,552.33a90.4,90.4,0,0,0,2.64,24.14c2,7.62,5.6,14.76,6.78,22.59,1.13,7.53,1.51,17.13-.75,24.46-2,6.35-7.52,10.49-9.3,17-.76,2.79,3.61,4,4.34,1.19,1.67-6.43,7.19-10.68,9.05-17.07,2.09-7.18,1.7-16,1-23.31-.74-7.68-3.72-14.52-6.07-21.78a89.42,89.42,0,0,1-4.12-27.23,1.79,1.79,0,0,0-3.57,0Z"/><path class="cls-2" d="M309.16,409.83l-.09,0a.6.6,0,0,0-.73.73c1.69,6.51,9.82,11.1,14.38,15.34,10.68,9.93,22.15,19.35,35.15,26.11s27.84,10.41,42.53,7.12a46.81,46.81,0,0,0,32-24.83c8-16.44,4.15-35.47-4.61-50.74a1.42,1.42,0,0,0-2.45,1.43c7.83,13.35,12,29.84,6.41,44.84-5.17,14-17.64,23.88-32,27.12-28.31,6.41-54.9-13.23-74.49-31.3a117.81,117.81,0,0,0-9.73-8.55,24.81,24.81,0,0,1-2.11-1.48,22.08,22.08,0,0,1-2.54-3.22,5.21,5.21,0,0,0-.7-1c-1.15-1,.27,0-1.39-.44a.59.59,0,0,0,.32-1.13Z"/><path class="cls-2" d="M209.64,582l-1.24-2.4a3.68,3.68,0,0,0-5.76-.74,7,7,0,0,0-1.76,6.64c.56,3,4.4,3.41,6.36,1.68a58.86,58.86,0,0,0,11.94-15.1l-7.6-4.45c-1.49,3.1-3,6.2-4.5,9.3a4.52,4.52,0,0,0,7.8,4.56,80.09,80.09,0,0,0,8.16-15L214,564a54.63,54.63,0,0,1-4.71,12l8.08,4.72q5.26-12,11.58-23.36l-8.5-3.59-8.85,22.66,8.93,2.46c2.32-8.93,4.76-18.12,11.83-24.53l-7.7-4.48a86.37,86.37,0,0,1-8.75,23.94l8.25,3.47a60.83,60.83,0,0,1,11.05-19.78l-7.31-4.25A91.43,91.43,0,0,1,219.39,575l7.92,3.34a67.52,67.52,0,0,1,11.25-21.66l-7.35-3a35.18,35.18,0,0,1-5.58,20.11l7.82,3.3a92.47,92.47,0,0,1,8-19.87l-6.69.86c1,1.18-2,9.12-2.38,10.34a88.87,88.87,0,0,1-4.26,11.37l7.73,3.26a108,108,0,0,1,4.42-13.11q1.29-3.07,2.78-6c.54-1.07,1.09-2.14,1.67-3.19,1.46-1.47,1.18-2.07-.82-1.8L242,556.34c.31,1.24-1.24,4.49-1.62,5.74-.57,1.86-1.15,3.73-1.74,5.59-1.38,4.34-2.84,8.65-4.31,13s5.61,7.5,7.61,3.2A170.92,170.92,0,0,1,254.51,561h-6.82c1.4,2-3.06,10.12-3.84,12.26l-4.94,13.44c-1.61,4.39,5.66,7.52,7.63,3.21l12.72-27.78-7.79-3.28a90.29,90.29,0,0,1-9.06,28.6l7.23,4.22a187.6,187.6,0,0,0,9.95-28.1l-8-2.19a56.85,56.85,0,0,1-3.77,13.09c-1.37,3.14-3.12,7.66-5.67,10-.55,1.51-1,1.73-1.29.67-1.11-.47-2.23-.89-3.37-1.28q-2.57-.87-5.2-1.48a63.73,63.73,0,0,0-13.77-1.54c-5.42-.05-6.95,8.76-1.32,9.74,6.13,1,12.29,1.94,18.44,2.88L237,583.6a16.41,16.41,0,0,1-11.42-3.49l-2.22,8.39a34.56,34.56,0,0,1,8.37-.67,30.76,30.76,0,0,1,3.95.42,17.33,17.33,0,0,1,1.74.36c1,.2,1.15.26.45.16l-1.48-3.55-.11.92,1.48-3.56c1.17-1-2.47-.76-3.34-.9a60.77,60.77,0,0,1-6-1.28,61.83,61.83,0,0,1-11-4.07l-3.89,9.24,8.4,2.76,1.34-9.94c-1.56-.1-5.45-.12-6.6-1.51l1.48,3.58c0-.45,4.08-3.67,4.77-4.22a36.31,36.31,0,0,1,22.36-8c5.55-.11,7.09-8.65,1.35-9.94A25.49,25.49,0,0,1,234,551.46l-3.62,8.74a33.09,33.09,0,0,1,18.78,3.26l4-9.45a63.46,63.46,0,0,1-14.87-5.57l-1.24,9.48a14.85,14.85,0,0,1,12.39,3.53l5.06-8.69A73.29,73.29,0,0,1,242.13,549l-1.37,10.17a14.91,14.91,0,0,1,10.07,3.31c5.32,4,10.44-5,5.2-8.9a24,24,0,0,0-15.27-4.76c-6.19.15-6.58,8-1.38,10.16a73.32,73.32,0,0,0,12.36,3.82c4.7,1,9.21-5,5.05-8.68a26,26,0,0,0-22.5-6.18c-4.4.78-5,7.5-1.24,9.48A74.82,74.82,0,0,0,250.41,564c5.47,1.32,9.41-6.71,4-9.45a42.32,42.32,0,0,0-24-4.57c-4.15.45-7.08,5.4-3.62,8.74A35.86,35.86,0,0,0,244,568.05l1.34-9.94a47.27,47.27,0,0,0-30.71,12c-3.4,3-8.51,7.88-5.85,12.91,2.45,4.64,10,5.23,14.55,5.5,5.91.35,6.57-8.24,1.35-9.94l-8.41-2.75c-5.36-1.75-9.1,6.75-3.89,9.24a73.2,73.2,0,0,0,17.67,6c4.59.88,12,2.79,15.23-1.91s-.57-9-5.17-10.25c-6.33-1.69-13-1.36-19.39-.11-3.5.7-5.1,6.07-2.22,8.39A27.14,27.14,0,0,0,237,593.63c5.35-.2,7.18-9,1.34-9.85-6.59-1-13.18-2.06-19.79-2.95v9.91a53.19,53.19,0,0,1,18.23,2.56c4.32,1.4,7.79,2,11.07-1.71,6.62-7.38,10.18-18.4,11.73-28,.83-5.12-6.55-7.44-8-2.19a171,171,0,0,1-9.22,26.07c-2.17,4.81,4.68,9.07,7.23,4.22a94.09,94.09,0,0,0,10.05-30.56c.6-4.26-5.6-8.12-7.79-3.28q-6.28,13.93-12.57,27.87L247,589l6.63-18.89c1.47-4.18,3.83-8.95.92-13a4,4,0,0,0-6.82,0,215.91,215.91,0,0,0-13,22.59l7.61,3.21c2.6-7.34,5.15-14.76,7.22-22.27,1.14-4.11,1.21-10.12-4.71-10-5.45.1-7.89,6.59-9.85,10.65a115.36,115.36,0,0,0-7.29,19.54c-1.23,4.47,5.69,7.73,7.72,3.26a102.51,102.51,0,0,0,6.31-17.65c1.27-5.14,2.62-9.94-1-14.34-1.72-2.13-5.47-1.36-6.68.86a102.34,102.34,0,0,0-8.91,21.89c-1.32,4.75,5.25,7.35,7.82,3.29a43.44,43.44,0,0,0,6.8-24.43c-.07-3.38-4.91-6.15-7.35-3A79,79,0,0,0,219,576c-1.47,4.68,5.56,7.65,7.92,3.34a104.8,104.8,0,0,0,9.45-23.82c1.06-4-4.35-7.7-7.3-4.25a72.54,72.54,0,0,0-13.57,23.56c-1.7,4.87,5.77,7.89,8.25,3.48a91.65,91.65,0,0,0,9.83-26.05,4.64,4.64,0,0,0-7.69-4.48c-8.26,7.47-11.52,18.15-14.25,28.59-1.54,5.89,6.8,7.9,8.93,2.46l8.89-22.64c1.94-5-6-8.12-8.5-3.59Q214.58,564,209.29,576c-2.38,5.37,5.16,10.13,8.08,4.72A66.57,66.57,0,0,0,223,566.49c1.61-6-6.83-7.93-9-2.49a73,73,0,0,1-6.92,12.93l7.8,4.56q2.15-4.71,4.3-9.41c2.36-5.11-5.2-9.6-7.6-4.45a56.18,56.18,0,0,1-9.72,14.18l6.35,1.67.19-.18h-6.33l1.42,2.29c2.43,3.91,8.25.48,6.15-3.59Z"/><path class="cls-2" d="M258.2,562.52a10.53,10.53,0,0,0,2.3-1.15c3.78-2.56.43-8.51-3.62-6.19-6.65,3.82-9.61,11.45-11.62,18.56a101.15,101.15,0,0,0-2.56,11.92c-.56,3.59-1.77,7.77-.53,11.26a3.85,3.85,0,0,0,6.94.9c1.73-2.88,1.52-6.22,1.89-9.49a74.3,74.3,0,0,1,1.76-10.17c1.81-6.9,5.7-11.95,9-18.08l-6.67-1.8a10.53,10.53,0,0,0,.26,2.63,2.31,2.31,0,0,0,2.83,1.61Z"/><path class="cls-2" d="M570.91,636.8a11.14,11.14,0,0,0,1.45-1.75l-8.55-1.12c6.51,34.63,5.15,69.26-6.85,102.6l9.87,2.72a238.83,238.83,0,0,0,4.67-102.63c-1.09-6.35-10.74-3.65-9.67,2.67A227.25,227.25,0,0,1,557,736.53c-1.75,6.44,7.66,8.84,9.87,2.72,12.3-34,15.47-72.69,6-107.8-1.09-4-6.4-4.41-8.55-1.12l-.39.6c-2.12,3.25.78,6.61,4,7a4,4,0,0,0,3-1.12Z"/><path class="cls-2" d="M483.85,710.88c-5.09,3.51-9.05,9-13.34,13.42-4.48,4.66-8.81,9.46-13.34,14.08l10,10c8.36-9,16.77-18.33,21.63-29.78,3.56-8.38-7.44-15.5-12.55-7.34a100.45,100.45,0,0,1-28.52,29.91c-7.73,5.27-.43,18,7.38,12.63a115,115,0,0,0,33.69-35.2L475.5,713c-4,9.74-11.37,17.69-18.33,25.4-6.07,6.71,3.65,16.59,10,10,4.69-4.89,9.38-9.81,13.64-15.09,4-5,8.83-10.1,11.33-16,1.89-4.5-4.44-9-8.27-6.35Z"/><path class="cls-2" d="M339.65,704.05l2,10.44c.47,2.43,4.15,1.39,3.71-1L343.45,703c-.46-2.48-4.28-1.44-3.8,1Z"/><path class="cls-2" d="M341.28,714.82c-.14,2-.27,4.06-.41,6.1s-.68,4,0,5.9a2.56,2.56,0,0,0,4.88,0c.7-1.84.16-4,0-5.9s-.27-4.07-.41-6.1a2.06,2.06,0,0,0-4.12,0Z"/><path class="cls-2" d="M343.76,694c-.15,11.67.08,23.3.76,34.95.2,3.46,5.41,3.52,5.42,0l.05-21c0-3.39,1.54-10.6-1.94-12.81a3.16,3.16,0,0,0-4.27,1.12,5.8,5.8,0,0,0-.75,2.68c-.36,3.6,5.52,4.35,6.3.85.35-1.56.7-3.11,1-4.67l-6.93-.94q.91,26.65,1.11,53.36c0,4.76,7.39,4.77,7.4,0,.06-17.82-.43-35.57-1.46-53.36-.26-4.58-6.61-4.47-7,0-.15,1.59-.26,3.17-.38,4.76h6.42l-.28.47-4.27,1.12c-1.83-.81-.86,4.26-.84,5.51l.15,7.65.31,15.31h5.42q-1.41-17.45-2-34.95c-.09-2.71-4.19-2.73-4.22,0Z"/><path class="cls-2" d="M339.31,694.21c-.4,12.57-.51,25.15-.94,37.73-.15,4.43,6.33,4.24,6.78,0,.75-7.11,1.29-14.25,1.89-21.37h-7l-1.2,30.89c-.18,4.59,7,4.59,7.12,0L347,710.57c.16-4.55-6.64-4.44-7,0-.58,7.12-1.23,14.24-1.67,21.37h6.78c-.14-12.6-.41-25.17-1.43-37.73-.23-2.8-4.32-2.87-4.41,0Z"/><path class="cls-2" d="M539.17,658.86l-.86,1.25,1.69.72.29-.53-1.47-.84c-.61,4.58-9.56,5.08-12.77,4.89a44,44,0,0,1-11.64-2.7c-6.4-2.17-12.58-4.51-19.44-4.38a1.17,1.17,0,0,0-.58,2.16c7.28,4.7,16.35,13.06,25.54,13.08,4,0,11.9-2.6,12.46-7.28.21-1.66-2.43-1.66-2.62,0s-3.8,3-5.11,3.63c-4.34,2-8.57,1-12.65-1.11-5.71-2.94-11-6.86-16.45-10.32l-.59,2.16c10.39-.22,19.32,5.76,29.48,6.85,5,.54,15.81-.22,16.32-7a1,1,0,0,0-1.47-.85c-.8.61-.94.71-1.09,1.72s1.13,1.7,1.69.72l.76-1.32a.86.86,0,0,0-1.49-.87Z"/><path class="cls-2" d="M539.29,658.25v.07c-.29,2.06,2.78.78,1.51-.39l-.06-.06c-.42-.39-1.34-.3-1.44.38Z"/><path class="cls-2" d="M539.67,668.52a13.66,13.66,0,0,0,2.54-4.77.34.34,0,0,0-.61-.26q-2.61,4.14-5.2,8.29c-.23.37.33.82.61.48a26.75,26.75,0,0,0,5-8.87c.14-.44-.57-.76-.77-.32a39.71,39.71,0,0,1-4.65,7.67c-.32.42.34.87.7.54,3.91-3.57,6.33-8.22,5.71-13.61a.57.57,0,0,0-.7-.53,19.6,19.6,0,0,1-4.75.68l.17,1.24c1.87-.56,5.52-1.91,5.07,2.34-.12,1.06-1.47,2.69-2,3.6a66.38,66.38,0,0,1-5.7,7.55c-.5.59.3,1.43.85.86A46.07,46.07,0,0,0,541,667c1.23-1.84,3.15-4.29,3.48-6.55.59-4.14-4.75-3.33-7.15-2.6a.64.64,0,0,0,.17,1.25,21.22,21.22,0,0,0,5.05-.88l-.7-.54c.68,5.15-1.52,9.54-5.24,13l.7.54a39.71,39.71,0,0,0,4.6-7.7l-.76-.32a25.45,25.45,0,0,1-4.73,8.53l.61.48q2.56-4.17,5.1-8.35l-.61-.26a13.16,13.16,0,0,1-2.35,4.59c-.2.27.26.63.46.36Z"/><path class="cls-2" d="M472,336.52a13.09,13.09,0,0,1-4.32-5.22c-.21-.42-.81-.05-.63.37a24.2,24.2,0,0,0,8.82,10.71c.35.24.8-.33.46-.61-4.13-3.32-9.23-7.45-9-13.33s4.92-7.33,9.89-5.59a8,8,0,0,0,2.52.88c2.39,0,2-1,3.31-2.24,8.72-7.84,6.22-1.73,12.29-.26a3.68,3.68,0,0,0,3.81-.82c2.42-2.28,3.53-5,7.72-4,3.15.72,5,3.3,6,6.12,1.43,3.76.48,8,2.07,11.66,1.76,4.07,4.39,6.55,4.7,11.35.06.87,1.43.88,1.37,0a17.89,17.89,0,0,0-2-7.54c-.64-1.16-1.57-2.12-2.23-3.26-1.48-2.59-1.19-5.25-1.54-8.06-.55-4.35-2.36-9.25-6.75-11-3.49-1.4-6.31-.37-8.91,1.95a5.14,5.14,0,0,0-.85,1.4q-4.34,1.42-7-1.33c-.93-.46-1.41-1.15-2.47-1.49a5.52,5.52,0,0,0-4.3.42,5.81,5.81,0,0,0-2,1.83c.21-.31-1.27,3-.91,2.69-2.67,2.27-5.47-.32-8.11-.5-3.75-.25-6.85,3-7.43,6.45-.84,5,2.72,10.41,6.68,13.18,3.34,2.33-.32-1.13-1-1.88-.13-.13-3.84-5.63-3.88-5.62-1.53.11,2.67,3.82,3.39,4.33.33.23.63-.3.31-.53Z"/><path class="cls-2" d="M505,293.22c5.11,2.15,9.22,5.63,10.75,11.11a.9.9,0,0,0,1.74-.48c-1.72-6.14-6.29-10-12-12.37-1.07-.45-1.53,1.29-.48,1.74Z"/><path class="cls-2" d="M474.36,311.67c2.08-5.84,2.41-12.54,5.54-18,5.48-9.51,17.41-5.75,24.09.08.87.76,2.14-.51,1.27-1.27-5.76-5-16.09-9.55-23.27-4.3-6.74,4.92-6.81,15.82-9.37,23-.39,1.1,1.35,1.57,1.74.48Z"/><path class="cls-2" d="M481.57,319.86a13.56,13.56,0,0,1-6.94-8.18c-.36-1.09-2.1-.63-1.74.48a15.37,15.37,0,0,0,7.77,9.25c1,.5,1.95-1.05.91-1.55Z"/><path class="cls-2" d="M463.48,332.15c-.63,3.15.94,5.36,2.08,8.17.34.84,1.74.46,1.38-.39-1.05-2.53-2.68-4.75-2.33-7.63.08-.64-1-.79-1.13-.15Z"/><path class="cls-2" d="M463.12,333.11c.38,4.93,1.61,8.25,5.41,11.53s7.8,5.3,11.85,7.93c.8.52,1.6-.62,1-1.28-2.58-2.8-6.66-4.05-9.66-6.42a24.81,24.81,0,0,1-4.56-4.24c-1.69-2.24-2.26-5-2.76-7.69a.65.65,0,0,0-1.27.17Z"/><path class="cls-2" d="M523.18,305.22c-5.15-5-12-.49-17.09,2.13-4.81,2.47-10.5,6.61-9.2,12.64.32,1.47,2.57.85,2.26-.62-1.33-6.09,6.59-8.92,10.63-11,1.78-.92,3.52-2.38,5.48-2.92,2.57-.7,4.82.19,7.19,1a.75.75,0,0,0,.73-1.25Z"/><path class="cls-2" d="M512.55,640.93v-.59a.7.7,0,0,0-.69-.69c-.78,0-1.19.42-1.71.93-.88.87-1.68,1.8-2.5,2.72s.45,2.08,1.26,1.26A8.31,8.31,0,0,0,511,641a.91.91,0,0,0-1.51-.88l-3.2,3.37,1.51,1.17a21.36,21.36,0,0,0,2.38-4.57c.42-1.19-1.23-1.66-1.88-.8L505,643.81l1.77,1c1.09-1.77,2.18-3.54,3.29-5.29.61-1-.85-2.16-1.63-1.26-1.45,1.69-3,3.34-4.34,5.1-.81,1,.55,2.51,1.5,1.49,1.5-1.64,2.88-3.42,4.31-5.13l-1.63-1.25c-1.08,1.78-2.18,3.54-3.27,5.3-.71,1.15,1,2.06,1.77,1,1.11-1.49,2.23-3,3.34-4.48l-1.88-.79a19.75,19.75,0,0,1-2.06,4.14c-.56.93.77,2,1.51,1.17l3.12-3.45-1.51-.88a6.35,6.35,0,0,1-1.63,2.74l1.26,1.26c.51-.61,1-1.21,1.53-1.83.27-.33,1.06-1.69,1.42-1.71l-.69-.68.05.59a.66.66,0,0,0,1.32,0Z"/><path class="cls-2" d="M519.91,643.29a11.46,11.46,0,0,1-2,4.12l1.62,1c.84-1.64,1.71-3.28,2.51-4.94l-1.95-.82a11.82,11.82,0,0,1-.71,2.47,10.63,10.63,0,0,0-1.06,2.24,1,1,0,0,0,1.39,1.07c1.52-.93,2.16-3.57,2.44-5.21.19-1.1-1.4-2-2-.83-.79,1.68-1.52,3.38-2.28,5.07a.94.94,0,0,0,1.62,1,8.71,8.71,0,0,0,1.54-4.92.59.59,0,0,0-1.15-.15Z"/><path class="cls-2" d="M493.28,713.44l.61-1.1a.72.72,0,0,0-1.24-.73c-.52.91-1,1.84-1.47,2.77a.85.85,0,0,0,1.47.86c.46-.63.87-1.3,1.3-2l-1.6-.94a33.69,33.69,0,0,1-1.83,3.4l1.64,1a20.8,20.8,0,0,1,2.46-4.16l-1.64-1c-.87,2-1.64,4-2.49,6l1.5.63c.8-1.87,1.68-3.71,2.66-5.5l-1.67-.7a15.48,15.48,0,0,1-2.74,4.82l1.58.92c.49-1.6,1.46-3.17,1.5-4.88,0-1.4-.74-1.4-1.86-1.49l1,.73,0-.15-.1.77c.75-1.27.21-1.95-1-2.65a1.09,1.09,0,0,0-1.1,1.88,10.91,10.91,0,0,0,2.13.93l.59-2.14c-1.12-.25-2.18-.64-3.27-.18a1.17,1.17,0,0,0-.42,1.58c.59,1,1.91,1.34,3,1.71a1.11,1.11,0,0,0,.85-2,20.22,20.22,0,0,1-2.75-1.74l-.6,2.2a8.42,8.42,0,0,1,1.74.37,1.19,1.19,0,0,0,.91-2.16,4.64,4.64,0,0,0-2.42-.84,1.24,1.24,0,0,0-1.09.62c-.92,1.94,1.35,2.33,2.69,2.76v-2.41l-.23.09a1.25,1.25,0,1,0,1,2.29l.22-.1c1-.45.65-2-.3-2.28a8.39,8.39,0,0,1-1.63-.53l.58.75v.4l-1.21.93a3.93,3.93,0,0,1,1.51.48l.63-2.28a21.07,21.07,0,0,0-2.37-.45c-1.26-.16-1.46,1.62-.59,2.2a19.69,19.69,0,0,0,2.83,1.59l.85-2c-.42-.14-1.36-.35-1.57-.76l-.69,1.69a5.36,5.36,0,0,1,1.8.22c1.36.19,2-1.79.59-2.14a5.9,5.9,0,0,1-1.62-.67l-1.1,1.88a5,5,0,0,1,1,.53l-.46-.6.07.18.1-.77c-.28.51-.52.71-.36,1.34a1,1,0,0,0,1,.73c.25,0,.54-.09.79-.06l-.85-.49q-.06-.43-.06.15a2.89,2.89,0,0,1-.13.77,8.77,8.77,0,0,1-.35,1.1c-.3.8-.63,1.59-.87,2.41s1,1.68,1.59.92a17.92,17.92,0,0,0,3.16-5.68.91.91,0,0,0-1.66-.7,52.67,52.67,0,0,0-2.59,5.79c-.32.86,1.12,1.48,1.5.63.86-1.91,1.79-3.79,2.63-5.71a1,1,0,0,0-1.64-1,20.59,20.59,0,0,0-2.46,4.17,1,1,0,0,0,1.64,1,24.06,24.06,0,0,0,1.79-3.41c.48-1.07-1-2-1.6-.94-.41.67-.83,1.33-1.17,2l1.55.65a26.59,26.59,0,0,1,1.16-2.69l-1.31-.55-.42,1.18a.62.62,0,0,0,1.12.47Z"/><path class="cls-2" d="M479.25,708.57l.21-.21c1-.65-.27-2-1-1a17.65,17.65,0,0,0-1.58,2.51l1.66.7a7.15,7.15,0,0,1,1.12-1.88l-1.56-1.21-1.4,2.47A1.05,1.05,0,0,0,478.5,711a10.44,10.44,0,0,1,1.38-2.1l-1.05.27.15,0-.75-1.33a4.89,4.89,0,0,1-.5,1.15c-.49,1,.85,2.3,1.69,1.3a9.45,9.45,0,0,0,1.31-2l-1.85-1.08a11.62,11.62,0,0,1-1.55,2.83l1.71,1a2.63,2.63,0,0,1,.45-.82l-.8.1.14.06-.63-.48.07.14-.1-.8c-.39,1.54-1.54,2.8-2,4.32a.91.91,0,0,0,1.51.88,11.88,11.88,0,0,0,1.72-2.89c.37-.73,1.08-1.72.66-2.56-1-2-2.65.49-3,1.51a1,1,0,0,0,1.71,1,13.51,13.51,0,0,0,2-3.19c.56-1.23-1.24-2.32-1.85-1.08a7.05,7.05,0,0,1-1,1.56l1.68,1.3a6,6,0,0,0,.73-1.66,1.11,1.11,0,0,0-.75-1.32c-1.54-.32-2.25,1.75-2.88,2.81L478.5,711l1.3-2.52a1,1,0,0,0-1.72-1,8.24,8.24,0,0,0-1.32,2.61c-.34,1.14,1.33,1.54,1.76.48a20.7,20.7,0,0,1,1.2-2.46l-1.16.15.12.13-.14-.52-.07.26c-.12.43.47.82.78.46Z"/><path class="cls-2" d="M493.47,711.53c.84,2.41-3.89,7.8-5.31,9.48-2.21,2.62-4.94,4.81-7,7.5-.62.79.19,2.26,1.19,1.55,2.34-1.67,17.57-16.75,12-19.2-.42-.18-1.05.13-.86.67Z"/><path class="cls-2" d="M477.93,706.66c-3.32,4.39-5.64,11.13-6.34,16.55-.14,1,1.34,1,1.65.22,1.05-2.69,1.68-5.55,2.66-8.27a84.61,84.61,0,0,0,2.91-8.13.48.48,0,0,0-.88-.37Z"/><path class="cls-2" d="M371.52,356c2.3,5.22,5.1,7.92,9.81,11,5.42,3.49,9.32,8.48,14.08,12.73a.73.73,0,0,0,1-1,69.78,69.78,0,0,0-10.86-11.27c-1.8-1.42-3.79-2.54-5.69-3.81-3.38-2.27-5.11-4.84-7.41-8.13a.55.55,0,0,0-1,.56Z"/><path class="cls-2" d="M399.89,378.81a3.22,3.22,0,0,0-1.29.35,2.57,2.57,0,0,0-.64.5,2.76,2.76,0,0,0-.67,2.57,2.91,2.91,0,0,0,1.28,1.71,3.18,3.18,0,0,0,2.28.3l-.65.08h.05l.67-.09a1.89,1.89,0,0,0,.85-.45,2.63,2.63,0,0,0,.9-1.31,3.19,3.19,0,0,0-.22-2.6,4.63,4.63,0,0,0-.64-.82,3,3,0,0,0-2.86-.79,3.91,3.91,0,0,0-1.72,1,3.64,3.64,0,0,0-1,3.7,3.49,3.49,0,0,0,.81,1.44,2.93,2.93,0,0,0,5-2.06,2.8,2.8,0,0,0-2-2.7,2.55,2.55,0,0,0-1.95.25l-.52.4a2.53,2.53,0,0,0-.65,1.12v0l.66-1.14,0,0,.53-.41,0,0,.64-.27h0l.72-.09-.93.13h1.44l.67.28-.05,0,1.29,1.68v-.07l.1.75a1.22,1.22,0,0,1,0-.27l-.1.76a1,1,0,0,1,.08-.25l-.3.69c.14-.29.26-.59.37-.89l-.29.7c0-.08.08-.16.13-.24l-.45.59a1.8,1.8,0,0,1,.19-.2l-.59.45a1.88,1.88,0,0,1,.24-.14l-.69.29.07,0-2.21-.29.07.05-.58-.45.25.24a3.56,3.56,0,0,0,1.38.77l-.65-.27.25.13-1.16-2.83v.05l.63-1.09-.05,0,.5-.39-.06,0,.59-.25-.07,0,.65-.09h-.13l.64.09-.12,0,.57.24-.12-.06.49.37a.2.2,0,0,1-.09-.09l.37.48,0-.06.23.56,0-.12.08.62a.57.57,0,0,1,0-.13l-.08.62a.5.5,0,0,1,0-.13l-.23.55,0-.05-.35.46a.24.24,0,0,1,.08-.09l-.46.35A.34.34,0,0,1,401,383l.45-.35a1.73,1.73,0,0,0,.47-.73,2.16,2.16,0,0,0,.11-1.46,2.65,2.65,0,0,0-.58-1,2.2,2.2,0,0,0-1.59-.65Z"/><path class="cls-2" d="M403.15,377.62a1.2,1.2,0,0,0-.15-.37c-.05-.13-.1-.25-.16-.38l.29.7a.29.29,0,0,1,0-.09l.1.77v-.1a2.85,2.85,0,0,0-.38-1.42,2.13,2.13,0,0,0-.73-.79,2.11,2.11,0,0,0-1-.5,2.7,2.7,0,0,0-1.49,0,3.19,3.19,0,0,0-2.19,2.18,2.93,2.93,0,0,0,.76,2.87l.6.46a2.87,2.87,0,0,0,1.49.4,3.25,3.25,0,0,0,2.08-.86,3,3,0,0,0,.76-2.87Z"/><path class="cls-2" d="M394.31,372a3.5,3.5,0,0,0-1.67.47,2.83,2.83,0,0,0-1,1,4.22,4.22,0,0,0-.31.72,4.76,4.76,0,0,0-.14.92,2.18,2.18,0,0,0,.24,1.07,2.07,2.07,0,0,0,.57.89l.57.44a2.09,2.09,0,0,0,1,.33,1.54,1.54,0,0,0,.74,0,2.12,2.12,0,0,0,1-.33l.56-.44a2.76,2.76,0,0,0,.72-1.22v0l-.28.66a.83.83,0,0,1,.07-.13L396,377l0-.05.44-.57c.1-.23.2-.45.29-.68a.56.56,0,0,0,0-.12l-.27.66a1.09,1.09,0,0,1,.08-.15l-.42.55,0,0,.42-.54.27-.64.09-.71a2,2,0,0,0-.23-1,1.41,1.41,0,0,0-.34-.59,2.84,2.84,0,0,0-1.07-.82,2,2,0,0,0-1-.23Z"/><path class="cls-2" d="M395.71,380.56h0l-.57-.45h0l-.44-.58h0l-.28-.67h0l-.1-.74h0l.1-.75v0l.28-.67v0l.43-.56h0l-.43.55a2.11,2.11,0,0,0-.32,1,1.3,1.3,0,0,0,0,.73,2,2,0,0,0,.32,1h0a2.85,2.85,0,0,0,.22.28l.21.28h0l.57.44h0c.23.1.45.2.67.28a2.06,2.06,0,0,0,1.14.06,3.76,3.76,0,0,0,.38-.06l.68-.28c.11-.06.08-.06.29-.23-.19.15.21-.14.29-.22l.45-.58a2.14,2.14,0,0,0,.34-1.06,1.37,1.37,0,0,0,0-.75,1.39,1.39,0,0,0-.2-.72,2.06,2.06,0,0,0-.59-.92l-.57-.45-.68-.28a2.11,2.11,0,0,0-1.14-.05,1.44,1.44,0,0,0-.72.19,1.36,1.36,0,0,0-.62.37,2.11,2.11,0,0,0-.74.8l-.29.68-.1.75.1.76a2.22,2.22,0,0,0,.51,1,2.24,2.24,0,0,0,.8.73Z"/><path class="cls-2" d="M397.29,376.4a2.71,2.71,0,0,0,.36.86,3.45,3.45,0,0,0,1.2,1.2,3.14,3.14,0,0,0,1.58.42,2.29,2.29,0,0,0,1.21-.27,2.36,2.36,0,0,0,1-.64,3.2,3.2,0,0,0,.8-1.38s0,0,0,0l-.32.76,0,0-.5.65a.08.08,0,0,1,0,0l-.66.51,0,0,.66-.51.51-.66.33-.78.12-.87-.12-.87-.33-.78-.51-.66a2.46,2.46,0,0,0-1.05-.67,1.62,1.62,0,0,0-.83-.23,1.79,1.79,0,0,0-.86,0,1.62,1.62,0,0,0-.83.23,1.47,1.47,0,0,0-.72.42,1.72,1.72,0,0,0-.59.58,1.75,1.75,0,0,0-.42.72,1.72,1.72,0,0,0-.22.83,2.4,2.4,0,0,0,.06,1.3Z"/><path class="cls-2" d="M408,380.28v0a3.26,3.26,0,0,0-.45-1.66,3.33,3.33,0,0,0-1.18-1.18l-.79-.33a3.21,3.21,0,0,0-1.74,0,2.43,2.43,0,0,0-1.12.59,2.51,2.51,0,0,0-.85.92,3.26,3.26,0,0,0-.45,1.66,3.21,3.21,0,0,0,.45,1.66v0l.52.66a2.42,2.42,0,0,0,1.05.68,1.61,1.61,0,0,0,.83.22,2.54,2.54,0,0,0,1.31-.05l.78-.34.67-.51a2.58,2.58,0,0,0,.68-1.05,2.54,2.54,0,0,0,.28-1.27Z"/><path class="cls-2" d="M410.54,382.91c.74,2.44,3.11,3.32,5.11,4.6a109.55,109.55,0,0,1,9.63,7.24c.7.57,1.69-.35,1-1a54,54,0,0,0-6.76-5.48c-2.3-1.6-6.81-3.17-7.92-5.8-.26-.61-1.26-.17-1.07.45Z"/><path class="cls-2" d="M318.16,415.39l-.47.28-.21.12a1.24,1.24,0,0,0-.43.39.77.77,0,0,0,.06.86.8.8,0,0,0,.82.28,1.62,1.62,0,0,0,.56-.34l.41-.31a.78.78,0,0,0,.34-.44.74.74,0,0,0-1.08-.84Z"/><path class="cls-2" d="M323.86,421.7l.05,0-.23.09h.07l-.26,0h.1l-.27,0a.27.27,0,0,1,.12,0l-.25-.11.06,0-.21-.16,0,0a1.49,1.49,0,0,0,.5.29l-.25-.11,0,0a1.09,1.09,0,0,0,1.28-.17,1.33,1.33,0,0,0,.27-.46.9.9,0,0,0,0-.43.79.79,0,0,0-.13-.39,1.29,1.29,0,0,0-2.24.06,1,1,0,0,0-.11.59.86.86,0,0,0,.26.54,1,1,0,0,0,1.13.15Z"/><path class="cls-2" d="M328.07,426.66l.12,0a.93.93,0,0,0,.38-.2.32.32,0,0,0,.12-.11,1.15,1.15,0,0,0,.31-.52,1.1,1.1,0,0,0-1.35-1.35,1.33,1.33,0,0,0-.53.3,1.26,1.26,0,0,0-.3.51s0,.08,0,.12a1.06,1.06,0,0,0,0,.56,1.08,1.08,0,0,0,.27.46,1,1,0,0,0,.46.27,1.06,1.06,0,0,0,.56,0Z"/><path class="cls-2" d="M332.54,429.86c-.05-.1-.07-.05,0,0s0-.13,0,0a1,1,0,0,1,0-.17c0,.19-.06,0,0,0s0-.06,0,0,0,.08,0,0,.14-.16,0-.06.13-.14.12-.13a1.09,1.09,0,0,0,.24-.51,1.22,1.22,0,0,0-1.77-1.36,1.8,1.8,0,0,0-.75,1.92,2.36,2.36,0,0,0,.73,1.42.94.94,0,0,0,1.22.07.92.92,0,0,0,.23-1.19Z"/><path class="cls-2" d="M337.42,434.22l.27-.14a2,2,0,0,0,.44-.38l.23-.22a1.74,1.74,0,0,0,.41-.69,1.14,1.14,0,0,0-1.38-1.39,2.79,2.79,0,0,0-1.43,1.36,1.07,1.07,0,0,0,1.46,1.46Z"/><path class="cls-2" d="M344.2,438.11c.05-.08.1-.15.14-.23a1.17,1.17,0,0,0,.19-.65,2,2,0,0,0-.06-.43l-.12-.28a1,1,0,0,0-.3-.33,1.14,1.14,0,0,0-.71-.25,1.33,1.33,0,0,0-.59.16,1.22,1.22,0,0,0-.54.7,2,2,0,0,0-.07.43,1.18,1.18,0,0,0,.2.65c0,.08.09.15.14.23a1,1,0,0,0,1.72,0Z"/><path class="cls-2" d="M348.73,442.89a1.2,1.2,0,0,0,.33-.13l.24-.19a1.21,1.21,0,0,0,.31-.52,1.13,1.13,0,0,0,0-.18,1,1,0,0,0,0-.48.52.52,0,0,0-.06-.16.93.93,0,0,0-.25-.38l0,0a.91.91,0,0,0-.37-.24.87.87,0,0,0-.45-.1l-.31,0a1.21,1.21,0,0,0-.51.3,1.41,1.41,0,0,0-.32.54,1.18,1.18,0,0,0,0,.67,1.19,1.19,0,0,0,.54.72,1.16,1.16,0,0,0,.87.13Z"/><path class="cls-2" d="M355.27,445.75l.12-.11a1.25,1.25,0,0,0,.37-.65,1.13,1.13,0,0,0,0-.63,1.21,1.21,0,0,0-.84-.84,1.34,1.34,0,0,0-.63,0,1.25,1.25,0,0,0-.65.37l-.11.12a1,1,0,0,0-.26.4.87.87,0,0,0-.1.47.89.89,0,0,0,.1.48.93.93,0,0,0,.26.39l.24.2a1.38,1.38,0,0,0,.63.17l.32-.05a1.23,1.23,0,0,0,.55-.32Z"/><path class="cls-2" d="M359.39,447.59l.1.17.05.08.18.23.23.18.06,0,.27.12a.86.86,0,0,0,.45,0,.57.57,0,0,0,.29-.08.82.82,0,0,0,.37-.24l.18-.23.11-.27a1.32,1.32,0,0,0-.11-.88l0,0a.38.38,0,0,0-.09-.13.53.53,0,0,0-.21-.21l-.2-.14-.16-.1-.26-.11a.94.94,0,0,0-.44,0,.53.53,0,0,0-.27.08.8.8,0,0,0-.35.22l-.17.22-.11.26a.82.82,0,0,0,0,.44.73.73,0,0,0,.13.4Z"/><path class="cls-2" d="M367,450.8l.06.08-.11-.81,0,.05a1.26,1.26,0,0,0,0,.61,1.1,1.1,0,0,0,.3.51l.1.1a.79.79,0,0,0,.37.24.86.86,0,0,0,.44.1.87.87,0,0,0,.45-.1.79.79,0,0,0,.37-.24l.18-.23a1.17,1.17,0,0,0,.15-.58l0-.3a1.08,1.08,0,0,0-.29-.51l-.11-.1a1,1,0,0,0-.51-.3,1.26,1.26,0,0,0-.61,0l-.05,0,.81.1-.08-.05-.25-.11a.71.71,0,0,0-.41,0,.48.48,0,0,0-.26.07.72.72,0,0,0-.33.21l-.16.21-.11.24a.85.85,0,0,0,0,.42.68.68,0,0,0,.12.38Z"/><path class="cls-2" d="M375.35,453.2l.06,0h0l.14,0c.05,0,.24,0,0,0s0,0,0,0h.15a1.22,1.22,0,0,0,.91-.43,1.13,1.13,0,0,0,.31-.94,1,1,0,0,0-.53-.81,1.32,1.32,0,0,0-1.29,0,2.05,2.05,0,0,0-.49.39,2.74,2.74,0,0,0-.59,1,.82.82,0,0,0,.3.89.85.85,0,0,0,1,.07Z"/><path class="cls-2" d="M380.79,452.21v0l.59-.45h0l-.26.11a.84.84,0,0,0-.31.28.48.48,0,0,0-.14.25.87.87,0,0,0-.1.42s0,.06,0,.08l0,.29a.71.71,0,0,0,.2.37.46.46,0,0,0,.19.2.77.77,0,0,0,.37.19,1,1,0,0,0,.58,0l.26-.11a.76.76,0,0,0,.31-.28.48.48,0,0,0,.14-.24.76.76,0,0,0,.09-.42.19.19,0,0,0,0-.08l0-.29a.85.85,0,0,0-.19-.38.61.61,0,0,0-.2-.19.78.78,0,0,0-.38-.2h0l.59.45v0a.88.88,0,0,0-.35-.34.93.93,0,0,0-.49-.14,1,1,0,0,0-.84.48Z"/><path class="cls-2" d="M388.24,452.42a1.52,1.52,0,0,0-.19.72,1.46,1.46,0,0,0,.06.46,1.48,1.48,0,0,0,1,1,1.11,1.11,0,0,0,.87-.11,1.16,1.16,0,0,0,.46-.54,1.09,1.09,0,0,0-.46-1.4l-.07,0,.23.18a.6.6,0,0,1-.08-.08l.18.24-.1-.17.12.28a.23.23,0,0,1,0-.11l0,.3a.41.41,0,0,1,0-.11l0,.3v0a1.19,1.19,0,0,0-.11-.85,1.16,1.16,0,0,0-1.25-.51,1.07,1.07,0,0,0-.65.51Z"/><path class="cls-2" d="M394.57,453.42l.06,0-.46-.27,0,0a.8.8,0,0,0,.35.22.53.53,0,0,0,.27.08l.17,0h0a.87.87,0,0,0,.42-.1l.15-.06a1.09,1.09,0,0,0,0-1.87h0a.82.82,0,0,0-.4-.13.62.62,0,0,0-.19,0h0l-.29,0a.83.83,0,0,0-.37.2.41.41,0,0,0-.14.12l.46-.27-.06,0-.24.1a.94.94,0,0,0-.29.27.61.61,0,0,0-.13.22.76.76,0,0,0-.08.4l0,.27.11.24a.8.8,0,0,0,.26.29.75.75,0,0,0,.34.18Z"/><path class="cls-2" d="M400,449.64a1.91,1.91,0,0,0-.35.27,2.65,2.65,0,0,0-.21.26l-.06.08-.11.26a.86.86,0,0,0,0,.42.59.59,0,0,0,.07.26.8.8,0,0,0,.22.34l.22.17.25.11a.75.75,0,0,0,.42,0,.69.69,0,0,0,.39-.12l.08-.06,0,0c.07-.06.17-.12.24-.19a1.81,1.81,0,0,0,.18-.23l0,0,.06-.08.11-.25a.75.75,0,0,0,0-.42.5.5,0,0,0-.07-.27.74.74,0,0,0-.22-.34l-.21-.16-.25-.11a.86.86,0,0,0-.42,0,.79.79,0,0,0-.39.13Z"/><path class="cls-2" d="M406.71,449.48a1.09,1.09,0,0,0,0-2.18,1.09,1.09,0,0,0,0,2.18Z"/><path class="cls-2" d="M410.2,444.17h0l-.24.19h0l-.19.25h0s-.12.27-.12.29a1,1,0,0,0-.05.33s0,.3.05.33h0s.15.35.06.15c0,0,0,.11.07.15h0l.2.25v0a1.35,1.35,0,0,0,.27.2l.3.13a.9.9,0,0,0,.51,0l.21,0,.3-.13h0l0,0a1.28,1.28,0,0,0,.26-.2,2.43,2.43,0,0,0,.2-.25h0a.86.86,0,0,0,.14-.46.91.91,0,0,0,0-.49l-.12-.3a1,1,0,0,0-.32-.34.63.63,0,0,0-.27-.16.89.89,0,0,0-.48-.1l-.32,0a1.23,1.23,0,0,0-.55.32h0l.25-.19h0l.29-.12h0L411,444s0,0-.05,0l.33.05h0l-.17,0a1.21,1.21,0,0,0-.65.09l-.15.06.3-.12h0l.32,0h0l.33,0h0l.29.12h0l.25.19h0l.19.24h0l.12.29v0l0,.32v0a1.18,1.18,0,0,0-1.77-1Z"/><path class="cls-2" d="M414.41,440.3l0,.37a1.72,1.72,0,0,0,.06.64,1.23,1.23,0,0,0,1.18.89,1.26,1.26,0,0,0,1.18-.89,1.72,1.72,0,0,0,0-.64l0-.37a1.23,1.23,0,0,0-.35-.84,1.15,1.15,0,0,0-.84-.35,1.19,1.19,0,0,0-.85.35,1.41,1.41,0,0,0-.35.84Z"/><path class="cls-2" d="M420.4,435.4l-.07.45a2.76,2.76,0,0,0-.07.49,2.25,2.25,0,0,0,.07.52,1.26,1.26,0,0,0,2.42,0,1.52,1.52,0,0,0,.07-.52,2.76,2.76,0,0,0-.07-.49l-.07-.45-.12-.28a.8.8,0,0,0-.3-.33,1.12,1.12,0,0,0-.72-.26,1.57,1.57,0,0,0-.6.16,1.24,1.24,0,0,0-.54.71Z"/><path class="cls-2" d="M423.77,431.4v.19l.68-1.17a.44.44,0,0,0-.15.12,1.12,1.12,0,0,0-.38.4l-.14.35a.83.83,0,0,0,0,.22.68.68,0,0,0,0,.4,1,1,0,0,0,.17.54l.07.11a1.53,1.53,0,0,0,.87.67l.39,0a1.07,1.07,0,0,0,.56-.12.8.8,0,0,0,.32-.19,1.07,1.07,0,0,0,.38-.41,1.46,1.46,0,0,0,.14-1.12.56.56,0,0,0,0-.12l-.15-.35a1.1,1.1,0,0,0-.38-.42,1.13,1.13,0,0,0-.52-.27,1.41,1.41,0,0,0-.79,0l1.33.35-.16-.13a1.51,1.51,0,0,0-.56-.33l-.34-.05a1,1,0,0,0-.49.11.66.66,0,0,0-.29.17.72.72,0,0,0-.23.23,1.21,1.21,0,0,0-.27.77Z"/><path class="cls-2" d="M427.16,423.25a2.11,2.11,0,0,0-.45.83,2.24,2.24,0,0,0,0,1v-.73a1.38,1.38,0,0,0,.08.94,1.49,1.49,0,0,0,.59.7l.1.06a1.44,1.44,0,0,0,1.42,0,1.66,1.66,0,0,0,.58-.68,1.3,1.3,0,0,0,.09-.73,1.67,1.67,0,0,0-.18-.56l.14.34a.14.14,0,0,1,0-.07,1.57,1.57,0,0,0-.52-.75.8.8,0,0,0-.32-.19,1.07,1.07,0,0,0-.56-.12h0l1,.42-.08-.09.21.28s0-.09-.08-.14l.14.32a.42.42,0,0,1,0-.15l0,.34v-.12l0,.33v0a1.41,1.41,0,0,0-.07-.81,1.2,1.2,0,0,0-.5-.59,1.56,1.56,0,0,0-.63-.17,1.25,1.25,0,0,0-.88.36Z"/><path class="cls-2" d="M429.6,417.08a1.65,1.65,0,0,0-1.13,1.56l.18-.65a1.5,1.5,0,0,0,.14,1.7,1.58,1.58,0,0,0,1.65.57,1.41,1.41,0,0,0,.94-.94A1.37,1.37,0,0,0,431,418a2.33,2.33,0,0,0-.37-.27l.28.21a1.07,1.07,0,0,1-.19-.18l.21.27a1.58,1.58,0,0,0-.54-.52l.46.47s0-.05,0-.08l.13.3a.35.35,0,0,1,0-.11l0,.33v-.11l0,.32a.43.43,0,0,1,0-.05l-.11.28,0-.08-.18.24,0,0a1.2,1.2,0,0,0,.31-.66,1.17,1.17,0,0,0-.13-.73,1.19,1.19,0,0,0-1.3-.53Z"/><path class="cls-2" d="M429.9,411.16a1.28,1.28,0,0,0-.2.26,2.55,2.55,0,0,0-.13.29h0a1.31,1.31,0,0,0,0,.68l.12.29h0a1.21,1.21,0,0,0,.2.26l.13.1.13.1a1,1,0,0,0,.31.13l.17,0a.86.86,0,0,0,.32,0c-.06,0,.13,0,.18,0l.16-.07a.58.58,0,0,0,.18-.08l.13-.1.13-.09v0l.19-.24h0a1.51,1.51,0,0,0,.13-.29,1.3,1.3,0,0,0,0-.62,1.19,1.19,0,0,0-.3-.51,1.32,1.32,0,0,0-.51-.3,1.3,1.3,0,0,0-.62,0h0l.31,0h0l.31,0h0l.29.12-.05,0,.25.19-.13-.1a.86.86,0,0,0-.41-.22,2,2,0,0,0-.34,0l.33,0h0l.29.13h0l.24.19h0l.19.24h0l.12.29h0l0,.32h0l0,.32v0l0-.32a1,1,0,0,0-.11-.47.61.61,0,0,0-.15-.26.92.92,0,0,0-.34-.31l-.29-.12-.32-.05a1,1,0,0,0-.47.11.79.79,0,0,0-.38.25Z"/><path class="cls-2" d="M429.36,405.24l0,.32a2.45,2.45,0,0,0,0,.38,1.31,1.31,0,0,0,.31.5,1,1,0,0,0,.7.3,1,1,0,0,0,.7-.3,1.31,1.31,0,0,0,.31-.5,2.45,2.45,0,0,0,0-.38l0-.32a1.09,1.09,0,0,0-.32-.76,1,1,0,0,0-.76-.31,1.07,1.07,0,0,0-.76.31,1.05,1.05,0,0,0-.32.76Z"/><path class="cls-2" d="M559.94,449.27a23.06,23.06,0,0,1,3.25,9.44c.18,1.6,2.7,1.62,2.53,0a25.77,25.77,0,0,0-2.77-9.32c-.73-1.42-2.73-.39-2.45,1a36.63,36.63,0,0,0,1.51,5.42,1.35,1.35,0,0,0,2.6-.72l-1.42-5.48a1.35,1.35,0,0,0-2.6.72c3.76,14.87,5.22,30.23.62,45.09-4,13-11.61,24.53-15.72,37.47-.41,1.3,1.67,2.24,2.25,1,5.86-13.16,13.31-26.13,17.08-40.1,4-14.65,2.07-29.63-1.63-44.13l-2.6.72,1.42,5.48,2.6-.72a35.08,35.08,0,0,1-1.53-5.41l-2.45,1a24.7,24.7,0,0,1,2.6,8.31l2.44-.67a23,23,0,0,0-3.91-10.18c-.76-1.1-2.52-.12-1.82,1.07Z"/><path class="cls-2" d="M604.37,445.19c-2.63,9.51-3.5,19.65-4.42,29.45q-1.47,15.69-1.65,31.48c-.16,15.77.47,32-3.67,47.38a1.08,1.08,0,0,0,2.08.57c5-14,3.88-30.36,3.89-45,0-10.51.41-21,1.28-31.5.9-10.77,2.87-21.47,3.57-32.25,0-.63-.92-.73-1.08-.14Z"/><path class="cls-2" d="M249.89,710.29a1.54,1.54,0,0,0,0-3.08,1.54,1.54,0,0,0,0,3.08Z"/><path class="cls-2" d="M423.06,687.57c-3.3,2.45-7.75-.48-11.29-1s-7.22.16-10.81.53c-7.85.81-15.69.45-23.56.27-16.21-.37-31.68,2.54-47.52,5.69-7.84,1.56-15.66,3.26-23.37,5.42-7.16,2-14.12,4.85-21.42,6.36-15.76,3.28-32.25-.36-47.89,3.48-1.33.33-1.08,2.53.33,2.43,15.76-1.14,32.06.83,47.62-2.14,7.64-1.45,14.9-4.41,22.34-6.6,8.29-2.43,16.72-4.33,25.17-6.1s16.89-3.66,25.43-4.8c8.74-1.18,17.41-.92,26.2-.73,4.25.09,8.52.14,12.76-.16C401,690,405,689,409,689c5,0,10.83,3.72,15.17,0,.74-.65-.26-2-1.07-1.39Z"/><path class="cls-2" d="M254.93,706.46c-4.6,2-6.55,6-7.94,10.68-2.18,7.34-3.5,15-5.18,22.48l2.37.32a87,87,0,0,1,6.35-30c.55-1.38-1.82-2.4-2.42-1-4.32,10-7.6,21.33-7.42,32.37a1.26,1.26,0,0,0,2.51,0c1.36-10.92,3-21.14,7.33-31.35l-2.55-.71a90.5,90.5,0,0,0-6.21,30.67,1.21,1.21,0,0,0,2.37.32c1.36-6.14,2.67-12.29,4.08-18.42,1.16-5.07,2.56-11.35,7.38-14.25.74-.44.09-1.45-.67-1.13Z"/><path class="cls-2" d="M343.59,714.57c-5,5.38-2.67,13-5.54,19.26l4.34,1.17c.46-5,1-10,1.78-15l-4.64-.63c-.06,9.33-3.12,18.33-2.68,27.7.12,2.59,4,3.31,4.65.63a53.08,53.08,0,0,1,2.49-7.46l-4.41-1.2,1,8.6a2.37,2.37,0,0,0,4.74,0q.36-3.37.71-6.77l-4.64.63a57.76,57.76,0,0,1,1.79,6.87l3.53-2.72-.84-1.28c-.79-2.77-4.45-1.95-4.73.64l-.25,2.28,4.71-.64-.24-1a2.42,2.42,0,0,0-4.38-.57l-.47.82,4.38.57-.26-.81c-.56-1.74-3.5-2.59-4.37-.57l-.5,1.16,4.37,1.84.11-.27-3.75-.48.54,1a2.42,2.42,0,0,0,3.75.49l1.31-1.26-4-1,.57,1.62a2.41,2.41,0,0,0,4.34.56l.74-1.13-4.33-.57.13.73.61-2.3-.54.52,2.3-.61a3.25,3.25,0,0,0-3.05.36l3.23.85c-1.69-2.74-5.63-3.19-7.39-.26-1.31,2.17,1.21,4.13,3.22,3.22.45-.21,3.11,1.09,4.08,1a3.35,3.35,0,0,0,2.17-1.2c2.15-2.12-1.16-5.43-3.31-3.31,1.51-1.49-4.53-.88-5.31-.53l3.21,3.22-.75.27a2.42,2.42,0,0,0,3.24.85l-.59.12a2.37,2.37,0,0,0,2.3-.61c1.19-1.14,1.29-1.95,1-3.55-.37-2.16-3.31-2.11-4.33-.57l-.75,1.14,4.34.57-.57-1.62a2.4,2.4,0,0,0-4-1l-1.32,1.25,3.74.48-.54-1a2.41,2.41,0,0,0-3.75-.48,5.2,5.2,0,0,0-1.34,2.37c-.69,2.52,3.26,4.39,4.37,1.84l.5-1.15L340,747l.25.8a2.42,2.42,0,0,0,4.38.57l.47-.81-4.38-.58.23,1c.68,2.83,4.43,1.87,4.72-.64l.26-2.28-4.72.64a6.59,6.59,0,0,0,3.05,4.15c1.83,1.24,4-.8,3.53-2.71-.54-2.31-1.15-4.58-1.87-6.85-.84-2.66-4.35-2-4.63.63q-.37,3.39-.73,6.77h4.74l-1-8.6c-.22-2-3.37-3.63-4.41-1.19a61.34,61.34,0,0,0-3,8.59l4.65.63c-.44-9.35,2.63-18.37,2.67-27.7,0-2.58-4.26-3.34-4.65-.63q-1.17,8.1-1.88,16.24c-.19,2.25,3.4,3.26,4.34,1.18,2.87-6.32.71-13.56,4.06-19.65.86-1.56-1.26-3.35-2.54-2Z"/><path class="cls-2" d="M473.91,725.62c-1.51-.49-2.18.07-3.19,1.19-2.73,3-4.68,7.51-6.83,11-1.33,2.15,1.59,4.09,3.35,2.58,3-2.59,6-5.22,9-7.84l-3.82-2.22c-1.89,5.68-7,10.94-10.45,15.76-1.61,2.25,1.72,4.27,3.57,2.75l4-3.3-3.18-3.18c-4,4.2-8.24,8.16-12.64,11.95l3.24,3.24q3.72-3.42,7.21-7.08c2-2.13-1-4.89-3.15-3.15-3,2.37-6,4.74-9,7.07l2.67,3.47,3.69-3.69c1.76-1.76-.54-4.95-2.72-3.52-1.62,1.06-3.23,2.14-4.85,3.23l2.62,3.39,2.23-2.75a2.19,2.19,0,0,0-2.64-3.42l-2.76,1.48,3,3,1.26-1.72c1.36-1.86-1.23-4.07-3-3l-2.39,1.4,3.06,3,1.26-2.41a2.27,2.27,0,0,0-3.55-2.74l-1.76,1.47,3.22,3.22a10.91,10.91,0,0,0,1.76-2.7c.91-2-1-4.44-3.15-3.14l-2.29,1.41,2.85,3.68a7.51,7.51,0,0,0,1.47-2.23c.82-1.87-1.13-4.9-3.26-3.26l.36,0,2.31,1.76-.16-.39-1.1,2.7.28-.17c2.63-1.6.23-5.73-2.41-4.13l-.28.17a2.43,2.43,0,0,0-1.1,2.7l.16.39c.34.88,1.2,1.9,2.3,1.76a4.29,4.29,0,0,0,2.53-1.08l-4-2.32-.43.76c-1.52,1.9.43,5.28,2.84,3.68l2.24-1.5-3.14-3.14-1,1.8a2.28,2.28,0,0,0,3.22,3.22l1.73-1.5-3.54-2.73L448.29,753c-1,1.91,1,4.28,3,3l2.37-1.43-3-3-1.23,1.74c-1.35,1.89,1.21,4,3,3l2.75-1.51-2.64-3.42c-.73.93-1.46,1.86-2.2,2.78-1.43,1.78.36,4.79,2.62,3.39,1.64-1,3.29-2.05,4.93-3.09L455.19,751l-3.64,3.74c-2,2.09.95,4.84,3.12,3.12q4.5-3.55,9-7l-2.7-3.5q-3.54,3.62-7.3,7c-2.22,2,1,5.14,3.24,3.24a163.93,163.93,0,0,0,12.58-12c2-2.15-1-5-3.18-3.18l-4.05,3.27,3.57,2.75c3.76-5.19,9-10.63,10.94-16.83.7-2.28-2.21-3.71-3.82-2.23-2.93,2.68-5.86,5.35-8.76,8.06l3.34,2.58c.36-.68,5.79-10.92,5.44-11,2,.74,3-2.58.9-3.26Z"/><path class="cls-2" d="M448.43,742.1c-4.88.66-6.22,6.87-4.44,10.85a9.84,9.84,0,0,0,5.51,4.84c2.81,1,5.77-.55,8.14-2L454,751.09a21.72,21.72,0,0,1-2.47,2.42c-2.26,1.87.16,6.06,2.92,5a21.84,21.84,0,0,0,8.8-5.93l-4.21-4.22c-1.58,1.89-6,7.16-8.45,4.88-2.87-2.7,1.28-5,2.42-7.27.68-1.34-.12-3.49-1.9-3.31-7,.71-9.43,8.88-5.31,14.09,2.11,2.67,5.17,4.29,8.52,3s6.68-4.47,8.93-7.13c2.46-2.89-1.62-7.09-4.21-4.22a15.78,15.78,0,0,1-6.19,4.36l2.92,5a20.91,20.91,0,0,0,2.47-2.42c2.15-2.46-.58-6.56-3.64-4.71-1.95,1.19-4.3,2.52-5.84-.07-1.11-1.86-.38-4,.85-5.57.78-1,.43-3.09-1.19-2.88Z"/><path class="cls-2" d="M460.2,754.31c5.71-2.51,10.5-8.6,14.32-13.35s8.13-9.88,10.15-15.59a1.77,1.77,0,0,0-2.94-1.71c-4.17,4.82-7.14,10.68-11.25,15.62-3.74,4.49-8.78,8.57-11.73,13.59-.58,1,.54,1.84,1.45,1.44Z"/><path class="cls-2" d="M341.51,712.61c-3.69,1.3-3.23,6.73-3.69,9.95a158.21,158.21,0,0,0-2,18.54c-.07,3.47.67,7.41,4,9.32a7.29,7.29,0,0,0,9.21-1.95l-4.3-3.32-1.94,1.79c-2.66,1.37-1.08,4.89,1.4,5.14,9,.94,6.84-7.57,5.64-13.5l-4.87,2a3.57,3.57,0,0,1,.73,3.68q.3,3.59-3.94.84l-4.83,2a9.75,9.75,0,0,0,8.39,5.08V747a5.71,5.71,0,0,1-3.43-.55c-2.79-1-4.49,3.29-2,4.73,10.41,6,10.62-14,9.84-19.12-.29-2-3.09-1.58-3.61,0A28.92,28.92,0,0,0,345,739c-.06.71-.48,9.18-2.49,7.71l-2,4.73a11.29,11.29,0,0,0,4.8.79c3.39-.1,3.34-5,0-5.23a4,4,0,0,1-3.83-2.52c-1.56-2.73-5.35-.8-4.83,2,.88,4.78,5.78,6,9.84,4.22,5.61-2.4,4.87-7.08,3.34-12.19-.83-2.74-5.54-2.39-5.23.71.16,1.59.38,3.15.61,4.73.27,1.78,1.14,2.77-1,2.54l1.39,5.15a8.27,8.27,0,0,0,3.88-3.8c1.7-3.17-2.67-5.54-4.73-2.76-3.25.06-4.61-1.29-4.1-4,0-1.19.08-2.37.16-3.55.14-2.57.34-5.14.55-7.7.36-4.55-.32-11.31,1.56-15.48.38-.86-.27-2.14-1.35-1.76Z"/><path class="cls-2" d="M243.9,726.63a58.14,58.14,0,0,0-4.32,16.61c-.24,1.83,3,2.29,3.26.44a59.7,59.7,0,0,1,3.68-14.09l-3.34-.92a66.58,66.58,0,0,0-1.59,7.65c-.33,2.34-.08,5.61-1.53,7.54l3.17,1.34C245.08,733.36,247.15,722,252,711c1.1-2.52-2.6-4.72-3.73-2.18-5,11.19-8.71,23.57-8.47,35.93a1.75,1.75,0,0,0,3.24.87c1.28-1.71,1.34-3.28,1.55-5.38a68.58,68.58,0,0,1,1.91-10.64c.58-2.2-2.55-3-3.34-.92a61.41,61.41,0,0,0-3.6,14.57h3.31c.66-5.34,2-10.47,3.11-15.72.25-1.2-1.53-2.13-2.1-.89Z"/><path class="cls-2" d="M522.13,582.69c3.83,0,3.83-6,0-6s-3.84,6,0,6Z"/></g></svg>