<svg xmlns="http://www.w3.org/2000/svg" viewBox="0 0 720.18 844"><defs><style>.cls-1{fill:#b2d1d9;}.cls-2{fill:#dcb228;}</style></defs><title>Brown Girls Food Club Logo</title><g id="Background"><rect class="cls-1" y="2" width="720.18" height="844"/></g><g id="New_Logo" data-name="New Logo"><path class="cls-2" d="M401.5,128.36c-38.82,25.78-60.18,70.95-70.23,115.08s-12,89.46-19.88,133.88c-3.88,21.84-9.33,43.72-18.9,63.82-10.47,22-24.71,41.88-39.69,61-29.56,37.72-62.49,74.69-77.46,121.16-14,43.46-8.12,97.22,29.33,127.44,3.31,2.67,7.91,3.23,11.14,0,2.78-2.78,3.3-8.42,0-11.14-30.38-25-36.13-69.11-26.15-105.27C202,589.7,233.34,553.8,261.44,518.26c14.68-18.58,29-37.56,40.6-58.28a262.49,262.49,0,0,0,24.29-61.76c11.07-42.45,12.95-86.51,20.76-129.57,4.2-23.17,10.1-46.43,19.9-67.92,10.59-23.23,26.07-42.3,43.6-60.59,5.69-5.95-1.76-16.65-9.09-11.78Z"/><path class="cls-2" d="M407.39,135.7c-14.93-14.23-37.61-17-57.18-13.09-21.63,4.33-40.13,17.6-53.66,34.71-31.71,40.07-34.75,92.82-42.86,141.23-4.37,26.07-10.38,52.37-23.51,75.58-12.38,21.9-30,40.42-41.09,63.14-11.26,23.12-16.15,48.58-19.66,73.87-3.76,27.1-7.25,54.36-9,81.68-2,30.41-1.45,61.55,5.41,91.37,5.14,22.37,15.22,45.52,36.08,57.27a2,2,0,0,0,2-3.4c-18.56-11.56-27.81-32.5-32.72-53-6.14-25.73-7.13-52.42-6-78.75s4.49-52.44,7.8-78.53c3.09-24.29,6.39-48.84,14.63-72,8.42-23.68,23.68-42.69,37.78-63.11,14-20.23,23.11-42.23,28.66-66.15,11.07-47.75,9.31-99.28,31.91-143.86,11-21.75,28-41.92,51.13-51.27a75.1,75.1,0,0,1,69,6,1,1,0,0,0,1.25-1.62Z"/><path class="cls-2" d="M401.3,134.51a4.05,4.05,0,0,0,4.72-2.06,2,2,0,0,0-1.17-2.89c-1.22-.5-2.49-.89-3.74-1.32l-.56,4.14c3.18,0,5.73,1.08,8.72,2,2.44.71,3.78-2.72,1.69-4-2.95-1.85-7-2.27-10.41-2.14a2.11,2.11,0,0,0-.56,4.13c1.27.37,2.53.77,3.81,1.06l-1.38-2.42c0,.45-.24.66-.72.62a1.51,1.51,0,0,0-.4,2.95Z"/><path class="cls-2" d="M410.58,138.61c7.82,1.12,15.14,2.92,21.32,8.17,6,5.09,13.4,15.91,8.06,23.74-4.58,6.71-13.7,0-18.9,6.66-1.57,2-2.34,4.44-3.51,6.7-2.16,4.18-5.48,4.7-9.87,4.82-6.33.17-11.8.89-15.95,6.16-4.66,5.93-6.68,12.38-13.2,16.84-10,6.84-26.09,11.26-28.4,25.14-1,5.81,2,11.87,8.2,12.59,5.08.6,10-2.43,10.13-7.81.08-3.24-5.25-4.12-5.8-.78a2.79,2.79,0,0,1-5,1.4c-2.15-2.57-6.28.74-4.59,3.54A53.63,53.63,0,0,1,358,291.15c-3.71,10.66-12.17,28.76,2.3,35.89,9.14,4.51,21.3-5,18.91-15-1.22-5.14-6.2-9.67-11.74-8.47a7.8,7.8,0,0,0-5.38,11.3c1.38,2.77,5.72.82,4.92-2.08-.84-3.1,3-3.22,4.82-2.12,1,.58,1.63,2.8,1.64,3.92a7.38,7.38,0,0,1-2.47,5.08c-3.61,3.47-8.66,3.15-11.27-1.23-5.1-8.59,2-19,4.53-27.25,5-16.13,2.5-34-6.1-48.4l-4.59,3.55c4.33,5.24,13.69,2.77,14.8-4l-5.8-.79c-.08,3.28-4.93,1.92-6,.23-2.46-3.88,1.23-9.17,3.9-11.82,4.46-4.44,10.44-7.07,15.87-10.1,5.11-2.85,10-6.11,13.57-10.87,4.33-5.85,5.87-13.74,14.36-14.36,5.28-.38,11.17.43,15.37-3.55a19.56,19.56,0,0,0,4-6.44c1.82-4,2.73-5.57,7.7-5.35,6.16.28,11.15-1.39,14.19-7.21,2.91-5.59,1.66-12.28-.92-17.72-5.75-12.16-20.32-21.66-34-19.21-1.65.3-1.71,3.15,0,3.39Z"/><path class="cls-2" d="M382.12,364.77c-3.95-5.66-7.77-14.88-.05-19.36,4.62-2.68,10.87-2,15.9-1.12,7.66,1.32,16.81,3.59,23.83-1.17a11.33,11.33,0,0,0,4.88-8c.42-3.16-.44-6.26-.39-9.41,0-2,.29-4.15,1.73-5.66,2-2,4-.93,6.15-.69,2.83.3,5.05.42,6.51-2.51,1.57-3.15.75-7.35-.48-10.45l-1.41,1.86c4.09.4,4.85-3.68,4.68-6.85-.18-3.38-1.23-5.73,2.31-6.29a11.6,11.6,0,0,1,3.22.26,60.55,60.55,0,0,0,6.71,1c3.35.1,6.6-1,7.68-4.54.91-3-.07-6.5-.45-9.46-.48-3.73-1-7.47-1.62-11.18a103.69,103.69,0,0,0-6-22.1c-2.06-5-2.88-8.29-.94-13.46a84,84,0,0,0,3.86-12.93c2.27-11.38,2.5-23.54-3.12-33.95-3.31-6.13-6.36-13.81-11-19.06-1.36-1.55-3.63.73-2.27,2.27,2.59,2.94,4.26,7.38,6.13,10.78,1.65,3,3.49,5.95,5,9,3.37,6.76,3.71,14.1,3.24,21.53a72.31,72.31,0,0,1-2.74,15.65c-1.09,3.74-3.24,7.49-3.61,11.39-.29,3.14.92,5.8,2.12,8.62A89.25,89.25,0,0,1,456.85,264c.95,4.12,1.67,8.29,2.28,12.47.51,3.43,3.66,15-.81,16.69-4.28,1.6-9.27-1.74-13.73-.87a5.52,5.52,0,0,0-3.88,2.51c-.95,1.59,0,10.73-1.92,10.55a1.48,1.48,0,0,0-1.42,1.86c.8,2,2,5.55.94,7.67-1.81,3.55-5.57.24-8.14.58-3.31.43-5.53,3.59-6.36,6.61-1.73,6.24,2.84,13.92-3.45,18.58-4.11,3-10.38,2.76-15.17,2.11-8.18-1.11-18-4.4-25.47.84-8.13,5.68-4.84,16.32,1.24,22.07.58.55,1.65-.18,1.16-.9Z"/><path class="cls-2" d="M445.89,238.86c-8.77-7.6-13-18.81-25.8-20.39-11.78-1.46-22.54,5.26-29.66,14.15-1,1.26.73,3.07,1.81,1.8,7.41-8.67,17.8-15.58,29.72-12.95,11.15,2.45,13.66,13.92,23,18.57.72.36,1.59-.58.91-1.18Z"/><path class="cls-2" d="M427.42,249.92c-15.66-1.06-32.18.32-44.95-10.53-1.47-1.24-3.6.87-2.12,2.12,13.5,11.47,30.46,10.28,47.07,11.41,1.93.13,1.92-2.87,0-3Z"/><path class="cls-2" d="M438.35,253.93a26.91,26.91,0,0,0-8.38-3.52c-1.87-.46-2.67,2.43-.8,2.89a24.42,24.42,0,0,1,7.66,3.22c1.63,1.06,3.13-1.54,1.52-2.59Z"/><path class="cls-2" d="M437.81,254.34c1.49-6.58-2.27-12.68-7.83-16.11-7.47-4.6-17.09-3.23-25.09-.94a1.29,1.29,0,0,0,.69,2.49c6.54-1.31,13.59-2.76,20.08-.41,6.25,2.25,10.48,8,10,14.68a1.11,1.11,0,0,0,2.17.29Z"/><path class="cls-2" d="M437.36,256.59a1.42,1.42,0,0,0-1.8,1.26,13.37,13.37,0,0,1-2.35,2.63,16.42,16.42,0,0,1-6.24,3.24,21.91,21.91,0,0,1-11.14.11c-9-2.26-15-9.21-21.83-14.87a1.15,1.15,0,0,0-1.62,1.63c7.23,8,17.7,16.32,29,16.11a20.63,20.63,0,0,0,12.17-3.91c1.77-1.36,5.37-4.47,4.23-7a.82.82,0,0,0-.92-.38l-.44.12a.77.77,0,0,0-.53.93l.06.35c.16.85,1.29.52,1.38-.19Z"/><path class="cls-2" d="M441.17,282.74c-3.9-4-11.18-1.7-13.3,3.1-2.7,6.09,3.5,12.86,9.73,11.78,1.38-.24,1.07-2.59-.34-2.46-4.49.41-9.54-4.27-6.9-8.9,2-3.44,6.54-3.87,9.79-2.2a.84.84,0,0,0,1-1.32Z"/><path class="cls-2" d="M442.15,292.16l-.33-.24a.94.94,0,0,0-.93,0,1.72,1.72,0,0,0-.94,2.46c1.14,1.81,3.16,0,4.55.59,1.21.55,2.28-1.18,1.06-1.82a10.1,10.1,0,0,0-6.42-1.09l.86,2a5.79,5.79,0,0,1,3.9-.79l.31-2.3h-5.92l.62,2.27a5.26,5.26,0,0,1,3.59-.55l-.3-2.29a4.08,4.08,0,0,1-3.4.36v2.48a17.32,17.32,0,0,1,13.06,2,1.39,1.39,0,0,0,1.4-2.4,20.08,20.08,0,0,0-15.14-2.05,1.3,1.3,0,0,0,0,2.48,7.45,7.45,0,0,0,5.34-.67c1.24-.63.47-2.2-.63-2.34a8.68,8.68,0,0,0-5.15.9,1.23,1.23,0,0,0,.61,2.27l5.92-.08a1.18,1.18,0,0,0,0-2.35,8.08,8.08,0,0,0-5.34,1.16,1.13,1.13,0,0,0,.86,2.05,7.38,7.38,0,0,1,4.77.75l1.06-1.82a3.35,3.35,0,0,0-1.54-.39,20.89,20.89,0,0,0-2.77.93.89.89,0,0,0,.9-1.53Z"/><path class="cls-2" d="M433.86,258.27a6.91,6.91,0,0,0,.68-4.29,1.49,1.49,0,0,0-1.65-1.07,1.52,1.52,0,0,0-1.3,1.47,7.8,7.8,0,0,1-.48,1.46,1.5,1.5,0,0,0,2.89.79,9.56,9.56,0,0,0,.59-2.25l-2.95.4a3.41,3.41,0,0,1-.37,2,1.5,1.5,0,1,0,2.59,1.51Z"/><path class="cls-2" d="M433.94,258.16a14.47,14.47,0,0,0,1.48-2.52l-2.59-1.51a10,10,0,0,1-1.36,2.27,1.54,1.54,0,0,0,0,2.12,1.5,1.5,0,0,0,2.12,0,12,12,0,0,0,1.83-2.88,1.54,1.54,0,0,0-.54-2,1.51,1.51,0,0,0-2.05.54,14.76,14.76,0,0,1-1.48,2.51,1.51,1.51,0,0,0,.54,2.05,1.53,1.53,0,0,0,2.05-.53Z"/><path class="cls-2" d="M432.82,262.29a13.65,13.65,0,0,0,4.27-4.7c.79-1.43-1.22-3.16-2.36-1.81a13.87,13.87,0,0,1-3.26,3c-1.63,1-.13,3.62,1.51,2.59a16.4,16.4,0,0,0,3.87-3.42l-2.35-1.82a10.48,10.48,0,0,1-3.19,3.62c-1.59,1.08-.09,3.68,1.51,2.59Z"/><path class="cls-2" d="M433,261a13.74,13.74,0,0,0,5.28-5.12l-2.59-1.51a10.31,10.31,0,0,1-4.09,4.55c-1.68.94-.17,3.54,1.51,2.59a13,13,0,0,0,5.17-5.63,1.5,1.5,0,0,0-2.59-1.51,10.76,10.76,0,0,1-4.21,4c-1.7.91-.19,3.5,1.52,2.59Z"/><path class="cls-2" d="M439.72,308.61c.63-3.18-1.56-5.44-4.69-5.89-2.49-.36-5.16.3-7.61.63L416,305c-1.51.22-.87,2.49.63,2.29l9-1.26c2.6-.37,12.32-3.05,12.25,2.36,0,1.05,1.66,1.32,1.87.25Z"/><path class="cls-2" d="M415.66,307.28a115,115,0,0,0,17.14,11.53c1.07.58,2.42-1,1.37-1.77A115.51,115.51,0,0,0,416.68,306c-.8-.41-1.8.69-1,1.33Z"/><path class="cls-2" d="M436.24,308.83c-2-.1-4.09-.21-6.13-.25-.92,0-1.16,1.46-.22,1.63a6.63,6.63,0,0,0,5.05-.81.93.93,0,0,0,0-1.58,11.11,11.11,0,0,0-12.55.39,1,1,0,0,0,0,1.69,9.07,9.07,0,0,0,9.16.12,1,1,0,0,0,.45-1.12,3.93,3.93,0,0,0-6-2.62,1,1,0,0,0,.24,1.82,15.45,15.45,0,0,0,6.13.43l-.26-2a11.26,11.26,0,0,0-3.69,2,1,1,0,0,0,.45,1.67,10.39,10.39,0,0,0,6.72-.81,1,1,0,0,0,0-1.74,9.14,9.14,0,0,0-3.43-.94c-.92-.07-1.26,1.13-.71,1.73a2.76,2.76,0,0,0,3.74.55,1,1,0,0,0-.24-1.85l-1.69-.07-.16-1.24c.4-.61-3,.13-2-.06a7.24,7.24,0,0,0-2.36,1.17,1,1,0,0,0,.79,1.87c1.57-.42,5.31-1.21,5.78,1.36l1.54-1.17-1.25-1.91-2.06.28a7.69,7.69,0,0,1,.45,5.16l1.94-.25.11-1.64h-1.51q2.4,1.29-.09,2.65l-1.24.51-2.23-2.3-.4,1.53,3.45,1,.79-1.39a9.56,9.56,0,0,1-8.78-2.23l-.23,1.81a7,7,0,0,1,6.87.3l.28-2.12a4.56,4.56,0,0,1-5.89-2.24l-.7,1.72a9.44,9.44,0,0,1,8.67,2.36l.24-1.85a6.1,6.1,0,0,1-5.68-.05l.54,1.33a2.56,2.56,0,0,1,4.48-1.06l1.43-1.85a15.84,15.84,0,0,0-12.47-2.94c-1.32.22-1,2.41.32,2.34l10.26-.55a1.21,1.21,0,0,0,.6-2.23A10.82,10.82,0,0,0,423,306a1.24,1.24,0,0,0-.56,1.36,3.16,3.16,0,0,0,4.63,1.91c1.22-.54.42-2.12-.61-2.24l-6.46-.73c-1-.11-1.42,1.09-1,1.81a7,7,0,0,0,5.88,3.61,14.66,14.66,0,0,0,4-.22c1.23-.21,2.42-.56,3.65-.74,1.07-.16,5.74-.56,6.22,0l.18,1.39.17-.3a1.14,1.14,0,0,0-2-1.15l-.18.3a1.16,1.16,0,0,0,.17,1.38c1.84,2.32,4.34-.87,2.14-2.84-4.94-4.39-14.72,3.86-18.16-2.63l-1,1.81,6.46.73-.6-2.24-1.1-.48-.55,1.36a8.46,8.46,0,0,1,9.34-.63l.6-2.22-10.26.56.31,2.34a13.53,13.53,0,0,1,10.65,2.68c1.14.85,2.25-.91,1.43-1.86a4.91,4.91,0,0,0-8.42,2.1,1.21,1.21,0,0,0,.54,1.33,8.4,8.4,0,0,0,8.05.05,1.19,1.19,0,0,0,.24-1.85,11.84,11.84,0,0,0-11-2.94,1.18,1.18,0,0,0-.7,1.71,6.83,6.83,0,0,0,8.53,3.3,1.18,1.18,0,0,0,.28-2.13,9.51,9.51,0,0,0-9.22-.28,1.16,1.16,0,0,0-.23,1.81,11.91,11.91,0,0,0,11,2.78,1.15,1.15,0,0,0,.79-1.39,4.28,4.28,0,0,0-7-2.16,1.12,1.12,0,0,0-.17,1.36,6.82,6.82,0,0,0,5.49,3.31,1.08,1.08,0,0,0,1-.54c.77-1.7.23-3.31-1.72-3.72a1.14,1.14,0,0,0-1.24.5c-1.38,2.28.56,5.35,3.32,4.38,3.61-1.26,2.34-5.55.18-7.43a1.07,1.07,0,0,0-1.51,0,3.27,3.27,0,0,0-.43,4.22,1.07,1.07,0,0,0,1.94-.25,9.45,9.45,0,0,0-.47-6.29c-.41-1-2.19-1-2.07.28a4.28,4.28,0,0,0,2.29,3.71,1.06,1.06,0,0,0,1.54-1.18c-.73-3.84-5.39-3.59-8.34-2.79l.79,1.88a4.69,4.69,0,0,1,4-1,1,1,0,0,0,.88-.51l.2-.31a1,1,0,0,0-.16-1.23c-2.26-2.39-4.92,2.12-.29,3.46l-.24-1.85-1.29-.23-.72,1.73,2.41.65v-1.74a7,7,0,0,1-5.17.62l.44,1.68,2.8-1.47c1-.33.91-2.11-.27-2a14.18,14.18,0,0,1-5.61-.36L427,308c2.46.94,2.44,1.38-.05,1.3a6.6,6.6,0,0,1-3.57-1.09v1.69a9.52,9.52,0,0,1,10.64-.5v-1.58l-3.69.79-.22,1.63c2,0,4.09-.12,6.13-.19a.61.61,0,0,0,0-1.22Z"/><path class="cls-2" d="M435.55,308.41c0,.12-.07.25-.1.37a3,3,0,0,0-.11.55,2.24,2.24,0,0,0,.09.89,1.63,1.63,0,0,0,3.17.07,1.42,1.42,0,0,0-1-1.82,1.1,1.1,0,1,0-.59,2.12.84.84,0,0,1-.55-.95c.1-.35,0-.08,0,0s0,0,.08-.09c-.08.08-.06.07.07,0a1.13,1.13,0,0,1-.21.12l.5-.13c-.16,0,.06,0,.12,0l.11.08c.07,0-.06-.11,0,0a.9.9,0,0,1-.06-.22s-.07-.36-.06-.3a3.85,3.85,0,0,1,0-.48.74.74,0,0,0-1.45-.2Z"/><path class="cls-2" d="M437.58,309.8c.06,0,.1.05,0,0s.13.12,0,0c0,.12.06.15,0,.08s0-.05,0,0,0,.38,0,.07c0,0,0-.37,0-.15s0,0,0,0a1.21,1.21,0,0,0,0-.18c0,.12-.09.11,0,.06a.57.57,0,0,0,.08-.13s-.13.17,0,.05l.1-.09c-.12.09-.15.11-.08.07s0,0-.05,0a.36.36,0,0,1-.21,0c-.24,0,.12.06-.08,0s.1.15-.14-.08c0,0-.14-.22-.07-.1a.8.8,0,0,1-.11-.37c0,.15,0-.14,0-.15s.05-.11.06-.13c-.09.17.15-.17.06-.07s-.07.13,0,0,.08-.05,0,0l-.11.06s-.14.05-.14.07.29-.1.13-.06.21,0,.07,0,.19,0,.19,0,.33.16.16.06a1.27,1.27,0,0,1,.23.21s.18.37.13.21a1.23,1.23,0,0,0-1.35-.88,1.21,1.21,0,0,0-1.07,1.2,1.7,1.7,0,0,0,1.23,1.65,2.05,2.05,0,0,0,1.58-.32A2,2,0,0,0,439,308a1.9,1.9,0,0,0-3,.48,2.36,2.36,0,0,0-.33,1.66c.13.29.14.33.06.13a.56.56,0,0,0,0,.12,2.71,2.71,0,0,0,.2.42,1.74,1.74,0,0,0,.69.6.94.94,0,0,0,.95-1.62Z"/><path class="cls-2" d="M436.25,308.79a3.61,3.61,0,0,0,.15.92l.36.87v-.64l0,.11a1.3,1.3,0,0,0,1.89,1.45,1.28,1.28,0,0,0-.31-2.35l-.09,0,.71.55c-.16-.29-.32-.59-.5-.88a5.38,5.38,0,0,0-.75-.82.86.86,0,0,0-1-.13.88.88,0,0,0-.39,1Z"/><path class="cls-2" d="M437.23,310.07a21.13,21.13,0,0,0-.64-2.58l-.77,1.35s.29-.16.15-.06-.1,0,0,0,.07,0,0,0a.71.71,0,0,1,.24.25l-.15-.58c0-.17,0-.16,0,.05a.91.91,0,0,0,0,.49c.08.23,0-.09,0,0s.05-.23,0,.06a1.29,1.29,0,0,0,0,.73,1.17,1.17,0,0,0,1.39.79,1.56,1.56,0,0,0,1.06-1.63,2.15,2.15,0,0,0-.23-1l-.2-.25c-.27-.23-.33-.26-.15-.09s.13.13.07.05l-.21-.28a2.37,2.37,0,0,0-2.86-.61,1.08,1.08,0,0,0-.5,1.23,21.93,21.93,0,0,0,1.25,2.64c.46.85,1.67.24,1.5-.64Z"/><path class="cls-2" d="M437,309.89c.51-.33,1-.6,1.54-.94a1.14,1.14,0,0,0-.27-2.05,18.37,18.37,0,0,0-3.59-1.24,1.25,1.25,0,0,0-1.45.72,1.21,1.21,0,0,0,.51,1.53,18.47,18.47,0,0,0,3.93,1.15l-.49-1.87c-.42.45-.77.95-1.18,1.41-.58.66.18,1.82,1,1.29Z"/><path class="cls-2" d="M433.21,306.64c1.61.31,4,.12,4.56,2.1.25.92-.6,7.2-2.62,5.31l-1.55,2,1.7.89,1-2.35a15.7,15.7,0,0,1-5.58-2,1.32,1.32,0,0,0-1.79,1.8,7.64,7.64,0,0,0,3.58,3.16,1.31,1.31,0,0,0,1.32-2.27L431,313.46l-1.32,2.26c.83.39,1.65.78,2.48,1.15,1.46.65,2.75-1.41,1.28-2.18-.8-.43-1.62-.83-2.44-1.23a1.31,1.31,0,0,0-1.32,2.26l2.85,1.8,1.32-2.27a5.41,5.41,0,0,1-2.64-2.22l-1.79,1.8a17.9,17.9,0,0,0,6.21,2.25c1.33.22,2.4-1.63,1-2.35l-1.72-.88c-1.24-.64-2.67,1-1.55,2a3.54,3.54,0,0,0,4.55.31c1.69-1.17,2.1-3.43,2.29-5.34.42-4.38-2.8-6.69-7-5.95a.92.92,0,0,0,0,1.76Z"/><path class="cls-2" d="M418.12,307.38a2,2,0,0,0,1,1.12,3.69,3.69,0,0,0,1.53.39,1,1,0,0,0,.72-1.74,4.59,4.59,0,0,0-2.55-1.2,1.13,1.13,0,0,0-.3,2.22,3.93,3.93,0,0,1,1.61.58l.52-1.89a4.93,4.93,0,0,1-1.69-.29c-.45-.09-1,.31-.81.81Z"/><path class="cls-2" d="M420.73,251.57c-3.81,1.84.67,7.5,2.86,8.72,3.92,2.17,8.61.47,11-3.11l-2.74-.74c-.1,1.67-.5,3.23-2.3,3.52a8.75,8.75,0,0,1-4.07-.32c-2.62-1-3.32-4.09-2.3-6.48a1.5,1.5,0,0,0-2.6-1.51c-3.43,4.48,0,10.59,5.28,11.15a8.55,8.55,0,0,0,6.94-2.38c1.56-1.57,2.92-4.46,1.68-6.56a1.52,1.52,0,0,0-2.05-.54l-.17.09a1.53,1.53,0,0,0-.69,1.69l0,.15c.55,1.85,3.44,1.07,2.9-.79l-.05-.15-.69,1.69.17-.09-2-.54c.65,1.11-1.27,3.09-2,3.58a5.64,5.64,0,0,1-4.1.83,4.09,4.09,0,0,1-2.61-6.62l-2.6-1.51c-1.76,4.14-.56,9.36,4.11,10.87,2,.66,5.36.92,7.34,0s2.65-4.12,2.76-6.12c.08-1.53-2-1.9-2.74-.74a5.51,5.51,0,0,1-6.06,2.51,5.62,5.62,0,0,1-2.76-1.88c-.37-.45-1.65-2.26-1-2.81,1.18-.92-.32-2.52-1.5-2Z"/><path class="cls-2" d="M424.88,252c1.35,1.29,3.83,1.37,5.59,1.27a1.3,1.3,0,0,0,.34-2.54,14.69,14.69,0,0,0-4.4-.86,1.36,1.36,0,0,0-.36,2.65,31.84,31.84,0,0,0,5.41,1.24,1.26,1.26,0,0,0,.64-2.33,32.56,32.56,0,0,0-5.34-1.51l-.35,2.65a12,12,0,0,1,3.71.66l.35-2.55a19.71,19.71,0,0,1-2.77.06,8.38,8.38,0,0,0-2.5,0,.74.74,0,0,0-.32,1.23Z"/><path class="cls-2" d="M423.06,251.75c-2.28,2.27-.61,6.35,2,7.57,3.11,1.46,6.93-.79,7.55-4.06h-2.69c.29,1.58-2.5,1.62-3.32,1.12s-1.16-2.26,0-2.7L425,251.62a3.69,3.69,0,0,0-.4,1.17c-.2,1.15,1.18,2.26,2.13,1.24a3.57,3.57,0,0,0,.7-1c.5-1-.34-2.52-1.59-2.07a4.37,4.37,0,0,0-.71,7.85c3.09,1.83,8.36-.19,7.43-4.3-.29-1.27-2.49-1.38-2.69,0-.26,1.77-2.07,3.32-3.91,2.54s-1.88-2.85-1.57-4.51a.83.83,0,0,0-1.37-.8Z"/><path class="cls-2" d="M426.4,251.83c-1.6-.27-2.65,1.32-2.82,2.75a3.68,3.68,0,0,0,2.3,3.84,4.49,4.49,0,0,0,4.67-.69c1.34-1.16,1.94-3.74.14-4.79a1.26,1.26,0,0,0-1.84,1.41c.25.78.66,1.31-.23,1.85a2.19,2.19,0,0,1-2,.1,1.53,1.53,0,0,1-1-1.58c.06-.77.63-1.16,1.06-1.71.29-.37.27-1.08-.31-1.18Z"/><path class="cls-2" d="M403.56,346.73c-1.92,8.58.45,17.41,4.95,24.86,4.71,7.8,12.15,13.26,18.1,20,12.36,14,20.28,32.33,18.18,51.28-2.13,19.2-15,34.62-26.42,49.28-11.67,14.94-22.09,31.33-40.48,38.45-9,3.48-18.52,5.4-28,7.1s-20.53,2.24-29,7.43c-7.09,4.34-.62,15.49,6.53,11.17,7.31-4.41,17.7-4.52,26-6,9-1.56,18-3.32,26.54-6.4a74.84,74.84,0,0,0,23.46-13.1c7.93-6.73,14-15.5,20.31-23.68,12.05-15.59,25.83-31.18,31.65-50.4,5.86-19.39,1.32-40.65-8.68-57.86a103.69,103.69,0,0,0-19.79-24.13c-4.14-3.79-8.22-7.28-10.95-12.28-2.66-4.84-3.66-10.42-4.78-15.77-.79-3.79-6.76-3.72-7.59,0Z"/><path class="cls-2" d="M397.48,377.74a1.37,1.37,0,0,0,.77-.17,1.41,1.41,0,0,0,.64-.41,1.5,1.5,0,0,0,.41-.64,1.45,1.45,0,0,0,.17-.77l-.07-.53a2,2,0,0,0-.51-.88l-.4-.31a2,2,0,0,0-1-.27,2,2,0,0,0-2,2l.07.53a2.11,2.11,0,0,0,.51.88l.41.31a2,2,0,0,0,1,.27Z"/><path class="cls-2" d="M399.71,382.58c2.57,0,2.57-4,0-4s-2.56,4,0,4Z"/><path class="cls-2" d="M400.23,384.78a2.68,2.68,0,0,0,.07.27,1.94,1.94,0,1,0,2.39-2.39l-.27-.07a1.78,1.78,0,0,0-2.19,2.19Z"/><path class="cls-2" d="M402.35,387.66l0,.34a1,1,0,0,0,.12.54,1.06,1.06,0,0,0,.29.46,1.2,1.2,0,0,0,.45.29,1,1,0,0,0,.55.12l.37-.05a1.43,1.43,0,0,0,.62-.36l.22-.29a1.46,1.46,0,0,0,.2-.71l0-.34a1,1,0,0,0-.13-.56,1,1,0,0,0-.3-.47,1.08,1.08,0,0,0-.46-.3,1.21,1.21,0,0,0-.56-.13l-.39.06a1.42,1.42,0,0,0-.64.37l-.23.29a1.49,1.49,0,0,0-.2.74Z"/><path class="cls-2" d="M402.17,394.6c4.25-3.85,10.57-2.78,12.59,2.94.81,2.29.93,5.36-.86,7.26s-4.76,1.84-7.11,1.58c-1.66-.19-1.65,2.41,0,2.6,3.37.37,7.27-.11,9.47-3s1.95-7,.53-10.1c-2.78-6.11-12.05-8.92-16.2-2.49-.65,1,.76,2,1.58,1.23Z"/><path class="cls-2" d="M393.71,395.41c-12.12-1.43-12.47,20.62-.42,20.31,4.9-.13,8.74-4.29,9.28-9A11.12,11.12,0,0,0,393,394.55c-1.82-.3-2.6,2.48-.77,2.78,4,.66,7.26,3.44,7.57,7.71a7.4,7.4,0,0,1-5.84,8c-4.59.84-7.56-4-7.54-8.13,0-4.63,3.36-7,7.42-8.21a.66.66,0,0,0-.17-1.29Z"/><path class="cls-2" d="M383,399.15c-7.55-6.48-16.19,5.26-12.73,12.58.83,1.75,3.42.23,2.6-1.51-2-4.22,3.25-13,8-9,1.46,1.25,3.59-.86,2.12-2.12Z"/><path class="cls-2" d="M394.45,399.12A6.9,6.9,0,0,0,388,406a5.64,5.64,0,0,0,7.45,5.57c3.66-1.24,5-5.87,3.27-9.15-1.84-3.47-6.83-4-8.32,0-.5,1.35,1.34,2.15,2.26,1.32l1.59-1.45-2.1-1.62a17.92,17.92,0,0,1-1.95,3.33c-.91,1.22,1,2.62,2.06,1.59l1.63-1.6-2.05-1.58-1.72,3.1c-.68,1.22,1.05,2.71,2,1.55a13.61,13.61,0,0,1,2.31-2.24l-1.73-1.73a14,14,0,0,1-1.84,2.91,1.25,1.25,0,0,0,1.77,1.77A20.49,20.49,0,0,0,395.5,405l-2-1.51-2.92,4c-.72,1,.72,2.44,1.71,1.71l3.2-2.37-1.7-1.7-3.17,4.58a1.26,1.26,0,0,0,1.4,1.83,7,7,0,0,0,5.18-7.34l-2.13.89c.95,1.14.39,1.74.24,2.94-.2,1.53,0,1.35.83.74a3.85,3.85,0,0,0,1.44-2.23,4.24,4.24,0,0,0-2.12-4.76c-1.46-.74-2.76,1.48-1.28,2.21a1.66,1.66,0,0,1,.55,2.62c-.59.63-1.44.72-1.8,1.6a2.07,2.07,0,0,0,1.95,2.79c3.94.05,3.74-5.58,2-7.68a1.26,1.26,0,0,0-2.14.88,4.45,4.45,0,0,1-3.34,4.94l1.41,1.83,3.17-4.58c.69-1-.7-2.45-1.7-1.71L391.07,407l1.71,1.71,2.92-4c.83-1.14-1.06-2.6-2-1.52a20.49,20.49,0,0,1-2.89,2.85l1.77,1.77a17.21,17.21,0,0,0,2.25-3.41c.5-1-.62-2.53-1.73-1.72a16,16,0,0,0-2.85,2.61l2,1.55,1.75-3.07a1.31,1.31,0,0,0-2.05-1.58l-1.64,1.58,2.07,1.6a17.62,17.62,0,0,0,2-3.31,1.34,1.34,0,0,0-2.1-1.62l-1.61,1.43,2.26,1.31c.66-1.71,2.64-.67,3.29.31a4.14,4.14,0,0,1,.57,3,3.49,3.49,0,0,1-4.34,2.87c-2.2-.65-2.68-3.34-1.94-5.25a6.46,6.46,0,0,1,4.09-3.65.7.7,0,0,0-.19-1.36Z"/><path class="cls-2" d="M408,397.75c-.42-1.95,2-1.7,2.9-1.12a5.36,5.36,0,0,1,1.79,2c.77,1.48.85,3.52-.76,4.47a2.72,2.72,0,0,1-3-4.52L407.3,397l-1,1.56c-.6.95.65,2.37,1.62,1.63l2.22-1.7-1.76-1.35a10.43,10.43,0,0,1-1.69,3.3c-.85,1.14.9,2.26,1.86,1.44l2.77-2.41L409.5,398l-2.17,3.52a1.17,1.17,0,0,0,1.6,1.59l2.56-1.66-1.59-1.59-2.17,3.88c-.54,1,.58,2.22,1.58,1.58l2.85-1.82-1.56-1.57a1.74,1.74,0,0,1-1.5.89l1.11,1.9c2.06-1.8,3.86-4.47,1.71-6.95l-1.44,1.86a1.9,1.9,0,0,1,.82,2.82l2.08.86c-.34-2.94,0-6.88-3.87-7.43A4.06,4.06,0,0,0,406,397c-1.14,1.22-.26,4.14-.13,5.68l2.27-.62-1.68-3.65L404.8,400a3.52,3.52,0,0,1,1.32,4h2.36c-.2-.54-1.79-7-.3-6.67l-.55-2c-2.37,1.85-3,5.72-.71,7.88a1,1,0,0,0,1.63-1.26,3.7,3.7,0,0,1,.82-4.89,1.24,1.24,0,0,0-.54-2c-5.33-1.3-3.6,7.17-2.71,9.69a1.24,1.24,0,0,0,2.36,0,6.06,6.06,0,0,0-2.45-6.74c-1.1-.77-2.12.68-1.67,1.67l1.69,3.65a1.23,1.23,0,0,0,2.27-.61l-.26-3c-.08-1-.09-1.67,1.26-1.34,1.94.48,1.45,3.51,1.62,5,.11.91,1.34,1.78,2.08.86a4.26,4.26,0,0,0-1.34-6.59,1.2,1.2,0,0,0-1.44,1.87c1.18,1.31-.76,2.9-1.64,3.66s.1,2.07,1.1,1.91a4.06,4.06,0,0,0,2.88-1.93,1.16,1.16,0,0,0-1.57-1.57l-2.86,1.81,1.57,1.57,2.19-3.87c.55-1-.58-2.24-1.59-1.59l-2.57,1.66,1.6,1.6,2.19-3.51c.74-1.19-.88-2.26-1.85-1.42l-2.79,2.39,1.86,1.44a12.57,12.57,0,0,0,2-3.86c.29-.92-.91-2-1.76-1.35l-2.21,1.7,1.63,1.63,1-1.57c.59-.95-.64-2.35-1.62-1.62a5,5,0,1,0,6.74,7c2-2.87.17-6.88-2.57-8.52-2.48-1.49-6.75-.06-5.22,3.34.36.8,1.52.21,1.35-.56Z"/><path class="cls-2" d="M383.34,405.35c3.62,0,3.63-5.62,0-5.62s-3.62,5.62,0,5.62Z"/><path class="cls-2" d="M380.09,406.63V407a2.15,2.15,0,0,0,.25,1.11,2.11,2.11,0,0,0,.59.92,2.2,2.2,0,0,0,.93.6,2.26,2.26,0,0,0,1.11.25l.77-.11A2.78,2.78,0,0,0,385,409l.45-.58a3,3,0,0,0,.4-1.45v-.35a3.21,3.21,0,0,0-.85-2,2.09,2.09,0,0,0-.93-.59,2.11,2.11,0,0,0-1.11-.25l-.76.1a3,3,0,0,0-1.28.74l-.45.59a2.84,2.84,0,0,0-.39,1.45Z"/><path class="cls-2" d="M385,412.41l.07-.21-1,1.33.05,0a1.79,1.79,0,0,0,.65-.6,1,1,0,0,0,.3-.51,1.71,1.71,0,0,0,.2-.89l-.08-.62-.24-.55a1.68,1.68,0,0,0-.59-.65,1.12,1.12,0,0,0-.51-.3,1.75,1.75,0,0,0-.9-.2l-.61.08-.56.24a1.76,1.76,0,0,0-.65.59,1.32,1.32,0,0,0-.3.51,1.86,1.86,0,0,0-.2.9l.09.61.23.56a2.44,2.44,0,0,0,.83.83l.05,0-1-1.33.07.21.22.51a1.67,1.67,0,0,0,.55.6,1,1,0,0,0,.48.28,1.54,1.54,0,0,0,.82.18l.57-.07.51-.22a1.62,1.62,0,0,0,.61-.55,1.65,1.65,0,0,0,.38-.73Z"/><path class="cls-2" d="M389.3,420.22c3.12,0,3.12-4.85,0-4.85s-3.13,4.85,0,4.85Z"/><path class="cls-2" d="M393.76,420.49c3,0,3-4.65,0-4.65s-3,4.65,0,4.65Z"/><path class="cls-2" d="M397.48,418.86c2.81,0,2.81-4.36,0-4.36s-2.81,4.36,0,4.36Z"/><path class="cls-2" d="M400.46,416.57a1.76,1.76,0,0,0,0-3.51,1.76,1.76,0,0,0,0,3.51Z"/><path class="cls-2" d="M402,414.67c3.16,0,3.17-4.92,0-4.92s-3.18,4.92,0,4.92Z"/><path class="cls-2" d="M402.63,408l-.08.17,0,.08-.21.48a3.31,3.31,0,0,0-.07.55,1.47,1.47,0,0,0,.17.74,1.42,1.42,0,0,0,.4.62,2.16,2.16,0,0,0,1.37.57l.51-.07a2,2,0,0,0,.86-.5l.3-.39a2,2,0,0,0,.26-1,2.51,2.51,0,0,0-.07-.55c-.06-.16-.13-.32-.2-.48l0-.08-.07-.17a1.81,1.81,0,0,0-.65-.64,1.76,1.76,0,0,0-1.81,0,1.78,1.78,0,0,0-.64.64Z"/><path class="cls-2" d="M404.18,407c2.85,0,2.85-4.43,0-4.43s-2.86,4.43,0,4.43Z"/><path class="cls-2" d="M403.06,402.68c2.58,0,2.59-4,0-4s-2.58,4,0,4Z"/><path class="cls-2" d="M402.32,399.55c2.85,0,2.85-4.43,0-4.43s-2.86,4.43,0,4.43Z"/><path class="cls-2" d="M398.23,396.46c2.71,0,2.71-4.21,0-4.21s-2.72,4.21,0,4.21Z"/><path class="cls-2" d="M394.13,394.6c2.72,0,2.72-4.22,0-4.22s-2.72,4.22,0,4.22Z"/><path class="cls-2" d="M390.41,395.93c3,0,3-4.64,0-4.64s-3,4.64,0,4.64Z"/><path class="cls-2" d="M383.44,394.14l-.09.26,1.06-1.38a.73.73,0,0,0-.26.2,1.69,1.69,0,0,0-.61.66l-.24.56a1.77,1.77,0,0,0,0,.94,1.73,1.73,0,0,0,.28.88l.37.48a1.7,1.7,0,0,0,.76.48,1.77,1.77,0,0,0,.91.21l.62-.09a1.75,1.75,0,0,0,.81-.42,1.82,1.82,0,0,0,.6-.66l.24-.56a1.77,1.77,0,0,0,0-.94,1.64,1.64,0,0,0-.28-.88l-.37-.48a1.55,1.55,0,0,0-.5-.38l1.06,1.38-.09-.26-.22-.53a1.62,1.62,0,0,0-.57-.62,1.07,1.07,0,0,0-.49-.29,1.66,1.66,0,0,0-.85-.19l-.59.08-.53.22a1.62,1.62,0,0,0-.62.57,1.69,1.69,0,0,0-.4.76Z"/><path class="cls-2" d="M382.56,396.85a3.39,3.39,0,0,0-.29.21,1.26,1.26,0,0,0-.43.43,1.17,1.17,0,0,0-.3.53,1.12,1.12,0,0,0-.16.6,2,2,0,0,0-.05.34l.09.64v0l0,.06,0,.13.23.55a1.79,1.79,0,0,0,.6.65,1.12,1.12,0,0,0,.51.3,1.75,1.75,0,0,0,.9.2l.61-.08.56-.24a1.76,1.76,0,0,0,.65-.59,1.82,1.82,0,0,0,.41-.79,2.37,2.37,0,0,0,.15-.85v0l-.09-.63-.24-.57-.37-.48-.48-.37,0,0h0a2.28,2.28,0,0,0-2.31,0Z"/><path class="cls-2" d="M398.17,390.63l-.28.43-.21.5a1.6,1.6,0,0,0,0,.84,1,1,0,0,0,.15.53,1.52,1.52,0,0,0,.43.68l.43.33.5.22a1.6,1.6,0,0,0,.84,0,1.48,1.48,0,0,0,.79-.25l.42-.28a2.17,2.17,0,0,0,.8-.79,2.21,2.21,0,0,0,.3-1.12l-.08-.59a2.17,2.17,0,0,0-.57-1,1.72,1.72,0,0,0-.71-.45,1.56,1.56,0,0,0-.85-.19,2.19,2.19,0,0,0-1.12.3,2.24,2.24,0,0,0-.8.79Z"/><path class="cls-2" d="M400.62,388.9l-.28.42-.19.45a1.33,1.33,0,0,0,0,.74,1,1,0,0,0,.12.47,1.49,1.49,0,0,0,.39.6l.38.29.44.19a1.34,1.34,0,0,0,.74,0,1.37,1.37,0,0,0,.7-.22l.42-.28a2,2,0,0,0,.71-.71,1.89,1.89,0,0,0,.27-1l-.07-.52a2,2,0,0,0-.51-.87,2.16,2.16,0,0,0-1.39-.58,2,2,0,0,0-1,.27,2,2,0,0,0-.7.71Z"/><path class="cls-2" d="M406.41,414.28c3.62,0,3.63-5.62,0-5.62s-3.62,5.62,0,5.62Z"/><path class="cls-2" d="M410.5,413.59c3.22,0,3.22-5,0-5s-3.21,5,0,5Z"/><path class="cls-2" d="M415,411.89c2.94,0,2.94-4.57,0-4.57s-3,4.57,0,4.57Z"/><path class="cls-2" d="M418.32,408.09a1.83,1.83,0,0,0,0-3.66,1.83,1.83,0,0,0,0,3.66Z"/><path class="cls-2" d="M419.43,404.05c2.9,0,2.9-4.5,0-4.5s-2.9,4.5,0,4.5Z"/><path class="cls-2" d="M419.06,400.56c2.71,0,2.72-4.22,0-4.22s-2.72,4.22,0,4.22Z"/><path class="cls-2" d="M368.09,413.29a2,2,0,0,0,1-.22,1.94,1.94,0,0,0,.83-.53,2,2,0,0,0,.53-.83,2,2,0,0,0,.22-1l-.09-.68a2.75,2.75,0,0,0-.66-1.13l-.52-.4a2.59,2.59,0,0,0-1.3-.35,1.89,1.89,0,0,0-1,.22,1.85,1.85,0,0,0-.82.53,1.88,1.88,0,0,0-.53.83,1.84,1.84,0,0,0-.23,1l.1.69a2.54,2.54,0,0,0,.66,1.13l.52.4a2.55,2.55,0,0,0,1.29.35Z"/><path class="cls-2" d="M381,415.18l-.35.07-.45.19a1.42,1.42,0,0,0-.52.48.86.86,0,0,0-.24.41,1.36,1.36,0,0,0-.16.72l.07.49.18.45a1.42,1.42,0,0,0,.48.52,1.37,1.37,0,0,0,.64.34l.35.06a1.81,1.81,0,0,0,1,0,1.87,1.87,0,0,0,.85-.49l.3-.4a1.84,1.84,0,0,0,.27-1,2.16,2.16,0,0,0-.57-1.37,1.92,1.92,0,0,0-1.88-.5Z"/><path class="cls-2" d="M368.83,402c3.17,0,3.18-4.92,0-4.92s-3.17,4.92,0,4.92Z"/><path class="cls-2" d="M372.56,401a2.26,2.26,0,0,0,1.11-.25,2.67,2.67,0,0,0,1.52-1.52,2.27,2.27,0,0,0,.25-1.12l-.1-.76a2.89,2.89,0,0,0-.75-1.27l-.58-.45a2.76,2.76,0,0,0-1.45-.4,2.27,2.27,0,0,0-1.12.25,2.67,2.67,0,0,0-1.52,1.52,2.26,2.26,0,0,0-.25,1.11l.11.77a2.78,2.78,0,0,0,.74,1.27l.58.45a2.86,2.86,0,0,0,1.46.4Z"/><path class="cls-2" d="M376.65,398.68c3.16,0,3.17-4.93,0-4.93s-3.17,4.93,0,4.93Z"/><path class="cls-2" d="M377.87,396.71l.15.29a2.47,2.47,0,0,0,.82.82,2.31,2.31,0,0,0,2.31,0A2.38,2.38,0,0,0,382,397l.15-.29A2.46,2.46,0,0,0,380,393a2.49,2.49,0,0,0-2.13,1.22,2.49,2.49,0,0,0,0,2.48Z"/><path class="cls-2" d="M399.29,376.68l0,.32a1.92,1.92,0,0,0,.23,1,2,2,0,0,0,.53.84,2.09,2.09,0,0,0,.84.54,2,2,0,0,0,1,.22l.7-.09a2.64,2.64,0,0,0,1.14-.67l.41-.53a2.63,2.63,0,0,0,.36-1.31l0-.32a2,2,0,0,0-.23-1,1.88,1.88,0,0,0-.54-.85,2,2,0,0,0-.85-.55,2,2,0,0,0-1-.22l-.7.09a2.68,2.68,0,0,0-1.16.68l-.41.53a2.6,2.6,0,0,0-.36,1.33Z"/><path class="cls-2" d="M406,384.45l.17.7.18.42a1.33,1.33,0,0,0,.45.49,1.67,1.67,0,0,0,1.07.38,2,2,0,0,0,.89-.24,1.75,1.75,0,0,0,.8-1.05l.17-.7a1.94,1.94,0,0,0-.49-1.88,1.93,1.93,0,0,0-2.74,0,2,2,0,0,0-.5,1.88Z"/><path class="cls-2" d="M406.84,386.91l0,.35a1.64,1.64,0,0,0,.18.82,2,2,0,0,0,1.14,1.14,1.64,1.64,0,0,0,.82.18l.58-.07a2.21,2.21,0,0,0,.94-.56l.34-.43a2.16,2.16,0,0,0,.29-1.08l0-.35a1.62,1.62,0,0,0-.18-.84,1.69,1.69,0,0,0-.45-.7,1.72,1.72,0,0,0-.71-.45,1.7,1.7,0,0,0-.84-.19l-.57.08a2.31,2.31,0,0,0-1,.56l-.34.44a2.23,2.23,0,0,0-.29,1.1Z"/><path class="cls-2" d="M393.33,372.49l.06.3a2.25,2.25,0,0,0,.61,1,2.43,2.43,0,0,0,1,.61,2.41,2.41,0,0,0,1.25,0,2.43,2.43,0,0,0,1-.61,2.25,2.25,0,0,0,.61-1l.06-.3a2.43,2.43,0,0,0-.62-2.36l-.49-.38a2.4,2.4,0,0,0-1.22-.33,1.88,1.88,0,0,0-.94.21,1.81,1.81,0,0,0-.78.5,2.43,2.43,0,0,0-.62,2.36Z"/><path class="cls-2" d="M396.89,373.74l.13.7.21.5a1.58,1.58,0,0,0,.54.58,1,1,0,0,0,.46.27,1.53,1.53,0,0,0,.79.18,2.39,2.39,0,0,0,1.05-.29,1.56,1.56,0,0,0,.58-.53,1.58,1.58,0,0,0,.38-.71l.13-.7a2.15,2.15,0,0,0,0-1.18,2.12,2.12,0,0,0-.57-1,2.21,2.21,0,0,0-3.13,0,2.12,2.12,0,0,0-.57,1,2.15,2.15,0,0,0,0,1.18Z"/><path class="cls-2" d="M412.36,385.19a1.37,1.37,0,0,0,0-2.74,1.37,1.37,0,0,0,0,2.74Z"/><path class="cls-2" d="M413.17,386.66l.07.36.18.43a1.38,1.38,0,0,0,.46.5.84.84,0,0,0,.4.23,1.34,1.34,0,0,0,.69.15l.47-.06.43-.18a1.41,1.41,0,0,0,.51-.46,1.56,1.56,0,0,0,.32-.61l.06-.36a1.85,1.85,0,0,0,0-1,1.78,1.78,0,0,0-.47-.82l-.38-.29a1.84,1.84,0,0,0-.94-.25,2.1,2.1,0,0,0-1.32.54,1.9,1.9,0,0,0-.48.82,1.85,1.85,0,0,0,0,1Z"/><path class="cls-2" d="M414.49,391.61l.42.18.53.23a1.72,1.72,0,0,0,.9,0,1.16,1.16,0,0,0,.57-.15,1.74,1.74,0,0,0,.72-.47L418,391l.22-.53a1.62,1.62,0,0,0,0-.9,1.69,1.69,0,0,0-.26-.84l-.18-.42a2.59,2.59,0,0,0-.87-.87,2.41,2.41,0,0,0-1.23-.33l-.64.09a2.36,2.36,0,0,0-1.07.62,1.83,1.83,0,0,0-.51.78,1.78,1.78,0,0,0-.2.94,2.38,2.38,0,0,0,.33,1.22,2.27,2.27,0,0,0,.87.87Z"/><path class="cls-2" d="M417.57,394.61a1.37,1.37,0,0,0,0-2.74,1.37,1.37,0,0,0,0,2.74Z"/><path class="cls-2" d="M415.8,396.45a6.52,6.52,0,0,0,1.43,2.67,2,2,0,0,0,3.37-1.39,5.18,5.18,0,0,0-.67-2.42,2.39,2.39,0,0,0-1-1.29,2.16,2.16,0,0,0-2.94.77,2.07,2.07,0,0,0-.21,1.66Z"/><path class="cls-2" d="M418.69,400.31l.37,0a2,2,0,0,0,1.29-.53,1.34,1.34,0,0,0,.38-.59,1.31,1.31,0,0,0,.16-.7l-.07-.49a1.75,1.75,0,0,0-.47-.81l-.37-.28a1.74,1.74,0,0,0-.92-.25l-.37,0a1.46,1.46,0,0,0-.72.16,1.49,1.49,0,0,0-.6.39,2.19,2.19,0,0,0-.55,1.32l.07.49a1.84,1.84,0,0,0,.48.82l.38.3a1.91,1.91,0,0,0,.94.25Z"/><path class="cls-2" d="M406.16,381.42a4.41,4.41,0,0,0-.8-1.06,2.3,2.3,0,0,0-.85-.5l-.52-.07a1.47,1.47,0,0,0-.74.17.89.89,0,0,0-.43.25,1,1,0,0,0-.35.34,1.85,1.85,0,0,0-.41,1.17,2.68,2.68,0,0,0,.15.89l.16.41a1.91,1.91,0,0,0,.53.91l.42.33a2,2,0,0,0,1.05.28,1.53,1.53,0,0,0,.79-.18,1.46,1.46,0,0,0,.67-.43,1.52,1.52,0,0,0,.43-.66,1.59,1.59,0,0,0,.18-.8,2.11,2.11,0,0,0-.28-1.05Z"/><path class="cls-2" d="M334.22,399.73a4.83,4.83,0,0,0,2.93-1.82l-2.5-1.46c-1.42,4.71,4.54,5.67,6.7,2.07l-2.74-.36c.82,3.2,5.08,7,7.06,2.35l-2.79-.76c.44,3.33,4,7.08,6.41,3l-2.74-.36c.78,4.27,5.79,5.42,7.53,1.24l-2.94-.39c.07,1.33.05,3.08,1.22,4,1.67,1.29,5.06-1.08,6.23.9a1.5,1.5,0,0,0,2.35.3l1.85-2.16-2.51-.66c.52,3.67,3.6,4.12,6.83,4.27,1.93.09,1.92-2.91,0-3-1.57-.07-3.62.17-3.93-2.06a1.52,1.52,0,0,0-2.51-.67l-1.85,2.16,2.36.3a4.11,4.11,0,0,0-3.21-2.42c-1.41-.22-3.72,1.17-3.83-.93a1.51,1.51,0,0,0-2.95-.4l-1.75-1.25a1.51,1.51,0,0,0-2.74-.35l-.82-1.5c-.17-1.25-2.13-2.32-2.8-.76-1.07-.1-1.59-.65-1.58-1.63a1.52,1.52,0,0,0-2.74-.36l-1.22.25a1.51,1.51,0,0,0-2.51-1.46l-1.61,1c-1.83.59-1.05,3.49.8,2.89Z"/><path class="cls-2" d="M327.51,391.93c-.93,1.51-.55,3.39,1.34,3.81a5.06,5.06,0,0,0,4.26-1.18L331,392.44a4.41,4.41,0,0,0-.62,5.77c1.11,1.56,3.71.06,2.59-1.52a1.46,1.46,0,0,1,.15-2.13c1.43-1.31-.69-3.41-2.12-2.12.1-.1-.34.19-.44.22a3.27,3.27,0,0,1-.69.16h-.4c.13,0,0-.08.11,0l.13.11a.82.82,0,0,1,.23.8s.2-.37.17-.32c1-1.65-1.57-3.16-2.59-1.52Z"/><path class="cls-2" d="M328.44,391.91l2.44-.33c0,.76,1.13,1.4,1.68.69l3.57.73a1.14,1.14,0,0,0,1.66.68l4.13,1.38a1.19,1.19,0,0,0,2.15.28c1.47-2.2,2.54,1.52,4,2.22a1.23,1.23,0,0,0,1.67-.44l2.31,1a1.27,1.27,0,0,0,1.85.75l4.43,1a1.32,1.32,0,0,0,2.25,0l2.78-.28A1.35,1.35,0,0,0,365,400.8c1.54-.55,2.17-1.58,2.07,1.74-.06,1.74,2.59,1.72,2.69,0s.44-4.88-1.49-5.8c-1.77-.84-2.54.95-4,1.48l1.69,1.29c-.56-4.82-5.44-4.85-7.7-1h2.25a5.25,5.25,0,0,0-8-1.82l1.85.75c-.87-3.42-5.07-5.7-6.85-1.52l1.67-.44c-1.6-.77-1.34-3.25-3.32-3.74s-3,1.1-3.9,2.44l2.15.28c-1.2-3.24-4.5-4.59-7.54-2.71l1.67.67c-.76-4.15-5.24-5-7.3-1.31l1.83.5c-.32-4.36-5.28-4.06-5.74.15-.09.77,1.14.91,1.33.18Z"/><path class="cls-2" d="M407,387c-.08,0-5.1-1.84-3.39-3,1-.67.75-2.54-.65-2.43l-1.92-1.81c.91-.91,0-2.69-1.3-2.24l-1.66-.82c.58-.92-.41-2.41-1.52-2-1.36-1.29-1.4-2.33-.14-3.12a1.32,1.32,0,0,0-1.87-1.87c-1.53,1.46-3.47,3.69-2.22,5.94a4,4,0,0,0,4.94,1.64l-1.51-2c-2.12,3.38,1.46,5.88,4.69,4.75l-1.3-2.23c-3.13,3.15,0,6.67,3.81,6.31l-.66-2.43c-1.46,1.06-2.25,2.63-1.29,4.4,1.11,2,3.69,2.44,5.76,2.62,1.08.09,1.07-1.39.23-1.73Z"/><path class="cls-2" d="M401.54,374.55c2.07,1.11,2.7,2.64,1.87,4.61a1.19,1.19,0,0,0,.83,1.46c2,.28,5.39,1.71,3.84,4.54a1.31,1.31,0,0,0,1.11,1.94q3.35-.12,3.4,3.46a1.39,1.39,0,0,0,1.33,1.73l.43.28c-.91,1.26,1.19,2.9,2.17,1.68,1.85-2.32.11-4.58-2.6-4.7l1.32,1.73c1.37-4-2.48-6.59-6.05-6.76l1.11,1.94c2.24-4.28-1.66-7.7-5.74-8.18l1.15,1.51c1.06-3.14-.73-5.47-3.58-6.63-.84-.34-1.27.94-.59,1.39Z"/><path class="cls-2" d="M329,389.29a3.71,3.71,0,0,0-1.87.69,4.32,4.32,0,0,0-1.33,1.58.9.9,0,0,0,.76,1.33,2.05,2.05,0,0,0,1.71-.91,4.2,4.2,0,0,1,.39-.54s.16-.06.15,0h0a.59.59,0,0,1-.31-.65.94.94,0,0,0,1.81.5c.43-1.17-.83-1.86-1.82-1.71a2,2,0,0,0-1.23.7c-.13.16-.49.87-.72.87l.85,1.12a3.58,3.58,0,0,1,1.9-1.79.63.63,0,0,0-.31-1.16Z"/><path class="cls-2" d="M329.77,391.94c-.52.2-1,.47-1.52.64,0,0-.15,0-.13,0v0c.23,0,.1.19-.39.53l-1.2-2.07a11.52,11.52,0,0,0-1.89,2.37c-.43,1,.52,2.3,1.59,1.59a10.79,10.79,0,0,0,2-2.21c.71-.86.07-2.5-1.21-2.06a2.13,2.13,0,0,0-.72,3.56c1.32,1.4,3.49.27,4.38-1.06a.86.86,0,0,0-1-1.24Z"/><path class="cls-2" d="M382.29,394.52l.17.1,0,0a1.14,1.14,0,0,0,.11.11c.15.15-.08-.11,0,.06s.2.23.3.35c-.1-.12,0,0,0,.06s.1.2,0,.06a.73.73,0,1,0,1.4-.39,2,2,0,0,0-.7-1.15,2.49,2.49,0,0,0-1.12-.38c-.62-.08-.84.89-.31,1.15Z"/><path class="cls-2" d="M383.49,394.3a2.52,2.52,0,0,0-.67.16l-.63.27a.74.74,0,0,0-.31.95.76.76,0,0,0,.89.44c.21-.05.42-.09.62-.15a4.56,4.56,0,0,0,.67-.32.73.73,0,0,0,.3-.92.75.75,0,0,0-.87-.43Z"/><path class="cls-2" d="M389.44,395.61c.45-.46,1-.31,1.56-.48a.82.82,0,0,0,.19-1.48c-1.07-.55-2.24.24-2.84,1.12-.45.66.54,1.38,1.09.84Z"/><path class="cls-2" d="M396.28,392.75c.25-.2,1.53-1.67,1.9-.89.6,1.29,2.28.29,2.11-.89-.07-.46.61-.59.91-.48a1.21,1.21,0,0,0,1.47-.84c.17-.92.11-1.31,1-1a1,1,0,0,0,1.29-1v-.26a1.21,1.21,0,0,0-.6-1c-2.13-1.21-3.65.73-4,2.68l1.47-.83a2.92,2.92,0,0,0-3.77,3.4l2.11-.89c-1.38-2.72-4.55-.92-5.34,1.22-.34.9.85,1.33,1.45.84Z"/><path class="cls-2" d="M401.53,393.19c-2.34.31-3.59,2.92-3.54,5.07a1.05,1.05,0,0,0,2.06.27,8.11,8.11,0,0,1,.93-2.16c.28-.44.91-1.4,1.3-1.55,2.28-.91-.3-3.71-1.42-1.84-.48.81-1.28,1.45-1.77,2.29A10.05,10.05,0,0,0,398,398l2.05.28c-.1-1.73.89-2.68,1.93-3.89.34-.39.17-1.27-.48-1.18Z"/><path class="cls-2" d="M371.63,405.38c-1.64,3.11.13,7,3.05,8.65,3.51,2,7.79.66,10.5-2,1.29-1.27-.59-3-1.93-1.93-2.26,1.78-7.19,1.79-8.29-1.59-1-3.13,2.47-5.76,4.81-7.06,1.45-.8.42-2.84-1.07-2.55-7.35,1.42-8.19,11-2.88,15.27a1.31,1.31,0,0,0,1.85-1.85c-1.6-1.77-2.9-3.75-2.55-6.25a5.18,5.18,0,0,1,4.32-4.48L378.36,399c-4,2.21-8.55,6.84-5.46,11.51,2.84,4.31,8.47,4.54,12.28,1.48l-1.93-1.93c-4.21,4.27-10.47,1.84-10-4.24a.9.9,0,0,0-1.66-.45Z"/><path class="cls-2" d="M380,401.77q-.19-.12.12,0l.32.06.49.15a1.87,1.87,0,0,1,.82.54l1.82-1.4a4.27,4.27,0,0,0-2.08-1.34,2.72,2.72,0,0,0-2.42-.09,1.1,1.1,0,0,0-.22,1.7,3.71,3.71,0,0,0,1.78.77,14.25,14.25,0,0,0,1.63.66,1.16,1.16,0,0,0,.89-2.12,3.78,3.78,0,0,0-1.78-.66,2.93,2.93,0,0,0-1.71.45.68.68,0,0,0,.34,1.25Z"/><path class="cls-2" d="M379.93,404.77c.53-.12.82,0,.88.39l-.14.49a1.4,1.4,0,0,1-1.07-.07,3.15,3.15,0,0,1-.22.29,4.49,4.49,0,0,0-.53.76l1.27-.52c.64.17.16.83-.3.65.07,0,0-.08,0-.09l-.25,0,.61.17c.15.11-.07-.33.05-.29s0,.1,0,.11c-.48.07-.12,0-.12.1a.63.63,0,0,1,.17-.49c.13-.05.12-.05,0,0,.14,0,.13,0,0,0,.28.1.05-.15.2.09,0-.05.38.58.15.46-.07,0,.32-.24.3-.23s.34-.19.35-.14a.75.75,0,0,1-.73-.7c0-.12,0-.1,0,.07a3.1,3.1,0,0,1-.5.63c-.11.09-.3.15-.39.26-.21.26-.22-.2.09.12l.34,1.29a2.26,2.26,0,0,1,.42-.85c.35-.39.08.08,0,0l-.06-.06a.55.55,0,0,1-.14-.42c0-.1,0-.14.07-.12-.14.09-.17.1-.07.05-.05,0-.24,0-.15,0-.24-.07-.21,0-.35-.14.07.05-.07-.06-.08-.07s-.07-.11.06-.28.44-.29.41-.22-.23-.37-.1-.34-.37.34-.31.31a2,2,0,0,1-1.26.26l1.16,2a2.17,2.17,0,0,1,1.57-1.4l-1.53-.63c-.08-.15,0-.19.12-.3a1.38,1.38,0,0,0-.48,1.82,1.35,1.35,0,0,0,1.81.47,2.41,2.41,0,0,0,.9-3.36,1.39,1.39,0,0,0-1.54-.62,4.9,4.9,0,0,0-3.31,3c-.36.86.53,1.66,1.3,1.7,2,.11,4.78-1.42,4.16-3.78a2.61,2.61,0,0,0-2.55-1.82,3.23,3.23,0,0,0-2.61,1.49,2.94,2.94,0,0,0,1.85,4.45,3,3,0,0,0,2.73-.62,2.35,2.35,0,0,0,.52-3,2.55,2.55,0,0,0-3-.9,3.85,3.85,0,0,0-2.08,2.64,1.34,1.34,0,0,0,.34,1.29c2.55,2.6,7.37-2.73,4.45-4.58-1.34-.84-3.38.23-4,1.53a2.27,2.27,0,1,0,4.32.54,2.54,2.54,0,0,0-3.58-1.65,2.64,2.64,0,0,0-.78,3.64,1.82,1.82,0,0,0,2.06.88,2.61,2.61,0,0,0,1.75-1.33c.88-1.7-.95-4-2.79-3a2,2,0,0,0,.38,3.58,1.15,1.15,0,0,0,1.27-.52c.41-.91,1.29-1.59.94-2.72a1.61,1.61,0,0,0-2.05-1,1.27,1.27,0,0,0-.52,2,1.15,1.15,0,0,0,1.88-.16c.32-.69-.36-1.59-1.12-1.12Z"/><path class="cls-2" d="M368.53,412.58V413a.65.65,0,0,0,.67.66.67.67,0,0,0,.66-.66l0-.38a.72.72,0,0,0-.2-.48.77.77,0,0,0-.48-.2.7.7,0,0,0-.48.2.67.67,0,0,0-.2.48Z"/><path class="cls-2" d="M331.56,393.6l.23.2a.93.93,0,0,0,1.16.89l.28.26a1,1,0,0,0,1.71.71l1.27-1.2-1.61-.2.44,1.47a1.06,1.06,0,0,0,1.79.74l1.15-.9h-1.5l.95,1.12a1.07,1.07,0,0,0,1.3.17l.47.42c-.41,1.28,1.36,1.85,2.06.86l.29.12c-.52,1.42,1.72,2,2.24.62l-.1-.47a1.2,1.2,0,0,0,1.7,1.7l.59.07a1.24,1.24,0,0,0,2.42.33l.09.14,2.22,1.29,2.14-2.31-1.91-.78-.18,2,2.4.31-.4.4,2.47,1,.72-1.19,2.31,1.35-.41.85,2.55,1.08.15,1h2.78l.44-1L366,405.9l.32-.85,2.56,1.06-1.36.56,2.51.66a7.35,7.35,0,0,1-.22-4.83,1.51,1.51,0,0,0-2.5-1.46L360,402.77l1.5,1.5,2.32-2.93-2.06-2c-1.5,2.72-3,2.64-5.32,3.85l-2.2-1.69,0,.07c.45-1.34-1.1-2.22-2.2-1.69l-2.93-1.46a1.52,1.52,0,0,0-2.2-.9l-.05-.2-2.18-1.67q-2.13,5.29-4.6.11l-2.67-1.12.66.66L335.92,394l-1-1a1.47,1.47,0,0,0-1.85-1.41l-2.14-.21v2.53h.58l-.87-2.14.3-.26c-1.4-.11-2.05,2.13-.74,2.72,9.36,4.2,21.43,12,32.05,8.38a1.43,1.43,0,0,0,.62-2.36c-1.94-2.18-4.45-1.75-7.21-2.21a39.16,39.16,0,0,1-12.4-4.43L341.8,396l2.36,2.23,1.25-2.17-3.72-1.69-1.41,2.42c6.29,2,11.23,5.88,16.5,9.66,3.54,2.54,7.2,3.06,10.92.46a1.5,1.5,0,0,0,.65-1.58c-.38-2.5.74-4.12-2.1-5.21a1.42,1.42,0,0,0-1.38.37l-.67.54c-1.22,1,.15,2.61,1.4,2.4s2.39-.41,3.58-.63l-1.79-1.79-.7,1.93c-.46,1.25,1.1,2.22,2.13,1.64l2.68-1.48-2.14-.87,0,1.06c-.24,1.26,1.46,2.69,2.44,1.42l2.37-3.06-2.3-1.77a8.77,8.77,0,0,0-1.92,5.84c0,1.6,2.59,2.06,2.88.39l.3-1.75c.32-1.84-2.51-2.63-2.83-.78l-.3,1.75,2.88.39a5.42,5.42,0,0,1,1.52-4.36c1.14-1.5-1.4-2.94-2.53-1.48L369.53,403l2.67,1.12a5.13,5.13,0,0,0,0-2.61,1.46,1.46,0,0,0-2.14-.87l-2.67,1.48,2.13,1.64.7-1.92c.42-1.14-.8-2-1.79-1.79-1.19.21-2.38.43-3.56.66l1.39,2.4c-1,.88-.74,1.92-.58,3l.64-1.57c-5.1,3.54-10.07-2.14-14.09-4.91a41.53,41.53,0,0,0-11.15-5.6,1.46,1.46,0,0,0-1.41,2.43,9.05,9.05,0,0,0,5.77,2.53c1.18.12,1.66-1.29,1.24-2.17a6.06,6.06,0,0,0-3.75-3.41c-1.51-.63-2.51,1.86-1.1,2.63a42.57,42.57,0,0,0,8.95,3.74c2.18.62,8.56.66,10.12,2.42l.62-2.36c-9.76,3.26-21.2-4.27-29.83-8.18l-.73,2.72.62.05a1.46,1.46,0,0,0,1.26-.72l.34-.52a1.47,1.47,0,0,0-.87-2.14,2.59,2.59,0,0,0-2.83.28,1.48,1.48,0,0,0,0,2.53,4.9,4.9,0,0,0,4.39.51L332,393c-.39,5.24,6.81,6.42,6.89,1a1.49,1.49,0,0,0-2.22-1.28c-4.6,3.45,2.36,7.87,3.65,2.66a1.47,1.47,0,0,0-2.67-1.12c-2.34,3.08.34,6.23,3.6,6.79,2.76.48,9-1.83,5.68-5.51-1.7-1.88-5.26-.58-4.46,2.2,1.06,3.65,4.48.68,5.16-1.34.44-1.32-1.1-2.18-2.18-1.67-4.52,2.16-1.19,8.1,3.06,5.35l-2.2-.89c.94,3.47,4.16,4.77,7.34,3.25l-2.21-1.7c-1.51,4.58,4.88,6.27,5.74,1.52a1.52,1.52,0,0,0-2.2-1.69,2.91,2.91,0,0,0,.35,5.45c3.7,1.39,7.5-2.35,9.07-5.2a1.51,1.51,0,0,0-2.05-2.05c-2.55,1.14-3.52,2.82-3.8,5.52a1.5,1.5,0,0,0,1.5,1.5c6.94-.46,3.75-8,.46-5.49a3,3,0,0,0-.06,4.57c2.62,2.51,6.81,0,9-1.69L367,401.7a12.48,12.48,0,0,0,.22,6.42,1.51,1.51,0,0,0,2.5.67c1.5-1.79,4-6.64.41-7.88-2.92-1-4.15,3.11-4.17,5.2a1.52,1.52,0,0,0,2.56,1.06c5-4.22-5.84-9.5-5.44-1.27a1.52,1.52,0,0,0,2.26,1.3c2.15-1.51,2.81-5-.33-6-3.45-1.1-5.09,2.42-4.41,5.2a1.46,1.46,0,0,0,2.78,0c.65-2,1.53-5.57-1.26-6.4-2.61-.77-3.9,1.93-4.36,3.93-.34,1.47,1.82,2.56,2.55,1.07.93-1.91,2.38-5.55-.62-6.45-2.37-.71-3.56,1.52-4,3.45a1.39,1.39,0,0,0,2.31,1.35c3.29-3.33-3.11-7.19-5.29-1.49-.57,1.5,1.67,2.26,2.48,1.05,3.66-5.52-6.46-6.59-4.47-1.07a1.33,1.33,0,0,0,2.39.32,3.87,3.87,0,0,0,.43-4,1.33,1.33,0,0,0-1.92-.78,6.71,6.71,0,0,0-3,3.27,1.28,1.28,0,0,0,2.22,1.29c2.52-4-3.34-6.59-4.69-2.09h2.38c-.38-2.76-2.85-3.31-4.71-1.44l1.7,1.7c2.88-3-2.31-6.1-3.84-1.85l2.24.62c1.18-3.45-2.67-4.57-4.47-1.87l2.05.87c1.16-3.85-2-2.27-3.39-3.81a1.09,1.09,0,0,0-1.5,0l-1.13.93,1.78.73a2.72,2.72,0,0,0-.76-2.5,1,1,0,0,0-1.61-.21l-1.24,1.22,1.71.71c0-2.1-1.81-2.48-3-2.93-.92-.35-1.56,1.16-.67,1.58Z"/><path class="cls-2" d="M413.85,386.5a1.08,1.08,0,0,0,0-2.15,1.08,1.08,0,0,0,0,2.15Z"/><path class="cls-2" d="M411.64,386l.06.85,1-1a2.78,2.78,0,0,1-1.45-.26c-1.3-.47-1.93,1.42-.89,2.12.55-.43.44-.68-.32-.76l-.78-.3a3.19,3.19,0,0,0-1.44-.06c-.55.12-2.34,2-2.48,2V391a8.91,8.91,0,0,1,6.29-.11l-.3-2.33-1.31.07-.91,2.19a12.47,12.47,0,0,1,4.73,1.2l-.26-2.05h.18l-1.28,2.2a3.9,3.9,0,0,1,2.54,1.3l1.6-2.08a5.4,5.4,0,0,1-2.05-2.5l-2.19,1.69a1.46,1.46,0,0,1,.26.73,1.22,1.22,0,0,0,2.21.28,2.28,2.28,0,0,0-.5-3c-1.14-1.24-2.8.34-2.18,1.69a7,7,0,0,0,3.11,3.37,1.33,1.33,0,0,0,1.61-2.08,6.08,6.08,0,0,0-3.71-2,1.32,1.32,0,0,0-1.28,2.19,2.34,2.34,0,0,0,3.53,0,1.32,1.32,0,0,0-.27-2.05,16,16,0,0,0-6.05-1.51,1.29,1.29,0,0,0-.9,2.19,3.43,3.43,0,0,0,4.4.32,1.29,1.29,0,0,0-.3-2.33,11.21,11.21,0,0,0-7.64.12,1.28,1.28,0,0,0,0,2.45c1.24.38,2-.14,2.87-1a6.17,6.17,0,0,0,.48-.66.79.79,0,0,1,1.28-.16c.52.08,1,.45,1.54.47,2.64.07,2.47-2.87.69-4l-.89,2.12a4.29,4.29,0,0,0,2.33,0,1,1,0,0,0,.71-1.24,2,2,0,0,0-.83-1.29.74.74,0,0,0-1.22.71Z"/><path class="cls-2" d="M398.2,391.45a12.79,12.79,0,0,0-3.61,2.85l1.88,1.09c.25-1.38,1.64-2.9,3.17-2.11l.68-2.51c-2,0-4.45-.41-5.8,1.48-.95,1.35-.93,3.42.68,4.25a1.43,1.43,0,0,0,1.91-.5,21.72,21.72,0,0,1,1.9-3.18,5.85,5.85,0,0,1,1-1.18c.44-.36.68-.28,1.21-.27A1.13,1.13,0,0,0,402.3,390c-.7-1.93-2.86-1.43-4.12-.36a15.89,15.89,0,0,0-3.48,5l1.91-.5c-.15,0-.15,0,0,.2a.52.52,0,0,1,.07-.32c.23-.16.21-.27.52-.4.89-.36,2.14,0,3.1-.1a1.36,1.36,0,0,0,.36-2.65c-2.79-1-6.55,1.1-6.41,4.28,0,1,1.55,1.61,2.08.56a8.87,8.87,0,0,1,2.57-3,.71.71,0,0,0-.72-1.23Z"/><path class="cls-2" d="M393.72,393.61c-3-1.15-5.66.6-6.84,3.39-.34.83.66,1.69,1.44,1.44a2.12,2.12,0,0,0,1.68-2.31,1.21,1.21,0,0,0-1.2-1.21,5.14,5.14,0,0,0-5.05,5.35,1.28,1.28,0,0,0,2.51.34c.5-1.34,1.26-3.59,3.27-3.19l-.58-2.23c-2.54,2.93-10.45-2.22-11.5,3.44a2,2,0,0,0,1.34,2.43,2.17,2.17,0,0,0,1.79-.36c.71-.34,3-3,4.09-2.33l-.66-1.15.63-.7a1.1,1.1,0,0,0-.66,1.62l.1.14a1.24,1.24,0,0,0,1.37.56l.25-.06a1.38,1.38,0,0,0,1-1.29v-.27a1.35,1.35,0,0,0-.67-1.16,3.8,3.8,0,0,0-3.44.08c-1,.37-2.74,2.22-3.61,2.19l1.19.68c-.41-.72,3.89-.07,4.37,0a9,9,0,0,0,2.38.12,5.48,5.48,0,0,0,3.92-2.07c.54-.68.51-2-.59-2.22-3.62-.57-5.31,2-6.44,5.08l2.5.34c-.08-1.63.75-2.61,2.5-2.94l-1.2-1.2.1.06,1.43,1.43c.72-1.92,2.5-2.63,4.4-2.58.87,0,.91-1.15.19-1.43Z"/><path class="cls-2" d="M378,418.84c-.11.09,1,.33,1.24.41a7.6,7.6,0,0,0,2.21.43c1.8,0,2.78-1.4,3-3.06l-2.2.89c3.57,2.26,6.92-2.11,4.37-5.23-1.22-1.49-3.33.64-2.12,2.12.54.66-.3.8-.74.52a1.51,1.51,0,0,0-2.2.9c-.1.73,0,.79-.38.85s-1.39-.4-1.87-.52a3.51,3.51,0,0,0-3.44.56c-1.46,1.27.67,3.39,2.12,2.13Z"/><path class="cls-2" d="M369.57,406.59c-3.94,1.11-3.38,6.61-.57,8.63,1.57,1.12,3.07-1.48,1.52-2.59-.76-.55-1.32-2.81-.15-3.14a1.51,1.51,0,0,0-.8-2.9Z"/><path class="cls-2" d="M387.09,410.84c-3.85,2.34-.49,7,3.23,6.35l-1.47-.84a2.2,2.2,0,0,0,2.15,1.83,3.53,3.53,0,0,0,1.75-.38,3.58,3.58,0,0,1,2.62-.59c3,.33,6.43-2.95,6.51-5.95a1.11,1.11,0,0,0-1.66-.95c-1.87,1.3-2.39,4-4.94,4.09-.64,0-1-.23-1.75,0a16.68,16.68,0,0,0-2.37,1.34,1.22,1.22,0,0,0-1.48-.84c-2.18-.71-2.72-1.74-1.64-3.09a.7.7,0,0,0-1-.94Z"/><path class="cls-2" d="M376.21,418.25a4,4,0,0,0,3.06-1.43l-2.5-.66a2.07,2.07,0,0,1,.28,1.07,1.5,1.5,0,0,0,2.25,1.29c1.81-1.11,3.6-.45,4.86-2.55a1.51,1.51,0,0,0-1.69-2.2c-.89.24-1.77.54-2.66.79A18.14,18.14,0,0,1,378,415c-.77.11-1.11-.22-.86.7s.42.53,1.22.5a12.17,12.17,0,0,1,1.71.1,20,20,0,0,1,2.43.45,1.52,1.52,0,0,0,1.9-1.45A5.43,5.43,0,0,1,385.9,412l-2.51-.66a1.55,1.55,0,0,1,0,1c-.47,1.61,1.94,2.69,2.74,1.16l1.09-2.1-2.74-.36.82,2.15,2.74-1.16,0-1.37c.68-1.82-2.22-2.6-2.89-.8a4.15,4.15,0,0,0,.32,3.69c.77,1.48,3.35.45,2.74-1.16l-.82-2.14a1.52,1.52,0,0,0-2.74-.36L383.56,412l2.74,1.16a5.06,5.06,0,0,0,0-2.62,1.51,1.51,0,0,0-2.5-.66,8.93,8.93,0,0,0-2.34,5.37l1.9-1.44c-2.24-.56-8.59-1.94-8.82,1.84-.27,4.3,6.81,1.52,8.74,1l-1.69-2.2c-.55.92-2.82.88-3.78,1.47l2.26,1.3a3.44,3.44,0,0,0-.39-1.87,1.52,1.52,0,0,0-2.51-.66l-.94.55c-1.92.12-1.93,3.12,0,3Z"/><path class="cls-2" d="M370.73,415.45a2.37,2.37,0,0,1,2.71,1.22c1,1.62,3.64.12,2.59-1.51a5.44,5.44,0,0,0-6.1-2.6,1.5,1.5,0,0,0,.8,2.89Z"/><path class="cls-2" d="M372.58,413.38a9.63,9.63,0,0,0-3.59-2.77,1.49,1.49,0,0,0-1.69.68,2.43,2.43,0,0,0-.21,2.1,1.52,1.52,0,0,0,2.51.66c.33-.35.72-.65,1-1l-2.36-1.82a3,3,0,0,0,0,3.5,1.54,1.54,0,0,0,2.05.54,1.51,1.51,0,0,0,.54-2.05c.11.15-.2-.32-.16-.11,0-.1.12-.26.19-.37.94-1.4-1.22-3.09-2.35-1.81-.32.36-.71.66-1,1l2.5.66c-.1-.33-.13-.25-.09.22l-1.69.69a7.53,7.53,0,0,1,2.26,2c1.32,1.41,3.44-.72,2.12-2.12Z"/><path class="cls-2" d="M374.46,414.27l-1.61-2a1.51,1.51,0,0,0-2.56,1.06,3.41,3.41,0,0,0,2,2.94,3.37,3.37,0,0,0,3.55-.6l-2.12-2.12s-.3.33-.2.24.05,0,0-.05.25,0,0,0a4,4,0,0,0-.49,0,1.5,1.5,0,1,0,0,3,3.42,3.42,0,0,0,2.81-1.08,1.5,1.5,0,0,0-2.12-2.12c.09-.07.1-.08,0,0s-.08,0,0,0-.23.05,0,0c-.08,0-.44,0-.13,0,0,0-.37-.12-.2-.05s-.16-.1-.17-.11c.21.15-.05-.11,0,0l-.11-.19c.12.26,0-.23,0,.08l-2.56,1.06,1.61,2a1.52,1.52,0,0,0,2.12,0,1.54,1.54,0,0,0,0-2.12Z"/><path class="cls-2" d="M371.05,408.72a8.41,8.41,0,0,0-.95,6.09,1.53,1.53,0,0,0,2.21.9,5.73,5.73,0,0,0,1.68-.95l-2.36-.3a2,2,0,0,1,.37.85c.2,1.9,3.2,1.92,3,0a5.41,5.41,0,0,0-.78-2.37,1.51,1.51,0,0,0-2.35-.3,4.39,4.39,0,0,1-1.08.48L373,414a5.22,5.22,0,0,1,.64-3.78,1.5,1.5,0,0,0-2.59-1.51Z"/><path class="cls-2" d="M385.24,407.76a5.48,5.48,0,0,1-.83,3.77l1.61-.21a1.79,1.79,0,0,1-.81-1.23,1.14,1.14,0,0,0-2.28,0,4.79,4.79,0,0,1-.39,1.71l2.29.63a4.43,4.43,0,0,1,.58-1.34l-1.65.43a.57.57,0,0,1,.07.22c.22,1.11,1.64.83,2,0a1.78,1.78,0,0,0-.59-2.12,1.23,1.23,0,0,0-1.9.25,5.34,5.34,0,0,0-.78,1.93,1.19,1.19,0,0,0,2.29.63,7.17,7.17,0,0,0,.38-2.34h-2.28a3.34,3.34,0,0,0,1.85,2.85,1.05,1.05,0,0,0,1.51-.62,7.81,7.81,0,0,0,.23-4.73c-.2-.69-1.35-.59-1.28.17Z"/><path class="cls-2" d="M398,397.25c3,4.48,5.79,9.49,2.65,14.74-.65,1.08.92,2.37,1.79,1.38,3.76-4.31,1.73-9.38-1.45-13.36-.85-1.07-2.73.36-1.91,1.48a29.31,29.31,0,0,1,4.46,9,1.23,1.23,0,0,0,1.14.86c5.67.59,10.81-.79,13.9-5.91l-2.11-.89a5.71,5.71,0,0,1-1.95,3.71l1.65,1.64a21.76,21.76,0,0,0,4-7c.44-1.29-1.49-2-2.16-.91-2.72,4.54-6.6,6.7-11.61,8-1.23.31-1,2.38.3,2.26,5.69-.53,10.5-4.19,13.35-9l-2.16-.92a18.18,18.18,0,0,1-3.36,6c-.94,1.13.6,2.75,1.65,1.64a9,9,0,0,0,2.52-4.73,1.16,1.16,0,0,0-2.11-.89c-2.68,4.5-7.1,5.26-11.9,4.72l1.13.86a31.4,31.4,0,0,0-4.63-9.61l-1.91,1.48c2.21,2.82,4.32,6.74,1.56,10l1.78,1.38c3.18-5.54,1.27-12.72-3.47-16.77-.59-.51-1.63.14-1.14.88Z"/><path class="cls-2" d="M371.68,413.93c.07-.21-.22.31-.27.39-.57,1-.16.37,0,.24a2.29,2.29,0,0,0-.8,3,2.62,2.62,0,0,0,3.69,1,3,3,0,0,0,1.32-3.75,3.52,3.52,0,0,0-3.48-2,10,10,0,0,0-1.08.14l-.33.06c.25,0,.29,0,.11,0-.34.07-.36.06,0,.09.16.08.14.07,0-.05a1.21,1.21,0,0,1-.3-.2,2.22,2.22,0,0,0-2.5.18,2.26,2.26,0,0,0-.8,2.36,3.29,3.29,0,0,0,3.53,2.34c.57,0,1.12-.21,1.68-.26-.24,0-.22,0,.06,0l-.2,0q-.19-3.56-.93-2.28a1.74,1.74,0,0,1,.85-.69h1.2l.33.14.81.8-.08-.12-.35,2.7c1.4-1.36,1.78-4.05-.32-5a1.49,1.49,0,0,0-2.14.87Z"/><path class="cls-2" d="M297.93,465.53c2.23,15.18,7.13,30.26,10.78,45.15,3.69,15.07,7.31,30.16,11,45.23,7.4,30.3,13.61,60.77,17.36,91.76.69,5.68,9.7,5.75,9,0a720.94,720.94,0,0,0-17.53-92.39q-5.75-22.44-11.64-44.85c-4-15.41-7.17-31.69-12.87-46.58a3.17,3.17,0,0,0-6.1,1.68Z"/><path class="cls-2" d="M304.91,472.64c1.09-3.1.43-7,.17-10.19-.28-3.52-.57-6.72-2.77-9.55-1.89-2.42-5.87-.85-6.58,1.74-.88,3.17.25,6.43.9,9.58s.74,6.42,2.19,9.22,5.19,1.73,6.09-.8Z"/><path class="cls-2" d="M290,466.43c.77,3.6,2.94,6.86,4.46,10.19A104,104,0,0,1,299,488l9.6-4q-4.21-8.84-8.49-17.63c-3-6.19-11.71-.77-9.09,5.31a438.27,438.27,0,0,1,20.95,61.85c2.61,9.9,5,19.87,7.45,29.81,2.59,10.43,4.58,21.62,9,31.47,1.84,4.12,8.77,2.05,8.48-2.3-.7-10.45-4.12-21-6.63-31.16-2.62-10.55-5.14-21.14-7.93-31.66a473.62,473.62,0,0,0-21.66-62.07L291,471.65q4.22,8.84,8.51,17.62c2.59,5.33,11.47,1.6,9.6-4-2.44-7.36-5.73-17.89-12-22.89-3.25-2.59-8-.25-7,4.1Z"/><path class="cls-2" d="M434,385.56c4.88,13.23,20.43,20.92,30.89,29.13,13.36,10.49,22.33,24.69,30.68,39.24,4.19,7.31,8.51,14.59,12.07,22.23,3.85,8.24,5.18,17.22,8.83,25.46,1.6,3.6,3.68,6.94,5.55,10.4,2.31,4.28,3.6,8.67,5.11,13.26,2.71,8.21,7.42,15.32,12.33,22.37,1.91,2.75,6.44.16,4.53-2.65-5.29-7.76-9.77-15.32-12.5-24.35-2.48-8.2-7.51-14.83-10.64-22.7-3.22-8.1-4.75-16.57-8.49-24.55-3.58-7.64-7.95-14.88-12.26-22.11-8.22-13.76-17-27.69-29.54-38-5.67-4.67-11.91-8.54-17.86-12.83-6.56-4.73-11.59-10-17-15.91a1,1,0,0,0-1.72,1Z"/><path class="cls-2" d="M541.5,547.07c-.22.07-.45.13-.67.22l-.07,0h.07a1.73,1.73,0,0,0-.43.12.91.91,0,0,0-.44.61.77.77,0,0,0,.35.86,1,1,0,0,0,.64.13.84.84,0,0,0,.41-.17c.28-.22-.12.07.1-.09l.59-.41a.72.72,0,0,0,.3-.89.71.71,0,0,0-.85-.41Z"/><path class="cls-2" d="M541.61,548.77c2.3,0,4.53.36,5.85,2.48l1.88-1.45c-1.7-1.85-4.5-3.68-7.13-3.47a1.14,1.14,0,0,0-.3,2.23,24.38,24.38,0,0,1,3.11,1,9.51,9.51,0,0,1,2.63,2c.92,1,2.64-.3,1.88-1.46-1.68-2.55-5.42-4.46-8.31-2.69a.77.77,0,0,0,.39,1.42Z"/><path class="cls-2" d="M549.31,551.6c1.18-2.92,1.76-6,2.81-9,1.17-3.3,2.92-6.47,3.67-9.88a1.07,1.07,0,0,0-1.95-.82,50.68,50.68,0,0,0-6,19.51c-.06.89,1.17.9,1.45.19Z"/><path class="cls-2" d="M604.13,541.61c-1.45,3.72-1.67,7.84-2.54,11.72-1.4,6.2-3.46,12.21-4.87,18.41a180.86,180.86,0,0,1-15.49,42c-3.16,6.22-6.4,12.42-9.83,18.49-3.15,5.54-7.08,11.76-13.44,13.93-9.92,3.38-22.24-4-30.73-8.51-1.68-.9-3.16,1.62-1.49,2.55,8.57,4.74,19.87,11,30,9.48,13-1.91,18.87-17.15,24.15-27.28,7.44-14.27,14.45-28.93,18-44.7,2.65-11.74,7.05-23.81,7.57-36,0-.83-1.09-.86-1.36-.18Z"/><path class="cls-2" d="M569.16,454.32c-2.83-6.33-7.62-11.13-11.47-16.8-4.82-7.09-5.36-14.78-3.53-23,.42-1.88-2.47-2.69-2.89-.8-1.58,7.06-1.82,14.32,1.33,21,3.63,7.7,10.47,13.26,14,21.08.78,1.76,3.37.23,2.59-1.51Z"/><path class="cls-2" d="M608.81,458.64a80.73,80.73,0,0,1,3.32-8.7,26.5,26.5,0,0,1,6.71-7.25c1.08-.81,0-2.66-1.08-1.84-5.26,3.87-11.2,11.32-10.66,18.3a.92.92,0,0,0,.45.78,1.37,1.37,0,0,0,1.6,0,.69.69,0,0,0-.34-1.27Z"/><path class="cls-2" d="M553.89,415.32c1.83-4.54,3.93-9,6.07-13.37.81-1.65,3.68-7.72,5.6-4.83s1.24,8.95,1,12.39c-.11,1.93,2.89,1.92,3,0,.24-4.1,1.19-13.65-3.31-16-2.67-1.4-5.39,1.29-6.82,3.26-3.72,5.13-6.12,11.91-8.47,17.75-.72,1.79,2.18,2.57,2.89.8Z"/><path class="cls-2" d="M569.77,410.13a15.55,15.55,0,0,1,.46-3.66l-3-.4a26.29,26.29,0,0,0,.22,3.54,1.55,1.55,0,0,0,1.5,1.5c.73,0,1.61-.69,1.5-1.5a26.29,26.29,0,0,1-.22-3.54,1.5,1.5,0,0,0-2.94-.4,18.67,18.67,0,0,0-.57,4.46,1.5,1.5,0,0,0,3,0Z"/><path class="cls-2" d="M568.76,419.3c-.4,2,.56,3.58,1.93,5,2.35,2.45,5,4.67,7.6,6.92.32.28.8-.18.48-.48-1.67-1.57-3.37-3.12-5.07-4.66-1.85-1.68-4.84-3.7-4.35-6.61.07-.39-.51-.56-.59-.17Z"/><path class="cls-2" d="M569.27,408.45a34.71,34.71,0,0,0,.21,11.28c.07.44.77.33.75-.1-.09-3.66-.18-7.33-.28-11a.39.39,0,0,0-.77-.11,26.34,26.34,0,0,0,1.7,17.31c.21.45,1,.12.81-.34A33.63,33.63,0,0,1,569.28,410c0-.44-.59-.47-.72-.1-1.3,3.59-.55,7.33.22,11l1-.27a37.11,37.11,0,0,1-1-11.6.57.57,0,0,0-1.11-.15c-.84,4.3.21,8.25,1.52,12.36a.58.58,0,0,0,1.11-.31,35.94,35.94,0,0,1,.05-10.61l-1.09-.3c-.83,5.64-1.44,12.22,3.65,16.06.45.35,1-.4.6-.78-4.44-4-4-9.59-3.16-15,.11-.71-1-1-1.09-.3a38.36,38.36,0,0,0-.07,11.22l1.11-.31c-1.23-3.86-2.33-7.66-1.54-11.75l-1.11-.15a36.8,36.8,0,0,0,1.14,11.87.51.51,0,0,0,1-.27c-.79-3.59-1.26-6.84-.5-10.5l-.71-.09a36.3,36.3,0,0,0,2.29,15.75l.81-.34a26.34,26.34,0,0,1-1.71-16.65l-.77-.1c.1,3.66.19,7.33.29,11l.76-.1a38.94,38.94,0,0,1-.34-11c0-.35-.56-.43-.61-.09Z"/><path class="cls-2" d="M595.7,368.87a21.35,21.35,0,0,0-7.13,11.4c-1,3.85-2.29,10.55-.84,14.34,3,8,10.82-5.31,12.53-7.9.64-1-.92-1.88-1.56-.91-1.62,2.47-2.89,5.48-5.07,7.53-4.81,4.55-4.44-2.57-4.32-5.43.26-6.8,2.23-13.32,7.66-17.75.9-.74-.38-2-1.27-1.28Z"/><path class="cls-2" d="M595.06,371.53c4.25-5.56,10.57,1.42,9.54,6.54-.23,1.13,1.5,1.61,1.73.47,1.48-7.27-7.33-15.1-12.83-7.92-.7.92.86,1.81,1.56.91Z"/><path class="cls-2" d="M607.84,381.67c-3.1,1.64-4.35,5.45-5.76,8.47A45.8,45.8,0,0,0,598,402.26c-.5,3.24.22,11.12,5.31,7.3,3.46-2.6,5.94-7.42,8.55-10.83,2-2.6,6.55-6.6,7-10,.8-6-8.05-8-12.15-6.79a.9.9,0,0,0,.48,1.73c2.89-.83,8.07-.43,9.38,3.08,1,2.72-1.25,4.68-2.64,6.54l-8.7,11.64c-.8,1.09-1.61,2.17-2.44,3.23q-5.12-1.8-3.33-6.31a35.09,35.09,0,0,1,1.6-5.69c1.41-4,3.59-11.1,7.31-13.6a.49.49,0,0,0-.49-.85Z"/><path class="cls-2" d="M618.5,392.76a23.1,23.1,0,0,0-8.21,7.26c-1.68,2.3-4.58,6.36-3.63,9.44.72,2.34,3.19,2.59,5.12,1.54s3.27-2.59,5.07-3.65c1.17-.68,2.64-2,3.95-1.18s1.06,2.33,1.49,3.7c.24.77,1.54.68,1.47-.2-.12-1.68-.08-4.72-1.81-5.6-2.14-1.08-5.72,1.56-7.34,2.68-1.25.86-6,5.58-6.24.39-.08-1.42,1.71-3.81,2.44-5,2.21-3.5,5.17-6,8.32-8.58.49-.4-.13-1.07-.63-.83Z"/><path class="cls-2" d="M617.39,395.67c2-1,4.49-1.95,6.68-.7,2.8,1.6,2.66,5.1,2,7.68-.82,3.31-2.4,6.49-3.6,9.67-.38,1,1.21,1.42,1.6.44,1.93-4.83,6.17-12.06,2.84-17.16-2.32-3.54-7.25-3.39-10.1-.64-.38.37.1.93.55.71Z"/><path class="cls-2" d="M621.79,407.11c-.12.95-.5,7.31,2,5.68a1.67,1.67,0,0,0,.38-2.33,7.54,7.54,0,0,0-1.28-1.18,2.51,2.51,0,0,1-.74-2.66.68.68,0,0,0-1.31-.36,3.84,3.84,0,0,0,1,3.84c.21.2.46.36.69.54a.63.63,0,0,1,.46.72c-.07-.38-.13-.77-.18-1.16-.12-1-.15-2.06-.17-3.09a.44.44,0,0,0-.87,0Z"/><path class="cls-2" d="M470,342.5c12.81,12.23,27.47,22.88,41.18,34.1s27.51,22.67,41.33,33.93c1,.85,2.54-.63,1.49-1.49-14-11.51-28.21-22.9-42.28-34.38-13.53-11-26.69-23.09-41-33.06-.54-.38-1.17.46-.7.9Z"/><path class="cls-2" d="M511.11,298.25c6.23-1.21,12.14-.18,15.36,5.9,2.79,5.25,2,11.61,1.52,17.28-1.06,11.81-2.59,23.51-1,35.35.24,1.89,3.25,1.92,3,0a111.1,111.1,0,0,1,0-24.86c.65-7.06,2.11-14.45,1.31-21.55-1.31-11.64-9.81-17.17-21-15-1.89.36-1.09,3.25.8,2.89Z"/><path class="cls-2" d="M474.62,344.1c-6.28-8.79-.65-20.31,5.24-27.76,1.19-1.5-.92-3.64-2.12-2.12-6.69,8.45-12.84,21.42-5.72,31.39,1.12,1.56,3.72.06,2.6-1.51Z"/><path class="cls-2" d="M470.48,341.09a111.38,111.38,0,0,0,51.26,16.61,283,283,0,0,1,31.15,3.41c10.13,1.75,19.91,4.75,30,6.82a1.11,1.11,0,0,0,.59-2.14c-17.26-6.78-37.53-9.09-55.93-10.18-9.8-.59-19.16-1.21-28.58-4.22-9.6-3.07-18.58-7.32-27.7-11.56a.73.73,0,0,0-.74,1.26Z"/><path class="cls-2" d="M524,298.59c9.17,9.12,18.66,17.81,27.39,27.39a369.48,369.48,0,0,1,25.41,31.23c.81,1.11,2.68,0,1.86-1.09-15.36-21.19-33.22-42.28-54.06-58.31-.45-.34-1,.39-.6.78Z"/><path class="cls-2" d="M570.93,423.82a233,233,0,0,0,34.53,27.29c.89.58,1.63-.79.81-1.39-11.74-8.68-23.11-17.55-34.28-27-.73-.62-1.77.38-1.06,1.06Z"/><path class="cls-2" d="M606.56,448.63l-.46-.17-.2,1.52A59.09,59.09,0,0,0,630,431.62c1.87-2.47,6.25-6.61,5.44-9.92-.41-1.7-2.22-2.86-3.43-4-2.59-2.43-5.2-4.83-7.81-7.23-1.21-1.11-3,.66-1.81,1.81l5.56,5.38c.9.85,3.83,2.73,4.21,4,1,3.24-5,9.22-7,11.57-5.7,6.73-13,10.43-20.24,15.08a1,1,0,0,0,.23,1.77l.68.22a.83.83,0,0,0,.78-.21l.51-.48c.46-.45,0-1.06-.57-1Z"/><path class="cls-2" d="M600.32,386.53c.44.35.87.71,1.28,1.09a4.17,4.17,0,0,0,1.37,1.11.78.78,0,0,0,.95-1,3,3,0,0,0-1.15-1.44,11.06,11.06,0,0,0-1.45-1.1c-.77-.5-1.74.71-1,1.29Z"/><path class="cls-2" d="M583.07,367.48a31.09,31.09,0,0,1,3.78,4.08c1,1.32,1.67,2.86,2.7,4.12.51.63,1.49-.05,1.3-.75-.92-3.36-4.26-6.52-6.92-8.57-.64-.5-1.46.58-.86,1.12Z"/><path class="cls-2" d="M578.09,357.05c-2.43,1.28-1.11,5.14,0,6.95a5,5,0,0,0,3.33,2.22c1.39.36,2.75.2,4.07,1a6,6,0,0,1,2.66,5.3.53.53,0,0,0,1.05,0,6.61,6.61,0,0,0-3.14-6.27,9.11,9.11,0,0,0-3.62-1,4.85,4.85,0,0,1-4-2.83c-.68-1.37-1.38-3.69,0-4.95.25-.23-.07-.62-.36-.46Z"/><path class="cls-2" d="M579.34,357.26c5.41-3.45,11.06.24,11.25,6.4.12,4-.77,8.21-1.25,12.2-.1.84,1.22.84,1.32,0,.63-5.4,3.22-13.93-.9-18.56a7.79,7.79,0,0,0-10.85-.6c-.3.27.09.77.43.56Z"/><path class="cls-2" d="M605.61,377a21.05,21.05,0,0,1-.74,7.61l.77.1c0-2.7.05-5.41,0-8.11a.43.43,0,0,0-.86,0c0,2.7,0,5.41,0,8.11a.39.39,0,0,0,.77.11,18.37,18.37,0,0,0,.59-7.9c-.05-.35-.63-.27-.61.08Z"/><path class="cls-2" d="M600.27,386.83a15.44,15.44,0,0,1,3.08-4.81.51.51,0,0,0-.72-.72,40.14,40.14,0,0,0-4.35,4.95l.9.53q1.34-2.59,2.65-5.19l-.9-.52-1.72,3.76c-.21.48.41,1.1.8.61l2.68-3.38-.83-.35-.2.6c-.4.47.27,1.16.68.68a1.79,1.79,0,0,0,.49-1.28c0-.39-.56-.69-.83-.34l-2.71,3.36.79.61,1.75-3.75c.28-.6-.59-1.12-.9-.52q-1.33,2.58-2.65,5.18a.52.52,0,0,0,.9.53,38.52,38.52,0,0,1,4.17-4.76l-.72-.72a10.89,10.89,0,0,0-3,5.24c-.09.39.5.7.68.29Z"/><path class="cls-2" d="M617.05,395.53c2-2,5.08-3.16,7.76-1.59s3.24,4.84,2.48,7.55a.34.34,0,0,0,.61.26,6.64,6.64,0,0,0-2.47-8.87c-2.95-1.72-7.28-.85-9,2.18a.39.39,0,0,0,.61.47Z"/><path class="cls-2" d="M582.76,356.07c-2.34,1-7,2.14-6.68,5.59.26,2.83,3.42,3.52,5.69,3.78v-1.06c-1.15-.11-3-.37-3.91-1.16-2.12-1.84-2-3.18,0-4.8a14.21,14.21,0,0,1,5.43-2.32l-.47-1.09c-1.87,1-3.82,1.89-5.64,3-.56.34-1.42.64-1.73,1.3-.82,1.72,1.35,2.95,2.27,3.9l.83-.83-1.92-1.57a.59.59,0,0,0-.91.71,6,6,0,0,0,4.09,3.52c.6.18,1-.75.44-1-1.65-.78-2.27-.88-2-2.9s1-2.37,2.58-3.34c3.21-1.95,7.78-1.86,9.32,2.19s-.36,9.75-1.06,13.93c-.11.65.89.93,1,.27.94-5.46,4.92-18.11-4.15-19-3.14-.3-7.47,1.66-9.15,4.44-1.55,2.55.7,4.3,2.89,5.36l.43-1a4.56,4.56,0,0,1-3.39-3l-.91.7,1.91,1.58a.59.59,0,0,0,.83-.83,3.63,3.63,0,0,0-.83-.83c-1.15-1.55-.91-2.49.7-2.82,1.14-1.14,3.58-1.9,5-2.67A.6.6,0,0,0,583,355c-2.59.67-8,2.4-8.32,5.8-.33,3.15,4.83,4.4,7.08,4.69.59.07.74-1,.15-1.05a15.94,15.94,0,0,1-2.17-.4q-3-4.69.42-5.72c.88-.64,2.05-.92,3-1.54a.38.38,0,0,0-.38-.66Z"/><path class="cls-2" d="M579.11,364.71c1.83.9,3.84,1.28,5.6,2.36a9.34,9.34,0,0,1,3.6,4.37.54.54,0,0,0,1-.27c-.58-4.41-6.09-6.85-10-7.22a.41.41,0,0,0-.2.76Z"/><path class="cls-2" d="M568,398.1a82.29,82.29,0,0,0-.06,17.75l1.1-.15a37.68,37.68,0,0,1-1.35-11,.58.58,0,0,0-1.16,0,94.89,94.89,0,0,0,.37,11.8c.08.82,1.32.85,1.31,0L568,403.67a.69.69,0,0,0-1.37,0,52.42,52.42,0,0,0,2.52,18.73.69.69,0,0,0,1.32-.37,67,67,0,0,1-1.87-11.88.69.69,0,0,0-1.38,0,55.44,55.44,0,0,0,1.32,12.39c.2.91,1.59.53,1.39-.38-.54-2.47-1.06-4.93-1.53-7.41-.14-.73-1.3-.55-1.29.17a47.24,47.24,0,0,0,.61,6.83c.12.78,1.49.6,1.39-.19l-.77-6.31-1.45.2.53,3.58a.77.77,0,0,0,1.27.34,1.59,1.59,0,0,0,.5-1.49h-1.53a47.45,47.45,0,0,0,2.3,10.59c.32.95,1.83.54,1.51-.41a47.32,47.32,0,0,1-2.28-10.18c-.11-1-1.64-1-1.53,0l-.17.56,1.39.19-.56-3.57c-.13-.82-1.57-.64-1.46.19l.84,6.31,1.39-.19a51.85,51.85,0,0,1-.67-6.45l-1.28.18c.5,2.47,1,4.95,1.4,7.44l1.39-.38a53.33,53.33,0,0,1-1.33-12h-1.38a70.37,70.37,0,0,0,1.93,12.25l1.32-.37A52,52,0,0,1,568,403.67h-1.37l.24,12.86h1.31a113.37,113.37,0,0,1-.52-11.8h-1.16A41.63,41.63,0,0,0,567.94,416c.16.59,1.17.5,1.1-.15a110.74,110.74,0,0,1-.33-17.75c0-.48-.68-.46-.73,0Z"/><path class="cls-2" d="M546.29,544.14c-8.33-5.56-15.75,3.07-19.91,9.44-5.49,8.41-5.66,19.15-5.64,28.86,0,18.81,4,41.49-6.09,58.53-5.06,8.6,8.21,16.32,13.36,7.81,9.42-15.57,8.11-32.65,7.56-50.09-.3-9.36-1.05-19,.13-28.29.67-5.38,3.39-14.4,9.22-15.85,5-1.25,5.27-7.8,1.37-10.41Z"/><path class="cls-2" d="M550.14,543.15a221,221,0,0,0-9.69,31.34c-2.2,9.31-3.9,19.3-2.55,28.85.11.81,1.46.61,1.42-.2A100.48,100.48,0,0,1,543,572.3c2.61-9.63,6.08-19.11,8.13-28.87a.52.52,0,0,0-1-.28Z"/><path class="cls-2" d="M290.74,484c-5.46,12.24-8.3,26-12.2,38.83-4.2,13.78-8.57,27.51-13.21,41.15q-13.77,40.47-29.6,80.21c-1.34,3.36,4.11,4.83,5.42,1.5q15.69-39.76,28.93-80.4,6.54-20.09,12.63-40.32c3.91-13.06,9-26.72,10.52-40.3a1.34,1.34,0,0,0-2.49-.67Z"/><path class="cls-2" d="M545.76,670.06A40.36,40.36,0,0,1,525.69,685c-9.9,3.34-20.1-.36-29.32-4.05-1.08-.43-1.55,1.31-.48,1.73,10.13,4.06,21.08,7.7,31.77,3.5A42.57,42.57,0,0,0,547.31,671c.68-.93-.88-1.83-1.55-.9Z"/><path class="cls-2" d="M213.79,648.2c5.17.25,10.14-.68,15.27-1.18,5.77-.56,11.63.13,17.41.54,11.47.83,22.93,1.9,34.39,2.88,22.77,1.95,45.86,3.86,68.7,2.16,22.05-1.65,44.19-2.47,66.26-3.69a32.92,32.92,0,0,1,8.05.39c2.38.43,4.78,1.91,7.06,2.25,3.56.53,8.34-1.64,11.9-2.32a162.88,162.88,0,0,1,33.64-2.83A176.91,176.91,0,0,1,513.91,651c10.7,2.55,20.61,7,30.57,11.52,1.75.79,3.27-1.79,1.52-2.59-3.77-1.7-7.41-3.69-11.21-5.32-4.51-1.93-9.32-3-13.95-4.59-9.68-3.41-20.22-4.84-30.4-5.83a172,172,0,0,0-33.42,0c-5,.49-10,1.21-15,2.17-2.4.46-4.77,1.1-7.18,1.56-3,.57-4.2.09-7.06-.76-9.79-2.89-20.81-.52-30.82,0-11.41.56-22.83.93-34.24,1.58a520.16,520.16,0,0,1-70.07-.29c-13.11-1-26.2-2.28-39.31-3.32-6.81-.54-13.77-1.4-20.6-1.31-6.38.08-12.55,1.74-19,1.42-1.93-.1-1.93,2.9,0,3Z"/><path class="cls-2" d="M521.41,687.84c1.63,1.61,1.72,4.52-.74,5.2a9.16,9.16,0,0,1-3,0c-3.67-.28-7.34-.74-11-1.27-5.91-.86-11.73-2.12-17.57-3.36a.89.89,0,0,0-.47,1.71,155.82,155.82,0,0,0,17.53,3.52c4.63.69,10,2,14.63,1.38,5.5-.72,5.84-5.51,1.41-8.23a.68.68,0,0,0-.82,1.07Z"/><path class="cls-2" d="M519.83,693.85c.77,2.95.18,4.57-1.76,4.88a7.89,7.89,0,0,1-1.93.34,36,36,0,0,1-4.52.33c-3.06.08-6.12,0-9.16-.2-6.61-.47-12.87-1.9-19.3-3.31a.86.86,0,0,0-.46,1.65,75.25,75.25,0,0,0,33.69,3.34c2.42-.36,5.66-1.1,6.62-3.7.88-2.37-.55-3.86-2.67-4.55a.67.67,0,0,0-.51,1.22Z"/><path class="cls-2" d="M492.26,699.41c6.83,6.75,16.93,7.8,26.09,8.07,2.52.08,5,0,7.55,0,2.33-.05,8.16-1.27,3.58,2.35-5.44,4.3-14.74,4.95-21.36,4.68-28.18-1.16-50.79-22.88-79.18-23.42a1.16,1.16,0,0,0,0,2.32c22.34.44,40.73,14.13,61.62,20.06,8.59,2.44,17.82,3.79,26.72,2.45,4.65-.7,17-3,16.05-9.68a1,1,0,0,0-1-.73C519.24,705,504.13,707,493,698.44c-.57-.44-1.24.49-.75,1Z"/><path class="cls-2" d="M274,711c-16.12-.27-32.22,1.54-48.34.42a95.93,95.93,0,0,1-23.58-4.37c-6.78-2.24-14.08-7.28-21.44-6.45-2.11.24-2.78,3.19-.52,3.87,3.95,1.2,7.83,2,11.69,3.56a119,119,0,0,0,11.56,4.19,104.79,104.79,0,0,0,21.4,3.48c16.35,1.1,32.93-.23,49.23-1.55a1.58,1.58,0,0,0,0-3.15Z"/><path class="cls-2" d="M315,404.69l-.08,0a.6.6,0,0,0-.73.73c1.85,6.26,9.15,10.37,13.63,14.54,10.06,9.38,20.95,18.24,33.25,24.53s26.38,9.49,40.16,6.09a43.59,43.59,0,0,0,29.27-23.76c7-15.24,3.39-32.62-4.65-46.67a1.42,1.42,0,0,0-2.45,1.43c9.78,16.68,12.32,37.87-.93,53.5-11.17,13.18-29.52,17.24-45.86,13.11-17.14-4.33-32.25-15.79-45.13-27.47-3.34-3-6.55-6.4-10.21-9.07-2.39-1.75-4.78-3.85-6-6.69l-.67.87h.09a.59.59,0,0,0,.31-1.13Z"/><path class="cls-2" d="M253.16,600.57l1.84,1,1.17-1.52C236,592.8,214.62,581.65,193,589.72c-1.17.44-1.12,2.43.32,2.34a114.61,114.61,0,0,1,55.3,10.06l.95-2.24a391.42,391.42,0,0,0-49.3-13.59l-.34,2.49a152.66,152.66,0,0,1,55.2,15.51l1-2.4c-19.19-5.56-37.52-15.84-58-14.94a1.31,1.31,0,0,0,0,2.61,236.27,236.27,0,0,1,26.25,5c7.79,2,15.3,4.89,23.06,6.85a1.3,1.3,0,0,0,.69-2.51c-8.37-2.11-16.45-5.26-24.87-7.3A243.05,243.05,0,0,0,198.07,587v2.61c20.25-.88,38.39,9.37,57.34,14.86,1.4.41,2.36-1.72,1-2.39a155.4,155.4,0,0,0-56.53-15.78,1.27,1.27,0,0,0-.33,2.49,389.52,389.52,0,0,1,49.31,13.5c1.3.45,2.22-1.66.95-2.24a116.9,116.9,0,0,0-56.54-10.32l.32,2.33c21.15-7.92,42.26,3.15,62,10,1.08.37,1.57-1,1-1.72a2.85,2.85,0,0,0-3.64-1.13c-.73.22-.63,1.46.18,1.38Z"/><path class="cls-2" d="M266.33,557.28c-11.43-5.07-24-7.54-36.39-8.66-1.41-.12-1.75,2.25-.34,2.49,12.45,2.13,24.87,4.4,36.66,9.1,1.37.54,2.35-1.76,1-2.4a105,105,0,0,0-38.36-10.21c-1.46-.11-1.82,2.33-.35,2.58,12,2,24,4.1,35.07,9.22a1.32,1.32,0,0,0,1.33-2.27,22.84,22.84,0,0,0-9.95-3.82c-1.48-.2-2.18,2-.64,2.31a24.79,24.79,0,0,1,9.26,3.78l1.33-2.27c-11.33-5.22-23.48-7.45-35.7-9.49l-.35,2.58a101.6,101.6,0,0,1,37,9.85l1-2.39c-11.79-4.7-24.23-6.91-36.69-9l-.33,2.48c12.33,1.09,23.9,4.16,35.67,7.82,1,.3,1.69-1.26.72-1.69Z"/><path class="cls-2" d="M271.47,545.26l0,.11.28-.48a2,2,0,0,0-.45.68c0,.12,0,.24-.08.36l-.17.82a1.52,1.52,0,1,0,2.94,0l-.18-.82c0-.12,0-.24-.07-.36a1.84,1.84,0,0,0-.45-.68l.28.48,0-.11a1.07,1.07,0,0,0-2,0Z"/><path class="cls-2" d="M269.54,556.18a90.33,90.33,0,0,0,2.64,24.13c2,7.62,5.6,14.76,6.77,22.59,1.13,7.54,1.51,17.14-.75,24.47-2,6.34-7.51,10.49-9.29,17-.77,2.8,3.61,4,4.34,1.2,1.67-6.44,7.18-10.69,9-17.07,2.1-7.18,1.7-16,1-23.31-.74-7.68-3.72-14.53-6.07-21.78a89.51,89.51,0,0,1-4.12-27.23,1.78,1.78,0,0,0-3.56,0Z"/><path class="cls-2" d="M315.16,413.68l-.09,0c-.44-.16-.83.32-.73.73,1.69,6.52,9.83,11.1,14.39,15.34,10.67,9.93,22.15,19.36,35.14,26.11s27.84,10.41,42.53,7.12a46.78,46.78,0,0,0,32-24.83c8-16.43,4.15-35.46-4.61-50.73a1.42,1.42,0,0,0-2.45,1.43c7.84,13.35,12,29.83,6.41,44.84-5.17,14-17.63,23.87-32,27.12-28.3,6.4-54.89-13.23-74.49-31.3a117.58,117.58,0,0,0-9.72-8.56,21.61,21.61,0,0,1-2.12-1.48,21.28,21.28,0,0,1-2.53-3.21,6.94,6.94,0,0,0-.7-1c-1.16-1,.27,0-1.39-.43a.59.59,0,0,0,.31-1.13Z"/><path class="cls-2" d="M215.64,585.84l-1.23-2.39a3.7,3.7,0,0,0-5.77-.75,6.93,6.93,0,0,0-1.75,6.65c.55,3,4.39,3.4,6.35,1.67a58.89,58.89,0,0,0,11.95-15.1l-7.61-4.45c-1.49,3.11-3,6.21-4.5,9.31a4.52,4.52,0,0,0,7.8,4.56,80.17,80.17,0,0,0,8.16-15l-9-2.49a55.1,55.1,0,0,1-4.7,11.95l8.07,4.72q5.26-11.94,11.58-23.36l-8.5-3.58-8.84,22.65,8.93,2.47c2.32-8.94,4.76-18.12,11.82-24.54l-7.69-4.48a86.37,86.37,0,0,1-8.75,23.94l8.25,3.48a60.85,60.85,0,0,1,11-19.79l-7.3-4.25a91.94,91.94,0,0,1-8.51,21.77l7.92,3.34a67.3,67.3,0,0,1,11.24-21.66l-7.34-3a35.2,35.2,0,0,1-5.59,20.12l7.82,3.29a92.9,92.9,0,0,1,8-19.86l-6.68.86c1,1.18-2,9.12-2.39,10.33a88.4,88.4,0,0,1-4.25,11.38l7.72,3.25a108.05,108.05,0,0,1,4.43-13.11c.85-2,1.78-4.06,2.77-6,.54-1.07,1.1-2.13,1.67-3.18q2.19-2.21-.82-1.8L248,560.19c.32,1.23-1.24,4.48-1.62,5.73q-.86,2.8-1.74,5.59c-1.37,4.34-2.83,8.65-4.3,13s5.61,7.51,7.6,3.21a168.65,168.65,0,0,1,12.6-22.8h-6.83c1.4,2-3.05,10.11-3.84,12.25l-4.93,13.44c-1.62,4.4,5.65,7.52,7.62,3.22L265.26,566l-7.78-3.29a90.48,90.48,0,0,1-9.07,28.6l7.23,4.22a185.28,185.28,0,0,0,9.95-28.09l-8-2.2a56.21,56.21,0,0,1-3.77,13.09c-1.37,3.14-3.12,7.66-5.67,10-.55,1.51-1,1.73-1.29.67-1.11-.46-2.23-.89-3.37-1.27a52,52,0,0,0-5.19-1.48,63.27,63.27,0,0,0-13.78-1.54c-5.42,0-6.95,8.76-1.31,9.73,6.13,1.06,12.29,1.94,18.43,2.89l1.34-9.86A16.48,16.48,0,0,1,231.59,584l-2.21,8.38a35,35,0,0,1,8.36-.67,30.76,30.76,0,0,1,3.95.42c.59.1,1.17.22,1.74.37,1,.2,1.16.25.45.16l-1.47-3.56-.11.92,1.47-3.55c1.18-1-2.47-.76-3.34-.9-2-.33-4-.77-6-1.29a61.51,61.51,0,0,1-11-4.06l-3.9,9.23,8.4,2.76,1.35-9.94c-1.56-.09-5.45-.12-6.61-1.51l1.49,3.58c0-.44,4.08-3.67,4.76-4.22a37.09,37.09,0,0,1,6.82-4.33,36.46,36.46,0,0,1,15.55-3.67c5.54-.12,7.08-8.65,1.34-10A25.53,25.53,0,0,1,240,555.3L236.39,564a33.14,33.14,0,0,1,18.79,3.26l4-9.44a63.66,63.66,0,0,1-14.87-5.58l-1.24,9.49a14.91,14.91,0,0,1,12.4,3.52l5.05-8.68a73.21,73.21,0,0,1-12.36-3.79L246.76,563a14.87,14.87,0,0,1,10.07,3.32c5.33,4,10.45-5,5.21-8.91a24.1,24.1,0,0,0-15.28-4.76c-6.19.15-6.57,8.05-1.37,10.17a73.84,73.84,0,0,0,12.35,3.82c4.71,1,9.22-5,5.05-8.69a26,26,0,0,0-22.5-6.18c-4.4.78-5,7.5-1.24,9.48a74.57,74.57,0,0,0,17.36,6.59c5.48,1.31,9.42-6.72,4-9.45a42.33,42.33,0,0,0-24-4.58c-4.14.46-7.08,5.4-3.62,8.74A35.88,35.88,0,0,0,250,571.9l1.35-9.95a47.27,47.27,0,0,0-30.71,12c-3.41,3-8.51,7.89-5.86,12.92,2.45,4.63,10,5.22,14.56,5.49,5.91.35,6.57-8.23,1.34-9.94l-8.4-2.74c-5.37-1.76-9.1,6.75-3.89,9.23a72.56,72.56,0,0,0,17.66,6c4.59.88,12,2.79,15.23-1.9s-.57-9-5.17-10.26c-6.32-1.68-13-1.36-19.39-.1-3.49.69-5.1,6.07-2.21,8.38A27.12,27.12,0,0,0,243,597.48c5.35-.2,7.17-9,1.33-9.86-6.59-1-13.18-2.06-19.79-2.94v9.91a52.88,52.88,0,0,1,18.23,2.55c4.32,1.41,7.79,2,11.08-1.7,6.62-7.39,10.17-18.41,11.72-28,.83-5.13-6.55-7.44-8-2.2a170.28,170.28,0,0,1-9.22,26.07c-2.16,4.81,4.68,9.08,7.23,4.22A94,94,0,0,0,265.69,565c.61-4.27-5.6-8.12-7.78-3.28l-12.57,27.87,7.62,3.21q3.31-9.45,6.64-18.89c1.46-4.17,3.82-8.94.92-13a4,4,0,0,0-6.83,0,213.2,213.2,0,0,0-12.95,22.6l7.6,3.2c2.6-7.34,5.15-14.76,7.23-22.27,1.13-4.11,1.2-10.11-4.72-10-5.45.09-7.88,6.58-9.85,10.65a115.26,115.26,0,0,0-7.29,19.53c-1.23,4.47,5.69,7.74,7.73,3.26a102.07,102.07,0,0,0,6.3-17.64c1.28-5.14,2.62-9.94-1-14.35-1.72-2.12-5.46-1.35-6.68.86a103.6,103.6,0,0,0-8.91,21.89c-1.32,4.75,5.25,7.35,7.82,3.3a43.47,43.47,0,0,0,6.8-24.44c-.06-3.37-4.91-6.14-7.34-3A78.65,78.65,0,0,0,225,579.86c-1.47,4.67,5.56,7.65,7.92,3.34a105.37,105.37,0,0,0,9.46-23.83c1-4-4.36-7.69-7.31-4.25a72.69,72.69,0,0,0-13.57,23.57c-1.7,4.86,5.78,7.89,8.25,3.47a91.73,91.73,0,0,0,9.84-26,4.65,4.65,0,0,0-7.7-4.48c-8.25,7.47-11.51,18.14-14.24,28.58-1.54,5.9,6.8,7.9,8.93,2.47L235.42,560c1.94-4.95-6-8.12-8.5-3.58q-6.34,11.4-11.62,23.33c-2.38,5.37,5.15,10.13,8.07,4.72A66.36,66.36,0,0,0,229,570.33c1.61-6-6.83-7.93-9-2.49a72.47,72.47,0,0,1-6.92,12.94l7.8,4.56c1.44-3.14,2.86-6.29,4.31-9.42,2.35-5.11-5.2-9.6-7.61-4.45a56,56,0,0,1-9.71,14.18l6.35,1.68.19-.18h-6.34l1.42,2.29c2.43,3.91,8.26.47,6.15-3.6Z"/><path class="cls-2" d="M264.2,566.36a9.71,9.71,0,0,0,2.3-1.15c3.78-2.56.43-8.51-3.62-6.18-6.65,3.82-9.61,11.45-11.62,18.55a102.88,102.88,0,0,0-2.55,11.93c-.57,3.58-1.77,7.77-.53,11.25,1.07,3,5.18,3.85,6.94.91s1.51-6.23,1.89-9.49A71.51,71.51,0,0,1,258.77,582c1.8-6.89,5.7-11.94,9-18.07l-6.68-1.81a10.61,10.61,0,0,0,.26,2.64,2.32,2.32,0,0,0,2.83,1.6Z"/><path class="cls-2" d="M576.91,640.64a10.22,10.22,0,0,0,1.45-1.75l-8.55-1.11C576.32,672.4,575,707,563,740.37l9.88,2.72a239.11,239.11,0,0,0,4.67-102.62c-1.09-6.36-10.75-3.66-9.68,2.66A227.1,227.1,0,0,1,563,740.37c-1.74,6.44,7.66,8.84,9.88,2.72,12.3-34,15.46-72.69,6-107.8-1.09-4-6.4-4.41-8.54-1.11l-.39.59c-2.12,3.26.78,6.61,4,7a3.92,3.92,0,0,0,3-1.12Z"/><path class="cls-2" d="M489.86,714.72c-5.1,3.51-9.06,9-13.34,13.42-4.49,4.66-8.82,9.46-13.35,14.08l10,10c8.35-9,16.76-18.34,21.63-29.79,3.56-8.38-7.44-15.5-12.55-7.33A100.73,100.73,0,0,1,453.71,745c-7.73,5.27-.42,18,7.38,12.62a114.81,114.81,0,0,0,33.7-35.2l-13.29-5.6c-4,9.75-11.37,17.7-18.33,25.4-6.07,6.71,3.66,16.59,10,10,4.68-4.89,9.38-9.82,13.63-15.1,4-5,8.84-10.1,11.33-16,1.89-4.51-4.44-9-8.26-6.36Z"/><path class="cls-2" d="M345.65,707.89l2,10.44c.46,2.44,4.14,1.4,3.7-1l-1.91-10.47c-.45-2.48-4.27-1.43-3.8,1Z"/><path class="cls-2" d="M347.28,718.66c-.13,2-.26,4.07-.41,6.1s-.67,4,0,5.9a2.56,2.56,0,0,0,4.88,0c.71-1.84.17-4,0-5.9s-.27-4.07-.4-6.1a2.07,2.07,0,0,0-4.13,0Z"/><path class="cls-2" d="M349.76,697.82c-.15,11.67.08,23.31.76,35,.2,3.45,5.41,3.52,5.42,0l.05-21.06c0-3.38,1.55-10.6-1.94-12.81a3.18,3.18,0,0,0-4.27,1.12,5.74,5.74,0,0,0-.74,2.68c-.36,3.6,5.51,4.35,6.3.86.35-1.56.69-3.11,1-4.68l-6.92-.93q.91,26.65,1.1,53.35c0,4.76,7.39,4.77,7.41,0Q358,724.6,356.47,698c-.27-4.59-6.62-4.48-7.05,0-.16,1.58-.27,3.16-.38,4.75h6.41l-.28.47-4.27,1.12c-1.82-.8-.86,4.26-.83,5.51l.15,7.66.3,15.31h5.42q-1.4-17.44-2-35c-.09-2.71-4.18-2.72-4.22,0Z"/><path class="cls-2" d="M345.32,698.05c-.41,12.58-.51,25.16-.94,37.73-.15,4.44,6.32,4.25,6.77,0,.75-7.11,1.29-14.24,1.9-21.37h-7l-1.2,30.9c-.18,4.58,7,4.58,7.12,0l1.09-30.9c.16-4.55-6.65-4.44-7,0-.58,7.12-1.23,14.24-1.66,21.37h6.77c-.13-12.6-.4-25.17-1.43-37.73-.23-2.8-4.31-2.87-4.4,0Z"/><path class="cls-2" d="M545.17,662.7l-.86,1.26,1.69.71.29-.52-1.47-.85c-.61,4.59-9.55,5.09-12.77,4.9a45,45,0,0,1-11.64-2.7C514,663.32,507.83,661,501,661.11a1.18,1.18,0,0,0-.59,2.17c7.29,4.69,16.35,13.05,25.55,13.07,4,0,11.89-2.6,12.46-7.27.2-1.67-2.44-1.67-2.63,0s-3.8,3-5.11,3.62c-4.34,2-8.56,1-12.64-1.1-5.72-3-11-6.87-16.46-10.33l-.58,2.17c10.39-.23,19.31,5.76,29.48,6.85,5,.53,15.81-.23,16.32-7a1,1,0,0,0-1.48-.84c-.79.6-.93.7-1.08,1.72s1.12,1.69,1.69.71l.76-1.31a.87.87,0,0,0-1.5-.88Z"/><path class="cls-2" d="M545.3,662.1v.07c-.29,2.05,2.77.78,1.51-.4l-.06,0c-.43-.4-1.35-.31-1.44.38Z"/><path class="cls-2" d="M545.68,672.37a13.84,13.84,0,0,0,2.53-4.78.34.34,0,0,0-.61-.26l-5.2,8.3c-.23.36.33.82.62.47a26.86,26.86,0,0,0,5-8.86c.14-.45-.57-.76-.77-.33a39.79,39.79,0,0,1-4.65,7.68c-.32.42.35.86.7.54,3.91-3.58,6.33-8.23,5.72-13.61a.56.56,0,0,0-.7-.53,19.11,19.11,0,0,1-4.75.67l.16,1.25c1.87-.56,5.53-1.91,5.07,2.34-.11,1.06-1.46,2.69-2,3.59a68.71,68.71,0,0,1-5.71,7.56c-.49.59.3,1.42.85.85a44.65,44.65,0,0,0,5.14-6.42c1.23-1.83,3.15-4.28,3.48-6.55.6-4.14-4.74-3.33-7.14-2.6-.66.21-.57,1.29.17,1.25a20.57,20.57,0,0,0,5-.88l-.7-.53c.68,5.14-1.52,9.53-5.24,13l.7.54a40.06,40.06,0,0,0,4.61-7.7l-.77-.33a25.59,25.59,0,0,1-4.73,8.54l.62.47,5.1-8.35-.61-.26a13.23,13.23,0,0,1-2.36,4.6c-.2.26.26.62.47.36Z"/><path class="cls-2" d="M478,340.36a13.14,13.14,0,0,1-4.32-5.21c-.2-.43-.8-.06-.62.36a24.14,24.14,0,0,0,8.81,10.71c.35.24.81-.33.47-.6-4.13-3.32-9.23-7.45-9.05-13.34s4.92-7.33,9.89-5.59a7.85,7.85,0,0,0,2.53.88c2.38.05,1.95-1,3.31-2.24,8.71-7.83,6.21-1.72,12.29-.25a3.69,3.69,0,0,0,3.8-.82c2.42-2.29,3.53-5,7.73-4,3.14.73,5,3.3,6,6.12,1.43,3.77.48,8,2.06,11.66,1.76,4.07,4.39,6.55,4.71,11.35.05.88,1.42.88,1.36,0a17.81,17.81,0,0,0-2-7.53c-.64-1.17-1.57-2.13-2.23-3.27-1.48-2.58-1.19-5.24-1.54-8.06-.55-4.35-2.35-9.25-6.75-11-3.49-1.41-6.31-.38-8.9,1.94a5.08,5.08,0,0,0-.86,1.41q-4.34,1.43-7-1.34c-.92-.45-1.4-1.14-2.47-1.48a5.47,5.47,0,0,0-4.3.41,5.79,5.79,0,0,0-2,1.83c.2-.31-1.27,3-.91,2.69-2.67,2.28-5.48-.32-8.12-.5-3.75-.25-6.84,3-7.43,6.46-.84,5,2.72,10.4,6.69,13.17,3.33,2.33-.33-1.13-1-1.88-.12-.13-3.83-5.62-3.88-5.62-1.53.11,2.67,3.83,3.39,4.33.33.24.63-.3.31-.53Z"/><path class="cls-2" d="M511,297.06c5.12,2.16,9.22,5.63,10.75,11.12a.9.9,0,0,0,1.74-.48c-1.72-6.15-6.29-10-12-12.37-1.06-.45-1.53,1.29-.48,1.73Z"/><path class="cls-2" d="M480.36,315.52c2.09-5.84,2.41-12.54,5.54-18,5.48-9.5,17.41-5.75,24.09.08.87.76,2.15-.51,1.27-1.27-5.75-5-16.08-9.55-23.26-4.3-6.75,4.93-6.81,15.82-9.37,23-.4,1.09,1.34,1.56,1.73.48Z"/><path class="cls-2" d="M487.57,323.7a13.6,13.6,0,0,1-6.94-8.17c-.36-1.1-2.1-.63-1.73.47a15.32,15.32,0,0,0,7.76,9.25c1,.51,1.95-1,.91-1.55Z"/><path class="cls-2" d="M469.48,336c-.62,3.16.95,5.37,2.08,8.17.35.85,1.74.47,1.39-.38-1.06-2.54-2.68-4.75-2.34-7.64.08-.64-1-.79-1.13-.15Z"/><path class="cls-2" d="M469.12,337c.39,4.92,1.61,8.25,5.41,11.52s7.8,5.3,11.86,7.93c.8.52,1.6-.62,1-1.28-2.59-2.79-6.67-4.05-9.66-6.42a24.22,24.22,0,0,1-4.57-4.24c-1.68-2.23-2.26-5-2.76-7.68a.65.65,0,0,0-1.27.17Z"/><path class="cls-2" d="M529.18,309.07c-5.15-5-12-.5-17.09,2.12-4.8,2.47-10.5,6.62-9.19,12.65.32,1.46,2.57.84,2.25-.62-1.32-6.09,6.6-8.92,10.63-11,1.79-.92,3.53-2.39,5.48-2.92,2.58-.71,4.82.18,7.2,1a.75.75,0,0,0,.72-1.24Z"/><path class="cls-2" d="M518.55,644.77v-.59a.7.7,0,0,0-.69-.69c-.78,0-1.18.42-1.71.94-.87.86-1.68,1.79-2.49,2.71s.44,2.08,1.26,1.26a8.41,8.41,0,0,0,2.11-3.52.91.91,0,0,0-1.51-.88l-3.21,3.37,1.52,1.17a21.36,21.36,0,0,0,2.38-4.57c.41-1.19-1.24-1.65-1.88-.79q-1.68,2.24-3.34,4.48l1.77,1c1.09-1.77,2.18-3.53,3.29-5.29.62-1-.85-2.15-1.62-1.25-1.45,1.69-3,3.34-4.34,5.09-.81,1,.55,2.52,1.49,1.49,1.5-1.64,2.88-3.41,4.31-5.12l-1.62-1.25-3.28,5.3c-.71,1.14,1,2.06,1.77,1l3.34-4.47-1.88-.8a19.12,19.12,0,0,1-2.06,4.15c-.56.92.77,2,1.51,1.17l3.12-3.46-1.51-.88a6.28,6.28,0,0,1-1.62,2.74l1.26,1.26c.51-.6,1-1.21,1.52-1.82.27-.34,1.06-1.7,1.42-1.71l-.69-.69.06.59a.66.66,0,0,0,1.31,0Z"/><path class="cls-2" d="M525.92,647.13a11.59,11.59,0,0,1-2,4.13l1.61.94c.84-1.64,1.71-3.27,2.51-4.93l-1.95-.83a11.09,11.09,0,0,1-.71,2.47,11.15,11.15,0,0,0-1.06,2.24,1,1,0,0,0,1.4,1.08c1.51-.94,2.15-3.58,2.43-5.22.19-1.09-1.39-2-1.95-.82-.79,1.67-1.53,3.38-2.28,5.07a.93.93,0,0,0,1.61.94,8.71,8.71,0,0,0,1.55-4.91.59.59,0,0,0-1.15-.16Z"/><path class="cls-2" d="M499.28,717.29c.21-.37.41-.74.61-1.11a.72.72,0,0,0-1.24-.72c-.52.91-1,1.84-1.47,2.76a.85.85,0,0,0,1.47.86c.46-.63.87-1.3,1.31-2l-1.61-.94a33.69,33.69,0,0,1-1.83,3.4l1.64,1a20.71,20.71,0,0,1,2.46-4.16l-1.64-1c-.87,2-1.64,4-2.48,6l1.49.63c.81-1.87,1.69-3.71,2.66-5.5l-1.66-.7a15.67,15.67,0,0,1-2.75,4.83l1.58.92c.5-1.6,1.46-3.17,1.5-4.89,0-1.39-.73-1.4-1.86-1.48l1,.73,0-.15-.1.76c.75-1.26.21-1.94-1-2.64a1.09,1.09,0,0,0-1.1,1.88,12.61,12.61,0,0,0,2.13.93l.59-2.14c-1.12-.26-2.17-.65-3.27-.18a1.15,1.15,0,0,0-.41,1.57c.59,1,1.9,1.35,3,1.71a1.1,1.1,0,0,0,.84-2,21.24,21.24,0,0,1-2.75-1.74l-.59,2.2a9.44,9.44,0,0,1,1.74.36,1.19,1.19,0,0,0,.91-2.16,4.86,4.86,0,0,0-2.43-.84,1.27,1.27,0,0,0-1.09.63c-.91,1.94,1.35,2.33,2.69,2.75v-2.41l-.22.09a1.25,1.25,0,1,0,1,2.29l.22-.09c1-.46.65-2-.29-2.29a8.18,8.18,0,0,1-1.63-.53l.58.76v.4l-1.21.92a4,4,0,0,1,1.52.48l.63-2.28c-.79-.19-1.57-.34-2.37-.45-1.27-.15-1.46,1.62-.6,2.2a20.29,20.29,0,0,0,2.84,1.6l.84-2c-.41-.15-1.36-.36-1.56-.76l-.69,1.69c.41-.16,1.35.16,1.79.22,1.37.18,2-1.79.59-2.14a6,6,0,0,1-1.62-.67l-1.1,1.88a4.52,4.52,0,0,1,1,.52l-.46-.6.07.19.1-.77c-.28.5-.52.7-.36,1.33a1,1,0,0,0,1,.73c.25,0,.54-.08.79-.06l-.85-.49c0-.28,0-.24-.06.15a2.53,2.53,0,0,1-.12.77,10.1,10.1,0,0,1-.36,1.1c-.29.81-.62,1.59-.86,2.41s1,1.68,1.58.93a18,18,0,0,0,3.16-5.68.91.91,0,0,0-1.66-.71,52.4,52.4,0,0,0-2.58,5.79c-.32.86,1.11,1.48,1.49.63.86-1.9,1.79-3.78,2.63-5.7a1,1,0,0,0-1.64-1,20.71,20.71,0,0,0-2.46,4.16,1,1,0,0,0,1.64,1,25.31,25.31,0,0,0,1.8-3.42.93.93,0,0,0-1.61-.94c-.41.67-.83,1.33-1.17,2l1.56.66a25.75,25.75,0,0,1,1.15-2.7l-1.31-.55c-.14.39-.28.79-.41,1.19-.23.65.78,1.06,1.11.47Z"/><path class="cls-2" d="M485.25,712.41l.21-.21a.73.73,0,1,0-1-1,16.86,16.86,0,0,0-1.59,2.51l1.66.7a7.4,7.4,0,0,1,1.13-1.89l-1.57-1.21-1.4,2.47a1.06,1.06,0,0,0,1.83,1.07,10.33,10.33,0,0,1,1.37-2.11l-1.05.28.16,0-.75-1.32a5,5,0,0,1-.51,1.14c-.48,1,.85,2.3,1.69,1.3a9.38,9.38,0,0,0,1.31-2l-1.84-1.08a11.9,11.9,0,0,1-1.55,2.82l1.7,1a2.63,2.63,0,0,1,.45-.82l-.8.11.14,0-.62-.48.06.14-.1-.8c-.39,1.54-1.54,2.81-2,4.33a.91.91,0,0,0,1.51.87,11.85,11.85,0,0,0,1.73-2.89c.36-.73,1.07-1.72.65-2.56-1-2-2.64.5-3,1.51a1,1,0,0,0,1.71,1,13.38,13.38,0,0,0,2-3.19c.57-1.24-1.24-2.33-1.84-1.08a7.42,7.42,0,0,1-1,1.55l1.69,1.3a6,6,0,0,0,.72-1.65,1.1,1.1,0,0,0-.75-1.33c-1.53-.32-2.24,1.75-2.88,2.81l1.83,1.07,1.29-2.53a1,1,0,0,0-1.72-1,8,8,0,0,0-1.31,2.61c-.35,1.15,1.33,1.54,1.75.49a18.1,18.1,0,0,1,1.21-2.46l-1.17.15.12.12-.14-.51-.07.26c-.12.43.47.81.78.45Z"/><path class="cls-2" d="M499.47,715.37c.84,2.42-3.89,7.81-5.31,9.49-2.21,2.61-4.93,4.81-7,7.49-.62.8.19,2.26,1.19,1.55,2.34-1.67,17.57-16.75,12-19.19-.42-.19-1,.13-.86.66Z"/><path class="cls-2" d="M483.94,710.51c-3.32,4.38-5.64,11.12-6.35,16.54-.13,1,1.34,1,1.66.23,1-2.69,1.68-5.55,2.65-8.28a85.41,85.41,0,0,0,2.91-8.12.48.48,0,0,0-.87-.37Z"/><path class="cls-2" d="M377.52,359.8c2.31,5.22,5.1,7.92,9.82,10.95,5.41,3.49,9.32,8.49,14.07,12.73a.73.73,0,0,0,1-1,69.45,69.45,0,0,0-10.87-11.27c-1.8-1.42-3.78-2.55-5.68-3.82-3.39-2.26-5.12-4.84-7.42-8.13a.55.55,0,0,0-1,.56Z"/><path class="cls-2" d="M405.89,382.65a3.27,3.27,0,0,0-1.29.35,2.39,2.39,0,0,0-.63.51,2.76,2.76,0,0,0-.68,2.57,2.88,2.88,0,0,0,1.29,1.71,3.11,3.11,0,0,0,2.28.29l-.66.09h.06l.66-.09a2,2,0,0,0,.86-.45,2.72,2.72,0,0,0,.9-1.3,3.26,3.26,0,0,0-.23-2.61,4.15,4.15,0,0,0-.64-.81,3,3,0,0,0-2.86-.8,3.74,3.74,0,0,0-2.72,4.69,3.33,3.33,0,0,0,.8,1.43,3,3,0,0,0,4.15,0,3,3,0,0,0,.84-2,2.94,2.94,0,0,0-.42-1.47,2.88,2.88,0,0,0-1.61-1.23,2.52,2.52,0,0,0-1.95.26l-.51.39a2.49,2.49,0,0,0-.65,1.12l0,0,.66-1.13,0,0,.53-.41,0,0,.63-.26h0l.72-.1-.92.13h1.43l.67.29-.05,0,1.29,1.68v-.06l.1.75a1.2,1.2,0,0,1,0-.27l-.11.76a2.58,2.58,0,0,1,.08-.26l-.29.7c.14-.29.25-.59.37-.89l-.3.69a1.09,1.09,0,0,1,.14-.23l-.46.58.19-.19-.58.45a1.09,1.09,0,0,1,.23-.14l-.69.29.07,0-2.21-.29.07.06-.58-.45c.09.07.17.16.26.24a3.79,3.79,0,0,0,1.37.77l-.65-.28a2,2,0,0,1,.25.14L403.84,385l0,.05.64-1.09,0,0,.49-.38,0,0,.58-.24h-.06l.65-.08h-.14l.65.08-.13,0,.57.24-.11-.06.48.37-.09-.09.37.47,0-.05.24.56a.28.28,0,0,1,0-.13l.08.62a.49.49,0,0,1,0-.12l-.09.61a.61.61,0,0,1,.05-.12l-.24.55,0-.06-.36.46a.38.38,0,0,1,.09-.09l-.46.35.11-.06.46-.35a1.62,1.62,0,0,0,.46-.72,2.13,2.13,0,0,0,.11-1.47,2.73,2.73,0,0,0-.57-1,2.25,2.25,0,0,0-1.6-.66Z"/><path class="cls-2" d="M409.15,381.47a1.26,1.26,0,0,0-.15-.38c-.05-.13-.1-.25-.16-.37l.3.7a.32.32,0,0,1,0-.09l.1.76V382a2.82,2.82,0,0,0-.38-1.42,3.26,3.26,0,0,0-1.68-1.3,2.93,2.93,0,0,0-1.5,0,3.19,3.19,0,0,0-1.36.8,3,3,0,0,0-.82,1.39,2.89,2.89,0,0,0,.76,2.86l.59.47a3,3,0,0,0,1.49.4,2.23,2.23,0,0,0,1.14-.26,2.16,2.16,0,0,0,.95-.61,3,3,0,0,0,.75-2.86Z"/><path class="cls-2" d="M400.31,375.87a3.52,3.52,0,0,0-1.67.46,3,3,0,0,0-1,1,3.61,3.61,0,0,0-.3.73,4.12,4.12,0,0,0-.15.91,3.1,3.1,0,0,0,.82,2l.56.43a2.12,2.12,0,0,0,1,.33,1.33,1.33,0,0,0,.74,0,2.12,2.12,0,0,0,1-.33l.57-.43a2.83,2.83,0,0,0,.71-1.23v0l-.28.67a.57.57,0,0,1,.08-.13l-.44.56,0,0,.44-.57c.09-.23.19-.46.29-.69a.56.56,0,0,1,0-.12l-.28.66a.64.64,0,0,1,.08-.14l-.41.54v0l.42-.54.27-.64.1-.71a2.13,2.13,0,0,0-.23-1,2.74,2.74,0,0,0-.83-1.07,1.21,1.21,0,0,0-.59-.34,1.91,1.91,0,0,0-1-.23Z"/><path class="cls-2" d="M401.72,384.41h0l-.57-.44h0l-.44-.57h0l-.28-.67h0l-.1-.75h0l.1-.74h0l.28-.66h0l.43-.55h0l-.43.55a2.12,2.12,0,0,0-.33,1,1.46,1.46,0,0,0,0,.72,2.05,2.05,0,0,0,.33,1h0a2,2,0,0,0,.22.28,3,3,0,0,0,.22.28h0l.57.44h0l.67.28a2,2,0,0,0,1.14.05,3,3,0,0,0,.38-.05l.67-.29a2,2,0,0,0,.3-.22l.29-.23.44-.57a2.14,2.14,0,0,0,.34-1.06,1.4,1.4,0,0,0,0-.76,1.39,1.39,0,0,0-.19-.72,2.21,2.21,0,0,0-.59-.92l-.58-.44-.68-.29a2.18,2.18,0,0,0-1.13-.05,1.39,1.39,0,0,0-.72.2,1.42,1.42,0,0,0-.63.36,2.08,2.08,0,0,0-.73.8l-.29.68-.1.76.1.76a2.13,2.13,0,0,0,.51,1,2.19,2.19,0,0,0,.8.74Z"/><path class="cls-2" d="M403.29,380.25a2.84,2.84,0,0,0,.37.86,3.34,3.34,0,0,0,1.2,1.19,3.12,3.12,0,0,0,1.58.43,2.46,2.46,0,0,0,1.2-.27,2.32,2.32,0,0,0,1-.65,3.1,3.1,0,0,0,.8-1.38s0,0,0,0l-.32.75,0,0-.5.64s0,0,0,0l-.65.51,0,0,.66-.51.51-.66.33-.78.12-.87-.12-.87-.33-.78-.51-.66a2.36,2.36,0,0,0-1.05-.68,1.58,1.58,0,0,0-.82-.22,1.61,1.61,0,0,0-.87,0,1.55,1.55,0,0,0-.82.22,1.73,1.73,0,0,0-.73.42,3.35,3.35,0,0,0-1,1.31,1.58,1.58,0,0,0-.22.82,2.54,2.54,0,0,0,.05,1.31Z"/><path class="cls-2" d="M414,384.12v0a3.29,3.29,0,0,0-1.63-2.84l-.78-.33a3.25,3.25,0,0,0-1.75,0,2.46,2.46,0,0,0-1.12.58,2.54,2.54,0,0,0-.85.93,3.41,3.41,0,0,0-.45,1.66,3.47,3.47,0,0,0,.45,1.66l0,0,.51.67a2.43,2.43,0,0,0,1.06.67,1.59,1.59,0,0,0,.82.23,2.43,2.43,0,0,0,1.31-.06l.79-.33.66-.51a2.45,2.45,0,0,0,.68-1.06,2.4,2.4,0,0,0,.28-1.27Z"/><path class="cls-2" d="M416.55,386.76c.74,2.43,3.1,3.31,5.11,4.6a109.3,109.3,0,0,1,9.62,7.23c.7.57,1.69-.35,1-1a55.72,55.72,0,0,0-6.77-5.48c-2.29-1.6-6.8-3.17-7.91-5.79-.26-.62-1.27-.18-1.07.45Z"/><path class="cls-2" d="M324.16,419.24l-.47.27-.21.12a1.43,1.43,0,0,0-.42.39.77.77,0,0,0,.06.86.78.78,0,0,0,.81.28,1.44,1.44,0,0,0,.56-.33l.42-.32a.83.83,0,0,0,.34-.44.81.81,0,0,0-.08-.57.75.75,0,0,0-1-.26Z"/><path class="cls-2" d="M329.87,425.54l0,0-.23.1.07,0-.26,0h.1l-.27,0,.12,0-.25-.1.07,0-.22-.17.06.05a1.33,1.33,0,0,0,.49.28l-.25-.1,0,0a1.07,1.07,0,0,0,1.28-.16,1.31,1.31,0,0,0,.27-.47.75.75,0,0,0,0-.42.89.89,0,0,0-.12-.39,1.23,1.23,0,0,0-1.42-.58,1.26,1.26,0,0,0-.83.63,1,1,0,0,0-.11.6,1,1,0,0,0,.26.54,1,1,0,0,0,1.14.14Z"/><path class="cls-2" d="M334.07,430.5l.12,0a.78.78,0,0,0,.38-.2.41.41,0,0,0,.13-.1,1.33,1.33,0,0,0,.3-.53,1.09,1.09,0,0,0-1.35-1.34,1.19,1.19,0,0,0-.52.3,1.12,1.12,0,0,0-.3.5l-.05.12a1.06,1.06,0,0,0,0,.56,1,1,0,0,0,.27.46,1.08,1.08,0,0,0,.46.27,1.06,1.06,0,0,0,.56,0Z"/><path class="cls-2" d="M338.55,433.7c-.06-.09-.07,0,0,0s0-.13,0,0a1,1,0,0,1,0-.17c0,.19-.05,0,0,0s0-.05,0,0,0,.07,0,0,.14-.16,0-.05.12-.14.12-.14a1.29,1.29,0,0,0,.24-.5,1.23,1.23,0,0,0-1.78-1.36,1.8,1.8,0,0,0-.74,1.92,2.37,2.37,0,0,0,.72,1.41.93.93,0,0,0,1.46-1.12Z"/><path class="cls-2" d="M343.42,438.07l.28-.14a3.16,3.16,0,0,0,.44-.38l.22-.23a1.52,1.52,0,0,0,.41-.69,1.13,1.13,0,0,0-1.38-1.38,2.75,2.75,0,0,0-1.43,1.36,1.1,1.1,0,0,0,.17,1.29,1.12,1.12,0,0,0,1.29.17Z"/><path class="cls-2" d="M350.2,442l.15-.23a1.21,1.21,0,0,0,.19-.65,2.14,2.14,0,0,0-.07-.43l-.12-.28a.94.94,0,0,0-.3-.33,1.14,1.14,0,0,0-.71-.25,1.58,1.58,0,0,0-.59.16,1.17,1.17,0,0,0-.53.7,2.14,2.14,0,0,0-.07.43,1.21,1.21,0,0,0,.19.65c.05.08.09.16.14.23a1,1,0,0,0,.86.49,1,1,0,0,0,.86-.49Z"/><path class="cls-2" d="M354.73,446.73a1.4,1.4,0,0,0,.34-.13l.24-.18a1.22,1.22,0,0,0,.3-.53.57.57,0,0,0,0-.18.94.94,0,0,0,0-.47.77.77,0,0,0-.07-.16.88.88,0,0,0-.24-.38l0,0a1,1,0,0,0-.38-.24.92.92,0,0,0-.44-.1l-.31,0a1.19,1.19,0,0,0-.51.3,1.29,1.29,0,0,0-.33.55,1.23,1.23,0,0,0,0,.66,1.2,1.2,0,0,0,.55.72,1.09,1.09,0,0,0,.86.13Z"/><path class="cls-2" d="M361.27,449.6a.69.69,0,0,1,.13-.11,1.32,1.32,0,0,0,.36-.65,1.16,1.16,0,0,0,0-.64,1.15,1.15,0,0,0-.31-.53,1.13,1.13,0,0,0-.52-.3,1.16,1.16,0,0,0-.64,0,1.21,1.21,0,0,0-.65.36l-.11.13a.82.82,0,0,0-.25.39.89.89,0,0,0-.11.48.84.84,0,0,0,.11.47.8.8,0,0,0,.25.4l.25.19a1.23,1.23,0,0,0,.62.17l.33,0a1.24,1.24,0,0,0,.54-.32Z"/><path class="cls-2" d="M365.39,451.44l.1.16a.56.56,0,0,0,.05.08l.18.24.24.18.05,0,.27.11a.81.81,0,0,0,.46,0,.51.51,0,0,0,.29-.08.77.77,0,0,0,.36-.23l.18-.23.12-.28a.86.86,0,0,0,0-.45.88.88,0,0,0-.14-.43s0,0,0,0a.64.64,0,0,0-.1-.13.58.58,0,0,0-.21-.2.85.85,0,0,0-.19-.14l-.17-.1-.26-.11a.7.7,0,0,0-.43,0,.55.55,0,0,0-.28.07.79.79,0,0,0-.35.23l-.17.22-.11.26a.9.9,0,0,0,0,.43.86.86,0,0,0,.13.41Z"/><path class="cls-2" d="M373,454.64l.06.09-.11-.81V454a1.06,1.06,0,0,0,0,.61,1.1,1.1,0,0,0,.29.5l.11.11a.88.88,0,0,0,.36.24,1,1,0,0,0,.45.1,1,1,0,0,0,.44-.1.91.91,0,0,0,.37-.24l.18-.23a1.21,1.21,0,0,0,.16-.58l-.05-.31a1.19,1.19,0,0,0-.29-.51l-.11-.1a1.22,1.22,0,0,0-.5-.3,1.26,1.26,0,0,0-.61,0l-.05,0,.81.11-.09-.06-.24-.1a.72.72,0,0,0-.41,0,.46.46,0,0,0-.26.07.81.81,0,0,0-.34.21l-.16.21-.1.25a.82.82,0,0,0,0,.41.85.85,0,0,0,.12.38Z"/><path class="cls-2" d="M381.36,457.05s.19-.09.05,0,0,0,0,0l.15-.05s.23,0,0,0,0,0,0,0h.15a1.23,1.23,0,0,0,.91-.44,1.13,1.13,0,0,0,.31-.94,1,1,0,0,0-.53-.81,1.37,1.37,0,0,0-1.29,0,2.09,2.09,0,0,0-.49.4,2.92,2.92,0,0,0-.59.95.87.87,0,0,0,.31.9.88.88,0,0,0,.95.07Z"/><path class="cls-2" d="M386.8,456.06h0l.58-.45h0l-.26.11a.86.86,0,0,0-.31.29.58.58,0,0,0-.14.24.76.76,0,0,0-.09.42v.09l0,.29a.89.89,0,0,0,.2.37.5.5,0,0,0,.19.19.78.78,0,0,0,.38.2,1.14,1.14,0,0,0,.58,0l.26-.11a.81.81,0,0,0,.3-.28.49.49,0,0,0,.14-.24.87.87,0,0,0,.1-.42.28.28,0,0,1,0-.09l0-.29a.83.83,0,0,0-.2-.37.64.64,0,0,0-.2-.2.83.83,0,0,0-.37-.2h0l.59.45h0a1.06,1.06,0,0,0-.35-.35,1,1,0,0,0-.49-.13,1,1,0,0,0-.5.13,1,1,0,0,0-.34.35Z"/><path class="cls-2" d="M394.24,456.26a1.64,1.64,0,0,0-.19.72,1.47,1.47,0,0,0,.07.46,1.5,1.5,0,0,0,1,1,1.17,1.17,0,0,0,.86-.11,1.15,1.15,0,0,0,.46-.54,1.05,1.05,0,0,0,.06-.74,1.16,1.16,0,0,0-.52-.67l-.07,0,.23.18-.07-.08.18.23a.54.54,0,0,1-.1-.16l.11.27,0-.1,0,.29a.17.17,0,0,1,0-.1l0,.29v0a1.15,1.15,0,0,0-.11-.85,1.2,1.2,0,0,0-.52-.45,1.05,1.05,0,0,0-.72-.05,1.08,1.08,0,0,0-.66.5Z"/><path class="cls-2" d="M400.58,457.26l.05,0-.45-.26,0,0a.89.89,0,0,0,.35.23.68.68,0,0,0,.28.07l.16,0H401a.86.86,0,0,0,.42-.09.61.61,0,0,0,.14-.07,1.07,1.07,0,0,0,0-1.86h0a.86.86,0,0,0-.41-.13l-.19,0h0l-.29,0a.87.87,0,0,0-.37.19.37.37,0,0,0-.13.12l.45-.26-.05,0-.25.1a.77.77,0,0,0-.28.26.53.53,0,0,0-.13.23.66.66,0,0,0-.09.39l0,.27.1.24a.73.73,0,0,0,.26.29.78.78,0,0,0,.35.18Z"/><path class="cls-2" d="M406,453.48c-.11.09-.26.18-.35.27a2.78,2.78,0,0,0-.21.27l-.06.08-.11.25a.86.86,0,0,0,0,.42.61.61,0,0,0,.08.27.74.74,0,0,0,.22.34l.21.16.25.11a1.17,1.17,0,0,0,.82-.11l.07-.05,0,0a1.55,1.55,0,0,0,.24-.19,2.11,2.11,0,0,0,.19-.23l0,0,.06-.09.11-.25a.86.86,0,0,0,0-.42.59.59,0,0,0-.07-.26.8.8,0,0,0-.22-.34l-.22-.17-.25-.11a.75.75,0,0,0-.42,0,.69.69,0,0,0-.39.12Z"/><path class="cls-2" d="M412.71,453.32a1.09,1.09,0,0,0,0-2.18,1.09,1.09,0,0,0,0,2.18Z"/><path class="cls-2" d="M416.21,448h0a2.35,2.35,0,0,0-.25.19h0a2.07,2.07,0,0,0-.19.25h0l-.12.29a.91.91,0,0,0,0,.33s0,.3,0,.32h0c0,.05.15.36.07.15a.87.87,0,0,0,.06.15h0a2.35,2.35,0,0,0,.19.25l0,0a1.33,1.33,0,0,0,.26.21l.31.12a.87.87,0,0,0,.5,0,.78.78,0,0,0,.21,0l.31-.12h0a1.71,1.71,0,0,0,.26-.21l.19-.25h0a.93.93,0,0,0,.15-.46.92.92,0,0,0,0-.49l-.12-.29a1,1,0,0,0-.32-.35.52.52,0,0,0-.27-.15.84.84,0,0,0-.47-.11l-.33,0a1.24,1.24,0,0,0-.54.32h0l.25-.19h0l.29-.13h0l.33,0h0l.33,0h0l-.16,0a1,1,0,0,0-.34,0,.66.66,0,0,0-.31.09l-.16.07.3-.13h0l.33,0h0l.32,0h0l.29.12h0l.24.19h0l.19.25h0l.12.28h0l0,.31v0a1.17,1.17,0,0,0-1.76-1Z"/><path class="cls-2" d="M420.42,444.14l0,.38a1.69,1.69,0,0,0,.06.63,1.24,1.24,0,0,0,1.17.9,1.26,1.26,0,0,0,1.18-.9,1.69,1.69,0,0,0,.06-.63l0-.38a1.32,1.32,0,0,0-.35-.84,1.23,1.23,0,0,0-.85-.35,1.15,1.15,0,0,0-.84.35,1.32,1.32,0,0,0-.35.84Z"/><path class="cls-2" d="M426.4,439.25l-.07.44c0,.16-.06.34-.07.49a1.82,1.82,0,0,0,.08.52,1.25,1.25,0,0,0,1.21.92,1.27,1.27,0,0,0,1.2-.92,1.82,1.82,0,0,0,.08-.52c0-.15-.05-.33-.07-.49l-.07-.44-.12-.29a1,1,0,0,0-.31-.33,1.16,1.16,0,0,0-.71-.25,1.38,1.38,0,0,0-.6.16,1.19,1.19,0,0,0-.55.71Z"/><path class="cls-2" d="M429.77,435.25l0,.19.67-1.18-.15.12a1,1,0,0,0-.37.41l-.15.34a.91.91,0,0,0,0,.23.65.65,0,0,0,0,.39,1.18,1.18,0,0,0,.17.55l.08.1a1.46,1.46,0,0,0,.87.67l.38.06a1.18,1.18,0,0,0,.56-.13.73.73,0,0,0,.33-.19,1.13,1.13,0,0,0,.37-.41,1.42,1.42,0,0,0,.15-1.12.56.56,0,0,1,0-.12l-.15-.35a1.15,1.15,0,0,0-.38-.41,1.23,1.23,0,0,0-.53-.28,1.47,1.47,0,0,0-.78,0l1.32.35-.16-.14a1.51,1.51,0,0,0-.56-.33l-.34,0a.93.93,0,0,0-.49.11.61.61,0,0,0-.28.16.63.63,0,0,0-.23.23,1.22,1.22,0,0,0-.28.78Z"/><path class="cls-2" d="M433.16,427.1a2.1,2.1,0,0,0-.45.83,2.07,2.07,0,0,0,0,1v-.73a1.41,1.41,0,0,0,.07.95,1.58,1.58,0,0,0,.59.69l.1.06a1.43,1.43,0,0,0,1.43,0,1.55,1.55,0,0,0,.57-.67,1.41,1.41,0,0,0,.1-.73,1.77,1.77,0,0,0-.19-.56l.15.34,0-.08a1.51,1.51,0,0,0-.52-.75.68.68,0,0,0-.32-.18,1.08,1.08,0,0,0-.56-.13h0l1,.41-.08-.08.22.28a1,1,0,0,1-.08-.14l.13.32a.75.75,0,0,1,0-.16l0,.34a.21.21,0,0,1,0-.11l0,.33v0a1.4,1.4,0,0,0-.06-.81,1.25,1.25,0,0,0-.51-.6,1.56,1.56,0,0,0-.63-.17,1.23,1.23,0,0,0-.88.37Z"/><path class="cls-2" d="M435.6,420.93a1.65,1.65,0,0,0-1.13,1.55l.18-.65a1.5,1.5,0,0,0,.15,1.7,1.56,1.56,0,0,0,1.64.58,1.41,1.41,0,0,0,.94-.94,1.33,1.33,0,0,0-.35-1.31,2,2,0,0,0-.37-.28l.28.22-.19-.18.21.27a1.42,1.42,0,0,0-.54-.52l.47.46a.3.3,0,0,1,0-.08l.12.31,0-.11.05.32a.2.2,0,0,1,0-.11l-.05.32,0-.05-.12.28a.16.16,0,0,1,0-.07l-.18.23,0,0a1.28,1.28,0,0,0,.32-.66,1.09,1.09,0,0,0-.14-.73,1.17,1.17,0,0,0-1.3-.53Z"/><path class="cls-2" d="M435.9,415a1.28,1.28,0,0,0-.2.26,2.71,2.71,0,0,0-.13.3h0a1.27,1.27,0,0,0,0,.67s.11.27.13.3h0a1,1,0,0,0,.2.26l.13.1.13.11a1.37,1.37,0,0,0,.31.13l.17,0a.62.62,0,0,0,.33,0,.82.82,0,0,0,.17,0,.76.76,0,0,0,.16-.06l.19-.08.12-.1.13-.1v0l.19-.24h0a1.57,1.57,0,0,0,.12-.3,1.26,1.26,0,0,0,0-.61,1.29,1.29,0,0,0-.3-.52,1.19,1.19,0,0,0-.51-.3,1.3,1.3,0,0,0-.62,0h0l.31,0h0l.32,0h-.05l.29.12,0,0,.25.2-.13-.1a.85.85,0,0,0-.42-.22,1.86,1.86,0,0,0-.34,0l.33,0h0l.3.12h0l.25.19h0l.19.25h0l.12.29h0l0,.32v0l0,.33v0l0-.32a.91.91,0,0,0-.1-.46.63.63,0,0,0-.16-.27.93.93,0,0,0-.34-.31l-.29-.12-.32,0a1.32,1.32,0,0,0-.85.35Z"/><path class="cls-2" d="M435.37,409.09l0,.31a2.32,2.32,0,0,0,.05.38,1.26,1.26,0,0,0,.3.51,1,1,0,0,0,.7.29,1,1,0,0,0,.71-.29,1.26,1.26,0,0,0,.3-.51,2.32,2.32,0,0,0,.05-.38l0-.31a1.08,1.08,0,0,0-.31-.76,1.12,1.12,0,0,0-.77-.32,1.07,1.07,0,0,0-.76.32,1,1,0,0,0-.31.76Z"/><path class="cls-2" d="M565.94,453.11a23,23,0,0,1,3.25,9.45c.18,1.6,2.7,1.62,2.53,0a25.69,25.69,0,0,0-2.77-9.33c-.73-1.42-2.73-.39-2.45,1a35.17,35.17,0,0,0,1.52,5.42,1.34,1.34,0,0,0,2.59-.71l-1.41-5.48a1.35,1.35,0,0,0-2.61.72c3.76,14.86,5.23,30.22.62,45.08-4,13-11.61,24.53-15.72,37.48-.41,1.3,1.68,2.23,2.25.94,5.86-13.16,13.32-26.13,17.09-40.1,4-14.65,2.06-29.63-1.63-44.12l-2.61.72,1.43,5.47,2.59-.71a35.48,35.48,0,0,1-1.52-5.42l-2.45,1a25.23,25.23,0,0,1,2.6,8.31l2.44-.67a23.06,23.06,0,0,0-3.92-10.17c-.76-1.11-2.52-.12-1.82,1.06Z"/><path class="cls-2" d="M610.37,449c-2.62,9.51-3.49,19.65-4.41,29.45q-1.47,15.7-1.66,31.48c-.16,15.77.48,32-3.67,47.38a1.08,1.08,0,0,0,2.08.57c5-14,3.88-30.36,3.89-45,0-10.51.42-21,1.29-31.5.89-10.77,2.86-21.47,3.57-32.24,0-.63-.92-.74-1.09-.15Z"/><path class="cls-2" d="M255.89,714.13a1.54,1.54,0,0,0,0-3.07,1.54,1.54,0,0,0,0,3.07Z"/><path class="cls-2" d="M429.06,691.42c-3.3,2.45-7.74-.48-11.28-1s-7.22.16-10.81.52c-7.86.81-15.69.46-23.56.28-16.21-.38-31.69,2.53-47.52,5.68-7.85,1.57-15.67,3.26-23.37,5.42-7.17,2-14.13,4.85-21.43,6.37-15.76,3.27-32.25-.37-47.88,3.48-1.33.32-1.09,2.53.32,2.43,15.76-1.15,32.06.82,47.63-2.14,7.63-1.46,14.89-4.42,22.33-6.6,8.29-2.43,16.72-4.33,25.17-6.1s16.89-3.66,25.44-4.81c8.73-1.17,17.41-.92,26.19-.73,4.26.1,8.52.15,12.77-.16,4-.28,7.93-1.23,11.91-1.25,5,0,10.83,3.71,15.16,0,.75-.64-.26-2-1.07-1.38Z"/><path class="cls-2" d="M260.94,710.3c-4.61,2-6.56,6-7.94,10.68-2.18,7.34-3.5,15-5.19,22.48l2.37.32a87.31,87.31,0,0,1,6.35-30c.56-1.38-1.82-2.39-2.41-1-4.33,10-7.6,21.34-7.42,32.37a1.25,1.25,0,0,0,2.5,0c1.36-10.92,3-21.14,7.33-31.35l-2.55-.7a90.49,90.49,0,0,0-6.21,30.66,1.21,1.21,0,0,0,2.37.32c1.36-6.14,2.68-12.29,4.08-18.41,1.16-5.07,2.57-11.36,7.38-14.25.75-.45.09-1.46-.66-1.14Z"/><path class="cls-2" d="M349.59,718.42c-5,5.38-2.67,13-5.54,19.25l4.34,1.18q.69-7.53,1.79-15l-4.65-.63c-.06,9.34-3.11,18.34-2.67,27.7.12,2.59,3.95,3.31,4.65.63A53,53,0,0,1,350,744.1l-4.41-1.19,1,8.6a2.37,2.37,0,0,0,4.73,0q.36-3.39.71-6.77l-4.63.62a58.22,58.22,0,0,1,1.78,6.87l3.53-2.71-.84-1.29c-.79-2.76-4.44-2-4.73.64l-.25,2.28,4.72-.64-.24-1A2.43,2.43,0,0,0,347,749l-.46.82,4.37.57-.25-.8c-.56-1.75-3.51-2.6-4.38-.57l-.49,1.16,4.36,1.84.11-.27-3.75-.49.55,1a2.41,2.41,0,0,0,3.74.48l1.32-1.25-4-1,.58,1.61a2.4,2.4,0,0,0,4.33.57l.74-1.14-4.33-.57.13.74.61-2.31-.53.52,2.3-.61a3.28,3.28,0,0,0-3.05.36l3.23.85c-1.7-2.74-5.64-3.19-7.4-.26-1.3,2.18,1.21,4.14,3.22,3.22.46-.21,3.11,1.09,4.08,1a3.38,3.38,0,0,0,2.18-1.19c2.15-2.12-1.17-5.44-3.32-3.32,1.51-1.48-4.53-.88-5.31-.52l3.22,3.22-.75.26a2.4,2.4,0,0,0,3.23.85l-.59.12a2.36,2.36,0,0,0,2.3-.6c1.19-1.14,1.3-2,1-3.56-.36-2.15-3.31-2.11-4.33-.56l-.75,1.13,4.34.57-.56-1.62a2.41,2.41,0,0,0-4-1l-1.32,1.24,3.74.48-.54-1a2.4,2.4,0,0,0-3.74-.49,5.06,5.06,0,0,0-1.34,2.38c-.7,2.52,3.25,4.38,4.36,1.84l.51-1.16-4.38-.57.26.81a2.42,2.42,0,0,0,4.37.57l.47-.82-4.38-.57.24,1c.67,2.83,4.42,1.87,4.71-.64l.27-2.28-4.73.64a6.69,6.69,0,0,0,3.05,4.16c1.83,1.24,4-.8,3.53-2.72-.54-2.31-1.15-4.58-1.86-6.84-.84-2.66-4.35-2-4.64.63l-.72,6.77h4.73l-1-8.6c-.23-2-3.38-3.64-4.41-1.2a61,61,0,0,0-3,8.59l4.65.63c-.44-9.35,2.63-18.36,2.67-27.7,0-2.57-4.26-3.33-4.65-.63-.77,5.4-1.41,10.81-1.88,16.25-.19,2.24,3.4,3.25,4.34,1.17,2.87-6.32.71-13.56,4.06-19.65.86-1.56-1.26-3.34-2.54-2Z"/><path class="cls-2" d="M479.91,729.47c-1.51-.5-2.18.07-3.19,1.18-2.72,3-4.68,7.52-6.82,11-1.34,2.16,1.58,4.09,3.34,2.58,3-2.59,6-5.22,9-7.83l-3.83-2.23c-1.88,5.68-7,10.94-10.45,15.76-1.61,2.25,1.73,4.28,3.57,2.76l4-3.3-3.18-3.19c-4,4.21-8.24,8.16-12.64,12l3.24,3.24c2.49-2.29,4.89-4.64,7.22-7.08,2-2.14-1-4.9-3.15-3.16-3,2.37-6,4.74-9,7.08l2.67,3.46,3.69-3.69c1.76-1.76-.54-5-2.71-3.52-1.63,1.06-3.24,2.15-4.85,3.23l2.62,3.4,2.22-2.75a2.18,2.18,0,0,0-2.63-3.42l-2.77,1.47,3,3c.42-.57.84-1.15,1.27-1.72,1.36-1.85-1.24-4.07-3-3L455.09,756l3.06,3.06,1.26-2.42a2.26,2.26,0,0,0-3.54-2.73l-1.76,1.47,3.21,3.21a10.21,10.21,0,0,0,1.76-2.7c.92-1.94-1-4.44-3.14-3.14l-2.29,1.41,2.84,3.69a7.37,7.37,0,0,0,1.47-2.24c.83-1.87-1.12-4.9-3.26-3.26l.36,0,2.31,1.75-.15-.38-1.1,2.7.28-.17c2.62-1.6.22-5.74-2.42-4.13l-.27.17a2.41,2.41,0,0,0-1.1,2.7l.15.38c.35.89,1.21,1.9,2.3,1.76a4.2,4.2,0,0,0,2.53-1.08l-4-2.31-.44.75c-1.52,1.91.44,5.29,2.84,3.68l2.25-1.49-3.15-3.14-1,1.8a2.27,2.27,0,0,0,3.21,3.21l1.74-1.49-3.54-2.74-1.23,2.44c-1,1.91,1,4.28,3.06,3.06l2.36-1.44-3-3-1.24,1.74c-1.34,1.88,1.21,4,3,3l2.74-1.5-2.63-3.42L456.36,758c-1.42,1.79.37,4.8,2.62,3.4,1.65-1,3.29-2,4.93-3.1l-2.72-3.52-3.64,3.74c-2,2.09.95,4.84,3.12,3.12,3-2.37,6-4.7,9.05-7l-2.7-3.5c-2.36,2.42-4.79,4.74-7.31,7-2.21,2,1,5.13,3.24,3.24a164,164,0,0,0,12.58-12c2-2.15-1-5-3.18-3.19l-4,3.27,3.57,2.76c3.75-5.2,9-10.63,10.93-16.84.7-2.28-2.2-3.7-3.82-2.22-2.92,2.68-5.86,5.34-8.76,8.05l3.34,2.58c.36-.67,5.8-10.92,5.44-11,2,.75,3-2.58.9-3.25Z"/><path class="cls-2" d="M454.43,746c-4.87.65-6.22,6.86-4.43,10.84a9.83,9.83,0,0,0,5.51,4.85c2.8,1,5.77-.56,8.14-2L460,754.94a21.63,21.63,0,0,1-2.47,2.41c-2.26,1.88.16,6.06,2.92,5a21.71,21.71,0,0,0,8.81-5.93l-4.22-4.21c-1.58,1.88-6,7.16-8.45,4.87-2.87-2.7,1.29-5,2.42-7.26.69-1.34-.12-3.5-1.9-3.32-7,.72-9.42,8.89-5.31,14.09,2.11,2.67,5.18,4.3,8.53,3s6.67-4.48,8.93-7.14c2.45-2.89-1.62-7.09-4.22-4.21a15.88,15.88,0,0,1-6.19,4.36l2.92,5a20.09,20.09,0,0,0,2.47-2.41c2.15-2.47-.57-6.56-3.63-4.71-2,1.18-4.3,2.52-5.84-.07-1.11-1.86-.39-4,.85-5.57.77-1,.43-3.1-1.2-2.88Z"/><path class="cls-2" d="M466.2,758.16c5.71-2.52,10.5-8.61,14.32-13.36s8.14-9.88,10.15-15.58a1.77,1.77,0,0,0-2.94-1.71c-4.17,4.81-7.14,10.68-11.25,15.62-3.73,4.48-8.78,8.57-11.72,13.59-.58,1,.53,1.84,1.44,1.44Z"/><path class="cls-2" d="M347.51,716.45c-3.68,1.31-3.23,6.73-3.69,10a158.27,158.27,0,0,0-2,18.53c-.07,3.47.67,7.41,4,9.32a7.27,7.27,0,0,0,9.21-2L350.7,749l-1.94,1.79c-2.67,1.37-1.09,4.89,1.39,5.15,9,.93,6.84-7.57,5.64-13.5l-4.86,2.05a3.57,3.57,0,0,1,.72,3.67c.21,2.39-1.11,2.67-3.94.84l-4.83,2a9.79,9.79,0,0,0,8.39,5.09v-5.23a5.67,5.67,0,0,1-3.42-.56c-2.8-1-4.49,3.3-2,4.73,10.41,6,10.62-14,9.85-19.12-.3-2-3.1-1.58-3.62,0a29.5,29.5,0,0,0-1.13,6.95c-.06.7-.48,9.18-2.48,7.7l-2,4.73a11.3,11.3,0,0,0,4.8.8c3.39-.11,3.34-5,0-5.23a4,4,0,0,1-3.83-2.53c-1.55-2.72-5.35-.8-4.82,2,.88,4.77,5.77,6,9.84,4.21,5.6-2.39,4.87-7.08,3.33-12.18-.83-2.75-5.53-2.4-5.23.7.16,1.59.38,3.16.62,4.73.26,1.79,1.14,2.78-1,2.55l1.4,5.14a8.18,8.18,0,0,0,3.87-3.79c1.7-3.18-2.67-5.55-4.72-2.77q-4.87.1-4.1-4c0-1.18.08-2.36.15-3.54.14-2.57.34-5.14.55-7.71.37-4.55-.31-11.3,1.56-15.48.39-.85-.26-2.14-1.35-1.76Z"/><path class="cls-2" d="M249.9,730.48a58.06,58.06,0,0,0-4.32,16.61c-.24,1.83,3,2.29,3.26.44a59.6,59.6,0,0,1,3.69-14.09l-3.35-.93a68.77,68.77,0,0,0-1.59,7.65c-.33,2.34-.07,5.62-1.53,7.55l3.17,1.33c1.85-11.84,3.92-23.17,8.79-34.21,1.11-2.51-2.6-4.71-3.72-2.18-5,11.2-8.72,23.57-8.47,35.93a1.75,1.75,0,0,0,3.23.88c1.29-1.72,1.35-3.29,1.56-5.38a67.21,67.21,0,0,1,1.91-10.64c.58-2.21-2.56-3-3.35-.93a61.61,61.61,0,0,0-3.6,14.58h3.32c.66-5.35,2-10.48,3.1-15.73.26-1.19-1.53-2.13-2.1-.88Z"/><path class="cls-2" d="M528.13,586.54c3.83,0,3.84-6,0-6s-3.84,6,0,6Z"/></g></svg>