<svg id="Layer_1" data-name="Layer 1" xmlns="http://www.w3.org/2000/svg" viewBox="0 0 1272 1907"><defs><style>.cls-1,.cls-4{fill:#ddb5d4;}.cls-1,.cls-2,.cls-3,.cls-5{stroke:#ddb5d4;}.cls-1,.cls-2,.cls-3,.cls-5,.cls-6{stroke-miterlimit:10;}.cls-1,.cls-6{stroke-width:0.25px;}.cls-2,.cls-5{fill:#dcb229;}.cls-2,.cls-3{stroke-width:35px;}.cls-3{fill:none;}.cls-5{stroke-width:38px;}.cls-6{fill:#bcaf9f;stroke:#bcaf9f;}.cls-7{fill:#232321;}</style></defs><title>bgfc_pindrops</title><circle class="cls-1" cx="626.41" cy="566.06" r="548.16"/><line class="cls-2" x1="144.68" y1="783.09" x2="618.87" y2="1853.65"/><line class="cls-2" x1="1074.16" y1="815.73" x2="618.87" y2="1853.65"/><line class="cls-3" x1="611.18" y1="1036.39" x2="618.87" y2="1853.65"/><path class="cls-4" d="M282.19,1009.69l75.73,104.12c23.57,32.41,48,64.4,69.48,98.28a410.16,410.16,0,0,1,30.9,57.71l-4.2-10c12,28.37,19.18,58.31,26.69,88.08,8.1,32.11,17.25,63.74,31.72,93.66,8.64,17.87,20.05,34.18,33.12,49.1,4.34,5,12.12,9,18.39,10.72a41.39,41.39,0,0,0,27.13-2.1c15.57-6.57,25-21.22,25.62-38.08l7.09-182.86c1.14-29.29,2.85-58.62,3.3-87.92.51-33.29-5.77-65.89-28.5-91.4-19.56-22-48.6-29.62-74.7-40.59l10,4.2A101.51,101.51,0,0,1,512.77,1051l8.43,6.52a57.89,57.89,0,0,1-9.79-9.61l6.52,8.43q-.78-1-1.51-2.06L451,1104.78q4.27,5,8.29,10.17l-6.52-8.43a250.82,250.82,0,0,1,31.3,53.71l-4.2-10A255.38,255.38,0,0,1,497.52,1215L496,1203.88a248.17,248.17,0,0,1,1.58,47.46l71.14-29.47a143.47,143.47,0,0,1-12.61-14.07l6.52,8.43c-12.21-15.85-21.05-33.8-28.85-52.14l4.2,10c-8.72-20.69-16.53-41.74-25.57-62.3a252.11,252.11,0,0,0-33.38-55.53c-24.25-30.72-59.23-51.18-92.6-70.54C368.72,975.4,351,965,334.7,952.52l8.43,6.52a168.77,168.77,0,0,1-30.1-29.6l6.52,8.43Q316.63,934,314,930c-6-9.06-14.23-16.21-24.9-19.15-10-2.75-23.26-1.51-32.11,4.2s-16.73,14.28-19.15,24.9c-2.59,11.38-1,21.61,4.2,32.11l145,295.45c13.27,27,27.18,53.88,39,81.6l-4.2-10a316.93,316.93,0,0,1,17.51,53.31c4.23,18.76,7,37.82,11.39,56.53,9.08,38.5,27.15,73.06,52.39,103.34,13.44,16.12,29.49,29.6,46.59,41.69,11.87,8.4,30.06,7,42.07,0,12.41-7.26,21-21.41,20.64-36-1-38.69-1.62-77.42-3.1-116.1-.54-14.06-2.69-27.53-9.66-39.95-7.87-14-21.69-24.23-37-28.78-17.41-5.18-34.5-1.24-52-3.45l11.08,1.49a90.49,90.49,0,0,1-22.07-6.22l10,4.2a111.8,111.8,0,0,1-22.67-13.46l8.43,6.52A133.82,133.82,0,0,1,472.15,1339l6.52,8.43c-11.76-15.43-20.54-32.69-28.11-50.49l4.2,10c-12.69-30.15-23.58-61.09-35.56-91.53q-18.53-47.1-38-93.81-12.86-30.84-26.05-61.54l-47.06,61.22,93,22.66,46.51,11.33c13.6,3.31,27.5,6.11,40.51,11.42l-10-4.2a72.73,72.73,0,0,1,15.56,8.9l-8.43-6.52a64.41,64.41,0,0,1,9.93,10.09l-6.52-8.43A103.3,103.3,0,0,1,501,1188.55l-4.2-10c7.09,17,12.79,34.74,19,52.12l19.45,54.43,39.57,110.74L615,1343.13l-26-1.24c-13-.62-25.06,6.5-32.72,16.42-8.55,11.06-10,22.81-7.46,36.33q2.47,13.38,4.32,26.86l-1.49-11.08c6.62,49.47,6.21,99.1.22,148.6-2.51,20.75-5.41,41.47-7,62.32a307.7,307.7,0,0,0,2.84,71c3.85,24.53,13.42,49.35,28.59,69.12,6.91,9,13.49,16,24.9,19.15,10,2.75,23.26,1.51,32.11-4.2s16.73-14.28,19.15-24.9,2-22.78-4.2-32.11a553.22,553.22,0,0,1-48.44-89.88l4.2,10q-7.32-17.36-13.47-35.17c-4.13-12-8.55-24.31-10.61-36.88l1.49,11.08a48.8,48.8,0,0,1-.14-12.93l-1.49,11.08a40.82,40.82,0,0,1,1.82-6.64l-4.2,10a47.18,47.18,0,0,1,5.55-9.59l-6.52,8.43c6.19-8,13.86-14.68,20.94-21.82q11.29-11.37,22.16-23.15,21.74-23.55,41.72-48.65c15.15-19,29.81-38.46,43.57-58.52Q714,1413.5,722.54,1400c6.49-10.25,13-20.24,16.59-32,3.88-12.61,4.5-28.2.4-40.86-3.85-11.9-11.5-23.44-22.71-29.62a49,49,0,0,0-18-5.92c-8.17-1.1-10.82-.72-20.21.87-9.7,1.64-20.14,11-24.9,19.15-5.23,8.93-7.44,22.1-4.2,32.11s9.51,19.81,19.15,24.9c10.47,5.53,20.48,6.16,32.11,4.2l1-.16-11.08,1.49a12.59,12.59,0,0,1,2.62,0l-11.08-1.49a7.07,7.07,0,0,1,1.51.44l-10-4.2a6.83,6.83,0,0,1,1.32.73l-8.43-6.52a11.12,11.12,0,0,1,1.65,1.6l-6.52-8.43a15.48,15.48,0,0,1,1.26,2.11l-4.2-10a21.33,21.33,0,0,1,1.41,5.41l-1.49-11.08a36.69,36.69,0,0,1-.08,7.49l1.49-11.08a41.49,41.49,0,0,1-2.52,9.72l4.2-10c-3.13,7.18-8,13.81-12.22,20.41q-7.17,11.26-14.68,22.31-15,22.08-31.37,43.22l6.52-8.43q-21.27,27.45-44.6,53.2-12,13.18-24.47,25.87c-7.7,7.81-16.1,15.13-23,23.71-7.69,9.62-12.59,17-16.76,28.62a67.43,67.43,0,0,0-3.59,26.94c1.15,15.29,5.22,29.56,10,44a630.17,630.17,0,0,0,29.79,74.06,549.48,549.48,0,0,0,38.9,68.61l72-42.07a120.74,120.74,0,0,1-15.23-26.09l4.2,10a150.39,150.39,0,0,1-9.8-37.58l1.49,11.08c-4.36-34.46.19-69.29,4.48-103.53,5-40.06,8-79.93,5.67-120.32a653.25,653.25,0,0,0-9.92-80.48L589,1425.24l26,1.24c25.7,1.22,49.09-27.82,40.18-52.75l-66.4-185.82c-5.86-16.4-11.43-33-19.12-48.71a107.81,107.81,0,0,0-37.89-42.68c-13.49-8.84-29.7-13.72-45.26-17.57-15.91-3.94-31.85-7.76-47.78-11.64l-108.52-26.43c-16.46-4-33.4,1.47-43.8,14.93a39.48,39.48,0,0,0-8.2,19.71,21,21,0,0,0,0,11.08,31,31,0,0,0,4.95,15.49q7,16.25,13.87,32.55l-4.2-10q34.17,81,65.52,163.25c10.45,27.42,20.26,55.54,34.84,81.1,15.06,26.41,35.78,49.9,61.93,65.75,13.18,8,28.35,14.33,43.64,16.7,9.56,1.48,18.66,2.52,28.27,2.14,6.22-.24,12.41-.6,18.61.12l-11.08-1.49a36.83,36.83,0,0,1,7.76,2l-10-4.2a28.11,28.11,0,0,1,4.56,2.53l-8.43-6.52a26,26,0,0,1,4,3.89l-6.52-8.43a28.54,28.54,0,0,1,3,5.29l-4.2-10a42.88,42.88,0,0,1,2.16,9l-1.49-11.08c1.05,9.73.86,19.65,1.12,29.43l.82,30.93L529,1558l62.7-36q-3.87-2.73-7.61-5.62l8.43,6.52a204.21,204.21,0,0,1-35.47-35.71l6.52,8.43a205.26,205.26,0,0,1-25.42-43.45l4.2,10c-13.72-32.64-16.29-68-25.16-102-9.87-37.77-28-73-45.08-107.9l-101-205.92L314,930,242,972c16.37,24.78,37.47,43.76,61.77,60.58,19.5,13.49,40.46,24.63,60.75,36.85a360.22,360.22,0,0,1,33.18,22.19l-8.43-6.52A175.11,175.11,0,0,1,421,1116.32l-6.52-8.43c12.19,16.09,21.07,34.23,28.91,52.75l-4.2-10c19.22,45.75,34.1,94.52,70.61,130.12a41.91,41.91,0,0,0,45.52,8.62c15.85-6.69,24.54-21.14,25.62-38.08a278.87,278.87,0,0,0-14-105.6,299.41,299.41,0,0,0-57-99.9c-6.35-7.41-19.87-12.64-29.47-12.21a43,43,0,0,0-25.25,8.95c-6.89,5.32-12.95,12.92-14.93,21.65-2.36,10.36-2.23,23.1,4.2,32.11,10.65,14.93,23.69,27,40.3,35.08,13.9,6.77,28.58,11.69,42.84,17.61l-10-4.2c7.94,3.35,15.65,7.17,22.57,12.36l-8.43-6.52a60.79,60.79,0,0,1,10.32,10.18l-6.52-8.43a62.58,62.58,0,0,1,7.48,13.09l-4.2-10a88.56,88.56,0,0,1,5.27,20.73l-1.49-11.08c2.09,16.66.95,33.49.3,50.21l-2.29,59-4.61,118.91-2.63,67.95,71.14-29.47q-3.55-4.06-6.86-8.32l6.52,8.43a201,201,0,0,1-24.75-43.44l4.2,10c-21.72-51.88-27.44-108.82-49.2-160.71-13.67-32.58-31-62.63-51-91.69-19-27.55-39.08-54.39-58.77-81.46l-70.49-96.91c-6.57-9-13.76-16.08-24.9-19.15-10-2.75-23.26-1.51-32.11,4.2S280.41,967,278,977.58c-2.35,10.3-2.29,23.19,4.2,32.11Z"/><path class="cls-4" d="M597.8,1770c4.92-.66,9.87-.83,14.57-2.38,8.71-2.87,13.57-5.86,20.4-11.92A56,56,0,0,0,644.28,1741c5.06-9.11,6.49-18.68,10.44-28l-4.2,10a32.61,32.61,0,0,1,2.51-4.47l-6.52,8.43a18.52,18.52,0,0,1,3.38-3.41l-8.43,6.52a10.93,10.93,0,0,1,2.07-1.14l-10,4.2a10.67,10.67,0,0,1,2.35-.67l-11.08,1.49a5.27,5.27,0,0,1,1.61,0l-11.08-1.49a5,5,0,0,1,1.44.44l-10-4.2a5.76,5.76,0,0,1,1.25.82l-8.43-6.52a7.27,7.27,0,0,1,1.06,1.12l-6.52-8.43a13.74,13.74,0,0,1,1.19,2.08l-4.2-10a14.24,14.24,0,0,1,.8,3.09l-1.49-11.08a12.38,12.38,0,0,1,0,2.22L592,1690.9a5.67,5.67,0,0,1-.35,1.28l4.2-10a3.78,3.78,0,0,1-.62,1l6.52-8.43-.42.4,8.43-6.52-.49.31,10-4.2a3,3,0,0,1-1.2.3l11.08-1.49-.71,0,11.08,1.49-.79-.16,29.11,51.26q34.88-94,72.89-186.8,10.94-26.7,22.14-53.3l-80.37-22.16-23,65.33c-3.3,9.37-1.13,23.84,4.2,32.11a43.14,43.14,0,0,0,19.93,17.05c8.28,3.49,18.34,4.95,27.13,2.1,9.64-3.12,20.64-9.45,24.9-19.15L825,1347.8l89.45-203.57,50.54-115c4.46-10.16,7.82-20.92,4.2-32.11a43.17,43.17,0,0,0-14.93-21.65c-7-5.43-16.12-9.36-25.25-8.95-10.48.47-22.45,3.84-29.47,12.21A1884.51,1884.51,0,0,0,744.95,1191a1811.38,1811.38,0,0,0-119,224.08c-20.66,46.5-39.68,93.74-56.63,141.73h80.37q-1.25-7.62-2.29-15.27l1.49,11.08c-7.94-60-5.19-120.67,2.84-180.49l-1.49,11.08c7.08-52,18-103.29,29.63-154.4L598,1217.74a1480.22,1480.22,0,0,1,5,234.56h83.34l-14.94-232.74c-1.06-16.48-2.6-32.89-.45-49.34l-1.49,11.08a86.45,86.45,0,0,1,5.28-20.53l-4.2,10a50.8,50.8,0,0,1,6.29-10.92l-6.52,8.43a38.11,38.11,0,0,1,6.25-6.14l-8.43,6.52a34.93,34.93,0,0,1,6.76-3.82l-10,4.2a40,40,0,0,1,5.62-1.7l-51.26-29.11,23.9,151.54,4.2,10a31.49,31.49,0,0,0,10.73,11.69c7,5.43,16.12,9.36,25.25,8.95a49.43,49.43,0,0,0,21-5.69c10.12-5.35,15-14.9,19.15-24.9l76.1-185.25c4.88-11.89-.14-26.85-7.46-36.33s-20.12-17.93-32.72-16.42c-10.28,1.23-19.68,2.41-29.23,6.24a125.29,125.29,0,0,0-34,19.89c-15.81,12.59-26.24,30.25-33,49L661.75,1138l1.49,11.08a41.33,41.33,0,0,0,14.93,21.65,39.48,39.48,0,0,0,19.71,8.2c8.75,1.18,19,.15,26.57-4.95l190-127.66,53.92-36.24-57-57q-79.86,126.76-147.76,260.53-69.8,137.6-126.49,281.35-31.14,78.61-58.13,158.79c-3.34,9.9-1,23.28,4.2,32.11,5.06,8.64,15,16.89,24.9,19.15,23.06,5.25,43.8-7,51.26-29.11Q689.25,1587,724.28,1500q10-24.72,20.32-49.28l-4.2,10q39.88-94.4,85.64-186.17t97.28-180.36q29.09-50.06,60-99.05c9.46-15,6.69-38.37-6.52-50.5A49.59,49.59,0,0,0,958.4,933.9c-9.41-3-23.83-1.37-32.11,4.2l-190,127.66L682.39,1102l61.22,47.06c.49-1.37,1-2.71,1.57-4.06l-4.2,10a71.23,71.23,0,0,1,8-13.73l-6.52,8.43a74.9,74.9,0,0,1,13.28-13.3l-8.43,6.52a75.09,75.09,0,0,1,15-8.73l-10,4.2a69.82,69.82,0,0,1,16.71-4.58L758,1135.25l1.44-.17-40.18-52.75-76.1,185.25h80.37L699.61,1116c-1.46-9.25-11.1-20.65-19.15-24.9a45.08,45.08,0,0,0-32.11-4.2c-28.62,6.46-47.67,30.54-56.09,57.37-6.16,19.64-6.45,41-5.15,61.34l10.08,157.15,5.74,89.52c.71,11.1,4.16,21.43,12.21,29.47,7.23,7.23,19.09,12.67,29.47,12.21,23.66-1.06,40.31-18.32,41.67-41.67a1480.22,1480.22,0,0,0-5-234.56c-1.09-10.82-3.78-21.73-12.21-29.47a42.83,42.83,0,0,0-23.93-11.46c-19.58-2.63-41.1,9.53-45.72,29.85-21.19,93.17-40.76,188.63-38.64,284.66a627.64,627.64,0,0,0,8.46,87.66l4.2,10a31.49,31.49,0,0,0,10.73,11.69c7,5.43,16.12,9.36,25.25,8.95a49.43,49.43,0,0,0,21-5.69c9.66-5.1,15.66-15,19.15-24.9q18.08-51.2,39.2-101.24l-4.2,10q35.31-83.48,78.78-163.16a1811.7,1811.7,0,0,1,95.19-155.2q28.94-42.27,60.26-82.84l-6.52,8.43q22.49-29.1,46.12-57.29L893,987.14l-89.45,203.57-89.45,203.57-50.54,115,76.17,32.11,23-65.33c3.45-9.77.89-23.41-4.2-32.11s-15-16.89-24.9-19.15c-10.67-2.43-22.64-1.9-32.11,4.2l-8.43,6.52a41.63,41.63,0,0,0-10.72,18.39q-38.9,92.41-74.7,186.08-10.3,27-20.33,54c-3.42,9.22-1,24,4.2,32.11,5.65,8.76,14.32,17,24.9,19.15,16,3.24,31.65.63,43.74-11.13,8.78-8.54,13.27-20.42,13.63-32.54.59-20.1-11.49-39.28-29.93-47.06-24-10.14-48.95,1.17-62.89,21.85-6.4,9.49-7.81,20.46-12.09,30.7l4.2-10a30.23,30.23,0,0,1-3.27,5.56l6.52-8.43a20.79,20.79,0,0,1-2.58,2.53l8.43-6.52a11,11,0,0,1-2,1.2l10-4.2a10.1,10.1,0,0,1-2.26.73l11.08-1.49-1.23.16a46.36,46.36,0,0,0-29.47,12.21c-7.23,7.23-12.67,19.09-12.21,29.47.48,10.78,4,22,12.21,29.47,7.51,6.9,18.83,13.63,29.47,12.21Z"/><line class="cls-2" x1="1116.63" y1="766.15" x2="642.29" y2="1869.45"/><polygon class="cls-5" points="628.86 1873.35 623.71 1861.5 628.83 1849.64 639.09 1849.63 644.24 1861.48 639.12 1873.34 628.86 1873.35"/><circle class="cls-6" cx="624.11" cy="575.43" r="357.42"/><path class="cls-7" d="M663.69,242.74c-38.82,25.78-60.17,71-70.23,115.08s-12,89.46-19.88,133.88c-3.88,21.84-9.33,43.72-18.9,63.82-10.47,22-24.71,41.88-39.7,61-29.55,37.72-62.49,74.69-77.46,121.16-14,43.47-8.12,97.23,29.33,127.44,3.31,2.67,7.9,3.23,11.14,0,2.78-2.78,3.3-8.42,0-11.14-30.38-25-36.13-69.12-26.16-105.27,12.31-44.63,43.68-80.53,71.78-116.07,14.69-18.58,29-37.56,40.6-58.28a262.46,262.46,0,0,0,24.29-61.75c11.07-42.46,12.95-86.52,20.76-129.57,4.2-23.17,10.1-46.43,19.9-67.92,10.59-23.23,26.07-42.3,43.6-60.59,5.7-5.95-1.76-16.65-9.09-11.78Z"/><path class="cls-7" d="M669.59,250.08c-14.93-14.23-37.61-17-57.18-13.09-21.63,4.33-40.13,17.6-53.66,34.71C527,311.77,524,364.51,515.88,412.93c-4.37,26.06-10.38,52.37-23.5,75.57-12.39,21.9-30,40.42-41.1,63.14-11.26,23.12-16.15,48.58-19.66,73.87-3.76,27.1-7.25,54.36-9,81.68-2,30.41-1.45,61.55,5.41,91.37,5.15,22.37,15.22,45.52,36.08,57.27a2,2,0,0,0,2-3.4c-18.55-11.56-27.81-32.5-32.72-53-6.15-25.74-7.14-52.42-6-78.76s4.49-52.44,7.8-78.53c3.09-24.29,6.39-48.84,14.63-72,8.42-23.68,23.67-42.69,37.78-63.11,14-20.23,23.11-42.23,28.66-66.16,11.07-47.74,9.31-99.28,31.91-143.85,11-21.76,28-41.92,51.13-51.28a75.11,75.11,0,0,1,69,6,1,1,0,0,0,1.25-1.62Z"/><path class="cls-7" d="M663.49,248.88a4.05,4.05,0,0,0,4.73-2.05,2,2,0,0,0-1.18-2.89c-1.22-.5-2.49-.89-3.74-1.32l-.56,4.13c3.18,0,5.73,1.08,8.72,2,2.44.71,3.78-2.72,1.7-4-3-1.85-7-2.26-10.41-2.14a2.12,2.12,0,0,0-.56,4.13c1.26.36,2.52.77,3.81,1.06l-1.38-2.42q0,.68-.73.62a1.51,1.51,0,0,0-.4,2.95Z"/><path class="cls-7" d="M672.77,253c7.82,1.12,15.15,2.92,21.32,8.17,6,5.09,13.4,15.92,8.06,23.74-4.58,6.71-13.7,0-18.9,6.66-1.58,2-2.35,4.44-3.51,6.69-2.16,4.18-5.48,4.71-9.87,4.82-6.33.17-11.8.89-16,6.16-4.66,5.92-6.68,12.38-13.19,16.83-10,6.85-26.09,11.26-28.41,25.15-1,5.81,2,11.86,8.21,12.59,5.08.59,10-2.44,10.13-7.81.08-3.24-5.25-4.13-5.8-.79a2.79,2.79,0,0,1-5,1.4c-2.15-2.57-6.28.74-4.59,3.54a53.64,53.64,0,0,1,4.89,45.37c-3.71,10.65-12.16,28.75,2.31,35.88,9.13,4.49,21.26-5,18.88-14.95-1.22-5.13-6.19-9.65-11.71-8.45a7.8,7.8,0,0,0-5.39,11.27c1.36,2.78,5.74.82,4.93-2.08-.88-3.12,3-3.24,4.84-2.14,1,.59,1.63,2.82,1.65,3.94a7.42,7.42,0,0,1-2.48,5.1c-3.62,3.47-8.68,3.15-11.29-1.25-5.1-8.59,2-19,4.54-27.26,5-16.12,2.5-34-6.1-48.39l-4.59,3.54c4.33,5.24,13.69,2.77,14.8-4l-5.8-.79c-.08,3.27-4.93,1.92-6,.22-2.46-3.88,1.22-9.16,3.9-11.82,4.46-4.44,10.44-7.07,15.87-10.09,5.11-2.85,10-6.11,13.57-10.87,4.34-5.85,5.88-13.74,14.36-14.36,5.28-.38,11.17.43,15.37-3.55a19.39,19.39,0,0,0,4-6.44c1.82-4,2.73-5.57,7.7-5.35,6.16.27,11.15-1.39,14.19-7.21,2.91-5.59,1.66-12.28-.92-17.72-5.75-12.16-20.33-21.66-34-19.21-1.65.3-1.71,3.15,0,3.39Z"/><path class="cls-7" d="M644.31,479.15c-3.95-5.66-7.77-14.89,0-19.36,4.62-2.68,10.87-2,15.9-1.13,7.66,1.33,16.81,3.59,23.84-1.17a11.31,11.31,0,0,0,4.87-8c.42-3.16-.44-6.25-.38-9.4,0-2,.29-4.15,1.73-5.66,1.94-2,4-.93,6.15-.7,2.82.3,5,.42,6.5-2.5,1.57-3.16.75-7.35-.47-10.46L701,422.66c4.09.4,4.85-3.68,4.69-6.84-.18-3.39-1.23-5.73,2.31-6.3a11.62,11.62,0,0,1,3.22.26,61.09,61.09,0,0,0,6.71,1c3.36.09,6.6-1,7.68-4.54.91-3-.06-6.5-.45-9.46-.48-3.73-1-7.46-1.62-11.18a103.89,103.89,0,0,0-6-22.11c-2.06-5-2.88-8.29-.95-13.46a82.79,82.79,0,0,0,3.84-12.93c2.26-11.39,2.5-23.53-3.12-33.93-3.31-6.13-6.36-13.81-11-19.05-1.35-1.53-3.58.71-2.24,2.24,2.59,2.94,4.26,7.37,6.13,10.79,1.65,3,3.48,5.95,5,9,3.37,6.76,3.71,14.1,3.24,21.54a71.76,71.76,0,0,1-2.76,15.65c-1.1,3.74-3.25,7.49-3.61,11.39-.29,3.14.92,5.8,2.12,8.61A89.22,89.22,0,0,1,719,378.37c.95,4.12,1.66,8.29,2.28,12.47.51,3.43,3.66,15-.81,16.68-4.29,1.6-9.27-1.73-13.73-.86a5.5,5.5,0,0,0-3.88,2.51c-1,1.59,0,10.74-1.92,10.55a1.48,1.48,0,0,0-1.42,1.86c.8,2,2,5.55.94,7.67-1.8,3.56-5.57.24-8.14.58-3.31.44-5.53,3.6-6.36,6.61-1.73,6.24,2.84,13.92-3.45,18.58-4.11,3-10.38,2.77-15.17,2.12-8.18-1.11-18-4.41-25.47.84-8.13,5.68-4.84,16.32,1.23,22.07.58.55,1.66-.18,1.16-.89Z"/><path class="cls-7" d="M708.09,353.24c-8.77-7.6-13-18.81-25.8-20.4-11.77-1.46-22.53,5.26-29.65,14.15-1,1.26.73,3.07,1.81,1.81,7.41-8.67,17.8-15.59,29.73-13,11.14,2.46,13.65,13.92,23,18.58.72.36,1.59-.59.91-1.18Z"/><path class="cls-7" d="M689.62,364.3c-15.66-1.06-32.18.32-45-10.53-1.46-1.24-3.6.87-2.12,2.12C656,367.35,673,366.17,689.62,367.3c1.93.13,1.92-2.87,0-3Z"/><path class="cls-7" d="M700.54,368.31a26.88,26.88,0,0,0-8.37-3.53c-1.88-.46-2.68,2.44-.8,2.89A24.32,24.32,0,0,1,699,370.9c1.62,1.06,3.13-1.54,1.51-2.59Z"/><path class="cls-7" d="M700,368.72c1.49-6.59-2.26-12.68-7.82-16.11-7.47-4.61-17.09-3.23-25.09-.94a1.29,1.29,0,0,0,.69,2.49c6.54-1.3,13.59-2.76,20.08-.41,6.24,2.26,10.48,8,10,14.69a1.11,1.11,0,0,0,2.16.29Z"/><path class="cls-7" d="M699.56,371a1.42,1.42,0,0,0-1.8,1.26,13.36,13.36,0,0,1-2.35,2.62,16.42,16.42,0,0,1-6.25,3.24,21.87,21.87,0,0,1-11.14.11c-9-2.26-15-9.21-21.83-14.87a1.15,1.15,0,0,0-1.62,1.62c7.24,8,17.7,16.32,29,16.11a20.63,20.63,0,0,0,12.17-3.91c1.77-1.36,5.37-4.47,4.23-7a.82.82,0,0,0-.92-.38l-.44.12a.78.78,0,0,0-.53.93l.06.34c.16.85,1.29.53,1.38-.19Z"/><path class="cls-7" d="M703.36,397.11c-3.9-4-11.18-1.7-13.3,3.1-2.7,6.09,3.5,12.86,9.73,11.78a1.26,1.26,0,0,0-.33-2.46c-4.49.41-9.54-4.27-6.9-8.89,2-3.44,6.54-3.87,9.78-2.2a.85.85,0,0,0,1-1.33Z"/><path class="cls-7" d="M704.34,406.53l-.33-.24a.93.93,0,0,0-.93,0,1.72,1.72,0,0,0-.94,2.46c1.13,1.8,3.16,0,4.54.59,1.21.55,2.28-1.17,1.06-1.82a10.06,10.06,0,0,0-6.42-1.09l.86,2a5.75,5.75,0,0,1,3.9-.79l.31-2.3h-5.92l.61,2.27a5.3,5.3,0,0,1,3.59-.54l-.3-2.29a4,4,0,0,1-3.4.35v2.48a17.31,17.31,0,0,1,13.05,2,1.4,1.4,0,0,0,1.41-2.41,20.12,20.12,0,0,0-15.15-2.05,1.3,1.3,0,0,0,0,2.48,7.42,7.42,0,0,0,5.34-.67c1.24-.62.47-2.19-.63-2.33a8.6,8.6,0,0,0-5.15.9,1.23,1.23,0,0,0,.61,2.27l5.92-.09a1.17,1.17,0,0,0,0-2.35,8.06,8.06,0,0,0-5.34,1.17,1.12,1.12,0,0,0,.86,2,7.4,7.4,0,0,1,4.76.75l1.06-1.82a3.24,3.24,0,0,0-1.54-.39,20.5,20.5,0,0,0-2.77.93.89.89,0,0,0,.9-1.54Z"/><path class="cls-7" d="M696.05,372.64a6.8,6.8,0,0,0,.68-4.28,1.48,1.48,0,0,0-1.65-1.07,1.52,1.52,0,0,0-1.3,1.47,7.12,7.12,0,0,1-.48,1.45,1.5,1.5,0,0,0,2.89.8,9.86,9.86,0,0,0,.59-2.25l-2.95.4a3.33,3.33,0,0,1-.38,2,1.53,1.53,0,0,0,.54,2.05,1.52,1.52,0,0,0,2.05-.54Z"/><path class="cls-7" d="M696.13,372.53a14.42,14.42,0,0,0,1.48-2.51L695,368.5a10.22,10.22,0,0,1-1.36,2.28,1.54,1.54,0,0,0,0,2.12,1.51,1.51,0,0,0,2.12,0,12.27,12.27,0,0,0,1.83-2.88,1.55,1.55,0,0,0-.54-2.05,1.51,1.51,0,0,0-2.05.54,14.42,14.42,0,0,1-1.48,2.51,1.51,1.51,0,0,0,.54,2.05,1.54,1.54,0,0,0,2.05-.54Z"/><path class="cls-7" d="M695,376.67a13.7,13.7,0,0,0,4.27-4.7c.8-1.43-1.22-3.16-2.36-1.82a14.09,14.09,0,0,1-3.26,3c-1.63,1-.13,3.62,1.51,2.59a16.59,16.59,0,0,0,3.87-3.43l-2.36-1.82a10.44,10.44,0,0,1-3.19,3.62c-1.58,1.08-.08,3.68,1.51,2.59Z"/><path class="cls-7" d="M695.22,375.36a13.71,13.71,0,0,0,5.28-5.12l-2.59-1.51a10.27,10.27,0,0,1-4.09,4.55c-1.68.95-.17,3.54,1.51,2.59a13,13,0,0,0,5.17-5.62,1.5,1.5,0,0,0-2.59-1.51,10.73,10.73,0,0,1-4.21,4c-1.7.91-.19,3.5,1.51,2.59Z"/><path class="cls-7" d="M701.91,423c.63-3.18-1.56-5.44-4.69-5.89-2.49-.36-5.16.3-7.61.63-3.83.52-7.65,1.08-11.48,1.62-1.5.21-.86,2.49.63,2.28l9-1.26c2.6-.36,12.32-3.05,12.26,2.36,0,1,1.65,1.32,1.86.25Z"/><path class="cls-7" d="M677.86,421.65A114.6,114.6,0,0,0,695,433.18c1.07.58,2.41-1,1.36-1.77a114.89,114.89,0,0,0-17.48-11.09c-.8-.41-1.81.69-1,1.33Z"/><path class="cls-7" d="M698.43,423.2c-2-.09-4.08-.21-6.13-.25-.92,0-1.16,1.46-.22,1.63a6.66,6.66,0,0,0,5-.82.92.92,0,0,0,0-1.57,11.11,11.11,0,0,0-12.55.39,1,1,0,0,0,0,1.69,9.08,9.08,0,0,0,9.16.12,1,1,0,0,0,.45-1.12,3.93,3.93,0,0,0-6-2.62,1,1,0,0,0,.24,1.82,15.42,15.42,0,0,0,6.14.43l-.27-2a11.06,11.06,0,0,0-3.68,2,1,1,0,0,0,.44,1.68,10.46,10.46,0,0,0,6.72-.81,1,1,0,0,0,0-1.74,9,9,0,0,0-3.42-.94c-.93-.08-1.26,1.13-.71,1.73a2.76,2.76,0,0,0,3.74.55,1,1,0,0,0-.24-1.85l-1.69-.07-.16-1.23c.4-.61-3,.13-2-.06a7.11,7.11,0,0,0-2.36,1.16,1,1,0,0,0,.79,1.87c1.56-.42,5.3-1.22,5.78,1.36l1.53-1.18-1.24-1.9-2.07.28a7.67,7.67,0,0,1,.45,5.16l1.95-.25.11-1.64h-1.52q2.41,1.29-.09,2.65l-1.24.5-2.22-2.3-.4,1.53,3.45,1L697,427a9.54,9.54,0,0,1-8.78-2.23l-.23,1.81a7.05,7.05,0,0,1,6.88.3l.28-2.13a4.56,4.56,0,0,1-5.89-2.23l-.7,1.72a9.45,9.45,0,0,1,8.67,2.36l.24-1.84a6.1,6.1,0,0,1-5.68-.05l.54,1.33a2.56,2.56,0,0,1,4.48-1.05l1.43-1.86a15.85,15.85,0,0,0-12.47-2.93c-1.32.22-1,2.41.32,2.34l10.26-.56a1.21,1.21,0,0,0,.6-2.23,10.83,10.83,0,0,0-11.76.61,1.23,1.23,0,0,0-.55,1.36,3.16,3.16,0,0,0,4.63,1.92c1.22-.55.42-2.12-.61-2.24l-6.46-.73c-1-.11-1.42,1.09-1,1.81a7,7,0,0,0,5.88,3.61,14.76,14.76,0,0,0,4-.22c1.22-.21,2.42-.56,3.65-.74,1.07-.16,5.73-.56,6.22,0l.18,1.39.17-.3a1.14,1.14,0,0,0-2-1.15l-.19.29a1.18,1.18,0,0,0,.18,1.39c1.84,2.32,4.34-.88,2.13-2.84-4.93-4.39-14.72,3.86-18.15-2.63l-1,1.81,6.46.73-.61-2.24-1.1-.48-.55,1.36a8.45,8.45,0,0,1,9.34-.62l.6-2.23-10.26.57.32,2.34a13.51,13.51,0,0,1,10.65,2.68c1.14.85,2.25-.9,1.43-1.86a4.91,4.91,0,0,0-8.42,2.1,1.2,1.2,0,0,0,.54,1.33,8.39,8.39,0,0,0,8.05,0,1.18,1.18,0,0,0,.24-1.84A11.85,11.85,0,0,0,688,422a1.18,1.18,0,0,0-.7,1.72,6.83,6.83,0,0,0,8.53,3.3,1.18,1.18,0,0,0,.28-2.13,9.5,9.5,0,0,0-9.22-.28,1.16,1.16,0,0,0-.23,1.81,11.9,11.9,0,0,0,11,2.77,1.14,1.14,0,0,0,.79-1.39,4.28,4.28,0,0,0-7-2.15,1.11,1.11,0,0,0-.17,1.35,6.83,6.83,0,0,0,5.5,3.32,1.06,1.06,0,0,0,1-.55c.77-1.7.23-3.31-1.72-3.72a1.13,1.13,0,0,0-1.24.5A2.9,2.9,0,0,0,698.1,431c3.61-1.26,2.34-5.55.18-7.44a1.09,1.09,0,0,0-1.52,0,3.29,3.29,0,0,0-.43,4.23,1.08,1.08,0,0,0,1.95-.25,9.43,9.43,0,0,0-.48-6.29c-.41-1-2.18-1-2.07.28a4.25,4.25,0,0,0,2.29,3.71,1.06,1.06,0,0,0,1.53-1.18c-.72-3.84-5.38-3.59-8.34-2.79l.79,1.87a4.74,4.74,0,0,1,4-1,1,1,0,0,0,.88-.5l.2-.31a1,1,0,0,0-.16-1.23c-2.26-2.39-4.92,2.13-.29,3.46l-.24-1.85-1.29-.23-.71,1.73,2.41.66V422a7,7,0,0,1-5.17.62l.44,1.68,2.8-1.47c1-.33.91-2.11-.27-2a14.23,14.23,0,0,1-5.61-.35l.24,1.82q3.68,1.42,0,1.3a6.55,6.55,0,0,1-3.57-1.09v1.69a9.51,9.51,0,0,1,10.64-.51V422.2l-3.69.79-.22,1.63c2,0,4.09-.12,6.13-.19a.61.61,0,0,0,0-1.22Z"/><path class="cls-7" d="M697.75,422.79a2.8,2.8,0,0,0,0,2.1,1.62,1.62,0,0,0,1.72,1c1.49-.3,2-2.5.36-3-1.37-.41-1.92,1.68-.59,2.12,0,0-.71-1.12-.49-1.11,0,0-.07.26,0,.11s0,0,0,0,0,0-.1,0l.5-.14c.28,0,.22.22.15-.17a3.48,3.48,0,0,1-.05-.71.74.74,0,0,0-1.45-.2Z"/><path class="cls-7" d="M699.77,424.17a.35.35,0,0,1,.12.16q0-.2,0,.06t0-.14c0-.3-.07.21,0-.09s-.08.12,0-.09-.1.11.05-.08-.05,0,0,0l-.28,0a.32.32,0,0,1-.17-.06l0,0a.85.85,0,0,1-.26-.53q.06-.29,0-.11l.06-.15q.16-.18.07-.09t.09-.06l-.2.12c-.07,0-.33.12,0,0-.12,0-.29,0,.06,0a.71.71,0,0,1,.7.51,1.23,1.23,0,0,0-1.35-.88,1.22,1.22,0,0,0-1.07,1.21,1.68,1.68,0,0,0,1.19,1.63,2.08,2.08,0,0,0,1.59-.29,2,2,0,0,0,.69-3,1.89,1.89,0,0,0-3,.42,2.34,2.34,0,0,0-.35,1.71q.17.4.09.21t0,0a2.21,2.21,0,0,0,.18.39,1.7,1.7,0,0,0,.7.62.94.94,0,0,0,.95-1.62Z"/><path class="cls-7" d="M698.44,423.17a4.94,4.94,0,0,0,.14.9c.07.18.31.51.29.7-.12,1,1.17,1.56,1.94,1.11a1.3,1.3,0,0,0,0-2.23l-.13-.08.43.43c-.17-.29-.32-.59-.51-.88a5.72,5.72,0,0,0-.73-.79c-.63-.68-1.56.06-1.43.83Z"/><path class="cls-7" d="M699.42,424.45a21.16,21.16,0,0,0-.64-2.58l-.76,1.35s.29-.16.15-.06-.1,0,0,0,.07,0,0,0a.75.75,0,0,1,.24.25l-.15-.57q.06-.26,0,0a.94.94,0,0,0,0,.49c.08.23,0-.09,0,.05s0-.23,0,.06a1.24,1.24,0,0,0,0,.73,1.16,1.16,0,0,0,1.38.79,1.55,1.55,0,0,0,1.06-1.63,2.06,2.06,0,0,0-.23-1l-.19-.25q-.42-.35-.15-.1t.06,0l-.21-.28a2.36,2.36,0,0,0-2.86-.61,1.09,1.09,0,0,0-.5,1.24,23.07,23.07,0,0,0,1.25,2.63c.46.85,1.67.24,1.5-.63Z"/><path class="cls-7" d="M699.21,424.26c.51-.33,1-.59,1.54-.94a1.14,1.14,0,0,0-.27-2A17.93,17.93,0,0,0,696.9,420a1.25,1.25,0,0,0-1.45.71,1.22,1.22,0,0,0,.5,1.54,19.1,19.1,0,0,0,3.94,1.15l-.49-1.87c-.42.45-.77.95-1.17,1.41-.59.66.17,1.82,1,1.29Z"/><path class="cls-7" d="M695.4,421c1.61.31,4,.12,4.56,2.1.26.92-.6,7.21-2.62,5.31l-1.55,2,1.71.89,1-2.35a15.88,15.88,0,0,1-5.58-2,1.32,1.32,0,0,0-1.79,1.79,7.62,7.62,0,0,0,3.58,3.16,1.31,1.31,0,0,0,1.32-2.27l-2.85-1.78-1.32,2.25c.82.39,1.65.78,2.48,1.15,1.46.65,2.75-1.41,1.28-2.19-.81-.42-1.62-.83-2.44-1.22a1.31,1.31,0,0,0-1.32,2.25l2.84,1.8,1.32-2.27a5.39,5.39,0,0,1-2.64-2.21l-1.79,1.79a17.85,17.85,0,0,0,6.22,2.25c1.33.22,2.4-1.63,1-2.35l-1.71-.88c-1.24-.63-2.67,1-1.55,2a3.54,3.54,0,0,0,4.55.31c1.7-1.17,2.11-3.43,2.29-5.34.42-4.38-2.8-6.68-7-6a.92.92,0,0,0,0,1.76Z"/><path class="cls-7" d="M680.32,421.76a2.63,2.63,0,0,0,2.5,1.51,1,1,0,0,0,.72-1.74c-.79-.72-2.42-1.77-3.38-.79a1,1,0,0,0-.16,1.21c.31.53.75.6,1.29.72a3,3,0,0,1,1,.46l.51-1.9a5.31,5.31,0,0,1-1.69-.28c-.45-.09-1,.3-.81.81Z"/><path class="cls-7" d="M682.93,365.95c-3.81,1.84.67,7.5,2.86,8.71,3.92,2.17,8.6.48,11-3.11l-2.74-.74c-.1,1.67-.5,3.23-2.3,3.52a8.79,8.79,0,0,1-4.07-.32c-2.62-1-3.32-4.09-2.3-6.48a1.5,1.5,0,0,0-2.59-1.51c-3.44,4.48,0,10.6,5.28,11.16a8.56,8.56,0,0,0,6.94-2.39c1.56-1.56,2.92-4.46,1.68-6.56a1.53,1.53,0,0,0-2.05-.54l-.17.09a1.52,1.52,0,0,0-.69,1.69l0,.15c.54,1.85,3.44,1.06,2.89-.8l0-.15-.69,1.69.17-.09-2.05-.54c.65,1.11-1.27,3.09-2,3.58a5.68,5.68,0,0,1-4.09.83,4.1,4.1,0,0,1-2.62-6.63L682.74,366c-1.76,4.14-.57,9.36,4.1,10.88,2,.65,5.36.92,7.34,0s2.65-4.13,2.76-6.12c.08-1.53-2-1.9-2.74-.74a5.5,5.5,0,0,1-6.06,2.51,5.58,5.58,0,0,1-2.76-1.88c-.36-.45-1.65-2.26-1-2.8,1.17-.92-.32-2.52-1.51-2Z"/><path class="cls-7" d="M687.07,366.37c1.35,1.28,3.84,1.37,5.59,1.27a1.3,1.3,0,0,0,.34-2.55,14.69,14.69,0,0,0-4.41-.85,1.35,1.35,0,0,0-.36,2.64,32.27,32.27,0,0,0,5.41,1.25,1.26,1.26,0,0,0,.63-2.34,32.18,32.18,0,0,0-5.33-1.51l-.36,2.64a12.27,12.27,0,0,1,3.72.66l.34-2.55a19.55,19.55,0,0,1-2.77.06,8.26,8.26,0,0,0-2.5,0,.74.74,0,0,0-.33,1.23Z"/><path class="cls-7" d="M685.25,366.13c-2.28,2.27-.6,6.35,2,7.57,3.11,1.46,6.93-.79,7.55-4.06h-2.69c.29,1.58-2.5,1.62-3.32,1.12s-1.16-2.26,0-2.7L687.24,366a3.74,3.74,0,0,0-.41,1.17c-.19,1.16,1.18,2.26,2.13,1.24a3.65,3.65,0,0,0,.7-1c.49-1-.34-2.52-1.59-2.07a4.37,4.37,0,0,0-.72,7.85c3.09,1.83,8.37-.18,7.43-4.3-.29-1.27-2.49-1.39-2.69,0-.26,1.77-2.07,3.32-3.91,2.54s-1.88-2.86-1.57-4.51a.83.83,0,0,0-1.37-.8Z"/><path class="cls-7" d="M688.6,366.21c-1.6-.27-2.65,1.32-2.82,2.75a3.68,3.68,0,0,0,2.3,3.84,4.48,4.48,0,0,0,4.67-.69c1.35-1.17,1.95-3.74.14-4.79a1.27,1.27,0,0,0-1.84,1.42c.26.78.67,1.3-.23,1.84a2.17,2.17,0,0,1-2,.1,1.54,1.54,0,0,1-1-1.58c.07-.76.63-1.16,1.07-1.71.29-.37.27-1.08-.31-1.18Z"/><path class="cls-7" d="M665.76,461.1c-1.92,8.58.45,17.41,5,24.86,4.71,7.8,12.15,13.25,18.11,20,12.38,14,20.32,32.33,18.25,51.3-2.1,19.22-15,34.68-26.43,49.35-11.69,15-22.11,31.34-40.53,38.47-9,3.48-18.52,5.4-28,7.1s-20.52,2.23-29,7.42c-7,4.27-.62,15.27,6.44,11,7.32-4.42,17.71-4.53,26-6,9-1.56,18-3.33,26.55-6.4a74.66,74.66,0,0,0,23.41-13.08c7.94-6.73,14-15.5,20.31-23.68,12-15.57,25.81-31.15,31.62-50.36,5.86-19.37,1.36-40.6-8.62-57.81a103.74,103.74,0,0,0-19.75-24.15c-4.14-3.79-8.22-7.28-11-12.28-2.65-4.84-3.66-10.42-4.77-15.77-.79-3.79-6.76-3.72-7.59,0Z"/><path class="cls-7" d="M659.68,492.12a2,2,0,1,0-2-2,2,2,0,0,0,2,2Z"/><path class="cls-7" d="M661.91,497c2.56,0,2.57-4,0-4s-2.57,4,0,4Z"/><path class="cls-7" d="M662.42,499.16a2.86,2.86,0,0,0,.31.74,1.91,1.91,0,1,0,2.62-2.62,2.86,2.86,0,0,0-.74-.31,1.8,1.8,0,0,0-2.19,2.19Z"/><path class="cls-7" d="M664.55,502a2.56,2.56,0,0,0,.3,1,1.35,1.35,0,0,0,2.31,0,2.56,2.56,0,0,0,.3-1,1.45,1.45,0,0,0-2.91,0Z"/><path class="cls-7" d="M664.36,509c4.25-3.84,10.57-2.77,12.59,2.94.81,2.29.93,5.37-.86,7.26s-4.76,1.84-7.11,1.58c-1.66-.19-1.65,2.42,0,2.6,3.37.37,7.27-.11,9.47-3s1.95-7,.53-10.1c-2.78-6.11-12.05-8.92-16.21-2.49-.64,1,.76,2,1.58,1.22Z"/><path class="cls-7" d="M655.9,509.78c-12.12-1.43-12.46,20.62-.42,20.31,4.9-.13,8.75-4.29,9.28-9a11.12,11.12,0,0,0-9.53-12.18c-1.81-.3-2.6,2.48-.77,2.78,4,.66,7.25,3.44,7.57,7.71a7.41,7.41,0,0,1-5.85,8c-4.58.84-7.56-4-7.53-8.13,0-4.63,3.36-7,7.42-8.21a.66.66,0,0,0-.17-1.29Z"/><path class="cls-7" d="M645.21,513.52c-7.56-6.47-16.2,5.27-12.73,12.59.83,1.74,3.41.22,2.59-1.51-2-4.22,3.25-13,8-9,1.46,1.25,3.59-.86,2.12-2.12Z"/><path class="cls-7" d="M656.65,513.5a6.9,6.9,0,0,0-6.49,6.89A5.63,5.63,0,0,0,657.6,526c3.66-1.24,5-5.87,3.28-9.15-1.84-3.46-6.83-4-8.32,0-.5,1.35,1.34,2.15,2.26,1.31l1.59-1.44-2.1-1.62a17.44,17.44,0,0,1-2,3.33c-.91,1.22,1,2.62,2.07,1.59l1.62-1.6-2-1.58-1.72,3.1c-.68,1.22,1,2.71,2,1.55a13.53,13.53,0,0,1,2.31-2.25l-1.73-1.73A13.77,13.77,0,0,1,653,520.4a1.25,1.25,0,0,0,1.77,1.77,20.68,20.68,0,0,0,2.89-2.84l-2-1.52-2.91,4c-.72,1,.72,2.44,1.71,1.71l3.2-2.37L656,519.42,652.85,524c-.64.92.42,2.09,1.41,1.83a6.94,6.94,0,0,0,5.18-7.34l-2.14.88c1,1.14.4,1.75.24,2.94-.2,1.54,0,1.35.84.74a3.86,3.86,0,0,0,1.44-2.23,4.24,4.24,0,0,0-2.12-4.76c-1.47-.74-2.76,1.48-1.29,2.21a1.65,1.65,0,0,1,.55,2.62c-.59.63-1.44.72-1.8,1.61a2.07,2.07,0,0,0,1.95,2.78c3.94.06,3.74-5.57,2-7.68a1.26,1.26,0,0,0-2.14.88,4.45,4.45,0,0,1-3.34,4.94l1.41,1.83,3.18-4.58c.69-1-.71-2.44-1.71-1.71l-3.2,2.37L655,523l2.92-4c.83-1.14-1.05-2.6-2-1.52A20.68,20.68,0,0,1,653,520.4l1.77,1.77a17.12,17.12,0,0,0,2.25-3.41c.5-1-.62-2.54-1.73-1.73a16.24,16.24,0,0,0-2.85,2.61l2,1.55,1.75-3.08a1.31,1.31,0,0,0-2-1.58l-1.64,1.59,2.07,1.59a17.45,17.45,0,0,0,2-3.31,1.34,1.34,0,0,0-2.1-1.62l-1.61,1.43,2.26,1.31c.66-1.71,2.64-.67,3.3.31a4.13,4.13,0,0,1,.57,3,3.49,3.49,0,0,1-4.34,2.87c-2.21-.65-2.68-3.34-1.94-5.25a6.45,6.45,0,0,1,4.08-3.65.69.69,0,0,0-.18-1.36Z"/><path class="cls-7" d="M670.22,512.12c-.42-1.94,2-1.7,2.89-1.12a5.23,5.23,0,0,1,1.79,2c.78,1.49.86,3.53-.76,4.47a2.72,2.72,0,0,1-3-4.52l-1.62-1.62-1,1.56c-.59,1,.65,2.37,1.63,1.63l2.22-1.69-1.76-1.35a10.64,10.64,0,0,1-1.7,3.3c-.85,1.14.91,2.26,1.86,1.44l2.78-2.4-1.85-1.43-2.17,3.51a1.18,1.18,0,0,0,1.6,1.6l2.56-1.67-1.59-1.59-2.17,3.88c-.54,1,.57,2.22,1.58,1.58l2.85-1.82-1.57-1.57a1.74,1.74,0,0,1-1.5.89l1.11,1.9c2.06-1.8,3.86-4.47,1.71-7L672.67,514a1.88,1.88,0,0,1,.82,2.81l2.08.86c-.34-2.94,0-6.88-3.87-7.43a4.11,4.11,0,0,0-3.51,1.08c-1.14,1.22-.25,4.15-.12,5.68l2.27-.62-1.69-3.65L667,514.4a3.53,3.53,0,0,1,1.32,4h2.35c-.19-.55-1.79-7-.3-6.67l-.54-2c-2.38,1.85-3,5.72-.72,7.88a1,1,0,0,0,1.64-1.26c-.89-1.74-.79-3.63.81-4.88a1.23,1.23,0,0,0-.54-2c-5.33-1.31-3.6,7.17-2.7,9.69a1.23,1.23,0,0,0,2.35,0,6,6,0,0,0-2.45-6.74c-1.1-.78-2.12.68-1.67,1.67l1.69,3.65a1.23,1.23,0,0,0,2.27-.62l-.26-3c-.08-1-.1-1.67,1.26-1.34,1.94.48,1.45,3.51,1.62,5,.1.91,1.34,1.78,2.08.86a4.26,4.26,0,0,0-1.35-6.59,1.19,1.19,0,0,0-1.44,1.87c1.19,1.31-.76,2.9-1.64,3.66s.1,2.07,1.11,1.9a4,4,0,0,0,2.87-1.93,1.15,1.15,0,0,0-1.57-1.57l-2.86,1.81,1.58,1.58,2.19-3.87c.55-1-.58-2.24-1.59-1.59l-2.57,1.65,1.6,1.6,2.19-3.5c.74-1.19-.88-2.26-1.85-1.43l-2.79,2.39L671,516a12.52,12.52,0,0,0,2-3.86c.29-.92-.91-2-1.76-1.35l-2.21,1.7,1.63,1.63,1-1.57c.59-1-.64-2.35-1.62-1.62-2.41,1.8-3.12,5.46-.85,7.72a5.16,5.16,0,0,0,7.59-.75c1.94-2.87.17-6.88-2.57-8.52-2.48-1.49-6.75-.06-5.21,3.35.36.8,1.52.21,1.35-.57Z"/><path class="cls-7" d="M645.54,519.73c3.62,0,3.63-5.62,0-5.62s-3.63,5.63,0,5.63Z"/><path class="cls-7" d="M642.29,521v.19a2.88,2.88,0,0,0,5.77,0V521a2.88,2.88,0,0,0-5.77,0Z"/><path class="cls-7" d="M647.24,526.79l-.09.21a2.37,2.37,0,0,0,0-2.31,2.29,2.29,0,0,0-3.95,0,2.37,2.37,0,0,0,0,2.31l-.09-.21a2.2,2.2,0,0,0,2.07,1.57,2.24,2.24,0,0,0,2.07-1.57Z"/><path class="cls-7" d="M651.49,534.59c3.12,0,3.13-4.85,0-4.85s-3.13,4.85,0,4.85Z"/><path class="cls-7" d="M656,534.86c3,0,3-4.64,0-4.64s-3,4.64,0,4.64Z"/><path class="cls-7" d="M659.68,533.23c2.81,0,2.81-4.36,0-4.36s-2.81,4.36,0,4.36Z"/><path class="cls-7" d="M662.65,530.95a1.76,1.76,0,0,0,0-3.52,1.76,1.76,0,0,0,0,3.52Z"/><path class="cls-7" d="M664.14,529c3.17,0,3.17-4.92,0-4.92s-3.17,4.92,0,4.92Z"/><path class="cls-7" d="M664.83,522.33c-.11.25-.22.5-.32.76a1.93,1.93,0,1,0,3.73,0c-.1-.26-.21-.51-.32-.76a1.8,1.8,0,0,0-3.1,0Z"/><path class="cls-7" d="M666.37,521.36c2.85,0,2.86-4.43,0-4.43s-2.86,4.43,0,4.43Z"/><path class="cls-7" d="M665.26,517.06c2.58,0,2.58-4,0-4s-2.58,4,0,4Z"/><path class="cls-7" d="M664.51,513.92c2.85,0,2.86-4.43,0-4.43s-2.86,4.43,0,4.43Z"/><path class="cls-7" d="M660.42,510.84c2.71,0,2.72-4.22,0-4.22s-2.72,4.22,0,4.22Z"/><path class="cls-7" d="M656.33,509c2.71,0,2.72-4.22,0-4.22s-2.72,4.22,0,4.22Z"/><path class="cls-7" d="M652.61,510.31c3,0,3-4.64,0-4.64s-3,4.64,0,4.64Z"/><path class="cls-7" d="M645.64,508.51a2.24,2.24,0,0,0-.1.34,2.32,2.32,0,1,0,4.47,0,2.24,2.24,0,0,0-.1-.34,2.27,2.27,0,0,0-2.14-1.63,2.31,2.31,0,0,0-2.14,1.63Z"/><path class="cls-7" d="M643.94,512a2.7,2.7,0,0,0-.26,2.14,2.36,2.36,0,0,0,2.24,1.7,2.39,2.39,0,0,0,2.24-1.7,2.69,2.69,0,0,0-.26-2.14,2.3,2.3,0,0,0-3.95,0Z"/><path class="cls-7" d="M660.37,505l-.28.43a2.12,2.12,0,0,0,2.89,2.89l.43-.28a2.22,2.22,0,1,0-3-3Z"/><path class="cls-7" d="M662.81,503.27l-.28.43a1.88,1.88,0,0,0,2.55,2.55l.43-.28a2,2,0,1,0-2.69-2.69Z"/><path class="cls-7" d="M668.61,528.66c3.62,0,3.63-5.62,0-5.62s-3.63,5.63,0,5.63Z"/><path class="cls-7" d="M672.7,528c3.21,0,3.22-5,0-5s-3.22,5,0,5Z"/><path class="cls-7" d="M677.16,526.27c2.94,0,2.95-4.57,0-4.57s-2.95,4.57,0,4.57Z"/><path class="cls-7" d="M680.51,522.46a1.83,1.83,0,0,0,0-3.66,1.83,1.83,0,0,0,0,3.66Z"/><path class="cls-7" d="M681.63,518.42c2.9,0,2.9-4.5,0-4.5s-2.9,4.5,0,4.5Z"/><path class="cls-7" d="M681.26,514.93c2.71,0,2.72-4.22,0-4.22s-2.72,4.22,0,4.22Z"/><path class="cls-7" d="M630.29,527.67a2.57,2.57,0,1,0-2.57-2.57,2.6,2.6,0,0,0,2.57,2.57Z"/><path class="cls-7" d="M643.17,529.56l-.35.07a1.88,1.88,0,0,0,0,3.59l.35.07a1.93,1.93,0,1,0,0-3.73Z"/><path class="cls-7" d="M631,516.4c3.17,0,3.17-4.92,0-4.92s-3.17,4.92,0,4.92Z"/><path class="cls-7" d="M634.75,515.33a2.88,2.88,0,1,0-2.88-2.88,2.92,2.92,0,0,0,2.88,2.88Z"/><path class="cls-7" d="M638.84,513.05c3.17,0,3.17-4.92,0-4.92s-3.17,4.92,0,4.92Z"/><path class="cls-7" d="M640.07,511.09l.15.28a2.3,2.3,0,0,0,3.95,0l.15-.28a2.46,2.46,0,1,0-4.25,0Z"/><path class="cls-7" d="M661.48,491.06l0,.19a2.84,2.84,0,0,0,.77,1.85,2.62,2.62,0,0,0,3.7,0,3,3,0,0,0,.77-1.85l0-.19a2.63,2.63,0,0,0-.77-1.86,2.68,2.68,0,0,0-1.86-.77c-1.3.06-2.8,1.17-2.64,2.64Z"/><path class="cls-7" d="M668.23,498.83l.17.7a1.77,1.77,0,0,0,3.39,0l.17-.7a1.93,1.93,0,1,0-3.73,0Z"/><path class="cls-7" d="M669,501.29l0,.19a2.16,2.16,0,0,0,4.32,0l0-.19a2.18,2.18,0,0,0-4.36,0Z"/><path class="cls-7" d="M655.52,486.87a2.45,2.45,0,0,0,.75,1.32,2.3,2.3,0,0,0,3.18,0,2.47,2.47,0,1,0-3.93-1.32Z"/><path class="cls-7" d="M659.09,488.11l.14.71a2.07,2.07,0,0,0,4,0l.14-.71a2.22,2.22,0,1,0-4.27,0Z"/><path class="cls-7" d="M674.56,499.57a1.37,1.37,0,0,0,0-2.74,1.37,1.37,0,0,0,0,2.74Z"/><path class="cls-7" d="M675.37,501l.07.35a1.81,1.81,0,0,0,3.46,0L679,501a1.86,1.86,0,1,0-3.59,0Z"/><path class="cls-7" d="M676.68,506l.31.13a2.38,2.38,0,0,0,2.78-.36,2.44,2.44,0,0,0,.36-2.78l-.13-.31a2.35,2.35,0,0,0-2.09-1.2,2.53,2.53,0,0,0-1.72.71,2.5,2.5,0,0,0-.71,1.72,2.37,2.37,0,0,0,1.2,2.09Z"/><path class="cls-7" d="M679.77,509a1.37,1.37,0,0,0,0-2.74,1.37,1.37,0,0,0,0,2.74Z"/><path class="cls-7" d="M678,510.82a6.49,6.49,0,0,0,1.44,2.67,2,2,0,0,0,3.36-1.39,5.19,5.19,0,0,0-.66-2.42,2.36,2.36,0,0,0-1-1.28,2.19,2.19,0,0,0-1.65-.22,2.17,2.17,0,0,0-1.5,2.64Z"/><path class="cls-7" d="M680.88,514.69l.37,0a1.83,1.83,0,0,0,0-3.66l-.37,0a1.86,1.86,0,0,0,0,3.73Z"/><path class="cls-7" d="M668.35,495.8a4.47,4.47,0,0,0-.8-1.06,2,2,0,0,0-2.11-.4,1.92,1.92,0,0,0-1.19,1.77,4.15,4.15,0,0,0,.31,1.29,2.07,2.07,0,1,0,3.79-1.6Z"/><path class="cls-7" d="M596.41,514.11a4.84,4.84,0,0,0,2.94-1.82l-2.51-1.46c-1.42,4.71,4.55,5.67,6.7,2.06l-2.74-.36c.82,3.2,5.08,7,7.07,2.35l-2.8-.76c.45,3.34,4,7.09,6.41,3l-2.74-.36c.78,4.27,5.79,5.42,7.53,1.24l-2.95-.4c.07,1.33.05,3.08,1.22,4,1.67,1.29,5.07-1.08,6.23.89a1.51,1.51,0,0,0,2.36.3l1.84-2.16-2.51-.66c.52,3.67,3.6,4.11,6.83,4.27,1.93.09,1.93-2.91,0-3-1.57-.08-3.62.16-3.93-2.07a1.51,1.51,0,0,0-2.51-.66L621,520.67l2.36.3a4.11,4.11,0,0,0-3.2-2.43c-1.42-.22-3.73,1.17-3.84-.93a1.51,1.51,0,0,0-2.95-.4L611.64,516a1.52,1.52,0,0,0-2.74-.36l-.82-1.5c-.17-1.25-2.13-2.32-2.8-.76q-1.6-.15-1.58-1.63a1.52,1.52,0,0,0-2.74-.36l-1.22.25a1.51,1.51,0,0,0-2.51-1.46l-1.61,1c-1.83.59-1,3.49.8,2.89Z"/><path class="cls-7" d="M589.71,506.31c-.93,1.51-.55,3.39,1.34,3.81a5.07,5.07,0,0,0,4.26-1.19l-2.12-2.12a4.41,4.41,0,0,0-.62,5.77c1.11,1.56,3.71.06,2.59-1.51a1.47,1.47,0,0,1,.15-2.14c1.43-1.3-.69-3.41-2.12-2.12.11-.09-.34.19-.43.23a4,4,0,0,1-.69.16c-.13,0-.27,0-.4,0,.13,0,0-.09.11,0l.12.1a.84.84,0,0,1,.24.8s.2-.36.17-.32c1-1.65-1.58-3.16-2.59-1.51Z"/><path class="cls-7" d="M590.64,506.29l2.44-.33c0,.77,1.12,1.4,1.67.69l3.57.72a1.14,1.14,0,0,0,1.67.68l4.13,1.38a1.19,1.19,0,0,0,2.15.28c1.47-2.2,2.54,1.52,4,2.22a1.24,1.24,0,0,0,1.67-.44l2.3,1a1.27,1.27,0,0,0,1.85.75l4.43,1a1.31,1.31,0,0,0,2.24,0l2.78-.28a1.35,1.35,0,0,0,1.69,1.29c1.54-.55,2.17-1.58,2.06,1.74-.06,1.74,2.59,1.72,2.7,0s.44-4.88-1.49-5.8-2.55.95-4,1.48l1.69,1.29c-.56-4.82-5.44-4.85-7.7-1h2.24a5.25,5.25,0,0,0-8-1.82l1.85.75c-.87-3.42-5.07-5.71-6.85-1.52l1.67-.44c-1.6-.77-1.34-3.25-3.32-3.74s-3,1.1-3.9,2.44l2.15.28c-1.21-3.25-4.5-4.59-7.54-2.72l1.67.68c-.76-4.15-5.23-5-7.3-1.31l1.83.5c-.32-4.36-5.28-4.06-5.74.15-.08.77,1.15.91,1.34.18Z"/><path class="cls-7" d="M669.23,501.36c-.09,0-5.1-1.84-3.39-3,1-.67.75-2.54-.66-2.43l-1.91-1.81c.9-.91,0-2.69-1.3-2.24L660.3,491c.58-.92-.4-2.42-1.52-2q-2-1.93-.14-3.12a1.32,1.32,0,0,0-1.87-1.87c-1.53,1.46-3.47,3.69-2.22,5.94a4,4,0,0,0,4.94,1.64l-1.52-2c-2.11,3.38,1.46,5.88,4.69,4.76l-1.3-2.24c-3.13,3.15,0,6.67,3.81,6.31l-.66-2.43c-1.46,1.07-2.25,2.63-1.29,4.4,1.1,2,3.69,2.44,5.76,2.62,1.08.09,1.07-1.38.23-1.73Z"/><path class="cls-7" d="M663.74,488.93q3.11,1.66,1.87,4.61a1.19,1.19,0,0,0,.83,1.46c2,.28,5.39,1.71,3.83,4.54a1.3,1.3,0,0,0,1.11,1.94q3.34-.11,3.41,3.46a1.38,1.38,0,0,0,1.32,1.73l.43.28c-.91,1.26,1.19,2.9,2.17,1.68,1.85-2.31.11-4.58-2.61-4.7l1.32,1.73c1.38-4-2.48-6.59-6-6.76l1.11,1.94c2.24-4.28-1.66-7.7-5.74-8.18l1.15,1.51c1.06-3.14-.73-5.47-3.58-6.63-.84-.34-1.26.94-.59,1.39Z"/><path class="cls-7" d="M591.17,503.67a3.68,3.68,0,0,0-1.87.68,4.45,4.45,0,0,0-1.33,1.58.89.89,0,0,0,.76,1.33,2,2,0,0,0,1.71-.91,5,5,0,0,1,.4-.53s.16-.06.14,0,.08,0,0,0a.58.58,0,0,1-.31-.65.94.94,0,0,0,1.81.5c.43-1.17-.83-1.86-1.82-1.71a1.92,1.92,0,0,0-1.22.7c-.13.17-.49.87-.73.87l.85,1.12a3.54,3.54,0,0,1,1.9-1.79.63.63,0,0,0-.31-1.16Z"/><path class="cls-7" d="M592,506.32c-.52.2-1,.46-1.52.64,0,0-.15,0-.13,0v0q.34,0-.39.53l-1.2-2.06a11.24,11.24,0,0,0-1.89,2.37c-.43,1,.53,2.3,1.59,1.59a10.78,10.78,0,0,0,2-2.21c.72-.86.07-2.5-1.2-2.06a2.14,2.14,0,0,0-.72,3.57c1.32,1.4,3.49.27,4.38-1.06a.85.85,0,0,0-1-1.24Z"/><path class="cls-7" d="M644.48,508.9a1.94,1.94,0,0,1,.81.94c.33.77,1.53.21,1.33-.56a1.93,1.93,0,0,0-1.66-1.52c-.64-.1-1.16.78-.48,1.14Z"/><path class="cls-7" d="M645.69,508.68a5.29,5.29,0,0,0-1.3.43c-.82.36-.22,1.58.59,1.39a5.25,5.25,0,0,0,1.29-.47c.79-.41.2-1.48-.57-1.35Z"/><path class="cls-7" d="M651.63,510c.44-.43,1-.34,1.56-.48a.82.82,0,0,0,0-1.56c-1-.43-2.1.41-2.65,1.2s.54,1.37,1.09.84Z"/><path class="cls-7" d="M658.47,507.13c.25-.21,1.53-1.68,1.9-.89.61,1.29,2.28.29,2.11-.89-.07-.46.61-.59.91-.48a1.2,1.2,0,0,0,1.47-.84c.17-.92.11-1.31,1-1a1,1,0,0,0,1.29-1v-.25a1.21,1.21,0,0,0-.6-1c-2.13-1.21-3.65.73-4,2.68l1.47-.84a2.93,2.93,0,0,0-3.77,3.41l2.11-.89c-1.38-2.72-4.55-.92-5.34,1.21-.33.9.85,1.33,1.45.84Z"/><path class="cls-7" d="M663.72,507.57c-2.33.31-3.59,2.92-3.54,5.07a1.05,1.05,0,0,0,2.06.28,8,8,0,0,1,.93-2.16c.28-.44.91-1.4,1.3-1.56,2.28-.91-.3-3.71-1.42-1.84-.49.82-1.28,1.45-1.77,2.29a10.11,10.11,0,0,0-1.07,2.71l2.06.28c-.1-1.73.89-2.68,1.93-3.89.34-.39.16-1.27-.49-1.18Z"/><path class="cls-7" d="M633.82,519.75c-1.63,3.11.13,7,3.06,8.65,3.51,2,7.79.66,10.5-2,1.29-1.27-.59-3-1.93-1.93-2.26,1.77-7.19,1.79-8.29-1.59-1-3.14,2.46-5.77,4.81-7.06,1.45-.8.42-2.84-1.08-2.55-7.35,1.42-8.19,11-2.88,15.28a1.31,1.31,0,0,0,1.86-1.86c-1.6-1.77-2.91-3.75-2.56-6.25a5.18,5.18,0,0,1,4.32-4.47l-1.08-2.55c-4,2.21-8.55,6.84-5.46,11.51,2.84,4.31,8.47,4.54,12.28,1.48l-1.93-1.93c-4.21,4.27-10.47,1.84-10-4.25a.9.9,0,0,0-1.66-.45Z"/><path class="cls-7" d="M642.21,516.14q-.19-.12.12,0l.32.06.49.15a1.87,1.87,0,0,1,.82.54l1.82-1.4a4.28,4.28,0,0,0-2.08-1.34,2.7,2.7,0,0,0-2.42-.09,1.09,1.09,0,0,0-.22,1.69,3.58,3.58,0,0,0,1.77.77,14.35,14.35,0,0,0,1.63.66,1.16,1.16,0,0,0,.89-2.12,3.71,3.71,0,0,0-1.79-.67,2.9,2.9,0,0,0-1.7.46.67.67,0,0,0,.34,1.24Z"/><path class="cls-7" d="M642.13,519.14q.79-.18.88.39l-.13.5a1.45,1.45,0,0,1-1.07-.07,2.25,2.25,0,0,1-.23.29,4.59,4.59,0,0,0-.52.76l1.27-.52c.63.17.16.83-.31.65.07,0,0-.08,0-.09a1.54,1.54,0,0,0-.25,0l.61.17c.15.11-.07-.33.06-.29s0,.1,0,.1c-.48.08-.12,0-.12.1a.64.64,0,0,1,.17-.49q.19-.07,0,0,.21,0,0,0c.28.1,0-.14.2.1,0-.05.38.57.14.46-.06,0,.33-.25.3-.23s.35-.19.35-.15a.74.74,0,0,1-.73-.7q0-.18,0,.08a3,3,0,0,1-.5.63c-.11.09-.3.15-.39.26-.21.26-.22-.2.09.12l.34,1.29a2.28,2.28,0,0,1,.41-.85c.36-.39.08.08,0,0l-.06-.06a.55.55,0,0,1-.13-.42q0-.14.07-.11l-.07,0c-.05,0-.24,0-.15,0a.87.87,0,0,1-.35-.14c.07,0-.07-.07-.07-.07s-.07-.11.06-.28.44-.29.42-.22-.23-.37-.1-.34-.37.34-.31.31a2,2,0,0,1-1.25.26l1.16,2a2.17,2.17,0,0,1,1.57-1.41l-1.53-.62c-.08-.15,0-.19.12-.3a1.37,1.37,0,0,0-.48,1.81,1.35,1.35,0,0,0,1.81.48,2.41,2.41,0,0,0,.89-3.36,1.39,1.39,0,0,0-1.53-.62,4.91,4.91,0,0,0-3.31,3c-.36.86.53,1.66,1.3,1.7,2,.11,4.78-1.42,4.16-3.78a2.61,2.61,0,0,0-2.56-1.81,3.24,3.24,0,0,0-2.61,1.49,2.94,2.94,0,0,0,1.85,4.45,3,3,0,0,0,2.72-.62,2.34,2.34,0,0,0,.52-3,2.56,2.56,0,0,0-3-.9,3.87,3.87,0,0,0-2.07,2.65,1.32,1.32,0,0,0,.34,1.29c2.55,2.59,7.37-2.73,4.45-4.58-1.34-.85-3.38.22-4,1.53a2.27,2.27,0,1,0,4.32.54,2.53,2.53,0,0,0-3.58-1.65,2.64,2.64,0,0,0-.78,3.64,1.83,1.83,0,0,0,2.07.88,2.67,2.67,0,0,0,1.75-1.33c.88-1.7-1-4-2.8-3a2,2,0,0,0,.38,3.58,1.14,1.14,0,0,0,1.27-.52c.41-.92,1.3-1.59.95-2.73a1.62,1.62,0,0,0-2.05-1,1.27,1.27,0,0,0-.52,2,1.15,1.15,0,0,0,1.89-.15c.32-.69-.37-1.59-1.12-1.12Z"/><path class="cls-7" d="M630.72,527v.37a.67.67,0,0,0,1.34,0V527a.68.68,0,0,0-1.36,0Z"/><path class="cls-7" d="M593.75,508l.23.2a.94.94,0,0,0,1.17.89l.27.26a1,1,0,0,0,1.71.71l1.27-1.2-1.61-.21.44,1.48a1.06,1.06,0,0,0,1.79.74l1.15-.9h-1.5l1,1.12a1.09,1.09,0,0,0,1.31.17l.47.42c-.42,1.28,1.36,1.85,2.05.87l.29.11c-.51,1.42,1.72,2,2.24.62l-.1-.47a1.2,1.2,0,0,0,1.7,1.7l.59.07a1.24,1.24,0,0,0,2.43.33l.08.14,2.22,1.3L615,514l-1.91-.78-.18,2,2.4.31-.4.4,2.47,1,.72-1.19,2.31,1.35L620,518l2.55,1.07.15,1h2.78l.45-1,2.26,1.3.32-.85,2.56,1.06-1.36.56,2.51.66a7.36,7.36,0,0,1-.22-4.83,1.51,1.51,0,0,0-2.51-1.46l-7.31,1.74,1.5,1.5,2.32-2.93L624,513.66c-1.5,2.72-3,2.65-5.32,3.85l-2.2-1.69,0,.07c.44-1.34-1.11-2.22-2.2-1.69l-2.93-1.46a1.51,1.51,0,0,0-2.2-.9l-.05-.21L606.95,510q-2.12,5.3-4.6.12L599.68,509l.66.66-2.22-1.27-1-1a1.48,1.48,0,0,0-1.86-1.41l-2.13-.21v2.53h.58l-.87-2.14.3-.25c-1.4-.11-2,2.13-.74,2.72,9.36,4.2,21.43,12,32,8.38a1.43,1.43,0,0,0,.62-2.36c-1.94-2.18-4.45-1.75-7.21-2.21a39.07,39.07,0,0,1-12.4-4.43L604,510.41l2.36,2.24,1.25-2.17-3.71-1.69-1.41,2.42c6.29,2,11.23,5.88,16.5,9.66,3.54,2.54,7.2,3.07,10.92.46a1.48,1.48,0,0,0,.64-1.58c-.37-2.5.75-4.12-2.09-5.21a1.44,1.44,0,0,0-1.39.37l-.66.54c-1.23,1,.15,2.61,1.39,2.4l3.58-.62-1.79-1.79-.7,1.93c-.46,1.25,1.1,2.22,2.14,1.64l2.68-1.48-2.14-.87,0,1.06c-.24,1.26,1.45,2.69,2.44,1.42l2.37-3.06-2.29-1.77a8.76,8.76,0,0,0-1.92,5.84c0,1.6,2.59,2.06,2.88.39l.3-1.75c.32-1.84-2.51-2.64-2.83-.78l-.3,1.75,2.88.39a5.42,5.42,0,0,1,1.52-4.36c1.14-1.5-1.39-2.94-2.52-1.47l-2.36,3.06,2.67,1.12a5.18,5.18,0,0,0,0-2.61,1.47,1.47,0,0,0-2.14-.87l-2.68,1.48,2.14,1.64.7-1.93c.41-1.13-.8-2-1.79-1.79l-3.57.66,1.39,2.4c-1,.88-.74,1.93-.58,3l.64-1.58c-5.1,3.54-10.07-2.14-14.09-4.9a41.09,41.09,0,0,0-11.15-5.6,1.46,1.46,0,0,0-1.41,2.42,9.05,9.05,0,0,0,5.77,2.53c1.19.12,1.67-1.29,1.25-2.17a6.07,6.07,0,0,0-3.75-3.41c-1.51-.63-2.52,1.86-1.11,2.63a43.07,43.07,0,0,0,9,3.74c2.18.61,8.56.66,10.12,2.41l.62-2.36c-9.75,3.27-21.2-4.27-29.83-8.17l-.74,2.72.62.05a1.46,1.46,0,0,0,1.26-.72l.34-.52a1.48,1.48,0,0,0-.87-2.14,2.59,2.59,0,0,0-2.83.29,1.47,1.47,0,0,0,0,2.53,4.89,4.89,0,0,0,4.39.51l-1.86-1.41c-.39,5.24,6.82,6.41,6.89,1a1.48,1.48,0,0,0-2.22-1.27c-4.59,3.44,2.36,7.87,3.65,2.66a1.47,1.47,0,0,0-2.67-1.13c-2.34,3.08.34,6.23,3.6,6.79,2.75.48,9-1.83,5.68-5.51-1.7-1.88-5.26-.58-4.46,2.2,1.06,3.65,4.48.68,5.15-1.34.45-1.33-1.1-2.19-2.18-1.67-4.52,2.16-1.19,8.1,3.06,5.35l-2.2-.9c.94,3.47,4.16,4.77,7.34,3.25l-2.2-1.69c-1.52,4.58,4.88,6.27,5.74,1.52a1.52,1.52,0,0,0-2.2-1.69,2.91,2.91,0,0,0,.36,5.45c3.69,1.39,7.5-2.35,9.07-5.19a1.51,1.51,0,0,0-2.05-2.05c-2.55,1.14-3.52,2.82-3.8,5.52a1.51,1.51,0,0,0,1.5,1.5c6.94-.47,3.75-8,.46-5.49a3.05,3.05,0,0,0-.07,4.57c2.62,2.51,6.81,0,9-1.7l-2.51-1.46a12.51,12.51,0,0,0,.22,6.43,1.51,1.51,0,0,0,2.51.66c1.5-1.79,4-6.63.4-7.87-2.91-1-4.14,3.11-4.16,5.2a1.52,1.52,0,0,0,2.56,1.06c5-4.22-5.84-9.5-5.45-1.27a1.51,1.51,0,0,0,2.26,1.3c2.16-1.51,2.82-5-.33-6-3.45-1.11-5.09,2.42-4.41,5.19a1.45,1.45,0,0,0,2.78,0c.66-2,1.53-5.57-1.26-6.39-2.6-.77-3.9,1.93-4.36,3.92-.34,1.47,1.83,2.56,2.55,1.07.93-1.91,2.38-5.55-.61-6.45-2.38-.71-3.56,1.52-4,3.45a1.39,1.39,0,0,0,2.31,1.35c3.29-3.33-3.1-7.19-5.28-1.48-.57,1.5,1.67,2.25,2.47,1,3.66-5.52-6.45-6.58-4.47-1.06a1.33,1.33,0,0,0,2.4.31,3.87,3.87,0,0,0,.42-4,1.32,1.32,0,0,0-1.91-.78,6.7,6.7,0,0,0-3,3.27,1.28,1.28,0,0,0,2.22,1.3c2.52-4-3.33-6.59-4.68-2.09h2.38c-.38-2.76-2.85-3.31-4.72-1.44l1.7,1.7c2.88-3-2.31-6.1-3.84-1.85l2.24.62c1.18-3.44-2.67-4.56-4.47-1.86l2.05.87c1.16-3.84-2-2.27-3.39-3.8a1.09,1.09,0,0,0-1.5,0l-1.13.92,1.79.74a2.74,2.74,0,0,0-.76-2.51,1,1,0,0,0-1.61-.21l-1.24,1.22,1.71.71c0-2.1-1.81-2.48-3-2.94-.91-.35-1.56,1.16-.67,1.59Z"/><path class="cls-7" d="M676,500.88a1.08,1.08,0,0,0,0-2.16,1.08,1.08,0,0,0,0,2.16Z"/><path class="cls-7" d="M673.84,500.39l.05.85,1-1a2.78,2.78,0,0,1-1.44-.27c-1.3-.46-1.93,1.42-.9,2.12q.82-.64-.32-.76-.38-.17-.78-.3A3.19,3.19,0,0,0,670,501c-.55.12-2.34,2-2.48,2v2.44a8.91,8.91,0,0,1,6.29-.11l-.3-2.33-1.3.07-.91,2.2a12.52,12.52,0,0,1,4.73,1.2l-.26-2.05H676l-1.28,2.19a3.91,3.91,0,0,1,2.53,1.3l1.6-2.08a5.42,5.42,0,0,1-2.05-2.49L674.59,505a1.48,1.48,0,0,1,.26.73,1.22,1.22,0,0,0,2.21.29,2.29,2.29,0,0,0-.5-3c-1.14-1.24-2.8.33-2.18,1.69a7.09,7.09,0,0,0,3.12,3.38,1.33,1.33,0,0,0,1.6-2.08,6.08,6.08,0,0,0-3.71-2,1.32,1.32,0,0,0-1.28,2.19,2.33,2.33,0,0,0,3.52,0,1.32,1.32,0,0,0-.26-2.05,16,16,0,0,0-6-1.51,1.3,1.3,0,0,0-.91,2.2,3.46,3.46,0,0,0,4.41.32,1.3,1.3,0,0,0-.3-2.33,11.16,11.16,0,0,0-7.64.12,1.28,1.28,0,0,0,0,2.44c1.24.38,2-.14,2.88-1a6,6,0,0,0,.47-.67.79.79,0,0,1,1.28-.15c.53.07,1,.45,1.54.47,2.64.08,2.47-2.87.69-4l-.9,2.12a4.28,4.28,0,0,0,2.33,0,1,1,0,0,0,.71-1.25,2,2,0,0,0-.83-1.28.73.73,0,0,0-1.21.71Z"/><path class="cls-7" d="M660.4,505.82a12.8,12.8,0,0,0-3.61,2.86l1.87,1.09c.25-1.38,1.64-2.9,3.17-2.11l.68-2.51c-2,0-4.45-.41-5.8,1.48-1,1.35-.94,3.42.68,4.25a1.41,1.41,0,0,0,1.9-.5,23.42,23.42,0,0,1,1.9-3.18,5.85,5.85,0,0,1,1-1.18c.45-.36.69-.28,1.22-.27a1.13,1.13,0,0,0,1.08-1.42c-.7-1.93-2.85-1.43-4.12-.36a15.72,15.72,0,0,0-3.48,5l1.9-.5q-.23-.09,0,.19a.57.57,0,0,1,.07-.32c.23-.16.21-.27.52-.4.9-.36,2.15,0,3.1-.11a1.36,1.36,0,0,0,.36-2.65c-2.79-1-6.55,1.1-6.41,4.28,0,1,1.56,1.61,2.09.57a8.78,8.78,0,0,1,2.57-3,.72.72,0,0,0-.72-1.23Z"/><path class="cls-7" d="M655.92,508c-3-1.15-5.66.6-6.84,3.39-.35.82.66,1.69,1.43,1.43a2.12,2.12,0,0,0,1.69-2.31,1.21,1.21,0,0,0-1.2-1.2,5.13,5.13,0,0,0-5.05,5.34,1.28,1.28,0,0,0,2.51.34c.5-1.34,1.27-3.59,3.28-3.19l-.59-2.22c-2.54,2.92-10.45-2.22-11.49,3.43a2,2,0,0,0,1.34,2.43,2.15,2.15,0,0,0,1.79-.36c.7-.33,3-3,4.09-2.32l-.66-1.16.62-.7a1.11,1.11,0,0,0-.66,1.62l.1.14a1.26,1.26,0,0,0,1.38.56l.24-.07a1.37,1.37,0,0,0,1-1.29v-.27a1.34,1.34,0,0,0-.66-1.16,3.81,3.81,0,0,0-3.45.08c-1,.37-2.74,2.22-3.6,2.19l1.19.68c-.41-.72,3.89-.07,4.36,0a9,9,0,0,0,2.38.13,5.46,5.46,0,0,0,3.92-2.07c.54-.68.51-2-.59-2.22-3.62-.57-5.31,2-6.44,5.08l2.51.34q-.13-2.44,2.5-2.94l-1.2-1.2.09.06,1.43,1.43a4.21,4.21,0,0,1,4.4-2.59c.87,0,.92-1.15.19-1.43Z"/><path class="cls-7" d="M640.18,533.21c-.1.09,1,.34,1.24.42a7.65,7.65,0,0,0,2.21.43c1.8,0,2.78-1.4,3-3.06l-2.2.9c3.57,2.26,6.92-2.12,4.38-5.23-1.22-1.5-3.33.64-2.12,2.12.53.65-.3.8-.74.52a1.51,1.51,0,0,0-2.2.9c-.1.73,0,.79-.38.85s-1.38-.4-1.87-.52a3.51,3.51,0,0,0-3.44.57c-1.46,1.27.67,3.38,2.12,2.12Z"/><path class="cls-7" d="M631.77,521c-3.94,1.11-3.38,6.61-.57,8.62,1.57,1.13,3.07-1.48,1.51-2.59-.76-.54-1.32-2.81-.15-3.14a1.5,1.5,0,0,0-.8-2.89Z"/><path class="cls-7" d="M649.29,525.21c-3.85,2.34-.5,7,3.23,6.35l-1.48-.84a2.2,2.2,0,0,0,2.16,1.83,3.5,3.5,0,0,0,1.75-.37,3.54,3.54,0,0,1,2.62-.6c3,.33,6.43-2.95,6.51-6a1.11,1.11,0,0,0-1.66-1c-1.87,1.31-2.39,4-4.94,4.09-.65,0-1-.23-1.75,0a17.2,17.2,0,0,0-2.37,1.35,1.22,1.22,0,0,0-1.48-.84q-3.27-1.06-1.65-3.09a.7.7,0,0,0-.95-.95Z"/><path class="cls-7" d="M638.4,532.62a4,4,0,0,0,3.07-1.43l-2.51-.66a2,2,0,0,1,.28,1.07,1.51,1.51,0,0,0,2.26,1.3c1.81-1.11,3.6-.45,4.86-2.55a1.52,1.52,0,0,0-1.69-2.2c-.89.24-1.77.54-2.66.78a15.72,15.72,0,0,1-1.77.41c-.76.11-1.11-.22-.85.7s.42.53,1.22.5a11,11,0,0,1,1.71.1,19.72,19.72,0,0,1,2.43.45,1.52,1.52,0,0,0,1.9-1.45,5.42,5.42,0,0,1,1.46-3.25l-2.51-.66a1.5,1.5,0,0,1,0,1c-.46,1.61,1.94,2.69,2.74,1.16l1.1-2.1-2.74-.36.82,2.15,2.74-1.16,0-1.38c.67-1.81-2.23-2.6-2.89-.8a4.14,4.14,0,0,0,.32,3.69c.77,1.48,3.35.45,2.74-1.16l-.82-2.15a1.52,1.52,0,0,0-2.74-.36l-1.1,2.1,2.74,1.16a5.09,5.09,0,0,0,0-2.62,1.51,1.51,0,0,0-2.51-.66,8.93,8.93,0,0,0-2.33,5.37l1.9-1.45c-2.24-.55-8.59-1.94-8.82,1.84-.26,4.3,6.81,1.52,8.75,1l-1.69-2.2c-.56.92-2.82.88-3.78,1.47l2.26,1.3a3.35,3.35,0,0,0-.39-1.87,1.52,1.52,0,0,0-2.51-.66l-.95.55c-1.92.13-1.93,3.13,0,3Z"/><path class="cls-7" d="M632.92,529.82a2.37,2.37,0,0,1,2.71,1.22c1,1.62,3.64.12,2.59-1.51a5.44,5.44,0,0,0-6.1-2.6,1.5,1.5,0,0,0,.8,2.89Z"/><path class="cls-7" d="M634.77,527.75a9.63,9.63,0,0,0-3.58-2.77,1.51,1.51,0,0,0-1.69.69,2.4,2.4,0,0,0-.21,2.09,1.52,1.52,0,0,0,2.51.66c.33-.35.72-.65,1-1l-2.36-1.82a3,3,0,0,0,0,3.5,1.55,1.55,0,0,0,2.05.54,1.51,1.51,0,0,0,.54-2.05c.11.15-.2-.32-.16-.1,0-.1.12-.26.19-.37.94-1.41-1.23-3.1-2.36-1.82-.32.36-.71.66-1,1l2.51.66q-.15-.49-.09.22l-1.69.69a7.44,7.44,0,0,1,2.26,2c1.33,1.41,3.45-.72,2.12-2.12Z"/><path class="cls-7" d="M636.66,528.64l-1.61-2a1.51,1.51,0,0,0-2.56,1.06,3.36,3.36,0,0,0,5.6,2.35L636,527.9s-.31.33-.21.24.06,0,0,0,.25,0,0,0-.33,0-.49,0a1.53,1.53,0,0,0-1.5,1.5,1.51,1.51,0,0,0,1.5,1.5,3.44,3.44,0,0,0,2.81-1.07A1.5,1.5,0,0,0,636,527.9q.14-.11,0,0t0,0c0,.05-.23.05,0,0-.08,0-.44,0-.13,0,0,0-.37-.12-.2,0s-.16-.11-.17-.11c.21.15,0-.11,0,0s-.09-.15-.1-.18c.12.26,0-.23,0,.08l-2.56,1.06,1.61,2a1.51,1.51,0,0,0,2.12,0,1.54,1.54,0,0,0,0-2.12Z"/><path class="cls-7" d="M633.25,523.09a8.41,8.41,0,0,0-.95,6.09,1.52,1.52,0,0,0,2.2.9,5.57,5.57,0,0,0,1.68-.95l-2.36-.3a2.06,2.06,0,0,1,.36.85c.2,1.9,3.2,1.92,3,0a5.31,5.31,0,0,0-.77-2.36,1.52,1.52,0,0,0-2.36-.3,4.23,4.23,0,0,1-1.07.48l2.2.9a5.21,5.21,0,0,1,.65-3.78,1.5,1.5,0,0,0-2.59-1.51Z"/><path class="cls-7" d="M647.43,522.13a5.48,5.48,0,0,1-.83,3.77l1.61-.21a1.81,1.81,0,0,1-.81-1.24,1.14,1.14,0,0,0-2.28,0,4.94,4.94,0,0,1-.38,1.71l2.28.63a4.44,4.44,0,0,1,.58-1.34l-1.66.43a.46.46,0,0,1,.07.22c.23,1.11,1.64.83,2,0a1.8,1.8,0,0,0-.59-2.12,1.24,1.24,0,0,0-1.9.25,5.41,5.41,0,0,0-.78,1.94,1.19,1.19,0,0,0,2.28.63,6.83,6.83,0,0,0,.38-2.34h-2.28a3.35,3.35,0,0,0,1.85,2.85,1,1,0,0,0,1.51-.61,7.79,7.79,0,0,0,.24-4.74c-.2-.68-1.36-.59-1.29.17Z"/><path class="cls-7" d="M660.22,511.62c3,4.48,5.8,9.5,2.66,14.74-.65,1.08.92,2.36,1.78,1.38,3.76-4.3,1.73-9.38-1.44-13.35-.86-1.07-2.73.36-1.92,1.48a29.35,29.35,0,0,1,4.47,9,1.22,1.22,0,0,0,1.13.86c5.67.59,10.82-.79,13.9-5.91l-2.11-.89a5.72,5.72,0,0,1-1.95,3.7l1.65,1.65a21.84,21.84,0,0,0,4-7c.45-1.29-1.49-2-2.16-.91-2.71,4.54-6.6,6.7-11.61,8-1.23.31-1,2.38.31,2.26,5.68-.53,10.49-4.19,13.34-9l-2.16-.91a18.17,18.17,0,0,1-3.36,6c-.94,1.13.6,2.75,1.65,1.65a9,9,0,0,0,2.52-4.74,1.16,1.16,0,0,0-2.11-.89c-2.68,4.5-7.11,5.26-11.91,4.72l1.13.86a31.37,31.37,0,0,0-4.63-9.61l-1.92,1.48c2.22,2.82,4.33,6.75,1.56,10l1.78,1.38c3.18-5.54,1.26-12.72-3.48-16.77-.59-.5-1.63.15-1.14.88Z"/><path class="cls-7" d="M633.88,528.31c.07-.21-.23.31-.27.39-.57,1-.17.37,0,.24a2.3,2.3,0,0,0-.8,3,2.63,2.63,0,0,0,3.69,1,3,3,0,0,0,1.32-3.75,3.51,3.51,0,0,0-3.48-2,10,10,0,0,0-1.08.13l-.33.06q.38,0,.11,0c-.34.07-.36.06,0,.09q.23.13,0-.05a1.18,1.18,0,0,1-.29-.19,2.22,2.22,0,0,0-2.5.18,2.29,2.29,0,0,0-.81,2.37,3.3,3.3,0,0,0,3.53,2.33c.57,0,1.12-.21,1.69-.25q-.36.06.06,0l-.2,0q-.2-3.56-.93-2.28a1.77,1.77,0,0,1,.84-.69h1.2l.34.14.8.8-.08-.11-.35,2.7c1.4-1.36,1.78-4.05-.32-5a1.48,1.48,0,0,0-2.13.87Z"/><path class="cls-7" d="M560.12,579.91c2.23,15.18,7.14,30.26,10.78,45.15,3.69,15.07,7.31,30.15,11,45.23,7.41,30.31,13.62,60.77,17.37,91.76.69,5.68,9.7,5.75,9,0a722,722,0,0,0-17.53-92.39Q585,647.21,579.1,624.8c-4.05-15.41-7.18-31.69-12.88-46.58a3.17,3.17,0,0,0-6.1,1.68Z"/><path class="cls-7" d="M567.1,587c1.1-3.1.43-7,.17-10.19-.28-3.52-.57-6.72-2.77-9.54-1.89-2.42-5.87-.86-6.58,1.74-.87,3.17.25,6.43.91,9.57s.73,6.42,2.19,9.22,5.19,1.73,6.08-.8Z"/><path class="cls-7" d="M552.24,580.81c.77,3.6,2.94,6.86,4.47,10.19a103.91,103.91,0,0,1,4.46,11.39l9.6-4q-4.22-8.83-8.5-17.63c-3-6.18-11.71-.77-9.09,5.31a438,438,0,0,1,20.95,61.85c2.61,9.9,5,19.87,7.45,29.81,2.59,10.43,4.58,21.62,9,31.47,1.84,4.12,8.76,2.05,8.47-2.29-.7-10.46-4.11-21-6.63-31.16-2.62-10.56-5.14-21.15-7.93-31.66A471.35,471.35,0,0,0,562.8,582L553.18,586q4.22,8.83,8.51,17.62c2.6,5.33,11.48,1.6,9.6-4-2.44-7.37-5.73-17.9-12-22.9-3.25-2.59-8-.25-7.05,4.1Z"/><path class="cls-7" d="M696.19,499.93c4.88,13.24,20.43,20.92,30.9,29.13,13.36,10.49,22.33,24.69,30.68,39.24,4.19,7.3,8.51,14.59,12.08,22.22,3.84,8.24,5.17,17.22,8.83,25.47,1.6,3.6,3.68,6.94,5.55,10.39,2.31,4.28,3.6,8.68,5.11,13.26C792,647.86,796.75,655,801.65,662c1.91,2.75,6.45.16,4.53-2.65-5.29-7.76-9.77-15.32-12.5-24.35-2.48-8.2-7.51-14.83-10.64-22.7-3.22-8.1-4.76-16.58-8.5-24.55-3.58-7.64-7.94-14.88-12.26-22.12-8.21-13.76-17-27.69-29.54-38-5.67-4.67-11.91-8.54-17.86-12.83-6.56-4.74-11.59-10-17-15.92a1,1,0,0,0-1.72,1Z"/><path class="cls-7" d="M803.7,661.44a2.56,2.56,0,0,0-1.47.8.77.77,0,0,0,.66,1.15,2.37,2.37,0,0,0,1.36-.64c.63-.43.26-1.58-.55-1.31Z"/><path class="cls-7" d="M803.8,663.14c2.3,0,4.53.37,5.85,2.49l1.88-1.45c-1.7-1.85-4.5-3.68-7.13-3.48a1.14,1.14,0,0,0-.3,2.23,24.53,24.53,0,0,1,3.12,1,9.35,9.35,0,0,1,2.62,2c.93,1,2.64-.3,1.88-1.45-1.68-2.55-5.42-4.47-8.3-2.7a.77.77,0,0,0,.38,1.42Z"/><path class="cls-7" d="M811.51,666c1.18-2.92,1.75-6,2.81-9,1.17-3.29,2.91-6.47,3.66-9.88a1.07,1.07,0,0,0-1.95-.82,50.61,50.61,0,0,0-6,19.51c-.07.9,1.16.91,1.45.2Z"/><path class="cls-7" d="M866.33,656c-1.45,3.72-1.67,7.84-2.55,11.72-1.4,6.19-3.46,12.21-4.87,18.41a180.51,180.51,0,0,1-15.49,42c-3.15,6.22-6.4,12.42-9.83,18.48-3.14,5.55-7.07,11.76-13.43,13.93-9.92,3.39-22.25-4-30.74-8.51-1.67-.89-3.16,1.63-1.49,2.55,8.58,4.74,19.87,11,30,9.48,13-1.9,18.88-17.15,24.16-27.28,7.44-14.27,14.45-28.93,18-44.7,2.65-11.75,7.05-23.82,7.57-35.95,0-.83-1.09-.86-1.36-.18Z"/><path class="cls-7" d="M831.35,568.69c-2.83-6.33-7.62-11.13-11.47-16.8-4.81-7.08-5.35-14.77-3.52-23,.42-1.88-2.47-2.68-2.89-.8-1.57,7.06-1.82,14.32,1.33,21,3.62,7.69,10.47,13.26,14,21.08.79,1.76,3.37.24,2.59-1.51Z"/><path class="cls-7" d="M871,573a79.52,79.52,0,0,1,3.33-8.7,26.33,26.33,0,0,1,6.71-7.25c1.08-.81,0-2.66-1.08-1.84-5.26,3.87-11.2,11.32-10.66,18.3a.89.89,0,0,0,.44.77,1.36,1.36,0,0,0,1.6,0A.68.68,0,0,0,871,573Z"/><path class="cls-7" d="M816.09,529.7c1.83-4.54,3.92-9,6.07-13.37.81-1.66,3.68-7.72,5.6-4.84s1.23,9,1,12.39c-.11,1.93,2.89,1.92,3,0,.24-4.09,1.19-13.64-3.31-16-2.68-1.4-5.4,1.29-6.83,3.26-3.72,5.13-6.12,11.9-8.47,17.75-.72,1.79,2.18,2.57,2.89.8Z"/><path class="cls-7" d="M832,524.51a15.45,15.45,0,0,1,.47-3.67l-2.95-.4a25.13,25.13,0,0,0,.22,3.54,1.55,1.55,0,0,0,1.5,1.5,1.51,1.51,0,0,0,1.5-1.5,25.13,25.13,0,0,1-.22-3.54,1.51,1.51,0,0,0-2.95-.4,19,19,0,0,0-.57,4.46,1.5,1.5,0,0,0,3,0Z"/><path class="cls-7" d="M831,533.68c-.4,2,.56,3.57,1.93,5,2.36,2.46,5,4.67,7.6,6.92.32.28.8-.18.48-.48-1.67-1.58-3.37-3.12-5.07-4.67s-4.84-3.69-4.35-6.61c.07-.39-.52-.56-.6-.16Z"/><path class="cls-7" d="M831.47,522.83a34.71,34.71,0,0,0,.21,11.28c.08.43.77.33.76-.1q-.14-5.5-.28-11a.4.4,0,0,0-.77-.1,26.28,26.28,0,0,0,1.7,17.31c.21.45,1,.12.81-.34a33.67,33.67,0,0,1-2.41-15.52c0-.44-.59-.46-.72-.1-1.3,3.59-.55,7.33.22,11l1-.27a37.19,37.19,0,0,1-1-11.6.57.57,0,0,0-1.11-.15c-.83,4.3.22,8.25,1.52,12.35a.58.58,0,0,0,1.11-.31,36,36,0,0,1,.05-10.61l-1.09-.3c-.83,5.64-1.44,12.21,3.64,16.06.45.34,1-.41.6-.78-4.44-4-4-9.59-3.16-15,.11-.71-1-1-1.09-.3a38.15,38.15,0,0,0-.08,11.21l1.11-.31c-1.23-3.87-2.33-7.66-1.54-11.75l-1.11-.15A36.79,36.79,0,0,0,831,535.21a.51.51,0,0,0,1-.27c-.8-3.59-1.27-6.84-.5-10.49l-.72-.1A36.44,36.44,0,0,0,833,540.11l.81-.34a26.41,26.41,0,0,1-1.71-16.65l-.77-.1q.15,5.5.3,11l.76-.1a38.89,38.89,0,0,1-.34-11c0-.34-.56-.43-.61-.08Z"/><path class="cls-7" d="M857.9,483.25a21.34,21.34,0,0,0-7.14,11.4c-1,3.85-2.28,10.55-.84,14.34,3.05,8,10.82-5.31,12.53-7.9.64-1-.92-1.87-1.55-.91-1.63,2.47-2.9,5.48-5.07,7.54-4.82,4.54-4.44-2.58-4.33-5.43.27-6.81,2.24-13.32,7.67-17.76.9-.73-.38-2-1.27-1.27Z"/><path class="cls-7" d="M857.25,485.9c4.25-5.55,10.58,1.43,9.54,6.54-.23,1.13,1.51,1.61,1.74.48,1.48-7.28-7.34-15.11-12.83-7.93-.7.92.86,1.82,1.55.91Z"/><path class="cls-7" d="M870,496c-3.1,1.64-4.35,5.45-5.75,8.46a45.59,45.59,0,0,0-4.12,12.13c-.5,3.24.21,11.12,5.3,7.3,3.46-2.6,5.95-7.42,8.55-10.84,2-2.59,6.55-6.6,7-10,.79-6-8.05-8-12.15-6.79a.9.9,0,0,0,.48,1.74c2.89-.83,8.07-.44,9.38,3.08,1,2.72-1.25,4.68-2.64,6.54l-8.7,11.64q-1.2,1.63-2.44,3.23-5.12-1.81-3.33-6.31a35.09,35.09,0,0,1,1.6-5.69c1.41-4,3.59-11.1,7.31-13.6a.49.49,0,0,0-.5-.85Z"/><path class="cls-7" d="M880.69,507.14a23,23,0,0,0-8.2,7.25c-1.68,2.3-4.59,6.36-3.63,9.44.72,2.34,3.19,2.59,5.12,1.54s3.27-2.6,5.07-3.65c1.18-.69,2.64-2,3.95-1.18s1.06,2.33,1.49,3.7c.24.77,1.54.68,1.48-.2-.12-1.68-.08-4.72-1.82-5.6-2.13-1.08-5.71,1.56-7.34,2.68-1.24.86-6,5.58-6.24.38-.08-1.41,1.71-3.81,2.44-5,2.21-3.49,5.17-6,8.32-8.58.49-.4-.13-1.08-.64-.83Z"/><path class="cls-7" d="M879.58,510c2-1,4.5-2,6.69-.7,2.79,1.6,2.66,5.09,2,7.68-.81,3.31-2.4,6.49-3.6,9.67-.38,1,1.21,1.42,1.6.44,1.93-4.83,6.17-12.06,2.84-17.16-2.31-3.54-7.25-3.39-10.09-.64-.38.37.1.93.55.71Z"/><path class="cls-7" d="M884,521.48c-.12,1-.5,7.31,2,5.68a1.67,1.67,0,0,0,.37-2.33,7.45,7.45,0,0,0-1.28-1.18,2.51,2.51,0,0,1-.73-2.66.68.68,0,0,0-1.32-.36,3.84,3.84,0,0,0,1,3.84c.21.2.46.36.69.54a.63.63,0,0,1,.47.72q-.11-.58-.18-1.16c-.12-1-.15-2.06-.17-3.09a.44.44,0,0,0-.87,0Z"/><path class="cls-7" d="M732.22,456.88C745,469.11,759.7,479.76,773.4,491s27.51,22.68,41.33,33.94c1,.85,2.54-.63,1.49-1.49C802.18,511.9,788,500.52,773.94,489c-13.52-11-26.69-23.09-41-33.06-.54-.38-1.17.46-.7.91Z"/><path class="cls-7" d="M773.31,412.62c6.23-1.2,12.14-.18,15.36,5.9,2.79,5.25,2,11.61,1.51,17.28-1.05,11.81-2.58,23.51-1,35.35.25,1.89,3.25,1.91,3,0a111.16,111.16,0,0,1,0-24.86c.65-7.06,2.11-14.46,1.31-21.55-1.31-11.64-9.81-17.17-21-15-1.89.37-1.09,3.26.8,2.89Z"/><path class="cls-7" d="M736.81,458.47c-6.27-8.79-.65-20.31,5.25-27.76,1.19-1.5-.92-3.63-2.12-2.12C733.24,437,727.1,450,734.22,460c1.11,1.56,3.72.06,2.59-1.51Z"/><path class="cls-7" d="M732.68,455.46a111.32,111.32,0,0,0,51.26,16.61,283.87,283.87,0,0,1,31.15,3.4c10.13,1.75,19.91,4.75,29.95,6.83a1.11,1.11,0,0,0,.59-2.15c-17.26-6.78-37.53-9.09-55.93-10.18-9.8-.58-19.16-1.2-28.58-4.21-9.61-3.07-18.59-7.32-27.71-11.56a.73.73,0,0,0-.73,1.25Z"/><path class="cls-7" d="M786.19,413c9.17,9.12,18.66,17.81,27.39,27.39A370.34,370.34,0,0,1,839,471.58c.81,1.11,2.68,0,1.86-1.09-15.36-21.19-33.22-42.28-54.06-58.31-.45-.35-1,.39-.6.77Z"/><path class="cls-7" d="M833.12,538.19a233.69,233.69,0,0,0,34.53,27.3c.89.57,1.63-.79.82-1.4-11.74-8.68-23.11-17.55-34.28-27-.73-.61-1.77.38-1.06,1.06Z"/><path class="cls-7" d="M868.75,563l-.46-.16-.2,1.52A59.1,59.1,0,0,0,892.17,546c1.87-2.47,6.25-6.61,5.45-9.91-.41-1.71-2.23-2.86-3.43-4-2.59-2.43-5.21-4.82-7.82-7.23-1.21-1.11-3,.66-1.81,1.81,1.85,1.79,3.7,3.59,5.56,5.38.9.86,3.83,2.73,4.21,4,1,3.24-5,9.23-7,11.57-5.7,6.73-13,10.43-20.24,15.09a1,1,0,0,0,.23,1.77l.68.22a.81.81,0,0,0,.79-.21l.5-.48c.46-.44,0-1.06-.57-1Z"/><path class="cls-7" d="M862.52,500.9c.45.35.88.72,1.29,1.11a4,4,0,0,0,1.36,1.09.78.78,0,0,0,1-1,3.11,3.11,0,0,0-1.14-1.43,11.82,11.82,0,0,0-1.47-1.1c-.77-.5-1.73.71-1,1.29Z"/><path class="cls-7" d="M845.26,481.86a30,30,0,0,1,3.78,4.08c1,1.32,1.67,2.85,2.71,4.12.51.62,1.48-.05,1.29-.75-.91-3.36-4.25-6.52-6.91-8.57-.64-.5-1.46.58-.87,1.12Z"/><path class="cls-7" d="M840.28,471.42c-2.43,1.28-1.11,5.14,0,7a5,5,0,0,0,3.33,2.22c1.4.36,2.76.2,4.07,1a6,6,0,0,1,2.66,5.3.53.53,0,0,0,1.05,0,6.61,6.61,0,0,0-3.15-6.27,9.17,9.17,0,0,0-3.61-1,4.82,4.82,0,0,1-4-2.83c-.68-1.37-1.38-3.68,0-4.95.26-.23-.07-.62-.36-.46Z"/><path class="cls-7" d="M841.53,471.63c5.41-3.44,11.06.24,11.25,6.4.12,4-.77,8.22-1.25,12.21-.1.84,1.23.84,1.32,0,.62-5.41,3.22-13.93-.9-18.56a7.79,7.79,0,0,0-10.85-.6c-.3.26.09.77.43.55Z"/><path class="cls-7" d="M867.81,491.32a21.29,21.29,0,0,1-.74,7.61l.76.1c0-2.7.05-5.41,0-8.11a.43.43,0,0,0-.86,0c0,2.7,0,5.41,0,8.11a.39.39,0,0,0,.76.1,18.3,18.3,0,0,0,.6-7.9c-.05-.34-.63-.26-.61.08Z"/><path class="cls-7" d="M862.46,501.21a15.49,15.49,0,0,1,3.09-4.81.51.51,0,0,0-.72-.72,39.79,39.79,0,0,0-4.35,5l.9.53q1.33-2.59,2.65-5.19l-.9-.52-1.72,3.77c-.22.47.41,1.1.79.61l2.68-3.39-.83-.35-.2.6c-.4.47.28,1.16.69.69a1.81,1.81,0,0,0,.49-1.28c0-.39-.56-.69-.83-.35l-2.71,3.36.79.61L864,496c.28-.6-.59-1.12-.9-.52q-1.33,2.59-2.65,5.19a.52.52,0,0,0,.9.53,38.21,38.21,0,0,1,4.17-4.76l-.72-.72a11,11,0,0,0-3,5.25c-.08.39.5.69.68.29Z"/><path class="cls-7" d="M879.25,509.91c2-2,5.08-3.16,7.76-1.59s3.24,4.84,2.48,7.55a.34.34,0,0,0,.62.26,6.64,6.64,0,0,0-2.48-8.87c-2.95-1.71-7.27-.84-9,2.19a.39.39,0,0,0,.61.47Z"/><path class="cls-7" d="M845,470.45c-2.33,1-7,2.13-6.67,5.59.25,2.83,3.42,3.52,5.69,3.78v-1.06c-1.15-.11-3-.36-3.92-1.16-2.11-1.84-2-3.18,0-4.79a14.12,14.12,0,0,1,5.43-2.32l-.46-1.1c-1.88,1-3.83,1.89-5.64,3-.56.34-1.42.63-1.73,1.29-.82,1.73,1.35,2.95,2.27,3.91l.83-.83-1.92-1.57a.58.58,0,0,0-.91.7A5.94,5.94,0,0,0,842,479.4c.6.18,1-.75.43-1-1.65-.78-2.26-.88-2-2.9s1-2.37,2.58-3.34c3.22-2,7.78-1.87,9.33,2.19s-.36,9.75-1.06,13.92c-.11.65.89.94,1,.28.93-5.46,4.92-18.11-4.16-19-3.14-.3-7.47,1.66-9.15,4.44-1.55,2.55.7,4.31,2.89,5.36l.43-1a4.54,4.54,0,0,1-3.39-3l-.91.7,1.91,1.58c.57.47,1.36-.27.83-.83a3.93,3.93,0,0,0-.83-.83q-1.73-2.33.7-2.83c1.14-1.14,3.58-1.9,5-2.66a.6.6,0,0,0-.46-1.1c-2.59.67-8,2.41-8.32,5.8-.33,3.16,4.83,4.4,7.08,4.69.59.08.73-1,.14-1a16.77,16.77,0,0,1-2.16-.4q-3-4.7.42-5.72c.87-.64,2.05-.92,3-1.54a.38.38,0,0,0-.38-.66Z"/><path class="cls-7" d="M841.3,479.09c1.83.89,3.85,1.28,5.6,2.36a9.27,9.27,0,0,1,3.6,4.37c.22.46,1.06.25,1-.27-.57-4.41-6.08-6.86-10-7.22a.41.41,0,0,0-.21.76Z"/><path class="cls-7" d="M830.18,512.48a82.21,82.21,0,0,0-.07,17.75l1.11-.15a37.32,37.32,0,0,1-1.36-11,.58.58,0,0,0-1.16,0,96.13,96.13,0,0,0,.37,11.8c.07.82,1.32.85,1.3,0q-.08-6.43-.17-12.86a.69.69,0,0,0-1.37,0,52.36,52.36,0,0,0,2.52,18.73.68.68,0,0,0,1.32-.36,67.28,67.28,0,0,1-1.88-11.88.69.69,0,0,0-1.38,0,55.69,55.69,0,0,0,1.32,12.39c.2.91,1.6.52,1.4-.39-.54-2.46-1.07-4.93-1.54-7.41-.14-.73-1.29-.55-1.28.17a47.63,47.63,0,0,0,.61,6.82c.12.78,1.49.61,1.39-.19l-.77-6.31-1.46.2.53,3.58a.76.76,0,0,0,1.27.34,1.57,1.57,0,0,0,.5-1.49h-1.53a48,48,0,0,0,2.31,10.59c.32.95,1.83.54,1.51-.41a47.37,47.37,0,0,1-2.28-10.18c-.11-1-1.64-1-1.53,0l-.16.56,1.39.18-.57-3.57c-.13-.82-1.57-.63-1.46.2l.84,6.31,1.39-.19a52.92,52.92,0,0,1-.67-6.45l-1.28.17c.51,2.48,1,5,1.4,7.44l1.4-.39a53.08,53.08,0,0,1-1.34-12h-1.38a70.12,70.12,0,0,0,1.93,12.24l1.32-.36A52,52,0,0,1,830.21,518h-1.37q.12,6.43.24,12.86h1.3a113.81,113.81,0,0,1-.52-11.8H828.7a42,42,0,0,0,1.43,11.27c.16.59,1.17.5,1.11-.15a109.68,109.68,0,0,1-.33-17.75c0-.48-.68-.46-.73,0Z"/><path class="cls-7" d="M808.48,658.51c-8.32-5.56-15.75,3.07-19.91,9.44-5.49,8.41-5.65,19.15-5.64,28.86,0,18.81,4,41.49-6.09,58.53-5.07,8.6,8.2,16.32,13.36,7.81,9.42-15.57,8.11-32.65,7.56-50.08-.3-9.36-1-19,.13-28.3.67-5.37,3.4-14.39,9.23-15.85,5-1.25,5.26-7.8,1.36-10.41Z"/><path class="cls-7" d="M812.33,657.52a221.05,221.05,0,0,0-9.69,31.35c-2.2,9.3-3.9,19.3-2.55,28.84.11.81,1.46.62,1.43-.19a100.18,100.18,0,0,1,3.7-30.85c2.61-9.63,6.08-19.1,8.13-28.87a.53.53,0,0,0-1-.28Z"/><path class="cls-7" d="M552.93,598.4c-5.45,12.25-8.3,26-12.2,38.83q-6.29,20.68-13.21,41.16-13.76,40.47-29.6,80.21c-1.34,3.36,4.11,4.83,5.42,1.5Q519,720.33,532.27,679.7q6.54-20.09,12.64-40.32c3.91-13.07,8.95-26.72,10.51-40.3a1.35,1.35,0,0,0-2.49-.67Z"/><path class="cls-7" d="M808,784.43a40.37,40.37,0,0,1-20.07,14.9c-9.9,3.34-20.1-.37-29.32-4.06-1.08-.43-1.54,1.31-.48,1.74,10.14,4.06,21.08,7.69,31.77,3.5a42.69,42.69,0,0,0,19.65-15.17c.68-.94-.88-1.84-1.55-.91Z"/><path class="cls-7" d="M476,762.57c5.17.26,10.15-.68,15.27-1.18,5.78-.56,11.64.13,17.41.54,11.48.83,22.93,1.9,34.4,2.88,22.76,1.95,45.86,3.86,68.69,2.15,22.05-1.65,44.19-2.47,66.27-3.68a33.25,33.25,0,0,1,8,.38c2.38.44,4.78,1.92,7.06,2.26,3.55.53,8.33-1.64,11.9-2.32a162.77,162.77,0,0,1,33.64-2.82,175.86,175.86,0,0,1,37.44,4.62c10.7,2.55,20.61,7,30.57,11.52,1.75.79,3.27-1.79,1.51-2.59-3.77-1.71-7.41-3.69-11.21-5.32-4.5-1.93-9.32-3-13.95-4.59-9.68-3.41-20.22-4.84-30.4-5.83a172.11,172.11,0,0,0-33.42,0c-5,.49-10,1.21-15,2.17-2.41.46-4.78,1.11-7.18,1.56-3,.57-4.2.09-7.06-.76-9.8-2.9-20.81-.53-30.83,0-11.41.57-22.83.94-34.23,1.58a519.94,519.94,0,0,1-70.07-.29c-13.11-1-26.2-2.28-39.31-3.32-6.81-.54-13.77-1.4-20.6-1.31-6.38.08-12.55,1.74-19,1.42-1.93-.1-1.92,2.9,0,3Z"/><path class="cls-7" d="M783.61,802.21c1.63,1.61,1.72,4.52-.74,5.2a9.09,9.09,0,0,1-3,0c-3.66-.28-7.33-.74-11-1.27-5.92-.86-11.73-2.12-17.57-3.37a.89.89,0,0,0-.47,1.72A157.25,157.25,0,0,0,768.38,808c4.63.69,10,2,14.63,1.39,5.5-.72,5.85-5.51,1.42-8.23a.68.68,0,0,0-.82,1.07Z"/><path class="cls-7" d="M782,808.22q1.15,4.42-1.76,4.88a8,8,0,0,1-1.93.34,37.77,37.77,0,0,1-4.52.32c-3.05.08-6.11,0-9.16-.2-6.61-.47-12.86-1.9-19.3-3.3a.86.86,0,0,0-.45,1.65,75.28,75.28,0,0,0,33.69,3.34c2.42-.36,5.66-1.11,6.62-3.7.88-2.38-.55-3.87-2.67-4.56a.67.67,0,0,0-.51,1.22Z"/><path class="cls-7" d="M754.45,813.79c6.83,6.75,16.93,7.8,26.09,8.07,2.52.08,5,0,7.56,0,2.32-.05,8.16-1.27,3.58,2.35-5.45,4.3-14.75,5-21.36,4.68-28.18-1.16-50.8-22.88-79.18-23.42a1.16,1.16,0,0,0,0,2.32c22.34.44,40.73,14.13,61.62,20.06,8.59,2.44,17.82,3.79,26.72,2.45,4.66-.7,17-3,16-9.68a1,1,0,0,0-1-.73c-13.14-.54-28.24,1.5-39.36-7.07-.57-.44-1.24.49-.75,1Z"/><path class="cls-7" d="M536.23,825.4c-16.12-.28-32.22,1.54-48.34.42a96.14,96.14,0,0,1-23.58-4.37c-6.77-2.24-14.08-7.27-21.44-6.44-2.11.24-2.78,3.18-.52,3.87,3.95,1.19,7.83,2,11.69,3.56a120.09,120.09,0,0,0,11.56,4.19A104.49,104.49,0,0,0,487,830.09c16.35,1.1,32.93-.22,49.23-1.55a1.57,1.57,0,0,0,0-3.14Z"/><path class="cls-7" d="M577.17,519.07l-.08,0a.6.6,0,0,0-.73.73c1.85,6.26,9.16,10.38,13.63,14.55,10.06,9.37,20.95,18.24,33.25,24.53s26.39,9.5,40.16,6.09a43.61,43.61,0,0,0,29.27-23.76c7-15.24,3.39-32.62-4.65-46.67a1.42,1.42,0,0,0-2.45,1.43c9.78,16.68,12.32,37.87-.93,53.5-11.16,13.17-29.52,17.23-45.85,13.11-17.15-4.33-32.25-15.79-45.13-27.48-3.35-3-6.56-6.39-10.21-9.07-2.39-1.75-4.79-3.85-6-6.69l-.67.87h.09a.59.59,0,0,0,.31-1.13Z"/><path class="cls-7" d="M515.36,714.95l1.84,1,1.16-1.51c-20.14-7.25-41.55-18.4-63.2-10.33-1.17.44-1.12,2.43.32,2.34a114.6,114.6,0,0,1,55.3,10.06l.95-2.24a392,392,0,0,0-49.3-13.59l-.34,2.49a152.63,152.63,0,0,1,55.2,15.51l1-2.4c-19.19-5.57-37.52-15.84-58-14.94a1.31,1.31,0,0,0,0,2.61,236.49,236.49,0,0,1,26.25,5c7.79,2,15.3,4.89,23.06,6.85a1.3,1.3,0,0,0,.69-2.51c-8.37-2.11-16.45-5.26-24.87-7.3a243.42,243.42,0,0,0-25.13-4.64v2.61c20.25-.88,38.39,9.36,57.34,14.86,1.4.41,2.37-1.72,1-2.4a155.5,155.5,0,0,0-56.52-15.78,1.27,1.27,0,0,0-.34,2.49,390.23,390.23,0,0,1,49.32,13.51c1.3.45,2.22-1.66.95-2.24a116.9,116.9,0,0,0-56.54-10.32l.32,2.34c21.15-7.93,42.27,3.15,62,10,1.08.38,1.57-1,1-1.72a2.85,2.85,0,0,0-3.64-1.12c-.73.21-.63,1.46.19,1.38Z"/><path class="cls-7" d="M528.52,671.65c-11.43-5.07-24-7.53-36.39-8.65-1.41-.13-1.74,2.24-.34,2.49,12.45,2.14,24.87,4.4,36.66,9.1,1.37.55,2.35-1.76,1-2.4A105,105,0,0,0,491.1,662c-1.46-.1-1.82,2.33-.35,2.58,12,2,24,4.1,35.07,9.22a1.31,1.31,0,0,0,1.32-2.27,22.81,22.81,0,0,0-10-3.82c-1.48-.2-2.18,2-.64,2.31a24.85,24.85,0,0,1,9.26,3.78l1.32-2.27c-11.32-5.22-23.48-7.45-35.7-9.49l-.35,2.58a101.37,101.37,0,0,1,37,9.85l1-2.4c-11.78-4.7-24.23-6.9-36.68-9l-.34,2.49c12.34,1.08,23.9,4.16,35.67,7.81,1,.3,1.69-1.26.71-1.69Z"/><path class="cls-7" d="M533.67,659.63l-.05.17.51-.66c-.72.41-.76,1.26-.91,2a1.52,1.52,0,1,0,2.94,0c-.15-.73-.19-1.58-.91-2l.51.66-.05-.17a1.06,1.06,0,0,0-2,0Z"/><path class="cls-7" d="M531.73,670.55a90.39,90.39,0,0,0,2.64,24.13c2,7.62,5.6,14.76,6.77,22.59,1.13,7.53,1.51,17.13-.75,24.47-2,6.34-7.51,10.49-9.29,17-.77,2.8,3.61,4,4.34,1.2,1.67-6.43,7.19-10.68,9-17.07,2.09-7.18,1.7-16,1-23.31-.73-7.68-3.72-14.52-6.07-21.78a89.6,89.6,0,0,1-4.12-27.23,1.78,1.78,0,0,0-3.56,0Z"/><path class="cls-7" d="M577.36,528.05l-.09,0c-.44-.16-.83.32-.73.73,1.69,6.52,9.82,11.1,14.38,15.34,10.68,9.93,22.15,19.36,35.14,26.11s27.84,10.41,42.53,7.12a46.8,46.8,0,0,0,32-24.83c8-16.43,4.15-35.46-4.61-50.74a1.42,1.42,0,0,0-2.45,1.43c7.83,13.35,12,29.84,6.41,44.84-5.17,14-17.63,23.88-32,27.12-28.3,6.4-54.89-13.23-74.49-31.3a118.72,118.72,0,0,0-9.72-8.56,23.27,23.27,0,0,1-2.12-1.48,21.47,21.47,0,0,1-2.53-3.21,5.72,5.72,0,0,0-.7-1c-1.15-1,.27,0-1.39-.44a.59.59,0,0,0,.31-1.13Z"/><path class="cls-7" d="M477.84,700.22l-1.24-2.39a3.69,3.69,0,0,0-5.76-.74,6.93,6.93,0,0,0-1.76,6.64c.56,3,4.39,3.4,6.35,1.68a58.91,58.91,0,0,0,11.95-15.1l-7.61-4.45q-2.23,4.66-4.5,9.3a4.52,4.52,0,0,0,7.8,4.56,80,80,0,0,0,8.16-15l-9-2.49a54.81,54.81,0,0,1-4.71,12l8.07,4.72q5.27-11.95,11.58-23.36l-8.5-3.58L479.8,694.6l8.93,2.46c2.32-8.94,4.76-18.12,11.83-24.54l-7.7-4.48A86.33,86.33,0,0,1,484.11,692l8.25,3.48a60.87,60.87,0,0,1,11-19.78l-7.31-4.25a91.78,91.78,0,0,1-8.51,21.77l7.92,3.34a67.35,67.35,0,0,1,11.25-21.66l-7.35-3A35.23,35.23,0,0,1,493.83,692l7.82,3.3a92.7,92.7,0,0,1,8-19.87l-6.68.86c1,1.18-2,9.12-2.38,10.34A89.34,89.34,0,0,1,496.33,698l7.73,3.26a107.13,107.13,0,0,1,4.42-13.11q1.28-3.07,2.78-6,.81-1.61,1.67-3.19,2.18-2.2-.82-1.8l-1.93-2.51c.32,1.23-1.24,4.48-1.62,5.73q-.85,2.8-1.74,5.59c-1.38,4.34-2.84,8.65-4.31,13s5.61,7.51,7.6,3.21a169.52,169.52,0,0,1,12.6-22.8h-6.83c1.4,2-3.05,10.12-3.84,12.26l-4.93,13.44c-1.62,4.39,5.66,7.52,7.63,3.21l12.72-27.78-7.78-3.28a90.39,90.39,0,0,1-9.06,28.6l7.23,4.22a186.42,186.42,0,0,0,10-28.1l-8-2.19a56.49,56.49,0,0,1-3.77,13.09c-1.37,3.14-3.12,7.66-5.67,10q-.83,2.26-1.29.67-1.66-.69-3.37-1.27a53.65,53.65,0,0,0-5.19-1.48,63.63,63.63,0,0,0-13.77-1.54c-5.42,0-7,8.76-1.32,9.73,6.13,1.06,12.29,1.94,18.44,2.89l1.33-9.85a16.47,16.47,0,0,1-11.43-3.49l-2.21,8.38a34.82,34.82,0,0,1,8.36-.67,30.52,30.52,0,0,1,4,.42q.88.14,1.74.37,1.51.3.45.16l-1.47-3.55-.11.92L506,700.8c1.18-1-2.47-.76-3.34-.9-2-.32-4-.76-6-1.28a61.9,61.9,0,0,1-11-4.07l-3.89,9.23,8.4,2.76,1.35-9.94c-1.56-.1-5.45-.12-6.6-1.51l1.48,3.58c0-.45,4.08-3.67,4.76-4.22a37,37,0,0,1,6.82-4.33,36.44,36.44,0,0,1,15.54-3.67c5.54-.12,7.08-8.65,1.35-9.94a25.54,25.54,0,0,1-12.67-6.83l-3.62,8.74a33.1,33.1,0,0,1,18.78,3.26l4-9.45a63.72,63.72,0,0,1-14.87-5.57l-1.24,9.48a14.9,14.9,0,0,1,12.4,3.52L522.7,671a73.39,73.39,0,0,1-12.36-3.78L509,677.37A14.89,14.89,0,0,1,519,680.68c5.33,4,10.45-5,5.2-8.9A24,24,0,0,0,509,667c-6.19.15-6.57,8-1.38,10.17A73.4,73.4,0,0,0,519.93,681c4.71,1,9.22-5,5.05-8.68a26,26,0,0,0-22.5-6.18c-4.4.78-5,7.5-1.24,9.48a74.87,74.87,0,0,0,17.36,6.58c5.48,1.32,9.42-6.72,4-9.45a42.35,42.35,0,0,0-24-4.57c-4.15.45-7.08,5.4-3.62,8.74a35.83,35.83,0,0,0,17.22,9.36l1.35-9.94a47.27,47.27,0,0,0-30.71,12c-3.41,3-8.51,7.88-5.85,12.92,2.45,4.63,10,5.23,14.55,5.49,5.91.35,6.57-8.23,1.35-9.94l-8.4-2.75c-5.36-1.75-9.1,6.75-3.89,9.23a72.93,72.93,0,0,0,17.66,6c4.59.88,12,2.79,15.23-1.91s-.57-9-5.17-10.25c-6.33-1.68-13-1.36-19.39-.1-3.49.69-5.1,6.07-2.21,8.38a27.1,27.1,0,0,0,18.52,6.42c5.35-.2,7.18-9,1.33-9.85-6.59-1-13.18-2.06-19.79-2.95V709A53.07,53.07,0,0,1,505,711.52c4.32,1.41,7.79,2,11.08-1.71,6.62-7.39,10.17-18.41,11.72-28,.83-5.12-6.55-7.44-8-2.19a171,171,0,0,1-9.22,26.07c-2.17,4.81,4.68,9.08,7.23,4.22a94.14,94.14,0,0,0,10-30.56c.61-4.27-5.6-8.12-7.78-3.28L507.53,704l7.63,3.21q3.31-9.45,6.63-18.89c1.47-4.18,3.83-8.94.92-13a4,4,0,0,0-6.83,0,214.6,214.6,0,0,0-13,22.59l7.6,3.21c2.6-7.34,5.15-14.76,7.22-22.27,1.14-4.11,1.21-10.12-4.72-10-5.45.09-7.88,6.59-9.85,10.65A115,115,0,0,0,495.91,699c-1.23,4.47,5.69,7.73,7.73,3.26a102.11,102.11,0,0,0,6.3-17.64c1.28-5.14,2.62-9.94-.94-14.35-1.72-2.13-5.47-1.36-6.68.86A102.85,102.85,0,0,0,493.4,693c-1.32,4.75,5.25,7.35,7.82,3.3a43.5,43.5,0,0,0,6.8-24.44c-.07-3.37-4.91-6.14-7.35-3a78.91,78.91,0,0,0-13.52,25.44c-1.47,4.68,5.56,7.65,7.92,3.34a105.12,105.12,0,0,0,9.46-23.82c1.05-4-4.35-7.7-7.31-4.25a72.63,72.63,0,0,0-13.57,23.57c-1.7,4.87,5.78,7.89,8.25,3.48a91.65,91.65,0,0,0,9.84-26A4.64,4.64,0,0,0,494,666c-8.25,7.47-11.51,18.14-14.24,28.59-1.54,5.89,6.8,7.9,8.93,2.46l8.88-22.65c1.94-5-6-8.12-8.5-3.58q-6.34,11.41-11.62,23.34c-2.38,5.37,5.16,10.13,8.07,4.72a66,66,0,0,0,5.67-14.18c1.61-6-6.83-7.93-9-2.49a72.89,72.89,0,0,1-6.92,12.93l7.8,4.56q2.15-4.71,4.31-9.42c2.35-5.11-5.2-9.6-7.61-4.45A55.9,55.9,0,0,1,470.06,700l6.35,1.68.19-.18h-6.34l1.42,2.29c2.43,3.91,8.25.47,6.15-3.6Z"/><path class="cls-7" d="M526.4,680.74a10,10,0,0,0,2.3-1.15c3.78-2.56.43-8.51-3.62-6.19-6.65,3.82-9.62,11.45-11.62,18.56a102.08,102.08,0,0,0-2.56,11.92c-.56,3.59-1.77,7.77-.53,11.26,1.07,3,5.18,3.85,6.94.91s1.52-6.23,1.89-9.49A73,73,0,0,1,521,696.38c1.8-6.9,5.7-11.95,9-18.07l-6.68-1.81a10.34,10.34,0,0,0,.27,2.64,2.31,2.31,0,0,0,2.83,1.6Z"/><path class="cls-7" d="M839.11,755a10.38,10.38,0,0,0,1.45-1.75L832,752.15c6.5,34.63,5.15,69.26-6.85,102.59l9.87,2.72a239,239,0,0,0,4.67-102.62c-1.09-6.35-10.74-3.65-9.67,2.67a227.18,227.18,0,0,1-4.87,97.24c-1.75,6.44,7.66,8.84,9.87,2.72,12.3-34,15.47-72.69,6-107.8-1.09-4-6.4-4.41-8.55-1.12l-.39.59c-2.12,3.26.78,6.61,4,7a3.93,3.93,0,0,0,3-1.12Z"/><path class="cls-7" d="M752.05,829.1c-5.1,3.51-9.05,9-13.34,13.42-4.48,4.66-8.82,9.46-13.35,14.08l10,10c8.35-9,16.77-18.33,21.63-29.78,3.56-8.38-7.44-15.5-12.55-7.34a100.47,100.47,0,0,1-28.53,29.91c-7.73,5.27-.42,18,7.38,12.63A114.94,114.94,0,0,0,757,836.8l-13.28-5.6c-4,9.74-11.37,17.69-18.33,25.4-6.07,6.71,3.66,16.59,10,10,4.69-4.89,9.38-9.82,13.63-15.09,4-5,8.84-10.1,11.33-16,1.89-4.5-4.44-9-8.26-6.35Z"/><path class="cls-7" d="M607.85,822.27l2,10.44c.47,2.43,4.15,1.4,3.71-1l-1.91-10.47c-.45-2.48-4.27-1.44-3.8,1Z"/><path class="cls-7" d="M609.48,833c-.14,2-.26,4.07-.41,6.1s-.68,4,0,5.9a2.56,2.56,0,0,0,4.88,0c.7-1.84.16-4,0-5.9s-.27-4.07-.41-6.1a2.06,2.06,0,0,0-4.12,0Z"/><path class="cls-7" d="M612,812.2q-.23,17.5.76,35c.2,3.46,5.41,3.52,5.42,0l.05-21.05c0-3.39,1.55-10.6-1.94-12.81a3.17,3.17,0,0,0-4.27,1.12,5.71,5.71,0,0,0-.75,2.68c-.36,3.6,5.52,4.35,6.3.85.35-1.56.7-3.11,1-4.67l-6.92-.94q.91,26.66,1.1,53.35c0,4.76,7.39,4.77,7.41,0,.06-17.82-.43-35.57-1.46-53.35-.27-4.58-6.61-4.48-7,0-.15,1.58-.27,3.17-.38,4.76h6.41l-.28.47-4.27,1.12c-1.83-.81-.86,4.26-.84,5.51l.15,7.66.3,15.31h5.42q-1.4-17.45-2-35c-.09-2.71-4.18-2.72-4.22,0Z"/><path class="cls-7" d="M607.51,812.43c-.4,12.58-.51,25.16-.94,37.73-.15,4.43,6.32,4.24,6.77,0,.75-7.11,1.29-14.25,1.9-21.37h-7l-1.2,30.9c-.18,4.58,7,4.58,7.13,0l1.08-30.9c.16-4.55-6.64-4.44-7,0-.58,7.12-1.23,14.24-1.66,21.37h6.77c-.13-12.6-.4-25.17-1.43-37.73-.23-2.8-4.31-2.87-4.41,0Z"/><path class="cls-7" d="M807.37,777.07l-.86,1.26,1.69.71.29-.52-1.47-.84c-.61,4.59-9.55,5.09-12.77,4.9a44.59,44.59,0,0,1-11.64-2.7c-6.4-2.17-12.58-4.51-19.44-4.39a1.17,1.17,0,0,0-.59,2.17c7.29,4.69,16.35,13.06,25.55,13.07,4,0,11.89-2.6,12.46-7.27.2-1.67-2.44-1.67-2.62,0s-3.8,3-5.11,3.62c-4.34,2-8.56,1-12.64-1.1-5.72-2.94-11-6.86-16.45-10.33l-.59,2.17c10.39-.22,19.32,5.76,29.48,6.85,5,.54,15.81-.23,16.32-7a1,1,0,0,0-1.47-.84c-.8.6-.94.7-1.09,1.72s1.12,1.69,1.69.71l.76-1.32a.87.87,0,0,0-1.5-.88Z"/><path class="cls-7" d="M807.49,776.47v.07c-.29,2.05,2.78.78,1.51-.4l-.06-.05c-.42-.39-1.34-.3-1.44.38Z"/><path class="cls-7" d="M807.87,786.74a13.69,13.69,0,0,0,2.53-4.78.34.34,0,0,0-.61-.26q-2.6,4.14-5.2,8.29c-.23.37.33.82.61.47a26.68,26.68,0,0,0,5-8.86c.14-.44-.57-.76-.77-.32a39.87,39.87,0,0,1-4.65,7.68c-.32.42.34.87.7.54,3.91-3.58,6.33-8.22,5.71-13.61a.56.56,0,0,0-.7-.53,19.16,19.16,0,0,1-4.75.68l.17,1.25c1.86-.56,5.52-1.91,5.07,2.34-.11,1.06-1.47,2.69-2,3.6a67.16,67.16,0,0,1-5.71,7.56c-.49.59.3,1.42.86.86a45.44,45.44,0,0,0,5.14-6.42c1.23-1.83,3.15-4.28,3.48-6.54.6-4.14-4.74-3.34-7.14-2.6-.66.2-.57,1.28.17,1.25a20.84,20.84,0,0,0,5-.88l-.7-.53c.68,5.15-1.52,9.53-5.24,13l.7.54a39.87,39.87,0,0,0,4.6-7.7l-.77-.32a25.51,25.51,0,0,1-4.73,8.54l.61.47q2.56-4.17,5.1-8.35l-.61-.26a13.27,13.27,0,0,1-2.35,4.6c-.2.26.26.62.46.36Z"/><path class="cls-7" d="M740.22,454.74a13.09,13.09,0,0,1-4.32-5.21c-.2-.43-.81-.05-.63.37a24.17,24.17,0,0,0,8.81,10.71c.35.24.8-.33.46-.6-4.13-3.32-9.23-7.45-9-13.34s4.92-7.33,9.89-5.59a8,8,0,0,0,2.53.88c2.39,0,2-1,3.31-2.24,8.71-7.83,6.22-1.72,12.29-.25a3.7,3.7,0,0,0,3.81-.82c2.42-2.29,3.53-5,7.72-4,3.15.72,5,3.3,6.05,6.12,1.43,3.77.48,8,2.06,11.66,1.76,4.07,4.39,6.55,4.71,11.35.06.87,1.42.88,1.36,0a17.88,17.88,0,0,0-2-7.54c-.64-1.17-1.57-2.12-2.23-3.27-1.48-2.58-1.19-5.24-1.54-8.06-.55-4.35-2.35-9.25-6.75-11-3.49-1.41-6.31-.37-8.91,1.95a5.26,5.26,0,0,0-.85,1.4q-4.33,1.42-7-1.33c-.93-.46-1.41-1.15-2.47-1.49a5.48,5.48,0,0,0-4.3.42,5.74,5.74,0,0,0-2,1.83c.2-.31-1.27,3-.91,2.69-2.67,2.27-5.47-.32-8.12-.5-3.75-.25-6.84,3-7.43,6.46-.84,5,2.72,10.41,6.69,13.17,3.34,2.33-.32-1.13-1-1.88-.12-.13-3.83-5.62-3.88-5.62-1.53.11,2.67,3.82,3.39,4.33.33.23.63-.3.31-.53Z"/><path class="cls-7" d="M773.24,411.44c5.11,2.15,9.21,5.63,10.75,11.12a.9.9,0,0,0,1.74-.48c-1.72-6.14-6.29-10-12-12.37-1.07-.45-1.53,1.29-.48,1.74Z"/><path class="cls-7" d="M742.56,429.89c2.09-5.84,2.41-12.54,5.54-18,5.48-9.51,17.4-5.75,24.09.08.87.76,2.15-.51,1.27-1.27-5.76-5-16.09-9.55-23.27-4.3-6.75,4.93-6.81,15.82-9.37,23-.39,1.09,1.35,1.56,1.74.48Z"/><path class="cls-7" d="M749.76,438.07a13.56,13.56,0,0,1-6.94-8.17c-.36-1.1-2.1-.63-1.74.48a15.36,15.36,0,0,0,7.76,9.25c1,.51,2-1,.91-1.55Z"/><path class="cls-7" d="M731.68,450.36c-.62,3.16.95,5.37,2.08,8.17.34.85,1.74.47,1.38-.38-1.06-2.53-2.68-4.75-2.33-7.64.08-.64-1-.79-1.13-.15Z"/><path class="cls-7" d="M731.32,451.33c.39,4.92,1.61,8.25,5.41,11.52s7.8,5.3,11.86,7.93c.8.52,1.6-.62,1-1.28-2.58-2.79-6.66-4-9.66-6.42a24.48,24.48,0,0,1-4.57-4.24c-1.68-2.24-2.26-5-2.76-7.69a.65.65,0,0,0-1.27.17Z"/><path class="cls-7" d="M791.38,423.44c-5.15-5-12-.5-17.09,2.12-4.81,2.47-10.5,6.62-9.19,12.65.32,1.47,2.57.85,2.25-.62-1.32-6.09,6.6-8.92,10.63-11,1.79-.92,3.53-2.39,5.48-2.92,2.57-.7,4.82.19,7.19,1a.75.75,0,0,0,.73-1.25Z"/><path class="cls-7" d="M780.75,759.15v-.59a.7.7,0,0,0-.69-.69c-.78,0-1.18.42-1.71.93-.88.86-1.68,1.8-2.5,2.72s.44,2.08,1.26,1.26a8.36,8.36,0,0,0,2.11-3.52.91.91,0,0,0-1.51-.88l-3.21,3.37,1.52,1.17a21.58,21.58,0,0,0,2.38-4.57c.41-1.19-1.24-1.65-1.88-.79L773.2,762l1.77,1c1.09-1.77,2.18-3.53,3.29-5.29.61-1-.85-2.15-1.62-1.25-1.45,1.69-3,3.34-4.34,5.09-.81,1,.55,2.52,1.49,1.49,1.5-1.64,2.88-3.41,4.31-5.12l-1.62-1.25c-1.08,1.77-2.18,3.54-3.27,5.3-.71,1.15,1,2.06,1.77,1l3.34-4.47-1.88-.79a19.45,19.45,0,0,1-2.06,4.14c-.56.92.77,2,1.52,1.17l3.12-3.46-1.51-.88a6.34,6.34,0,0,1-1.63,2.74l1.26,1.26c.51-.61,1-1.21,1.53-1.82.27-.33,1.06-1.69,1.42-1.71l-.69-.69.05.59a.66.66,0,0,0,1.31,0Z"/><path class="cls-7" d="M788.11,761.51a11.46,11.46,0,0,1-2,4.13l1.62.94c.84-1.64,1.71-3.27,2.51-4.93l-2-.82a11.46,11.46,0,0,1-.71,2.47,10.84,10.84,0,0,0-1.06,2.24,1,1,0,0,0,1.39,1.07c1.51-.93,2.15-3.57,2.44-5.21.19-1.1-1.39-2-2-.82-.79,1.67-1.52,3.38-2.28,5.07a.94.94,0,0,0,1.62.94,8.73,8.73,0,0,0,1.54-4.92.59.59,0,0,0-1.15-.16Z"/><path class="cls-7" d="M761.48,831.66l.61-1.1a.72.72,0,0,0-1.24-.72c-.52.91-1,1.84-1.47,2.76a.85.85,0,0,0,1.47.86c.46-.63.87-1.3,1.31-1.95l-1.61-.94a33.37,33.37,0,0,1-1.83,3.4l1.64,1a20.81,20.81,0,0,1,2.46-4.16l-1.64-1c-.87,2-1.64,4-2.48,6l1.5.63q1.2-2.81,2.66-5.5l-1.66-.7a15.58,15.58,0,0,1-2.75,4.82L760,836c.49-1.6,1.46-3.17,1.49-4.88,0-1.4-.73-1.4-1.86-1.49l1,.73,0-.15-.1.76c.75-1.26.21-1.94-1-2.64a1.09,1.09,0,0,0-1.1,1.88,11.8,11.8,0,0,0,2.13.93l.59-2.14c-1.12-.26-2.18-.64-3.27-.18a1.16,1.16,0,0,0-.41,1.57c.59,1,1.9,1.35,3,1.71a1.1,1.1,0,0,0,.84-2,20.44,20.44,0,0,1-2.75-1.74l-.6,2.2a9.22,9.22,0,0,1,1.74.37,1.19,1.19,0,0,0,.91-2.16,4.71,4.71,0,0,0-2.43-.84,1.25,1.25,0,0,0-1.09.62c-.91,1.94,1.35,2.33,2.69,2.75v-2.41l-.23.09a1.25,1.25,0,1,0,1,2.29l.22-.1c1-.45.65-2-.3-2.28a8.53,8.53,0,0,1-1.63-.53l.58.76v.4l-1.22.93a3.9,3.9,0,0,1,1.52.48l.63-2.28a20.71,20.71,0,0,0-2.37-.45c-1.26-.16-1.46,1.62-.6,2.2a20.42,20.42,0,0,0,2.84,1.59l.84-2c-.42-.15-1.36-.35-1.57-.76l-.69,1.69a5.2,5.2,0,0,1,1.79.22c1.36.18,2-1.79.59-2.14a5.93,5.93,0,0,1-1.62-.67l-1.1,1.88a4.54,4.54,0,0,1,1,.53l-.46-.6.07.19.1-.77c-.28.5-.52.7-.36,1.33a1,1,0,0,0,1,.73c.26,0,.55-.08.79-.06l-.85-.49q-.05-.43-.06.15a2.84,2.84,0,0,1-.13.77,9.32,9.32,0,0,1-.36,1.1c-.29.81-.62,1.59-.87,2.41s1,1.68,1.58.92a17.9,17.9,0,0,0,3.16-5.68.91.91,0,0,0-1.66-.7,51.35,51.35,0,0,0-2.58,5.79c-.32.86,1.12,1.48,1.5.63.85-1.9,1.79-3.78,2.63-5.71a1,1,0,0,0-1.64-1,20.81,20.81,0,0,0-2.46,4.16,1,1,0,0,0,1.64,1,24.86,24.86,0,0,0,1.79-3.41.93.93,0,0,0-1.61-.94c-.41.67-.83,1.33-1.17,2l1.56.66a25.89,25.89,0,0,1,1.16-2.69l-1.31-.55-.41,1.19a.61.61,0,0,0,1.11.47Z"/><path class="cls-7" d="M747.45,826.79l.21-.21c1-.65-.27-2-1-1a17.57,17.57,0,0,0-1.59,2.51l1.66.7a7.34,7.34,0,0,1,1.13-1.88l-1.57-1.21-1.4,2.47a1.06,1.06,0,0,0,1.82,1.07,10.6,10.6,0,0,1,1.37-2.11l-1,.28.15,0-.75-1.32a4.78,4.78,0,0,1-.5,1.14c-.49,1,.85,2.3,1.69,1.3a9.34,9.34,0,0,0,1.31-2l-1.84-1.08a11.62,11.62,0,0,1-1.55,2.82l1.71,1a2.55,2.55,0,0,1,.45-.82l-.8.1.14.05-.62-.48.07.14-.11-.8c-.39,1.54-1.54,2.81-2,4.33a.91.91,0,0,0,1.51.88,12,12,0,0,0,1.73-2.89c.36-.73,1.07-1.72.66-2.56-1-2-2.65.5-3,1.51a1,1,0,0,0,1.71,1,13.26,13.26,0,0,0,2-3.19c.56-1.23-1.24-2.32-1.84-1.08a7.17,7.17,0,0,1-1,1.55l1.69,1.3a6.1,6.1,0,0,0,.72-1.66,1.1,1.1,0,0,0-.75-1.32c-1.53-.32-2.24,1.75-2.88,2.81l1.82,1.07,1.3-2.53a1,1,0,0,0-1.72-1,8.18,8.18,0,0,0-1.31,2.61c-.35,1.14,1.33,1.54,1.75.48a19.31,19.31,0,0,1,1.21-2.46l-1.16.15.12.13-.14-.52-.07.26c-.12.43.47.82.78.46Z"/><path class="cls-7" d="M761.67,829.75c.84,2.42-3.89,7.81-5.31,9.49-2.21,2.61-4.93,4.81-7,7.5-.62.79.19,2.26,1.19,1.55,2.34-1.67,17.57-16.75,12-19.19-.42-.19-1,.13-.86.66Z"/><path class="cls-7" d="M746.13,824.88c-3.32,4.39-5.64,11.13-6.35,16.55-.13,1,1.34,1,1.66.22,1-2.69,1.68-5.55,2.66-8.27a85.46,85.46,0,0,0,2.91-8.13.48.48,0,0,0-.88-.37Z"/><path class="cls-7" d="M639.72,474.18c2.3,5.22,5.1,7.92,9.81,11,5.42,3.49,9.32,8.48,14.07,12.73a.73.73,0,0,0,1-1,69.38,69.38,0,0,0-10.87-11.27c-1.8-1.42-3.78-2.54-5.69-3.81-3.38-2.26-5.11-4.84-7.41-8.13a.55.55,0,0,0-1,.56Z"/><path class="cls-7" d="M667.49,497.11a2.77,2.77,0,0,0-2,3.36,2.86,2.86,0,0,0,3,2.08,2.61,2.61,0,0,0,2.42-1.84,3.3,3.3,0,0,0-.76-3.31,3.1,3.1,0,0,0-3.93-.5,4,4,0,0,0-1.76,2.23,4,4,0,0,0,.37,2.91,2.82,2.82,0,0,0,2.43,1.39,2.93,2.93,0,0,0,2.9-2.15,2.81,2.81,0,0,0-1.32-3.18,2.58,2.58,0,0,0-3.46.91l0,.05.93-.93q.83-.29.43-.21l.74-.1h-.09l.74.1-.09,0,2,2,0-.12.1.75a1,1,0,0,1,0-.24l-.1.76c0-.12.24-.65,0-.11a2,2,0,0,1-1.27,1.11l-2.79-.74a8.94,8.94,0,0,0,.88.7,1.7,1.7,0,0,0,.73.33q-.66-.32-.31-.11l-.9-3.43,0,.09.88-.88,2.11,3.24a2.24,2.24,0,0,0,.92-2.81,2.28,2.28,0,0,0-2.65-1.3Z"/><path class="cls-7" d="M671.41,496.66a3.5,3.5,0,0,0-.11-1,2.81,2.81,0,0,0-2-2,3,3,0,0,0-2.77.73,2.94,2.94,0,1,0,4,4.3,3.4,3.4,0,0,0,.85-2.05Z"/><path class="cls-7" d="M661.8,490.34a3.07,3.07,0,0,0-2.33,2.23,2.79,2.79,0,0,0,5.09,2.15c.1-.15.15-.31.25-.45a2.65,2.65,0,0,0-.21-3,2.77,2.77,0,0,0-2.81-1Z"/><path class="cls-7" d="M662.89,497.76l0,0-.28-2.16v0a2.75,2.75,0,0,0,.71,2.68,3,3,0,0,0,2.78.74,2.62,2.62,0,0,0,1.48-1,2.7,2.7,0,0,0,.56-1.35,2.79,2.79,0,0,0-1.7-3,2.85,2.85,0,0,0-3.11.59,3.17,3.17,0,0,0-.73,1.26,2.84,2.84,0,0,0,.29,2.19Z"/><path class="cls-7" d="M665.82,495.41a2.68,2.68,0,0,0,.6.78A3.17,3.17,0,0,0,669,497a3,3,0,0,0,2.29-1.49l0-.07-.5.65.07-.06a3.11,3.11,0,0,0,.84-1.44,3.45,3.45,0,0,0,0-1.73,3.27,3.27,0,0,0-2.71-2.34,3.2,3.2,0,0,0-3,1.23,3.09,3.09,0,0,0-.64,1.54,3.62,3.62,0,0,0,.39,2.08Z"/><path class="cls-7" d="M676.09,497.67l0-.11a3.26,3.26,0,0,0-3.54-2.31,3.19,3.19,0,0,0-2.8,3.17v.11a3.64,3.64,0,0,0,.95,2.29,3.11,3.11,0,0,0,2.72.89,3.22,3.22,0,0,0,2.69-4Z"/><path class="cls-7" d="M678.74,501.13c.74,2.43,3.11,3.31,5.11,4.6a109.09,109.09,0,0,1,9.63,7.24c.7.57,1.69-.36,1-1a54.17,54.17,0,0,0-6.76-5.48c-2.29-1.6-6.8-3.17-7.91-5.8-.26-.61-1.26-.18-1.07.45Z"/><path class="cls-7" d="M586.36,533.61a8.07,8.07,0,0,0-1,.63c-.71.56.2,1.63.94,1.21a6.86,6.86,0,0,0,.79-.57c.73-.56.1-1.76-.75-1.27Z"/><path class="cls-7" d="M591.84,540q-.57-.15-.26,0c1,.66,2.09-.81,1.28-1.66a1.31,1.31,0,0,0-2.08.27,1,1,0,0,0,1.06,1.38Z"/><path class="cls-7" d="M595.45,544.73l0,0a1.08,1.08,0,0,0,1.58-.64l0-.16a1,1,0,0,0-1.2-1.2l-.16,0a1.08,1.08,0,0,0-.64,1.58,1,1,0,0,0,.34.36Z"/><path class="cls-7" d="M600.74,548.07c-.06-.11-.06-.15,0,0a.35.35,0,0,1,0-.18c0-.14,0,0,0,0a3.06,3.06,0,0,0,.24-.36,1.21,1.21,0,0,0-1.9-1.46c-.93.81-.57,2.39.22,3.15a.93.93,0,0,0,1.45-1.12Z"/><path class="cls-7" d="M605.62,552.44a3.1,3.1,0,0,0,1.24-1.17,1.13,1.13,0,0,0-1.54-1.54,3.1,3.1,0,0,0-1.16,1.25,1.08,1.08,0,0,0,1.46,1.46Z"/><path class="cls-7" d="M612.4,556.33l.17-.26a1.2,1.2,0,0,0-.71-1.75.94.94,0,0,0-.63,0,1.2,1.2,0,0,0-.71,1.75l.17.26a1,1,0,0,0,1.72,0Z"/><path class="cls-7" d="M617.38,560.85a1.31,1.31,0,0,0,.29-.4,1.16,1.16,0,1,0-2,0,1.31,1.31,0,0,0,.29.4,1,1,0,0,0,1.43,0Z"/><path class="cls-7" d="M623.47,564l.14-.13c1.19-1.07-.69-2.95-1.76-1.76l-.13.14a1.23,1.23,0,0,0,1.74,1.74Z"/><path class="cls-7" d="M627.59,565.81a1.83,1.83,0,0,0,.66.66,1.1,1.1,0,0,0,1.49-1.49,1.83,1.83,0,0,0-.66-.66,1.1,1.1,0,0,0-1.49,1.49Z"/><path class="cls-7" d="M635.08,568.77a2.26,2.26,0,0,0,.48.78c1,1,2.62-.59,1.57-1.57a2.26,2.26,0,0,0-.78-.48,1,1,0,0,0-1.27,1.27Z"/><path class="cls-7" d="M643.55,571.42a3.24,3.24,0,0,1,.77-.17,1.16,1.16,0,0,0,.82-.82,1.21,1.21,0,0,0-.3-1.14,1.13,1.13,0,0,0-1.14-.3,2.26,2.26,0,0,0-1.32,1.25.86.86,0,0,0,1.17,1.17Z"/><path class="cls-7" d="M649.14,570.24a1.32,1.32,0,0,0-.32,1.23,1.05,1.05,0,0,0,2,0,1.32,1.32,0,0,0-.32-1.23,1,1,0,0,0-1.38,0Z"/><path class="cls-7" d="M656.32,570.9a1.48,1.48,0,0,0,.41,1.56,1.16,1.16,0,0,0,1.38.18,1.12,1.12,0,0,0,.56-.92,1.44,1.44,0,0,0,0-.36.85.85,0,0,0-.2-.39q-.23-.33.06.22a1.11,1.11,0,0,0-2.16-.29Z"/><path class="cls-7" d="M662.53,571.53l.1.06a1.1,1.1,0,0,0,1.49-.39,1.05,1.05,0,0,0,0-1.1,1.1,1.1,0,0,0-1.49-.39l-.1.06a1,1,0,0,0,0,1.76Z"/><path class="cls-7" d="M668,568a1.17,1.17,0,0,0-.46,1,1,1,0,0,0,.94.94,1.17,1.17,0,0,0,1-.46A1.06,1.06,0,0,0,668,568Z"/><path class="cls-7" d="M674.91,567.7a1.09,1.09,0,0,0,0-2.18,1.09,1.09,0,0,0,0,2.18Z"/><path class="cls-7" d="M678.17,562.57a1.28,1.28,0,0,0,.27,2,1.34,1.34,0,0,0,1.93-.79c.35-.92-.67-1.67-1.49-1.49.52-.11-.07,0-.18,0h.6l.84.84,0,0c-.28-.74-1.34-1.26-2-.52Z"/><path class="cls-7" d="M682.61,558.52a3.1,3.1,0,0,0,0,.65,1.23,1.23,0,0,0,2.46,0,3.1,3.1,0,0,0,0-.65,1.2,1.2,0,0,0-2.39,0Z"/><path class="cls-7" d="M688.6,553.62a4,4,0,0,0-.07,1.46,1.26,1.26,0,0,0,2.42,0,4,4,0,0,0-.07-1.46,1.19,1.19,0,0,0-2.28,0Z"/><path class="cls-7" d="M692,549.62q.06-.36,0,.27a1.11,1.11,0,0,0,.11.52,1.46,1.46,0,1,0,2.67-1.12,1.72,1.72,0,0,0-1-.82l.59.34-.11-.09a1.29,1.29,0,0,0-1.4-.26,1.26,1.26,0,0,0-.79,1.17Z"/><path class="cls-7" d="M695.17,541.72a2.26,2.26,0,0,0-.32,1.25,1.46,1.46,0,0,0,.72,1.25l.1.06a1.41,1.41,0,0,0,1.57-.11,1.39,1.39,0,0,0,.51-1.48,1.88,1.88,0,0,0-.81-1l.5.5a.47.47,0,0,0,.05.19,1.25,1.25,0,0,0-.91-1.2,1.28,1.28,0,0,0-1.4.57Z"/><path class="cls-7" d="M697.52,535.42a1.67,1.67,0,0,0,.38,3.07,1.36,1.36,0,0,0,1-2.49c.12.06.18.15,0,0l-.37-.29.46.46,0,.8a1.16,1.16,0,0,0-.18-1.39,1.2,1.2,0,0,0-1.39-.18Z"/><path class="cls-7" d="M697.79,529.91a1.28,1.28,0,0,0,1.92,1.43,1.26,1.26,0,0,0,.54-1.33v0a1.13,1.13,0,0,0-.79-.79c-.13,0,.28.14.1,0l.6,1.05v-.06a1.21,1.21,0,0,0-2.37-.32Z"/><path class="cls-7" d="M697.56,523.46a1.73,1.73,0,0,0,.42,1.19.93.93,0,0,0,1.31,0,1.74,1.74,0,0,0,.42-1.19c.12-1.39-2.27-1.39-2.16,0Z"/><path class="cls-7" d="M828.14,567.49a23,23,0,0,1,3.25,9.45c.18,1.6,2.7,1.62,2.53,0a25.71,25.71,0,0,0-2.77-9.33c-.73-1.42-2.73-.39-2.45,1a35.29,35.29,0,0,0,1.52,5.42,1.35,1.35,0,0,0,2.59-.72l-1.42-5.48a1.35,1.35,0,0,0-2.61.72c3.76,14.86,5.23,30.23.62,45.09-4,13-11.61,24.53-15.72,37.47-.41,1.3,1.68,2.24,2.25.95C821.79,638.93,829.25,626,833,612c4-14.65,2.07-29.63-1.63-44.13l-2.61.72,1.43,5.47,2.59-.72a35.29,35.29,0,0,1-1.53-5.42l-2.45,1a25.09,25.09,0,0,1,2.6,8.31l2.44-.67A23,23,0,0,0,830,566.42c-.76-1.1-2.52-.12-1.82,1.06Z"/><path class="cls-7" d="M872.57,563.41c-2.63,9.51-3.5,19.65-4.42,29.45q-1.47,15.7-1.66,31.48c-.16,15.77.48,32-3.67,47.38a1.08,1.08,0,0,0,2.08.57c5-14,3.88-30.37,3.89-45,0-10.51.42-21,1.28-31.49.89-10.77,2.87-21.47,3.57-32.25,0-.63-.92-.73-1.08-.15Z"/><path class="cls-7" d="M518.09,828.51a1.54,1.54,0,0,0,0-3.07,1.54,1.54,0,0,0,0,3.07Z"/><path class="cls-7" d="M691.26,805.79c-3.3,2.45-7.75-.48-11.28-1s-7.22.16-10.81.53c-7.85.8-15.69.45-23.56.27-16.21-.38-31.69,2.53-47.52,5.69-7.84,1.56-15.67,3.26-23.37,5.42-7.17,2-14.12,4.85-21.42,6.37-15.76,3.28-32.25-.37-47.89,3.48-1.33.33-1.08,2.53.33,2.43,15.76-1.14,32.05.82,47.62-2.14,7.64-1.45,14.9-4.42,22.34-6.6,8.29-2.43,16.72-4.33,25.17-6.1s16.89-3.66,25.43-4.81c8.74-1.17,17.41-.92,26.2-.73,4.25.09,8.52.14,12.76-.16,4-.28,7.94-1.23,11.91-1.26,5,0,10.83,3.71,15.16,0,.75-.64-.26-2-1.07-1.38Z"/><path class="cls-7" d="M523.13,824.68c-4.61,2-6.56,6-7.94,10.68-2.18,7.34-3.5,15-5.18,22.48l2.37.32a87.28,87.28,0,0,1,6.35-30c.56-1.38-1.82-2.39-2.41-1-4.33,10-7.6,21.33-7.42,32.37a1.25,1.25,0,0,0,2.51,0c1.36-10.92,3-21.14,7.33-31.35l-2.55-.7A90.49,90.49,0,0,0,510,858.16a1.21,1.21,0,0,0,2.37.32c1.36-6.14,2.68-12.29,4.08-18.42,1.16-5.07,2.57-11.35,7.38-14.25.74-.45.09-1.46-.66-1.13Z"/><path class="cls-7" d="M611.79,832.79c-5,5.38-2.67,13-5.54,19.26l4.34,1.18q.69-7.52,1.78-15l-4.65-.63c-.06,9.34-3.11,18.33-2.67,27.7.12,2.59,4,3.31,4.65.63a52.61,52.61,0,0,1,2.49-7.46l-4.41-1.19,1,8.6a2.37,2.37,0,0,0,4.73,0q.36-3.39.71-6.77l-4.63.63a57.78,57.78,0,0,1,1.78,6.87l3.53-2.71-.84-1.29c-.79-2.76-4.44-1.95-4.73.64l-.25,2.28,4.71-.64-.24-1a2.42,2.42,0,0,0-4.38-.57l-.47.82,4.38.57-.26-.8c-.56-1.75-3.5-2.6-4.37-.57l-.5,1.16,4.37,1.84.11-.27-3.75-.48.54,1A2.41,2.41,0,0,0,613,867l1.32-1.25-4-1,.57,1.61a2.41,2.41,0,0,0,4.34.57l.74-1.14-4.33-.57.13.73.61-2.3-.54.52,2.3-.61a3.27,3.27,0,0,0-3.05.36l3.23.85c-1.69-2.74-5.64-3.19-7.39-.26-1.31,2.18,1.21,4.14,3.22,3.22.45-.21,3.11,1.09,4.08,1a3.35,3.35,0,0,0,2.17-1.19c2.15-2.12-1.16-5.43-3.31-3.31,1.51-1.49-4.53-.88-5.31-.53l3.22,3.22-.75.27a2.41,2.41,0,0,0,3.23.85l-.59.12a2.37,2.37,0,0,0,2.3-.61c1.19-1.14,1.29-1.95,1-3.55-.37-2.16-3.31-2.11-4.33-.57l-.75,1.13,4.34.57-.56-1.61a2.41,2.41,0,0,0-4-1l-1.33,1.25,3.74.48-.54-1a2.4,2.4,0,0,0-3.75-.48,5.1,5.1,0,0,0-1.34,2.37c-.7,2.52,3.26,4.39,4.37,1.84l.5-1.15-4.37-.57.25.8a2.43,2.43,0,0,0,4.38.57l.47-.82-4.38-.57.24,1c.67,2.83,4.42,1.87,4.71-.64l.26-2.28-4.73.64a6.64,6.64,0,0,0,3.05,4.16c1.83,1.24,4-.8,3.53-2.71-.54-2.31-1.15-4.58-1.87-6.85-.84-2.66-4.35-2-4.63.63q-.37,3.39-.73,6.77h4.73l-1-8.6c-.23-2-3.38-3.63-4.41-1.19a60.79,60.79,0,0,0-3,8.59l4.65.63c-.44-9.35,2.63-18.37,2.67-27.7,0-2.58-4.26-3.34-4.65-.63q-1.16,8.1-1.88,16.24c-.19,2.25,3.4,3.26,4.34,1.18,2.87-6.32.71-13.56,4.06-19.65.86-1.56-1.25-3.35-2.54-2Z"/><path class="cls-7" d="M742.11,843.84c-1.51-.49-2.18.07-3.18,1.19-2.73,3-4.69,7.51-6.83,11-1.33,2.15,1.58,4.09,3.34,2.58,3-2.59,6-5.22,9-7.83l-3.82-2.22c-1.89,5.68-7,10.94-10.45,15.76-1.61,2.25,1.73,4.27,3.57,2.75l4-3.3-3.18-3.18c-4,4.2-8.24,8.16-12.64,12l3.24,3.24q3.73-3.42,7.22-7.08c2-2.13-1-4.89-3.15-3.15-3,2.37-6,4.74-9,7.07l2.67,3.47,3.69-3.69c1.76-1.76-.54-5-2.72-3.52-1.63,1.06-3.24,2.15-4.85,3.23l2.62,3.39,2.23-2.75a2.19,2.19,0,0,0-2.64-3.42l-2.77,1.47,3,3L722.7,872c1.36-1.85-1.24-4.07-3-3l-2.39,1.4,3.06,3.06,1.26-2.42a2.27,2.27,0,0,0-3.54-2.73l-1.76,1.47,3.22,3.22a10.59,10.59,0,0,0,1.76-2.7c.92-1.95-1-4.44-3.14-3.14l-2.29,1.41,2.84,3.68a7.36,7.36,0,0,0,1.47-2.23c.82-1.87-1.13-4.9-3.26-3.26l.36,0,2.31,1.76-.15-.39-1.1,2.7.28-.17c2.62-1.6.22-5.74-2.41-4.13l-.28.17a2.42,2.42,0,0,0-1.1,2.7l.15.39c.35.88,1.21,1.9,2.31,1.76a4.25,4.25,0,0,0,2.53-1.07l-4-2.32-.43.75c-1.52,1.91.43,5.29,2.84,3.68l2.24-1.49L717.31,868l-1,1.8a2.28,2.28,0,0,0,3.22,3.22l1.73-1.5-3.54-2.73-1.22,2.44c-1,1.91,1,4.28,3.06,3.06l2.36-1.44-3-3-1.24,1.74c-1.34,1.89,1.21,4,3,3l2.75-1.51-2.64-3.42-2.21,2.77c-1.42,1.78.37,4.79,2.62,3.39,1.65-1,3.3-2,4.93-3.09l-2.72-3.52-3.64,3.74c-2,2.09.95,4.84,3.12,3.12,3-2.37,6-4.71,9-7l-2.7-3.5q-3.54,3.62-7.3,7c-2.21,2,1,5.14,3.24,3.24a162.93,162.93,0,0,0,12.58-12c2-2.15-1-5-3.18-3.18l-4,3.27,3.57,2.75c3.75-5.2,9-10.63,10.94-16.84.7-2.28-2.21-3.7-3.82-2.22-2.92,2.68-5.86,5.35-8.76,8.06l3.34,2.58c.36-.67,5.79-10.92,5.44-11.05,2,.75,3-2.58.9-3.25Z"/><path class="cls-7" d="M716.63,860.32c-4.87.65-6.22,6.86-4.44,10.84A9.84,9.84,0,0,0,717.7,876c2.81,1,5.77-.56,8.14-2l-3.64-4.71a21.21,21.21,0,0,1-2.47,2.41c-2.26,1.88.16,6.06,2.92,5a21.83,21.83,0,0,0,8.81-5.93l-4.22-4.22c-1.58,1.88-6,7.16-8.45,4.87-2.87-2.7,1.29-5,2.42-7.26.68-1.34-.12-3.5-1.9-3.32-7,.71-9.42,8.89-5.31,14.09,2.11,2.67,5.17,4.29,8.53,3s6.67-4.47,8.93-7.13c2.45-2.89-1.62-7.09-4.22-4.22a15.82,15.82,0,0,1-6.19,4.36l2.92,5a21.21,21.21,0,0,0,2.47-2.41c2.15-2.47-.58-6.56-3.64-4.71-2,1.18-4.3,2.52-5.84-.07-1.11-1.86-.38-4,.85-5.57.78-1,.43-3.1-1.19-2.88Z"/><path class="cls-7" d="M728.4,872.53c5.71-2.52,10.5-8.6,14.32-13.36s8.14-9.88,10.15-15.58a1.77,1.77,0,0,0-2.94-1.71c-4.17,4.81-7.14,10.68-11.25,15.62-3.73,4.49-8.78,8.57-11.72,13.59-.58,1,.54,1.84,1.44,1.44Z"/><path class="cls-7" d="M609.71,830.83c-3.69,1.3-3.23,6.73-3.69,10a157.34,157.34,0,0,0-2,18.53c-.07,3.47.67,7.41,4,9.32a7.28,7.28,0,0,0,9.21-1.95l-4.3-3.32L611,865.16c-2.67,1.37-1.09,4.89,1.39,5.15,9,.93,6.84-7.57,5.64-13.5l-4.86,2a3.58,3.58,0,0,1,.73,3.68q.3,3.58-3.94.84l-4.83,2a9.76,9.76,0,0,0,8.39,5.09v-5.23a5.67,5.67,0,0,1-3.43-.55c-2.8-1-4.49,3.29-2,4.73,10.41,6,10.62-14,9.84-19.12-.3-2-3.09-1.58-3.62,0a29.34,29.34,0,0,0-1.13,6.94c-.06.7-.48,9.18-2.49,7.7l-2,4.73a11.28,11.28,0,0,0,4.8.79c3.39-.11,3.34-5,0-5.23a4,4,0,0,1-3.83-2.52c-1.56-2.73-5.35-.8-4.83,2,.88,4.77,5.78,6,9.84,4.21,5.61-2.4,4.87-7.08,3.33-12.18-.83-2.74-5.53-2.4-5.23.71.16,1.59.38,3.15.61,4.73.27,1.79,1.14,2.77-1,2.54l1.39,5.15a8.22,8.22,0,0,0,3.88-3.79c1.7-3.17-2.67-5.54-4.73-2.76q-4.87.1-4.1-4.05,0-1.77.16-3.54c.14-2.57.34-5.14.54-7.71.37-4.55-.31-11.3,1.56-15.48.38-.85-.27-2.14-1.35-1.76Z"/><path class="cls-7" d="M512.1,844.85a57.94,57.94,0,0,0-4.32,16.61c-.25,1.83,3,2.29,3.25.44a59.83,59.83,0,0,1,3.69-14.09l-3.34-.92a67.27,67.27,0,0,0-1.59,7.65c-.33,2.34-.08,5.61-1.53,7.54l3.17,1.34c1.85-11.84,3.92-23.17,8.78-34.21,1.11-2.51-2.6-4.71-3.72-2.18-5,11.19-8.71,23.57-8.47,35.93a1.75,1.75,0,0,0,3.23.88c1.29-1.71,1.35-3.28,1.56-5.38a68,68,0,0,1,1.91-10.64c.58-2.2-2.56-3-3.34-.92a61.35,61.35,0,0,0-3.6,14.57h3.31c.66-5.34,2-10.48,3.1-15.72.26-1.2-1.53-2.13-2.1-.88Z"/><path class="cls-7" d="M790.33,700.91c3.83,0,3.84-6,0-6s-3.84,6,0,6Z"/></svg>