<svg xmlns="http://www.w3.org/2000/svg" viewBox="0 0 714.22 841.41"><defs><style>.cls-1{fill:#deb5d5;stroke:#b11f24;stroke-miterlimit:10;stroke-width:0.25px;}.cls-2{fill:#b11f24;}</style></defs><title>Brown Girls Food Club Logo</title><g id="Background"><rect class="cls-1" x="-5.96" y="-1.26" width="720.18" height="844"/></g><g id="New_Logo" data-name="New Logo"><path class="cls-2" d="M396.33,125.19C357.5,151,336.15,196.14,326.1,240.27s-12,89.46-19.88,133.88c-3.88,21.84-9.33,43.72-18.9,63.82-10.47,22-24.71,41.88-39.69,61-29.56,37.71-62.49,74.69-77.46,121.16-14,43.46-8.12,97.22,29.33,127.44,3.31,2.67,7.91,3.23,11.14,0,2.78-2.79,3.3-8.43,0-11.14-30.38-25-36.13-69.12-26.16-105.27,12.32-44.63,43.69-80.53,71.78-116.08,14.69-18.58,29-37.55,40.61-58.27a262.66,262.66,0,0,0,24.29-61.76c11.07-42.46,12.95-86.52,20.76-129.57,4.2-23.17,10.09-46.43,19.89-67.92,10.6-23.23,26.08-42.3,43.6-60.59,5.7-5.95-1.75-16.65-9.08-11.78Z"/><path class="cls-2" d="M402.22,132.53c-14.93-14.23-37.61-17-57.18-13.09-21.63,4.32-40.13,17.6-53.66,34.71-31.71,40.07-34.75,92.82-42.87,141.23-4.37,26.06-10.37,52.37-23.5,75.58-12.39,21.9-30,40.42-41.09,63.14-11.26,23.12-16.15,48.58-19.66,73.87-3.76,27.1-7.25,54.36-9,81.68-2,30.41-1.46,61.55,5.41,91.37,5.14,22.37,15.22,45.52,36.08,57.27a2,2,0,0,0,2-3.4c-18.56-11.56-27.82-32.5-32.72-53-6.14-25.73-7.14-52.42-6-78.75s4.49-52.44,7.81-78.53c3.08-24.29,6.39-48.84,14.63-72,8.42-23.68,23.67-42.69,37.78-63.11,14-20.23,23.11-42.23,28.66-66.16C260,275.55,258.21,224,280.81,179.44c11-21.76,28.05-41.92,51.13-51.27a75.1,75.1,0,0,1,69,6,1,1,0,0,0,1.25-1.62Z"/><path class="cls-2" d="M396.13,131.33a4,4,0,0,0,4.72-2.05,2,2,0,0,0-1.17-2.89c-1.23-.5-2.49-.89-3.74-1.32l-.56,4.14c3.18,0,5.73,1.08,8.72,1.95,2.44.72,3.78-2.71,1.69-4-3-1.86-7-2.27-10.41-2.14a2.11,2.11,0,0,0-.56,4.13c1.27.37,2.53.77,3.81,1.06l-1.38-2.43c0,.46-.25.66-.73.63a1.5,1.5,0,0,0-.39,2.94Z"/><path class="cls-2" d="M405.41,135.44c7.82,1.12,15.14,2.92,21.32,8.17,6,5.08,13.4,15.91,8.06,23.74-4.58,6.71-13.7,0-18.9,6.66-1.57,2-2.35,4.44-3.51,6.7-2.16,4.17-5.48,4.7-9.87,4.82-6.33.17-11.8.89-15.95,6.16-4.67,5.93-6.68,12.38-13.2,16.83-10,6.85-26.09,11.26-28.41,25.15-1,5.81,2,11.86,8.21,12.59,5.08.59,10-2.44,10.13-7.81.08-3.24-5.25-4.13-5.8-.78a2.79,2.79,0,0,1-5,1.4c-2.15-2.57-6.28.74-4.59,3.54A53.63,53.63,0,0,1,352.81,288c-3.71,10.66-12.17,28.76,2.3,35.89,9.14,4.51,21.3-4.95,18.91-15-1.23-5.15-6.2-9.67-11.74-8.47a7.8,7.8,0,0,0-5.39,11.29c1.38,2.78,5.72.83,4.93-2.07-.85-3.1,3-3.22,4.82-2.12,1,.58,1.63,2.8,1.64,3.92a7.38,7.38,0,0,1-2.47,5.08c-3.61,3.47-8.66,3.15-11.27-1.24-5.1-8.58,2-19,4.53-27.25,5-16.12,2.5-34-6.1-48.39l-4.59,3.54c4.33,5.25,13.69,2.78,14.8-4l-5.8-.79c-.08,3.28-4.93,1.92-6,.23-2.46-3.88,1.22-9.17,3.9-11.82,4.46-4.44,10.44-7.07,15.87-10.1,5.11-2.85,10-6.11,13.56-10.87,4.34-5.85,5.88-13.74,14.37-14.36,5.28-.39,11.17.43,15.37-3.55a19.56,19.56,0,0,0,4-6.44c1.82-4,2.72-5.57,7.7-5.35,6.16.28,11.15-1.39,14.19-7.21,2.91-5.59,1.65-12.28-.92-17.72-5.75-12.16-20.33-21.66-34-19.21-1.65.3-1.71,3.15,0,3.39Z"/><path class="cls-2" d="M376.94,361.6c-3.95-5.66-7.77-14.88-.05-19.36,4.63-2.68,10.88-2,15.9-1.13,7.67,1.33,16.82,3.6,23.84-1.16a11.3,11.3,0,0,0,4.87-8c.43-3.17-.43-6.26-.38-9.41,0-2,.29-4.15,1.73-5.66,1.95-2,4-.93,6.15-.7,2.83.31,5.05.43,6.5-2.5,1.57-3.15.75-7.35-.47-10.45l-1.41,1.86c4.09.39,4.85-3.68,4.68-6.85-.18-3.38-1.23-5.73,2.31-6.29a11.6,11.6,0,0,1,3.22.26,60.71,60.71,0,0,0,6.7,1c3.36.1,6.6-1,7.69-4.54.91-3-.07-6.51-.45-9.46-.48-3.74-1-7.47-1.62-11.18a104.28,104.28,0,0,0-6-22.1c-2.06-5-2.88-8.29-.95-13.46a82.43,82.43,0,0,0,3.86-12.93c2.28-11.38,2.51-23.54-3.11-33.95-3.31-6.13-6.36-13.81-11-19.06-1.37-1.55-3.63.73-2.27,2.27,2.59,2.94,4.25,7.37,6.13,10.78,1.65,3,3.49,6,5,9,3.37,6.76,3.71,14.09,3.24,21.53a72.31,72.31,0,0,1-2.74,15.65c-1.1,3.74-3.25,7.49-3.61,11.39-.29,3.14.92,5.8,2.12,8.62a89.25,89.25,0,0,1,4.83,15.06c.95,4.12,1.66,8.29,2.28,12.47.51,3.43,3.66,15-.81,16.68-4.28,1.6-9.27-1.73-13.73-.86a5.48,5.48,0,0,0-3.88,2.51c-1,1.59,0,10.73-1.92,10.55A1.46,1.46,0,0,0,432.2,304c.79,2,2,5.55.94,7.67-1.81,3.55-5.57.24-8.14.57-3.32.44-5.53,3.6-6.36,6.62-1.73,6.24,2.84,13.91-3.45,18.58-4.12,3-10.38,2.76-15.17,2.11-8.19-1.11-18-4.4-25.47.84-8.13,5.68-4.84,16.32,1.23,22.07.59.55,1.66-.18,1.16-.9Z"/><path class="cls-2" d="M440.72,235.69c-8.77-7.6-13-18.81-25.81-20.39-11.77-1.46-22.53,5.26-29.65,14.15-1,1.26.73,3.07,1.81,1.8,7.41-8.67,17.79-15.58,29.72-12.95,11.15,2.45,13.65,13.92,23,18.57.72.36,1.59-.59.91-1.18Z"/><path class="cls-2" d="M422.25,246.75c-15.66-1.06-32.18.32-44.95-10.53-1.47-1.24-3.6.87-2.13,2.12,13.5,11.47,30.47,10.28,47.08,11.41,1.93.13,1.92-2.87,0-3Z"/><path class="cls-2" d="M433.18,250.76a26.91,26.91,0,0,0-8.38-3.52c-1.87-.46-2.67,2.43-.8,2.89a24.42,24.42,0,0,1,7.66,3.22c1.62,1.06,3.13-1.54,1.52-2.59Z"/><path class="cls-2" d="M432.64,251.17c1.48-6.58-2.27-12.68-7.83-16.11-7.47-4.6-17.09-3.23-25.09-.94a1.29,1.29,0,0,0,.69,2.49c6.54-1.31,13.59-2.76,20.08-.41,6.25,2.25,10.48,8,10,14.68a1.11,1.11,0,0,0,2.17.29Z"/><path class="cls-2" d="M432.19,253.42a1.42,1.42,0,0,0-1.8,1.26A13,13,0,0,1,428,257.3a16.34,16.34,0,0,1-6.25,3.25,22,22,0,0,1-11.14.11c-9-2.26-15-9.21-21.82-14.87a1.15,1.15,0,0,0-1.63,1.63c7.24,8,17.71,16.32,29,16.11a20.63,20.63,0,0,0,12.17-3.91c1.77-1.36,5.37-4.47,4.23-7a.82.82,0,0,0-.92-.38l-.45.12a.76.76,0,0,0-.52.93l.06.35c.15.85,1.29.52,1.38-.19Z"/><path class="cls-2" d="M436,279.57c-3.9-4-11.18-1.7-13.31,3.1-2.69,6.09,3.51,12.86,9.73,11.78,1.38-.24,1.08-2.6-.33-2.47-4.49.42-9.54-4.27-6.9-8.89,2-3.44,6.54-3.87,9.78-2.2a.85.85,0,0,0,1-1.32Z"/><path class="cls-2" d="M437,289l-.33-.24a.94.94,0,0,0-.93,0,1.72,1.72,0,0,0-.94,2.46c1.14,1.81,3.16,0,4.54.59,1.21.55,2.28-1.18,1.07-1.82a10.1,10.1,0,0,0-6.42-1.09l.86,2a5.79,5.79,0,0,1,3.9-.79l.31-2.3h-5.92l.62,2.26a5.3,5.3,0,0,1,3.59-.54l-.3-2.29a4,4,0,0,1-3.4.35v2.48a17.29,17.29,0,0,1,13.05,2,1.4,1.4,0,0,0,1.41-2.41A20.13,20.13,0,0,0,433,287.62a1.29,1.29,0,0,0,0,2.48,7.4,7.4,0,0,0,5.34-.67c1.24-.62.47-2.19-.63-2.33a8.6,8.6,0,0,0-5.15.9,1.22,1.22,0,0,0,.61,2.27l5.92-.09a1.17,1.17,0,0,0,0-2.34A8.08,8.08,0,0,0,433.7,289a1.12,1.12,0,0,0,.86,2,7.42,7.42,0,0,1,4.76.76l1.07-1.82a3.23,3.23,0,0,0-1.54-.39,20.89,20.89,0,0,0-2.77.93A.89.89,0,0,0,437,289Z"/><path class="cls-2" d="M428.69,255.1a6.86,6.86,0,0,0,.67-4.29,1.48,1.48,0,0,0-1.64-1.07,1.52,1.52,0,0,0-1.3,1.47,7.47,7.47,0,0,1-.48,1.45,1.51,1.51,0,0,0,1.05,1.85,1.53,1.53,0,0,0,1.84-1,9.56,9.56,0,0,0,.59-2.25l-2.95.4a3.36,3.36,0,0,1-.37,2,1.5,1.5,0,1,0,2.59,1.52Z"/><path class="cls-2" d="M428.77,255a14,14,0,0,0,1.48-2.51L427.66,251a10.35,10.35,0,0,1-1.36,2.27,1.54,1.54,0,0,0,0,2.12,1.5,1.5,0,0,0,2.12,0,12.34,12.34,0,0,0,1.83-2.88,1.54,1.54,0,0,0-.54-2.05,1.51,1.51,0,0,0-2,.54,14.76,14.76,0,0,1-1.48,2.51,1.5,1.5,0,0,0,.53,2.05,1.54,1.54,0,0,0,2.06-.54Z"/><path class="cls-2" d="M427.65,259.12a13.75,13.75,0,0,0,4.27-4.7c.79-1.43-1.22-3.16-2.36-1.82a14.11,14.11,0,0,1-3.26,3c-1.64,1-.13,3.62,1.51,2.59a16.62,16.62,0,0,0,3.87-3.42l-2.35-1.82a10.58,10.58,0,0,1-3.19,3.62c-1.59,1.08-.09,3.68,1.51,2.59Z"/><path class="cls-2" d="M427.85,257.81a13.7,13.7,0,0,0,5.29-5.12l-2.59-1.51a10.31,10.31,0,0,1-4.09,4.55c-1.69.94-.18,3.53,1.51,2.59a13,13,0,0,0,5.17-5.63,1.5,1.5,0,0,0-2.59-1.51,10.76,10.76,0,0,1-4.21,4c-1.7.91-.19,3.5,1.51,2.59Z"/><path class="cls-2" d="M434.55,305.44c.63-3.18-1.57-5.44-4.69-5.89-2.49-.36-5.16.3-7.61.63-3.83.52-7.65,1.08-11.48,1.62-1.5.22-.86,2.49.63,2.28l9-1.25c2.6-.37,12.32-3.06,12.25,2.36,0,1,1.65,1.32,1.87.25Z"/><path class="cls-2" d="M410.49,304.11a115.22,115.22,0,0,0,17.14,11.53c1.07.57,2.42-1,1.36-1.77a114.15,114.15,0,0,0-17.48-11.09c-.8-.41-1.81.69-1,1.33Z"/><path class="cls-2" d="M431.07,305.66c-2.05-.1-4.09-.21-6.13-.25-.92,0-1.16,1.46-.22,1.63a6.64,6.64,0,0,0,5-.81.93.93,0,0,0,0-1.58,11.11,11.11,0,0,0-12.55.39,1,1,0,0,0,0,1.69,9.07,9.07,0,0,0,9.16.12,1,1,0,0,0,.45-1.12,3.93,3.93,0,0,0-6-2.62,1,1,0,0,0,.23,1.82,15.51,15.51,0,0,0,6.14.43l-.26-2a11,11,0,0,0-3.69,2,1,1,0,0,0,.44,1.67,10.41,10.41,0,0,0,6.73-.81,1,1,0,0,0,0-1.74,9.14,9.14,0,0,0-3.43-.94c-.92-.08-1.26,1.13-.71,1.73a2.76,2.76,0,0,0,3.74.55,1,1,0,0,0-.24-1.85l-1.69-.07-.16-1.24c.4-.61-3,.13-2-.06a7.15,7.15,0,0,0-2.36,1.17,1,1,0,0,0,.79,1.87c1.57-.42,5.31-1.22,5.78,1.36l1.53-1.18-1.24-1.9-2.06.28a7.69,7.69,0,0,1,.45,5.16l1.94-.25.11-1.64H429.4q2.4,1.29-.1,2.65l-1.24.5-2.22-2.29-.4,1.52,3.45,1,.79-1.39a9.56,9.56,0,0,1-8.78-2.23l-.23,1.81a7,7,0,0,1,6.87.3l.28-2.13a4.55,4.55,0,0,1-5.89-2.23l-.7,1.72a9.47,9.47,0,0,1,8.67,2.35l.24-1.84a6.13,6.13,0,0,1-5.68-.05l.54,1.33a2.56,2.56,0,0,1,4.48-1.06l1.43-1.86a15.87,15.87,0,0,0-12.47-2.93c-1.32.22-1,2.41.32,2.34l10.26-.55a1.21,1.21,0,0,0,.6-2.23,10.84,10.84,0,0,0-11.76.61,1.25,1.25,0,0,0-.55,1.36,3.16,3.16,0,0,0,4.63,1.91c1.21-.54.42-2.12-.61-2.24l-6.46-.73c-1-.11-1.42,1.09-1,1.81a7,7,0,0,0,5.88,3.61,14.68,14.68,0,0,0,4-.22c1.22-.21,2.42-.56,3.65-.74,1.07-.16,5.74-.56,6.22,0l.18,1.39.17-.3a1.14,1.14,0,0,0-2-1.15l-.19.29a1.2,1.2,0,0,0,.18,1.39c1.84,2.32,4.34-.87,2.13-2.84-4.93-4.39-14.71,3.86-18.15-2.63l-1,1.81,6.46.73-.6-2.24-1.1-.48-.55,1.35a8.46,8.46,0,0,1,9.33-.62l.61-2.23-10.26.57.31,2.34a13.54,13.54,0,0,1,10.65,2.68c1.14.85,2.25-.91,1.43-1.86a4.91,4.91,0,0,0-8.42,2.1,1.18,1.18,0,0,0,.54,1.33,8.4,8.4,0,0,0,8.05,0,1.19,1.19,0,0,0,.24-1.85,11.85,11.85,0,0,0-10.95-2.94,1.18,1.18,0,0,0-.7,1.71,6.83,6.83,0,0,0,8.53,3.3,1.18,1.18,0,0,0,.28-2.13,9.51,9.51,0,0,0-9.22-.28,1.16,1.16,0,0,0-.23,1.81,11.88,11.88,0,0,0,11,2.77,1.15,1.15,0,0,0,.79-1.39,4.29,4.29,0,0,0-7-2.15,1.12,1.12,0,0,0-.18,1.35,6.83,6.83,0,0,0,5.5,3.32,1.08,1.08,0,0,0,1-.54c.77-1.7.23-3.31-1.72-3.72a1.14,1.14,0,0,0-1.24.5c-1.38,2.28.56,5.35,3.32,4.38,3.61-1.26,2.34-5.55.18-7.44a1.09,1.09,0,0,0-1.51,0,3.29,3.29,0,0,0-.44,4.23,1.08,1.08,0,0,0,2-.25,9.39,9.39,0,0,0-.48-6.29c-.41-1-2.18-1-2.06.28a4.26,4.26,0,0,0,2.29,3.71,1.05,1.05,0,0,0,1.53-1.18c-.72-3.84-5.38-3.59-8.33-2.79l.79,1.88a4.69,4.69,0,0,1,4-1,1,1,0,0,0,.88-.51l.2-.31a1,1,0,0,0-.16-1.23c-2.26-2.39-4.92,2.12-.29,3.46l-.24-1.85-1.29-.23-.72,1.72,2.41.66V304.5a7,7,0,0,1-5.17.62l.44,1.67,2.8-1.46c1-.33.91-2.11-.27-2a14.37,14.37,0,0,1-5.61-.36l.24,1.82c2.45.94,2.44,1.38-.05,1.3a6.6,6.6,0,0,1-3.57-1.09v1.69a9.52,9.52,0,0,1,10.64-.5v-1.58l-3.69.79-.22,1.63c2,0,4.08-.12,6.13-.19a.61.61,0,0,0,0-1.22Z"/><path class="cls-2" d="M430.38,305.24c0,.12-.07.24-.1.37a2.87,2.87,0,0,0-.12.55,2.44,2.44,0,0,0,.1.89,1.63,1.63,0,0,0,3.17.07,1.42,1.42,0,0,0-1-1.82,1.1,1.1,0,1,0-.59,2.12.84.84,0,0,1-.55-.95c.09-.35,0-.08,0,0s0,0,.07-.09c-.08.08-.05.07.07,0a1.05,1.05,0,0,1-.21.12l.51-.14c-.16,0,.05,0,.11,0a1.25,1.25,0,0,1,.12.08c.07,0-.06-.11,0,0a.9.9,0,0,1-.06-.22s-.07-.36-.06-.3a3.85,3.85,0,0,1,0-.48.74.74,0,0,0-1.45-.2Z"/><path class="cls-2" d="M432.4,306.63c.07,0,.11.05,0,0s.13.12,0,0c.05.12.07.15.05.07s0,0,0,0,0,.38,0,.07c0,0,0-.37,0-.15s0,0,0,0a1.21,1.21,0,0,0,.05-.18c0,.11-.09.11,0,0a.47.47,0,0,0,.07-.12s-.12.17,0,0a.81.81,0,0,1,.1-.09c-.13.09-.15.11-.09.07s0,0,0,0a.37.37,0,0,1-.21,0c-.24,0,.12,0-.09,0s.1.14-.13-.08c0,0-.14-.22-.07-.1a.8.8,0,0,1-.11-.37c0,.15,0-.14,0-.16,0,.15,0-.1.06-.12-.09.17.15-.17.06-.07s-.07.13,0,0,.08-.05,0,0l-.11.06s-.14.05-.14.07.29-.1.13-.06.21,0,.07,0l.19,0s.33.16.16.06c0,0,.18.15.23.22s.17.36.13.21a1.24,1.24,0,0,0-1.35-.89,1.23,1.23,0,0,0-1.07,1.21,1.68,1.68,0,0,0,1.22,1.64,2,2,0,0,0,1.59-.31c.93-.63,1.51-2,.65-3a1.9,1.9,0,0,0-3,.48,2.36,2.36,0,0,0-.32,1.66c.13.29.14.33.06.12a.5.5,0,0,0,0,.13,2,2,0,0,0,.2.42,1.74,1.74,0,0,0,.69.6.94.94,0,0,0,.94-1.62Z"/><path class="cls-2" d="M431.08,305.62a3.61,3.61,0,0,0,.15.92l.35.87v-.64l0,.11a1.3,1.3,0,0,0,1.9,1.45,1.28,1.28,0,0,0-.31-2.35l-.09,0,.71.55-.5-.88a5.94,5.94,0,0,0-.75-.82.86.86,0,0,0-1.43.83Z"/><path class="cls-2" d="M432.06,306.9a22.64,22.64,0,0,0-.65-2.58l-.76,1.35s.29-.16.15-.06-.1,0,0,0,.07,0,0,0a.69.69,0,0,1,.24.24l-.15-.57c0-.17,0-.16,0,0a.94.94,0,0,0,0,.5c.08.23,0-.09,0,.05s.05-.23,0,.06a1.21,1.21,0,0,0,0,.73,1.15,1.15,0,0,0,1.38.78,1.55,1.55,0,0,0,1.07-1.62,2.15,2.15,0,0,0-.23-1l-.2-.25c-.28-.23-.33-.26-.15-.1s.13.14.07.05l-.22-.27a2.34,2.34,0,0,0-2.85-.61,1.08,1.08,0,0,0-.51,1.23,23.63,23.63,0,0,0,1.26,2.64c.46.85,1.67.24,1.5-.64Z"/><path class="cls-2" d="M431.85,306.72c.5-.33,1-.6,1.53-.94a1.14,1.14,0,0,0-.26-2,18.6,18.6,0,0,0-3.59-1.24,1.24,1.24,0,0,0-1.45.71,1.23,1.23,0,0,0,.5,1.54,18.72,18.72,0,0,0,3.94,1.15L432,304c-.42.45-.77,1-1.18,1.41-.58.66.17,1.82,1,1.29Z"/><path class="cls-2" d="M428,303.47c1.6.31,4,.12,4.56,2.1.25.92-.6,7.2-2.62,5.31l-1.55,2,1.7.89,1-2.35a15.9,15.9,0,0,1-5.58-2,1.33,1.33,0,0,0-1.8,1.8,7.59,7.59,0,0,0,3.59,3.15,1.31,1.31,0,0,0,1.32-2.26l-2.85-1.79-1.32,2.26c.83.39,1.65.78,2.48,1.15,1.46.65,2.75-1.41,1.28-2.18-.81-.43-1.62-.83-2.44-1.23a1.31,1.31,0,0,0-1.32,2.26l2.85,1.79,1.32-2.26a5.37,5.37,0,0,1-2.64-2.22l-1.8,1.8a18,18,0,0,0,6.22,2.25c1.33.22,2.4-1.63,1-2.35l-1.71-.88c-1.24-.64-2.67,1-1.55,2a3.53,3.53,0,0,0,4.54.31c1.7-1.17,2.11-3.43,2.3-5.34.42-4.38-2.8-6.69-7-6a.92.92,0,0,0,0,1.77Z"/><path class="cls-2" d="M413,304.21a2,2,0,0,0,1,1.12,3.68,3.68,0,0,0,1.52.39,1,1,0,0,0,.72-1.74,4.47,4.47,0,0,0-2.54-1.2,1.13,1.13,0,0,0-.3,2.21,3.81,3.81,0,0,1,1.61.59l.51-1.9a5.11,5.11,0,0,1-1.68-.28c-.46-.09-1,.3-.81.81Z"/><path class="cls-2" d="M415.56,248.4c-3.81,1.84.66,7.5,2.86,8.72,3.92,2.17,8.6.47,11-3.11l-2.74-.74c-.1,1.67-.5,3.23-2.3,3.52a8.75,8.75,0,0,1-4.07-.32c-2.62-1-3.32-4.09-2.31-6.48a1.5,1.5,0,0,0-2.59-1.52c-3.44,4.49,0,10.6,5.28,11.16a8.53,8.53,0,0,0,6.94-2.39c1.55-1.56,2.92-4.45,1.68-6.56a1.53,1.53,0,0,0-2-.53l-.17.09a1.53,1.53,0,0,0-.69,1.69l0,.15c.54,1.85,3.44,1.07,2.9-.79l-.05-.15-.69,1.69.17-.09-2.05-.54c.65,1.11-1.27,3.09-2,3.58a5.65,5.65,0,0,1-4.1.83A4.1,4.1,0,0,1,418,250l-2.59-1.52c-1.76,4.15-.56,9.36,4.1,10.88,2,.66,5.37.92,7.35,0s2.65-4.12,2.76-6.12c.08-1.53-2-1.9-2.74-.74a5.51,5.51,0,0,1-6.06,2.51,5.62,5.62,0,0,1-2.76-1.88c-.37-.45-1.65-2.26-1-2.81,1.18-.92-.32-2.52-1.5-1.95Z"/><path class="cls-2" d="M419.71,248.82c1.35,1.28,3.83,1.37,5.59,1.27a1.3,1.3,0,0,0,.34-2.54,14.75,14.75,0,0,0-4.41-.86,1.35,1.35,0,0,0-.35,2.65,31.84,31.84,0,0,0,5.41,1.24,1.26,1.26,0,0,0,.63-2.33,32.17,32.17,0,0,0-5.33-1.51l-.36,2.64a12.4,12.4,0,0,1,3.72.67l.35-2.55a19.71,19.71,0,0,1-2.77.06,8.38,8.38,0,0,0-2.5,0,.74.74,0,0,0-.32,1.23Z"/><path class="cls-2" d="M417.89,248.58c-2.28,2.27-.61,6.35,2,7.57,3.11,1.46,6.93-.79,7.55-4.06h-2.69c.29,1.58-2.5,1.62-3.32,1.12s-1.16-2.26,0-2.7l-1.59-2.06a3.74,3.74,0,0,0-.41,1.16c-.19,1.16,1.19,2.27,2.14,1.25a3.79,3.79,0,0,0,.7-1c.49-1-.34-2.52-1.59-2.07a4.37,4.37,0,0,0-.71,7.85c3.09,1.83,8.36-.19,7.43-4.3-.29-1.27-2.49-1.39-2.69,0-.26,1.77-2.07,3.32-3.91,2.54s-1.88-2.86-1.57-4.51a.83.83,0,0,0-1.37-.8Z"/><path class="cls-2" d="M421.23,248.66c-1.6-.27-2.65,1.32-2.82,2.75a3.68,3.68,0,0,0,2.3,3.84,4.47,4.47,0,0,0,4.66-.69c1.35-1.17,1.95-3.74.15-4.79a1.26,1.26,0,0,0-1.84,1.41c.25.78.66,1.31-.24,1.85a2.16,2.16,0,0,1-2,.1,1.54,1.54,0,0,1-1-1.58c.06-.77.62-1.16,1.06-1.71.29-.37.27-1.08-.31-1.18Z"/><path class="cls-2" d="M398.39,343.56c-1.92,8.58.45,17.41,4.95,24.86,4.71,7.8,12.15,13.26,18.1,20,12.36,14,20.28,32.34,18.17,51.29-2.12,19.19-14.95,34.62-26.41,49.28-11.67,14.94-22.09,31.32-40.48,38.45-9,3.48-18.53,5.4-28,7.1s-20.53,2.24-29,7.43c-7.09,4.34-.63,15.49,6.53,11.17s17.7-4.52,26-6c9-1.56,18-3.33,26.54-6.4a74.79,74.79,0,0,0,23.45-13.1c7.94-6.73,14-15.51,20.32-23.68,12.05-15.59,25.83-31.18,31.64-50.4,5.87-19.39,1.33-40.65-8.67-57.86a104,104,0,0,0-19.79-24.13c-4.14-3.8-8.22-7.28-11-12.28-2.65-4.84-3.65-10.42-4.77-15.77-.79-3.79-6.76-3.73-7.59,0Z"/><path class="cls-2" d="M392.31,374.57a1.47,1.47,0,0,0,.77-.17,1.56,1.56,0,0,0,.64-.41,1.5,1.5,0,0,0,.41-.64,1.45,1.45,0,0,0,.17-.77l-.07-.53a1.91,1.91,0,0,0-.51-.88l-.4-.31a2,2,0,0,0-1-.27,1.91,1.91,0,0,0-1.82,1.22,1.47,1.47,0,0,0-.17.77l.07.53a1.91,1.91,0,0,0,.51.88l.4.31a2,2,0,0,0,1,.27Z"/><path class="cls-2" d="M394.54,379.41c2.57,0,2.57-4,0-4s-2.57,4,0,4Z"/><path class="cls-2" d="M395.06,381.61a2.68,2.68,0,0,0,.07.27,1.94,1.94,0,1,0,3.75-1,2,2,0,0,0-1.36-1.36l-.27-.07a1.78,1.78,0,0,0-2.19,2.19Z"/><path class="cls-2" d="M397.18,384.49l.05.34a1,1,0,0,0,.12.54,1,1,0,0,0,.29.46,1.2,1.2,0,0,0,.45.29,1,1,0,0,0,.54.12l.38-.05a1.43,1.43,0,0,0,.62-.36l.22-.29a1.38,1.38,0,0,0,.19-.71l0-.34a1.08,1.08,0,0,0-.13-.56,1.29,1.29,0,0,0-.77-.77,1.18,1.18,0,0,0-.56-.13l-.38.06a1.34,1.34,0,0,0-.64.37l-.23.29a1.47,1.47,0,0,0-.2.74Z"/><path class="cls-2" d="M397,391.42c4.25-3.84,10.57-2.77,12.59,2.95.81,2.29.93,5.36-.86,7.25s-4.76,1.85-7.11,1.58c-1.66-.18-1.65,2.42,0,2.61,3.37.37,7.27-.11,9.47-3s2-7,.53-10.1c-2.78-6.11-12.05-8.92-16.21-2.49-.64,1,.77,2,1.59,1.22Z"/><path class="cls-2" d="M388.53,392.24c-12.11-1.43-12.46,20.62-.42,20.31,4.91-.13,8.75-4.29,9.29-9a11.12,11.12,0,0,0-9.53-12.18c-1.82-.3-2.6,2.48-.77,2.78,4,.66,7.25,3.44,7.57,7.71a7.42,7.42,0,0,1-5.85,8c-4.58.84-7.56-4-7.53-8.13,0-4.64,3.36-7,7.42-8.21a.66.66,0,0,0-.18-1.29Z"/><path class="cls-2" d="M377.84,396c-7.56-6.48-16.19,5.26-12.73,12.58.83,1.75,3.42.22,2.59-1.51-2-4.22,3.25-13,8-8.95,1.46,1.25,3.59-.87,2.12-2.12Z"/><path class="cls-2" d="M389.28,396a6.9,6.9,0,0,0-6.49,6.89,5.64,5.64,0,0,0,7.44,5.57c3.66-1.24,5-5.88,3.28-9.16-1.84-3.46-6.83-4-8.32,0-.51,1.35,1.34,2.15,2.26,1.32l1.59-1.45-2.1-1.62a17.43,17.43,0,0,1-2,3.33c-.91,1.22,1,2.61,2.07,1.59l1.63-1.6-2.05-1.58-1.72,3.1c-.68,1.22,1,2.71,2,1.55a13.74,13.74,0,0,1,2.32-2.25L387.51,400a14,14,0,0,1-1.84,2.9,1.26,1.26,0,0,0,1.77,1.78,20.49,20.49,0,0,0,2.89-2.85l-2-1.51-2.92,4c-.72,1,.72,2.44,1.71,1.71l3.2-2.37-1.7-1.71-3.17,4.59c-.64.92.41,2.09,1.4,1.83a7,7,0,0,0,5.18-7.34l-2.13.89c.95,1.14.39,1.74.24,2.94-.2,1.53,0,1.34.83.74a3.9,3.9,0,0,0,1.44-2.23,4.25,4.25,0,0,0-2.12-4.76c-1.46-.74-2.76,1.48-1.29,2.21a1.64,1.64,0,0,1,.56,2.61c-.59.64-1.44.73-1.8,1.61a2.07,2.07,0,0,0,1.95,2.79c3.94.05,3.74-5.58,1.95-7.68a1.26,1.26,0,0,0-2.13.88,4.45,4.45,0,0,1-3.34,4.94l1.4,1.83,3.18-4.59c.69-1-.71-2.44-1.71-1.7l-3.2,2.36,1.71,1.71,2.92-4c.83-1.14-1.06-2.61-2-1.52a20.42,20.42,0,0,1-2.89,2.84l1.77,1.78a17.21,17.21,0,0,0,2.25-3.41c.5-1-.62-2.54-1.73-1.72a16,16,0,0,0-2.85,2.61l2,1.55,1.76-3.08a1.31,1.31,0,0,0-2.05-1.57l-1.64,1.58,2.07,1.6a17.62,17.62,0,0,0,2-3.31,1.34,1.34,0,0,0-2.1-1.62l-1.61,1.43,2.25,1.31c.67-1.71,2.65-.67,3.3.31a4.14,4.14,0,0,1,.57,3,3.5,3.5,0,0,1-4.34,2.87c-2.2-.66-2.68-3.34-1.94-5.25a6.46,6.46,0,0,1,4.08-3.65.7.7,0,0,0-.18-1.36Z"/><path class="cls-2" d="M402.85,394.57c-.42-1.94,2-1.69,2.9-1.11a5.25,5.25,0,0,1,1.78,2c.78,1.48.86,3.52-.75,4.47a2.72,2.72,0,0,1-3-4.52l-1.62-1.62-1,1.56c-.59,1,.66,2.36,1.63,1.62l2.22-1.69-1.76-1.35a10.56,10.56,0,0,1-1.7,3.3c-.84,1.14.91,2.26,1.87,1.44l2.77-2.41-1.85-1.43-2.17,3.51a1.18,1.18,0,0,0,1.6,1.6l2.56-1.66-1.59-1.59-2.17,3.88a1.16,1.16,0,0,0,1.58,1.57l2.85-1.81-1.56-1.57a1.74,1.74,0,0,1-1.5.89l1.11,1.9c2.06-1.8,3.86-4.47,1.71-7l-1.44,1.86a1.9,1.9,0,0,1,.82,2.82l2.08.86c-.34-2.94,0-6.88-3.87-7.44a4.14,4.14,0,0,0-3.51,1.08c-1.13,1.23-.25,4.15-.12,5.69l2.27-.62-1.68-3.65-1.67,1.67a3.52,3.52,0,0,1,1.32,4h2.35c-.19-.54-1.78-7-.3-6.67l-.54-2.05c-2.37,1.85-3,5.72-.72,7.88a1,1,0,0,0,1.64-1.26,3.7,3.7,0,0,1,.82-4.89,1.24,1.24,0,0,0-.54-2.05c-5.33-1.3-3.61,7.17-2.71,9.69a1.23,1.23,0,0,0,2.35,0,6.05,6.05,0,0,0-2.44-6.74c-1.1-.77-2.12.68-1.67,1.67l1.69,3.65a1.23,1.23,0,0,0,2.27-.61l-.26-3c-.08-1-.1-1.67,1.26-1.34,1.94.48,1.45,3.51,1.62,5,.11.91,1.34,1.78,2.08.86a4.26,4.26,0,0,0-1.34-6.59,1.19,1.19,0,0,0-1.44,1.87c1.18,1.31-.76,2.9-1.65,3.66s.11,2.07,1.11,1.9a4,4,0,0,0,2.87-1.93,1.15,1.15,0,0,0-1.56-1.56l-2.86,1.8,1.57,1.58,2.19-3.87c.55-1-.58-2.24-1.59-1.59l-2.57,1.65,1.6,1.6,2.19-3.5c.74-1.19-.88-2.26-1.85-1.42L401.73,397l1.86,1.44a12.57,12.57,0,0,0,2-3.86c.29-.92-.91-2-1.76-1.35l-2.21,1.7,1.63,1.63,1-1.57c.59-1-.64-2.35-1.62-1.62-2.41,1.81-3.11,5.46-.85,7.72a5.15,5.15,0,0,0,7.59-.75c1.94-2.87.17-6.88-2.57-8.52-2.48-1.49-6.75-.06-5.22,3.34.36.8,1.52.21,1.35-.57Z"/><path class="cls-2" d="M378.17,402.18c3.62,0,3.63-5.62,0-5.62s-3.62,5.62,0,5.62Z"/><path class="cls-2" d="M374.92,403.46v.34a2.11,2.11,0,0,0,.25,1.11,2.09,2.09,0,0,0,.59.93,3.21,3.21,0,0,0,2,.85l.77-.11a2.78,2.78,0,0,0,1.27-.74l.45-.58a2.88,2.88,0,0,0,.39-1.46v-.34a2.1,2.1,0,0,0-.24-1.11,2.2,2.2,0,0,0-.6-.93,2.09,2.09,0,0,0-.93-.59,2.11,2.11,0,0,0-1.11-.25l-.77.1a2.92,2.92,0,0,0-1.27.74l-.45.59a2.84,2.84,0,0,0-.39,1.45Z"/><path class="cls-2" d="M379.87,409.24l.07-.21-1,1.33.05,0a1.79,1.79,0,0,0,.65-.6,1.26,1.26,0,0,0,.3-.51,1.84,1.84,0,0,0,.2-.89l-.08-.62-.24-.55a1.68,1.68,0,0,0-.59-.65,1.1,1.1,0,0,0-.52-.3,1.69,1.69,0,0,0-.89-.2l-.62.08-.55.23a1.79,1.79,0,0,0-.65.6,1.32,1.32,0,0,0-.3.51,1.86,1.86,0,0,0-.2.9l.09.61.23.56a2.44,2.44,0,0,0,.83.83l.05,0-1-1.33.07.21.22.51a1.59,1.59,0,0,0,.55.6,1,1,0,0,0,.47.28,1.71,1.71,0,0,0,.83.18l.57-.07.51-.22a1.59,1.59,0,0,0,.6-.55,1.67,1.67,0,0,0,.39-.73Z"/><path class="cls-2" d="M384.13,417.05c3.12,0,3.12-4.85,0-4.85s-3.13,4.85,0,4.85Z"/><path class="cls-2" d="M388.59,417.31c3,0,3-4.64,0-4.64s-3,4.64,0,4.64Z"/><path class="cls-2" d="M392.31,415.69c2.81,0,2.81-4.36,0-4.36s-2.81,4.36,0,4.36Z"/><path class="cls-2" d="M395.29,413.4a1.76,1.76,0,0,0,0-3.51,1.76,1.76,0,0,0,0,3.51Z"/><path class="cls-2" d="M396.77,411.5c3.17,0,3.18-4.92,0-4.92s-3.17,4.92,0,4.92Z"/><path class="cls-2" d="M397.46,404.79l-.08.17,0,.08-.21.48a3.33,3.33,0,0,0-.07.54,1.48,1.48,0,0,0,.17.75,1.75,1.75,0,0,0,1,1,1.48,1.48,0,0,0,.75.17l.51-.07a1.89,1.89,0,0,0,.85-.5l.31-.39a2,2,0,0,0,.26-1,3.33,3.33,0,0,0-.07-.54l-.2-.48,0-.08-.07-.17a1.84,1.84,0,0,0-.65-.65,1.83,1.83,0,0,0-1.81,0,1.81,1.81,0,0,0-.64.65Z"/><path class="cls-2" d="M399,403.82c2.85,0,2.85-4.43,0-4.43s-2.86,4.43,0,4.43Z"/><path class="cls-2" d="M397.89,399.51c2.58,0,2.58-4,0-4s-2.58,4,0,4Z"/><path class="cls-2" d="M397.15,396.37c2.85,0,2.85-4.43,0-4.43s-2.86,4.43,0,4.43Z"/><path class="cls-2" d="M393.05,393.29c2.72,0,2.72-4.22,0-4.22s-2.71,4.22,0,4.22Z"/><path class="cls-2" d="M389,391.43c2.72,0,2.72-4.22,0-4.22s-2.72,4.22,0,4.22Z"/><path class="cls-2" d="M385.24,392.76c3,0,3-4.64,0-4.64s-3,4.64,0,4.64Z"/><path class="cls-2" d="M378.27,391l-.09.26,1.06-1.38a.73.73,0,0,0-.26.2,1.69,1.69,0,0,0-.61.66l-.24.56a1.77,1.77,0,0,0,0,.94,1.73,1.73,0,0,0,.28.88l.37.48a1.65,1.65,0,0,0,.76.48,1.76,1.76,0,0,0,.9.21l.63-.09a1.67,1.67,0,0,0,.8-.42,1.84,1.84,0,0,0,.61-.66l.24-.56a1.77,1.77,0,0,0,0-.94,1.73,1.73,0,0,0-.28-.88l-.37-.48a1.55,1.55,0,0,0-.5-.38l1.06,1.38-.09-.26-.22-.53a1.62,1.62,0,0,0-.57-.62,1.07,1.07,0,0,0-.49-.29,1.7,1.7,0,0,0-.86-.19l-.58.08-.53.22a1.62,1.62,0,0,0-.62.57,1.69,1.69,0,0,0-.4.76Z"/><path class="cls-2" d="M377.39,393.67c-.11.07-.17.13-.29.22a1.26,1.26,0,0,0-.43.43,2.46,2.46,0,0,0-.47,1.13,1.86,1.86,0,0,0,0,.34l.09.63v0l0,.05,0,.14.23.55a1.79,1.79,0,0,0,.6.65,1,1,0,0,0,.51.3,1.74,1.74,0,0,0,.89.2l.62-.08.56-.24a1.76,1.76,0,0,0,.65-.59,1.82,1.82,0,0,0,.41-.79,2.61,2.61,0,0,0,.15-.85v0l-.09-.63-.24-.57-.37-.48-.48-.38h0l0,0a2.32,2.32,0,0,0-2.31,0Z"/><path class="cls-2" d="M393,387.46l-.28.43-.21.5a1.6,1.6,0,0,0,0,.84,1.08,1.08,0,0,0,.14.53,1.64,1.64,0,0,0,.44.68l.43.33.5.21a1.5,1.5,0,0,0,.84,0,1.53,1.53,0,0,0,.79-.25l.42-.28a2.24,2.24,0,0,0,.8-.79,2.21,2.21,0,0,0,.3-1.12l-.08-.59a2.21,2.21,0,0,0-.57-1,1.75,1.75,0,0,0-.71-.46,1.81,1.81,0,0,0-.86-.19,2.26,2.26,0,0,0-1.11.31,2.17,2.17,0,0,0-.8.79Z"/><path class="cls-2" d="M395.45,385.73l-.28.42-.19.45a1.43,1.43,0,0,0,0,.74,1.1,1.1,0,0,0,.13.47,1.49,1.49,0,0,0,.39.6l.37.29.45.19a1.33,1.33,0,0,0,.74,0,1.37,1.37,0,0,0,.7-.22l.42-.28a2,2,0,0,0,.71-.71,2.13,2.13,0,0,0,.27-1l-.07-.52a2,2,0,0,0-.51-.87,1.44,1.44,0,0,0-.63-.41,1.54,1.54,0,0,0-.76-.17,2,2,0,0,0-1,.27,1.91,1.91,0,0,0-.7.71Z"/><path class="cls-2" d="M401.24,411.11c3.62,0,3.62-5.63,0-5.63s-3.63,5.63,0,5.63Z"/><path class="cls-2" d="M405.33,410.42c3.21,0,3.22-5,0-5s-3.22,5,0,5Z"/><path class="cls-2" d="M409.8,408.72c2.94,0,2.94-4.57,0-4.57s-2.95,4.57,0,4.57Z"/><path class="cls-2" d="M413.14,404.92a1.83,1.83,0,0,0,0-3.66,1.83,1.83,0,0,0,0,3.66Z"/><path class="cls-2" d="M414.26,400.87c2.9,0,2.9-4.5,0-4.5s-2.9,4.5,0,4.5Z"/><path class="cls-2" d="M413.89,397.38c2.71,0,2.72-4.21,0-4.21s-2.72,4.21,0,4.21Z"/><path class="cls-2" d="M362.92,410.12a2,2,0,0,0,1-.22,1.94,1.94,0,0,0,.82-.53,1.88,1.88,0,0,0,.53-.83,1.86,1.86,0,0,0,.23-1l-.1-.68a2.54,2.54,0,0,0-.66-1.13l-.52-.4a2.45,2.45,0,0,0-1.29-.35,1.89,1.89,0,0,0-1,.22,1.94,1.94,0,0,0-.83.53,2.82,2.82,0,0,0-.75,1.81l.09.69a2.75,2.75,0,0,0,.66,1.13l.52.4a2.59,2.59,0,0,0,1.3.35Z"/><path class="cls-2" d="M375.8,412l-.35.07-.45.19a1.42,1.42,0,0,0-.52.48.82.82,0,0,0-.24.41,1.36,1.36,0,0,0-.16.72l.06.49.19.45a1.42,1.42,0,0,0,.48.52,1.27,1.27,0,0,0,.64.33l.35.07a2,2,0,0,0,1,0,1.94,1.94,0,0,0,.85-.5l.3-.39a1.84,1.84,0,0,0,.27-1,2.16,2.16,0,0,0-.57-1.37,1.94,1.94,0,0,0-.85-.5,2,2,0,0,0-1,0Z"/><path class="cls-2" d="M363.66,398.85c3.17,0,3.18-4.92,0-4.92s-3.17,4.92,0,4.92Z"/><path class="cls-2" d="M367.38,397.79a3,3,0,0,0,2.89-2.89l-.11-.76a2.73,2.73,0,0,0-.74-1.27l-.58-.46a2.88,2.88,0,0,0-1.46-.39,2.26,2.26,0,0,0-1.11.25,2.67,2.67,0,0,0-1.52,1.52,2.26,2.26,0,0,0-.25,1.11l.1.77a2.89,2.89,0,0,0,.75,1.27l.58.45a3,3,0,0,0,1.45.4Z"/><path class="cls-2" d="M371.48,395.5c3.16,0,3.17-4.92,0-4.92s-3.18,4.92,0,4.92Z"/><path class="cls-2" d="M372.7,393.54l.15.28a2.31,2.31,0,0,0,2,1.14,2.25,2.25,0,0,0,1.16-.32,2.3,2.3,0,0,0,.82-.82l.15-.28a2.43,2.43,0,0,0,0-2.48,2.46,2.46,0,0,0-4.25,0,2.43,2.43,0,0,0,0,2.48Z"/><path class="cls-2" d="M394.12,373.51l0,.32a2,2,0,0,0,.22,1,2.09,2.09,0,0,0,.54.84,2,2,0,0,0,.84.53,1.92,1.92,0,0,0,1,.23l.69-.1a2.56,2.56,0,0,0,1.15-.66l.41-.53a2.62,2.62,0,0,0,.35-1.31l0-.32a3,3,0,0,0-.77-1.86,2,2,0,0,0-.85-.55,2.09,2.09,0,0,0-1-.23l-.7.1a2.54,2.54,0,0,0-1.16.68l-.41.53a2.6,2.6,0,0,0-.36,1.33Z"/><path class="cls-2" d="M400.86,381.28l.17.7.18.42a1.33,1.33,0,0,0,.45.49,1.67,1.67,0,0,0,1.07.38,2.22,2.22,0,0,0,.88-.24,1.81,1.81,0,0,0,.81-1l.17-.7a1.93,1.93,0,0,0-.5-1.88,2,2,0,0,0-1.36-.57,2,2,0,0,0-1.37.57,2,2,0,0,0-.5,1.88Z"/><path class="cls-2" d="M401.66,383.74l0,.35a1.64,1.64,0,0,0,.18.82,2,2,0,0,0,1.14,1.14,1.64,1.64,0,0,0,.82.18l.57-.08a2.07,2.07,0,0,0,.95-.55l.34-.43a2.19,2.19,0,0,0,.29-1.08l0-.35a1.72,1.72,0,0,0-.18-.84,2.27,2.27,0,0,0-2-1.34l-.58.08a2.12,2.12,0,0,0-1,.56l-.34.44a2.14,2.14,0,0,0-.3,1.1Z"/><path class="cls-2" d="M388.15,369.32l.07.3a2.37,2.37,0,0,0,.6,1,2.53,2.53,0,0,0,1.05.61,2.64,2.64,0,0,0,1.25,0,2.43,2.43,0,0,0,1-.61,2.39,2.39,0,0,0,.61-1l.06-.3a2.43,2.43,0,0,0-.62-2.36l-.49-.38a2.41,2.41,0,0,0-1.23-.33,1.87,1.87,0,0,0-.93.21,1.81,1.81,0,0,0-.78.5,2.48,2.48,0,0,0-.63,1.07,2.56,2.56,0,0,0,0,1.29Z"/><path class="cls-2" d="M391.72,370.57l.13.7.21.5a1.58,1.58,0,0,0,.54.58,1,1,0,0,0,.45.27,1.59,1.59,0,0,0,.8.18,2.58,2.58,0,0,0,1-.29,1.56,1.56,0,0,0,.58-.53,1.47,1.47,0,0,0,.37-.71l.14-.7a2.36,2.36,0,0,0,0-1.18,2.21,2.21,0,0,0-3.7-1,2.12,2.12,0,0,0-.57,1,2.15,2.15,0,0,0,0,1.18Z"/><path class="cls-2" d="M407.19,382a1.37,1.37,0,0,0,0-2.74,1.37,1.37,0,0,0,0,2.74Z"/><path class="cls-2" d="M408,383.49l.07.36.18.43a1.38,1.38,0,0,0,.46.5.84.84,0,0,0,.4.23,1.34,1.34,0,0,0,.69.15l.47-.06.43-.18a1.31,1.31,0,0,0,.5-.46,1.33,1.33,0,0,0,.32-.61l.07-.36a1.85,1.85,0,0,0,0-1,1.9,1.9,0,0,0-.48-.82l-.37-.29a1.84,1.84,0,0,0-.94-.25,2.1,2.1,0,0,0-1.32.54,1.9,1.9,0,0,0-.48.82,1.85,1.85,0,0,0,0,1Z"/><path class="cls-2" d="M409.32,388.44l.41.18.54.23a1.83,1.83,0,0,0,.9,0,1.07,1.07,0,0,0,.57-.16,1.62,1.62,0,0,0,.72-.46l.35-.46.23-.53a1.72,1.72,0,0,0,0-.9,1.61,1.61,0,0,0-.27-.84l-.18-.42a2.42,2.42,0,0,0-.87-.87,2.35,2.35,0,0,0-1.22-.33l-.64.09a2.4,2.4,0,0,0-1.08.62,1.9,1.9,0,0,0-.5.78,1.88,1.88,0,0,0-.21.94,2.52,2.52,0,0,0,.34,1.22,2.27,2.27,0,0,0,.87.87Z"/><path class="cls-2" d="M412.4,391.44a1.37,1.37,0,0,0,0-2.74,1.37,1.37,0,0,0,0,2.74Z"/><path class="cls-2" d="M410.62,393.27a6.63,6.63,0,0,0,1.44,2.68,2,2,0,0,0,3.36-1.39,5.24,5.24,0,0,0-.66-2.43,2.37,2.37,0,0,0-1-1.28,2.15,2.15,0,0,0-2.93.77,2.09,2.09,0,0,0-.22,1.65Z"/><path class="cls-2" d="M413.52,397.14l.37,0a1.41,1.41,0,0,0,.7-.15,1.37,1.37,0,0,0,.59-.38,1.34,1.34,0,0,0,.38-.59,1.41,1.41,0,0,0,.16-.7l-.07-.49a1.84,1.84,0,0,0-.47-.81l-.37-.28a1.74,1.74,0,0,0-.92-.25l-.37,0a1.46,1.46,0,0,0-.72.16,1.72,1.72,0,0,0-1,1,1.46,1.46,0,0,0-.16.72l.07.49a1.84,1.84,0,0,0,.48.82l.38.29a1.82,1.82,0,0,0,.94.26Z"/><path class="cls-2" d="M401,378.25a4.37,4.37,0,0,0-.79-1.06,2.26,2.26,0,0,0-.86-.5l-.51-.07a1.35,1.35,0,0,0-.74.17.88.88,0,0,0-.43.24,1.06,1.06,0,0,0-.35.35,1.8,1.8,0,0,0-.41,1.17,2.68,2.68,0,0,0,.15.89l.15.41a2.07,2.07,0,0,0,.54.91l.42.33a2.1,2.1,0,0,0,1,.28,1.55,1.55,0,0,0,.8-.18,1.46,1.46,0,0,0,.67-.43,1.58,1.58,0,0,0,.43-.66,1.59,1.59,0,0,0,.18-.8,2,2,0,0,0-.29-1.05Z"/><path class="cls-2" d="M329.05,396.56a4.83,4.83,0,0,0,2.93-1.82l-2.51-1.46c-1.41,4.71,4.55,5.67,6.71,2.07l-2.74-.36c.82,3.2,5.08,7,7.06,2.34l-2.79-.75c.44,3.33,4,7.08,6.41,3l-2.74-.36c.78,4.27,5.79,5.42,7.53,1.24l-2.94-.4c.07,1.34,0,3.09,1.21,4,1.68,1.29,5.07-1.08,6.24.9a1.51,1.51,0,0,0,2.35.3l1.85-2.16-2.51-.66c.52,3.67,3.6,4.11,6.83,4.27,1.93.09,1.92-2.91,0-3-1.58-.08-3.62.17-3.94-2.07a1.5,1.5,0,0,0-2.5-.66l-1.85,2.16,2.36.3A4.11,4.11,0,0,0,352.8,401c-1.41-.22-3.72,1.17-3.83-.94a1.51,1.51,0,0,0-3-.39l-1.75-1.25a1.52,1.52,0,0,0-2.74-.36l-.82-1.49c-.17-1.25-2.13-2.32-2.8-.76-1.07-.1-1.59-.65-1.58-1.63a1.52,1.52,0,0,0-2.74-.36l-1.22.25a1.51,1.51,0,0,0-2.51-1.46l-1.61,1.05c-1.83.59-1.05,3.49.8,2.89Z"/><path class="cls-2" d="M322.34,388.76c-.94,1.51-.55,3.39,1.34,3.81a5.09,5.09,0,0,0,4.26-1.18l-2.12-2.13a4.4,4.4,0,0,0-.62,5.77c1.1,1.57,3.71.07,2.59-1.51a1.46,1.46,0,0,1,.15-2.13c1.43-1.31-.69-3.41-2.12-2.13.1-.09-.35.2-.44.23a3.27,3.27,0,0,1-.69.16c-.13,0-.27,0-.4,0,.13,0,0-.08.11,0l.12.1a.81.81,0,0,1,.24.8c-.05,0,.2-.36.17-.31,1-1.65-1.58-3.16-2.59-1.52Z"/><path class="cls-2" d="M323.27,388.74l2.44-.33c0,.76,1.13,1.4,1.68.69l3.57.73a1.13,1.13,0,0,0,1.66.67l4.13,1.39a1.19,1.19,0,0,0,2.15.28c1.47-2.2,2.54,1.52,4,2.22a1.23,1.23,0,0,0,1.67-.44l2.3,1a1.28,1.28,0,0,0,1.86.76l4.43.95a1.32,1.32,0,0,0,2.25,0l2.78-.28a1.35,1.35,0,0,0,1.69,1.29c1.54-.56,2.17-1.58,2.06,1.74,0,1.74,2.59,1.72,2.7,0s.44-4.89-1.49-5.8c-1.77-.84-2.55.95-4,1.48l1.69,1.29c-.56-4.82-5.44-4.85-7.7-1h2.25a5.26,5.26,0,0,0-8-1.82l1.86.75c-.87-3.42-5.07-5.7-6.85-1.52l1.67-.44c-1.6-.77-1.34-3.25-3.32-3.74s-3,1.1-3.9,2.44l2.15.28c-1.21-3.25-4.5-4.59-7.54-2.72l1.66.68c-.75-4.15-5.23-5-7.29-1.31l1.83.5c-.32-4.36-5.28-4.06-5.75.15-.08.77,1.15.91,1.34.18Z"/><path class="cls-2" d="M401.86,383.81c-.09,0-5.1-1.84-3.39-3,1-.67.75-2.54-.65-2.43l-1.92-1.81c.9-.91,0-2.69-1.3-2.24l-1.67-.82c.58-.92-.4-2.42-1.51-2-1.36-1.29-1.4-2.33-.14-3.12a1.32,1.32,0,0,0-1.87-1.87c-1.53,1.46-3.47,3.69-2.22,5.94a4,4,0,0,0,4.94,1.64l-1.51-2c-2.12,3.37,1.46,5.88,4.69,4.75l-1.3-2.23c-3.13,3.15,0,6.67,3.81,6.31l-.66-2.43c-1.47,1.06-2.25,2.63-1.29,4.4,1.1,2,3.69,2.44,5.76,2.62,1.07.09,1.06-1.39.23-1.73Z"/><path class="cls-2" d="M396.37,371.38c2.07,1.11,2.69,2.64,1.87,4.61a1.19,1.19,0,0,0,.83,1.46c2,.27,5.39,1.71,3.84,4.54a1.3,1.3,0,0,0,1.11,1.93q3.35-.1,3.4,3.46a1.39,1.39,0,0,0,1.32,1.74l.44.28c-.91,1.26,1.19,2.9,2.17,1.67,1.85-2.31.11-4.57-2.61-4.69l1.33,1.73c1.37-4-2.48-6.59-6.05-6.76l1.11,1.94c2.24-4.29-1.66-7.7-5.74-8.18l1.15,1.51c1.06-3.14-.73-5.47-3.59-6.63-.83-.35-1.26.94-.58,1.39Z"/><path class="cls-2" d="M323.81,386.12a3.65,3.65,0,0,0-1.88.69,4.31,4.31,0,0,0-1.32,1.58.89.89,0,0,0,.76,1.33,2,2,0,0,0,1.7-.91,4.46,4.46,0,0,1,.4-.54s.16-.06.15,0h0a.6.6,0,0,1-.3-.65.94.94,0,0,0,1.81.5c.43-1.17-.83-1.86-1.82-1.71a1.93,1.93,0,0,0-1.23.7c-.13.16-.49.87-.72.87l.85,1.12a3.54,3.54,0,0,1,1.9-1.79.63.63,0,0,0-.31-1.16Z"/><path class="cls-2" d="M324.6,388.77c-.52.2-1,.46-1.52.64,0,0-.15,0-.13,0v0c.23,0,.1.19-.39.53l-1.2-2.07a11.52,11.52,0,0,0-1.89,2.37c-.44,1,.52,2.3,1.58,1.59a10.77,10.77,0,0,0,2.05-2.21c.72-.86.07-2.5-1.2-2.07a2.14,2.14,0,0,0-.72,3.57c1.32,1.4,3.49.27,4.37-1.06a.85.85,0,0,0-.95-1.24Z"/><path class="cls-2" d="M377.11,391.35a1,1,0,0,1,.17.1c.1.06,0,0,.05,0l.11.11c.14.15-.08-.11,0,.06s.2.23.3.35c-.11-.12,0,0,0,.06s.09.2,0,.06a.73.73,0,1,0,1.4-.39,2,2,0,0,0-.7-1.15,2.49,2.49,0,0,0-1.12-.38c-.62-.09-.84.89-.32,1.15Z"/><path class="cls-2" d="M378.32,391.13a3.18,3.18,0,0,0-.68.15l-.62.28a.76.76,0,0,0-.32.95.77.77,0,0,0,.9.44l.62-.15a4.56,4.56,0,0,0,.67-.32.74.74,0,0,0,.3-.92.75.75,0,0,0-.87-.43Z"/><path class="cls-2" d="M384.27,392.43c.45-.45,1-.31,1.56-.47a.82.82,0,0,0,.19-1.48c-1.07-.55-2.24.24-2.84,1.12-.45.66.54,1.38,1.09.83Z"/><path class="cls-2" d="M391.11,389.58c.25-.21,1.53-1.67,1.89-.89.61,1.29,2.29.29,2.11-.89-.06-.46.62-.59.92-.49a1.19,1.19,0,0,0,1.47-.83c.16-.92.11-1.31,1-1a1,1,0,0,0,1.29-1v-.25a1.21,1.21,0,0,0-.6-1c-2.13-1.21-3.65.73-4,2.68l1.47-.84a2.93,2.93,0,0,0-3.77,3.41l2.11-.89c-1.38-2.72-4.55-.92-5.34,1.22-.34.9.85,1.33,1.45.84Z"/><path class="cls-2" d="M396.35,390c-2.33.31-3.58,2.92-3.53,5.06a1,1,0,0,0,2.05.28,8.14,8.14,0,0,1,.94-2.16c.28-.44.9-1.4,1.3-1.55,2.28-.91-.31-3.71-1.42-1.85-.49.82-1.28,1.46-1.77,2.3a10.08,10.08,0,0,0-1.07,2.71l2.06.27c-.1-1.72.89-2.67,1.93-3.88.34-.39.17-1.27-.49-1.18Z"/><path class="cls-2" d="M366.45,402.21c-1.63,3.11.14,7,3.06,8.64,3.51,2,7.79.66,10.5-2,1.28-1.27-.59-3-1.93-1.93-2.27,1.78-7.19,1.79-8.29-1.59-1-3.13,2.46-5.76,4.81-7.06,1.45-.8.42-2.84-1.08-2.55-7.35,1.42-8.18,11-2.87,15.27a1.31,1.31,0,0,0,1.85-1.85c-1.6-1.77-2.91-3.75-2.55-6.26a5.18,5.18,0,0,1,4.32-4.47l-1.08-2.55c-4,2.21-8.55,6.84-5.46,11.51,2.84,4.31,8.47,4.54,12.28,1.48l-1.93-1.93c-4.21,4.27-10.47,1.84-10-4.25a.9.9,0,0,0-1.66-.44Z"/><path class="cls-2" d="M374.84,398.6q-.19-.12.12,0l.32.06c.17,0,.33.1.49.15a1.87,1.87,0,0,1,.82.54l1.81-1.4a4.25,4.25,0,0,0-2.07-1.34,2.72,2.72,0,0,0-2.42-.09,1.1,1.1,0,0,0-.22,1.7,3.67,3.67,0,0,0,1.78.77,14.25,14.25,0,0,0,1.63.66,1.16,1.16,0,0,0,.89-2.12,3.61,3.61,0,0,0-1.79-.66,2.83,2.83,0,0,0-1.7.45.68.68,0,0,0,.34,1.25Z"/><path class="cls-2" d="M374.76,401.6c.53-.12.82,0,.87.38l-.13.5a1.45,1.45,0,0,1-1.07-.07,2.09,2.09,0,0,1-.23.29,4.44,4.44,0,0,0-.52.76l1.27-.52c.64.17.16.83-.3.65.06,0,0-.08,0-.09a1.32,1.32,0,0,0-.26,0l.62.17c.15.11-.08-.33,0-.29s0,.1,0,.11c-.48.07-.12,0-.12.1a.63.63,0,0,1,.17-.49c.12-.05.11-.05,0,0q.21,0,0,0c.28.1,0-.14.2.1,0-.05.38.58.14.46-.06,0,.33-.24.3-.23s.35-.19.36-.15a.73.73,0,0,1-.73-.7l0,.08a3.1,3.1,0,0,1-.5.63c-.11.09-.3.15-.39.26s-.22-.2.09.12l.34,1.29a2.4,2.4,0,0,1,.41-.85c.36-.39.09.08,0,0a.17.17,0,0,1-.06-.06.58.58,0,0,1-.14-.43c0-.09,0-.13.07-.11-.14.08-.17.1-.07.05s-.24,0-.15,0a.84.84,0,0,1-.35-.14c.07.05-.07-.06-.08-.07s-.07-.11.06-.28.44-.29.41-.22-.23-.37-.1-.34-.37.34-.31.31a2,2,0,0,1-1.26.26l1.16,2a2.21,2.21,0,0,1,1.57-1.41l-1.53-.62c-.09-.15,0-.19.12-.3a1.37,1.37,0,0,0-.48,1.81,1.35,1.35,0,0,0,1.81.48,2.4,2.4,0,0,0,.89-3.36,1.38,1.38,0,0,0-1.53-.63,4.92,4.92,0,0,0-3.31,3c-.36.86.53,1.65,1.3,1.7,2,.11,4.78-1.42,4.16-3.79a2.61,2.61,0,0,0-2.56-1.81,3.22,3.22,0,0,0-2.6,1.49,2.94,2.94,0,0,0,1.85,4.45,3,3,0,0,0,2.73-.63,2.32,2.32,0,0,0,.51-3,2.54,2.54,0,0,0-3-.9,3.85,3.85,0,0,0-2.08,2.64,1.34,1.34,0,0,0,.34,1.29c2.55,2.59,7.37-2.73,4.45-4.58-1.34-.85-3.38.23-4,1.53a2.27,2.27,0,1,0,4.32.54,2.53,2.53,0,0,0-3.57-1.65A2.63,2.63,0,0,0,373,405a1.83,1.83,0,0,0,2.06.88,2.69,2.69,0,0,0,1.75-1.33c.88-1.7-.95-4-2.8-3a2,2,0,0,0,.38,3.58,1.14,1.14,0,0,0,1.27-.52c.42-.91,1.3-1.59.95-2.72a1.61,1.61,0,0,0-2.05-1,1.27,1.27,0,0,0-.53,2,1.15,1.15,0,0,0,1.89-.15c.32-.69-.36-1.59-1.12-1.12Z"/><path class="cls-2" d="M363.36,409.41v.38a.65.65,0,0,0,.67.66.67.67,0,0,0,.66-.66v-.38a.66.66,0,0,0-.19-.48.69.69,0,0,0-1,0,.66.66,0,0,0-.19.48Z"/><path class="cls-2" d="M326.39,390.43l.23.2a.93.93,0,0,0,1.16.89l.27.26a1,1,0,0,0,1.72.71l1.27-1.2-1.61-.2.44,1.47a1.06,1.06,0,0,0,1.78.74l1.16-.9H331.3l1,1.12a1.07,1.07,0,0,0,1.3.17l.47.42c-.42,1.28,1.36,1.85,2.05.86l.29.12c-.51,1.41,1.72,2,2.25.61l-.1-.46a1.2,1.2,0,0,0,1.7,1.7l.59.07a1.24,1.24,0,0,0,2.42.33l.09.13,2.21,1.3,2.15-2.32-1.91-.77-.18,2,2.4.31-.4.4,2.47,1,.72-1.19,2.31,1.35-.41.85,2.55,1.08.14,1h2.78l.45-1,2.26,1.29.32-.85,2.56,1.06-1.36.55,2.51.67a7.38,7.38,0,0,1-.22-4.84,1.51,1.51,0,0,0-2.51-1.45l-7.3,1.73,1.5,1.5,2.31-2.93-2.05-2.05c-1.5,2.72-3,2.64-5.32,3.85l-2.21-1.7.05.08c.45-1.34-1.1-2.22-2.2-1.7L344,395.2a1.51,1.51,0,0,0-2.2-.9l-.06-.2-2.17-1.68q-2.13,5.31-4.6.12l-2.67-1.13.65.67-2.21-1.27-1-1a1.47,1.47,0,0,0-1.85-1.41l-2.14-.21v2.53h.58l-.87-2.15.3-.25c-1.4-.11-2.05,2.13-.74,2.72,9.36,4.2,21.43,12,32.05,8.38a1.43,1.43,0,0,0,.62-2.36c-1.94-2.18-4.45-1.75-7.21-2.21a38.93,38.93,0,0,1-12.4-4.44l-1.46,2.49L339,395.1l1.24-2.17-3.71-1.69-1.41,2.42c6.29,2,11.23,5.88,16.5,9.66,3.54,2.54,7.2,3.06,10.92.46a1.48,1.48,0,0,0,.64-1.58c-.37-2.5.75-4.12-2.09-5.21a1.44,1.44,0,0,0-1.39.37l-.66.54c-1.22,1,.15,2.61,1.4,2.39s2.38-.4,3.58-.62l-1.79-1.79-.71,1.93c-.45,1.25,1.11,2.21,2.14,1.64l2.68-1.48-2.14-.87,0,1.06c-.24,1.26,1.46,2.69,2.44,1.42l2.37-3.06-2.3-1.77a8.77,8.77,0,0,0-1.92,5.84c0,1.6,2.59,2.06,2.87.39l.31-1.75c.32-1.84-2.51-2.63-2.83-.78l-.3,1.75,2.88.39a5.41,5.41,0,0,1,1.51-4.36c1.14-1.5-1.39-2.94-2.52-1.48l-2.36,3.06,2.67,1.13a5.28,5.28,0,0,0,0-2.62,1.47,1.47,0,0,0-2.14-.87l-2.68,1.49,2.14,1.64.7-1.93c.41-1.13-.8-2-1.79-1.78l-3.57.66,1.4,2.4c-1,.88-.74,1.92-.58,3l.64-1.57c-5.1,3.53-10.07-2.14-14.09-4.91a41.24,41.24,0,0,0-11.15-5.6,1.46,1.46,0,0,0-1.41,2.43,9,9,0,0,0,5.76,2.53c1.19.12,1.67-1.29,1.25-2.17a6,6,0,0,0-3.75-3.41c-1.51-.63-2.52,1.86-1.11,2.63a42.65,42.65,0,0,0,9,3.74c2.17.61,8.56.66,10.12,2.41l.62-2.35c-9.76,3.26-21.2-4.27-29.83-8.18l-.73,2.72.62.05a1.48,1.48,0,0,0,1.26-.72L328,390a1.48,1.48,0,0,0-.87-2.15,2.61,2.61,0,0,0-2.83.29,1.48,1.48,0,0,0,0,2.53,4.9,4.9,0,0,0,4.39.51l-1.86-1.42c-.39,5.24,6.81,6.41,6.88,1a1.48,1.48,0,0,0-2.21-1.28c-4.6,3.44,2.36,7.87,3.65,2.66a1.47,1.47,0,0,0-2.67-1.12c-2.34,3.07.33,6.22,3.6,6.79,2.75.48,9-1.83,5.68-5.51-1.7-1.88-5.26-.58-4.46,2.2,1.06,3.64,4.48.67,5.15-1.34.45-1.33-1.09-2.19-2.17-1.67-4.53,2.16-1.19,8.1,3.06,5.35l-2.2-.89c.94,3.47,4.16,4.77,7.33,3.24l-2.2-1.69c-1.52,4.58,4.88,6.27,5.74,1.52a1.52,1.52,0,0,0-2.21-1.69,2.92,2.92,0,0,0,.36,5.45c3.69,1.39,7.5-2.35,9.07-5.2a1.51,1.51,0,0,0-2-2.05c-2.55,1.14-3.52,2.82-3.8,5.52a1.5,1.5,0,0,0,1.5,1.5c6.94-.47,3.75-8,.46-5.49a3,3,0,0,0-.06,4.57c2.62,2.51,6.81,0,9-1.69l-2.51-1.46A12.59,12.59,0,0,0,362,405a1.52,1.52,0,0,0,2.51.67c1.5-1.79,4-6.64.4-7.88-2.91-1-4.14,3.11-4.16,5.2A1.52,1.52,0,0,0,363.3,404c5-4.22-5.84-9.5-5.44-1.27a1.51,1.51,0,0,0,2.25,1.3c2.16-1.51,2.82-5-.32-6-3.46-1.1-5.1,2.42-4.42,5.19a1.45,1.45,0,0,0,2.78,0c.66-2,1.54-5.56-1.26-6.39-2.6-.77-3.9,1.93-4.35,3.93-.34,1.46,1.82,2.56,2.54,1.07.94-1.91,2.39-5.55-.61-6.45-2.38-.71-3.56,1.52-4.05,3.45a1.4,1.4,0,0,0,2.32,1.35c3.29-3.33-3.11-7.19-5.29-1.49-.57,1.5,1.67,2.26,2.47,1,3.67-5.52-6.45-6.58-4.47-1.06a1.33,1.33,0,0,0,2.4.31,3.83,3.83,0,0,0,.42-4,1.31,1.31,0,0,0-1.91-.78,6.65,6.65,0,0,0-3,3.26,1.28,1.28,0,0,0,2.21,1.3c2.53-4-3.33-6.59-4.68-2.09h2.38c-.38-2.76-2.85-3.31-4.71-1.44l1.7,1.7c2.88-3-2.31-6.1-3.85-1.85l2.25.61c1.18-3.44-2.67-4.56-4.47-1.86l2.05.86c1.16-3.84-2-2.26-3.39-3.8a1.1,1.1,0,0,0-1.51,0l-1.12.92,1.78.74a2.75,2.75,0,0,0-.76-2.51,1,1,0,0,0-1.61-.2l-1.24,1.22,1.71.71c0-2.1-1.81-2.48-3-2.94-.91-.34-1.55,1.17-.66,1.59Z"/><path class="cls-2" d="M408.68,383.33a1.08,1.08,0,0,0,0-2.15,1.08,1.08,0,0,0,0,2.15Z"/><path class="cls-2" d="M406.47,382.84l0,.85,1-1a2.89,2.89,0,0,1-1.45-.26c-1.3-.47-1.93,1.42-.89,2.12.55-.43.44-.68-.32-.76l-.78-.31a3.19,3.19,0,0,0-1.44,0c-.55.12-2.34,2-2.48,2v2.45a8.91,8.91,0,0,1,6.29-.11l-.31-2.33-1.3.06-.91,2.2a12.47,12.47,0,0,1,4.73,1.2l-.26-2.05h.18l-1.28,2.2a3.81,3.81,0,0,1,2.53,1.3l1.61-2.08a5.4,5.4,0,0,1-2-2.5l-2.19,1.69a1.46,1.46,0,0,1,.26.72,1.22,1.22,0,0,0,2.21.29,2.3,2.3,0,0,0-.5-3c-1.14-1.24-2.8.33-2.18,1.69a7.07,7.07,0,0,0,3.11,3.37,1.33,1.33,0,0,0,1.61-2.08,6.11,6.11,0,0,0-3.71-1.95,1.32,1.32,0,0,0-1.28,2.19,2.33,2.33,0,0,0,3.52,0,1.32,1.32,0,0,0-.26-2.05A16,16,0,0,0,404,385.1a1.29,1.29,0,0,0-.91,2.19,3.45,3.45,0,0,0,4.41.32,1.29,1.29,0,0,0-.3-2.33,11.15,11.15,0,0,0-7.64.12,1.28,1.28,0,0,0,0,2.45c1.24.38,2-.14,2.87-1a5.42,5.42,0,0,0,.48-.67.79.79,0,0,1,1.28-.15c.52.07,1,.45,1.54.47,2.64.07,2.47-2.87.69-4l-.9,2.13a4.33,4.33,0,0,0,2.34,0,1,1,0,0,0,.7-1.24,2,2,0,0,0-.83-1.29.73.73,0,0,0-1.21.71Z"/><path class="cls-2" d="M393,388.28a12.79,12.79,0,0,0-3.61,2.85l1.87,1.09c.26-1.38,1.65-2.9,3.18-2.11l.68-2.51c-2,0-4.45-.41-5.8,1.48-1,1.35-.94,3.42.68,4.25a1.43,1.43,0,0,0,1.91-.5,22.58,22.58,0,0,1,1.89-3.18,6.26,6.26,0,0,1,1-1.18c.45-.36.69-.28,1.22-.27a1.13,1.13,0,0,0,1.09-1.42c-.7-1.93-2.86-1.43-4.12-.36a15.62,15.62,0,0,0-3.48,5l1.91-.5c-.16-.06-.15,0,0,.2a.52.52,0,0,1,.07-.32c.23-.16.2-.28.51-.4.9-.36,2.15,0,3.11-.1a1.36,1.36,0,0,0,.36-2.65c-2.79-1-6.55,1.1-6.42,4.27.05,1.05,1.56,1.61,2.09.57a8.87,8.87,0,0,1,2.57-3,.71.71,0,0,0-.72-1.23Z"/><path class="cls-2" d="M388.55,390.44c-3-1.15-5.67.6-6.84,3.39-.35.82.66,1.69,1.43,1.44a2.13,2.13,0,0,0,1.69-2.32,1.22,1.22,0,0,0-1.2-1.2,5.14,5.14,0,0,0-5.05,5.35,1.29,1.29,0,0,0,2.51.34c.5-1.34,1.26-3.59,3.27-3.2l-.59-2.22c-2.53,2.93-10.44-2.22-11.49,3.43a2,2,0,0,0,1.34,2.44,2.18,2.18,0,0,0,1.79-.36c.7-.34,3-3,4.09-2.33l-.66-1.15.62-.7a1.1,1.1,0,0,0-.65,1.62l.1.14a1.24,1.24,0,0,0,1.37.56l.24-.07a1.35,1.35,0,0,0,1-1.28v-.27a1.32,1.32,0,0,0-.66-1.16c-1.1-.67-2.28-.35-3.45.08-1,.37-2.73,2.22-3.6,2.19l1.19.68c-.41-.72,3.89-.07,4.36,0a8.73,8.73,0,0,0,2.39.13,5.44,5.44,0,0,0,3.91-2.07c.55-.68.52-2-.58-2.22-3.62-.57-5.31,2-6.45,5.08l2.51.34c-.09-1.63.75-2.61,2.5-2.94l-1.2-1.21.09.07,1.44,1.43a4.19,4.19,0,0,1,4.39-2.58c.87,0,.92-1.15.2-1.43Z"/><path class="cls-2" d="M372.82,415.66c-.11.09,1,.34,1.24.42a7.27,7.27,0,0,0,2.21.42c1.79,0,2.78-1.39,3-3.05l-2.21.89c3.58,2.26,6.93-2.12,4.38-5.23-1.22-1.5-3.33.64-2.12,2.12.54.66-.3.8-.74.52a1.52,1.52,0,0,0-2.21.9c-.1.73,0,.79-.38.84a6,6,0,0,1-1.86-.52,3.54,3.54,0,0,0-3.45.57c-1.46,1.27.67,3.39,2.13,2.12Z"/><path class="cls-2" d="M364.4,403.42c-3.94,1.11-3.38,6.61-.57,8.62,1.57,1.13,3.07-1.47,1.51-2.59-.75-.54-1.31-2.8-.14-3.13a1.51,1.51,0,0,0-.8-2.9Z"/><path class="cls-2" d="M381.92,407.66c-3.85,2.35-.5,7,3.23,6.36l-1.48-.84a2.2,2.2,0,0,0,2.16,1.82,3.42,3.42,0,0,0,1.75-.37,3.56,3.56,0,0,1,2.62-.59c3,.32,6.42-3,6.51-6a1.11,1.11,0,0,0-1.66-1c-1.87,1.31-2.39,4-4.94,4.09a6,6,0,0,0-1.75,0,17.67,17.67,0,0,0-2.37,1.35,1.23,1.23,0,0,0-1.48-.84q-3.27-1.06-1.64-3.09a.7.7,0,0,0-.95-.95Z"/><path class="cls-2" d="M371,415.07a4,4,0,0,0,3.07-1.42l-2.5-.66a2.05,2.05,0,0,1,.27,1.07,1.51,1.51,0,0,0,2.26,1.29c1.81-1.11,3.6-.45,4.86-2.55a1.51,1.51,0,0,0-1.69-2.2c-.9.24-1.77.54-2.66.78a15.35,15.35,0,0,1-1.78.42c-.76.11-1.11-.22-.85.7s.42.53,1.22.5a10.83,10.83,0,0,1,1.71.1,20,20,0,0,1,2.43.45,1.53,1.53,0,0,0,1.9-1.45,5.43,5.43,0,0,1,1.46-3.25l-2.51-.66a1.49,1.49,0,0,1,0,1c-.46,1.61,1.95,2.69,2.75,1.16l1.09-2.1-2.74-.36.82,2.15,2.74-1.16,0-1.38c.67-1.81-2.22-2.59-2.89-.79a4.15,4.15,0,0,0,.32,3.69c.77,1.48,3.35.45,2.74-1.16l-.82-2.15a1.52,1.52,0,0,0-2.74-.35l-1.09,2.09,2.74,1.16a5.06,5.06,0,0,0,0-2.62,1.51,1.51,0,0,0-2.51-.66,9,9,0,0,0-2.33,5.37l1.9-1.44c-2.24-.56-8.59-1.94-8.82,1.84-.27,4.3,6.8,1.51,8.74,1l-1.69-2.2c-.56.92-2.82.88-3.78,1.47l2.25,1.3a3.34,3.34,0,0,0-.38-1.87,1.52,1.52,0,0,0-2.51-.66l-1,.54c-1.91.13-1.93,3.13,0,3Z"/><path class="cls-2" d="M365.56,412.28a2.37,2.37,0,0,1,2.71,1.22c1,1.62,3.64.12,2.59-1.51a5.42,5.42,0,0,0-6.1-2.6,1.5,1.5,0,0,0,.8,2.89Z"/><path class="cls-2" d="M367.4,410.21a9.54,9.54,0,0,0-3.58-2.78,1.51,1.51,0,0,0-1.69.69,2.43,2.43,0,0,0-.21,2.1,1.52,1.52,0,0,0,2.5.66c.34-.35.73-.65,1.05-1l-2.36-1.82a3,3,0,0,0,0,3.5,1.54,1.54,0,0,0,2.05.54,1.53,1.53,0,0,0,.54-2.06c.11.16-.2-.31-.16-.1,0-.1.12-.26.19-.37.94-1.4-1.22-3.09-2.35-1.81-.33.36-.71.65-1.05,1l2.51.66c-.1-.33-.13-.25-.09.22l-1.7.69a7.3,7.3,0,0,1,2.26,2c1.33,1.41,3.45-.72,2.12-2.12Z"/><path class="cls-2" d="M369.29,411.1l-1.61-2a1.51,1.51,0,0,0-2.56,1.06,3.41,3.41,0,0,0,2.05,2.94,3.37,3.37,0,0,0,3.55-.6l-2.12-2.12s-.3.33-.21.24.06,0,0,0,.26,0,0,0a4,4,0,0,0-.49,0,1.5,1.5,0,0,0,0,3,3.42,3.42,0,0,0,2.81-1.08,1.5,1.5,0,0,0-2.12-2.12c.09-.07.1-.08,0,0s-.08,0,0,0-.23.05,0,0c-.09,0-.44,0-.13,0,0,0-.37-.12-.2-.05s-.17-.11-.17-.11c.21.15-.05-.11,0,0s-.08-.15-.1-.18c.12.26,0-.23,0,.08l-2.56,1.06,1.61,2a1.52,1.52,0,0,0,2.12,0,1.54,1.54,0,0,0,0-2.12Z"/><path class="cls-2" d="M365.88,405.54a8.44,8.44,0,0,0-.95,6.1,1.52,1.52,0,0,0,2.2.9,5.88,5.88,0,0,0,1.69-1l-2.36-.31a2.12,2.12,0,0,1,.36.85c.21,1.9,3.21,1.93,3,0a5.27,5.27,0,0,0-.77-2.36,1.52,1.52,0,0,0-2.36-.3,4.14,4.14,0,0,1-1.07.47l2.2.9a5.22,5.22,0,0,1,.65-3.78,1.5,1.5,0,0,0-2.59-1.52Z"/><path class="cls-2" d="M380.06,404.59a5.48,5.48,0,0,1-.82,3.77l1.61-.21a1.79,1.79,0,0,1-.81-1.23,1.14,1.14,0,0,0-2.28,0,4.79,4.79,0,0,1-.39,1.71l2.29.63a4.43,4.43,0,0,1,.58-1.34l-1.66.43a.36.36,0,0,1,.07.22c.23,1.11,1.64.83,2,0a1.81,1.81,0,0,0-.59-2.12,1.24,1.24,0,0,0-1.9.24,5.46,5.46,0,0,0-.78,1.94,1.19,1.19,0,0,0,2.29.63,7.17,7.17,0,0,0,.38-2.34h-2.28a3.31,3.31,0,0,0,1.85,2.84,1,1,0,0,0,1.5-.61,7.76,7.76,0,0,0,.24-4.74c-.2-.68-1.35-.59-1.29.18Z"/><path class="cls-2" d="M392.85,394.07c3,4.48,5.8,9.5,2.66,14.75-.65,1.08.92,2.36,1.78,1.38,3.77-4.31,1.73-9.38-1.44-13.36-.86-1.07-2.73.36-1.92,1.48a29.17,29.17,0,0,1,4.47,9,1.22,1.22,0,0,0,1.14.87c5.66.59,10.81-.79,13.9-5.91l-2.11-.89a5.73,5.73,0,0,1-1.95,3.7l1.65,1.65a21.94,21.94,0,0,0,4-7c.44-1.29-1.49-2-2.16-.91-2.72,4.54-6.61,6.7-11.61,7.95-1.23.31-1,2.38.3,2.26,5.69-.53,10.5-4.19,13.35-9l-2.16-.91a18.21,18.21,0,0,1-3.36,6c-.94,1.14.6,2.76,1.65,1.65a9,9,0,0,0,2.52-4.73,1.16,1.16,0,0,0-2.11-.89c-2.68,4.5-7.1,5.26-11.9,4.71l1.13.87a31.29,31.29,0,0,0-4.63-9.61l-1.91,1.48c2.21,2.82,4.32,6.74,1.56,10l1.78,1.38c3.18-5.55,1.26-12.72-3.48-16.78-.58-.5-1.62.15-1.14.88Z"/><path class="cls-2" d="M366.51,410.76c.07-.21-.23.31-.27.39-.57,1-.17.37,0,.23a2.3,2.3,0,0,0-.8,3.05,2.62,2.62,0,0,0,3.69,1,3.05,3.05,0,0,0,1.32-3.75,3.52,3.52,0,0,0-3.48-2,10,10,0,0,0-1.08.14,1.91,1.91,0,0,0-.33.06c.25,0,.29,0,.11,0-.34.07-.36.06,0,.09.16.08.14.06,0-.06a1,1,0,0,1-.29-.19,2.22,2.22,0,0,0-2.5.18,2.29,2.29,0,0,0-.81,2.36,3.32,3.32,0,0,0,3.53,2.34c.58,0,1.13-.21,1.69-.26-.24,0-.22.05.06,0l-.2,0q-.21-3.56-.93-2.28a1.66,1.66,0,0,1,.84-.69h1.21l.33.13.81.81-.08-.12-.35,2.7c1.4-1.36,1.77-4.05-.33-5a1.48,1.48,0,0,0-2.13.87Z"/><path class="cls-2" d="M292.75,462.36c2.24,15.18,7.14,30.26,10.79,45.15,3.69,15.07,7.31,30.16,11,45.23,7.41,30.3,13.62,60.77,17.37,91.76.69,5.67,9.7,5.74,9,0a720.94,720.94,0,0,0-17.53-92.39q-5.75-22.46-11.64-44.85c-4.05-15.41-7.17-31.69-12.87-46.58a3.17,3.17,0,0,0-6.11,1.68Z"/><path class="cls-2" d="M299.73,469.47c1.1-3.1.43-7,.18-10.19-.28-3.52-.57-6.72-2.77-9.55-1.89-2.42-5.87-.85-6.59,1.74-.87,3.17.25,6.43.91,9.58s.73,6.42,2.19,9.22,5.19,1.73,6.08-.8Z"/><path class="cls-2" d="M284.87,463.26c.77,3.6,2.94,6.86,4.46,10.19a105.23,105.23,0,0,1,4.47,11.4l9.6-4.05q-4.22-8.83-8.5-17.64c-3-6.18-11.71-.76-9.08,5.32a437,437,0,0,1,20.94,61.85c2.61,9.9,5,19.87,7.46,29.81,2.59,10.43,4.57,21.62,9,31.47,1.84,4.12,8.76,2,8.47-2.3-.69-10.45-4.11-21-6.62-31.16-2.62-10.55-5.14-21.14-7.93-31.66a473.11,473.11,0,0,0-21.66-62.07l-9.62,4.06q4.21,8.82,8.51,17.62c2.59,5.33,11.47,1.6,9.6-4.05-2.44-7.36-5.73-17.89-12-22.89-3.25-2.59-8-.26-7.05,4.1Z"/><path class="cls-2" d="M428.82,382.39c4.89,13.23,20.44,20.92,30.9,29.13,13.36,10.49,22.33,24.69,30.68,39.24,4.19,7.3,8.51,14.59,12.07,22.23,3.84,8.24,5.17,17.22,8.83,25.46,1.6,3.6,3.68,6.94,5.55,10.4,2.31,4.28,3.6,8.67,5.11,13.26,2.71,8.21,7.42,15.32,12.33,22.37,1.91,2.75,6.44.16,4.53-2.65-5.29-7.76-9.77-15.32-12.5-24.35-2.48-8.2-7.51-14.83-10.64-22.7-3.22-8.1-4.76-16.57-8.49-24.55-3.59-7.64-7.95-14.88-12.27-22.11-8.21-13.76-17-27.69-29.53-38-5.67-4.67-11.92-8.54-17.86-12.83-6.56-4.74-11.59-9.95-17-15.92a1,1,0,0,0-1.73,1Z"/><path class="cls-2" d="M536.33,543.9c-.22.07-.46.13-.67.22l-.07,0h.07a1.73,1.73,0,0,0-.43.12.91.91,0,0,0-.44.61.77.77,0,0,0,.35.86,1,1,0,0,0,.64.13.92.92,0,0,0,.41-.17c.28-.22-.12.07.1-.09l.59-.41a.71.71,0,0,0,.29-.89.7.7,0,0,0-.84-.41Z"/><path class="cls-2" d="M536.44,545.59c2.3,0,4.53.37,5.85,2.49l1.88-1.45c-1.7-1.85-4.51-3.68-7.13-3.48a1.15,1.15,0,0,0-.3,2.24,24.38,24.38,0,0,1,3.11,1,9.48,9.48,0,0,1,2.62,2c.93,1,2.65-.29,1.89-1.45-1.69-2.55-5.42-4.46-8.31-2.69a.76.76,0,0,0,.39,1.41Z"/><path class="cls-2" d="M544.14,548.43c1.18-2.92,1.76-6,2.81-9,1.17-3.3,2.92-6.47,3.67-9.88a1.07,1.07,0,0,0-2-.83,50.61,50.61,0,0,0-6,19.51c-.06.9,1.17.91,1.45.2Z"/><path class="cls-2" d="M599,538.44c-1.45,3.72-1.67,7.84-2.54,11.72-1.4,6.2-3.46,12.21-4.88,18.41a180.38,180.38,0,0,1-15.48,42c-3.16,6.22-6.4,12.42-9.84,18.48-3.14,5.55-7.07,11.77-13.43,13.94-9.92,3.38-22.25-4-30.73-8.52-1.68-.89-3.16,1.63-1.49,2.55,8.57,4.75,19.87,11,30,9.49,13-1.91,18.88-17.15,24.16-27.28,7.44-14.27,14.44-28.93,18-44.7,2.65-11.75,7-23.82,7.57-36,0-.83-1.09-.86-1.36-.18Z"/><path class="cls-2" d="M564,451.14c-2.83-6.33-7.62-11.13-11.48-16.79-4.81-7.09-5.35-14.78-3.52-23,.42-1.88-2.47-2.69-2.89-.8-1.58,7.06-1.82,14.32,1.33,21,3.62,7.69,10.47,13.26,14,21.08.79,1.76,3.38.23,2.6-1.52Z"/><path class="cls-2" d="M603.64,455.47c-.23,0,2.87-8,3.32-8.7a26.35,26.35,0,0,1,6.71-7.25c1.07-.81,0-2.66-1.08-1.84-5.26,3.87-11.2,11.32-10.66,18.3a.87.87,0,0,0,.45.77c.7.31.91.38,1.6,0a.68.68,0,0,0-.34-1.26Z"/><path class="cls-2" d="M548.72,412.15c1.83-4.54,3.92-9,6.07-13.37.81-1.65,3.67-7.72,5.6-4.84s1.24,9,1,12.4c-.11,1.93,2.89,1.92,3,0,.23-4.1,1.19-13.65-3.31-16-2.67-1.41-5.4,1.29-6.83,3.26-3.71,5.13-6.11,11.9-8.46,17.75-.72,1.79,2.18,2.57,2.89.8Z"/><path class="cls-2" d="M564.59,407a15.71,15.71,0,0,1,.47-3.67l-2.95-.39a24.75,24.75,0,0,0,.22,3.54,1.54,1.54,0,0,0,1.5,1.5,1.51,1.51,0,0,0,1.5-1.5,24.75,24.75,0,0,1-.22-3.54,1.5,1.5,0,0,0-2.94-.4,19.21,19.21,0,0,0-.58,4.46,1.5,1.5,0,0,0,3,0Z"/><path class="cls-2" d="M563.59,416.13c-.4,2,.56,3.58,1.92,5,2.36,2.45,5,4.67,7.61,6.92.32.28.79-.18.48-.48-1.68-1.57-3.37-3.12-5.07-4.67s-4.84-3.69-4.35-6.6c.07-.39-.52-.56-.59-.17Z"/><path class="cls-2" d="M564.1,405.28a34.71,34.71,0,0,0,.21,11.28c.07.43.76.33.75-.1-.09-3.66-.18-7.33-.28-11a.39.39,0,0,0-.77-.11,26.29,26.29,0,0,0,1.7,17.31c.21.45,1,.12.81-.34a33.65,33.65,0,0,1-2.41-15.52c0-.44-.59-.47-.72-.1-1.3,3.59-.55,7.33.22,11l1-.27a37.14,37.14,0,0,1-1-11.6.57.57,0,0,0-1.11-.15c-.84,4.3.21,8.25,1.52,12.36a.58.58,0,0,0,1.11-.31,35.93,35.93,0,0,1,0-10.61l-1.09-.3c-.83,5.64-1.44,12.22,3.65,16.06.45.35,1-.4.6-.78-4.44-4-4-9.59-3.16-15,.11-.71-1-1-1.09-.3A38,38,0,0,0,564,418l1.11-.31c-1.23-3.87-2.33-7.66-1.54-11.75l-1.12-.15a37.12,37.12,0,0,0,1.15,11.87.51.51,0,0,0,1-.27c-.79-3.59-1.26-6.84-.5-10.5l-.72-.09a36.35,36.35,0,0,0,2.3,15.75l.8-.34a26.41,26.41,0,0,1-1.7-16.65l-.77-.1c.09,3.66.19,7.33.29,11l.76-.1a39,39,0,0,1-.34-11c0-.34-.56-.42-.61-.08Z"/><path class="cls-2" d="M590.53,365.7a21.43,21.43,0,0,0-7.14,11.4c-1,3.85-2.28,10.55-.83,14.34,3.05,8,10.82-5.31,12.53-7.9.64-1-.92-1.88-1.56-.91-1.62,2.47-2.89,5.48-5.07,7.53-4.82,4.55-4.44-2.57-4.33-5.43.27-6.8,2.24-13.32,7.67-17.75.9-.74-.38-2-1.27-1.28Z"/><path class="cls-2" d="M589.88,368.35c4.26-5.55,10.58,1.43,9.55,6.54-.23,1.14,1.5,1.62,1.73.48,1.48-7.27-7.33-15.1-12.83-7.92-.7.92.86,1.81,1.55.9Z"/><path class="cls-2" d="M602.66,378.5c-3.09,1.64-4.34,5.45-5.75,8.47a45.68,45.68,0,0,0-4.12,12.12c-.5,3.24.22,11.12,5.3,7.3,3.47-2.6,5.95-7.42,8.56-10.84,2-2.59,6.55-6.59,7-10,.8-6-8-8-12.15-6.8a.9.9,0,0,0,.48,1.74c2.89-.83,8.07-.44,9.38,3.08,1,2.72-1.25,4.68-2.64,6.53L600,401.72c-.8,1.09-1.61,2.16-2.44,3.23q-5.12-1.8-3.33-6.31a35.09,35.09,0,0,1,1.6-5.69c1.41-4,3.59-11.1,7.31-13.6a.49.49,0,0,0-.5-.85Z"/><path class="cls-2" d="M613.32,389.59a23.16,23.16,0,0,0-8.2,7.26c-1.68,2.3-4.58,6.36-3.63,9.44.72,2.34,3.19,2.59,5.12,1.54s3.27-2.6,5.06-3.65c1.18-.68,2.65-2,4-1.18s1.07,2.33,1.49,3.7c.25.77,1.55.68,1.48-.2-.12-1.68-.08-4.72-1.82-5.6-2.13-1.09-5.71,1.56-7.34,2.68-1.24.85-5.95,5.57-6.23.38-.08-1.41,1.71-3.8,2.44-5,2.21-3.5,5.17-6,8.32-8.58.49-.4-.13-1.07-.64-.83Z"/><path class="cls-2" d="M612.21,392.5c2-1,4.5-1.95,6.69-.7,2.79,1.6,2.66,5.1,2,7.68-.82,3.31-2.4,6.49-3.6,9.67-.38,1,1.21,1.42,1.6.44,1.92-4.83,6.17-12.06,2.83-17.16-2.31-3.54-7.25-3.39-10.09-.64a.45.45,0,0,0,.54.71Z"/><path class="cls-2" d="M616.62,403.94c-.12.95-.5,7.31,2,5.68a1.65,1.65,0,0,0,.37-2.33,7.47,7.47,0,0,0-1.27-1.18,2.51,2.51,0,0,1-.74-2.66.68.68,0,0,0-1.31-.36,3.83,3.83,0,0,0,1,3.84c.21.2.46.36.69.54a.63.63,0,0,1,.46.72c-.07-.38-.13-.77-.18-1.16-.12-1-.15-2.06-.17-3.09a.44.44,0,0,0-.87,0Z"/><path class="cls-2" d="M464.86,339.33c12.8,12.23,27.47,22.88,41.17,34.09s27.52,22.68,41.34,33.94c1,.85,2.54-.63,1.49-1.49-14.05-11.52-28.21-22.9-42.28-34.38-13.53-11-26.7-23.09-41-33.06-.55-.38-1.17.45-.7.9Z"/><path class="cls-2" d="M505.94,295.08c6.23-1.21,12.14-.18,15.36,5.9,2.79,5.25,2,11.61,1.51,17.28-1,11.81-2.58,23.51-1,35.35.25,1.89,3.26,1.91,3,0a111.7,111.7,0,0,1,0-24.86c.65-7.06,2.11-14.46,1.31-21.55-1.31-11.64-9.82-17.17-21-15-1.89.37-1.09,3.26.8,2.9Z"/><path class="cls-2" d="M469.44,340.93c-6.27-8.79-.65-20.31,5.25-27.76,1.19-1.5-.92-3.64-2.12-2.12-6.7,8.45-12.84,21.42-5.72,31.39,1.12,1.56,3.72.06,2.59-1.51Z"/><path class="cls-2" d="M465.31,337.92a111.34,111.34,0,0,0,51.26,16.61,283.31,283.31,0,0,1,31.15,3.41c10.13,1.74,19.91,4.75,29.95,6.82a1.11,1.11,0,0,0,.59-2.14c-17.27-6.78-37.53-9.09-55.93-10.19-9.8-.58-19.16-1.2-28.58-4.21-9.6-3.07-18.59-7.32-27.71-11.56a.73.73,0,0,0-.73,1.26Z"/><path class="cls-2" d="M518.82,295.42c9.17,9.12,18.66,17.81,27.38,27.38A371.34,371.34,0,0,1,571.62,354c.81,1.11,2.68,0,1.86-1.09-15.37-21.19-33.22-42.29-54.06-58.31-.45-.34-1,.39-.6.78Z"/><path class="cls-2" d="M565.76,420.65a233.48,233.48,0,0,0,34.52,27.29c.9.58,1.64-.79.82-1.39-11.74-8.68-23.11-17.55-34.28-27-.73-.62-1.77.38-1.06,1.06Z"/><path class="cls-2" d="M601.38,445.46l-.45-.17-.2,1.52a59.11,59.11,0,0,0,24.08-18.37c1.87-2.46,6.25-6.6,5.44-9.91-.41-1.7-2.22-2.86-3.43-4-2.59-2.43-5.21-4.83-7.82-7.23-1.2-1.11-3,.66-1.8,1.81,1.85,1.79,3.7,3.59,5.56,5.37.9.86,3.83,2.74,4.21,4,1,3.24-5,9.22-7,11.57-5.7,6.73-13,10.42-20.24,15.08a1,1,0,0,0,.23,1.77l.67.21a.82.82,0,0,0,.79-.2l.5-.48c.47-.45,0-1.06-.57-1Z"/><path class="cls-2" d="M595.15,383.36c.44.34.87.71,1.28,1.09a4.17,4.17,0,0,0,1.37,1.11.79.79,0,0,0,1-1,3.08,3.08,0,0,0-1.15-1.43,11.06,11.06,0,0,0-1.45-1.1c-.77-.5-1.74.71-1,1.29Z"/><path class="cls-2" d="M577.89,364.31a29.78,29.78,0,0,1,3.78,4.08c1,1.32,1.67,2.86,2.71,4.12.51.62,1.48-.05,1.29-.75-.91-3.36-4.25-6.52-6.91-8.57-.64-.5-1.46.58-.87,1.12Z"/><path class="cls-2" d="M572.92,353.87c-2.43,1.29-1.11,5.14,0,7a5,5,0,0,0,3.33,2.22c1.39.36,2.75.2,4.06,1a6,6,0,0,1,2.66,5.3.53.53,0,0,0,1.06,0,6.59,6.59,0,0,0-3.15-6.27,9.07,9.07,0,0,0-3.61-1,4.84,4.84,0,0,1-4-2.83c-.69-1.37-1.39-3.69,0-5,.25-.23-.08-.62-.36-.47Z"/><path class="cls-2" d="M574.16,354.08c5.42-3.44,11.07.25,11.26,6.41.12,4-.77,8.21-1.25,12.2-.1.84,1.22.84,1.32,0,.62-5.4,3.22-13.93-.9-18.56a7.78,7.78,0,0,0-10.85-.6.35.35,0,0,0,.42.55Z"/><path class="cls-2" d="M600.44,373.78a21.28,21.28,0,0,1-.74,7.61l.77.1c0-2.7,0-5.41,0-8.11a.43.43,0,0,0-.86,0c0,2.7,0,5.41,0,8.11a.39.39,0,0,0,.76.1,18.2,18.2,0,0,0,.6-7.9c0-.34-.63-.26-.61.09Z"/><path class="cls-2" d="M595.09,383.66a15.66,15.66,0,0,1,3.09-4.81.51.51,0,0,0-.72-.73,40.13,40.13,0,0,0-4.35,5l.9.53q1.34-2.6,2.65-5.19l-.9-.52L594,381.66c-.21.48.41,1.1.79.61l2.69-3.38-.84-.35-.2.6c-.4.47.28,1.16.69.68a1.79,1.79,0,0,0,.49-1.28c0-.39-.56-.69-.83-.35l-2.71,3.37.79.61,1.75-3.75c.28-.6-.59-1.12-.9-.52q-1.34,2.58-2.65,5.18a.52.52,0,0,0,.9.53,37.81,37.81,0,0,1,4.17-4.76l-.72-.73a10.94,10.94,0,0,0-3.05,5.25c-.08.39.5.7.68.29Z"/><path class="cls-2" d="M611.88,392.36c2-2,5.08-3.16,7.75-1.59s3.25,4.84,2.49,7.55a.34.34,0,0,0,.61.26,6.63,6.63,0,0,0-2.48-8.87c-2.94-1.72-7.27-.85-9,2.18a.39.39,0,0,0,.61.47Z"/><path class="cls-2" d="M577.58,352.9c-2.33,1-7,2.13-6.67,5.59.25,2.83,3.42,3.52,5.69,3.78V361.2c-1.15-.11-3-.36-3.92-1.16-2.11-1.84-2-3.18.05-4.79a14.21,14.21,0,0,1,5.43-2.32l-.47-1.09c-1.87,1-3.82,1.89-5.64,3-.56.34-1.42.63-1.73,1.29-.82,1.73,1.35,2.95,2.27,3.91l.83-.83-1.92-1.57a.58.58,0,0,0-.91.7,5.92,5.92,0,0,0,4.09,3.53c.6.18,1-.75.43-1-1.64-.78-2.26-.88-2-2.9s1-2.37,2.57-3.34c3.22-1.95,7.79-1.87,9.33,2.19s-.36,9.75-1.06,13.92c-.11.66.89.94,1,.28.94-5.46,4.92-18.11-4.15-19-3.15-.3-7.47,1.66-9.15,4.43-1.55,2.56.7,4.31,2.89,5.37l.43-1a4.56,4.56,0,0,1-3.39-3l-.91.7,1.91,1.58c.57.47,1.36-.27.83-.83a3.84,3.84,0,0,0-.83-.83c-1.15-1.55-.92-2.5.7-2.83,1.14-1.13,3.58-1.89,5-2.66a.6.6,0,0,0-.46-1.09c-2.6.67-8,2.4-8.32,5.8-.33,3.15,4.83,4.4,7.08,4.69.59.07.74-1,.14-1a15.79,15.79,0,0,1-2.16-.4q-3-4.69.42-5.72c.87-.64,2-.92,3-1.54a.38.38,0,0,0-.39-.66Z"/><path class="cls-2" d="M573.94,361.54c1.82.9,3.84,1.28,5.6,2.36a9.34,9.34,0,0,1,3.6,4.37c.21.47,1.06.25,1-.27-.57-4.41-6.08-6.86-10-7.22a.41.41,0,0,0-.2.76Z"/><path class="cls-2" d="M562.81,394.93a82.29,82.29,0,0,0-.06,17.75l1.1-.15a37.34,37.34,0,0,1-1.35-11,.58.58,0,0,0-1.16,0,94.89,94.89,0,0,0,.37,11.8c.07.82,1.32.85,1.31,0l-.18-12.86a.69.69,0,0,0-1.37,0A52.42,52.42,0,0,0,564,419.23a.69.69,0,0,0,1.32-.37A68,68,0,0,1,563.43,407a.69.69,0,0,0-1.37,0,55.5,55.5,0,0,0,1.32,12.39c.2.91,1.59.53,1.39-.38-.54-2.47-1.06-4.93-1.54-7.41-.13-.73-1.29-.55-1.28.17a47.36,47.36,0,0,0,.61,6.83c.12.78,1.49.6,1.39-.19l-.77-6.31-1.46.2.53,3.58a.77.77,0,0,0,1.28.34,1.59,1.59,0,0,0,.5-1.49h-1.54a48.16,48.16,0,0,0,2.31,10.59c.32.95,1.83.54,1.51-.42A46.64,46.64,0,0,1,564,414.71c-.11-1-1.64-1-1.54,0l-.16.56,1.39.18-.57-3.57c-.12-.81-1.56-.63-1.45.2l.83,6.31,1.4-.19a51.85,51.85,0,0,1-.67-6.45l-1.29.18c.51,2.47,1,4.95,1.41,7.44l1.39-.38a53.34,53.34,0,0,1-1.34-12h-1.37A70.37,70.37,0,0,0,564,419.23l1.32-.37a52,52,0,0,1-2.47-18.36h-1.37l.24,12.86H563a113.49,113.49,0,0,1-.52-11.8h-1.16a41.63,41.63,0,0,0,1.43,11.27c.15.59,1.17.5,1.1-.15a110.74,110.74,0,0,1-.33-17.75c0-.48-.68-.46-.73,0Z"/><path class="cls-2" d="M541.11,541c-8.32-5.56-15.74,3.07-19.9,9.44-5.49,8.41-5.66,19.15-5.64,28.86,0,18.81,3.95,41.49-6.09,58.53-5.07,8.6,8.21,16.32,13.36,7.81C532.26,630,531,613,530.39,595.52c-.29-9.36-1-19,.13-28.3.68-5.37,3.4-14.39,9.23-15.84,5-1.25,5.27-7.8,1.36-10.41Z"/><path class="cls-2" d="M545,540a219.68,219.68,0,0,0-9.69,31.34c-2.2,9.31-3.9,19.3-2.55,28.85.11.81,1.46.61,1.42-.2a100.17,100.17,0,0,1,3.7-30.84c2.61-9.63,6.08-19.11,8.13-28.87a.52.52,0,0,0-1-.28Z"/><path class="cls-2" d="M285.57,480.85c-5.46,12.25-8.3,26-12.2,38.84-4.2,13.78-8.57,27.51-13.21,41.15q-13.77,40.47-29.6,80.21c-1.34,3.36,4.11,4.83,5.42,1.5q15.69-39.76,28.92-80.4,6.54-20.08,12.64-40.32c3.91-13.06,8.95-26.72,10.52-40.3a1.35,1.35,0,0,0-2.49-.68Z"/><path class="cls-2" d="M540.59,666.88a40.32,40.32,0,0,1-20.07,14.9c-9.9,3.34-20.1-.36-29.32-4.06-1.08-.43-1.55,1.31-.48,1.74,10.13,4.06,21.08,7.69,31.77,3.5a42.62,42.62,0,0,0,19.65-15.17c.68-.94-.88-1.84-1.55-.91Z"/><path class="cls-2" d="M208.62,645c5.17.25,10.14-.68,15.26-1.18,5.78-.56,11.64.13,17.42.54,11.47.83,22.93,1.9,34.39,2.88,22.76,2,45.86,3.86,68.7,2.16,22.05-1.65,44.19-2.47,66.26-3.69a33.42,33.42,0,0,1,8.05.38c2.38.44,4.78,1.92,7.06,2.26,3.56.53,8.33-1.64,11.9-2.32a162.79,162.79,0,0,1,33.63-2.83,176.1,176.1,0,0,1,37.44,4.62c10.71,2.55,20.62,7,30.58,11.52,1.74.79,3.27-1.79,1.51-2.59-3.77-1.7-7.4-3.69-11.2-5.32-4.51-1.94-9.32-3-14-4.59-9.68-3.41-20.22-4.85-30.4-5.83a172,172,0,0,0-33.42,0q-7.55.74-15,2.16c-2.4.47-4.78,1.11-7.18,1.57-3,.57-4.2.09-7.06-.76-9.8-2.89-20.81-.53-30.83,0-11.41.57-22.83.94-34.23,1.59a520.16,520.16,0,0,1-70.07-.29c-13.12-1-26.21-2.28-39.31-3.32-6.81-.54-13.77-1.4-20.6-1.31-6.38.08-12.55,1.74-19,1.42-1.93-.1-1.93,2.9,0,3Z"/><path class="cls-2" d="M516.24,684.67c1.63,1.6,1.72,4.52-.74,5.2a9.15,9.15,0,0,1-3,0c-3.67-.29-7.34-.74-11-1.27-5.92-.86-11.73-2.12-17.57-3.37a.89.89,0,0,0-.47,1.72A158.08,158.08,0,0,0,501,690.45c4.63.69,10,2,14.62,1.38,5.51-.72,5.85-5.51,1.42-8.23a.68.68,0,0,0-.82,1.07Z"/><path class="cls-2" d="M514.66,690.68q1.15,4.41-1.76,4.88a8,8,0,0,1-1.93.34,36.19,36.19,0,0,1-4.53.33c-3.05.08-6.11,0-9.16-.21-6.6-.46-12.86-1.89-19.3-3.3a.86.86,0,0,0-.45,1.65,75.25,75.25,0,0,0,33.69,3.34c2.42-.36,5.66-1.11,6.62-3.7.88-2.37-.55-3.87-2.67-4.55a.67.67,0,0,0-.51,1.22Z"/><path class="cls-2" d="M487.09,696.24c6.83,6.75,16.93,7.8,26.09,8.07,2.52.08,5,.05,7.55,0,2.33,0,8.16-1.27,3.58,2.35-5.44,4.3-14.75,5-21.36,4.68-28.18-1.16-50.79-22.88-79.18-23.42a1.16,1.16,0,0,0,0,2.32c22.34.44,40.73,14.13,61.62,20.06,8.59,2.44,17.82,3.79,26.72,2.45,4.65-.7,17-3,16-9.68a1,1,0,0,0-.95-.73c-13.14-.54-28.24,1.5-39.36-7.07-.57-.43-1.24.5-.75,1Z"/><path class="cls-2" d="M268.86,707.85c-16.12-.27-32.22,1.54-48.34.42a96.4,96.4,0,0,1-23.58-4.37c-6.78-2.24-14.09-7.28-21.44-6.45-2.11.24-2.78,3.19-.52,3.87,4,1.19,7.83,2,11.69,3.56a118.06,118.06,0,0,0,11.56,4.19,104,104,0,0,0,21.4,3.47c16.35,1.11,32.93-.22,49.23-1.55a1.57,1.57,0,0,0,0-3.14Z"/><path class="cls-2" d="M309.8,401.52l-.09,0a.59.59,0,0,0-.72.72c1.85,6.27,9.15,10.38,13.63,14.55,10.06,9.37,20.94,18.24,33.24,24.53s26.39,9.49,40.17,6.09a43.62,43.62,0,0,0,29.27-23.76c7-15.24,3.39-32.62-4.65-46.67a1.42,1.42,0,0,0-2.45,1.43c9.77,16.68,12.32,37.87-.94,53.5-11.16,13.17-29.51,17.24-45.85,13.11-17.15-4.33-32.25-15.79-45.13-27.48-3.35-3-6.56-6.39-10.21-9.06-2.39-1.75-4.78-3.85-6-6.69l-.67.87h.09a.59.59,0,0,0,.31-1.13Z"/><path class="cls-2" d="M248,597.4l1.84,1,1.16-1.51c-20.13-7.25-41.54-18.4-63.2-10.33-1.17.43-1.12,2.43.32,2.34A114.5,114.5,0,0,1,243.41,599l1-2.24a391.42,391.42,0,0,0-49.3-13.59l-.34,2.49a152.46,152.46,0,0,1,55.2,15.51l1-2.4c-19.19-5.56-37.52-15.84-58-14.94a1.31,1.31,0,0,0,0,2.61,236.27,236.27,0,0,1,26.25,5c7.79,2,15.3,4.89,23.06,6.85a1.3,1.3,0,0,0,.69-2.51c-8.37-2.11-16.45-5.26-24.87-7.3a243.54,243.54,0,0,0-25.13-4.64v2.61c20.25-.88,38.39,9.36,57.34,14.86,1.39.41,2.36-1.72,1-2.4a155.58,155.58,0,0,0-56.53-15.77,1.27,1.27,0,0,0-.33,2.49,389.52,389.52,0,0,1,49.31,13.5c1.3.45,2.22-1.66,1-2.24a116.8,116.8,0,0,0-56.54-10.32l.31,2.33c21.15-7.92,42.27,3.15,62,10,1.08.37,1.57-1,1-1.73a2.85,2.85,0,0,0-3.64-1.12c-.73.22-.63,1.46.18,1.38Z"/><path class="cls-2" d="M261.15,554.11c-11.43-5.07-24-7.54-36.38-8.66-1.41-.12-1.75,2.25-.34,2.49,12.45,2.13,24.87,4.4,36.66,9.1,1.37.54,2.34-1.76,1-2.4a104.81,104.81,0,0,0-38.36-10.21c-1.46-.11-1.82,2.33-.35,2.57,12,2,24,4.11,35.07,9.22a1.31,1.31,0,0,0,1.32-2.26,22.75,22.75,0,0,0-9.95-3.82c-1.48-.2-2.17,2-.63,2.31a24.93,24.93,0,0,1,9.26,3.77l1.32-2.26c-11.32-5.22-23.47-7.45-35.7-9.49l-.34,2.58a101.54,101.54,0,0,1,37,9.85l1-2.4c-11.78-4.69-24.23-6.9-36.68-9l-.33,2.48c12.33,1.08,23.9,4.16,35.67,7.82,1,.3,1.69-1.26.71-1.69Z"/><path class="cls-2" d="M266.3,542.09l0,.11.28-.48a1.84,1.84,0,0,0-.45.68c0,.12-.05.24-.08.36l-.17.82a1.52,1.52,0,1,0,2.94,0l-.18-.82c0-.12,0-.24-.07-.36a2,2,0,0,0-.45-.68l.28.48,0-.11a1.06,1.06,0,0,0-2,0Z"/><path class="cls-2" d="M264.37,553A90.37,90.37,0,0,0,267,577.14c2,7.62,5.59,14.76,6.77,22.59,1.13,7.54,1.51,17.13-.75,24.47-2,6.34-7.51,10.48-9.3,17-.76,2.8,3.62,4,4.34,1.2,1.67-6.44,7.19-10.69,9.05-17.07,2.1-7.18,1.7-16,1-23.32-.74-7.67-3.72-14.52-6.07-21.78A89.4,89.4,0,0,1,267.93,553a1.78,1.78,0,0,0-3.56,0Z"/><path class="cls-2" d="M310,410.5l-.09,0c-.44-.16-.83.32-.73.73,1.69,6.52,9.83,11.1,14.38,15.34,10.68,9.93,22.15,19.36,35.15,26.11s27.84,10.41,42.53,7.12a46.78,46.78,0,0,0,32-24.83c8-16.43,4.15-35.46-4.61-50.74a1.42,1.42,0,0,0-2.45,1.44c7.84,13.35,12,29.83,6.41,44.84-5.17,14-17.64,23.87-32,27.12-28.3,6.4-54.9-13.24-74.49-31.3a116.1,116.1,0,0,0-9.73-8.56,22.73,22.73,0,0,1-2.11-1.48,21.28,21.28,0,0,1-2.53-3.21,5.84,5.84,0,0,0-.71-1c-1.15-1,.28,0-1.38-.44a.59.59,0,0,0,.31-1.13Z"/><path class="cls-2" d="M210.47,582.67l-1.23-2.4a3.71,3.71,0,0,0-5.77-.74,6.93,6.93,0,0,0-1.75,6.65c.55,3,4.39,3.4,6.35,1.67a58.89,58.89,0,0,0,12-15.1l-7.61-4.45c-1.49,3.11-3,6.2-4.5,9.3a4.52,4.52,0,0,0,7.8,4.56,79.78,79.78,0,0,0,8.16-15l-9-2.49a54.63,54.63,0,0,1-4.71,12l8.08,4.72q5.27-11.94,11.58-23.36l-8.5-3.58-8.85,22.65,8.94,2.47c2.32-8.94,4.76-18.12,11.82-24.54l-7.69-4.48a86.37,86.37,0,0,1-8.75,23.94l8.24,3.48a61.06,61.06,0,0,1,11-19.79l-7.3-4.25a91.55,91.55,0,0,1-8.52,21.77l7.93,3.34a67.3,67.3,0,0,1,11.24-21.66l-7.35-3a35.14,35.14,0,0,1-5.58,20.12l7.82,3.29a92.9,92.9,0,0,1,8-19.86l-6.68.86c1,1.18-2,9.11-2.39,10.33A90.34,90.34,0,0,1,229,580.4l7.72,3.26a106.35,106.35,0,0,1,4.43-13.11c.85-2,1.78-4.06,2.77-6,.54-1.07,1.1-2.13,1.67-3.19,1.46-1.46,1.18-2.06-.82-1.79L242.81,557c.32,1.23-1.24,4.48-1.62,5.73q-.85,2.81-1.74,5.59c-1.38,4.34-2.83,8.65-4.3,13s5.6,7.51,7.6,3.2a169.14,169.14,0,0,1,12.6-22.79h-6.83c1.4,2-3.05,10.11-3.84,12.25l-4.93,13.44c-1.62,4.39,5.65,7.52,7.62,3.22l12.72-27.79-7.78-3.28a90.48,90.48,0,0,1-9.07,28.6l7.23,4.22a185.28,185.28,0,0,0,10-28.09l-8-2.2a56.21,56.21,0,0,1-3.77,13.09c-1.37,3.14-3.12,7.66-5.67,10-.55,1.51-1,1.73-1.29.67-1.11-.46-2.23-.89-3.37-1.28-1.7-.57-3.44-1.07-5.19-1.47a63.9,63.9,0,0,0-13.78-1.55c-5.42,0-6.95,8.77-1.32,9.74,6.13,1.06,12.29,1.94,18.44,2.88l1.34-9.85a16.48,16.48,0,0,1-11.43-3.48l-2.21,8.38a35,35,0,0,1,8.36-.67,30.76,30.76,0,0,1,4,.42,16.8,16.8,0,0,1,1.74.37q1.5.3.45.15l-1.47-3.55-.11.92,1.47-3.56c1.17-1-2.47-.75-3.34-.89-2-.33-4-.77-6-1.29a61.07,61.07,0,0,1-11-4.07l-3.89,9.24,8.4,2.76,1.35-9.94c-1.56-.1-5.45-.12-6.61-1.51l1.49,3.58c0-.44,4.08-3.67,4.76-4.22a36.24,36.24,0,0,1,22.37-8c5.54-.12,7.08-8.65,1.34-9.95a25.53,25.53,0,0,1-12.67-6.83l-3.62,8.74A33.09,33.09,0,0,1,250,564.13l4-9.45a63.19,63.19,0,0,1-14.87-5.57l-1.24,9.49a14.91,14.91,0,0,1,12.4,3.52l5.05-8.68A72.94,72.94,0,0,1,243,549.65l-1.38,10.17a14.87,14.87,0,0,1,10.07,3.32c5.32,4,10.45-5,5.2-8.91a24,24,0,0,0-15.27-4.76c-6.19.15-6.57,8-1.38,10.16a72.41,72.41,0,0,0,12.36,3.82c4.7,1,9.21-5,5.05-8.68a26,26,0,0,0-22.5-6.18c-4.4.78-5,7.5-1.24,9.48a74.54,74.54,0,0,0,17.36,6.58c5.48,1.32,9.41-6.71,4-9.44a42.33,42.33,0,0,0-24-4.58c-4.14.45-7.08,5.4-3.62,8.74a35.88,35.88,0,0,0,17.22,9.36l1.35-10a47.32,47.32,0,0,0-30.72,12c-3.4,3.05-8.51,7.88-5.85,12.92,2.45,4.63,10,5.22,14.56,5.49,5.91.35,6.57-8.23,1.34-9.94l-8.4-2.74c-5.37-1.76-9.11,6.74-3.9,9.23a72.78,72.78,0,0,0,17.67,6c4.59.88,12,2.79,15.23-1.91s-.57-9-5.17-10.25c-6.33-1.68-13-1.36-19.39-.1-3.49.69-5.1,6.07-2.21,8.38a27.06,27.06,0,0,0,18.52,6.42c5.35-.2,7.17-8.95,1.33-9.85-6.59-1-13.18-2.06-19.79-3v9.92A52.91,52.91,0,0,1,237.62,594c4.32,1.41,7.79,2,11.08-1.71,6.62-7.38,10.17-18.4,11.72-28,.83-5.13-6.55-7.44-8-2.2a170.65,170.65,0,0,1-9.22,26.07c-2.17,4.81,4.68,9.08,7.23,4.22a94,94,0,0,0,10-30.55c.61-4.27-5.6-8.12-7.78-3.28L240.17,586.4l7.62,3.22,6.63-18.89c1.47-4.18,3.83-8.94.93-13a4,4,0,0,0-6.83,0,213.2,213.2,0,0,0-13,22.6l7.6,3.2c2.6-7.34,5.15-14.76,7.23-22.27,1.13-4.11,1.2-10.12-4.72-10-5.45.09-7.89,6.58-9.85,10.65a115.26,115.26,0,0,0-7.29,19.53c-1.23,4.47,5.69,7.73,7.73,3.26a102.07,102.07,0,0,0,6.3-17.64c1.27-5.14,2.62-9.94-.95-14.35-1.72-2.12-5.47-1.35-6.68.86A103.6,103.6,0,0,0,226,575.43c-1.32,4.75,5.25,7.35,7.82,3.3a43.47,43.47,0,0,0,6.8-24.44c-.07-3.37-4.91-6.14-7.35-3a78.87,78.87,0,0,0-13.51,25.43c-1.47,4.68,5.56,7.66,7.92,3.34a104.62,104.62,0,0,0,9.45-23.82c1.06-4-4.35-7.69-7.3-4.25a72.59,72.59,0,0,0-13.57,23.57c-1.7,4.86,5.78,7.88,8.25,3.47a91.73,91.73,0,0,0,9.84-26,4.64,4.64,0,0,0-7.7-4.48c-8.25,7.47-11.51,18.14-14.25,28.58-1.54,5.9,6.8,7.9,8.94,2.47l8.88-22.65c1.94-5-6-8.12-8.5-3.59q-6.34,11.41-11.63,23.34c-2.37,5.37,5.16,10.13,8.08,4.72a66.36,66.36,0,0,0,5.67-14.18c1.61-6-6.83-7.93-9-2.49a72.69,72.69,0,0,1-6.92,12.93l7.8,4.56q2.14-4.71,4.31-9.41c2.35-5.11-5.2-9.6-7.61-4.45a55.92,55.92,0,0,1-9.72,14.18l6.36,1.68.19-.18H202.9l1.42,2.28c2.43,3.92,8.25.48,6.15-3.59Z"/><path class="cls-2" d="M259,563.19a9.71,9.71,0,0,0,2.3-1.15c3.78-2.56.43-8.51-3.62-6.19-6.65,3.83-9.61,11.46-11.62,18.56a103.2,103.2,0,0,0-2.56,11.92c-.56,3.59-1.77,7.78-.52,11.26,1.07,3,5.18,3.85,6.94.91s1.51-6.23,1.89-9.49a72.92,72.92,0,0,1,1.75-10.18c1.81-6.9,5.71-12,9-18.07L255.94,559a10.66,10.66,0,0,0,.26,2.64,2.32,2.32,0,0,0,2.83,1.6Z"/><path class="cls-2" d="M571.74,637.47a10.71,10.71,0,0,0,1.45-1.75l-8.55-1.11c6.51,34.62,5.16,69.26-6.85,102.59l9.87,2.72a238.79,238.79,0,0,0,4.67-102.62c-1.08-6.36-10.74-3.66-9.67,2.66a227.25,227.25,0,0,1-4.87,97.24c-1.75,6.44,7.66,8.84,9.87,2.72,12.3-34,15.47-72.69,6-107.8-1.09-4-6.4-4.41-8.55-1.12l-.38.6c-2.13,3.25.78,6.61,4,7a3.92,3.92,0,0,0,3-1.12Z"/><path class="cls-2" d="M484.69,711.55c-5.1,3.51-9.06,9-13.34,13.42-4.49,4.66-8.82,9.46-13.35,14.08l10,10c8.36-9,16.77-18.34,21.63-29.79,3.57-8.38-7.43-15.5-12.55-7.33a100.57,100.57,0,0,1-28.52,29.91c-7.73,5.27-.42,17.95,7.38,12.62a115,115,0,0,0,33.69-35.2l-13.28-5.6c-4,9.74-11.37,17.7-18.33,25.4-6.07,6.71,3.65,16.59,10,10,4.69-4.9,9.38-9.82,13.64-15.1,4-5,8.83-10.1,11.33-16,1.89-4.51-4.44-9-8.26-6.36Z"/><path class="cls-2" d="M340.48,704.72l2,10.44c.47,2.43,4.15,1.4,3.71-1l-1.91-10.47c-.45-2.48-4.27-1.44-3.8,1.05Z"/><path class="cls-2" d="M342.11,715.49c-.14,2-.27,4.07-.41,6.1s-.68,4,0,5.9a2.56,2.56,0,0,0,4.88,0c.7-1.84.17-4,0-5.9s-.27-4.07-.41-6.1a2.06,2.06,0,0,0-4.12,0Z"/><path class="cls-2" d="M344.59,694.65c-.15,11.67.08,23.31.76,35,.2,3.45,5.41,3.51,5.42,0l.05-21.06c0-3.38,1.54-10.6-1.94-12.81a3.17,3.17,0,0,0-4.27,1.12,5.74,5.74,0,0,0-.74,2.68c-.36,3.6,5.51,4.35,6.3.85.34-1.55.69-3.1,1-4.67l-6.92-.93q.92,26.65,1.1,53.35c0,4.76,7.39,4.77,7.41,0,.05-17.82-.43-35.57-1.47-53.35-.26-4.59-6.61-4.48-7,0-.16,1.58-.27,3.16-.38,4.75h6.41L350,700l-4.27,1.12c-1.83-.81-.86,4.26-.84,5.51l.16,7.65.3,15.32h5.42q-1.39-17.45-2-35c-.09-2.71-4.19-2.72-4.22,0Z"/><path class="cls-2" d="M340.14,694.88c-.4,12.58-.51,25.16-.93,37.73-.16,4.44,6.32,4.24,6.77,0,.75-7.11,1.29-14.24,1.89-21.37h-7l-1.2,30.9c-.18,4.58,7,4.58,7.12,0l1.08-30.9c.16-4.55-6.64-4.44-7,0-.58,7.12-1.23,14.24-1.66,21.37H346c-.13-12.6-.4-25.17-1.43-37.73-.23-2.8-4.31-2.87-4.41,0Z"/><path class="cls-2" d="M540,659.53l-.86,1.26,1.69.71.29-.52-1.47-.85c-.61,4.59-9.56,5.09-12.77,4.9a44.89,44.89,0,0,1-11.64-2.7c-6.4-2.18-12.58-4.52-19.43-4.39a1.18,1.18,0,0,0-.59,2.17c7.29,4.69,16.35,13,25.55,13.07,4,0,11.89-2.6,12.46-7.27.2-1.67-2.44-1.67-2.63,0s-3.8,3-5.11,3.62c-4.34,2-8.56,1-12.65-1.1-5.71-2.95-11-6.87-16.45-10.33l-.58,2.17c10.39-.23,19.31,5.76,29.47,6.84,5,.54,15.82-.22,16.33-7a1,1,0,0,0-1.48-.84c-.8.6-.94.7-1.09,1.72s1.13,1.69,1.7.71l.76-1.32c.56-1-.88-1.78-1.5-.87Z"/><path class="cls-2" d="M540.13,658.93V659c-.29,2,2.77.78,1.5-.4l0-.05c-.43-.4-1.35-.31-1.44.38Z"/><path class="cls-2" d="M540.51,669.2a13.84,13.84,0,0,0,2.53-4.78.34.34,0,0,0-.61-.26q-2.61,4.14-5.2,8.3c-.23.36.33.81.61.47a26.75,26.75,0,0,0,5-8.87c.14-.44-.57-.76-.77-.32a39.79,39.79,0,0,1-4.65,7.68c-.32.41.35.86.7.54,3.91-3.58,6.33-8.23,5.72-13.61a.57.57,0,0,0-.7-.54,18.68,18.68,0,0,1-4.76.68l.17,1.25c1.87-.56,5.53-1.91,5.07,2.33-.11,1.07-1.47,2.7-2,3.6a67.39,67.39,0,0,1-5.7,7.56c-.49.58.3,1.42.85.85a44.65,44.65,0,0,0,5.14-6.42c1.23-1.83,3.15-4.28,3.48-6.55.6-4.14-4.74-3.33-7.14-2.6-.67.21-.58,1.29.16,1.25a20.65,20.65,0,0,0,5-.88l-.7-.53c.68,5.14-1.52,9.53-5.24,13l.7.54a39.79,39.79,0,0,0,4.6-7.71l-.76-.32a25.59,25.59,0,0,1-4.73,8.54l.62.47L543,664.5l-.61-.26a13.21,13.21,0,0,1-2.35,4.6c-.2.26.26.62.47.36Z"/><path class="cls-2" d="M472.85,337.19a13.21,13.21,0,0,1-4.32-5.21c-.2-.43-.81-.06-.63.36a24.22,24.22,0,0,0,8.82,10.71c.35.24.8-.33.46-.6-4.13-3.32-9.22-7.45-9-13.34s4.92-7.33,9.89-5.59a8.1,8.1,0,0,0,2.53.88c2.38.05,1.95-1,3.31-2.24,8.71-7.83,6.21-1.72,12.28-.25a3.72,3.72,0,0,0,3.81-.82c2.42-2.29,3.53-5,7.72-4,3.15.72,5,3.3,6.06,6.12,1.42,3.77.47,8,2.06,11.66,1.76,4.07,4.39,6.55,4.71,11.35,0,.88,1.42.88,1.36,0a17.81,17.81,0,0,0-2-7.53c-.64-1.17-1.57-2.13-2.23-3.27-1.48-2.58-1.19-5.24-1.54-8.06-.55-4.35-2.35-9.25-6.75-11-3.49-1.41-6.31-.38-8.91,1.94a5.41,5.41,0,0,0-.85,1.4q-4.33,1.42-7-1.33c-.93-.45-1.4-1.14-2.47-1.48a5.47,5.47,0,0,0-4.3.41,5.69,5.69,0,0,0-2,1.83c.2-.31-1.27,3-.91,2.69-2.67,2.28-5.48-.32-8.12-.5-3.75-.25-6.85,3-7.43,6.46-.84,5,2.72,10.4,6.68,13.17,3.34,2.33-.32-1.13-1-1.88-.12-.13-3.83-5.62-3.88-5.62-1.53.11,2.67,3.82,3.39,4.33.33.23.63-.3.31-.53Z"/><path class="cls-2" d="M505.87,293.89c5.11,2.15,9.22,5.63,10.75,11.12a.9.9,0,0,0,1.74-.48c-1.72-6.15-6.29-10-12-12.37-1.06-.45-1.53,1.29-.48,1.73Z"/><path class="cls-2" d="M475.19,312.35c2.09-5.84,2.41-12.54,5.54-18,5.48-9.5,17.41-5.75,24.09.08.87.76,2.15-.51,1.27-1.27-5.75-5-16.08-9.55-23.26-4.3-6.75,4.93-6.82,15.82-9.38,23-.39,1.09,1.35,1.56,1.74.48Z"/><path class="cls-2" d="M482.4,320.53a13.56,13.56,0,0,1-6.94-8.18c-.36-1.09-2.1-.62-1.74.48a15.37,15.37,0,0,0,7.77,9.25c1,.51,1.95-1,.91-1.55Z"/><path class="cls-2" d="M464.31,332.82c-.62,3.15.95,5.37,2.08,8.17.34.85,1.74.47,1.38-.38-1-2.54-2.68-4.76-2.33-7.64.08-.64-1-.79-1.13-.15Z"/><path class="cls-2" d="M464,333.79c.39,4.92,1.61,8.25,5.41,11.52s7.8,5.3,11.86,7.93c.8.52,1.6-.62,1-1.28-2.58-2.79-6.66-4-9.65-6.42A24.22,24.22,0,0,1,468,341.3c-1.69-2.23-2.26-5-2.76-7.68a.65.65,0,0,0-1.27.17Z"/><path class="cls-2" d="M524,305.9c-5.15-5-12-.5-17.09,2.12-4.81,2.47-10.5,6.62-9.19,12.65.32,1.46,2.57.84,2.25-.62-1.32-6.09,6.6-8.93,10.63-11,1.79-.92,3.52-2.39,5.48-2.93,2.57-.7,4.82.19,7.19,1a.75.75,0,0,0,.73-1.24Z"/><path class="cls-2" d="M513.38,641.6V641a.7.7,0,0,0-.69-.69c-.78,0-1.18.42-1.71.94-.87.86-1.68,1.79-2.49,2.71s.44,2.08,1.26,1.26a8.52,8.52,0,0,0,2.11-3.52.91.91,0,0,0-1.51-.88l-3.21,3.37,1.51,1.17a21.86,21.86,0,0,0,2.39-4.57c.41-1.19-1.24-1.65-1.89-.79l-3.33,4.47,1.77,1c1.09-1.77,2.18-3.53,3.29-5.29.61-1-.85-2.15-1.62-1.25-1.45,1.69-3,3.34-4.34,5.09-.81,1,.55,2.52,1.49,1.49,1.5-1.64,2.88-3.41,4.31-5.12l-1.63-1.25q-1.62,2.65-3.27,5.29c-.71,1.15,1,2.07,1.77,1l3.34-4.47-1.88-.8A19.58,19.58,0,0,1,507,644.4c-.56.92.77,2,1.51,1.17l3.12-3.46-1.51-.88A6.28,6.28,0,0,1,508.5,644l1.26,1.26c.51-.6,1-1.21,1.52-1.82.27-.34,1.06-1.7,1.42-1.71L512,641l.06.59a.66.66,0,0,0,1.31,0Z"/><path class="cls-2" d="M520.74,644a11.41,11.41,0,0,1-2,4.13l1.61.94c.84-1.64,1.71-3.27,2.51-4.93l-2-.83a11.09,11.09,0,0,1-.71,2.47,11.15,11.15,0,0,0-1.06,2.24,1,1,0,0,0,1.39,1.07c1.52-.93,2.16-3.57,2.44-5.21.19-1.09-1.39-2-2-.82-.8,1.67-1.53,3.38-2.28,5.07a.93.93,0,0,0,1.61.94,8.71,8.71,0,0,0,1.55-4.91.59.59,0,0,0-1.16-.16Z"/><path class="cls-2" d="M494.11,714.12c.21-.37.41-.74.61-1.11a.72.72,0,0,0-1.24-.72c-.52.9-1,1.84-1.47,2.76a.85.85,0,0,0,1.47.86c.46-.63.87-1.3,1.3-1.95l-1.6-.94a33.69,33.69,0,0,1-1.83,3.4l1.64,1a20.59,20.59,0,0,1,2.46-4.17l-1.64-1c-.87,2-1.64,4-2.48,6l1.49.63c.81-1.87,1.69-3.71,2.66-5.5l-1.66-.7a15.67,15.67,0,0,1-2.75,4.83l1.58.92c.49-1.61,1.46-3.17,1.5-4.89,0-1.4-.74-1.4-1.86-1.48l.95.72,0-.15-.1.77c.74-1.26.21-1.94-1-2.65a1.09,1.09,0,0,0-1.1,1.89,12.61,12.61,0,0,0,2.13.93l.59-2.14c-1.12-.26-2.18-.65-3.27-.19a1.16,1.16,0,0,0-.41,1.58c.58,1,1.9,1.35,3,1.71a1.1,1.1,0,0,0,.84-2,20.29,20.29,0,0,1-2.75-1.75l-.59,2.2a10.36,10.36,0,0,1,1.74.37,1.19,1.19,0,0,0,.91-2.16,4.8,4.8,0,0,0-2.43-.84,1.27,1.27,0,0,0-1.09.63c-.92,1.93,1.35,2.32,2.69,2.75v-2.41l-.23.09a1.25,1.25,0,1,0,1,2.29l.22-.1c1-.45.65-2-.3-2.28a8.62,8.62,0,0,1-1.63-.53l.58.75V712l-1.21.92a4,4,0,0,1,1.52.48l.62-2.28a21.33,21.33,0,0,0-2.36-.45c-1.27-.16-1.46,1.62-.6,2.2a20.29,20.29,0,0,0,2.84,1.6l.84-2c-.42-.15-1.36-.36-1.57-.76l-.68,1.69c.41-.16,1.35.16,1.79.22,1.36.18,2-1.8.59-2.14a5.93,5.93,0,0,1-1.62-.68l-1.1,1.89a4.52,4.52,0,0,1,1,.52l-.46-.6.07.18.1-.76c-.28.5-.52.7-.36,1.33a1,1,0,0,0,1,.73c.25,0,.54-.09.79-.06l-.85-.49c0-.29-.05-.24-.06.15a2.88,2.88,0,0,1-.12.77,10.1,10.1,0,0,1-.36,1.1c-.29.8-.62,1.59-.86,2.41s1,1.68,1.58.93a18,18,0,0,0,3.16-5.69.91.91,0,0,0-1.66-.7,50.78,50.78,0,0,0-2.58,5.79c-.33.86,1.11,1.48,1.49.63.86-1.9,1.79-3.78,2.63-5.71a1,1,0,0,0-1.64-1,20.71,20.71,0,0,0-2.46,4.16,1,1,0,0,0,1.64,1,24.72,24.72,0,0,0,1.79-3.42.93.93,0,0,0-1.6-.94c-.41.67-.83,1.33-1.17,2l1.56.66a25.75,25.75,0,0,1,1.15-2.7l-1.31-.55c-.14.39-.28.79-.41,1.19-.23.65.78,1.06,1.11.47Z"/><path class="cls-2" d="M480.08,709.24l.21-.21a.73.73,0,1,0-1-1,16.77,16.77,0,0,0-1.59,2.5l1.66.7a7.52,7.52,0,0,1,1.13-1.88l-1.57-1.21-1.4,2.47a1.06,1.06,0,0,0,1.82,1.07,10.81,10.81,0,0,1,1.38-2.11l-1,.28.16,0-.76-1.33a4.51,4.51,0,0,1-.5,1.15c-.48,1,.85,2.3,1.69,1.3a9.2,9.2,0,0,0,1.31-2l-1.84-1.07a11.59,11.59,0,0,1-1.56,2.82l1.71,1a2.63,2.63,0,0,1,.45-.82l-.8.11.14.05-.62-.48.06.14-.1-.8c-.39,1.54-1.54,2.81-2,4.32a.91.91,0,0,0,1.51.88,12.24,12.24,0,0,0,1.73-2.89c.36-.73,1.07-1.72.65-2.56-1-2-2.65.5-3,1.51a1,1,0,0,0,1.71,1,13.19,13.19,0,0,0,1.95-3.19c.56-1.23-1.24-2.32-1.84-1.07a7.42,7.42,0,0,1-1,1.55l1.69,1.3a6,6,0,0,0,.72-1.65,1.1,1.1,0,0,0-.75-1.33c-1.53-.32-2.25,1.75-2.88,2.81l1.82,1.07,1.3-2.53a1,1,0,0,0-1.72-1,8,8,0,0,0-1.31,2.61c-.35,1.15,1.33,1.54,1.75.48a19.33,19.33,0,0,1,1.21-2.46l-1.17.15.12.13-.14-.52-.07.26c-.12.44.47.82.78.46Z"/><path class="cls-2" d="M494.3,712.2c.84,2.42-3.89,7.81-5.31,9.49-2.21,2.61-4.93,4.81-7,7.49-.62.79.19,2.26,1.19,1.55,2.34-1.67,17.57-16.75,12-19.19-.42-.19-1,.13-.86.66Z"/><path class="cls-2" d="M478.76,707.33c-3.32,4.39-5.63,11.13-6.34,16.55-.13,1,1.34,1,1.66.23,1-2.7,1.67-5.55,2.65-8.28a84.61,84.61,0,0,0,2.91-8.13.48.48,0,0,0-.88-.37Z"/><path class="cls-2" d="M372.35,356.63c2.3,5.22,5.1,7.92,9.82,10.95,5.41,3.49,9.32,8.48,14.07,12.73a.73.73,0,0,0,1-1A69.92,69.92,0,0,0,386.4,368c-1.8-1.42-3.78-2.54-5.69-3.81-3.38-2.26-5.11-4.84-7.41-8.13a.55.55,0,0,0-.95.56Z"/><path class="cls-2" d="M400.72,379.48a3.22,3.22,0,0,0-1.29.35,2.57,2.57,0,0,0-.63.5,2.79,2.79,0,0,0-.68,2.58,2.86,2.86,0,0,0,1.29,1.7,3.07,3.07,0,0,0,2.28.3L401,385h.05l.67-.09a1.89,1.89,0,0,0,.85-.45,2.59,2.59,0,0,0,.9-1.3,3.21,3.21,0,0,0-.22-2.61,4.15,4.15,0,0,0-.64-.81,3,3,0,0,0-2.86-.8,3.92,3.92,0,0,0-1.71,1,3.61,3.61,0,0,0-1,3.71,3.33,3.33,0,0,0,.8,1.43,2.87,2.87,0,0,0,2.42.78A2.8,2.8,0,0,0,402,385a2.83,2.83,0,0,0-1.18-4.73,2.51,2.51,0,0,0-1.95.26l-.51.39a2.51,2.51,0,0,0-.66,1.12v0l.66-1.14,0,0,.53-.41,0,0,.64-.27,0,0,.72-.1-.92.13h1.43l.67.29-.05,0,1.29,1.68v-.07l.1.75a.76.76,0,0,1,0-.26l-.11.76a2,2,0,0,1,.08-.26l-.29.69c.14-.29.25-.58.36-.88l-.29.69a1.49,1.49,0,0,1,.14-.24l-.46.59a1.8,1.8,0,0,1,.19-.2l-.58.46a.88.88,0,0,1,.23-.14l-.69.29.07,0-2.21-.29.07.06-.58-.45a2.83,2.83,0,0,1,.25.24,3.92,3.92,0,0,0,1.38.77l-.65-.28a1.23,1.23,0,0,1,.25.14l-1.16-2.84v.05l.63-1.09,0,0,.49-.38-.05,0,.58-.24h-.06l.64-.08a.56.56,0,0,1-.13,0l.65.09a.28.28,0,0,1-.13,0l.57.25a.41.41,0,0,1-.11-.07l.48.38a.28.28,0,0,1-.09-.1l.37.48,0-.06.23.57,0-.13.09.62a.56.56,0,0,1,0-.13l-.08.62a.56.56,0,0,1,0-.12l-.23.55,0-.06-.36.46a.38.38,0,0,1,.09-.09l-.46.35.11-.06.45-.35a1.7,1.7,0,0,0,.47-.72,2.13,2.13,0,0,0,.11-1.47,2.54,2.54,0,0,0-.58-1,2.17,2.17,0,0,0-1.59-.66Z"/><path class="cls-2" d="M404,378.29a1.31,1.31,0,0,0-.15-.37c-.05-.13-.1-.25-.16-.37l.29.7a.29.29,0,0,1,0-.09l.1.76v-.09a2.82,2.82,0,0,0-.38-1.42,2.06,2.06,0,0,0-.73-.79,2.15,2.15,0,0,0-.95-.51,2.93,2.93,0,0,0-1.5,0,3.27,3.27,0,0,0-1.36.79,3.14,3.14,0,0,0-.82,1.39,2.9,2.9,0,0,0,.75,2.87l.6.46a2.91,2.91,0,0,0,1.49.41,2.21,2.21,0,0,0,1.13-.26,2.14,2.14,0,0,0,1-.61,3,3,0,0,0,.76-2.87Z"/><path class="cls-2" d="M395.14,372.69a3.53,3.53,0,0,0-1.67.47,2.83,2.83,0,0,0-1,1,4.6,4.6,0,0,0-.31.72,4.88,4.88,0,0,0-.14.92,2.18,2.18,0,0,0,.24,1.07,2.12,2.12,0,0,0,.58.9l.56.43a2.12,2.12,0,0,0,1,.33,1.33,1.33,0,0,0,.74,0,2.12,2.12,0,0,0,1-.33l.56-.43a2.75,2.75,0,0,0,.72-1.23v0l-.28.67a1,1,0,0,1,.08-.14l-.44.57,0-.05.44-.56.28-.69a.56.56,0,0,0,0-.12l-.27.66a1.09,1.09,0,0,1,.08-.15l-.42.55,0,0,.42-.55.27-.63.1-.71a2,2,0,0,0-.24-1,1.21,1.21,0,0,0-.34-.59,1.38,1.38,0,0,0-.48-.48,1.31,1.31,0,0,0-.59-.35,2.13,2.13,0,0,0-1-.23Z"/><path class="cls-2" d="M396.55,381.24h0l-.57-.44h0l-.44-.57h0l-.28-.67h0l-.1-.75h0l.1-.74h0l.28-.67v0l.43-.56h0l-.43.55a2.12,2.12,0,0,0-.33,1,1.5,1.5,0,0,0,0,.73,2.05,2.05,0,0,0,.33,1h0c.06.1.27.36.22.28l.21.28h0l.57.44h0l.67.29a2.1,2.1,0,0,0,1.13.05,2.64,2.64,0,0,0,.38-.05l.68-.29a2.11,2.11,0,0,0,.29-.22c-.19.15.21-.15.3-.23l.44-.58a2.11,2.11,0,0,0,.34-1,1.4,1.4,0,0,0,0-.76,1.49,1.49,0,0,0-.19-.72,2.31,2.31,0,0,0-.59-.92l-.58-.44-.68-.29a2.21,2.21,0,0,0-1.14,0,1.48,1.48,0,0,0-.71.19,1.39,1.39,0,0,0-.63.37,2.19,2.19,0,0,0-.74.8l-.28.68-.1.76.1.75a2,2,0,0,0,.51,1,2.11,2.11,0,0,0,.8.74Z"/><path class="cls-2" d="M398.12,377.07a2.79,2.79,0,0,0,.37.87,3.42,3.42,0,0,0,1.2,1.19,3.19,3.19,0,0,0,1.57.43,3.48,3.48,0,0,0,2.22-.92,3.1,3.1,0,0,0,.8-1.38l0,0L404,378s0,0,0,0l-.5.64s0,0,0,0l-.65.51,0,0,.66-.51.51-.67.33-.78.12-.86-.12-.87-.33-.78-.51-.66a2.36,2.36,0,0,0-1.05-.68,1.58,1.58,0,0,0-.82-.22,3.35,3.35,0,0,0-1.7.22,1.75,1.75,0,0,0-.72.42,1.64,1.64,0,0,0-.58.59,1.47,1.47,0,0,0-.42.72,1.59,1.59,0,0,0-.23.82,2.6,2.6,0,0,0,.06,1.3Z"/><path class="cls-2" d="M408.87,381v0a3.29,3.29,0,0,0-1.63-2.84l-.78-.34a3.46,3.46,0,0,0-1.75,0,2.58,2.58,0,0,0-1.12.59,2.46,2.46,0,0,0-.85.93,3.31,3.31,0,0,0-.45,1.66,3.36,3.36,0,0,0,.45,1.66v0l.52.66a2.48,2.48,0,0,0,1.05.68,1.65,1.65,0,0,0,.83.23,2.53,2.53,0,0,0,1.31-.06l.79-.33.66-.52a2.36,2.36,0,0,0,.68-1,2.49,2.49,0,0,0,.28-1.27Z"/><path class="cls-2" d="M411.37,383.59c.74,2.43,3.11,3.31,5.12,4.6a110.8,110.8,0,0,1,9.62,7.23c.7.57,1.69-.35,1-1a54.87,54.87,0,0,0-6.76-5.48c-2.3-1.6-6.8-3.17-7.92-5.79-.26-.62-1.26-.18-1.07.45Z"/><path class="cls-2" d="M319,416.07l-.47.27-.21.12a1.31,1.31,0,0,0-.42.39.77.77,0,0,0,.06.86.78.78,0,0,0,.81.28,1.76,1.76,0,0,0,.56-.33l.42-.32a.77.77,0,0,0,.33-.44.75.75,0,0,0-.07-.57.75.75,0,0,0-1-.26Z"/><path class="cls-2" d="M324.69,422.37l.05,0-.23.1.07,0-.26,0h.1l-.27,0,.12,0-.25-.1.07,0-.22-.16.06,0a1.33,1.33,0,0,0,.49.28l-.25-.1,0,0a1.06,1.06,0,0,0,1.28-.17,1.33,1.33,0,0,0,.27-.46.86.86,0,0,0,0-.42.79.79,0,0,0-.13-.39,1.22,1.22,0,0,0-1.42-.58,1.27,1.27,0,0,0-.82.63,1,1,0,0,0-.11.6.89.89,0,0,0,.26.53,1,1,0,0,0,1.13.15Z"/><path class="cls-2" d="M328.9,427.33l.12,0a.87.87,0,0,0,.38-.2.41.41,0,0,0,.13-.1,1.33,1.33,0,0,0,.3-.53,1.09,1.09,0,0,0-1.35-1.34,1.19,1.19,0,0,0-.52.3,1.14,1.14,0,0,0-.31.5.56.56,0,0,1,0,.12,1.06,1.06,0,0,0,0,.56,1,1,0,0,0,.27.46,1.08,1.08,0,0,0,.46.27,1.06,1.06,0,0,0,.56,0Z"/><path class="cls-2" d="M333.38,430.53c-.06-.09-.08,0,0,0s0-.13,0,0a1,1,0,0,1,0-.17c0,.19-.05,0,0,0s0,0,0,0,0,.07,0,0,.14-.16,0-.05.12-.14.12-.14a1.36,1.36,0,0,0,.24-.5,1.23,1.23,0,0,0-1.78-1.37,1.82,1.82,0,0,0-.75,1.93,2.44,2.44,0,0,0,.73,1.41.93.93,0,0,0,1.46-1.12Z"/><path class="cls-2" d="M338.25,434.9a2.34,2.34,0,0,0,.27-.15,2,2,0,0,0,.45-.38l.22-.22a1.67,1.67,0,0,0,.41-.69,1.13,1.13,0,0,0-1.38-1.38,2.75,2.75,0,0,0-1.43,1.36,1.09,1.09,0,0,0,.17,1.29,1.12,1.12,0,0,0,1.29.17Z"/><path class="cls-2" d="M345,438.78l.15-.23a1.23,1.23,0,0,0,.19-.65,2,2,0,0,0-.07-.43l-.12-.28a.8.8,0,0,0-.3-.33,1.14,1.14,0,0,0-.71-.25,1.37,1.37,0,0,0-.59.16,1.17,1.17,0,0,0-.53.7,1.55,1.55,0,0,0-.07.43,1.23,1.23,0,0,0,.19.65c0,.08.09.15.14.23a1,1,0,0,0,.86.49,1,1,0,0,0,.86-.49Z"/><path class="cls-2" d="M349.56,443.56a1.2,1.2,0,0,0,.33-.13l.25-.19a1.23,1.23,0,0,0,.3-.52.57.57,0,0,0,0-.18.94.94,0,0,0,0-.47.77.77,0,0,0-.07-.16.9.9,0,0,0-.25-.39v0a1.33,1.33,0,0,0-.82-.34l-.31,0a1.19,1.19,0,0,0-.51.3,1.29,1.29,0,0,0-.33.55,1.23,1.23,0,0,0,0,.66,1.2,1.2,0,0,0,.55.72,1.13,1.13,0,0,0,.86.13Z"/><path class="cls-2" d="M356.1,446.43l.12-.12a1.26,1.26,0,0,0,.37-.64,1.16,1.16,0,0,0,0-.64,1.24,1.24,0,0,0-.31-.53,1.1,1.1,0,0,0-.52-.3,1.38,1.38,0,0,0-1.29.36l-.11.13a.93.93,0,0,0-.26.39,1,1,0,0,0-.1.48.93.93,0,0,0,.1.47,1,1,0,0,0,.26.4l.25.19a1.23,1.23,0,0,0,.62.17l.33-.05a1.23,1.23,0,0,0,.54-.31Z"/><path class="cls-2" d="M360.22,448.27l.1.16.05.08.18.24.23.18.06,0,.27.11a.8.8,0,0,0,.46,0,.6.6,0,0,0,.29-.08.77.77,0,0,0,.36-.23l.18-.23.12-.28a1,1,0,0,0,0-.45,1,1,0,0,0-.14-.43l0,0a.64.64,0,0,0-.1-.13.6.6,0,0,0-.21-.21l-.19-.13-.17-.11-.26-.11a.9.9,0,0,0-.43,0,.69.69,0,0,0-.28.08.87.87,0,0,0-.35.22l-.17.23-.11.26a.79.79,0,0,0,0,.43.9.9,0,0,0,.13.41Z"/><path class="cls-2" d="M367.82,451.47l.06.09-.11-.81,0,.05a1.26,1.26,0,0,0,0,.61,1.22,1.22,0,0,0,.3.5l.1.11a1,1,0,0,0,.37.24.87.87,0,0,0,.45.09.85.85,0,0,0,.44-.09,1,1,0,0,0,.37-.24l.18-.23a1.19,1.19,0,0,0,.15-.58l0-.31a1.19,1.19,0,0,0-.29-.51l-.11-.1a1.22,1.22,0,0,0-.5-.3,1.26,1.26,0,0,0-.61,0l-.05,0,.81.11-.09-.06L369,450a.75.75,0,0,0-.42,0,.48.48,0,0,0-.26.07.84.84,0,0,0-.33.21l-.16.21-.1.25a.71.71,0,0,0,0,.41.74.74,0,0,0,.12.38Z"/><path class="cls-2" d="M376.19,453.87s.19-.08.05,0h0l.15,0s.23,0,0,0,0,0,0,0h.15a1.26,1.26,0,0,0,.91-.44,1.13,1.13,0,0,0,.31-.94,1,1,0,0,0-.53-.81,1.37,1.37,0,0,0-1.29,0,2.09,2.09,0,0,0-.49.4,2.76,2.76,0,0,0-.59,1,.83.83,0,0,0,.31.9.86.86,0,0,0,.95.06Z"/><path class="cls-2" d="M381.62,452.89h0l.59-.45h0l-.26.11a.86.86,0,0,0-.31.29.49.49,0,0,0-.14.24.87.87,0,0,0-.1.42.28.28,0,0,1,0,.09l0,.29a.89.89,0,0,0,.2.37.58.58,0,0,0,.19.19.89.89,0,0,0,.37.2,1.14,1.14,0,0,0,.58,0l.26-.11a.84.84,0,0,0,.31-.28.58.58,0,0,0,.14-.24.76.76,0,0,0,.09-.42.28.28,0,0,0,0-.09l0-.29a.73.73,0,0,0-.19-.37.55.55,0,0,0-.2-.2.89.89,0,0,0-.37-.2h0l.58.45h0a.84.84,0,0,0-.35-.35.92.92,0,0,0-.49-.13,1,1,0,0,0-.49.13,1,1,0,0,0-.35.35Z"/><path class="cls-2" d="M389.07,453.09a1.64,1.64,0,0,0-.19.72,1.46,1.46,0,0,0,.06.46,1.54,1.54,0,0,0,1,1,1.15,1.15,0,0,0,.87-.12,1.13,1.13,0,0,0,.46-.53,1.05,1.05,0,0,0,.06-.74,1.16,1.16,0,0,0-.52-.67l-.07,0,.23.17a.23.23,0,0,1-.07-.07l.18.23-.11-.16.12.27a.54.54,0,0,1,0-.1l0,.29a.17.17,0,0,1,0-.1l0,.29v0a1.15,1.15,0,0,0-.11-.85,1.17,1.17,0,0,0-.53-.45,1,1,0,0,0-.71-.05,1.05,1.05,0,0,0-.66.5Z"/><path class="cls-2" d="M395.41,454.09l0,0-.46-.27,0,0a.77.77,0,0,0,.35.22.57.57,0,0,0,.28.08l.16,0h0a.87.87,0,0,0,.42-.1.39.39,0,0,0,.15-.06,1.09,1.09,0,0,0,.53-.93,1.07,1.07,0,0,0-.53-.93h0a.73.73,0,0,0-.4-.13l-.19,0h0l-.29,0a.87.87,0,0,0-.37.19.53.53,0,0,0-.14.12l.46-.27,0,0-.25.1a.7.7,0,0,0-.28.26.41.41,0,0,0-.13.23.66.66,0,0,0-.09.39l0,.27.11.24a1.08,1.08,0,0,0,.61.47Z"/><path class="cls-2" d="M400.81,450.31a2.48,2.48,0,0,0-.35.27,2.78,2.78,0,0,0-.21.27l-.06.08-.11.25a.86.86,0,0,0,0,.42.53.53,0,0,0,.08.27.81.81,0,0,0,.21.34l.22.16.25.11a.86.86,0,0,0,.42,0,.79.79,0,0,0,.39-.13l.08-.05,0,0a1.55,1.55,0,0,0,.24-.19,1.3,1.3,0,0,0,.18-.23l0,0,.06-.09.11-.25a.86.86,0,0,0,0-.42.56.56,0,0,0-.08-.27.81.81,0,0,0-.21-.34l-.22-.16-.25-.11a.86.86,0,0,0-.42,0,.79.79,0,0,0-.39.13Z"/><path class="cls-2" d="M407.54,450.15a1.09,1.09,0,0,0,0-2.18,1.09,1.09,0,0,0,0,2.18Z"/><path class="cls-2" d="M411,444.84h0a2.35,2.35,0,0,0-.25.19h0a2.07,2.07,0,0,0-.19.25h0s-.11.27-.12.29a.91.91,0,0,0,0,.33s0,.29,0,.32h0c0,.05.15.36.07.15a.43.43,0,0,0,.06.15h0l.19.25,0,0a.86.86,0,0,0,.26.2l.3.13a.9.9,0,0,0,.51,0l.21,0,.3-.13h0a1.39,1.39,0,0,0,.27-.21l.19-.25h0a.83.83,0,0,0,.14-.46.91.91,0,0,0,0-.49l-.12-.29a.9.9,0,0,0-.32-.35.67.67,0,0,0-.27-.16,1,1,0,0,0-.47-.1l-.33,0a1.24,1.24,0,0,0-.54.32h0l.25-.19h0l.29-.13h0l.33,0h0l.34,0h0l-.17,0a1.21,1.21,0,0,0-.65.09l-.15.06.3-.12h0l.33,0h0l.32,0h0l.28.12h0l.24.19h0l.19.25h0l.12.28v0l0,.32v0a1.17,1.17,0,0,0-1.76-1Z"/><path class="cls-2" d="M415.25,441l0,.38a1.51,1.51,0,0,0,.06.63,1.24,1.24,0,0,0,1.17.9,1.26,1.26,0,0,0,1.18-.9,1.69,1.69,0,0,0,.06-.63l0-.38a1.32,1.32,0,0,0-.35-.84,1.19,1.19,0,0,0-.85-.35,1.15,1.15,0,0,0-.84.35,1.32,1.32,0,0,0-.35.84Z"/><path class="cls-2" d="M421.23,436.07l-.07.45c0,.16-.06.34-.07.49a2.25,2.25,0,0,0,.07.52,1.26,1.26,0,0,0,2.42,0,1.82,1.82,0,0,0,.08-.52c0-.15-.05-.33-.07-.49l-.07-.45-.12-.28a.9.9,0,0,0-.31-.33,1.11,1.11,0,0,0-.72-.25,1.33,1.33,0,0,0-.59.16,1.16,1.16,0,0,0-.55.7Z"/><path class="cls-2" d="M424.6,432.07l0,.2.67-1.18a.44.44,0,0,0-.15.12,1.09,1.09,0,0,0-.37.4l-.15.35a.85.85,0,0,0,0,.23.65.65,0,0,0,0,.39,1.11,1.11,0,0,0,.17.55l.07.1a1.49,1.49,0,0,0,.87.67l.39.05a1.07,1.07,0,0,0,.56-.12.74.74,0,0,0,.32-.19,1.07,1.07,0,0,0,.38-.41,1.51,1.51,0,0,0,.15-1.12l-.05-.12-.14-.35a1.15,1.15,0,0,0-.38-.41,1.23,1.23,0,0,0-.53-.28,1.51,1.51,0,0,0-.79,0l1.33.35-.16-.14a1.51,1.51,0,0,0-.56-.33l-.34,0a.91.91,0,0,0-.49.11.61.61,0,0,0-.28.16.57.57,0,0,0-.23.23,1.16,1.16,0,0,0-.28.77Z"/><path class="cls-2" d="M428,423.93a2.1,2.1,0,0,0-.45.83,2.2,2.2,0,0,0,0,1v-.73a1.41,1.41,0,0,0,.07.95,1.58,1.58,0,0,0,.59.69l.1.06a1.41,1.41,0,0,0,1.42,0,1.56,1.56,0,0,0,.58-.67,1.41,1.41,0,0,0,.1-.73,1.77,1.77,0,0,0-.19-.56l.14.34s0-.05,0-.08a1.51,1.51,0,0,0-.52-.75.68.68,0,0,0-.32-.18,1,1,0,0,0-.56-.13h0l1,.41-.08-.08.22.28a.5.5,0,0,1-.08-.14l.13.32a.75.75,0,0,1,0-.16l0,.34a.49.49,0,0,1,0-.12l-.05.34v0a1.4,1.4,0,0,0-.06-.81,1.3,1.3,0,0,0-.51-.6,1.56,1.56,0,0,0-.63-.17,1.23,1.23,0,0,0-.88.37Z"/><path class="cls-2" d="M430.43,417.76a1.63,1.63,0,0,0-1.13,1.55l.18-.65a1.5,1.5,0,0,0,.15,1.7,1.55,1.55,0,0,0,1.64.57,1.37,1.37,0,0,0,.94-.94,1.38,1.38,0,0,0-.35-1.31,2.51,2.51,0,0,0-.37-.27l.28.22a1.14,1.14,0,0,1-.19-.19l.21.28a1.44,1.44,0,0,0-.54-.53l.46.47,0-.08.13.31,0-.11,0,.32V419l0,.32s0,0,0-.05l-.12.28a.16.16,0,0,1,0-.07l-.18.23,0,0a1.19,1.19,0,0,0,.31-.66,1,1,0,0,0-.13-.73,1.17,1.17,0,0,0-1.3-.53Z"/><path class="cls-2" d="M430.73,411.83a1.28,1.28,0,0,0-.2.26,2.71,2.71,0,0,0-.13.3h0a1.31,1.31,0,0,0,0,.68s.11.27.13.3h0a1,1,0,0,0,.2.26l.13.1a.73.73,0,0,0,.13.1,1.41,1.41,0,0,0,.31.14l.17,0a.62.62,0,0,0,.33,0,.82.82,0,0,0,.17,0l.16-.06a1,1,0,0,0,.18-.09.79.79,0,0,0,.13-.09l.13-.1v0l.19-.24h0a1.08,1.08,0,0,0,.13-.29,1.3,1.3,0,0,0,0-.62,1.18,1.18,0,0,0-.81-.81,1.3,1.3,0,0,0-.62,0h0l.32,0h0l.31,0h0l.29.12,0,0,.24.19-.12-.09a.85.85,0,0,0-.42-.22,1.33,1.33,0,0,0-.34-.05l.33,0h0l.29.12h0l.25.19h0l.19.25h0l.12.29v0l0,.33v0l0,.33v0l0-.32a.92.92,0,0,0-.11-.46.61.61,0,0,0-.15-.27,1,1,0,0,0-.34-.31l-.29-.12-.32,0a.82.82,0,0,0-.46.1.9.9,0,0,0-.39.25Z"/><path class="cls-2" d="M430.19,405.92l0,.31a2.47,2.47,0,0,0,0,.38,1.15,1.15,0,0,0,.3.51,1,1,0,0,0,1.41,0,1.26,1.26,0,0,0,.3-.51c0-.12,0-.26.05-.38l0-.31a1.11,1.11,0,0,0-.31-.77,1.15,1.15,0,0,0-.77-.31,1.07,1.07,0,0,0-.76.31,1.14,1.14,0,0,0-.32.77Z"/><path class="cls-2" d="M560.77,449.94a23.11,23.11,0,0,1,3.25,9.45c.18,1.59,2.7,1.62,2.53,0a25.63,25.63,0,0,0-2.77-9.33c-.73-1.42-2.73-.39-2.45,1a35.17,35.17,0,0,0,1.52,5.42,1.34,1.34,0,0,0,2.59-.72L564,450.32a1.35,1.35,0,0,0-2.61.71c3.76,14.87,5.23,30.23.62,45.09-4,13-11.61,24.53-15.72,37.47-.41,1.31,1.68,2.24,2.25.95,5.86-13.16,13.31-26.13,17.09-40.1,4-14.65,2.06-29.63-1.63-44.12l-2.61.71,1.43,5.48,2.59-.72a35,35,0,0,1-1.52-5.41l-2.45,1a25.23,25.23,0,0,1,2.6,8.31l2.43-.67a22.93,22.93,0,0,0-3.91-10.17c-.76-1.11-2.52-.12-1.82,1.06Z"/><path class="cls-2" d="M605.2,445.86c-2.62,9.51-3.5,19.65-4.41,29.45q-1.47,15.69-1.66,31.48c-.16,15.77.48,32-3.67,47.38a1.08,1.08,0,0,0,2.08.57c5-14,3.88-30.36,3.89-45,0-10.51.41-21,1.28-31.5.9-10.77,2.87-21.47,3.57-32.24.05-.63-.91-.74-1.08-.15Z"/><path class="cls-2" d="M250.72,711a1.54,1.54,0,0,0,0-3.07,1.54,1.54,0,0,0,0,3.07Z"/><path class="cls-2" d="M423.89,688.24c-3.3,2.46-7.75-.47-11.28-1s-7.22.17-10.82.53c-7.85.81-15.68.46-23.56.28-16.2-.38-31.68,2.53-47.51,5.68-7.85,1.57-15.67,3.26-23.37,5.42-7.17,2-14.13,4.85-21.43,6.37-15.76,3.27-32.25-.37-47.89,3.47-1.32.33-1.08,2.54.33,2.43,15.76-1.14,32.06.83,47.62-2.13,7.64-1.46,14.9-4.42,22.34-6.6,8.29-2.43,16.72-4.33,25.17-6.1s16.89-3.66,25.43-4.81c8.74-1.17,17.42-.92,26.2-.73,4.25.09,8.52.15,12.76-.16,4-.28,7.94-1.23,11.92-1.25,5,0,10.82,3.71,15.16,0,.74-.65-.26-2-1.07-1.39Z"/><path class="cls-2" d="M255.77,707.13c-4.61,2-6.56,6-7.94,10.68-2.18,7.34-3.51,15-5.19,22.48l2.37.32a87.31,87.31,0,0,1,6.35-30c.56-1.38-1.82-2.39-2.41-1-4.33,10-7.61,21.33-7.43,32.37a1.26,1.26,0,0,0,2.51,0c1.36-10.92,3-21.14,7.33-31.35l-2.55-.7a90.49,90.49,0,0,0-6.21,30.66,1.21,1.21,0,0,0,2.37.32c1.36-6.14,2.67-12.29,4.08-18.41,1.16-5.07,2.57-11.36,7.38-14.25.74-.45.09-1.46-.66-1.14Z"/><path class="cls-2" d="M344.42,715.24c-5,5.39-2.67,13-5.54,19.26l4.34,1.18q.69-7.53,1.79-15l-4.65-.63c-.06,9.34-3.12,18.33-2.68,27.7.13,2.59,4,3.31,4.65.63a54.4,54.4,0,0,1,2.49-7.46l-4.41-1.2,1,8.61a2.37,2.37,0,0,0,4.74,0q.36-3.39.71-6.78l-4.63.63a59.71,59.71,0,0,1,1.78,6.87l3.53-2.71-.84-1.29c-.79-2.77-4.44-1.95-4.73.64L341.7,748l4.71-.64-.24-1a2.42,2.42,0,0,0-4.38-.57l-.47.82,4.38.57-.25-.8c-.56-1.75-3.51-2.6-4.38-.57l-.49,1.15,4.36,1.85.11-.27L341.3,748l.55,1a2.41,2.41,0,0,0,3.74.48l1.32-1.25-4-1,.57,1.61a2.41,2.41,0,0,0,4.34.57l.74-1.14-4.33-.57.13.74.61-2.31-.54.52,2.31-.61a3.27,3.27,0,0,0-3.06.36l3.24.85c-1.7-2.74-5.64-3.19-7.4-.26-1.3,2.18,1.21,4.13,3.22,3.22.46-.21,3.11,1.09,4.08,1A3.33,3.33,0,0,0,349,750c2.16-2.12-1.16-5.44-3.31-3.32,1.51-1.48-4.53-.88-5.31-.52l3.22,3.21-.75.27a2.4,2.4,0,0,0,3.23.85l-.59.12a2.34,2.34,0,0,0,2.3-.61c1.19-1.13,1.29-1.94,1-3.55-.37-2.16-3.31-2.11-4.33-.56l-.75,1.13,4.34.57-.56-1.62a2.42,2.42,0,0,0-4-1l-1.32,1.25,3.74.48-.54-1a2.41,2.41,0,0,0-3.75-.48,5.2,5.2,0,0,0-1.34,2.37c-.69,2.53,3.26,4.39,4.37,1.85l.5-1.16-4.37-.57.25.8a2.43,2.43,0,0,0,4.38.58l.47-.82-4.38-.57.24,1c.67,2.83,4.42,1.87,4.71-.64l.26-2.28-4.72.64a6.64,6.64,0,0,0,3,4.16c1.83,1.24,4-.81,3.53-2.72-.54-2.31-1.15-4.58-1.86-6.84-.84-2.66-4.35-2-4.64.62q-.37,3.39-.73,6.78h4.74l-1-8.61c-.23-2-3.38-3.63-4.42-1.19a62.24,62.24,0,0,0-3,8.59l4.65.63c-.44-9.35,2.63-18.36,2.67-27.7,0-2.57-4.26-3.33-4.65-.63-.77,5.4-1.41,10.81-1.88,16.25-.19,2.24,3.4,3.25,4.34,1.17,2.87-6.32.71-13.56,4.06-19.65.86-1.56-1.26-3.35-2.54-2Z"/><path class="cls-2" d="M474.74,726.29c-1.51-.49-2.18.08-3.19,1.19-2.73,3-4.68,7.51-6.82,11-1.34,2.15,1.58,4.09,3.34,2.58,3-2.59,6-5.22,9-7.83L473.23,731c-1.89,5.68-7,10.94-10.45,15.76-1.61,2.25,1.72,4.28,3.57,2.76l4-3.31L467.18,743c-4,4.2-8.24,8.16-12.64,12l3.24,3.24c2.49-2.29,4.89-4.64,7.22-7.09,2-2.13-1-4.89-3.16-3.15-3,2.37-6,4.74-9,7.07l2.67,3.47,3.69-3.69c1.76-1.76-.54-4.95-2.72-3.52-1.62,1.06-3.23,2.15-4.84,3.23l2.62,3.4c.73-.92,1.48-1.84,2.22-2.76a2.18,2.18,0,0,0-2.63-3.41l-2.77,1.47,3,3,1.26-1.72c1.36-1.86-1.23-4.07-3-3l-2.39,1.4,3.06,3.06,1.26-2.42a2.26,2.26,0,0,0-3.54-2.73l-1.76,1.47,3.21,3.21a10.46,10.46,0,0,0,1.76-2.7c.92-1.94-1-4.44-3.14-3.14L448.48,751l2.84,3.68a7.39,7.39,0,0,0,1.47-2.23c.83-1.87-1.12-4.9-3.26-3.26l.36,0L452.2,751l-.15-.38-1.1,2.7.28-.17c2.62-1.61.22-5.74-2.42-4.13l-.28.17a2.43,2.43,0,0,0-1.1,2.7l.16.38c.35.89,1.21,1.9,2.3,1.76a4.23,4.23,0,0,0,2.53-1.08l-4-2.31-.44.75c-1.52,1.91.43,5.29,2.84,3.68l2.25-1.49-3.15-3.14-1,1.8a2.27,2.27,0,0,0,3.21,3.21l1.74-1.49-3.55-2.74-1.22,2.44c-1,1.91,1,4.28,3.06,3.06l2.36-1.44-3-3L450.28,754c-1.34,1.88,1.21,4,3,3L456,755.5l-2.64-3.41c-.73.92-1.46,1.85-2.2,2.77-1.42,1.78.37,4.79,2.62,3.39,1.65-1,3.29-2,4.93-3.09L456,751.64l-3.64,3.74c-2,2.09.95,4.84,3.12,3.12,3-2.37,6-4.7,9-7l-2.7-3.5c-2.36,2.42-4.79,4.74-7.3,7-2.21,2,1,5.13,3.24,3.24a162.25,162.25,0,0,0,12.58-12c2-2.15-1-5-3.18-3.18l-4.05,3.27L466.7,749c3.76-5.2,9-10.63,10.94-16.84.7-2.28-2.21-3.7-3.82-2.23-2.92,2.69-5.86,5.35-8.76,8.06l3.34,2.58c.36-.67,5.8-10.92,5.44-11.05,2,.74,3-2.58.9-3.26Z"/><path class="cls-2" d="M449.26,742.78c-4.87.65-6.22,6.86-4.44,10.84a9.89,9.89,0,0,0,5.51,4.85c2.81,1,5.78-.56,8.14-2l-3.63-4.72a20.91,20.91,0,0,1-2.47,2.42c-2.26,1.88.16,6.06,2.92,5a21.78,21.78,0,0,0,8.8-5.93l-4.21-4.21c-1.58,1.88-6,7.16-8.45,4.87-2.87-2.7,1.29-5,2.42-7.26.69-1.35-.12-3.5-1.9-3.32-7,.71-9.43,8.89-5.31,14.09,2.11,2.67,5.17,4.29,8.53,3s6.67-4.48,8.92-7.14c2.46-2.89-1.61-7.09-4.21-4.21a15.88,15.88,0,0,1-6.19,4.36l2.92,5a21.63,21.63,0,0,0,2.47-2.41c2.15-2.47-.58-6.57-3.63-4.71-2,1.18-4.3,2.52-5.85-.07-1.1-1.86-.38-4,.85-5.57.78-1,.43-3.1-1.19-2.88Z"/><path class="cls-2" d="M461,755c5.71-2.52,10.5-8.61,14.32-13.36s8.14-9.88,10.15-15.58a1.77,1.77,0,0,0-2.94-1.71c-4.17,4.81-7.14,10.68-11.25,15.62-3.73,4.48-8.78,8.57-11.72,13.58-.58,1,.53,1.85,1.44,1.45Z"/><path class="cls-2" d="M342.34,713.28c-3.69,1.3-3.23,6.73-3.69,10a158.27,158.27,0,0,0-2,18.53c-.07,3.47.67,7.41,4,9.32a7.27,7.27,0,0,0,9.21-2l-4.3-3.32-1.93,1.79c-2.67,1.37-1.09,4.89,1.39,5.15,9,.93,6.84-7.57,5.64-13.5l-4.87,2a3.55,3.55,0,0,1,.73,3.67q.3,3.59-3.94.84l-4.83,2A9.78,9.78,0,0,0,346.1,753v-5.23a5.67,5.67,0,0,1-3.42-.56c-2.8-1-4.49,3.29-2,4.73,10.41,6,10.62-14,9.85-19.12-.3-2-3.1-1.58-3.62,0a29.5,29.5,0,0,0-1.13,7c-.06.7-.48,9.18-2.49,7.7l-2,4.73a11.3,11.3,0,0,0,4.8.8c3.39-.11,3.34-5,0-5.23a4,4,0,0,1-3.83-2.53c-1.55-2.72-5.35-.8-4.83,2,.88,4.77,5.78,5.95,9.85,4.21,5.6-2.4,4.87-7.08,3.33-12.18-.83-2.75-5.53-2.4-5.23.7.16,1.59.38,3.15.61,4.73.27,1.79,1.15,2.78-1,2.55l1.39,5.14a8.16,8.16,0,0,0,3.88-3.79c1.7-3.18-2.67-5.55-4.73-2.77q-4.86.1-4.1-4.05c0-1.18.08-2.36.16-3.54.14-2.57.34-5.14.55-7.71.37-4.55-.31-11.31,1.56-15.48.38-.86-.27-2.14-1.35-1.76Z"/><path class="cls-2" d="M244.73,727.31a58,58,0,0,0-4.32,16.6c-.24,1.84,3,2.29,3.26.44a59.37,59.37,0,0,1,3.69-14.09l-3.35-.92a68.77,68.77,0,0,0-1.59,7.65c-.33,2.34-.08,5.62-1.53,7.54l3.17,1.34c1.85-11.84,3.92-23.17,8.79-34.21,1.11-2.52-2.6-4.71-3.73-2.18-5,11.2-8.71,23.57-8.46,35.93a1.75,1.75,0,0,0,3.23.88c1.29-1.72,1.35-3.29,1.55-5.38a68.73,68.73,0,0,1,1.92-10.65c.57-2.2-2.56-3-3.35-.92a61.65,61.65,0,0,0-3.6,14.57h3.32c.66-5.34,2-10.47,3.1-15.72.26-1.19-1.53-2.13-2.1-.88Z"/><path class="cls-2" d="M523,583.37c3.83,0,3.84-6,0-6s-3.84,6,0,6Z"/></g></svg>