<svg xmlns="http://www.w3.org/2000/svg" viewBox="0 0 714.22 841.41"><defs><style>.cls-1{fill:#5bc9e9;stroke:#b11f24;stroke-miterlimit:10;stroke-width:0.25px;}.cls-2{fill:#db7eb2;}</style></defs><title>Brown Girls Food Club Logo</title><g id="Background"><rect class="cls-1" x="-5.96" y="-1.26" width="720.18" height="844"/></g><g id="New_Logo" data-name="New Logo"><path class="cls-2" d="M395.16,125.28c-38.82,25.78-60.17,70.95-70.23,115.08s-12,89.46-19.88,133.88c-3.88,21.84-9.33,43.72-18.89,63.82-10.47,22-24.72,41.88-39.7,61C216.91,536.77,184,573.75,169,620.22c-14,43.46-8.12,97.22,29.34,127.44,3.3,2.67,7.9,3.23,11.13,0,2.79-2.79,3.31-8.43,0-11.14-30.37-25-36.13-69.12-26.15-105.27,12.31-44.63,43.68-80.53,71.78-116.08,14.69-18.58,29-37.55,40.6-58.27A262.23,262.23,0,0,0,320,395.14c11.07-42.46,12.95-86.52,20.76-129.57,4.2-23.17,10.1-46.43,19.9-67.92,10.59-23.23,26.07-42.3,43.6-60.59,5.7-5.95-1.76-16.65-9.09-11.78Z"/><path class="cls-2" d="M401.05,132.62c-14.93-14.23-37.61-17-57.18-13.09-21.63,4.32-40.13,17.6-53.66,34.71-31.71,40.07-34.75,92.82-42.86,141.23-4.37,26.06-10.38,52.37-23.5,75.58-12.39,21.9-30,40.42-41.1,63.14-11.26,23.12-16.15,48.58-19.66,73.87-3.76,27.1-7.24,54.36-9,81.68-2,30.41-1.45,61.55,5.41,91.37,5.15,22.37,15.22,45.52,36.08,57.27a2,2,0,0,0,2-3.4c-18.55-11.56-27.81-32.5-32.71-53-6.15-25.73-7.14-52.42-6-78.75s4.49-52.44,7.8-78.53c3.09-24.29,6.39-48.84,14.64-72C189.72,429,205,410,219.07,389.54c14-20.23,23.11-42.23,28.66-66.16,11.07-47.74,9.31-99.27,31.91-143.85,11-21.76,28.05-41.92,51.14-51.27a75.1,75.1,0,0,1,69,6,1,1,0,0,0,1.24-1.62Z"/><path class="cls-2" d="M395,131.42a4.05,4.05,0,0,0,4.73-2,2,2,0,0,0-1.18-2.89c-1.22-.5-2.49-.89-3.74-1.32l-.56,4.14c3.19,0,5.73,1.08,8.72,1.95,2.44.72,3.78-2.71,1.7-4-3-1.86-7-2.27-10.42-2.14a2.11,2.11,0,0,0-.55,4.13c1.26.37,2.52.77,3.8,1.06l-1.37-2.43c0,.46-.25.66-.73.63a1.5,1.5,0,0,0-.4,2.94Z"/><path class="cls-2" d="M404.24,135.53c7.83,1.12,15.15,2.92,21.32,8.17,6,5.08,13.4,15.91,8.06,23.74-4.58,6.71-13.7,0-18.89,6.66-1.58,2-2.35,4.44-3.52,6.7-2.15,4.17-5.48,4.7-9.87,4.82-6.33.17-11.8.89-15.95,6.16-4.66,5.93-6.67,12.38-13.19,16.83-10,6.85-26.1,11.26-28.41,25.15-1,5.81,2,11.86,8.2,12.59,5.09.59,10-2.44,10.13-7.81.08-3.24-5.25-4.13-5.8-.78a2.79,2.79,0,0,1-5,1.4c-2.15-2.57-6.29.74-4.6,3.54a53.63,53.63,0,0,1,4.9,45.37c-3.71,10.66-12.18,28.76,2.3,35.89,9.14,4.51,21.29-4.95,18.9-15-1.22-5.15-6.2-9.67-11.73-8.47a7.79,7.79,0,0,0-5.39,11.29c1.38,2.78,5.72.83,4.93-2.07-.85-3.1,3-3.22,4.81-2.12,1,.58,1.63,2.8,1.65,3.92a7.43,7.43,0,0,1-2.48,5.08c-3.61,3.47-8.66,3.15-11.27-1.24-5.1-8.58,2-19,4.54-27.25,5-16.12,2.49-34-6.11-48.39l-4.59,3.54c4.33,5.25,13.7,2.78,14.81-4l-5.81-.79c-.07,3.28-4.93,1.92-6,.23-2.46-3.88,1.23-9.17,3.9-11.82,4.47-4.44,10.44-7.07,15.87-10.1,5.11-2.85,10-6.11,13.57-10.87,4.34-5.85,5.88-13.74,14.36-14.36,5.28-.39,11.17.43,15.37-3.55a19.23,19.23,0,0,0,4-6.44c1.82-4,2.73-5.57,7.7-5.35,6.16.28,11.16-1.39,14.19-7.21,2.92-5.59,1.66-12.28-.91-17.72-5.75-12.16-20.33-21.66-34-19.21-1.65.3-1.71,3.15,0,3.39Z"/><path class="cls-2" d="M375.78,361.69c-3.95-5.66-7.77-14.88,0-19.36,4.62-2.68,10.87-2,15.9-1.13,7.66,1.33,16.81,3.6,23.84-1.16a11.32,11.32,0,0,0,4.87-8c.42-3.17-.44-6.26-.39-9.41,0-2,.29-4.15,1.74-5.66,1.94-2,4-.93,6.15-.7,2.82.31,5,.43,6.5-2.5,1.57-3.15.75-7.35-.47-10.45l-1.42,1.86c4.09.39,4.85-3.68,4.69-6.85-.18-3.38-1.23-5.73,2.31-6.29a11.56,11.56,0,0,1,3.21.26,61.23,61.23,0,0,0,6.71,1c3.36.1,6.6-1,7.68-4.54.91-3-.06-6.51-.45-9.46-.48-3.74-1-7.47-1.62-11.18a103.69,103.69,0,0,0-6-22.1c-2.06-5-2.88-8.29-.94-13.46a84.62,84.62,0,0,0,3.86-12.93c2.27-11.38,2.5-23.54-3.11-34-3.31-6.13-6.37-13.81-11-19.06-1.37-1.55-3.63.73-2.27,2.27,2.58,2.94,4.25,7.38,6.13,10.78,1.65,3,3.48,6,5,9,3.36,6.76,3.7,14.09,3.23,21.53a72.31,72.31,0,0,1-2.74,15.65c-1.09,3.74-3.24,7.49-3.6,11.39-.3,3.14.91,5.8,2.12,8.62a90.16,90.16,0,0,1,4.83,15.06c1,4.12,1.66,8.29,2.28,12.47.51,3.43,3.66,15-.81,16.68-4.29,1.6-9.28-1.73-13.74-.86a5.52,5.52,0,0,0-3.88,2.51c-.95,1.59,0,10.73-1.92,10.55a1.47,1.47,0,0,0-1.42,1.86c.8,2,2,5.55.94,7.67-1.8,3.55-5.57.24-8.14.57-3.31.44-5.52,3.6-6.36,6.62-1.73,6.24,2.84,13.91-3.45,18.58-4.11,3-10.38,2.76-15.17,2.11-8.18-1.11-18-4.4-25.47.84-8.13,5.68-4.83,16.32,1.24,22.07.58.55,1.66-.18,1.16-.9Z"/><path class="cls-2" d="M439.55,235.78c-8.77-7.6-13-18.81-25.8-20.39-11.77-1.46-22.53,5.26-29.66,14.15-1,1.26.73,3.07,1.81,1.8,7.41-8.67,17.8-15.58,29.73-13,11.14,2.45,13.65,13.92,23,18.57.72.36,1.59-.59.91-1.18Z"/><path class="cls-2" d="M421.09,246.84c-15.67-1.06-32.18.32-45-10.53-1.46-1.24-3.6.87-2.12,2.12,13.5,11.47,30.46,10.28,47.08,11.41,1.92.13,1.91-2.87,0-3Z"/><path class="cls-2" d="M432,250.85a26.86,26.86,0,0,0-8.37-3.52c-1.88-.46-2.68,2.43-.8,2.89a24.62,24.62,0,0,1,7.66,3.22c1.62,1.06,3.12-1.54,1.51-2.59Z"/><path class="cls-2" d="M431.47,251.26c1.49-6.58-2.26-12.68-7.83-16.11-7.47-4.6-17.09-3.23-25.08-.94a1.29,1.29,0,0,0,.68,2.49c6.54-1.31,13.59-2.76,20.09-.41,6.24,2.25,10.47,8,10,14.68a1.1,1.1,0,0,0,2.16.29Z"/><path class="cls-2" d="M431,253.51a1.42,1.42,0,0,0-1.8,1.26,12.74,12.74,0,0,1-2.35,2.62,16.3,16.3,0,0,1-6.24,3.25,22,22,0,0,1-11.14.11c-9-2.26-15-9.21-21.83-14.87a1.15,1.15,0,0,0-1.62,1.63c7.24,8,17.7,16.32,29,16.11a20.6,20.6,0,0,0,12.16-3.91c1.78-1.36,5.37-4.47,4.24-7a.84.84,0,0,0-.93-.38l-.44.12a.78.78,0,0,0-.53.93l.06.35c.16.85,1.29.52,1.38-.19Z"/><path class="cls-2" d="M434.83,279.66c-3.9-4-11.18-1.7-13.3,3.1-2.7,6.09,3.5,12.86,9.73,11.78,1.38-.24,1.07-2.6-.33-2.47-4.5.42-9.55-4.27-6.9-8.89,2-3.44,6.54-3.87,9.78-2.2a.84.84,0,0,0,1-1.32Z"/><path class="cls-2" d="M435.81,289.08l-.33-.24a.94.94,0,0,0-.93,0,1.71,1.71,0,0,0-.93,2.46c1.13,1.81,3.15,0,4.54.59,1.21.55,2.28-1.18,1.06-1.82A10.07,10.07,0,0,0,432.8,289l.86,2a5.81,5.81,0,0,1,3.9-.79l.31-2.3H432l.61,2.26a5.31,5.31,0,0,1,3.59-.54l-.3-2.29a4,4,0,0,1-3.39.35v2.48a17.3,17.3,0,0,1,13,2,1.4,1.4,0,0,0,1.41-2.41,20.15,20.15,0,0,0-15.15-2.05,1.3,1.3,0,0,0,0,2.48,7.42,7.42,0,0,0,5.35-.67c1.23-.62.46-2.19-.64-2.33a8.68,8.68,0,0,0-5.15.9,1.23,1.23,0,0,0,.62,2.27l5.91-.09a1.17,1.17,0,0,0,0-2.34,8.09,8.09,0,0,0-5.34,1.16,1.13,1.13,0,0,0,.87,2.05,7.36,7.36,0,0,1,4.76.75l1.06-1.82a3.2,3.2,0,0,0-1.54-.39,21.41,21.41,0,0,0-2.77.93.89.89,0,0,0,.9-1.53Z"/><path class="cls-2" d="M427.52,255.19a6.8,6.8,0,0,0,.68-4.29,1.49,1.49,0,0,0-1.65-1.07,1.53,1.53,0,0,0-1.3,1.47,6.33,6.33,0,0,1-.48,1.45,1.5,1.5,0,1,0,2.9.8,10.05,10.05,0,0,0,.58-2.25l-2.94.4a3.29,3.29,0,0,1-.38,2,1.54,1.54,0,0,0,.54,2.06,1.52,1.52,0,0,0,2-.54Z"/><path class="cls-2" d="M427.6,255.07a14,14,0,0,0,1.48-2.51l-2.59-1.51a10,10,0,0,1-1.36,2.27,1.55,1.55,0,0,0,0,2.12,1.5,1.5,0,0,0,2.12,0,11.72,11.72,0,0,0,1.83-2.88,1.54,1.54,0,0,0-.53-2.05,1.52,1.52,0,0,0-2.06.54,14.76,14.76,0,0,1-1.48,2.51,1.51,1.51,0,0,0,.54,2.05,1.52,1.52,0,0,0,2.05-.54Z"/><path class="cls-2" d="M426.48,259.21a13.65,13.65,0,0,0,4.27-4.7c.8-1.43-1.22-3.16-2.35-1.82a14,14,0,0,1-3.27,3c-1.63,1-.13,3.62,1.52,2.59a16.83,16.83,0,0,0,3.87-3.42L428.16,253a10.38,10.38,0,0,1-3.19,3.62c-1.58,1.08-.08,3.68,1.51,2.59Z"/><path class="cls-2" d="M426.69,257.9a13.67,13.67,0,0,0,5.28-5.12l-2.59-1.51a10.25,10.25,0,0,1-4.09,4.55c-1.68.94-.17,3.53,1.52,2.59a13.07,13.07,0,0,0,5.16-5.63,1.5,1.5,0,0,0-2.59-1.51,10.69,10.69,0,0,1-4.21,4c-1.7.91-.19,3.5,1.52,2.59Z"/><path class="cls-2" d="M433.38,305.53c.63-3.18-1.56-5.44-4.69-5.89-2.48-.36-5.16.3-7.6.63-3.83.52-7.66,1.08-11.48,1.62-1.5.22-.86,2.49.63,2.29l9-1.26c2.6-.37,12.32-3.06,12.26,2.36,0,1,1.65,1.32,1.86.25Z"/><path class="cls-2" d="M409.32,304.2a116.26,116.26,0,0,0,17.14,11.53c1.07.57,2.42-1,1.37-1.77a114.64,114.64,0,0,0-17.48-11.09c-.81-.41-1.81.69-1,1.33Z"/><path class="cls-2" d="M429.9,305.75c-2-.1-4.08-.21-6.13-.25-.91,0-1.16,1.46-.22,1.63a6.63,6.63,0,0,0,5.05-.81.93.93,0,0,0,0-1.58,11.1,11.1,0,0,0-12.54.39,1,1,0,0,0,0,1.69,9.05,9.05,0,0,0,9.15.12,1,1,0,0,0,.46-1.12,3.94,3.94,0,0,0-6-2.62,1,1,0,0,0,.24,1.82,15.49,15.49,0,0,0,6.14.43l-.27-2a10.94,10.94,0,0,0-3.68,2,1,1,0,0,0,.44,1.67,10.38,10.38,0,0,0,6.72-.81,1,1,0,0,0,0-1.74,9.09,9.09,0,0,0-3.42-.94c-.93-.08-1.26,1.13-.72,1.73a2.76,2.76,0,0,0,3.74.55,1,1,0,0,0-.24-1.85l-1.68-.07-.16-1.24c.4-.61-3,.13-2-.06a7.05,7.05,0,0,0-2.36,1.17,1,1,0,0,0,.79,1.87c1.56-.42,5.3-1.22,5.78,1.36l1.53-1.18-1.24-1.9-2.07.28a7.63,7.63,0,0,1,.45,5.16l1.95-.25.11-1.64h-1.52q2.4,1.29-.09,2.65l-1.24.5-2.22-2.29-.41,1.52,3.45,1,.79-1.39a9.57,9.57,0,0,1-8.78-2.23l-.23,1.81a7.06,7.06,0,0,1,6.88.3l.27-2.13a4.55,4.55,0,0,1-5.89-2.23l-.7,1.72a9.45,9.45,0,0,1,8.67,2.35l.24-1.84a6.13,6.13,0,0,1-5.68-.05l.54,1.33a2.56,2.56,0,0,1,4.48-1.06l1.44-1.86a15.9,15.9,0,0,0-12.48-2.93c-1.32.22-1,2.41.32,2.34l10.26-.55a1.21,1.21,0,0,0,.6-2.23,10.82,10.82,0,0,0-11.75.61,1.22,1.22,0,0,0-.55,1.36,3.15,3.15,0,0,0,4.62,1.91c1.22-.54.43-2.12-.6-2.24l-6.46-.73c-1-.11-1.43,1.09-1,1.81a7,7,0,0,0,5.88,3.61,14.71,14.71,0,0,0,4-.22c1.22-.21,2.42-.56,3.65-.74,1.07-.16,5.73-.56,6.22,0l.18,1.39.17-.3a1.14,1.14,0,0,0-2-1.15l-.18.29a1.18,1.18,0,0,0,.18,1.39c1.84,2.32,4.34-.87,2.13-2.84-4.93-4.39-14.72,3.86-18.15-2.63l-1,1.81,6.46.73-.61-2.24-1.1-.48-.55,1.35a8.47,8.47,0,0,1,9.34-.62l.6-2.23-10.26.57.32,2.34a13.51,13.51,0,0,1,10.64,2.68c1.14.85,2.25-.91,1.44-1.86a4.92,4.92,0,0,0-8.43,2.1,1.21,1.21,0,0,0,.54,1.33,8.42,8.42,0,0,0,8.06.05,1.18,1.18,0,0,0,.23-1.85,11.84,11.84,0,0,0-10.95-2.94,1.18,1.18,0,0,0-.7,1.71,6.83,6.83,0,0,0,8.53,3.3,1.18,1.18,0,0,0,.28-2.13,9.49,9.49,0,0,0-9.21-.28,1.16,1.16,0,0,0-.24,1.81,11.89,11.89,0,0,0,11,2.77,1.13,1.13,0,0,0,.79-1.39,4.28,4.28,0,0,0-7-2.15,1.1,1.1,0,0,0-.17,1.35,6.81,6.81,0,0,0,5.5,3.32,1.06,1.06,0,0,0,.95-.54c.77-1.7.23-3.31-1.72-3.72a1.15,1.15,0,0,0-1.24.5,2.9,2.9,0,0,0,3.33,4.38c3.61-1.26,2.34-5.55.18-7.44a1.1,1.1,0,0,0-1.52,0,3.29,3.29,0,0,0-.43,4.23,1.07,1.07,0,0,0,1.94-.25,9.39,9.39,0,0,0-.47-6.29c-.41-1-2.19-1-2.07.28a4.27,4.27,0,0,0,2.3,3.71,1.06,1.06,0,0,0,1.53-1.18c-.72-3.84-5.38-3.59-8.34-2.79l.79,1.88a4.71,4.71,0,0,1,4-1,1,1,0,0,0,.88-.51l.2-.31a1,1,0,0,0-.16-1.23c-2.26-2.39-4.91,2.12-.29,3.46l-.24-1.85-1.29-.23-.71,1.72,2.4.66v-1.74a7,7,0,0,1-5.17.62l.44,1.67,2.8-1.46c1-.33.91-2.11-.26-2a14.35,14.35,0,0,1-5.61-.36l.23,1.82c2.46.94,2.44,1.38,0,1.3a6.55,6.55,0,0,1-3.57-1.09v1.69a9.5,9.5,0,0,1,10.63-.5v-1.58l-3.69.79-.22,1.63c2.05,0,4.09-.12,6.13-.19a.61.61,0,0,0,0-1.22Z"/><path class="cls-2" d="M429.22,305.33c0,.12-.08.25-.11.37a4.08,4.08,0,0,0-.11.55,2.67,2.67,0,0,0,.09.89,1.74,1.74,0,0,0,1.46,1.27,1.72,1.72,0,0,0,1.72-1.2,1.43,1.43,0,0,0-1-1.82,1.1,1.1,0,1,0-.58,2.12.83.83,0,0,1-.56-.95c.1-.35,0-.08,0,0s0,0,.08-.09c-.08.08-.06.07.07,0l-.21.12.5-.14c-.15,0,.06,0,.12,0l.11.08c.08,0-.06-.11,0,0a1.8,1.8,0,0,1-.06-.22,2,2,0,0,0-.06-.3,2.57,2.57,0,0,1,0-.48.74.74,0,0,0-1.45-.2Z"/><path class="cls-2" d="M431.24,306.72c.06,0,.11,0,0,0s.13.12,0,0c.05.12.06.15,0,.07s0,0,0,0,0,.38,0,.07c0,0,.05-.37,0-.15s0,0,0,0l.06-.18c0,.11-.1.11,0,.05a.5.5,0,0,0,.08-.12s-.13.17,0,.05a.9.9,0,0,0,.1-.09c-.12.09-.15.11-.08.07s0,0-.05,0a.34.34,0,0,1-.2,0c-.25,0,.12.05-.09,0s.1.14-.13-.08c0,0-.15-.22-.08-.1a.94.94,0,0,1-.11-.37c0,.15,0-.14,0-.16,0,.15,0-.1,0-.12-.09.17.15-.17.06-.07s-.07.13,0,0,.07,0,0,0l-.11.06s-.13.05-.14.07.3-.1.13-.06.21,0,.07,0,.19,0,.19,0,.33.15.16.06a1.65,1.65,0,0,1,.24.21s.17.36.12.21a1.23,1.23,0,0,0-2.42.32,1.67,1.67,0,0,0,1.23,1.64,2,2,0,0,0,1.59-.31c.93-.63,1.51-2,.64-2.95a1.89,1.89,0,0,0-3,.48,2.31,2.31,0,0,0-.32,1.66l.05.12c0,.05,0,.09,0,.13a2.06,2.06,0,0,0,.21.42,1.65,1.65,0,0,0,.68.6.94.94,0,0,0,.95-1.62Z"/><path class="cls-2" d="M429.91,305.71a4.11,4.11,0,0,0,.15.92l.36.87v-.64l0,.11a1.3,1.3,0,0,0,1.89,1.45,1.28,1.28,0,0,0-.31-2.35l-.09,0,.72.55c-.17-.29-.33-.59-.51-.88a5.38,5.38,0,0,0-.75-.82.86.86,0,0,0-1-.13.9.9,0,0,0-.39,1Z"/><path class="cls-2" d="M430.89,307a20.68,20.68,0,0,0-.64-2.58l-.77,1.35s.3-.16.15-.06-.1,0,0,0,.07,0,0,0a.69.69,0,0,1,.24.24l-.16-.57c0-.17.05-.16,0,0a.94.94,0,0,0,0,.5c.08.23,0-.09,0,.05s.05-.23,0,.06a1.29,1.29,0,0,0,0,.73,1.16,1.16,0,0,0,1.39.78,1.54,1.54,0,0,0,1.06-1.62,2,2,0,0,0-.23-1l-.19-.25c-.28-.23-.33-.26-.15-.1s.12.14.06.05l-.21-.27a2.35,2.35,0,0,0-2.86-.61,1.08,1.08,0,0,0-.5,1.23,21.93,21.93,0,0,0,1.25,2.64c.46.85,1.68.24,1.5-.64Z"/><path class="cls-2" d="M430.68,306.81c.51-.33,1-.6,1.54-.94a1.14,1.14,0,0,0-.27-2.05,18.28,18.28,0,0,0-3.58-1.24,1.24,1.24,0,0,0-1.45.71,1.22,1.22,0,0,0,.5,1.54,18.38,18.38,0,0,0,3.94,1.15l-.5-1.87c-.42.45-.77.95-1.17,1.41-.59.66.17,1.82,1,1.29Z"/><path class="cls-2" d="M426.87,303.56c1.61.31,4,.12,4.56,2.1.26.92-.6,7.2-2.62,5.31l-1.55,2,1.71.89,1-2.35a16,16,0,0,1-5.58-2,1.32,1.32,0,0,0-1.79,1.8,7.62,7.62,0,0,0,3.58,3.15,1.31,1.31,0,0,0,1.32-2.26l-2.85-1.79-1.31,2.26c.82.39,1.64.78,2.48,1.15,1.45.65,2.75-1.41,1.28-2.18-.81-.43-1.63-.83-2.45-1.23a1.31,1.31,0,0,0-1.31,2.26l2.84,1.79,1.32-2.26a5.41,5.41,0,0,1-2.64-2.22l-1.79,1.8a17.88,17.88,0,0,0,6.22,2.25c1.32.22,2.39-1.63,1-2.35l-1.72-.88c-1.24-.64-2.67,1-1.55,2a3.54,3.54,0,0,0,4.55.31c1.7-1.17,2.11-3.43,2.29-5.34.43-4.38-2.79-6.69-7-6a.93.93,0,0,0,0,1.77Z"/><path class="cls-2" d="M411.78,304.3a2,2,0,0,0,1,1.12,3.69,3.69,0,0,0,1.53.39,1,1,0,0,0,.72-1.74,4.56,4.56,0,0,0-2.55-1.2,1.13,1.13,0,0,0-.3,2.21,3.85,3.85,0,0,1,1.62.59l.51-1.89a5.18,5.18,0,0,1-1.69-.29c-.45-.09-1,.3-.81.81Z"/><path class="cls-2" d="M414.39,248.49c-3.8,1.84.67,7.5,2.86,8.72,3.92,2.17,8.61.47,11-3.11l-2.74-.74c-.1,1.67-.5,3.23-2.3,3.52a8.75,8.75,0,0,1-4.07-.32c-2.62-1-3.32-4.09-2.3-6.48a1.5,1.5,0,0,0-2.59-1.52c-3.44,4.49,0,10.6,5.28,11.16a8.52,8.52,0,0,0,6.93-2.39c1.56-1.56,2.92-4.45,1.68-6.56a1.52,1.52,0,0,0-2.05-.53l-.17.09a1.53,1.53,0,0,0-.69,1.69l.05.15c.54,1.85,3.44,1.07,2.89-.79l0-.15-.69,1.69.17-.09-2.06-.54c.66,1.11-1.26,3.09-2,3.58a5.62,5.62,0,0,1-4.09.83,4.09,4.09,0,0,1-2.62-6.62l-2.59-1.52c-1.76,4.15-.57,9.36,4.1,10.88,2,.66,5.36.92,7.34,0s2.65-4.12,2.76-6.12c.08-1.53-2-1.9-2.74-.74a5.51,5.51,0,0,1-6.05,2.51,5.65,5.65,0,0,1-2.77-1.88c-.36-.45-1.65-2.26-1-2.81,1.17-.92-.32-2.52-1.51-1.95Z"/><path class="cls-2" d="M418.54,248.91c1.35,1.29,3.84,1.37,5.59,1.27a1.3,1.3,0,0,0,.35-2.54,14.81,14.81,0,0,0-4.41-.86,1.36,1.36,0,0,0-.36,2.65,31.74,31.74,0,0,0,5.42,1.24,1.26,1.26,0,0,0,.63-2.33,32.44,32.44,0,0,0-5.33-1.51l-.36,2.64a12.4,12.4,0,0,1,3.72.67l.34-2.55a19.68,19.68,0,0,1-2.77.06,8.31,8.31,0,0,0-2.49,0,.74.74,0,0,0-.33,1.23Z"/><path class="cls-2" d="M416.72,248.67c-2.28,2.27-.6,6.35,2,7.57,3.11,1.46,6.93-.79,7.55-4.06h-2.69c.29,1.58-2.5,1.62-3.31,1.12s-1.16-2.26,0-2.7l-1.59-2.06a3.74,3.74,0,0,0-.41,1.16c-.19,1.16,1.18,2.27,2.13,1.25a3.82,3.82,0,0,0,.71-1c.49-1-.35-2.52-1.59-2.07a4.37,4.37,0,0,0-.72,7.85c3.09,1.83,8.37-.19,7.43-4.3-.29-1.27-2.49-1.39-2.69,0-.25,1.77-2.07,3.32-3.9,2.54s-1.88-2.86-1.58-4.51a.83.83,0,0,0-1.37-.8Z"/><path class="cls-2" d="M420.07,248.75c-1.61-.27-2.66,1.32-2.83,2.75a3.68,3.68,0,0,0,2.3,3.84,4.48,4.48,0,0,0,4.67-.69c1.34-1.17,2-3.74.14-4.79a1.26,1.26,0,0,0-1.84,1.41c.26.78.67,1.31-.23,1.85a2.18,2.18,0,0,1-2,.1,1.55,1.55,0,0,1-1-1.58c.07-.77.63-1.16,1.07-1.71.28-.37.27-1.08-.31-1.18Z"/><path class="cls-2" d="M397.22,343.65c-1.92,8.58.46,17.41,4.95,24.86,4.71,7.8,12.15,13.26,18.11,20,12.35,14,20.27,32.34,18.17,51.29-2.13,19.2-15,34.62-26.41,49.28C400.36,504,390,520.41,371.55,527.54c-9,3.48-18.52,5.4-28,7.1s-20.53,2.24-29,7.43c-7.09,4.34-.62,15.49,6.53,11.17,7.32-4.41,17.7-4.52,26-6,9-1.56,18-3.33,26.55-6.4a74.9,74.9,0,0,0,23.45-13.1c7.94-6.73,14-15.51,20.31-23.68,12.06-15.59,25.84-31.18,31.65-50.4,5.86-19.39,1.32-40.65-8.68-57.86a103.91,103.91,0,0,0-19.78-24.13c-4.14-3.8-8.22-7.28-11-12.28-2.65-4.84-3.66-10.42-4.77-15.77-.79-3.79-6.76-3.73-7.6,0Z"/><path class="cls-2" d="M391.14,374.66a1.45,1.45,0,0,0,.77-.17,1.5,1.5,0,0,0,.64-.41,1.52,1.52,0,0,0,.42-.64,1.55,1.55,0,0,0,.17-.77l-.07-.53a2,2,0,0,0-.52-.88l-.4-.31a2,2,0,0,0-1-.27,2.21,2.21,0,0,0-1.4.58,1.49,1.49,0,0,0-.42.64,1.58,1.58,0,0,0-.17.77l.07.53a2,2,0,0,0,.52.88l.4.31a2,2,0,0,0,1,.27Z"/><path class="cls-2" d="M393.38,379.5c2.56,0,2.56-4,0-4s-2.57,4,0,4Z"/><path class="cls-2" d="M393.89,381.7c0,.09.05.18.07.27a1.94,1.94,0,1,0,2.39-2.39l-.27-.07a1.78,1.78,0,0,0-2.19,2.19Z"/><path class="cls-2" d="M396,384.58l0,.34a1,1,0,0,0,.12.54,1.23,1.23,0,0,0,.75.75,1,1,0,0,0,.54.12l.37-.05a1.53,1.53,0,0,0,.63-.36l.22-.29a1.48,1.48,0,0,0,.19-.71l0-.34a1.07,1.07,0,0,0-.12-.56,1.29,1.29,0,0,0-.77-.77,1.18,1.18,0,0,0-.56-.13l-.39.06a1.39,1.39,0,0,0-.64.37l-.23.29a1.46,1.46,0,0,0-.19.74Z"/><path class="cls-2" d="M395.83,391.51c4.25-3.84,10.57-2.77,12.59,2.95.82,2.29.93,5.36-.86,7.25s-4.76,1.85-7.11,1.58c-1.66-.18-1.65,2.42,0,2.61,3.37.37,7.27-.11,9.47-3s1.95-7,.53-10.1c-2.78-6.11-12.05-8.92-16.2-2.49-.64,1,.76,2,1.58,1.22Z"/><path class="cls-2" d="M387.37,392.33C375.25,390.9,374.9,413,387,412.64c4.9-.13,8.75-4.29,9.28-9a11.12,11.12,0,0,0-9.53-12.18c-1.81-.3-2.59,2.48-.76,2.78,4,.66,7.25,3.44,7.57,7.71a7.42,7.42,0,0,1-5.85,8c-4.58.84-7.56-4-7.53-8.13,0-4.64,3.36-7,7.41-8.21a.66.66,0,0,0-.17-1.29Z"/><path class="cls-2" d="M376.68,396.07c-7.56-6.48-16.2,5.26-12.73,12.58.82,1.75,3.41.22,2.59-1.51-2-4.22,3.25-13,8-8.95,1.46,1.25,3.59-.87,2.12-2.12Z"/><path class="cls-2" d="M388.12,396a6.89,6.89,0,0,0-6.49,6.89,5.63,5.63,0,0,0,7.44,5.57c3.66-1.24,5-5.88,3.28-9.16-1.85-3.46-6.83-4-8.33,0-.5,1.35,1.34,2.15,2.26,1.32l1.59-1.45-2.1-1.62a17.38,17.38,0,0,1-1.95,3.33c-.91,1.22,1,2.61,2.07,1.59l1.62-1.6-2.05-1.58-1.72,3.1c-.67,1.22,1.05,2.71,2,1.55a14.06,14.06,0,0,1,2.31-2.25L386.34,400a13.17,13.17,0,0,1-1.84,2.9,1.26,1.26,0,0,0,1.78,1.78,21,21,0,0,0,2.89-2.85l-2-1.51-2.91,4c-.73,1,.72,2.44,1.71,1.71l3.2-2.37-1.71-1.7-3.17,4.58c-.64.92.41,2.09,1.41,1.83a7,7,0,0,0,5.18-7.34l-2.14.89c1,1.14.4,1.74.24,2.94-.2,1.53,0,1.34.84.74a3.83,3.83,0,0,0,1.43-2.23,4.23,4.23,0,0,0-2.11-4.76c-1.47-.74-2.76,1.48-1.29,2.21a1.64,1.64,0,0,1,.55,2.61c-.59.64-1.44.73-1.8,1.61a2.08,2.08,0,0,0,1.95,2.79c3.94.05,3.75-5.58,2-7.68a1.27,1.27,0,0,0-2.14.88,4.45,4.45,0,0,1-3.34,4.94l1.41,1.83,3.17-4.59c.69-1-.7-2.44-1.7-1.7l-3.21,2.36,1.71,1.71,2.92-4c.84-1.14-1.05-2.61-2-1.52a20.49,20.49,0,0,1-2.9,2.84l1.78,1.78a17.16,17.16,0,0,0,2.24-3.41c.51-1-.61-2.54-1.72-1.72A15.67,15.67,0,0,0,384,402.2l2,1.55,1.75-3.08a1.3,1.3,0,0,0-2-1.57L384,400.68l2.07,1.6a17.62,17.62,0,0,0,2-3.31,1.34,1.34,0,0,0-2.1-1.62l-1.61,1.43,2.26,1.31c.66-1.71,2.64-.67,3.3.31a4.13,4.13,0,0,1,.56,3,3.49,3.49,0,0,1-4.33,2.87c-2.21-.66-2.69-3.34-1.94-5.25a6.44,6.44,0,0,1,4.08-3.65.7.7,0,0,0-.18-1.36Z"/><path class="cls-2" d="M401.69,394.66c-.43-1.94,2-1.69,2.89-1.11a5.2,5.2,0,0,1,1.79,2c.77,1.48.86,3.52-.76,4.47a2.72,2.72,0,0,1-3-4.52L401,393.87l-1,1.56c-.59.95.65,2.36,1.62,1.62l2.22-1.69L402.08,394a10.78,10.78,0,0,1-1.7,3.3c-.85,1.14.91,2.26,1.86,1.44l2.78-2.41-1.85-1.43L401,398.42a1.18,1.18,0,0,0,1.6,1.6l2.57-1.66-1.59-1.59-2.17,3.88a1.16,1.16,0,0,0,1.57,1.58l2.86-1.82-1.57-1.57a1.74,1.74,0,0,1-1.5.89l1.11,1.9c2.06-1.8,3.86-4.47,1.71-6.95l-1.44,1.86a1.88,1.88,0,0,1,.82,2.82l2.08.86c-.34-2.94,0-6.88-3.86-7.43a4.1,4.1,0,0,0-3.51,1.07c-1.14,1.23-.26,4.15-.12,5.69l2.27-.62-1.69-3.65L398.46,397a3.53,3.53,0,0,1,1.33,4h2.35c-.2-.54-1.79-7-.3-6.67l-.54-2.05c-2.38,1.85-3,5.72-.72,7.88a1,1,0,0,0,1.64-1.26c-.89-1.74-.8-3.63.81-4.89a1.24,1.24,0,0,0-.54-2.05c-5.33-1.3-3.6,7.17-2.7,9.69a1.23,1.23,0,0,0,2.35,0,6.06,6.06,0,0,0-2.45-6.74c-1.09-.77-2.12.68-1.66,1.67l1.68,3.65a1.23,1.23,0,0,0,2.27-.61l-.25-3c-.09-1-.1-1.67,1.25-1.34,1.95.48,1.45,3.51,1.63,5,.1.91,1.34,1.78,2.08.86a4.26,4.26,0,0,0-1.35-6.59,1.2,1.2,0,0,0-1.44,1.87c1.19,1.31-.76,2.9-1.64,3.66s.1,2.07,1.11,1.9a4,4,0,0,0,2.87-1.93c.64-.95-.62-2.16-1.57-1.56l-2.86,1.8,1.58,1.58,2.18-3.87a1.17,1.17,0,0,0-1.59-1.59L401.41,398l1.6,1.6,2.19-3.5c.74-1.19-.88-2.26-1.85-1.42l-2.79,2.39,1.87,1.44a12.54,12.54,0,0,0,1.95-3.86c.29-.92-.91-2-1.75-1.35l-2.22,1.7,1.63,1.63,1-1.57c.58-.95-.65-2.35-1.62-1.62-2.41,1.81-3.12,5.46-.86,7.72a5.15,5.15,0,0,0,7.59-.75c1.95-2.87.17-6.88-2.57-8.52-2.48-1.49-6.75-.06-5.21,3.34.35.8,1.51.21,1.35-.57Z"/><path class="cls-2" d="M377,402.27c3.62,0,3.62-5.62,0-5.62s-3.63,5.62,0,5.62Z"/><path class="cls-2" d="M373.75,403.55v.34a2.82,2.82,0,0,0,1.77,2.64,2.27,2.27,0,0,0,1.12.25l.76-.11a2.78,2.78,0,0,0,1.27-.74l.45-.58a2.79,2.79,0,0,0,.4-1.46v-.34a3.21,3.21,0,0,0-.85-2,2.11,2.11,0,0,0-.92-.59,2.15,2.15,0,0,0-1.11-.25l-.77.1a2.87,2.87,0,0,0-1.27.74l-.45.59a2.85,2.85,0,0,0-.4,1.45Z"/><path class="cls-2" d="M378.7,409.33l.08-.21-1,1.33.05,0a1.87,1.87,0,0,0,.65-.6,1.13,1.13,0,0,0,.29-.51,1.64,1.64,0,0,0,.2-.89l-.08-.62-.23-.55a1.79,1.79,0,0,0-.6-.65,1.12,1.12,0,0,0-.51-.3,1.74,1.74,0,0,0-.89-.2l-.62.08-.55.23a1.9,1.9,0,0,0-.66.6,1.19,1.19,0,0,0-.29.51,1.75,1.75,0,0,0-.2.9l.08.61.23.56a2.47,2.47,0,0,0,.84.83l0,0-1-1.33.07.21.21.51a1.62,1.62,0,0,0,.56.6,1,1,0,0,0,.47.28,1.66,1.66,0,0,0,.83.18l.57-.07.51-.22a1.59,1.59,0,0,0,.6-.55,1.56,1.56,0,0,0,.38-.73Z"/><path class="cls-2" d="M383,417.14c3.12,0,3.13-4.85,0-4.85s-3.13,4.85,0,4.85Z"/><path class="cls-2" d="M387.42,417.4c3,0,3-4.64,0-4.64s-3,4.64,0,4.64Z"/><path class="cls-2" d="M391.14,415.78c2.81,0,2.81-4.36,0-4.36s-2.81,4.36,0,4.36Z"/><path class="cls-2" d="M394.12,413.49a1.76,1.76,0,0,0,0-3.51,1.76,1.76,0,0,0,0,3.51Z"/><path class="cls-2" d="M395.61,411.59c3.17,0,3.17-4.92,0-4.92s-3.17,4.92,0,4.92Z"/><path class="cls-2" d="M396.29,404.88l-.07.17,0,.08c-.07.16-.14.32-.2.48a2.5,2.5,0,0,0-.07.54,1.47,1.47,0,0,0,.16.75,1.73,1.73,0,0,0,1,1,1.47,1.47,0,0,0,.74.17l.52-.07a1.94,1.94,0,0,0,.85-.5l.3-.39a1.87,1.87,0,0,0,.26-1,2,2,0,0,0-.07-.54c-.06-.16-.13-.32-.2-.48l0-.08-.07-.17a1.75,1.75,0,0,0-1.55-.89,1.78,1.78,0,0,0-.9.24,1.84,1.84,0,0,0-.65.65Z"/><path class="cls-2" d="M397.84,403.91c2.85,0,2.86-4.43,0-4.43s-2.85,4.43,0,4.43Z"/><path class="cls-2" d="M396.73,399.6c2.57,0,2.58-4,0-4s-2.59,4,0,4Z"/><path class="cls-2" d="M396,396.46c2.85,0,2.86-4.43,0-4.43s-2.85,4.43,0,4.43Z"/><path class="cls-2" d="M391.89,393.38c2.71,0,2.72-4.22,0-4.22s-2.72,4.22,0,4.22Z"/><path class="cls-2" d="M387.8,391.52c2.71,0,2.72-4.22,0-4.22s-2.72,4.22,0,4.22Z"/><path class="cls-2" d="M384.08,392.85c3,0,3-4.64,0-4.64s-3,4.64,0,4.64Z"/><path class="cls-2" d="M377.1,391.06l-.09.26,1.07-1.38a.86.86,0,0,0-.27.2,1.69,1.69,0,0,0-.61.66l-.23.56a1.78,1.78,0,0,0-.05.94,1.83,1.83,0,0,0,.28.88l.37.48a2.74,2.74,0,0,0,1.67.69l.63-.09a1.77,1.77,0,0,0,.8-.42,1.93,1.93,0,0,0,.61-.66l.23-.56a1.78,1.78,0,0,0,.05-.94,1.83,1.83,0,0,0-.28-.88l-.37-.48a1.7,1.7,0,0,0-.51-.38l1.06,1.38-.08-.26-.23-.53a1.62,1.62,0,0,0-.57-.62,1.07,1.07,0,0,0-.49-.29,1.66,1.66,0,0,0-.85-.19l-.59.08-.53.22a2.49,2.49,0,0,0-1,1.33Z"/><path class="cls-2" d="M376.23,393.76a2.77,2.77,0,0,0-.29.22,1.18,1.18,0,0,0-.43.43,1.21,1.21,0,0,0-.31.52,1.18,1.18,0,0,0-.16.61,1.86,1.86,0,0,0-.05.34l.09.63v.08l0,.14.24.55a1.68,1.68,0,0,0,.59.65,1.1,1.1,0,0,0,.52.3,1.69,1.69,0,0,0,.89.2l.62-.08.55-.24a1.68,1.68,0,0,0,.65-.59,1.83,1.83,0,0,0,.42-.79,2.37,2.37,0,0,0,.14-.85v0l-.08-.63-.24-.57-.38-.48-.48-.38h0l0,0a2.3,2.3,0,0,0-2.3,0Z"/><path class="cls-2" d="M391.84,387.55l-.28.43-.22.5a1.5,1.5,0,0,0,0,.84,1,1,0,0,0,.14.53,1.46,1.46,0,0,0,.44.68l.42.33.51.22a1.6,1.6,0,0,0,.84,0,1.47,1.47,0,0,0,.78-.25l.43-.28a2.3,2.3,0,0,0,.79-.79,2.21,2.21,0,0,0,.3-1.12l-.08-.59a2.24,2.24,0,0,0-.56-1,2.49,2.49,0,0,0-1.57-.65,2.33,2.33,0,0,0-1.12.31,2.14,2.14,0,0,0-.79.79Z"/><path class="cls-2" d="M394.28,385.82l-.28.42-.19.45a1.33,1.33,0,0,0,0,.74.88.88,0,0,0,.13.47,1.37,1.37,0,0,0,.38.6l.38.29.44.19a1.37,1.37,0,0,0,.75,0,1.34,1.34,0,0,0,.69-.22l.42-.28a1.93,1.93,0,0,0,.71-.71,1.91,1.91,0,0,0,.27-1l-.07-.52a1.83,1.83,0,0,0-.51-.87,1.44,1.44,0,0,0-.63-.41,1.52,1.52,0,0,0-.76-.17,1.91,1.91,0,0,0-1,.27,1.93,1.93,0,0,0-.71.71Z"/><path class="cls-2" d="M400.07,411.2c3.62,0,3.63-5.63,0-5.63s-3.62,5.63,0,5.63Z"/><path class="cls-2" d="M404.17,410.51c3.21,0,3.21-5,0-5s-3.22,5,0,5Z"/><path class="cls-2" d="M408.63,408.81c2.94,0,2.95-4.57,0-4.57s-2.95,4.57,0,4.57Z"/><path class="cls-2" d="M412,405a1.83,1.83,0,0,0,0-3.66,1.83,1.83,0,0,0,0,3.66Z"/><path class="cls-2" d="M413.09,401c2.9,0,2.91-4.5,0-4.5s-2.9,4.5,0,4.5Z"/><path class="cls-2" d="M412.72,397.48c2.72,0,2.72-4.22,0-4.22s-2.72,4.22,0,4.22Z"/><path class="cls-2" d="M361.75,410.21a2,2,0,0,0,1-.22,2,2,0,0,0,.83-.53,1.88,1.88,0,0,0,.53-.83,2,2,0,0,0,.22-1l-.09-.68a2.54,2.54,0,0,0-.66-1.13l-.52-.4a2.46,2.46,0,0,0-1.3-.35,2.62,2.62,0,0,0-2.56,2.56l.09.69a2.54,2.54,0,0,0,.66,1.13l.52.4a2.55,2.55,0,0,0,1.29.35Z"/><path class="cls-2" d="M374.63,412.1l-.35.07-.45.19a1.5,1.5,0,0,0-.52.48,1,1,0,0,0-.24.41,1.46,1.46,0,0,0-.16.72l.07.49.19.45a1.27,1.27,0,0,0,.48.52,1.28,1.28,0,0,0,.63.33l.35.07a2,2,0,0,0,1,0,1.89,1.89,0,0,0,.85-.5l.31-.39a1.93,1.93,0,0,0,.26-1,2.16,2.16,0,0,0-.57-1.37,1.89,1.89,0,0,0-.85-.5,2,2,0,0,0-1,0Z"/><path class="cls-2" d="M362.5,398.94c3.16,0,3.17-4.92,0-4.92s-3.17,4.92,0,4.92Z"/><path class="cls-2" d="M366.22,397.88a3.21,3.21,0,0,0,2-.85,2.09,2.09,0,0,0,.59-.93,2.11,2.11,0,0,0,.25-1.11l-.1-.76a2.91,2.91,0,0,0-.74-1.27l-.59-.46a2.84,2.84,0,0,0-1.45-.39,2.21,2.21,0,0,0-1.11.25,2.11,2.11,0,0,0-.93.6,2.23,2.23,0,0,0-.6.92,2.15,2.15,0,0,0-.24,1.11l.1.77a2.87,2.87,0,0,0,.74,1.27l.58.45a3,3,0,0,0,1.46.4Z"/><path class="cls-2" d="M370.31,395.59c3.17,0,3.17-4.92,0-4.92s-3.17,4.92,0,4.92Z"/><path class="cls-2" d="M371.53,393.63l.16.28a2.15,2.15,0,0,0,.82.82,2.23,2.23,0,0,0,2.3,0,2.15,2.15,0,0,0,.82-.82l.15-.28a2.43,2.43,0,0,0,0-2.48,2.46,2.46,0,0,0-2.12-1.22,2.49,2.49,0,0,0-2.13,1.22,2.49,2.49,0,0,0,0,2.48Z"/><path class="cls-2" d="M393,373.6l0,.32a1.93,1.93,0,0,0,.22,1,1.9,1.9,0,0,0,.54.84,1.88,1.88,0,0,0,.83.53,2,2,0,0,0,1,.23l.69-.09a2.73,2.73,0,0,0,1.15-.67l.4-.53a2.53,2.53,0,0,0,.36-1.31l0-.32a1.94,1.94,0,0,0-.22-1,2.42,2.42,0,0,0-1.4-1.4,2.06,2.06,0,0,0-1-.23l-.7.1a2.57,2.57,0,0,0-1.17.68l-.41.53a2.6,2.6,0,0,0-.36,1.33Z"/><path class="cls-2" d="M399.7,381.37l.17.7.17.42a1.35,1.35,0,0,0,.46.49,1.64,1.64,0,0,0,1.06.38,2.31,2.31,0,0,0,.89-.24,1.81,1.81,0,0,0,.81-1.05l.17-.7a2,2,0,0,0-.5-1.88,2,2,0,0,0-1.37-.57,2,2,0,0,0-1.37.57,2,2,0,0,0-.49,1.88Z"/><path class="cls-2" d="M400.5,383.83l0,.35a1.55,1.55,0,0,0,.19.82,1.49,1.49,0,0,0,.44.69,1.72,1.72,0,0,0,.69.45,1.68,1.68,0,0,0,.83.18l.57-.08a2,2,0,0,0,.94-.55l.34-.43a2.19,2.19,0,0,0,.29-1.08l0-.35a1.62,1.62,0,0,0-.19-.84,2,2,0,0,0-1.15-1.15,1.62,1.62,0,0,0-.84-.19l-.58.08a2.12,2.12,0,0,0-1,.56l-.34.44a2.14,2.14,0,0,0-.3,1.1Z"/><path class="cls-2" d="M387,369.41l.06.3a2.39,2.39,0,0,0,.61,1,2.43,2.43,0,0,0,1,.61,2.68,2.68,0,0,0,1.26,0,2.56,2.56,0,0,0,1-.61,2.37,2.37,0,0,0,.6-1l.07-.3a2.56,2.56,0,0,0,0-1.29,2.48,2.48,0,0,0-.63-1.07l-.49-.38a2.38,2.38,0,0,0-1.22-.33,1.88,1.88,0,0,0-.94.21,1.81,1.81,0,0,0-.78.5,2.43,2.43,0,0,0-.62,2.36Z"/><path class="cls-2" d="M390.55,370.66l.14.7.21.5a1.64,1.64,0,0,0,.53.58,1,1,0,0,0,.46.27,1.57,1.57,0,0,0,.8.18,2.49,2.49,0,0,0,1-.29,1.59,1.59,0,0,0,.59-.53,1.67,1.67,0,0,0,.37-.71l.13-.7a2.15,2.15,0,0,0,0-1.18,2.12,2.12,0,0,0-.57-1,2.27,2.27,0,0,0-1.56-.65,2.22,2.22,0,0,0-2.14,1.63,2.36,2.36,0,0,0,0,1.18Z"/><path class="cls-2" d="M406,382.11a1.37,1.37,0,0,0,0-2.74,1.37,1.37,0,0,0,0,2.74Z"/><path class="cls-2" d="M406.83,383.58l.07.36.18.43a1.47,1.47,0,0,0,.46.5,1,1,0,0,0,.4.23,1.34,1.34,0,0,0,.69.15l.48-.06.43-.18a1.47,1.47,0,0,0,.5-.46,1.44,1.44,0,0,0,.32-.61l.07-.36a1.85,1.85,0,0,0,0-1,1.9,1.9,0,0,0-.48-.82l-.38-.29a1.81,1.81,0,0,0-.94-.25,2.1,2.1,0,0,0-1.32.54,1.9,1.9,0,0,0-.48.82,1.85,1.85,0,0,0,0,1Z"/><path class="cls-2" d="M408.15,388.53l.42.18.54.23a1.8,1.8,0,0,0,.89,0,1,1,0,0,0,.57-.16,1.71,1.71,0,0,0,.73-.46l.35-.46.23-.53a1.83,1.83,0,0,0,0-.9,1.81,1.81,0,0,0-.27-.84l-.18-.42a2.59,2.59,0,0,0-.87-.87,2.41,2.41,0,0,0-1.23-.33l-.64.09a2.36,2.36,0,0,0-1.07.62,1.81,1.81,0,0,0-.5.78,1.88,1.88,0,0,0-.21.94,2.42,2.42,0,0,0,1.2,2.09Z"/><path class="cls-2" d="M411.23,391.53a1.37,1.37,0,0,0,0-2.74,1.37,1.37,0,0,0,0,2.74Z"/><path class="cls-2" d="M409.46,393.36A6.63,6.63,0,0,0,410.9,396a2,2,0,0,0,3.36-1.39,5.13,5.13,0,0,0-.67-2.43,2.4,2.4,0,0,0-1-1.28,2.17,2.17,0,0,0-1.65-.21,2.19,2.19,0,0,0-1.29,1,2,2,0,0,0-.21,1.65Z"/><path class="cls-2" d="M412.35,397.23l.37,0a1.44,1.44,0,0,0,.71-.15,1.5,1.5,0,0,0,.59-.38,1.41,1.41,0,0,0,.37-.59,1.31,1.31,0,0,0,.16-.7l-.06-.49a1.94,1.94,0,0,0-.47-.81l-.37-.28a1.8,1.8,0,0,0-.93-.25l-.37,0a1.46,1.46,0,0,0-.72.16,1.49,1.49,0,0,0-.6.39,2.1,2.1,0,0,0-.54,1.32l.06.49a1.84,1.84,0,0,0,.48.82l.38.29a1.82,1.82,0,0,0,.94.26Z"/><path class="cls-2" d="M399.82,378.34a4.41,4.41,0,0,0-.8-1.06,2.15,2.15,0,0,0-.85-.5l-.52-.07a1.37,1.37,0,0,0-.74.17.92.92,0,0,0-.43.24,1,1,0,0,0-.34.35,1.86,1.86,0,0,0-.42,1.17,3.32,3.32,0,0,0,.15.89l.16.41a2,2,0,0,0,.53.91l.42.33a2.11,2.11,0,0,0,1,.28,1.59,1.59,0,0,0,.8-.18,1.91,1.91,0,0,0,1.09-1.09,1.59,1.59,0,0,0,.18-.8,2,2,0,0,0-.28-1.05Z"/><path class="cls-2" d="M327.88,396.65a4.85,4.85,0,0,0,2.94-1.82l-2.51-1.46c-1.42,4.71,4.54,5.67,6.7,2.07l-2.74-.36c.82,3.2,5.08,7,7.07,2.34l-2.8-.75c.45,3.33,4,7.08,6.41,3l-2.74-.36c.78,4.27,5.8,5.42,7.54,1.24l-2.95-.4c.07,1.34.06,3.09,1.22,4,1.67,1.29,5.06-1.08,6.23.9a1.52,1.52,0,0,0,2.36.3l1.84-2.16-2.5-.66c.51,3.67,3.6,4.11,6.82,4.27,1.93.09,1.93-2.91,0-3-1.57-.08-3.62.17-3.93-2.07a1.51,1.51,0,0,0-2.51-.66l-1.84,2.16,2.35.3a4.09,4.09,0,0,0-3.2-2.42c-1.42-.22-3.73,1.17-3.84-.94a1.51,1.51,0,0,0-2.95-.39l-1.74-1.25a1.52,1.52,0,0,0-2.75-.36l-.82-1.49c-.17-1.25-2.13-2.32-2.79-.76-1.07-.1-1.6-.65-1.59-1.63a1.52,1.52,0,0,0-2.74-.36l-1.22.25a1.51,1.51,0,0,0-2.51-1.46l-1.61,1.05c-1.83.59-1,3.49.8,2.89Z"/><path class="cls-2" d="M321.17,388.85c-.93,1.51-.55,3.39,1.34,3.81a5.08,5.08,0,0,0,4.26-1.18l-2.12-2.13a4.41,4.41,0,0,0-.62,5.77c1.11,1.57,3.71.07,2.59-1.51a1.46,1.46,0,0,1,.15-2.13c1.43-1.31-.69-3.41-2.12-2.13.11-.09-.34.2-.43.23a3.33,3.33,0,0,1-.7.16c-.13,0-.27,0-.39,0,.12,0,0-.08.11,0l.12.1a.86.86,0,0,1,.24.8c-.05,0,.19-.36.16-.31,1-1.65-1.57-3.16-2.59-1.52Z"/><path class="cls-2" d="M322.1,388.83l2.45-.33c0,.76,1.12,1.4,1.67.69l3.57.73a1.14,1.14,0,0,0,1.67.67l4.13,1.39a1.19,1.19,0,0,0,2.15.28c1.46-2.2,2.54,1.52,3.95,2.22a1.24,1.24,0,0,0,1.68-.44l2.3,1a1.27,1.27,0,0,0,1.85.76l4.44.95a1.31,1.31,0,0,0,2.24,0l2.78-.28c.09.79.8,1.61,1.69,1.29,1.54-.56,2.18-1.58,2.07,1.74-.06,1.74,2.59,1.72,2.69,0s.44-4.89-1.48-5.8-2.55.95-4,1.48l1.7,1.29c-.57-4.82-5.45-4.85-7.7-1h2.24a5.25,5.25,0,0,0-7.95-1.82l1.85.75c-.87-3.42-5.07-5.7-6.85-1.52l1.68-.44c-1.6-.77-1.35-3.25-3.32-3.74s-3,1.1-3.9,2.44l2.15.28c-1.21-3.24-4.5-4.59-7.55-2.72l1.67.68c-.76-4.15-5.24-5-7.3-1.31l1.83.5c-.32-4.36-5.28-4.06-5.74.15-.09.77,1.14.91,1.33.18Z"/><path class="cls-2" d="M400.7,383.9c-.09,0-5.11-1.84-3.39-3,1-.67.74-2.54-.66-2.43l-1.91-1.81c.9-.91,0-2.69-1.31-2.24l-1.66-.82c.58-.92-.41-2.42-1.52-2-1.35-1.29-1.4-2.33-.13-3.12a1.33,1.33,0,0,0-1.88-1.87c-1.52,1.46-3.46,3.69-2.22,5.94a4,4,0,0,0,5,1.64l-1.52-2c-2.11,3.37,1.46,5.88,4.7,4.75l-1.31-2.23c-3.13,3.15,0,6.67,3.81,6.31l-.66-2.43c-1.46,1.06-2.25,2.63-1.29,4.4,1.11,2,3.69,2.44,5.76,2.62,1.08.09,1.07-1.39.24-1.73Z"/><path class="cls-2" d="M395.2,371.47c2.07,1.11,2.7,2.64,1.88,4.61a1.18,1.18,0,0,0,.83,1.46c2,.27,5.38,1.71,3.83,4.54a1.3,1.3,0,0,0,1.11,1.93q3.34-.11,3.41,3.46a1.38,1.38,0,0,0,1.32,1.74l.43.28c-.9,1.26,1.19,2.9,2.18,1.67,1.85-2.31.1-4.57-2.61-4.69l1.32,1.73c1.38-4-2.48-6.59-6-6.76l1.11,1.94c2.24-4.29-1.66-7.7-5.74-8.18l1.15,1.51c1.06-3.14-.73-5.47-3.58-6.63-.84-.35-1.26.94-.59,1.39Z"/><path class="cls-2" d="M322.64,386.21a3.62,3.62,0,0,0-1.87.69,4.33,4.33,0,0,0-1.33,1.58.9.9,0,0,0,.76,1.33,2.05,2.05,0,0,0,1.71-.91,5.42,5.42,0,0,1,.4-.54c-.05,0,.15-.06.14,0h0a.59.59,0,0,1-.31-.65.94.94,0,0,0,1.81.5c.44-1.17-.83-1.86-1.82-1.71a1.91,1.91,0,0,0-1.22.7c-.14.16-.49.87-.73.87l.85,1.12a3.58,3.58,0,0,1,1.9-1.79.63.63,0,0,0-.31-1.16Z"/><path class="cls-2" d="M323.44,388.86c-.52.2-1,.46-1.52.64,0,0-.16,0-.13,0v0c.23,0,.09.19-.4.53l-1.2-2.07a11.52,11.52,0,0,0-1.89,2.37c-.43,1,.53,2.3,1.59,1.59a11.05,11.05,0,0,0,2.05-2.21c.72-.86.07-2.5-1.2-2.06a2.14,2.14,0,0,0-.73,3.56c1.32,1.4,3.5.27,4.38-1.06a.85.85,0,0,0-.95-1.24Z"/><path class="cls-2" d="M376,391.44l.17.1c.1.06,0,0,0,0a1.14,1.14,0,0,1,.11.11c.15.15-.07-.11,0,.06l.3.35c-.1-.12,0,0,0,.06s.1.2,0,.06a.73.73,0,1,0,1.4-.39,2,2,0,0,0-.7-1.15,2.49,2.49,0,0,0-1.12-.38c-.61-.08-.84.89-.31,1.15Z"/><path class="cls-2" d="M377.15,391.22a2.62,2.62,0,0,0-.67.16c-.21.08-.42.18-.63.27a.75.75,0,0,0-.31,1,.77.77,0,0,0,.9.44c.2-.05.41-.09.61-.15a3.76,3.76,0,0,0,.67-.32.74.74,0,0,0,.31-.92.77.77,0,0,0-.88-.43Z"/><path class="cls-2" d="M383.1,392.52c.46-.45,1-.3,1.56-.47a.82.82,0,0,0,.2-1.48c-1.08-.55-2.24.24-2.85,1.12-.45.66.54,1.38,1.09.83Z"/><path class="cls-2" d="M389.94,389.67c.26-.21,1.53-1.67,1.9-.89.6,1.29,2.28.29,2.11-.89-.07-.46.61-.59.91-.49a1.19,1.19,0,0,0,1.47-.83c.17-.92.11-1.31,1-1a1,1,0,0,0,1.29-1v-.25a1.21,1.21,0,0,0-.6-1c-2.12-1.21-3.65.73-4,2.68l1.48-.84a2.94,2.94,0,0,0-3.78,3.41l2.11-.89c-1.38-2.72-4.54-.92-5.34,1.22-.33.9.86,1.33,1.45.84Z"/><path class="cls-2" d="M395.19,390.11c-2.34.31-3.59,2.92-3.54,5.06a1.05,1.05,0,0,0,2.06.28,8.11,8.11,0,0,1,.93-2.16c.28-.44.91-1.4,1.3-1.55,2.28-.91-.3-3.71-1.42-1.85-.48.82-1.27,1.46-1.76,2.3a10.08,10.08,0,0,0-1.07,2.71l2.06.27c-.1-1.72.89-2.67,1.93-3.88.34-.39.16-1.27-.49-1.18Z"/><path class="cls-2" d="M365.29,402.3c-1.64,3.11.13,7,3,8.64,3.52,2,7.8.66,10.5-2,1.29-1.27-.58-3-1.93-1.93-2.26,1.78-7.18,1.79-8.28-1.59-1-3.13,2.46-5.76,4.8-7.06,1.45-.8.42-2.84-1.07-2.55-7.35,1.42-8.19,11-2.88,15.27a1.31,1.31,0,0,0,1.86-1.85c-1.6-1.77-2.91-3.75-2.56-6.26a5.18,5.18,0,0,1,4.32-4.47L372,395.93c-4,2.21-8.55,6.84-5.47,11.51,2.84,4.31,8.47,4.54,12.28,1.48L376.91,407c-4.2,4.27-10.46,1.84-10-4.25a.9.9,0,0,0-1.66-.44Z"/><path class="cls-2" d="M373.67,398.69c-.13-.08-.08-.07.13,0l.32.06.48.15a1.82,1.82,0,0,1,.82.54l1.82-1.4a4.23,4.23,0,0,0-2.08-1.34,2.7,2.7,0,0,0-2.41-.09,1.09,1.09,0,0,0-.22,1.7,3.63,3.63,0,0,0,1.77.77,15.9,15.9,0,0,0,1.63.66,1.16,1.16,0,0,0,.89-2.12A3.58,3.58,0,0,0,375,397a2.86,2.86,0,0,0-1.71.45.68.68,0,0,0,.34,1.25Z"/><path class="cls-2" d="M373.59,401.69c.53-.12.82,0,.88.38l-.14.5a1.45,1.45,0,0,1-1.07-.07,2,2,0,0,1-.22.29,4.44,4.44,0,0,0-.52.76l1.27-.52c.63.17.16.83-.31.65.07,0,0-.08,0-.09a1.31,1.31,0,0,0-.25,0l.61.17c.15.11-.07-.33.06-.29s0,.1,0,.11c-.48.07-.12,0-.13.1a.67.67,0,0,1,.17-.49c.13-.05.12-.05,0,0,.14,0,.13,0,0,0,.28.09,0-.15.2.09,0,0,.37.58.14.46-.06,0,.32-.24.3-.23s.35-.19.35-.15c-.4,0-.64-.25-.73-.7,0-.11,0-.09,0,.08a3.1,3.1,0,0,1-.5.63c-.11.09-.3.15-.39.26s-.21-.2.1.12l.34,1.29a2.1,2.1,0,0,1,.41-.85c.36-.39.08.08,0,0l-.06-.06a.57.57,0,0,1-.13-.43c0-.09,0-.13.06-.11-.14.08-.16.1-.07.05s-.24,0-.14,0a.89.89,0,0,1-.36-.14c.07.05-.07-.06-.07-.07s-.08-.11.05-.28.44-.29.42-.22-.23-.37-.11-.34-.37.34-.31.31a2,2,0,0,1-1.26.26l1.17,2a2.17,2.17,0,0,1,1.57-1.41l-1.54-.62c-.08-.15,0-.19.12-.3a1.37,1.37,0,0,0-.47,1.81,1.35,1.35,0,0,0,1.81.48,2.4,2.4,0,0,0,.89-3.36,1.39,1.39,0,0,0-1.54-.63,4.92,4.92,0,0,0-3.3,3c-.36.86.53,1.65,1.29,1.7,2,.11,4.79-1.42,4.17-3.79a2.62,2.62,0,0,0-2.56-1.81,3.24,3.24,0,0,0-2.61,1.49,3,3,0,0,0,1.86,4.45,3,3,0,0,0,2.72-.63,2.33,2.33,0,0,0,.52-3,2.55,2.55,0,0,0-3-.9,3.87,3.87,0,0,0-2.07,2.64,1.34,1.34,0,0,0,.34,1.29c2.54,2.59,7.37-2.73,4.44-4.58-1.34-.85-3.38.23-4,1.53a2.27,2.27,0,1,0,4.32.54,2.54,2.54,0,0,0-3.58-1.65,2.64,2.64,0,0,0-.78,3.64,1.84,1.84,0,0,0,2.07.88,2.71,2.71,0,0,0,1.75-1.33c.88-1.7-1-4-2.8-3a2,2,0,0,0,.38,3.58,1.15,1.15,0,0,0,1.27-.52c.41-.91,1.3-1.59,1-2.72a1.62,1.62,0,0,0-2.06-1,1.26,1.26,0,0,0-.52,2,1.15,1.15,0,0,0,1.89-.15c.31-.69-.37-1.59-1.13-1.12Z"/><path class="cls-2" d="M362.19,409.5v.38a.71.71,0,0,0,.2.47.67.67,0,0,0,.47.19.67.67,0,0,0,.67-.66v-.38a.68.68,0,0,0-.68-.68.7.7,0,0,0-.48.2.67.67,0,0,0-.2.48Z"/><path class="cls-2" d="M325.22,390.52l.23.2a1,1,0,0,0,1.17.89l.27.26a1,1,0,0,0,1.71.71l1.27-1.2-1.6-.2.43,1.47a1.06,1.06,0,0,0,1.79.74l1.15-.9h-1.5l.95,1.12a1.09,1.09,0,0,0,1.31.17l.47.42c-.42,1.28,1.36,1.85,2.05.86l.29.12c-.51,1.41,1.72,2,2.24.61l-.1-.46a1.2,1.2,0,0,0,1.7,1.7l.59.07a1.24,1.24,0,0,0,2.43.33l.08.13,2.22,1.3,2.14-2.32-1.91-.77-.18,2,2.4.31-.4.4,2.48,1,.71-1.19,2.32,1.35-.42.85,2.55,1.08.15,1H357l.44-1,2.26,1.29L360,402l2.56,1.06-1.37.55,2.51.67a7.37,7.37,0,0,1-.21-4.84A1.51,1.51,0,0,0,361,398l-7.31,1.73,1.5,1.5,2.32-2.93-2.05-2.05c-1.5,2.72-3,2.64-5.33,3.85l-2.2-1.7.05.08c.44-1.34-1.11-2.22-2.21-1.7l-2.92-1.45a1.52,1.52,0,0,0-2.21-.9l-.05-.2-2.18-1.68q-2.12,5.31-4.6.12l-2.67-1.13.66.67-2.22-1.27-1-1a1.48,1.48,0,0,0-1.86-1.41l-2.13-.21v2.53h.58l-.88-2.15.3-.25c-1.4-.11-2,2.13-.73,2.72,9.35,4.2,21.43,12,32,8.38a1.43,1.43,0,0,0,.62-2.36c-1.94-2.18-4.45-1.75-7.21-2.21a38.93,38.93,0,0,1-12.4-4.44L335.46,393l2.36,2.23,1.25-2.17-3.72-1.69-1.41,2.42c6.29,2,11.23,5.88,16.5,9.66,3.54,2.54,7.2,3.06,10.93.46a1.49,1.49,0,0,0,.64-1.58c-.37-2.5.74-4.12-2.09-5.21a1.43,1.43,0,0,0-1.39.37l-.66.54c-1.23,1,.15,2.61,1.39,2.39s2.39-.4,3.58-.62L361.05,398l-.7,1.93c-.46,1.25,1.1,2.21,2.14,1.64l2.68-1.48-2.14-.87,0,1.06c-.24,1.26,1.45,2.69,2.43,1.42l2.37-3.06-2.29-1.77a8.78,8.78,0,0,0-1.93,5.84c0,1.6,2.59,2.06,2.88.39l.3-1.75c.32-1.84-2.51-2.63-2.82-.78l-.3,1.75,2.87.39a5.42,5.42,0,0,1,1.52-4.36c1.14-1.5-1.39-2.94-2.52-1.48l-2.37,3.06,2.67,1.13a5.28,5.28,0,0,0,0-2.62,1.48,1.48,0,0,0-2.14-.87L361,399l2.14,1.64.7-1.92c.41-1.14-.8-2-1.79-1.79l-3.57.66,1.39,2.4c-1,.88-.73,1.92-.58,3l.65-1.57c-5.11,3.53-10.08-2.14-14.1-4.91a41,41,0,0,0-11.15-5.6,1.46,1.46,0,0,0-1.41,2.43,9.05,9.05,0,0,0,5.77,2.53c1.18.12,1.67-1.29,1.24-2.17a6,6,0,0,0-3.74-3.41c-1.51-.63-2.52,1.86-1.11,2.63a42.79,42.79,0,0,0,9,3.74c2.18.61,8.56.66,10.12,2.41l.62-2.35c-9.75,3.26-21.2-4.27-29.82-8.18l-.74,2.72.62.05a1.48,1.48,0,0,0,1.26-.72l.34-.52a1.48,1.48,0,0,0-.87-2.15,2.61,2.61,0,0,0-2.83.29,1.48,1.48,0,0,0,0,2.53,4.9,4.9,0,0,0,4.39.51l-1.86-1.42c-.39,5.24,6.82,6.41,6.89,1a1.49,1.49,0,0,0-2.22-1.28c-4.59,3.44,2.36,7.87,3.65,2.66a1.47,1.47,0,0,0-2.67-1.12c-2.34,3.07.34,6.22,3.61,6.79,2.75.48,9-1.83,5.67-5.51-1.7-1.88-5.26-.58-4.45,2.2,1.05,3.64,4.47.67,5.15-1.34.44-1.33-1.1-2.19-2.18-1.67-4.52,2.16-1.19,8.1,3.07,5.35l-2.21-.89c.94,3.47,4.17,4.77,7.34,3.24l-2.21-1.69c-1.51,4.58,4.88,6.27,5.74,1.52a1.52,1.52,0,0,0-2.2-1.69,2.91,2.91,0,0,0,.36,5.45c3.69,1.39,7.5-2.35,9.07-5.2a1.52,1.52,0,0,0-2.06-2.05c-2.55,1.14-3.52,2.82-3.8,5.52a1.51,1.51,0,0,0,1.5,1.5c6.94-.46,3.76-8,.47-5.49a3,3,0,0,0-.07,4.57c2.62,2.51,6.81,0,9-1.69l-2.51-1.46a12.48,12.48,0,0,0,.22,6.42,1.52,1.52,0,0,0,2.51.67c1.49-1.79,4-6.64.4-7.88-2.91-1-4.14,3.11-4.16,5.2a1.52,1.52,0,0,0,2.56,1.06c5-4.22-5.85-9.5-5.45-1.27a1.52,1.52,0,0,0,2.26,1.3c2.16-1.51,2.82-5-.33-6-3.45-1.1-5.09,2.42-4.41,5.19a1.45,1.45,0,0,0,2.78,0c.66-2,1.53-5.56-1.26-6.39-2.6-.77-3.9,1.93-4.36,3.93-.34,1.46,1.83,2.56,2.55,1.07.93-1.91,2.38-5.55-.61-6.45-2.38-.71-3.57,1.52-4.05,3.45a1.39,1.39,0,0,0,2.31,1.35c3.29-3.33-3.1-7.19-5.28-1.49-.58,1.5,1.67,2.26,2.47,1,3.66-5.52-6.45-6.58-4.47-1.06a1.33,1.33,0,0,0,2.4.32,3.87,3.87,0,0,0,.42-4,1.32,1.32,0,0,0-1.91-.78,6.71,6.71,0,0,0-3.05,3.26,1.29,1.29,0,0,0,2.22,1.3c2.52-4-3.33-6.59-4.69-2.09h2.39c-.39-2.76-2.86-3.31-4.72-1.44l1.7,1.7c2.88-3-2.31-6.1-3.84-1.85l2.24.61c1.18-3.44-2.67-4.56-4.47-1.86l2,.86c1.16-3.84-2-2.26-3.39-3.8a1.09,1.09,0,0,0-1.5,0l-1.13.92,1.79.74a2.75,2.75,0,0,0-.77-2.51,1,1,0,0,0-1.6-.2l-1.25,1.22,1.72.71c0-2.1-1.81-2.48-3-2.94-.91-.34-1.56,1.17-.67,1.59Z"/><path class="cls-2" d="M407.51,383.42a1.08,1.08,0,0,0,0-2.15,1.08,1.08,0,0,0,0,2.15Z"/><path class="cls-2" d="M405.3,382.93l.06.85,1-1a2.83,2.83,0,0,1-1.44-.26c-1.31-.47-1.93,1.42-.9,2.12.55-.43.44-.68-.32-.76-.25-.11-.51-.21-.78-.31a3.18,3.18,0,0,0-1.44-.05c-.55.12-2.34,2-2.48,2v2.45a8.91,8.91,0,0,1,6.29-.11l-.3-2.33-1.3.06-.91,2.2a12.56,12.56,0,0,1,4.73,1.2l-.27-2h.18l-1.27,2.2a3.86,3.86,0,0,1,2.53,1.3l1.6-2.08a5.46,5.46,0,0,1-2.05-2.5l-2.18,1.69a1.57,1.57,0,0,1,.26.72,1.21,1.21,0,0,0,2.2.29,2.28,2.28,0,0,0-.5-3c-1.14-1.24-2.79.33-2.18,1.69A7,7,0,0,0,409,390.6a1.33,1.33,0,0,0,1.6-2.08,6.08,6.08,0,0,0-3.71-1.95,1.32,1.32,0,0,0-1.27,2.19,2.33,2.33,0,0,0,3.52,0,1.32,1.32,0,0,0-.26-2.05,16.1,16.1,0,0,0-6-1.51,1.29,1.29,0,0,0-.91,2.19,3.45,3.45,0,0,0,4.41.32,1.29,1.29,0,0,0-.31-2.33,11.15,11.15,0,0,0-7.64.12,1.28,1.28,0,0,0,0,2.45c1.24.38,2-.14,2.88-1a5.35,5.35,0,0,0,.47-.67.79.79,0,0,1,1.28-.15c.53.07,1,.45,1.54.47,2.65.07,2.48-2.87.69-4l-.89,2.13a4.29,4.29,0,0,0,2.33,0,1,1,0,0,0,.71-1.24,2,2,0,0,0-.83-1.29.74.74,0,0,0-1.22.71Z"/><path class="cls-2" d="M391.87,388.37a12.65,12.65,0,0,0-3.61,2.85l1.87,1.09c.25-1.38,1.64-2.9,3.17-2.11l.68-2.51c-2,0-4.45-.41-5.79,1.48-1,1.35-.94,3.42.68,4.25a1.41,1.41,0,0,0,1.9-.5,22.64,22.64,0,0,1,1.9-3.18,5.59,5.59,0,0,1,1-1.18c.45-.36.69-.28,1.22-.27a1.13,1.13,0,0,0,1.08-1.42c-.7-1.93-2.85-1.43-4.12-.36a15.59,15.59,0,0,0-3.47,5l1.9-.5c-.15-.06-.14,0,0,.2a.71.71,0,0,1,.07-.32c.23-.16.21-.28.52-.4.9-.36,2.15,0,3.1-.1a1.36,1.36,0,0,0,.36-2.65c-2.79-1-6.55,1.1-6.41,4.27,0,1.05,1.56,1.61,2.09.57a8.76,8.76,0,0,1,2.57-3,.71.71,0,0,0-.72-1.23Z"/><path class="cls-2" d="M387.38,390.53c-3-1.15-5.66.6-6.84,3.39-.34.82.66,1.69,1.44,1.44a2.14,2.14,0,0,0,1.69-2.32,1.22,1.22,0,0,0-1.2-1.2,5.14,5.14,0,0,0-5.06,5.35,1.29,1.29,0,0,0,2.51.34c.51-1.34,1.27-3.59,3.28-3.2l-.59-2.22c-2.54,2.93-10.45-2.22-11.5,3.43a2,2,0,0,0,1.34,2.44,2.2,2.2,0,0,0,1.8-.36c.7-.34,3-3,4.09-2.33l-.67-1.15.63-.7a1.11,1.11,0,0,0-.66,1.62l.1.14a1.25,1.25,0,0,0,1.38.56l.24-.07a1.36,1.36,0,0,0,1-1.28v-.27a1.36,1.36,0,0,0-.66-1.16,3.82,3.82,0,0,0-3.45.08c-1,.37-2.74,2.22-3.61,2.19l1.19.68c-.4-.72,3.89-.07,4.37,0a8.64,8.64,0,0,0,2.38.13,5.46,5.46,0,0,0,3.92-2.07c.54-.68.51-2.05-.59-2.22-3.62-.57-5.31,2-6.44,5.08l2.51.34c-.09-1.63.74-2.61,2.5-2.94L381.26,393l.1.07,1.43,1.43a4.2,4.2,0,0,1,4.4-2.58c.87,0,.92-1.15.19-1.43Z"/><path class="cls-2" d="M371.65,415.75c-.1.09,1,.34,1.24.42a7.33,7.33,0,0,0,2.21.42c1.8,0,2.78-1.39,3-3l-2.2.89c3.57,2.26,6.92-2.11,4.38-5.23-1.23-1.5-3.34.64-2.12,2.12.53.66-.31.8-.75.52a1.51,1.51,0,0,0-2.2.9c-.1.73,0,.79-.38.85a6.61,6.61,0,0,1-1.87-.52,3.49,3.49,0,0,0-3.44.56c-1.46,1.27.67,3.39,2.12,2.12Z"/><path class="cls-2" d="M363.23,403.51c-3.94,1.11-3.38,6.61-.57,8.62,1.58,1.13,3.08-1.47,1.52-2.59-.76-.54-1.32-2.8-.15-3.13a1.51,1.51,0,0,0-.8-2.9Z"/><path class="cls-2" d="M380.76,407.75c-3.86,2.35-.5,7,3.23,6.36l-1.48-.84a2.19,2.19,0,0,0,2.16,1.82,3.4,3.4,0,0,0,1.74-.37,3.58,3.58,0,0,1,2.62-.59c3,.32,6.43-2.95,6.51-5.95a1.11,1.11,0,0,0-1.66-1c-1.86,1.31-2.39,4-4.94,4.09a5.93,5.93,0,0,0-1.74,0,17.84,17.84,0,0,0-2.38,1.35,1.22,1.22,0,0,0-1.47-.84q-3.27-1.07-1.65-3.09a.7.7,0,0,0-.94-.95Z"/><path class="cls-2" d="M369.87,415.16a4,4,0,0,0,3.07-1.42l-2.51-.66a2,2,0,0,1,.28,1.07,1.51,1.51,0,0,0,2.26,1.29c1.81-1.11,3.59-.45,4.85-2.55a1.51,1.51,0,0,0-1.69-2.2c-.89.24-1.77.54-2.66.78a15.18,15.18,0,0,1-1.77.42c-.77.11-1.11-.22-.86.7s.42.53,1.23.5a10.78,10.78,0,0,1,1.7.1,20.14,20.14,0,0,1,2.44.45,1.52,1.52,0,0,0,1.89-1.45,5.43,5.43,0,0,1,1.46-3.25l-2.51-.66a1.49,1.49,0,0,1,0,1c-.46,1.61,1.94,2.69,2.74,1.16l1.1-2.1-2.75-.36.82,2.15,2.74-1.16v-1.38c.67-1.81-2.23-2.59-2.9-.79a4.15,4.15,0,0,0,.32,3.69c.78,1.48,3.36.45,2.74-1.16l-.81-2.15c-.43-1.11-2.1-1.59-2.74-.35l-1.1,2.09L380,410.1a5.17,5.17,0,0,0,0-2.62,1.51,1.51,0,0,0-2.51-.66,8.93,8.93,0,0,0-2.34,5.37l1.9-1.44c-2.24-.56-8.59-1.94-8.82,1.84-.26,4.3,6.81,1.51,8.75,1l-1.7-2.2c-.55.92-2.82.88-3.78,1.47l2.26,1.3a3.27,3.27,0,0,0-.39-1.87,1.51,1.51,0,0,0-2.5-.66l-.95.54c-1.92.13-1.93,3.13,0,3Z"/><path class="cls-2" d="M364.39,412.37a2.38,2.38,0,0,1,2.72,1.22c1,1.62,3.63.12,2.59-1.51a5.44,5.44,0,0,0-6.11-2.6,1.5,1.5,0,0,0,.8,2.89Z"/><path class="cls-2" d="M366.24,410.3a9.7,9.7,0,0,0-3.58-2.78,1.52,1.52,0,0,0-1.7.69,2.43,2.43,0,0,0-.21,2.1,1.52,1.52,0,0,0,2.51.66c.33-.35.72-.65,1-1L362,408.14a3,3,0,0,0,0,3.5,1.55,1.55,0,0,0,2.06.54,1.51,1.51,0,0,0,.53-2.06c.11.16-.19-.31-.16-.1,0-.1.12-.26.2-.37.94-1.4-1.23-3.09-2.36-1.81-.32.36-.71.65-1,1l2.5.66c-.09-.33-.12-.25-.09.22l-1.69.69a7.53,7.53,0,0,1,2.26,2c1.33,1.41,3.45-.72,2.12-2.12Z"/><path class="cls-2" d="M368.12,411.19l-1.61-2a1.51,1.51,0,0,0-2.56,1.06,3.37,3.37,0,0,0,5.61,2.34l-2.12-2.12s-.31.33-.21.24,0,0,0-.05.25,0,0,0a4,4,0,0,0-.49,0,1.5,1.5,0,0,0,0,3,3.45,3.45,0,0,0,2.82-1.08,1.5,1.5,0,0,0-2.12-2.12c.09-.07.09-.08,0,0s-.08,0,.05,0c0,0-.23,0,0,0-.08,0-.43,0-.13,0,0,0-.37-.12-.2,0s-.16-.11-.17-.11c.21.15,0-.11,0,0l-.11-.18c.12.26,0-.23,0,.08l-2.56,1.06,1.61,2a1.5,1.5,0,0,0,2.12-2.12Z"/><path class="cls-2" d="M364.71,405.63a8.39,8.39,0,0,0-.94,6.1,1.52,1.52,0,0,0,2.2.9,5.6,5.6,0,0,0,1.68-.95l-2.36-.31a2.14,2.14,0,0,1,.37.85c.2,1.9,3.2,1.93,3,0a5.41,5.41,0,0,0-.78-2.36,1.51,1.51,0,0,0-2.35-.3,4.36,4.36,0,0,1-1.08.47l2.21.9a5.22,5.22,0,0,1,.64-3.78,1.5,1.5,0,0,0-2.59-1.52Z"/><path class="cls-2" d="M378.9,404.68a5.48,5.48,0,0,1-.83,3.77l1.61-.21a1.79,1.79,0,0,1-.81-1.23,1.14,1.14,0,0,0-2.28,0,5,5,0,0,1-.38,1.71l2.28.63a4.43,4.43,0,0,1,.58-1.34l-1.65.43a.57.57,0,0,1,.07.22c.23,1.11,1.64.83,2,0a1.81,1.81,0,0,0-.59-2.12,1.25,1.25,0,0,0-1.91.24,5.44,5.44,0,0,0-.77,1.94,1.18,1.18,0,0,0,2.28.63,6.68,6.68,0,0,0,.38-2.34h-2.28a3.31,3.31,0,0,0,1.85,2.84,1,1,0,0,0,1.51-.61,7.84,7.84,0,0,0,.24-4.74c-.2-.68-1.36-.58-1.29.18Z"/><path class="cls-2" d="M391.69,394.16c3,4.48,5.8,9.5,2.66,14.75-.65,1.08.91,2.36,1.78,1.38,3.76-4.31,1.73-9.38-1.45-13.36-.85-1.07-2.72.36-1.91,1.48a29.62,29.62,0,0,1,4.47,9,1.22,1.22,0,0,0,1.13.87c5.67.59,10.82-.79,13.9-5.91l-2.11-.89a5.68,5.68,0,0,1-2,3.7l1.65,1.65a21.76,21.76,0,0,0,4-7c.45-1.29-1.49-2-2.16-.91-2.71,4.54-6.6,6.7-11.61,7.95-1.22.31-1,2.38.31,2.26,5.68-.53,10.49-4.19,13.34-9l-2.16-.91a17.86,17.86,0,0,1-3.36,6c-.93,1.14.6,2.76,1.65,1.65a9.05,9.05,0,0,0,2.53-4.73,1.16,1.16,0,0,0-2.11-.89c-2.68,4.5-7.11,5.26-11.91,4.71l1.13.87a31.27,31.27,0,0,0-4.62-9.61L393,398.66c2.22,2.82,4.33,6.74,1.56,10l1.79,1.38c3.17-5.54,1.26-12.72-3.48-16.78-.59-.5-1.63.15-1.14.88Z"/><path class="cls-2" d="M365.34,410.85c.07-.21-.22.31-.27.39-.57,1-.16.37,0,.23a2.31,2.31,0,0,0-.8,3,2.63,2.63,0,0,0,3.69,1,3,3,0,0,0,1.33-3.75,3.53,3.53,0,0,0-3.49-2,9.48,9.48,0,0,0-1.07.14,1.86,1.86,0,0,0-.34.06c.25,0,.29,0,.11,0-.34.07-.35.06,0,.09.15.08.14.06-.05-.06a1,1,0,0,1-.3-.19,2.21,2.21,0,0,0-2.49.18,2.27,2.27,0,0,0-.81,2.36,3.31,3.31,0,0,0,3.53,2.34c.57,0,1.12-.21,1.69-.26-.25,0-.23.05.05,0l-.2,0q-.2-3.56-.93-2.28a1.78,1.78,0,0,1,.85-.69h1.2l.34.13.8.81-.08-.12-.35,2.7c1.4-1.36,1.78-4.05-.32-5a1.49,1.49,0,0,0-2.14.87Z"/><path class="cls-2" d="M291.59,462.45c2.23,15.18,7.13,30.26,10.78,45.15,3.69,15.07,7.32,30.16,11,45.23,7.41,30.3,13.62,60.77,17.37,91.76.68,5.67,9.69,5.74,9,0A721,721,0,0,0,322.2,552.2q-5.74-22.46-11.63-44.85c-4.06-15.41-7.18-31.69-12.88-46.58a3.17,3.17,0,0,0-6.1,1.68Z"/><path class="cls-2" d="M298.57,469.56c1.09-3.1.43-7,.17-10.19-.27-3.52-.56-6.72-2.77-9.55-1.89-2.42-5.87-.85-6.58,1.74-.87,3.17.25,6.43.91,9.58s.73,6.42,2.19,9.22,5.19,1.73,6.08-.8Z"/><path class="cls-2" d="M283.7,463.35c.77,3.6,2.94,6.86,4.47,10.19a103.16,103.16,0,0,1,4.46,11.4l9.6-4.05q-4.22-8.83-8.49-17.64c-3-6.18-11.71-.76-9.09,5.32a438.27,438.27,0,0,1,21,61.85c2.61,9.9,5,19.87,7.45,29.81,2.59,10.43,4.58,21.62,9,31.47,1.83,4.12,8.76,2,8.47-2.3-.7-10.45-4.11-21-6.63-31.16-2.62-10.55-5.14-21.14-7.93-31.66a470.2,470.2,0,0,0-21.66-62.07l-9.62,4.06q4.22,8.82,8.51,17.62c2.6,5.33,11.48,1.6,9.6-4.05-2.44-7.36-5.73-17.89-12-22.89-3.24-2.59-8-.26-7.05,4.1Z"/><path class="cls-2" d="M427.66,382.48c4.88,13.23,20.43,20.92,30.9,29.13,13.36,10.49,22.32,24.69,30.67,39.24,4.19,7.3,8.52,14.59,12.08,22.23,3.84,8.24,5.17,17.22,8.83,25.46,1.59,3.6,3.67,6.94,5.54,10.4,2.31,4.28,3.6,8.67,5.11,13.26,2.72,8.21,7.43,15.32,12.33,22.37,1.91,2.75,6.45.16,4.53-2.65-5.29-7.76-9.77-15.32-12.5-24.35-2.47-8.2-7.5-14.83-10.63-22.7-3.23-8.1-4.76-16.57-8.5-24.55a252,252,0,0,0-12.26-22.11c-8.21-13.76-17-27.69-29.54-38-5.66-4.67-11.91-8.54-17.85-12.83-6.57-4.74-11.6-9.95-17-15.92a1,1,0,0,0-1.72,1Z"/><path class="cls-2" d="M535.16,544c-.22.07-.45.13-.66.22l-.08,0h.08a1.69,1.69,0,0,0-.44.12,1,1,0,0,0-.44.61.77.77,0,0,0,.35.86,1,1,0,0,0,.64.13.84.84,0,0,0,.41-.17c.28-.22-.12.07.1-.09l.6-.41a.73.73,0,0,0,.29-.89.71.71,0,0,0-.85-.41Z"/><path class="cls-2" d="M535.27,545.68c2.3,0,4.53.37,5.85,2.49l1.88-1.45c-1.7-1.85-4.5-3.68-7.13-3.48a1.15,1.15,0,0,0-.3,2.24,24.38,24.38,0,0,1,3.11,1,9.38,9.38,0,0,1,2.63,1.95c.93,1,2.64-.29,1.88-1.45-1.68-2.55-5.42-4.46-8.3-2.69a.76.76,0,0,0,.38,1.41Z"/><path class="cls-2" d="M543,548.52c1.17-2.92,1.75-6,2.81-9,1.17-3.3,2.91-6.47,3.66-9.88a1.07,1.07,0,0,0-2-.83,50.59,50.59,0,0,0-6,19.51c-.07.9,1.16.91,1.45.2Z"/><path class="cls-2" d="M597.8,538.53c-1.45,3.72-1.67,7.84-2.55,11.72-1.4,6.2-3.46,12.21-4.87,18.41a180.41,180.41,0,0,1-15.49,42c-3.15,6.22-6.4,12.42-9.83,18.48-3.14,5.55-7.07,11.77-13.43,13.94-9.93,3.38-22.25-4-30.74-8.52-1.67-.89-3.16,1.63-1.49,2.55,8.58,4.75,19.87,11,30,9.49,13-1.91,18.87-17.15,24.15-27.28,7.45-14.27,14.45-28.93,18-44.7,2.66-11.75,7.06-23.82,7.57-35.95,0-.83-1.09-.86-1.35-.18Z"/><path class="cls-2" d="M562.82,451.23c-2.83-6.33-7.62-11.12-11.47-16.79-4.82-7.09-5.35-14.78-3.53-23,.42-1.88-2.47-2.69-2.89-.8-1.57,7.06-1.81,14.32,1.33,21,3.63,7.7,10.48,13.26,14,21.08.79,1.76,3.37.23,2.59-1.52Z"/><path class="cls-2" d="M602.47,455.56a78.93,78.93,0,0,1,3.33-8.7,26.31,26.31,0,0,1,6.7-7.25c1.08-.81,0-2.66-1.07-1.84-5.26,3.87-11.2,11.32-10.66,18.3a.86.86,0,0,0,.44.77c.7.31.92.38,1.6,0a.68.68,0,0,0-.34-1.26Z"/><path class="cls-2" d="M547.55,412.24c1.83-4.54,3.93-9,6.07-13.37.81-1.65,3.68-7.72,5.61-4.84s1.23,9,1,12.4c-.11,1.93,2.89,1.92,3,0,.24-4.1,1.19-13.65-3.3-16-2.68-1.41-5.4,1.29-6.83,3.26-3.72,5.13-6.12,11.9-8.47,17.75-.72,1.79,2.18,2.57,2.89.8Z"/><path class="cls-2" d="M563.43,407.05a15.7,15.7,0,0,1,.46-3.67L561,403a26.28,26.28,0,0,0,.21,3.54,1.56,1.56,0,0,0,1.5,1.5c.73,0,1.61-.69,1.5-1.5A26.28,26.28,0,0,1,564,403a1.51,1.51,0,0,0-3-.4,18.67,18.67,0,0,0-.57,4.46,1.5,1.5,0,0,0,3,0Z"/><path class="cls-2" d="M562.42,416.22c-.4,2,.56,3.58,1.93,5,2.36,2.45,5,4.67,7.6,6.92.33.28.8-.18.48-.48-1.67-1.57-3.37-3.12-5.07-4.67s-4.84-3.69-4.34-6.6c.06-.39-.52-.56-.6-.17Z"/><path class="cls-2" d="M562.93,405.37a34.71,34.71,0,0,0,.21,11.28c.08.43.77.33.76-.1-.09-3.66-.19-7.33-.28-11a.4.4,0,0,0-.78-.11,26.35,26.35,0,0,0,1.7,17.31c.21.45,1,.12.81-.34a33.78,33.78,0,0,1-2.41-15.52c0-.44-.59-.47-.72-.1-1.29,3.59-.54,7.33.23,11l1-.27a37.45,37.45,0,0,1-1-11.6.57.57,0,0,0-1.11-.15c-.84,4.3.22,8.25,1.52,12.36a.58.58,0,0,0,1.11-.31,35.93,35.93,0,0,1,.06-10.61l-1.09-.3c-.83,5.64-1.45,12.22,3.64,16.06.45.35,1-.4.61-.78-4.45-4-4-9.59-3.16-15,.1-.71-1-1-1.09-.3a38.35,38.35,0,0,0-.08,11.22l1.11-.31c-1.22-3.87-2.32-7.66-1.54-11.75l-1.11-.15a36.56,36.56,0,0,0,1.15,11.87c.16.63,1.12.36,1-.27-.8-3.59-1.27-6.84-.5-10.5l-.72-.09a36.47,36.47,0,0,0,2.29,15.75l.81-.34a26.41,26.41,0,0,1-1.71-16.65l-.77-.1.3,11,.75-.1a39,39,0,0,1-.34-11c0-.34-.55-.42-.61-.08Z"/><path class="cls-2" d="M589.36,365.79a21.35,21.35,0,0,0-7.13,11.4c-1,3.85-2.28,10.55-.84,14.34,3.05,8,10.82-5.31,12.53-7.9.64-1-.92-1.88-1.55-.91-1.63,2.47-2.9,5.48-5.08,7.53-4.81,4.55-4.43-2.57-4.32-5.43.27-6.8,2.24-13.32,7.67-17.75.89-.74-.39-2-1.28-1.28Z"/><path class="cls-2" d="M588.72,368.45c4.25-5.56,10.58,1.42,9.54,6.53-.23,1.14,1.51,1.62,1.74.48,1.47-7.27-7.34-15.1-12.84-7.92-.7.92.86,1.81,1.56.91Z"/><path class="cls-2" d="M601.5,378.59c-3.1,1.64-4.35,5.45-5.76,8.47a45.31,45.31,0,0,0-4.11,12.12c-.5,3.24.21,11.12,5.3,7.3,3.46-2.6,6-7.42,8.55-10.84,2-2.59,6.55-6.59,7-10,.79-6-8-8-12.15-6.79a.9.9,0,0,0,.48,1.73c2.88-.83,8.07-.44,9.38,3.08,1,2.72-1.26,4.68-2.64,6.53q-4.37,5.82-8.71,11.65c-.79,1.09-1.61,2.16-2.43,3.23q-5.13-1.8-3.34-6.31a36.14,36.14,0,0,1,1.6-5.69c1.42-4,3.6-11.1,7.32-13.6a.49.49,0,0,0-.5-.85Z"/><path class="cls-2" d="M612.16,389.68a23.07,23.07,0,0,0-8.2,7.26c-1.69,2.3-4.59,6.36-3.64,9.44.73,2.34,3.19,2.59,5.12,1.54s3.27-2.6,5.07-3.65c1.17-.68,2.64-2,4-1.18s1.06,2.33,1.49,3.7c.24.77,1.54.68,1.48-.2-.12-1.68-.08-4.72-1.82-5.6-2.14-1.09-5.71,1.56-7.34,2.68-1.24.85-5.95,5.57-6.24.38-.08-1.41,1.71-3.8,2.44-5,2.21-3.5,5.18-6,8.33-8.58.49-.4-.14-1.07-.64-.83Z"/><path class="cls-2" d="M611.05,392.59c2-1,4.5-1.95,6.69-.7,2.79,1.6,2.66,5.1,2,7.68-.81,3.31-2.4,6.49-3.6,9.67-.38,1,1.21,1.42,1.6.44,1.93-4.83,6.17-12.06,2.84-17.16-2.32-3.54-7.25-3.39-10.1-.64-.38.37.11.93.55.71Z"/><path class="cls-2" d="M615.45,404c-.12,1-.49,7.31,2,5.68a1.67,1.67,0,0,0,.38-2.33,7.54,7.54,0,0,0-1.28-1.18,2.51,2.51,0,0,1-.73-2.66.68.68,0,0,0-1.32-.36,3.84,3.84,0,0,0,1,3.84c.21.2.46.36.69.54a.64.64,0,0,1,.47.72,11.19,11.19,0,0,1-.18-1.16c-.12-1-.16-2.06-.18-3.09a.44.44,0,0,0-.87,0Z"/><path class="cls-2" d="M463.69,339.42c12.81,12.23,27.47,22.88,41.18,34.09s27.51,22.68,41.33,33.94c1,.85,2.54-.63,1.49-1.49-14.05-11.52-28.21-22.9-42.28-34.38-13.52-11-26.69-23.09-41-33.06-.54-.38-1.17.46-.7.9Z"/><path class="cls-2" d="M504.77,295.17c6.24-1.21,12.14-.18,15.37,5.9,2.78,5.25,2,11.61,1.51,17.28-1.06,11.81-2.58,23.51-1,35.35.25,1.89,3.25,1.91,3,0a111.1,111.1,0,0,1,0-24.86c.65-7.06,2.11-14.46,1.31-21.55-1.31-11.64-9.81-17.17-21-15-1.9.37-1.1,3.26.79,2.9Z"/><path class="cls-2" d="M468.28,341c-6.27-8.79-.65-20.31,5.25-27.76,1.18-1.5-.92-3.64-2.12-2.12-6.7,8.45-12.84,21.42-5.72,31.39,1.11,1.56,3.71.06,2.59-1.51Z"/><path class="cls-2" d="M464.15,338a111.3,111.3,0,0,0,51.26,16.61A282.86,282.86,0,0,1,546.55,358c10.13,1.74,19.91,4.75,30,6.82a1.11,1.11,0,0,0,.59-2.14c-17.26-6.78-37.52-9.09-55.92-10.19-9.81-.58-19.16-1.2-28.58-4.21C483,345.24,474,341,464.88,336.75a.73.73,0,0,0-.73,1.26Z"/><path class="cls-2" d="M517.65,295.51c9.17,9.12,18.67,17.81,27.39,27.38a371.23,371.23,0,0,1,25.41,31.24c.81,1.11,2.68,0,1.86-1.09-15.36-21.19-33.22-42.29-54.06-58.31-.45-.34-1,.39-.6.78Z"/><path class="cls-2" d="M564.59,420.74A233,233,0,0,0,599.12,448c.89.58,1.63-.79.81-1.39-11.74-8.68-23.11-17.55-34.28-27-.73-.62-1.77.38-1.06,1.06Z"/><path class="cls-2" d="M600.22,445.55l-.46-.17-.19,1.52a59.08,59.08,0,0,0,24.07-18.37c1.87-2.46,6.25-6.6,5.45-9.91-.42-1.7-2.23-2.86-3.44-4-2.58-2.43-5.2-4.83-7.81-7.23-1.21-1.11-3,.66-1.81,1.81,1.86,1.79,3.7,3.59,5.56,5.37.9.86,3.83,2.74,4.22,4,1,3.24-5,9.22-7,11.57-5.7,6.73-13,10.42-20.24,15.08a1,1,0,0,0,.23,1.77l.68.21a.82.82,0,0,0,.79-.2l.5-.48c.46-.45,0-1.06-.57-1Z"/><path class="cls-2" d="M594,383.45c.44.34.86.71,1.27,1.09a4.21,4.21,0,0,0,1.38,1.11.79.79,0,0,0,1-1,3.14,3.14,0,0,0-1.15-1.43,11.87,11.87,0,0,0-1.46-1.1c-.77-.5-1.73.71-1,1.29Z"/><path class="cls-2" d="M576.73,364.4a30.42,30.42,0,0,1,3.78,4.08c1,1.32,1.67,2.86,2.71,4.12.5.62,1.48-.05,1.29-.75-.92-3.36-4.25-6.52-6.92-8.57-.64-.5-1.46.58-.86,1.12Z"/><path class="cls-2" d="M571.75,354c-2.43,1.29-1.11,5.15,0,7a5,5,0,0,0,3.33,2.22c1.4.36,2.76.2,4.07,1a6,6,0,0,1,2.66,5.3.53.53,0,0,0,1,0,6.59,6.59,0,0,0-3.14-6.27,9.11,9.11,0,0,0-3.62-1,4.85,4.85,0,0,1-4-2.83c-.68-1.37-1.38-3.69,0-4.95.26-.23-.07-.62-.36-.47Z"/><path class="cls-2" d="M573,354.18c5.41-3.45,11.06.24,11.25,6.4.13,4-.77,8.21-1.25,12.2-.1.84,1.23.84,1.32,0,.63-5.4,3.22-13.93-.89-18.56a7.79,7.79,0,0,0-10.86-.6c-.3.27.09.77.43.56Z"/><path class="cls-2" d="M599.28,373.87a21.5,21.5,0,0,1-.74,7.61l.76.1c0-2.7.05-5.41.05-8.11a.43.43,0,0,0-.86,0c0,2.7,0,5.41,0,8.11a.39.39,0,0,0,.77.1,18.2,18.2,0,0,0,.59-7.9c0-.34-.63-.26-.6.09Z"/><path class="cls-2" d="M593.93,383.75a15.63,15.63,0,0,1,3.08-4.81.51.51,0,0,0-.72-.73,41,41,0,0,0-4.35,5l.9.53q1.33-2.59,2.65-5.19l-.89-.52-1.72,3.76c-.22.48.4,1.1.79.61l2.68-3.38-.83-.35-.2.6c-.4.47.28,1.16.68.68a1.8,1.8,0,0,0,.5-1.28c0-.39-.56-.69-.84-.34l-2.7,3.36.79.61,1.74-3.75c.28-.6-.58-1.12-.89-.52q-1.33,2.58-2.66,5.18a.52.52,0,0,0,.9.53,37.81,37.81,0,0,1,4.17-4.76l-.72-.73a11,11,0,0,0-3,5.25c-.09.39.5.7.68.29Z"/><path class="cls-2" d="M610.71,392.45c2-2,5.08-3.16,7.76-1.59s3.24,4.84,2.48,7.55a.34.34,0,0,0,.62.26,6.64,6.64,0,0,0-2.48-8.87c-3-1.72-7.27-.85-9,2.18a.39.39,0,0,0,.61.47Z"/><path class="cls-2" d="M576.42,353c-2.34,1-7,2.13-6.67,5.59.25,2.83,3.42,3.52,5.69,3.78v-1.07c-1.16-.11-3-.36-3.92-1.16-2.12-1.83-2-3.18,0-4.79A14.21,14.21,0,0,1,577,353l-.46-1.09c-1.88,1-3.83,1.89-5.64,3-.57.34-1.42.63-1.74,1.29-.82,1.73,1.35,2.95,2.28,3.91l.82-.83-1.91-1.57a.58.58,0,0,0-.91.7,5.91,5.91,0,0,0,4.08,3.53c.6.18,1-.75.44-1-1.65-.78-2.26-.88-2-2.9s1-2.37,2.58-3.34c3.21-1.95,7.78-1.86,9.32,2.19s-.36,9.75-1.06,13.92c-.11.66.89.94,1,.28.93-5.46,4.92-18.11-4.16-19-3.14-.3-7.47,1.66-9.15,4.43-1.54,2.56.71,4.31,2.89,5.37l.43-1a4.53,4.53,0,0,1-3.38-3l-.91.7,1.91,1.58a.58.58,0,0,0,.82-.83,3.8,3.8,0,0,0-.82-.83c-1.15-1.55-.92-2.5.69-2.83,1.14-1.13,3.58-1.89,5-2.66a.6.6,0,0,0-.46-1.09c-2.59.67-8,2.4-8.31,5.8-.34,3.15,4.82,4.4,7.08,4.69.59.07.73-1,.14-1.05a15.79,15.79,0,0,1-2.16-.4q-3-4.7.42-5.72c.87-.64,2-.92,3-1.54a.38.38,0,0,0-.38-.66Z"/><path class="cls-2" d="M572.77,361.63c1.83.9,3.85,1.28,5.6,2.36a9.28,9.28,0,0,1,3.6,4.37c.22.47,1.07.25,1-.27-.57-4.41-6.08-6.86-10-7.22a.41.41,0,0,0-.21.76Z"/><path class="cls-2" d="M561.65,395a81.65,81.65,0,0,0-.07,17.75l1.11-.15a37.35,37.35,0,0,1-1.36-11,.58.58,0,0,0-1.16,0,96.86,96.86,0,0,0,.37,11.8c.08.82,1.32.85,1.31,0q-.09-6.43-.17-12.86a.69.69,0,0,0-1.38,0,52.43,52.43,0,0,0,2.53,18.73.69.69,0,0,0,1.32-.37,67.11,67.11,0,0,1-1.88-11.88.69.69,0,0,0-1.38,0,55.5,55.5,0,0,0,1.32,12.39c.2.91,1.6.53,1.4-.38-.54-2.47-1.07-4.93-1.54-7.41-.14-.73-1.3-.55-1.29.17a50.38,50.38,0,0,0,.61,6.83c.13.78,1.49.6,1.4-.19l-.77-6.31-1.46.2.53,3.58a.77.77,0,0,0,1.27.34,1.59,1.59,0,0,0,.5-1.49h-1.53a48.16,48.16,0,0,0,2.31,10.59c.32.95,1.83.54,1.5-.42a47.83,47.83,0,0,1-2.28-10.17c-.11-1-1.63-1-1.53,0l-.16.56,1.39.19L562,412c-.13-.81-1.57-.63-1.46.2l.84,6.31,1.39-.19a53.82,53.82,0,0,1-.67-6.45l-1.28.18c.51,2.47,1,5,1.4,7.44l1.4-.38a52.78,52.78,0,0,1-1.34-12h-1.38a70.39,70.39,0,0,0,1.94,12.25l1.32-.37a52,52,0,0,1-2.47-18.36H560.3l.24,12.86h1.31a113.37,113.37,0,0,1-.52-11.8h-1.16a42.44,42.44,0,0,0,1.43,11.27c.16.59,1.17.5,1.11-.15a108.47,108.47,0,0,1-.33-17.75c0-.48-.68-.46-.73,0Z"/><path class="cls-2" d="M540,541.06c-8.32-5.56-15.75,3.07-19.91,9.44-5.48,8.41-5.65,19.15-5.64,28.86,0,18.81,4,41.49-6.08,58.53-5.07,8.6,8.2,16.32,13.35,7.81,9.42-15.57,8.11-32.65,7.56-50.09-.3-9.36-1-19,.13-28.3.67-5.37,3.4-14.39,9.23-15.84,5-1.25,5.26-7.8,1.36-10.41Z"/><path class="cls-2" d="M543.8,540.07a222.27,222.27,0,0,0-9.69,31.34c-2.2,9.31-3.9,19.3-2.55,28.85.12.81,1.46.61,1.43-.2a100.16,100.16,0,0,1,3.69-30.84c2.61-9.63,6.08-19.11,8.14-28.87a.53.53,0,0,0-1-.28Z"/><path class="cls-2" d="M284.4,480.94c-5.45,12.25-8.3,26-12.2,38.84q-6.29,20.67-13.21,41.15-13.76,40.47-29.6,80.21c-1.33,3.36,4.11,4.83,5.43,1.5q15.68-39.76,28.92-80.4,6.54-20.09,12.64-40.32c3.91-13.06,8.94-26.72,10.51-40.3a1.35,1.35,0,0,0-2.49-.68Z"/><path class="cls-2" d="M539.42,667a40.32,40.32,0,0,1-20.07,14.9c-9.89,3.34-20.09-.36-29.32-4.06-1.08-.43-1.54,1.31-.48,1.74,10.14,4.06,21.08,7.69,31.77,3.5A42.65,42.65,0,0,0,541,667.88c.68-.94-.88-1.84-1.56-.91Z"/><path class="cls-2" d="M207.45,645.12c5.17.25,10.15-.68,15.27-1.18,5.78-.56,11.63.13,17.41.54,11.48.83,22.93,1.9,34.4,2.88,22.76,1.95,45.85,3.86,68.69,2.16,22-1.65,44.19-2.47,66.27-3.69a32.86,32.86,0,0,1,8,.39c2.38.43,4.78,1.91,7.07,2.25,3.55.53,8.33-1.64,11.89-2.32a162.94,162.94,0,0,1,33.64-2.83,176.18,176.18,0,0,1,37.44,4.62c10.7,2.55,20.61,7,30.57,11.52,1.75.79,3.28-1.79,1.52-2.59-3.77-1.7-7.41-3.69-11.21-5.32-4.5-1.94-9.32-3-14-4.59-9.67-3.41-20.21-4.85-30.4-5.83a172,172,0,0,0-33.42,0c-5,.49-10,1.21-15,2.16-2.41.47-4.78,1.11-7.19,1.57-3,.57-4.19.09-7.05-.76-9.8-2.89-20.82-.53-30.83,0-11.41.57-22.83.94-34.24,1.59a520.16,520.16,0,0,1-70.07-.29c-13.11-1-26.2-2.28-39.31-3.32-6.81-.54-13.77-1.4-20.6-1.31-6.38.08-12.55,1.74-19,1.42-1.93-.1-1.92,2.9,0,3Z"/><path class="cls-2" d="M515.07,684.76c1.64,1.6,1.72,4.52-.73,5.2a9.22,9.22,0,0,1-3,0c-3.66-.29-7.33-.74-11-1.27-5.91-.86-11.72-2.12-17.57-3.37a.89.89,0,0,0-.47,1.72,158.08,158.08,0,0,0,17.53,3.52c4.64.69,10,2,14.63,1.38,5.5-.72,5.85-5.51,1.42-8.23a.69.69,0,0,0-.83,1.07Z"/><path class="cls-2" d="M513.49,690.77q1.15,4.41-1.76,4.88a7.89,7.89,0,0,1-1.93.34,36,36,0,0,1-4.52.33c-3,.08-6.12,0-9.16-.21-6.61-.46-12.86-1.89-19.3-3.3a.86.86,0,0,0-.46,1.65,75.28,75.28,0,0,0,33.7,3.34c2.41-.36,5.66-1.1,6.61-3.7.88-2.37-.55-3.87-2.66-4.55a.67.67,0,0,0-.52,1.22Z"/><path class="cls-2" d="M485.92,696.33c6.84,6.75,16.93,7.8,26.09,8.07,2.52.08,5,.05,7.56,0,2.32,0,8.15-1.27,3.58,2.35-5.45,4.3-14.75,5-21.36,4.68C473.6,710.26,451,688.54,422.6,688a1.16,1.16,0,0,0,0,2.32c22.35.44,40.73,14.13,61.62,20.06,8.6,2.44,17.82,3.79,26.72,2.45,4.66-.7,17-3,16.05-9.68a1,1,0,0,0-1-.73c-13.14-.54-28.25,1.51-39.37-7.07-.56-.43-1.24.5-.75,1Z"/><path class="cls-2" d="M267.69,707.94c-16.12-.27-32.22,1.54-48.34.42A96.49,96.49,0,0,1,195.77,704c-6.77-2.24-14.08-7.28-21.43-6.45-2.12.24-2.79,3.19-.53,3.87,3.95,1.2,7.84,2,11.69,3.56a118.24,118.24,0,0,0,11.57,4.19,103.89,103.89,0,0,0,21.39,3.47c16.35,1.11,32.93-.22,49.23-1.55a1.57,1.57,0,0,0,0-3.14Z"/><path class="cls-2" d="M308.63,401.61l-.08,0a.59.59,0,0,0-.73.72c1.85,6.27,9.16,10.38,13.63,14.55,10.06,9.37,20.95,18.24,33.25,24.53s26.39,9.49,40.16,6.09a43.57,43.57,0,0,0,29.27-23.76c7-15.24,3.39-32.62-4.65-46.67a1.42,1.42,0,0,0-2.45,1.43c9.78,16.68,12.32,37.87-.93,53.5-11.16,13.17-29.52,17.24-45.85,13.11-17.15-4.33-32.26-15.79-45.13-27.48-3.35-3-6.56-6.39-10.21-9.06-2.39-1.75-4.79-3.85-6-6.69l-.67.87h.09a.59.59,0,0,0,.31-1.13Z"/><path class="cls-2" d="M246.83,597.49l1.83,1,1.17-1.51c-20.14-7.25-41.55-18.4-63.2-10.33-1.17.43-1.12,2.43.31,2.34A114.48,114.48,0,0,1,242.24,599l.95-2.24a391,391,0,0,0-49.3-13.59l-.33,2.49a152.57,152.57,0,0,1,55.2,15.51l1-2.4c-19.2-5.56-37.52-15.84-58-14.94a1.31,1.31,0,0,0,0,2.61,236.45,236.45,0,0,1,26.26,5c7.78,1.95,15.29,4.89,23,6.85a1.3,1.3,0,0,0,.7-2.51c-8.37-2.11-16.46-5.26-24.87-7.3a243.73,243.73,0,0,0-25.14-4.64v2.61c20.25-.88,38.39,9.36,57.34,14.86,1.4.41,2.37-1.72,1-2.4a155.58,155.58,0,0,0-56.52-15.77,1.27,1.27,0,0,0-.34,2.49,389.67,389.67,0,0,1,49.32,13.5c1.29.45,2.22-1.66.94-2.24a116.78,116.78,0,0,0-56.54-10.32l.32,2.33c21.15-7.92,42.27,3.15,62,10,1.08.37,1.57-1,1-1.73a2.85,2.85,0,0,0-3.64-1.12c-.73.22-.63,1.46.19,1.38Z"/><path class="cls-2" d="M260,554.2c-11.43-5.07-24-7.54-36.39-8.66-1.41-.12-1.74,2.25-.34,2.49,12.46,2.13,24.87,4.4,36.66,9.1,1.38.54,2.35-1.76,1-2.4a104.76,104.76,0,0,0-38.36-10.21c-1.46-.11-1.81,2.33-.35,2.57,12,2,24,4.11,35.07,9.22a1.31,1.31,0,0,0,1.33-2.26,22.84,22.84,0,0,0-10-3.82c-1.48-.2-2.18,2-.64,2.31a24.93,24.93,0,0,1,9.26,3.77l1.33-2.26c-11.33-5.22-23.48-7.45-35.7-9.49l-.35,2.58a101.6,101.6,0,0,1,37,9.85l1-2.4c-11.78-4.69-24.23-6.9-36.68-9l-.34,2.48c12.34,1.08,23.9,4.16,35.67,7.82,1,.3,1.69-1.26.72-1.69Z"/><path class="cls-2" d="M265.14,542.18l0,.11.28-.48a2,2,0,0,0-.45.68c0,.12-.05.24-.07.36l-.18.82a1.52,1.52,0,1,0,2.94,0l-.17-.82c0-.12,0-.24-.08-.36a1.72,1.72,0,0,0-.45-.68l.28.48,0-.11a1.06,1.06,0,0,0-2,0Z"/><path class="cls-2" d="M263.2,553.1a90.37,90.37,0,0,0,2.64,24.13c2,7.62,5.6,14.76,6.77,22.59,1.13,7.54,1.51,17.13-.75,24.47-1.95,6.34-7.51,10.48-9.29,17-.77,2.8,3.61,4,4.34,1.2,1.67-6.44,7.19-10.69,9-17.07,2.09-7.18,1.69-16,1-23.32-.73-7.67-3.71-14.52-6.07-21.78a89.71,89.71,0,0,1-4.12-27.22,1.78,1.78,0,0,0-3.56,0Z"/><path class="cls-2" d="M308.82,410.59l-.09,0a.59.59,0,0,0-.72.73c1.68,6.52,9.82,11.1,14.38,15.34,10.67,9.93,22.15,19.36,35.14,26.11,13.14,6.83,27.85,10.41,42.53,7.12a46.78,46.78,0,0,0,32-24.83c8-16.43,4.16-35.46-4.6-50.74a1.42,1.42,0,0,0-2.45,1.44c7.83,13.35,12,29.83,6.4,44.84-5.17,14-17.63,23.87-32,27.12-28.3,6.4-54.89-13.24-74.49-31.3a117.58,117.58,0,0,0-9.72-8.56,22.88,22.88,0,0,1-2.12-1.48,21.93,21.93,0,0,1-2.53-3.21,5.79,5.79,0,0,0-.7-1c-1.16-1,.27,0-1.39-.44a.59.59,0,0,0,.31-1.13Z"/><path class="cls-2" d="M209.31,582.76l-1.24-2.4a3.7,3.7,0,0,0-5.76-.74,6.94,6.94,0,0,0-1.76,6.65c.56,3,4.39,3.4,6.35,1.67a58.68,58.68,0,0,0,11.95-15.1l-7.61-4.45c-1.49,3.11-3,6.2-4.49,9.3a4.52,4.52,0,0,0,7.8,4.56,79.73,79.73,0,0,0,8.15-15l-9-2.49a54.6,54.6,0,0,1-4.7,12l8.07,4.72q5.26-11.94,11.59-23.36l-8.51-3.58-8.84,22.65,8.93,2.47c2.32-8.94,4.76-18.12,11.83-24.54l-7.7-4.48a86.37,86.37,0,0,1-8.75,23.94l8.25,3.48a60.87,60.87,0,0,1,11-19.79L227.57,554a91.94,91.94,0,0,1-8.51,21.77l7.92,3.34a67.12,67.12,0,0,1,11.25-21.66l-7.35-3a35.27,35.27,0,0,1-5.58,20.12l7.82,3.29a92.36,92.36,0,0,1,8-19.86l-6.68.86c1,1.18-2,9.11-2.38,10.33a88.87,88.87,0,0,1-4.26,11.37l7.73,3.26A106.3,106.3,0,0,1,240,570.64c.85-2,1.78-4.06,2.78-6,.53-1.07,1.09-2.13,1.67-3.19,1.45-1.46,1.18-2.06-.83-1.79l-1.93-2.51c.32,1.23-1.24,4.48-1.62,5.73q-.84,2.8-1.73,5.59c-1.38,4.34-2.84,8.65-4.31,13s5.61,7.51,7.61,3.21a167.5,167.5,0,0,1,12.59-22.8h-6.83c1.4,2-3,10.11-3.84,12.25q-2.46,6.72-4.93,13.44c-1.62,4.39,5.66,7.52,7.62,3.22l12.72-27.79-7.78-3.28a90.46,90.46,0,0,1-9.06,28.6l7.22,4.22a186.41,186.41,0,0,0,10-28.09l-8-2.2a56.24,56.24,0,0,1-3.78,13.09c-1.36,3.14-3.12,7.66-5.66,10-.56,1.51-1,1.73-1.29.67-1.11-.46-2.24-.89-3.38-1.28-1.7-.57-3.44-1.07-5.19-1.47a63.81,63.81,0,0,0-13.77-1.55c-5.42,0-7,8.77-1.32,9.74,6.13,1.06,12.29,1.94,18.44,2.88l1.33-9.85a16.48,16.48,0,0,1-11.43-3.48L223,589.26a35.07,35.07,0,0,1,8.37-.67,31,31,0,0,1,4,.42c.58.1,1.16.22,1.73.37,1,.2,1.16.25.45.16L236.07,586l-.11.92,1.47-3.56c1.18-1-2.46-.75-3.34-.89-2-.33-4-.77-6-1.29a61.51,61.51,0,0,1-11-4.06l-3.9,9.23,8.41,2.76,1.34-9.94c-1.56-.1-5.45-.12-6.6-1.51l1.48,3.58c0-.44,4.08-3.67,4.76-4.22a36.83,36.83,0,0,1,6.83-4.33A36.42,36.42,0,0,1,245,569c5.54-.12,7.08-8.65,1.35-10a25.52,25.52,0,0,1-12.68-6.83L230.06,561a33.12,33.12,0,0,1,18.78,3.26l4-9.45A63.19,63.19,0,0,1,238,549.2l-1.24,9.49a14.9,14.9,0,0,1,12.4,3.52l5-8.68a73.21,73.21,0,0,1-12.36-3.79l-1.38,10.17a14.85,14.85,0,0,1,10.07,3.32c5.33,4,10.45-5,5.21-8.91a24,24,0,0,0-15.28-4.76c-6.18.15-6.57,8-1.37,10.16a72,72,0,0,0,12.35,3.82c4.71,1,9.22-5,5-8.68a26,26,0,0,0-22.5-6.18c-4.39.78-5,7.5-1.24,9.48a75,75,0,0,0,17.36,6.59c5.48,1.31,9.42-6.72,4-9.45a42.36,42.36,0,0,0-24-4.58c-4.15.46-7.09,5.4-3.62,8.74a35.81,35.81,0,0,0,17.21,9.36l1.35-10a47.27,47.27,0,0,0-30.71,12c-3.41,3-8.51,7.88-5.85,12.92,2.44,4.63,10,5.22,14.55,5.49,5.91.35,6.57-8.23,1.35-9.94l-8.41-2.74c-5.36-1.76-9.1,6.74-3.89,9.23a72.7,72.7,0,0,0,17.66,6c4.6.88,12,2.79,15.23-1.91s-.57-9-5.17-10.25c-6.32-1.68-13-1.36-19.39-.1-3.49.69-5.09,6.07-2.21,8.38a27.08,27.08,0,0,0,18.52,6.42c5.35-.2,7.18-8.95,1.33-9.85-6.59-1-13.17-2.06-19.78-2.95v9.92a52.85,52.85,0,0,1,18.22,2.55c4.33,1.41,7.79,2,11.08-1.71,6.62-7.38,10.17-18.4,11.73-28,.82-5.13-6.56-7.44-8-2.2a171.73,171.73,0,0,1-9.22,26.07c-2.17,4.81,4.68,9.08,7.22,4.22a94,94,0,0,0,10.05-30.55c.61-4.27-5.6-8.12-7.78-3.28L239,586.49l7.63,3.22q3.3-9.45,6.63-18.89c1.46-4.18,3.83-8.94.92-13a4,4,0,0,0-6.83,0,215,215,0,0,0-12.95,22.6l7.61,3.2c2.59-7.34,5.14-14.76,7.22-22.27,1.14-4.11,1.2-10.12-4.72-10-5.44.09-7.88,6.58-9.84,10.65a113.58,113.58,0,0,0-7.29,19.53c-1.23,4.47,5.69,7.73,7.72,3.26a101.24,101.24,0,0,0,6.3-17.64c1.28-5.14,2.62-9.94-.94-14.35-1.72-2.12-5.47-1.35-6.68.86a102.55,102.55,0,0,0-8.91,21.89c-1.32,4.75,5.24,7.35,7.81,3.3a43.56,43.56,0,0,0,6.81-24.44c-.07-3.37-4.91-6.14-7.35-3a78.9,78.9,0,0,0-13.52,25.43c-1.46,4.68,5.56,7.66,7.92,3.34A105.11,105.11,0,0,0,236,556.29c1.05-4-4.36-7.69-7.31-4.25a72.56,72.56,0,0,0-13.56,23.57c-1.7,4.86,5.77,7.88,8.24,3.47a91.43,91.43,0,0,0,9.84-26,4.65,4.65,0,0,0-7.7-4.48C217.26,556,214,566.7,211.27,577.14c-1.54,5.9,6.8,7.9,8.93,2.47L229.08,557c1.95-5-6-8.12-8.5-3.59q-6.35,11.42-11.62,23.34c-2.38,5.37,5.15,10.13,8.07,4.72a65.33,65.33,0,0,0,5.67-14.18c1.62-6-6.82-7.93-9-2.49a72.64,72.64,0,0,1-6.91,12.93l7.8,4.56q2.14-4.71,4.3-9.41c2.36-5.11-5.2-9.6-7.61-4.45a55.88,55.88,0,0,1-9.71,14.18l6.35,1.68.19-.18h-6.34l1.42,2.29c2.43,3.91,8.26.47,6.16-3.6Z"/><path class="cls-2" d="M257.86,563.28a9.52,9.52,0,0,0,2.3-1.15c3.78-2.56.43-8.51-3.61-6.19-6.65,3.83-9.62,11.46-11.63,18.56a102.88,102.88,0,0,0-2.55,11.93c-.56,3.58-1.77,7.77-.53,11.25,1.08,3,5.18,3.85,6.94.91s1.52-6.23,1.89-9.49a73,73,0,0,1,1.76-10.18c1.8-6.89,5.7-11.95,9-18.07L254.77,559a10.21,10.21,0,0,0,.27,2.64,2.31,2.31,0,0,0,2.82,1.6Z"/><path class="cls-2" d="M570.57,637.56a9.78,9.78,0,0,0,1.45-1.75l-8.54-1.11c6.5,34.62,5.15,69.26-6.85,102.59L566.5,740a239.11,239.11,0,0,0,4.67-102.62c-1.09-6.36-10.74-3.66-9.67,2.66a227.25,227.25,0,0,1-4.87,97.24c-1.75,6.44,7.65,8.84,9.87,2.72,12.3-34,15.46-72.69,6-107.8-1.08-4-6.4-4.41-8.54-1.12l-.39.6c-2.12,3.25.78,6.61,4,7a3.9,3.9,0,0,0,3-1.12Z"/><path class="cls-2" d="M483.52,711.64c-5.1,3.51-9,9-13.34,13.42-4.48,4.66-8.82,9.46-13.35,14.08l10,10c8.35-9,16.76-18.34,21.63-29.79C492,711,481,703.84,475.9,712a100.48,100.48,0,0,1-28.53,29.91c-7.73,5.27-.42,18,7.38,12.62a114.93,114.93,0,0,0,33.7-35.2l-13.28-5.6c-4,9.74-11.37,17.7-18.34,25.4-6.06,6.71,3.66,16.59,10,10,4.69-4.9,9.38-9.82,13.63-15.1,4-5,8.84-10.1,11.33-16,1.9-4.51-4.43-9-8.26-6.36Z"/><path class="cls-2" d="M339.32,704.81l2,10.44c.47,2.43,4.15,1.4,3.71-1l-1.92-10.47c-.45-2.48-4.27-1.44-3.79,1Z"/><path class="cls-2" d="M340.94,715.58c-.13,2-.26,4.07-.4,6.1s-.68,4.05,0,5.9a2.56,2.56,0,0,0,4.88,0c.7-1.84.16-4,0-5.9s-.28-4.07-.41-6.1a2.07,2.07,0,0,0-4.13,0Z"/><path class="cls-2" d="M343.42,694.74q-.23,17.5.76,35c.2,3.45,5.41,3.51,5.42,0l0-21.06c0-3.38,1.55-10.6-1.93-12.81a3.17,3.17,0,0,0-4.27,1.12,5.75,5.75,0,0,0-.75,2.68c-.36,3.6,5.52,4.35,6.3.85.35-1.55.69-3.1,1-4.67l-6.92-.93q.92,26.65,1.1,53.35c0,4.76,7.4,4.77,7.41,0,.06-17.82-.43-35.57-1.46-53.35-.27-4.59-6.61-4.48-7.05,0-.15,1.58-.27,3.16-.38,4.75h6.41l-.27.47-4.27,1.12c-1.83-.81-.87,4.26-.84,5.51l.15,7.65.3,15.32h5.42q-1.39-17.44-2-35a2.11,2.11,0,0,0-4.22,0Z"/><path class="cls-2" d="M339,695c-.4,12.58-.51,25.16-.94,37.73-.15,4.44,6.32,4.24,6.77,0,.75-7.11,1.29-14.24,1.9-21.37h-7l-1.2,30.9c-.18,4.58,7,4.58,7.13,0l1.08-30.9c.16-4.55-6.65-4.44-7,0-.58,7.12-1.23,14.24-1.66,21.37h6.77c-.13-12.6-.4-25.17-1.42-37.73-.23-2.8-4.32-2.87-4.41,0Z"/><path class="cls-2" d="M538.83,659.62l-.86,1.26,1.69.71.29-.52-1.47-.85c-.61,4.59-9.55,5.09-12.76,4.9a44.79,44.79,0,0,1-11.64-2.7c-6.4-2.18-12.59-4.52-19.44-4.39a1.18,1.18,0,0,0-.59,2.17c7.29,4.69,16.35,13,25.55,13.07,4,0,11.89-2.6,12.46-7.27.2-1.67-2.44-1.67-2.62,0s-3.8,3-5.12,3.62c-4.34,2-8.56,1-12.64-1.1-5.72-2.95-11-6.87-16.45-10.33l-.59,2.17c10.39-.23,19.32,5.76,29.48,6.84,5,.54,15.81-.22,16.32-7a1,1,0,0,0-1.47-.84c-.8.6-.94.7-1.09,1.72s1.12,1.69,1.69.71l.76-1.32c.57-1-.87-1.78-1.5-.87Z"/><path class="cls-2" d="M539,659v.07c-.29,2,2.78.78,1.51-.4l-.06-.05c-.42-.4-1.34-.31-1.44.38Z"/><path class="cls-2" d="M539.34,669.29a13.68,13.68,0,0,0,2.53-4.78.34.34,0,0,0-.61-.26c-1.73,2.76-3.47,5.53-5.19,8.3-.23.36.32.81.61.47a26.73,26.73,0,0,0,5-8.87c.15-.44-.57-.76-.76-.32a40.3,40.3,0,0,1-4.65,7.68c-.32.41.34.86.7.54,3.9-3.58,6.33-8.23,5.71-13.61a.56.56,0,0,0-.7-.53,19.11,19.11,0,0,1-4.75.67l.17,1.25c1.86-.56,5.52-1.91,5.06,2.33-.11,1.07-1.46,2.7-2,3.6a68.71,68.71,0,0,1-5.71,7.56c-.49.59.3,1.42.86.85a46.07,46.07,0,0,0,5.14-6.42c1.23-1.83,3.15-4.28,3.47-6.55.6-4.14-4.74-3.33-7.14-2.6-.66.21-.57,1.29.17,1.25a20.57,20.57,0,0,0,5-.88l-.7-.53c.68,5.14-1.51,9.53-5.23,13l.7.54a39.79,39.79,0,0,0,4.6-7.71l-.77-.32a25.74,25.74,0,0,1-4.72,8.54l.61.47c1.71-2.78,3.4-5.56,5.1-8.35l-.61-.26a13.38,13.38,0,0,1-2.35,4.6c-.2.26.25.62.46.36Z"/><path class="cls-2" d="M471.69,337.28a13.13,13.13,0,0,1-4.32-5.21c-.21-.43-.81-.06-.63.36a24.14,24.14,0,0,0,8.81,10.71c.36.24.81-.33.47-.6-4.13-3.32-9.23-7.45-9-13.34s4.93-7.33,9.89-5.59a8.19,8.19,0,0,0,2.53.88c2.39.05,2-1,3.31-2.24,8.71-7.83,6.22-1.72,12.29-.25a3.73,3.73,0,0,0,3.81-.82c2.42-2.29,3.53-5,7.72-4,3.15.72,5,3.3,6.05,6.12,1.43,3.77.48,8,2.06,11.66,1.76,4.07,4.4,6.55,4.71,11.35.06.88,1.42.88,1.36,0a17.81,17.81,0,0,0-2-7.53c-.63-1.17-1.57-2.13-2.22-3.27-1.49-2.58-1.19-5.24-1.55-8.06-.54-4.35-2.35-9.25-6.75-11-3.48-1.41-6.31-.38-8.9,1.94a5.14,5.14,0,0,0-.85,1.4c-2.89.95-5.22.51-7-1.33-.93-.45-1.41-1.14-2.48-1.48a5.45,5.45,0,0,0-4.29.41,5.72,5.72,0,0,0-2,1.83c.21-.31-1.27,3-.91,2.69-2.67,2.28-5.47-.32-8.12-.5-3.75-.25-6.84,3-7.43,6.46-.84,5,2.73,10.4,6.69,13.17,3.33,2.33-.32-1.13-1-1.88-.12-.13-3.83-5.62-3.88-5.62-1.53.11,2.67,3.82,3.4,4.33.32.23.63-.3.31-.53Z"/><path class="cls-2" d="M504.71,294c5.11,2.15,9.21,5.63,10.75,11.12a.9.9,0,0,0,1.73-.48c-1.72-6.15-6.29-10-12-12.37-1.07-.45-1.54,1.29-.48,1.73Z"/><path class="cls-2" d="M474,312.44c2.09-5.84,2.42-12.54,5.55-18,5.47-9.5,17.4-5.75,24.08.08.87.76,2.15-.51,1.28-1.27-5.76-5-16.09-9.55-23.27-4.3-6.74,4.93-6.81,15.82-9.37,23-.39,1.09,1.35,1.56,1.73.48Z"/><path class="cls-2" d="M481.23,320.62a13.59,13.59,0,0,1-6.94-8.18c-.35-1.09-2.09-.62-1.73.48a15.35,15.35,0,0,0,7.76,9.25c1,.51,1.95-1,.91-1.55Z"/><path class="cls-2" d="M463.14,332.91c-.62,3.15.95,5.37,2.09,8.17.34.85,1.73.47,1.38-.38-1.06-2.54-2.68-4.76-2.33-7.64.07-.64-1-.79-1.14-.15Z"/><path class="cls-2" d="M462.78,333.88c.39,4.92,1.61,8.25,5.41,11.52s7.81,5.3,11.86,7.93c.8.52,1.6-.62,1-1.28-2.58-2.79-6.66-4.05-9.66-6.42a24.53,24.53,0,0,1-4.57-4.24c-1.68-2.23-2.25-5-2.76-7.68a.65.65,0,0,0-1.27.17Z"/><path class="cls-2" d="M522.84,306c-5.14-5-12-.5-17.08,2.12-4.81,2.47-10.51,6.62-9.2,12.65.32,1.46,2.57.84,2.25-.62-1.32-6.09,6.6-8.93,10.63-11,1.79-.92,3.53-2.39,5.49-2.93,2.57-.7,4.81.19,7.19,1a.74.74,0,0,0,.72-1.24Z"/><path class="cls-2" d="M512.21,641.69v-.59a.7.7,0,0,0-.69-.69c-.77,0-1.18.42-1.7.94-.88.86-1.68,1.79-2.5,2.71s.44,2.08,1.26,1.26a8.31,8.31,0,0,0,2.11-3.52.91.91,0,0,0-1.51-.88L506,644.29l1.52,1.17a21.36,21.36,0,0,0,2.38-4.57c.41-1.19-1.24-1.65-1.88-.79-1.12,1.49-2.22,3-3.33,4.47l1.77,1q1.63-2.65,3.28-5.29c.62-1-.85-2.15-1.62-1.25-1.45,1.69-3,3.34-4.34,5.09-.81,1,.55,2.52,1.49,1.49,1.51-1.64,2.89-3.41,4.31-5.12l-1.62-1.25c-1.08,1.77-2.18,3.53-3.27,5.29-.72,1.15,1,2.07,1.77,1l3.34-4.47-1.89-.8a19.12,19.12,0,0,1-2.06,4.15c-.56.92.77,2,1.52,1.17l3.12-3.46-1.51-.88a6.3,6.3,0,0,1-1.63,2.74l1.26,1.26c.51-.6,1-1.21,1.53-1.82.27-.34,1.06-1.7,1.41-1.71l-.68-.69,0,.59a.66.66,0,0,0,1.31,0Z"/><path class="cls-2" d="M519.58,644.05a11.43,11.43,0,0,1-2,4.13l1.62.94c.84-1.64,1.7-3.27,2.51-4.93l-2-.83a11.63,11.63,0,0,1-.7,2.47,11.2,11.2,0,0,0-1.07,2.24c-.12.77.64,1.55,1.4,1.07,1.51-.93,2.15-3.57,2.43-5.21.19-1.09-1.39-2-1.95-.82-.79,1.67-1.52,3.38-2.28,5.07a.94.94,0,0,0,1.62.94,8.78,8.78,0,0,0,1.54-4.91.59.59,0,0,0-1.15-.16Z"/><path class="cls-2" d="M493,714.21c.2-.37.4-.74.61-1.11.44-.81-.79-1.53-1.24-.72s-1,1.84-1.48,2.76a.85.85,0,0,0,1.47.86c.47-.63.88-1.3,1.31-2l-1.61-.94a33.6,33.6,0,0,1-1.82,3.4l1.64,1a21,21,0,0,1,2.45-4.17l-1.64-.95c-.87,2-1.64,4-2.48,6l1.5.63c.8-1.87,1.68-3.71,2.65-5.5l-1.66-.7a15.67,15.67,0,0,1-2.75,4.83l1.59.92c.49-1.61,1.46-3.17,1.49-4.89,0-1.4-.73-1.4-1.86-1.48l1,.72,0-.15-.1.77c.75-1.26.21-1.94-1-2.65a1.09,1.09,0,0,0-1.1,1.89,12.51,12.51,0,0,0,2.12.93l.59-2.14c-1.12-.26-2.17-.65-3.27-.19a1.18,1.18,0,0,0-.41,1.58c.59,1,1.9,1.35,3,1.71a1.1,1.1,0,0,0,.84-2,20.18,20.18,0,0,1-2.74-1.75l-.6,2.2a10.16,10.16,0,0,1,1.74.37,1.19,1.19,0,0,0,.91-2.16,4.73,4.73,0,0,0-2.43-.84,1.29,1.29,0,0,0-1.09.63c-.91,1.94,1.35,2.32,2.7,2.75v-2.41l-.23.09a1.25,1.25,0,1,0,1,2.29l.23-.1c1-.45.65-2-.3-2.28a8.18,8.18,0,0,1-1.63-.53l.58.75v.41l-1.22.92a4,4,0,0,1,1.52.48l.63-2.28a21.07,21.07,0,0,0-2.37-.45c-1.26-.16-1.46,1.62-.6,2.2a20.87,20.87,0,0,0,2.84,1.6l.84-2c-.41-.15-1.35-.36-1.56-.76l-.69,1.69c.42-.16,1.36.16,1.79.22,1.37.18,2-1.8.59-2.14a5.86,5.86,0,0,1-1.61-.68l-1.1,1.89a4.75,4.75,0,0,1,1,.52l-.47-.6.07.18.1-.76c-.27.5-.52.7-.35,1.33a1,1,0,0,0,.95.73c.26,0,.55-.09.79-.06l-.85-.49c0-.29-.05-.24-.05.15a2.89,2.89,0,0,1-.13.77,10.06,10.06,0,0,1-.35,1.1c-.3.81-.63,1.59-.87,2.41s1,1.68,1.58.93a17.8,17.8,0,0,0,3.17-5.69.92.92,0,0,0-1.67-.7,50.78,50.78,0,0,0-2.58,5.79c-.32.86,1.12,1.48,1.5.63.85-1.9,1.79-3.78,2.62-5.71a1,1,0,0,0-1.64-.95,20.67,20.67,0,0,0-2.45,4.16,1,1,0,0,0,1.64,1,25.86,25.86,0,0,0,1.79-3.42.93.93,0,0,0-1.61-.94c-.4.67-.82,1.33-1.17,2l1.56.66a23.85,23.85,0,0,1,1.16-2.7l-1.32-.55c-.14.39-.27.79-.41,1.19-.22.65.78,1.06,1.12.47Z"/><path class="cls-2" d="M478.92,709.33l.2-.21c1-.65-.26-2-1-1a18.55,18.55,0,0,0-1.59,2.5l1.66.7a7.83,7.83,0,0,1,1.13-1.88l-1.57-1.21-1.39,2.47a1.06,1.06,0,0,0,1.82,1.07,10.77,10.77,0,0,1,1.37-2.11l-1,.28.15,0-.75-1.33a4.89,4.89,0,0,1-.5,1.15c-.49,1,.84,2.3,1.68,1.3a8.85,8.85,0,0,0,1.31-2L478.55,708a11.56,11.56,0,0,1-1.55,2.82l1.71,1a2.63,2.63,0,0,1,.45-.82l-.8.11.13,0-.62-.48.07.14-.11-.8c-.39,1.54-1.53,2.81-2,4.32a.91.91,0,0,0,1.51.88,12.24,12.24,0,0,0,1.73-2.89c.36-.73,1.07-1.72.66-2.56-1-2-2.65.5-3,1.51a1,1,0,0,0,1.7,1,12.7,12.7,0,0,0,1.95-3.19c.57-1.23-1.23-2.32-1.84-1.07a7,7,0,0,1-1,1.55l1.69,1.3a5.75,5.75,0,0,0,.72-1.65,1.1,1.1,0,0,0-.75-1.33c-1.53-.32-2.24,1.75-2.87,2.81l1.82,1.07,1.3-2.53a1,1,0,0,0-1.73-1,8.21,8.21,0,0,0-1.31,2.61c-.35,1.15,1.33,1.54,1.75.48a20.77,20.77,0,0,1,1.21-2.46l-1.16.15.11.13-.13-.52-.08.26a.48.48,0,0,0,.79.46Z"/><path class="cls-2" d="M493.14,712.29c.83,2.42-3.9,7.81-5.32,9.49-2.21,2.61-4.93,4.81-7,7.49-.62.8.2,2.26,1.19,1.55,2.34-1.67,17.58-16.75,12-19.19-.42-.19-1.05.13-.86.66Z"/><path class="cls-2" d="M477.6,707.42c-3.32,4.39-5.64,11.13-6.35,16.55-.13,1,1.35,1,1.66.23,1-2.7,1.68-5.55,2.66-8.28s2.21-5.34,2.91-8.13a.48.48,0,0,0-.88-.37Z"/><path class="cls-2" d="M371.19,356.72c2.3,5.22,5.1,7.92,9.81,10.95,5.42,3.49,9.32,8.49,14.07,12.73a.73.73,0,0,0,1-1,69.43,69.43,0,0,0-10.86-11.28c-1.81-1.41-3.79-2.54-5.69-3.81-3.38-2.26-5.11-4.84-7.41-8.13a.55.55,0,0,0-.95.56Z"/><path class="cls-2" d="M399.56,379.57a3.27,3.27,0,0,0-1.3.35,2.78,2.78,0,0,0-.63.5A2.81,2.81,0,0,0,397,383a2.94,2.94,0,0,0,1.29,1.7,3.07,3.07,0,0,0,2.28.3l-.66.09h.06l.67-.09a1.94,1.94,0,0,0,.85-.45,2.65,2.65,0,0,0,.9-1.3,3.18,3.18,0,0,0-.23-2.61,3.81,3.81,0,0,0-.64-.81,3,3,0,0,0-2.85-.8,4,4,0,0,0-1.72,1,3.86,3.86,0,0,0-1,1.71,4,4,0,0,0,0,2,3.44,3.44,0,0,0,.8,1.43,2.89,2.89,0,0,0,2.42.78,2.86,2.86,0,0,0,1.73-.81,2.82,2.82,0,0,0-1.19-4.73,2.52,2.52,0,0,0-1.95.26l-.51.39a2.59,2.59,0,0,0-.65,1.12l0,0,.66-1.14,0,0,.53-.41,0,0,.63-.27,0,0,.71-.1-.92.13h1.43l.67.29,0,0,1.3,1.68,0-.07.11.75a1.13,1.13,0,0,1,0-.26l-.1.76a1.11,1.11,0,0,1,.07-.26l-.29.69a8.59,8.59,0,0,0,.37-.88l-.29.69a1,1,0,0,1,.13-.23l-.45.58a1.62,1.62,0,0,1,.18-.2l-.58.46a1.09,1.09,0,0,1,.23-.14l-.68.29.06,0-2.21-.29.07.06-.58-.45c.09.07.17.16.26.24a3.79,3.79,0,0,0,1.37.77l-.65-.28a1.23,1.23,0,0,1,.25.14l-1.15-2.84,0,0,.64-1.09-.05,0,.5-.38-.06,0,.58-.24H399l.65-.08h-.13l.64.09a.31.31,0,0,1-.13,0l.57.25-.11-.07.48.38-.09-.1.37.48,0-.06.24.57a.28.28,0,0,1,0-.13l.08.62a.62.62,0,0,1,0-.13l-.08.62a.28.28,0,0,1,0-.12l-.23.55,0-.06-.36.46.09-.09-.46.35.11-.06.46-.35a1.68,1.68,0,0,0,.46-.72,2.19,2.19,0,0,0,.12-1.47,2.67,2.67,0,0,0-.58-1,2.18,2.18,0,0,0-1.59-.66Z"/><path class="cls-2" d="M402.82,378.39a1.61,1.61,0,0,0-.16-.38c-.05-.13-.1-.25-.16-.37l.3.7,0-.09.11.76a.14.14,0,0,1,0-.09,2.74,2.74,0,0,0-.39-1.42,2,2,0,0,0-.72-.79,2.13,2.13,0,0,0-1-.51,2.93,2.93,0,0,0-1.5,0A3.18,3.18,0,0,0,398,377a3.14,3.14,0,0,0-.83,1.4,2.89,2.89,0,0,0,.76,2.86l.6.46a2.87,2.87,0,0,0,1.48.41,2.23,2.23,0,0,0,1.14-.26,2.25,2.25,0,0,0,.95-.61,3,3,0,0,0,.76-2.86Z"/><path class="cls-2" d="M394,372.78a3.5,3.5,0,0,0-1.67.47,2.83,2.83,0,0,0-1,1,3.82,3.82,0,0,0-.31.72,4.18,4.18,0,0,0-.14.92,2,2,0,0,0,.24,1.07,2.1,2.1,0,0,0,.57.9l.56.43a2.16,2.16,0,0,0,1,.33,1.3,1.3,0,0,0,.73,0,2.16,2.16,0,0,0,1-.33l.56-.43a2.83,2.83,0,0,0,.71-1.23v0l-.28.67.08-.14-.44.57a.1.1,0,0,0,0-.05l.44-.56.29-.69a.56.56,0,0,1,0-.12l-.28.66a.67.67,0,0,1,.09-.14l-.42.54,0,0,.41-.55.27-.63.1-.71a2,2,0,0,0-.23-1,1.29,1.29,0,0,0-.34-.59,1.38,1.38,0,0,0-.48-.48A1.43,1.43,0,0,0,395,373a2.13,2.13,0,0,0-1-.23Z"/><path class="cls-2" d="M395.38,381.33h0l-.58-.44h0l-.45-.57h0l-.29-.67h0l-.1-.75h0l.1-.74h0l.28-.67v0l.43-.56h0l-.43.55a2,2,0,0,0-.32,1,1.29,1.29,0,0,0,0,.73,2,2,0,0,0,.32,1h0c.07.1.28.36.22.28.07.1.15.19.22.28h0s.53.42.57.44h0l.67.29a2,2,0,0,0,1.14.05,2.64,2.64,0,0,0,.38-.05l.68-.29a3,3,0,0,0,.29-.22l.29-.23.45-.58a2.09,2.09,0,0,0,.33-1.05,1.4,1.4,0,0,0,0-.76,1.39,1.39,0,0,0-.19-.72,2.21,2.21,0,0,0-.59-.92l-.58-.44-.68-.29a2.17,2.17,0,0,0-1.13-.05,1.49,1.49,0,0,0-.72.19,1.44,1.44,0,0,0-.63.37,2.16,2.16,0,0,0-.73.8l-.29.68-.1.76.1.75a2.16,2.16,0,0,0,.51,1,2.19,2.19,0,0,0,.8.74Z"/><path class="cls-2" d="M397,377.16a2.76,2.76,0,0,0,.36.87,3.5,3.5,0,0,0,1.2,1.19,3.23,3.23,0,0,0,1.58.43,2.46,2.46,0,0,0,1.2-.27,2.41,2.41,0,0,0,1-.65,3.12,3.12,0,0,0,.81-1.38s0,0,0,0l-.32.75,0,0-.5.64s0,0,0,0l-.65.51,0,0,.66-.51.51-.67.33-.78.11-.86-.11-.87-.33-.78-.51-.66a2.48,2.48,0,0,0-1.05-.68,3.35,3.35,0,0,0-1.7-.22,1.58,1.58,0,0,0-.82.22,1.64,1.64,0,0,0-.72.42,1.67,1.67,0,0,0-.59.59,1.64,1.64,0,0,0-.42.72,1.58,1.58,0,0,0-.22.82,2.4,2.4,0,0,0,.06,1.3Z"/><path class="cls-2" d="M407.71,381v0a3.41,3.41,0,0,0-.45-1.66,3.33,3.33,0,0,0-1.18-1.18l-.79-.34a3.46,3.46,0,0,0-1.75,0,2.58,2.58,0,0,0-1.12.59,2.44,2.44,0,0,0-.84.93,3.21,3.21,0,0,0-.45,1.66,3.26,3.26,0,0,0,.45,1.66v0l.51.66a2.45,2.45,0,0,0,1.06.68,1.6,1.6,0,0,0,.83.23,2.44,2.44,0,0,0,1.31-.06l.78-.33.66-.52a2.36,2.36,0,0,0,.68-1.05,2.5,2.5,0,0,0,.29-1.27Z"/><path class="cls-2" d="M410.21,383.68c.74,2.43,3.1,3.31,5.11,4.6a109.44,109.44,0,0,1,9.63,7.23c.7.57,1.68-.35,1-1a55,55,0,0,0-6.77-5.48c-2.29-1.6-6.8-3.17-7.91-5.79-.26-.62-1.26-.18-1.07.45Z"/><path class="cls-2" d="M317.82,416.16l-.47.27-.21.12a1.31,1.31,0,0,0-.42.39.77.77,0,0,0,.06.86.79.79,0,0,0,.81.28,1.55,1.55,0,0,0,.57-.33l.41-.32a.83.83,0,0,0,.34-.44.72.72,0,0,0-.08-.57.74.74,0,0,0-1-.26Z"/><path class="cls-2" d="M323.53,422.46l0,0-.22.1.07,0-.26,0h.09l-.26,0,.12,0-.25-.1.06,0-.21-.16s0,0,.05.05a1.3,1.3,0,0,0,.5.28l-.26-.1.05,0a1,1,0,0,0,1.27-.17,1.21,1.21,0,0,0,.28-.46.75.75,0,0,0,0-.42.69.69,0,0,0-.12-.39,1.3,1.3,0,0,0-2.24.05,1.14,1.14,0,0,0-.12.6.89.89,0,0,0,.26.53,1,1,0,0,0,1.14.15Z"/><path class="cls-2" d="M327.73,427.42l.13,0a.83.83,0,0,0,.37-.2.27.27,0,0,0,.13-.1,1.22,1.22,0,0,0,.3-.53,1.07,1.07,0,0,0-.28-1.06,1.09,1.09,0,0,0-1.07-.28,1.19,1.19,0,0,0-.52.3,1.12,1.12,0,0,0-.3.5.56.56,0,0,0,0,.12,1.06,1.06,0,0,0,0,.56,1,1,0,0,0,1.28.73Z"/><path class="cls-2" d="M332.21,430.62c-.06-.09-.07,0,0,0s-.05-.13,0,0v-.17c0,.19-.05,0,0,0s0-.05,0,0,0,.07,0,0,.14-.16,0,0,.13-.14.12-.14a1.24,1.24,0,0,0-1.53-1.87,1.82,1.82,0,0,0-.75,1.93,2.33,2.33,0,0,0,.73,1.41.93.93,0,0,0,1.45-1.12Z"/><path class="cls-2" d="M337.09,435l.27-.15a1.77,1.77,0,0,0,.44-.38l.22-.22a1.59,1.59,0,0,0,.42-.69,1.13,1.13,0,0,0-1.39-1.38,2.69,2.69,0,0,0-1.42,1.36,1.09,1.09,0,0,0,.16,1.29,1.14,1.14,0,0,0,1.3.17Z"/><path class="cls-2" d="M343.87,438.87c0-.08.09-.15.14-.23a1.23,1.23,0,0,0,.19-.65,2.14,2.14,0,0,0-.07-.43l-.12-.28a.8.8,0,0,0-.3-.33,1.11,1.11,0,0,0-.7-.25,1.33,1.33,0,0,0-.59.16,1.19,1.19,0,0,0-.54.7,2.14,2.14,0,0,0-.07.43,1.23,1.23,0,0,0,.19.65l.15.23a1,1,0,0,0,.86.49,1,1,0,0,0,.86-.49Z"/><path class="cls-2" d="M348.4,443.65a1.51,1.51,0,0,0,.33-.13l.24-.19a1.05,1.05,0,0,0,.3-.52.57.57,0,0,0,0-.18.84.84,0,0,0,0-.47.77.77,0,0,0-.07-.16.8.8,0,0,0-.24-.39l0,0a.91.91,0,0,0-.37-.24,1,1,0,0,0-.45-.1l-.31,0a1.19,1.19,0,0,0-.51.3,1.18,1.18,0,0,0-.32.55,1.14,1.14,0,0,0,0,.66,1.24,1.24,0,0,0,.55.72,1.16,1.16,0,0,0,.87.13Z"/><path class="cls-2" d="M354.93,446.52l.13-.12a1.26,1.26,0,0,0,.37-.64,1.38,1.38,0,0,0,0-.64,1.24,1.24,0,0,0-.31-.53,1.13,1.13,0,0,0-.53-.3,1.16,1.16,0,0,0-.64,0,1.18,1.18,0,0,0-.64.36l-.12.13a.9.9,0,0,0-.25.39,1,1,0,0,0-.11.48,1.46,1.46,0,0,0,.36.87l.25.19a1.23,1.23,0,0,0,.62.17l.33-.05a1.13,1.13,0,0,0,.54-.31Z"/><path class="cls-2" d="M359.05,448.36l.11.16s0,.05,0,.08l.18.24.24.18.05,0,.28.11a.77.77,0,0,0,.45,0,.51.51,0,0,0,.29-.08.85.85,0,0,0,.37-.23l.18-.23.11-.28a.77.77,0,0,0,0-.45.94.94,0,0,0-.13-.43l0,0a.6.6,0,0,0-.09-.13.84.84,0,0,0-.21-.21l-.2-.13-.16-.11-.27-.11a.89.89,0,0,0-.43,0,.61.61,0,0,0-.27.08.84.84,0,0,0-.36.22l-.17.23-.11.26a.9.9,0,0,0,0,.43.86.86,0,0,0,.13.41Z"/><path class="cls-2" d="M366.66,451.56l0,.09-.1-.81,0,.05a1.06,1.06,0,0,0,0,.61,1.1,1.1,0,0,0,.29.5l.11.11a.91.91,0,0,0,.37.24,1.12,1.12,0,0,0,.88,0,.85.85,0,0,0,.37-.24l.18-.23a1.1,1.1,0,0,0,.16-.58l0-.31a1.32,1.32,0,0,0-.3-.51l-.1-.1a1.14,1.14,0,0,0-1.12-.3l-.05,0,.81.11-.08-.06-.25-.1a.72.72,0,0,0-.41,0,.48.48,0,0,0-.26.07.72.72,0,0,0-.33.21l-.16.21-.11.25a.81.81,0,0,0,0,.41.75.75,0,0,0,.13.38Z"/><path class="cls-2" d="M375,454s.19-.08.06,0,0,0,0,0l.15,0s.23,0,0,0,0,0,0,0h.15a1.3,1.3,0,0,0,.92-.44,1.16,1.16,0,0,0,.3-.94,1,1,0,0,0-.53-.81,1.37,1.37,0,0,0-1.29,0,2.6,2.6,0,0,0-.49.4,2.92,2.92,0,0,0-.59.95.86.86,0,0,0,1.26,1Z"/><path class="cls-2" d="M380.46,453h0l.59-.45h0l-.27.11a.86.86,0,0,0-.31.29.72.72,0,0,0-.14.24.76.76,0,0,0-.09.42.28.28,0,0,0,0,.09l0,.29a.87.87,0,0,0,.19.37.61.61,0,0,0,.2.19.83.83,0,0,0,.37.2,1.14,1.14,0,0,0,.58,0l.26-.11a.74.74,0,0,0,.3-.28.61.61,0,0,0,.15-.24,1,1,0,0,0,.09-.42s0-.06,0-.09l0-.29a.75.75,0,0,0-.2-.37.48.48,0,0,0-.2-.2.83.83,0,0,0-.37-.2h0l.59.45h0a.91.91,0,0,0-.35-.35,1,1,0,0,0-.49-.13.92.92,0,0,0-.49.13.84.84,0,0,0-.35.35Z"/><path class="cls-2" d="M387.9,453.18a1.64,1.64,0,0,0-.19.72,1.47,1.47,0,0,0,.07.46,1.52,1.52,0,0,0,1,1,1.16,1.16,0,0,0,.87-.12,1.19,1.19,0,0,0,.46-.53,1.11,1.11,0,0,0,.05-.74,1.14,1.14,0,0,0-.51-.67l-.07,0,.23.17a.27.27,0,0,1-.08-.07l.18.23a1.4,1.4,0,0,1-.1-.16l.11.27,0-.1,0,.29v-.1l0,.29v0a1.15,1.15,0,0,0-.12-.85,1.2,1.2,0,0,0-.52-.45,1.05,1.05,0,0,0-.72-.05,1.08,1.08,0,0,0-.66.5Z"/><path class="cls-2" d="M394.24,454.18l.06,0-.46-.27,0,0a.68.68,0,0,0,.35.22.5.5,0,0,0,.27.08l.17,0h0a.87.87,0,0,0,.42-.1.35.35,0,0,0,.14-.06,1.1,1.1,0,0,0,.54-.93,1.08,1.08,0,0,0-.54-.93h0a.76.76,0,0,0-.41-.13l-.18,0h0l-.29,0a.77.77,0,0,0-.37.19.33.33,0,0,0-.14.12l.46-.27-.06,0-.24.1a.73.73,0,0,0-.29.26.48.48,0,0,0-.13.23.86.86,0,0,0-.09.39l0,.27.1.24a.81.81,0,0,0,.26.29.78.78,0,0,0,.35.18Z"/><path class="cls-2" d="M399.64,450.4a3.24,3.24,0,0,0-.35.27,2.69,2.69,0,0,0-.2.27L399,451l-.1.25a.75.75,0,0,0,0,.42.5.5,0,0,0,.07.27.83.83,0,0,0,.22.34l.21.16.25.11a.9.9,0,0,0,.43,0,.79.79,0,0,0,.39-.13l.07,0,0,0a2.35,2.35,0,0,0,.25-.19c.06-.06.12-.16.18-.23l0,0,.07-.09.1-.25a.75.75,0,0,0,0-.42.54.54,0,0,0-.07-.27.74.74,0,0,0-.22-.33l-.21-.17-.25-.11a.9.9,0,0,0-.43,0,.79.79,0,0,0-.39.13Z"/><path class="cls-2" d="M406.38,450.24a1.09,1.09,0,0,0,0-2.18,1.09,1.09,0,0,0,0,2.18Z"/><path class="cls-2" d="M409.87,444.93h0l-.24.19h0l-.19.25h0s-.12.27-.13.29a1.19,1.19,0,0,0,0,.33s0,.29,0,.32h0c0,.05.15.36.06.15a.87.87,0,0,0,.06.15h0l.19.25,0,0a1.21,1.21,0,0,0,.26.2l.31.13a.87.87,0,0,0,.5,0l.22,0,.3-.13h0a1.33,1.33,0,0,0,.26-.21s.18-.23.2-.25h0a.93.93,0,0,0,.15-.46.91.91,0,0,0,0-.49l-.13-.29a.88.88,0,0,0-.31-.35.71.71,0,0,0-.28-.16.93.93,0,0,0-.47-.1l-.33,0a1.3,1.3,0,0,0-.54.32h0L410,445h0l.3-.13h0l.33,0h-.05l.33,0h0l-.17,0a.65.65,0,0,0-.34,0,.59.59,0,0,0-.31.09l-.16.06.3-.12h0l.33,0h0l.32,0h0l.29.12h0l.24.19h0l.18.25h0l.12.28v0l.05.32v0a1.15,1.15,0,0,0-.58-1,1.18,1.18,0,0,0-1.18,0Z"/><path class="cls-2" d="M414.08,441.06l0,.38a1.69,1.69,0,0,0,.06.63,1.22,1.22,0,0,0,2.35,0,1.69,1.69,0,0,0,.06-.63l0-.38a1.27,1.27,0,0,0-.35-.84,1.2,1.2,0,0,0-1.69,0,1.38,1.38,0,0,0-.35.84Z"/><path class="cls-2" d="M420.07,436.16l-.07.45a2.89,2.89,0,0,0-.07.49,1.52,1.52,0,0,0,.07.52,1.26,1.26,0,0,0,1.21.92,1.28,1.28,0,0,0,1.21-.92,2.25,2.25,0,0,0,.07-.52,2.89,2.89,0,0,0-.07-.49l-.07-.45-.12-.28a.87.87,0,0,0-.3-.33,1.11,1.11,0,0,0-.72-.25,1.41,1.41,0,0,0-.6.16,1.15,1.15,0,0,0-.54.7Z"/><path class="cls-2" d="M423.44,432.16v.2l.67-1.18a.79.79,0,0,0-.15.12,1.18,1.18,0,0,0-.37.4l-.14.35a1.57,1.57,0,0,0,0,.23.86.86,0,0,0,0,.39,1.12,1.12,0,0,0,.18.55.61.61,0,0,0,.07.1,1.46,1.46,0,0,0,.87.67l.39.05a1.09,1.09,0,0,0,.56-.12.8.8,0,0,0,.32-.19,1,1,0,0,0,.37-.41,1.42,1.42,0,0,0,.15-1.12l0-.12-.15-.35a1.07,1.07,0,0,0-.38-.41,1.18,1.18,0,0,0-.53-.28,1.47,1.47,0,0,0-.78,0l1.32.35-.15-.14a1.55,1.55,0,0,0-.57-.33l-.34,0a.93.93,0,0,0-.49.11.61.61,0,0,0-.28.16.63.63,0,0,0-.23.23,1.21,1.21,0,0,0-.27.77Z"/><path class="cls-2" d="M426.83,424a2.12,2.12,0,0,0-.46.83,2.2,2.2,0,0,0,0,1v-.73a1.41,1.41,0,0,0,.07.95,1.54,1.54,0,0,0,.6.69l.1.06a1.41,1.41,0,0,0,1.42,0,1.54,1.54,0,0,0,.57-.67,1.23,1.23,0,0,0,.1-.73,1.75,1.75,0,0,0-.18-.56l.14.34,0-.08a1.51,1.51,0,0,0-.52-.75.64.64,0,0,0-.32-.18,1,1,0,0,0-.55-.13h0l1,.41-.09-.08.22.28a1,1,0,0,1-.08-.14l.13.32a.75.75,0,0,1,0-.16l.05.34v-.12l0,.34v0a1.32,1.32,0,0,0-.06-.81,1.2,1.2,0,0,0-.51-.6,1.48,1.48,0,0,0-.63-.17,1.19,1.19,0,0,0-.87.37Z"/><path class="cls-2" d="M429.27,417.85a1.63,1.63,0,0,0-1.13,1.55l.17-.65a1.5,1.5,0,0,0,.15,1.7,1.56,1.56,0,0,0,1.64.57,1.35,1.35,0,0,0,.6-2.25,3.18,3.18,0,0,0-.37-.27l.28.22a.86.86,0,0,1-.19-.19l.21.28a1.47,1.47,0,0,0-.55-.53l.47.47a.3.3,0,0,1,0-.08l.13.31a.76.76,0,0,1,0-.11l0,.32a.2.2,0,0,1,0-.11l0,.32a.09.09,0,0,1,0,0l-.12.28a.43.43,0,0,1,0-.07l-.18.23,0,0a1.28,1.28,0,0,0,.32-.66,1.09,1.09,0,0,0-.14-.73,1.16,1.16,0,0,0-1.29-.53Z"/><path class="cls-2" d="M429.56,411.92a1.28,1.28,0,0,0-.2.26,2.68,2.68,0,0,0-.12.3h0a1.27,1.27,0,0,0,0,.67l.13.3h0a1.28,1.28,0,0,0,.2.26.77.77,0,0,0,.14.1.36.36,0,0,0,.13.1,1.09,1.09,0,0,0,.31.14l.16,0a.62.62,0,0,0,.33,0,.72.72,0,0,0,.17,0A1.15,1.15,0,0,0,431,414l.18-.09.13-.09.12-.1,0,0,.18-.24h0a.93.93,0,0,0,.12-.29,1.09,1.09,0,0,0,0-.62,1.12,1.12,0,0,0-.3-.51,1.19,1.19,0,0,0-.51-.3,1.3,1.3,0,0,0-.62,0h0l.31,0h0l.32,0h0l.28.12,0,0,.25.19-.13-.09a.85.85,0,0,0-.42-.22,1.26,1.26,0,0,0-.33-.05l.32,0h0l.29.12h0l.25.19h0l.19.25h0l.13.29h0l.05.32v0l-.05.33v0l0-.32a.91.91,0,0,0-.1-.46.63.63,0,0,0-.16-.27.9.9,0,0,0-.33-.31l-.29-.12-.32,0a.83.83,0,0,0-.47.1.9.9,0,0,0-.39.25Z"/><path class="cls-2" d="M429,406l0,.31a2.45,2.45,0,0,0,0,.38,1.26,1.26,0,0,0,.3.51,1.05,1.05,0,0,0,.71.29,1,1,0,0,0,.7-.29,1.15,1.15,0,0,0,.3-.51,1.65,1.65,0,0,0,.05-.38l0-.31a1.07,1.07,0,0,0-.32-.76,1.09,1.09,0,0,0-.76-.32,1,1,0,0,0-.76.32,1.05,1.05,0,0,0-.32.76Z"/><path class="cls-2" d="M559.6,450a23.12,23.12,0,0,1,3.26,9.45c.17,1.59,2.7,1.62,2.52,0a25.44,25.44,0,0,0-2.77-9.33c-.72-1.42-2.73-.39-2.44,1a35.13,35.13,0,0,0,1.51,5.42,1.35,1.35,0,0,0,2.6-.72l-1.42-5.47a1.35,1.35,0,0,0-2.6.72c3.76,14.86,5.22,30.22.61,45.08-4,13-11.6,24.53-15.71,37.47-.42,1.31,1.67,2.24,2.25,1,5.85-13.16,13.31-26.13,17.08-40.1,4-14.65,2.07-29.63-1.63-44.12l-2.6.72,1.42,5.47,2.6-.72a35.08,35.08,0,0,1-1.53-5.41l-2.45,1a25.23,25.23,0,0,1,2.6,8.31l2.44-.67A22.93,22.93,0,0,0,561.43,449c-.76-1.11-2.53-.12-1.83,1.06Z"/><path class="cls-2" d="M604,446c-2.63,9.51-3.5,19.65-4.42,29.45q-1.47,15.69-1.66,31.48c-.16,15.77.48,32-3.67,47.38a1.08,1.08,0,0,0,2.08.57c5-14,3.88-30.36,3.89-45,0-10.51.42-21,1.29-31.5.89-10.77,2.87-21.47,3.57-32.24A.55.55,0,0,0,604,446Z"/><path class="cls-2" d="M249.55,711.05a1.54,1.54,0,0,0,0-3.07,1.54,1.54,0,0,0,0,3.07Z"/><path class="cls-2" d="M422.72,688.33c-3.29,2.46-7.74-.47-11.28-1s-7.22.17-10.81.53c-7.85.81-15.69.46-23.56.28-16.21-.38-31.69,2.53-47.52,5.68-7.84,1.57-15.67,3.26-23.37,5.42-7.17,2-14.13,4.85-21.42,6.37-15.77,3.27-32.25-.37-47.89,3.47-1.33.33-1.09,2.54.33,2.43,15.76-1.14,32.05.83,47.62-2.13,7.63-1.46,14.9-4.42,22.34-6.6,8.28-2.43,16.71-4.33,25.16-6.1s16.89-3.66,25.44-4.81c8.74-1.17,17.41-.92,26.2-.73,4.25.09,8.51.15,12.76-.16,4-.28,7.93-1.23,11.91-1.25,5,0,10.83,3.71,15.16,0,.75-.65-.26-2-1.07-1.39Z"/><path class="cls-2" d="M254.6,707.22c-4.61,2-6.56,6-7.94,10.68-2.18,7.34-3.5,15-5.18,22.48l2.36.32a87.54,87.54,0,0,1,6.35-30c.56-1.38-1.82-2.39-2.41-1-4.33,10-7.6,21.33-7.42,32.37a1.26,1.26,0,0,0,2.51,0c1.36-10.92,3-21.14,7.32-31.35l-2.54-.7a90.5,90.5,0,0,0-6.22,30.66,1.21,1.21,0,0,0,2.37.32c1.36-6.14,2.68-12.29,4.08-18.41,1.17-5.07,2.57-11.36,7.38-14.25.75-.45.1-1.46-.66-1.14Z"/><path class="cls-2" d="M343.25,715.33c-5,5.39-2.66,13-5.54,19.26l4.34,1.18q.69-7.53,1.79-15l-4.65-.63c-.05,9.34-3.11,18.33-2.67,27.7.12,2.59,4,3.31,4.65.63a51.82,51.82,0,0,1,2.49-7.46l-4.41-1.2,1,8.61a2.37,2.37,0,0,0,4.73,0q.36-3.39.71-6.78l-4.63.63a55.87,55.87,0,0,1,1.78,6.87l3.53-2.71-.84-1.29c-.79-2.77-4.44-1.95-4.72.64l-.26,2.28,4.72-.64-.24-1a2.42,2.42,0,0,0-4.38-.57l-.47.82,4.38.57-.26-.8c-.56-1.75-3.5-2.6-4.37-.57l-.5,1.15,4.37,1.85.1-.27-3.74-.49.54,1a2.41,2.41,0,0,0,3.74.48l1.32-1.25-4-1.05.57,1.61a2.41,2.41,0,0,0,4.34.57l.74-1.14-4.33-.57.13.74.6-2.31-.53.52,2.3-.61a3.25,3.25,0,0,0-3,.36l3.23.85c-1.69-2.74-5.64-3.19-7.39-.26-1.31,2.18,1.2,4.13,3.22,3.22.45-.21,3.1,1.09,4.08,1a3.38,3.38,0,0,0,2.17-1.19c2.15-2.12-1.16-5.44-3.32-3.32,1.51-1.48-4.52-.88-5.31-.52l3.22,3.21-.75.27a2.4,2.4,0,0,0,3.23.85l-.59.12a2.34,2.34,0,0,0,2.3-.61c1.19-1.13,1.3-1.94,1-3.55-.37-2.16-3.32-2.11-4.34-.56l-.74,1.13,4.33.57-.56-1.62a2.41,2.41,0,0,0-4-1l-1.33,1.25,3.74.48-.53-1a2.41,2.41,0,0,0-3.75-.48,5,5,0,0,0-1.34,2.37c-.7,2.53,3.26,4.39,4.37,1.85l.5-1.16-4.37-.57.25.8a2.43,2.43,0,0,0,4.38.58l.47-.82-4.39-.57.24,1c.67,2.83,4.42,1.87,4.71-.64l.27-2.28-4.73.64a6.69,6.69,0,0,0,3.06,4.16c1.83,1.24,4-.81,3.53-2.72-.54-2.31-1.16-4.58-1.87-6.84-.84-2.66-4.35-1.95-4.63.62q-.37,3.39-.73,6.78H345l-1-8.61c-.23-2-3.38-3.63-4.41-1.19a61,61,0,0,0-3,8.59l4.65.63c-.44-9.35,2.63-18.36,2.67-27.7,0-2.57-4.25-3.33-4.64-.63q-1.17,8.1-1.88,16.25c-.2,2.24,3.39,3.25,4.34,1.17,2.87-6.32.71-13.56,4.05-19.65.86-1.56-1.25-3.35-2.54-2Z"/><path class="cls-2" d="M473.57,726.38c-1.5-.49-2.18.08-3.18,1.19-2.73,3-4.69,7.52-6.83,11-1.33,2.16,1.58,4.09,3.34,2.58,3-2.59,6-5.22,9-7.83l-3.82-2.23c-1.89,5.68-7,10.94-10.46,15.76-1.6,2.25,1.73,4.28,3.57,2.76l4-3.31L466,743.09c-4,4.2-8.23,8.16-12.64,12l3.24,3.24c2.49-2.29,4.89-4.64,7.22-7.09,2-2.13-.95-4.89-3.15-3.15-3,2.37-6,4.74-9,7.07l2.68,3.47L458,754.9c1.76-1.76-.54-4.95-2.72-3.52-1.63,1.06-3.24,2.15-4.85,3.23l2.62,3.4,2.23-2.76a2.18,2.18,0,0,0-2.64-3.41l-2.77,1.47,3,3,1.26-1.72c1.36-1.85-1.24-4.07-3-3l-2.38,1.4,3.05,3.06,1.26-2.42a2.26,2.26,0,0,0-3.54-2.73l-1.76,1.47,3.22,3.21a10.43,10.43,0,0,0,1.75-2.7c.92-1.94-1-4.44-3.14-3.14l-2.29,1.41,2.84,3.68a7.24,7.24,0,0,0,1.48-2.23c.82-1.87-1.13-4.9-3.26-3.26l.36,0,2.3,1.75-.15-.38-1.1,2.7.28-.17c2.62-1.6.22-5.74-2.41-4.13l-.28.17a2.41,2.41,0,0,0-1.1,2.7l.15.38c.35.89,1.21,1.9,2.31,1.76a4.18,4.18,0,0,0,2.52-1.08l-4-2.31-.43.75c-1.52,1.91.43,5.29,2.84,3.68l2.24-1.49-3.14-3.14-1,1.8a2.27,2.27,0,0,0,3.22,3.21l1.73-1.49-3.54-2.74L448,753.76c-1,1.91,1,4.28,3.05,3.06l2.37-1.44-3-3-1.24,1.74c-1.34,1.88,1.22,4,3,3l2.75-1.51-2.64-3.41L450,755c-1.42,1.78.37,4.79,2.62,3.39,1.65-1,3.3-2,4.93-3.09l-2.72-3.52-3.63,3.74c-2,2.09.94,4.84,3.12,3.12,3-2.37,6-4.7,9-7l-2.7-3.5c-2.36,2.42-4.79,4.74-7.31,7-2.21,2,1,5.13,3.24,3.24a162.25,162.25,0,0,0,12.58-12c2-2.15-1-5-3.18-3.18l-4,3.27,3.57,2.76c3.75-5.2,9-10.63,10.94-16.84.69-2.28-2.21-3.7-3.82-2.23-2.93,2.69-5.87,5.35-8.77,8.06l3.35,2.58c.35-.67,5.79-10.92,5.43-11.05,2,.74,3-2.58.9-3.26Z"/><path class="cls-2" d="M448.09,742.87c-4.87.65-6.21,6.86-4.43,10.84a9.83,9.83,0,0,0,5.51,4.85c2.8,1,5.77-.56,8.14-2l-3.64-4.72a20.17,20.17,0,0,1-2.47,2.42c-2.26,1.88.16,6.06,2.92,5a21.81,21.81,0,0,0,8.81-5.93l-4.22-4.21c-1.57,1.88-6,7.16-8.45,4.87-2.87-2.7,1.29-5,2.43-7.26.68-1.35-.13-3.5-1.91-3.32-7,.71-9.42,8.89-5.3,14.09,2.11,2.67,5.17,4.29,8.52,3s6.67-4.48,8.93-7.14c2.45-2.89-1.62-7.09-4.22-4.21a15.78,15.78,0,0,1-6.18,4.36l2.92,5a22.48,22.48,0,0,0,2.47-2.41c2.14-2.47-.58-6.57-3.64-4.71-1.95,1.18-4.3,2.52-5.84-.07-1.11-1.86-.38-4,.85-5.57.78-1,.43-3.1-1.2-2.88Z"/><path class="cls-2" d="M459.86,755.08c5.72-2.52,10.5-8.61,14.32-13.36s8.14-9.88,10.15-15.58a1.76,1.76,0,0,0-2.93-1.71c-4.18,4.81-7.14,10.68-11.26,15.62-3.73,4.48-8.78,8.57-11.72,13.58-.58,1,.54,1.85,1.44,1.45Z"/><path class="cls-2" d="M341.17,713.37c-3.68,1.3-3.23,6.73-3.68,10a154.09,154.09,0,0,0-2,18.53c-.08,3.47.66,7.41,3.95,9.32a7.29,7.29,0,0,0,9.22-1.95l-4.3-3.32-1.94,1.79c-2.67,1.37-1.08,4.89,1.4,5.15,9,.93,6.84-7.57,5.63-13.5l-4.86,2a3.57,3.57,0,0,1,.73,3.67q.3,3.58-3.95.84l-4.82,2a9.78,9.78,0,0,0,8.39,5.09v-5.23a5.7,5.7,0,0,1-3.43-.56c-2.8-1-4.49,3.29-2,4.73,10.4,6,10.61-14,9.84-19.12-.3-2-3.09-1.58-3.62,0a30,30,0,0,0-1.13,6.95c-.06.7-.47,9.18-2.48,7.7l-2,4.73a11.34,11.34,0,0,0,4.81.8c3.39-.11,3.34-5,0-5.23a4,4,0,0,1-3.83-2.53c-1.56-2.72-5.35-.8-4.83,2,.88,4.77,5.78,5.95,9.84,4.21,5.61-2.4,4.87-7.08,3.33-12.18-.83-2.75-5.53-2.4-5.22.7.15,1.59.37,3.15.61,4.73.26,1.79,1.14,2.78-1,2.55l1.39,5.14a8.18,8.18,0,0,0,3.87-3.79c1.71-3.18-2.66-5.55-4.72-2.77q-4.87.11-4.1-4c0-1.18.08-2.36.16-3.54.14-2.57.33-5.14.54-7.71.37-4.55-.31-11.31,1.56-15.48.39-.85-.26-2.14-1.35-1.76Z"/><path class="cls-2" d="M243.57,727.4a57.35,57.35,0,0,0-4.32,16.6c-.25,1.84,3,2.29,3.25.45a59.8,59.8,0,0,1,3.69-14.1l-3.34-.92a66.61,66.61,0,0,0-1.6,7.65c-.33,2.34-.07,5.62-1.52,7.55L242.9,746c1.84-11.84,3.92-23.17,8.78-34.21,1.11-2.52-2.6-4.71-3.72-2.18-5,11.2-8.72,23.57-8.47,35.93a1.75,1.75,0,0,0,3.23.88c1.29-1.72,1.35-3.29,1.56-5.38a67.54,67.54,0,0,1,1.91-10.65c.58-2.2-2.56-3-3.34-.92a61.17,61.17,0,0,0-3.6,14.57h3.31c.66-5.34,2-10.47,3.1-15.72.26-1.19-1.52-2.13-2.09-.88Z"/><path class="cls-2" d="M521.79,583.46c3.83,0,3.84-6,0-6s-3.83,6,0,6Z"/></g></svg>