<svg xmlns="http://www.w3.org/2000/svg" viewBox="0 0 714.22 841.41"><defs><style>.cls-1{fill:#e4b476;stroke:#b11f24;stroke-miterlimit:10;stroke-width:0.25px;}.cls-2{fill:#b18ca0;}</style></defs><title>Brown Girls Food Club Logo</title><g id="Background"><rect class="cls-1" x="-5.96" y="-1.26" width="720.18" height="844"/></g><g id="New_Logo" data-name="New Logo"><path class="cls-2" d="M396.07,124.34c-38.83,25.78-60.18,70.95-70.23,115.08s-12,89.47-19.88,133.89c-3.88,21.83-9.33,43.72-18.9,63.81-10.47,22-24.71,41.88-39.69,61-29.56,37.72-62.49,74.7-77.46,121.16-14,43.47-8.12,97.23,29.33,127.44,3.31,2.67,7.91,3.23,11.14,0,2.78-2.78,3.3-8.42,0-11.14-30.38-25-36.13-69.11-26.16-105.27,12.32-44.63,43.69-80.53,71.78-116.07,14.69-18.58,29-37.56,40.61-58.28a262.42,262.42,0,0,0,24.29-61.75c11.07-42.46,13-86.52,20.76-129.58,4.2-23.16,10.09-46.43,19.89-67.92,10.6-23.22,26.08-42.3,43.6-60.59,5.7-5.94-1.75-16.64-9.08-11.78Z"/><path class="cls-2" d="M402,131.68c-14.93-14.22-37.61-17-57.18-13.09-21.63,4.33-40.13,17.61-53.66,34.71-31.71,40.08-34.75,92.82-42.87,141.24-4.37,26.06-10.37,52.37-23.5,75.57-12.39,21.91-30,40.42-41.09,63.14-11.26,23.12-16.15,48.58-19.66,73.87-3.76,27.11-7.25,54.37-9,81.68-2,30.41-1.46,61.55,5.4,91.37,5.15,22.38,15.23,45.52,36.09,57.27a2,2,0,0,0,2-3.4c-18.56-11.56-27.82-32.49-32.72-53-6.14-25.74-7.14-52.42-6-78.76s4.49-52.44,7.81-78.53c3.08-24.29,6.39-48.84,14.63-72C190.62,428,205.87,409,220,388.6c14-20.23,23.11-42.23,28.66-66.15,11.07-47.74,9.31-99.28,31.91-143.85,11-21.76,28.05-41.93,51.13-51.28a75.1,75.1,0,0,1,69,6,1,1,0,0,0,1.25-1.62Z"/><path class="cls-2" d="M395.86,130.49a4.06,4.06,0,0,0,4.73-2.05,2,2,0,0,0-1.17-2.9c-1.23-.49-2.49-.89-3.74-1.31l-.56,4.13c3.18,0,5.73,1.09,8.72,2,2.44.71,3.78-2.72,1.69-4-2.95-1.85-7-2.26-10.41-2.14a2.12,2.12,0,0,0-.56,4.14c1.26.36,2.52.76,3.81,1.05L397,126.92c0,.45-.25.66-.73.62a1.51,1.51,0,0,0-.4,3Z"/><path class="cls-2" d="M405.15,134.59c7.82,1.12,15.14,2.92,21.32,8.17,6,5.09,13.4,15.92,8.06,23.74-4.58,6.71-13.7,0-18.9,6.67-1.58,2-2.35,4.44-3.51,6.69-2.16,4.18-5.48,4.71-9.87,4.82-6.33.17-11.8.89-15.95,6.17-4.67,5.92-6.68,12.37-13.2,16.83-10,6.85-26.09,11.26-28.41,25.14-1,5.82,2,11.87,8.21,12.6,5.08.59,10-2.44,10.13-7.81.07-3.25-5.25-4.13-5.8-.79a2.79,2.79,0,0,1-5,1.4c-2.15-2.57-6.28.75-4.59,3.55a53.62,53.62,0,0,1,4.89,45.37c-3.71,10.65-12.17,28.75,2.3,35.89,9.14,4.5,21.3-5,18.91-15-1.23-5.14-6.21-9.67-11.74-8.46a7.8,7.8,0,0,0-5.39,11.29c1.38,2.77,5.72.82,4.93-2.08-.85-3.09,3-3.22,4.82-2.12,1,.59,1.63,2.81,1.64,3.92a7.4,7.4,0,0,1-2.47,5.09c-3.61,3.47-8.66,3.15-11.27-1.24-5.1-8.58,2-19,4.53-27.25,5-16.13,2.5-34-6.1-48.39l-4.59,3.54c4.33,5.24,13.69,2.77,14.8-4l-5.8-.78c-.08,3.27-4.93,1.92-6,.22-2.46-3.88,1.22-9.16,3.9-11.82,4.46-4.44,10.44-7.07,15.87-10.09,5.11-2.85,10-6.12,13.56-10.87,4.34-5.85,5.88-13.75,14.37-14.37,5.28-.38,11.17.43,15.37-3.55a19.56,19.56,0,0,0,4-6.44c1.82-4,2.72-5.57,7.7-5.34,6.16.27,11.15-1.4,14.19-7.22,2.91-5.59,1.65-12.27-.92-17.72-5.75-12.16-20.33-21.66-34-19.21-1.65.3-1.71,3.15,0,3.39Z"/><path class="cls-2" d="M376.68,360.76c-3.95-5.66-7.77-14.89-.05-19.36,4.63-2.68,10.88-2,15.9-1.13,7.67,1.32,16.82,3.59,23.84-1.17a11.28,11.28,0,0,0,4.87-8c.43-3.16-.43-6.25-.38-9.4,0-2,.29-4.16,1.73-5.67,2-2,4-.93,6.15-.69,2.83.3,5.05.42,6.5-2.5,1.57-3.16.75-7.35-.47-10.46l-1.41,1.86c4.09.4,4.85-3.68,4.68-6.84-.18-3.39-1.23-5.74,2.31-6.3a11.6,11.6,0,0,1,3.22.26,63.22,63.22,0,0,0,6.7,1c3.36.09,6.6-1,7.68-4.55.92-3-.06-6.5-.44-9.46-.48-3.73-1-7.46-1.62-11.17a104.21,104.21,0,0,0-6-22.11c-2.06-5-2.88-8.29-.95-13.46a82,82,0,0,0,3.86-12.92c2.28-11.39,2.51-23.54-3.11-33.95-3.31-6.14-6.36-13.82-11-19.06-1.37-1.56-3.63.72-2.27,2.27,2.59,2.94,4.25,7.37,6.13,10.78,1.65,3,3.49,5.94,5,9,3.37,6.75,3.71,14.09,3.24,21.52a72.2,72.2,0,0,1-2.74,15.65c-1.1,3.74-3.25,7.49-3.61,11.4-.29,3.13.92,5.8,2.12,8.61A89.54,89.54,0,0,1,451.42,260c.95,4.12,1.66,8.29,2.28,12.48.51,3.43,3.66,15-.81,16.68-4.28,1.6-9.27-1.73-13.73-.86a5.44,5.44,0,0,0-3.88,2.5c-1,1.59,0,10.74-1.92,10.55a1.47,1.47,0,0,0-1.42,1.86c.79,2,2,5.55.94,7.67-1.81,3.56-5.57.24-8.14.58-3.32.43-5.53,3.6-6.36,6.61-1.73,6.24,2.84,13.92-3.45,18.58-4.12,3.05-10.38,2.77-15.17,2.12-8.19-1.12-18-4.41-25.47.83-8.13,5.69-4.84,16.33,1.23,22.07.59.55,1.66-.18,1.16-.89Z"/><path class="cls-2" d="M440.46,234.85c-8.77-7.6-13-18.81-25.81-20.4C402.88,213,392.12,219.71,385,228.6c-1,1.26.73,3.07,1.81,1.81,7.41-8.67,17.79-15.59,29.72-13,11.15,2.45,13.65,13.92,23,18.58.72.35,1.59-.59.91-1.18Z"/><path class="cls-2" d="M422,245.91c-15.66-1.07-32.18.31-44.95-10.53-1.47-1.25-3.6.87-2.13,2.12,13.5,11.46,30.47,10.28,47.08,11.41,1.93.13,1.92-2.87,0-3Z"/><path class="cls-2" d="M432.92,249.92a26.7,26.7,0,0,0-8.38-3.53c-1.87-.46-2.67,2.44-.8,2.89a24.21,24.21,0,0,1,7.66,3.23c1.62,1.05,3.13-1.54,1.52-2.59Z"/><path class="cls-2" d="M432.37,250.33c1.49-6.59-2.26-12.68-7.82-16.11-7.47-4.61-17.09-3.23-25.09-.95a1.29,1.29,0,0,0,.69,2.49c6.54-1.31,13.59-2.76,20.08-.41,6.25,2.26,10.48,8,10,14.68a1.11,1.11,0,0,0,2.16.3Z"/><path class="cls-2" d="M431.93,252.57a1.42,1.42,0,0,0-1.8,1.27,13.32,13.32,0,0,1-2.35,2.62,16.46,16.46,0,0,1-6.25,3.24,21.8,21.8,0,0,1-11.14.11c-9-2.25-15-9.2-21.82-14.86a1.15,1.15,0,0,0-1.63,1.62c7.24,8,17.71,16.32,29,16.11a20.69,20.69,0,0,0,12.17-3.9c1.77-1.37,5.37-4.48,4.23-7a.8.8,0,0,0-.92-.37l-.45.11a.79.79,0,0,0-.53.94l.07.34c.15.85,1.29.53,1.38-.19Z"/><path class="cls-2" d="M435.74,278.72c-3.9-4-11.18-1.7-13.31,3.1-2.69,6.1,3.51,12.86,9.73,11.78a1.26,1.26,0,0,0-.33-2.46c-4.49.41-9.54-4.27-6.9-8.89,2-3.44,6.54-3.88,9.78-2.21a.85.85,0,0,0,1-1.32Z"/><path class="cls-2" d="M436.72,288.14l-.33-.24a.94.94,0,0,0-.93,0,1.73,1.73,0,0,0-.94,2.47c1.13,1.8,3.16-.05,4.54.58,1.21.55,2.28-1.17,1.07-1.81a10.1,10.1,0,0,0-6.42-1.1l.86,2a5.74,5.74,0,0,1,3.9-.79l.31-2.31h-5.92l.62,2.27a5.31,5.31,0,0,1,3.59-.55l-.3-2.28a4.07,4.07,0,0,1-3.4.35v2.48a17.29,17.29,0,0,1,13.05,2,1.4,1.4,0,0,0,1.41-2.41,20.13,20.13,0,0,0-15.14-2.05,1.29,1.29,0,0,0,0,2.48,7.4,7.4,0,0,0,5.34-.67c1.24-.63.47-2.19-.63-2.33a8.51,8.51,0,0,0-5.15.9,1.22,1.22,0,0,0,.61,2.26l5.92-.08a1.18,1.18,0,0,0,0-2.35,8.09,8.09,0,0,0-5.34,1.17,1.12,1.12,0,0,0,.86,2,7.41,7.41,0,0,1,4.76.75l1.07-1.81a3.25,3.25,0,0,0-1.54-.4,20.67,20.67,0,0,0-2.77.94.89.89,0,0,0,.9-1.54Z"/><path class="cls-2" d="M428.43,254.25a6.82,6.82,0,0,0,.67-4.28,1.48,1.48,0,0,0-1.64-1.08,1.52,1.52,0,0,0-1.3,1.48,8,8,0,0,1-.48,1.45,1.5,1.5,0,0,0,1.05,1.84,1.52,1.52,0,0,0,1.84-1,9.82,9.82,0,0,0,.59-2.25l-3,.4a3.3,3.3,0,0,1-.38,2,1.5,1.5,0,0,0,2.6,1.51Z"/><path class="cls-2" d="M428.51,254.14a14.47,14.47,0,0,0,1.48-2.52l-2.59-1.51a10.67,10.67,0,0,1-1.36,2.28,1.54,1.54,0,0,0,0,2.12,1.52,1.52,0,0,0,2.12,0,12.62,12.62,0,0,0,1.83-2.89,1.54,1.54,0,0,0-.54-2.05,1.51,1.51,0,0,0-2.05.54,14,14,0,0,1-1.48,2.51,1.51,1.51,0,0,0,.53,2.06,1.55,1.55,0,0,0,2.06-.54Z"/><path class="cls-2" d="M427.39,258.27a13.72,13.72,0,0,0,4.27-4.69c.79-1.43-1.22-3.17-2.36-1.82a14.34,14.34,0,0,1-3.26,3c-1.64,1-.13,3.61,1.51,2.59a16.44,16.44,0,0,0,3.87-3.43l-2.35-1.82a10.58,10.58,0,0,1-3.19,3.62c-1.59,1.09-.09,3.69,1.51,2.59Z"/><path class="cls-2" d="M427.59,257a13.74,13.74,0,0,0,5.29-5.11l-2.59-1.52a10.37,10.37,0,0,1-4.09,4.55,1.5,1.5,0,0,0,1.51,2.59,13,13,0,0,0,5.17-5.62,1.5,1.5,0,0,0-2.59-1.52,10.69,10.69,0,0,1-4.21,4c-1.7.91-.19,3.5,1.51,2.59Z"/><path class="cls-2" d="M434.29,304.6c.63-3.19-1.57-5.45-4.69-5.9-2.49-.36-5.16.3-7.61.64-3.83.52-7.65,1.08-11.48,1.62-1.5.21-.86,2.49.63,2.28l9-1.26c2.6-.36,12.32-3.05,12.25,2.36,0,1.05,1.65,1.33,1.87.26Z"/><path class="cls-2" d="M410.23,303.26a113.7,113.7,0,0,0,17.14,11.53c1.07.58,2.42-1,1.36-1.77a114.86,114.86,0,0,0-17.48-11.08c-.8-.41-1.81.68-1,1.32Z"/><path class="cls-2" d="M430.81,304.81c-2.05-.09-4.09-.2-6.13-.25-.92,0-1.16,1.46-.22,1.64a6.69,6.69,0,0,0,5.05-.82.92.92,0,0,0,0-1.57,11.11,11.11,0,0,0-12.55.38,1,1,0,0,0,0,1.7,9.09,9.09,0,0,0,9.16.11,1,1,0,0,0,.45-1.11,3.92,3.92,0,0,0-6-2.62,1,1,0,0,0,.23,1.81,15.33,15.33,0,0,0,6.14.44l-.26-2a11.16,11.16,0,0,0-3.69,2,1,1,0,0,0,.44,1.68,10.54,10.54,0,0,0,6.73-.81,1,1,0,0,0,0-1.74,9,9,0,0,0-3.43-.94c-.92-.08-1.26,1.13-.71,1.72a2.76,2.76,0,0,0,3.74.55,1,1,0,0,0-.24-1.85l-1.69-.07-.16-1.23c.4-.61-3,.12-2-.06a7.12,7.12,0,0,0-2.36,1.16,1,1,0,0,0,.79,1.87c1.57-.41,5.31-1.21,5.78,1.37l1.53-1.18-1.24-1.91-2.06.28a7.73,7.73,0,0,1,.45,5.17l1.94-.26.11-1.64h-1.51q2.4,1.29-.1,2.65l-1.24.51-2.22-2.3-.4,1.53,3.45,1,.79-1.39a9.53,9.53,0,0,1-8.78-2.23l-.24,1.81a7.08,7.08,0,0,1,6.88.3l.28-2.12a4.56,4.56,0,0,1-5.89-2.23l-.7,1.71a9.44,9.44,0,0,1,8.67,2.36l.24-1.85a6.1,6.1,0,0,1-5.68-.05l.54,1.33a2.55,2.55,0,0,1,4.48-1.05l1.43-1.86a15.83,15.83,0,0,0-12.47-2.93c-1.32.21-1,2.41.31,2.33l10.27-.55a1.21,1.21,0,0,0,.6-2.23,10.82,10.82,0,0,0-11.76.62,1.23,1.23,0,0,0-.55,1.35,3.17,3.17,0,0,0,4.63,1.92c1.21-.55.42-2.13-.61-2.24l-6.46-.73c-1-.11-1.42,1.08-1,1.81a7,7,0,0,0,5.88,3.6,14.68,14.68,0,0,0,4-.22c1.22-.2,2.42-.56,3.65-.74,1.07-.15,5.74-.56,6.22,0l.18,1.38.17-.29a1.14,1.14,0,0,0-2-1.15l-.19.29a1.2,1.2,0,0,0,.18,1.39c1.84,2.32,4.34-.88,2.13-2.84-4.93-4.39-14.71,3.86-18.15-2.64l-1,1.81,6.46.73-.6-2.24-1.1-.48-.55,1.36a8.42,8.42,0,0,1,9.33-.62l.61-2.23-10.27.56.32,2.34a13.54,13.54,0,0,1,10.65,2.68c1.14.85,2.25-.9,1.43-1.86a4.91,4.91,0,0,0-8.42,2.1,1.18,1.18,0,0,0,.54,1.33,8.37,8.37,0,0,0,8.05.05,1.18,1.18,0,0,0,.24-1.84,11.82,11.82,0,0,0-10.95-2.95,1.19,1.19,0,0,0-.7,1.72,6.84,6.84,0,0,0,8.53,3.29,1.18,1.18,0,0,0,.28-2.12,9.49,9.49,0,0,0-9.22-.29A1.16,1.16,0,0,0,419,308a11.88,11.88,0,0,0,11,2.78,1.16,1.16,0,0,0,.79-1.39,4.29,4.29,0,0,0-7-2.15,1.12,1.12,0,0,0-.18,1.35,6.86,6.86,0,0,0,5.5,3.32,1.09,1.09,0,0,0,1-.55c.77-1.7.23-3.31-1.72-3.72a1.13,1.13,0,0,0-1.24.51,2.9,2.9,0,0,0,3.32,4.37c3.61-1.26,2.34-5.55.18-7.43a1.07,1.07,0,0,0-1.51,0,3.29,3.29,0,0,0-.44,4.23,1.08,1.08,0,0,0,1.95-.26,9.36,9.36,0,0,0-.48-6.28c-.41-1-2.18-1-2.06.27a4.24,4.24,0,0,0,2.29,3.71,1.05,1.05,0,0,0,1.53-1.18c-.72-3.84-5.38-3.59-8.33-2.78l.79,1.87a4.73,4.73,0,0,1,4-1,1,1,0,0,0,.88-.5l.2-.32a1,1,0,0,0-.16-1.23c-2.26-2.39-4.92,2.13-.29,3.46l-.24-1.85-1.29-.23-.72,1.73,2.41.66v-1.74a7,7,0,0,1-5.17.61l.44,1.68,2.8-1.47c1-.32.91-2.11-.27-2a14.36,14.36,0,0,1-5.61-.35l.24,1.81c2.45.95,2.44,1.38-.05,1.3a6.52,6.52,0,0,1-3.57-1.09v1.7a9.52,9.52,0,0,1,10.64-.51v-1.57l-3.69.78-.22,1.64c2,0,4.08-.12,6.13-.2a.61.61,0,0,0,0-1.22Z"/><path class="cls-2" d="M430.12,304.4c0,.12-.07.24-.1.36a3,3,0,0,0-.12.56,2.39,2.39,0,0,0,.1.88,1.63,1.63,0,0,0,3.17.07,1.42,1.42,0,0,0-1-1.82,1.12,1.12,0,0,0-1.36.77,1.13,1.13,0,0,0,.77,1.36.85.85,0,0,1-.55-.95c.09-.36,0-.08,0,0s0,0,.07-.08c-.08.08-.05.07.07,0a.72.72,0,0,1-.21.12l.51-.13c-.16,0,0,0,.11,0a1.25,1.25,0,0,1,.12.08c.07,0-.06-.12,0,0a.9.9,0,0,1-.06-.22s-.07-.36-.06-.3a3.85,3.85,0,0,1,0-.48.74.74,0,0,0-1.45-.19Z"/><path class="cls-2" d="M432.14,305.78c.07.05.11.05,0,0s.13.12,0,0c.05.12.07.15.05.08s0,0,0,0,0,.39,0,.07c0,0,0-.36,0-.14s0,0,0,0a1.21,1.21,0,0,0,0-.18c0,.12-.09.11,0,.06a.54.54,0,0,0,.07-.13c0,.05-.12.17,0,.06s.07-.06.1-.1c-.13.09-.15.12-.09.07s0,0,0,0a.49.49,0,0,1-.21,0c-.24,0,.12.06-.09,0s.1.15-.13-.08c0,0-.14-.22-.07-.09a.84.84,0,0,1-.11-.38c0,.15,0-.14,0-.15,0,.14,0-.1.06-.12-.09.16.15-.18.06-.07s-.07.13,0,0,.08,0,0,0a.39.39,0,0,0-.11.06l-.14.06s.29-.1.13-.06.21,0,.07,0,.19,0,.19,0,.33.16.16.06a1.73,1.73,0,0,1,.23.21c0,.05.17.37.13.21a1.24,1.24,0,0,0-1.35-.88,1.22,1.22,0,0,0-1.07,1.21,1.68,1.68,0,0,0,1.22,1.64,2,2,0,0,0,1.59-.32,2,2,0,0,0,.65-2.95,1.91,1.91,0,0,0-3,.48,2.36,2.36,0,0,0-.32,1.66c.13.29.14.34.06.13a.65.65,0,0,0,0,.13,2,2,0,0,0,.2.41,1.6,1.6,0,0,0,.69.6.94.94,0,0,0,.94-1.62Z"/><path class="cls-2" d="M430.82,304.78a3.68,3.68,0,0,0,.15.92l.35.86v-.63l0,.1a1.31,1.31,0,0,0,1.9,1.46,1.36,1.36,0,0,0,.64-1.12,1.33,1.33,0,0,0-.95-1.24l-.09,0,.71.55-.5-.88a6.58,6.58,0,0,0-.75-.82.86.86,0,0,0-1.43.84Z"/><path class="cls-2" d="M431.8,306.06a22.81,22.81,0,0,0-.65-2.59l-.76,1.35s.29-.16.15-.06-.1,0,0,0,.07,0,0,0a.81.81,0,0,1,.24.25l-.15-.57c0-.18,0-.17,0,0a.91.91,0,0,0,0,.49c.08.23,0-.08,0,.06s0-.24,0,.06a1.18,1.18,0,0,0,0,.72,1.15,1.15,0,0,0,1.38.79,1.55,1.55,0,0,0,1.07-1.63,2.08,2.08,0,0,0-.23-.95l-.2-.25c-.28-.23-.33-.27-.15-.1s.13.13.07,0-.14-.19-.22-.28a2.35,2.35,0,0,0-2.85-.61,1.1,1.1,0,0,0-.51,1.24,24.36,24.36,0,0,0,1.26,2.63c.46.85,1.67.24,1.5-.63Z"/><path class="cls-2" d="M431.59,305.87c.5-.33,1-.59,1.53-.94a1.14,1.14,0,0,0-.26-2.05,17.92,17.92,0,0,0-3.59-1.23,1.24,1.24,0,0,0-1.45.71,1.23,1.23,0,0,0,.5,1.54,20,20,0,0,0,3.94,1.15l-.49-1.88c-.42.45-.77.95-1.18,1.41-.58.66.17,1.82,1,1.29Z"/><path class="cls-2" d="M427.78,302.62c1.6.31,4,.12,4.56,2.1.25.92-.6,7.21-2.62,5.31l-1.55,2,1.7.89,1-2.36a15.88,15.88,0,0,1-5.58-2,1.32,1.32,0,0,0-1.8,1.79,7.61,7.61,0,0,0,3.59,3.16,1.31,1.31,0,0,0,1.32-2.27l-2.85-1.78-1.32,2.25c.83.4,1.65.79,2.48,1.16,1.46.64,2.75-1.42,1.28-2.19-.81-.42-1.62-.82-2.44-1.22a1.31,1.31,0,0,0-1.32,2.25l2.85,1.8,1.32-2.27a5.4,5.4,0,0,1-2.64-2.21l-1.8,1.79a17.75,17.75,0,0,0,6.22,2.25c1.33.22,2.4-1.63,1-2.35l-1.71-.88c-1.24-.63-2.67,1-1.55,2a3.54,3.54,0,0,0,4.54.31c1.7-1.18,2.11-3.43,2.3-5.35.42-4.38-2.8-6.68-7-5.95a.92.92,0,0,0,0,1.76Z"/><path class="cls-2" d="M412.69,303.36a1.88,1.88,0,0,0,1,1.12,3.86,3.86,0,0,0,1.52.4,1,1,0,0,0,.72-1.74,4.47,4.47,0,0,0-2.54-1.2,1.13,1.13,0,0,0-.3,2.21,3.81,3.81,0,0,1,1.61.59l.51-1.9a5.21,5.21,0,0,1-1.69-.28c-.45-.1-1,.3-.8.8Z"/><path class="cls-2" d="M415.3,247.56c-3.81,1.83.66,7.5,2.86,8.71,3.92,2.17,8.6.48,11-3.11l-2.74-.74c-.1,1.67-.5,3.23-2.3,3.52a8.89,8.89,0,0,1-4.07-.31c-2.63-1-3.32-4.09-2.31-6.49a1.5,1.5,0,0,0-2.59-1.51c-3.44,4.48,0,10.59,5.28,11.16a8.56,8.56,0,0,0,6.94-2.39c1.55-1.56,2.92-4.46,1.68-6.56a1.52,1.52,0,0,0-2.05-.54l-.17.09a1.53,1.53,0,0,0-.69,1.7l0,.15c.54,1.85,3.44,1.06,2.9-.8l-.05-.15L428.3,252l.17-.09-2.05-.54c.65,1.11-1.27,3.09-2,3.59a5.75,5.75,0,0,1-4.1.83,4.11,4.11,0,0,1-2.62-6.63l-2.59-1.51c-1.76,4.14-.56,9.36,4.1,10.88,2,.65,5.37.92,7.35,0s2.65-4.13,2.76-6.13c.08-1.52-2-1.89-2.74-.74a5.5,5.5,0,0,1-6.06,2.51,5.56,5.56,0,0,1-2.76-1.88c-.37-.45-1.65-2.25-1-2.8,1.18-.93-.32-2.53-1.5-1.95Z"/><path class="cls-2" d="M419.45,248c1.35,1.29,3.83,1.37,5.59,1.28a1.3,1.3,0,0,0,.34-2.55,14.43,14.43,0,0,0-4.41-.85,1.35,1.35,0,0,0-.35,2.64,32.86,32.86,0,0,0,5.41,1.25,1.26,1.26,0,0,0,.63-2.34,32.17,32.17,0,0,0-5.33-1.51l-.36,2.65a12.08,12.08,0,0,1,3.72.66l.35-2.55a19.72,19.72,0,0,1-2.77.07,8.06,8.06,0,0,0-2.5,0,.74.74,0,0,0-.32,1.23Z"/><path class="cls-2" d="M417.63,247.74c-2.28,2.27-.61,6.34,2,7.56,3.11,1.47,6.93-.79,7.55-4.06h-2.69c.29,1.58-2.5,1.62-3.32,1.12s-1.16-2.26,0-2.69l-1.59-2.07a3.71,3.71,0,0,0-.41,1.17c-.19,1.16,1.19,2.26,2.14,1.24a3.63,3.63,0,0,0,.7-1c.49-1-.34-2.52-1.59-2.07a4.37,4.37,0,0,0-.71,7.85c3.09,1.83,8.36-.18,7.43-4.3-.29-1.27-2.49-1.38-2.69,0-.26,1.78-2.07,3.33-3.91,2.55s-1.88-2.86-1.57-4.51a.83.83,0,0,0-1.37-.8Z"/><path class="cls-2" d="M421,247.82c-1.6-.27-2.65,1.32-2.82,2.74a3.67,3.67,0,0,0,2.3,3.85,4.47,4.47,0,0,0,4.66-.7c1.35-1.16,1.95-3.74.15-4.79a1.27,1.27,0,0,0-1.84,1.42c.25.78.66,1.3-.24,1.84a2.16,2.16,0,0,1-2,.1,1.53,1.53,0,0,1-1-1.58c.06-.76.62-1.15,1.06-1.71.29-.36.27-1.08-.31-1.17Z"/><path class="cls-2" d="M398.13,342.71c-1.92,8.58.45,17.41,4.95,24.86,4.71,7.8,12.15,13.26,18.1,20,12.36,14,20.28,32.33,18.17,51.29-2.13,19.19-15,34.62-26.41,49.28-11.67,14.94-22.09,31.32-40.48,38.44-9,3.48-18.53,5.4-28,7.11s-20.53,2.23-29,7.43c-7.09,4.33-.63,15.49,6.53,11.17s17.7-4.53,26-6c9-1.57,18-3.33,26.54-6.41A74.59,74.59,0,0,0,398,526.83c7.94-6.72,14-15.5,20.32-23.68,12.05-15.58,25.83-31.18,31.64-50.4,5.87-19.39,1.33-40.65-8.68-57.86a103.65,103.65,0,0,0-19.78-24.13c-4.14-3.79-8.22-7.28-11-12.28-2.65-4.83-3.65-10.42-4.77-15.77-.79-3.79-6.76-3.72-7.59,0Z"/><path class="cls-2" d="M392.05,373.73a1.58,1.58,0,0,0,.77-.17,1.83,1.83,0,0,0,1.05-1.06,1.42,1.42,0,0,0,.17-.76l-.07-.53a1.91,1.91,0,0,0-.51-.88l-.4-.31a2,2,0,0,0-1-.28,2.15,2.15,0,0,0-1.41.59,1.5,1.5,0,0,0-.41.64,1.45,1.45,0,0,0-.17.77l.07.53a1.88,1.88,0,0,0,.51.87l.4.32a2,2,0,0,0,1,.27Z"/><path class="cls-2" d="M394.28,378.56c2.57,0,2.57-4,0-4s-2.57,4,0,4Z"/><path class="cls-2" d="M394.8,380.77a2.68,2.68,0,0,0,.07.27,1.95,1.95,0,0,0,3.75-1,2,2,0,0,0-1.36-1.36l-.27-.07a1.86,1.86,0,0,0-1.74.46,1.83,1.83,0,0,0-.45,1.74Z"/><path class="cls-2" d="M396.92,383.64l.05.34a1,1,0,0,0,.12.55,1,1,0,0,0,.29.45,1.09,1.09,0,0,0,.45.29,1,1,0,0,0,.54.12l.38-.05a1.26,1.26,0,0,0,.62-.36l.22-.28a1.39,1.39,0,0,0,.19-.72l.05-.34a1.08,1.08,0,0,0-.13-.56,1.29,1.29,0,0,0-.77-.77,1.07,1.07,0,0,0-.56-.12l-.38.05a1.42,1.42,0,0,0-.64.37l-.23.3a1.43,1.43,0,0,0-.2.73Z"/><path class="cls-2" d="M396.74,390.58c4.25-3.84,10.57-2.78,12.59,2.94.81,2.29.93,5.37-.86,7.26s-4.76,1.84-7.11,1.58c-1.66-.19-1.65,2.42,0,2.6,3.37.37,7.27-.11,9.47-3s1.95-7,.53-10.1c-2.78-6.12-12.05-8.93-16.21-2.49-.64,1,.77,2,1.59,1.22Z"/><path class="cls-2" d="M388.27,391.39c-12.11-1.42-12.46,20.62-.42,20.31,4.91-.13,8.75-4.29,9.29-9a11.14,11.14,0,0,0-9.53-12.19c-1.82-.29-2.6,2.48-.77,2.78,4,.66,7.25,3.45,7.57,7.71a7.41,7.41,0,0,1-5.85,8c-4.58.84-7.56-4-7.53-8.13,0-4.63,3.36-7,7.42-8.21a.66.66,0,0,0-.18-1.29Z"/><path class="cls-2" d="M377.58,395.13c-7.56-6.47-16.19,5.27-12.73,12.59.83,1.74,3.42.22,2.59-1.52-2-4.22,3.25-13,8-8.95,1.46,1.25,3.59-.86,2.12-2.12Z"/><path class="cls-2" d="M389,395.11a6.9,6.9,0,0,0-6.49,6.88,5.63,5.63,0,0,0,7.44,5.57c3.66-1.23,5-5.87,3.28-9.15-1.84-3.46-6.83-4-8.32,0-.51,1.35,1.34,2.14,2.26,1.31l1.59-1.44-2.1-1.63a17.13,17.13,0,0,1-2,3.33c-.91,1.22,1,2.62,2.07,1.6l1.63-1.61-2.05-1.58-1.72,3.1c-.68,1.22,1.05,2.72,2,1.55a13.31,13.31,0,0,1,2.32-2.24l-1.73-1.73a13.76,13.76,0,0,1-1.84,2.91,1.25,1.25,0,0,0,1.77,1.77,20.42,20.42,0,0,0,2.89-2.84l-2-1.52-2.92,4c-.72,1,.72,2.44,1.71,1.7l3.2-2.36L388.4,401l-3.17,4.58a1.25,1.25,0,0,0,1.4,1.83,6.94,6.94,0,0,0,5.18-7.33l-2.13.88c.95,1.14.39,1.75.24,2.94-.2,1.54,0,1.35.83.74a3.87,3.87,0,0,0,1.44-2.23,4.25,4.25,0,0,0-2.12-4.76c-1.46-.74-2.76,1.49-1.29,2.21a1.65,1.65,0,0,1,.56,2.62c-.59.63-1.44.72-1.8,1.61a2.07,2.07,0,0,0,1.95,2.78c3.94.05,3.74-5.57,1.95-7.68a1.26,1.26,0,0,0-2.13.89A4.44,4.44,0,0,1,386,405l1.4,1.83,3.18-4.58c.69-1-.71-2.45-1.71-1.71l-3.2,2.37,1.71,1.71,2.92-4c.83-1.13-1.06-2.6-2-1.51a20.42,20.42,0,0,1-2.89,2.84l1.77,1.77a17.14,17.14,0,0,0,2.25-3.4c.5-1-.62-2.54-1.73-1.73a16.8,16.8,0,0,0-2.85,2.61l2,1.56,1.76-3.08a1.31,1.31,0,0,0-2.05-1.58l-1.64,1.59,2.07,1.59a17.87,17.87,0,0,0,2-3.3,1.35,1.35,0,0,0-2.1-1.63l-1.61,1.43,2.25,1.31c.67-1.71,2.65-.66,3.3.32a4.1,4.1,0,0,1,.57,3,3.49,3.49,0,0,1-4.34,2.87c-2.2-.65-2.68-3.34-1.94-5.25a6.49,6.49,0,0,1,4.08-3.65.69.69,0,0,0-.18-1.35Z"/><path class="cls-2" d="M402.59,393.73c-.42-2,2-1.7,2.89-1.12a5.2,5.2,0,0,1,1.79,2c.78,1.48.86,3.53-.76,4.47a2.72,2.72,0,0,1-3-4.52l-1.62-1.62-1,1.56c-.59.95.66,2.37,1.63,1.63l2.22-1.69L403,393.08a10.51,10.51,0,0,1-1.7,3.29c-.85,1.14.91,2.27,1.87,1.44l2.77-2.4L404.07,394l-2.17,3.51a1.18,1.18,0,0,0,1.6,1.6l2.56-1.67-1.59-1.59-2.17,3.88c-.54,1,.58,2.22,1.58,1.58l2.85-1.82-1.56-1.57a1.74,1.74,0,0,1-1.5.89l1.11,1.91c2.06-1.81,3.86-4.47,1.71-7l-1.44,1.87a1.89,1.89,0,0,1,.82,2.81l2.08.86c-.34-2.94,0-6.88-3.87-7.43a4.11,4.11,0,0,0-3.51,1.08c-1.13,1.22-.25,4.14-.12,5.68l2.27-.62L401,394.34,399.37,396a3.53,3.53,0,0,1,1.32,4H403c-.19-.55-1.78-7-.3-6.68l-.54-2.05c-2.37,1.85-3,5.72-.72,7.88a1,1,0,0,0,1.64-1.26c-.89-1.74-.79-3.63.82-4.88a1.23,1.23,0,0,0-.54-2.05c-5.33-1.31-3.61,7.16-2.71,9.68a1.23,1.23,0,0,0,2.35,0,6,6,0,0,0-2.44-6.73c-1.1-.78-2.12.68-1.67,1.66l1.69,3.66a1.23,1.23,0,0,0,2.27-.62l-.26-3c-.08-1-.1-1.67,1.26-1.34,1.94.48,1.45,3.51,1.62,5,.11.91,1.34,1.78,2.08.86a4.26,4.26,0,0,0-1.34-6.59,1.2,1.2,0,0,0-1.44,1.87c1.18,1.32-.76,2.9-1.65,3.66s.11,2.07,1.11,1.91a4,4,0,0,0,2.87-1.93,1.15,1.15,0,0,0-1.56-1.57l-2.86,1.81,1.57,1.58,2.19-3.88a1.17,1.17,0,0,0-1.59-1.59l-2.57,1.66,1.6,1.6,2.19-3.5c.74-1.19-.88-2.27-1.85-1.43l-2.79,2.39,1.86,1.44a12.46,12.46,0,0,0,2-3.86c.29-.92-.91-2-1.76-1.35l-2.21,1.71,1.63,1.62,1-1.56c.59-1-.64-2.35-1.62-1.62a5,5,0,1,0,6.74,7c1.94-2.88.17-6.89-2.57-8.53-2.48-1.48-6.75-.06-5.22,3.35.36.79,1.52.21,1.35-.57Z"/><path class="cls-2" d="M377.91,401.33c3.62,0,3.63-5.62,0-5.62s-3.62,5.62,0,5.62Z"/><path class="cls-2" d="M374.66,402.61V403a2.11,2.11,0,0,0,.25,1.11,2.52,2.52,0,0,0,1.52,1.52,2.11,2.11,0,0,0,1.11.25l.77-.1a3,3,0,0,0,1.27-.74l.45-.59a2.84,2.84,0,0,0,.39-1.45v-.35a2.15,2.15,0,0,0-.24-1.11,2.23,2.23,0,0,0-.6-.92,3.21,3.21,0,0,0-2-.85l-.77.1a2.94,2.94,0,0,0-1.27.75l-.45.58a2.84,2.84,0,0,0-.39,1.45Z"/><path class="cls-2" d="M379.61,408.39l.07-.21-1,1.33,0,0a1.63,1.63,0,0,0,.65-.6,1.19,1.19,0,0,0,.3-.51,1.79,1.79,0,0,0,.2-.89l-.08-.62-.24-.55a1.63,1.63,0,0,0-.6-.65,1.19,1.19,0,0,0-.51-.3,1.79,1.79,0,0,0-.89-.2l-.62.08-.55.24a1.63,1.63,0,0,0-.65.6,1.19,1.19,0,0,0-.3.51,1.79,1.79,0,0,0-.2.89l.09.62.23.55a2.28,2.28,0,0,0,.83.83l.05,0-1-1.33.07.21.22.52a1.59,1.59,0,0,0,.55.6,1.06,1.06,0,0,0,.47.27,1.61,1.61,0,0,0,.83.19l.57-.08.51-.22a1.51,1.51,0,0,0,.6-.55,1.62,1.62,0,0,0,.39-.73Z"/><path class="cls-2" d="M383.87,416.2c3.12,0,3.12-4.85,0-4.85s-3.13,4.85,0,4.85Z"/><path class="cls-2" d="M388.33,416.47c3,0,3-4.64,0-4.64s-3,4.64,0,4.64Z"/><path class="cls-2" d="M392.05,414.84c2.81,0,2.81-4.36,0-4.36s-2.81,4.36,0,4.36Z"/><path class="cls-2" d="M395,412.56a1.76,1.76,0,0,0,0-3.52,1.76,1.76,0,0,0,0,3.52Z"/><path class="cls-2" d="M396.51,410.66c3.17,0,3.18-4.93,0-4.93s-3.17,4.93,0,4.93Z"/><path class="cls-2" d="M397.2,403.94l-.08.17,0,.08-.21.49a3.33,3.33,0,0,0-.07.54,1.44,1.44,0,0,0,.17.74,1.73,1.73,0,0,0,1,1,1.47,1.47,0,0,0,.75.16l.51-.07a1.87,1.87,0,0,0,.85-.49l.31-.4a1.93,1.93,0,0,0,.26-1,3.33,3.33,0,0,0-.07-.54c-.07-.17-.13-.33-.2-.49l0-.08-.08-.17a1.71,1.71,0,0,0-.64-.64,1.79,1.79,0,0,0-2.45.64Z"/><path class="cls-2" d="M398.75,403c2.85,0,2.85-4.43,0-4.43s-2.86,4.43,0,4.43Z"/><path class="cls-2" d="M397.63,398.67c2.58,0,2.58-4,0-4s-2.58,4,0,4Z"/><path class="cls-2" d="M396.89,395.53c2.85,0,2.85-4.43,0-4.43s-2.86,4.43,0,4.43Z"/><path class="cls-2" d="M392.79,392.45c2.72,0,2.72-4.22,0-4.22s-2.71,4.22,0,4.22Z"/><path class="cls-2" d="M388.7,390.59c2.72,0,2.72-4.22,0-4.22s-2.72,4.22,0,4.22Z"/><path class="cls-2" d="M385,391.91c3,0,3-4.64,0-4.64s-3,4.64,0,4.64Z"/><path class="cls-2" d="M378,390.12l-.09.26L379,389a.86.86,0,0,0-.26.2,1.84,1.84,0,0,0-.61.66l-.24.57a1.76,1.76,0,0,0,0,.94,1.72,1.72,0,0,0,.28.87l.37.48a2.59,2.59,0,0,0,1.66.69l.63-.08a1.78,1.78,0,0,0,.8-.43,1.69,1.69,0,0,0,.61-.66l.24-.56a2.67,2.67,0,0,0-.24-1.82l-.37-.47a1.58,1.58,0,0,0-.5-.39l1.06,1.38-.09-.26-.22-.53a1.7,1.7,0,0,0-.57-.62,1.05,1.05,0,0,0-.49-.28,1.7,1.7,0,0,0-.86-.2l-.58.08-.53.23a2.52,2.52,0,0,0-1,1.32Z"/><path class="cls-2" d="M377.13,392.83a2.32,2.32,0,0,0-.29.21,1.26,1.26,0,0,0-.43.43,1.22,1.22,0,0,0-.3.53,1.13,1.13,0,0,0-.17.6,2,2,0,0,0,0,.34l.08.64v0l0,.05,0,.13.23.56a1.87,1.87,0,0,0,.6.65,1.08,1.08,0,0,0,.51.29,1.64,1.64,0,0,0,.89.2l.62-.08.56-.23a1.87,1.87,0,0,0,.65-.6,1.76,1.76,0,0,0,.41-.79,2.61,2.61,0,0,0,.15-.85v0l-.09-.64-.24-.57-.37-.48-.48-.37h0l0,0a2.28,2.28,0,0,0-2.31,0Z"/><path class="cls-2" d="M392.74,386.62l-.28.42-.21.5a1.64,1.64,0,0,0,0,.85,1.1,1.1,0,0,0,.14.53,1.6,1.6,0,0,0,.44.68l.43.33.5.21a1.6,1.6,0,0,0,.84,0,1.75,1.75,0,0,0,.79-.25l.42-.28a2.36,2.36,0,0,0,.8-.8,2.19,2.19,0,0,0,.3-1.12l-.08-.59a2.27,2.27,0,0,0-.57-1,1.65,1.65,0,0,0-.71-.46,1.7,1.7,0,0,0-.86-.19,2.15,2.15,0,0,0-1.11.3,2.19,2.19,0,0,0-.8.8Z"/><path class="cls-2" d="M395.19,384.88l-.28.42-.19.45a1.44,1.44,0,0,0,0,.74,1,1,0,0,0,.13.47,1.49,1.49,0,0,0,.39.6l.37.29.45.19a1.43,1.43,0,0,0,.74,0,1.42,1.42,0,0,0,.69-.23l.43-.28a2,2,0,0,0,.71-.7,2.17,2.17,0,0,0,.27-1l-.08-.52a2,2,0,0,0-.5-.87,2.16,2.16,0,0,0-1.39-.58,2.05,2.05,0,0,0-1,.27,2,2,0,0,0-.7.71Z"/><path class="cls-2" d="M401,410.26c3.62,0,3.62-5.62,0-5.62s-3.63,5.62,0,5.62Z"/><path class="cls-2" d="M405.07,409.58c3.21,0,3.22-5,0-5s-3.22,5,0,5Z"/><path class="cls-2" d="M409.54,407.88c2.94,0,2.94-4.57,0-4.57s-3,4.57,0,4.57Z"/><path class="cls-2" d="M412.88,404.07a1.83,1.83,0,0,0,0-3.66,1.83,1.83,0,0,0,0,3.66Z"/><path class="cls-2" d="M414,400c2.9,0,2.9-4.5,0-4.5s-2.9,4.5,0,4.5Z"/><path class="cls-2" d="M413.63,396.54c2.71,0,2.72-4.22,0-4.22s-2.72,4.22,0,4.22Z"/><path class="cls-2" d="M362.66,409.27a1.89,1.89,0,0,0,1-.22,1.85,1.85,0,0,0,.82-.53,2.9,2.9,0,0,0,.76-1.81l-.1-.69a2.54,2.54,0,0,0-.66-1.13l-.52-.4a2.55,2.55,0,0,0-1.29-.35,2,2,0,0,0-1,.22,2,2,0,0,0-.83.53,2,2,0,0,0-.53.83,2,2,0,0,0-.22,1l.09.68a2.75,2.75,0,0,0,.66,1.13l.52.4a2.49,2.49,0,0,0,1.3.35Z"/><path class="cls-2" d="M375.54,411.17l-.35.07-.45.18a1.42,1.42,0,0,0-.52.48.91.91,0,0,0-.24.41,1.41,1.41,0,0,0-.16.72l.06.5.19.44a1.42,1.42,0,0,0,.48.52,1.37,1.37,0,0,0,.64.34l.35.07a2,2,0,0,0,1,0,2,2,0,0,0,.85-.5l.3-.39a2,2,0,0,0,.27-1,1.47,1.47,0,0,0-.17-.74,1.51,1.51,0,0,0-.4-.63,1.92,1.92,0,0,0-.85-.49,2,2,0,0,0-1,0Z"/><path class="cls-2" d="M363.4,398c3.17,0,3.18-4.92,0-4.92s-3.17,4.92,0,4.92Z"/><path class="cls-2" d="M367.12,396.94a2.11,2.11,0,0,0,1.11-.25,2.09,2.09,0,0,0,.93-.59,2.2,2.2,0,0,0,.6-.93,2.26,2.26,0,0,0,.25-1.11l-.11-.77a2.78,2.78,0,0,0-.74-1.27l-.58-.45a3,3,0,0,0-1.46-.4,2.26,2.26,0,0,0-1.11.25,2.23,2.23,0,0,0-.92.6,2.11,2.11,0,0,0-.6.93,2.21,2.21,0,0,0-.25,1.11l.1.76a2.92,2.92,0,0,0,.75,1.28l.58.45a2.84,2.84,0,0,0,1.45.39Z"/><path class="cls-2" d="M371.22,394.66c3.16,0,3.17-4.92,0-4.92s-3.18,4.92,0,4.92Z"/><path class="cls-2" d="M372.44,392.7l.15.28a2.3,2.3,0,0,0,.82.82,2.31,2.31,0,0,0,2.31,0,2.38,2.38,0,0,0,.82-.82l.15-.28a2.45,2.45,0,0,0,0-2.49,2.46,2.46,0,1,0-4.25,2.49Z"/><path class="cls-2" d="M393.86,372.67l0,.31a2.87,2.87,0,0,0,.76,1.84,2.09,2.09,0,0,0,.84.54,1.91,1.91,0,0,0,1,.22l.69-.09a2.58,2.58,0,0,0,1.15-.67l.41-.53a2.6,2.6,0,0,0,.35-1.31l0-.31a3,3,0,0,0-.77-1.87,1.93,1.93,0,0,0-.85-.54,2,2,0,0,0-1-.23l-.7.09a2.63,2.63,0,0,0-1.16.68l-.41.53a2.64,2.64,0,0,0-.36,1.34Z"/><path class="cls-2" d="M400.6,380.43l.17.7.18.42a1.25,1.25,0,0,0,.45.49,1.67,1.67,0,0,0,1.07.38,1.93,1.93,0,0,0,.88-.24,1.75,1.75,0,0,0,.81-1.05l.17-.7a1.93,1.93,0,0,0-.5-1.88,2,2,0,0,0-1.36-.56,1.93,1.93,0,0,0-1.87,2.44Z"/><path class="cls-2" d="M401.4,382.9l0,.34a1.68,1.68,0,0,0,.18.83,1.72,1.72,0,0,0,.45.69,1.58,1.58,0,0,0,.69.44,1.55,1.55,0,0,0,.82.19l.57-.08a2.17,2.17,0,0,0,1-.55l.34-.44a2.13,2.13,0,0,0,.29-1.08l0-.34a1.72,1.72,0,0,0-.18-.84,2.07,2.07,0,0,0-1.16-1.16,1.72,1.72,0,0,0-.84-.18l-.58.07a2.24,2.24,0,0,0-1,.57l-.34.44a2.12,2.12,0,0,0-.3,1.1Z"/><path class="cls-2" d="M387.89,368.47l.07.3a2.32,2.32,0,0,0,.6,1,2.37,2.37,0,0,0,2.3.61,2.39,2.39,0,0,0,1.65-1.65l.06-.3a2.36,2.36,0,0,0,0-1.29,2.42,2.42,0,0,0-.62-1.07l-.49-.38a2.52,2.52,0,0,0-1.23-.33,1.87,1.87,0,0,0-.93.21,1.9,1.9,0,0,0-.78.5,2.54,2.54,0,0,0-.63,1.07,2.56,2.56,0,0,0,0,1.29Z"/><path class="cls-2" d="M391.46,369.72l.13.71.21.49a1.51,1.51,0,0,0,.54.58,1,1,0,0,0,.45.27,1.59,1.59,0,0,0,.8.18,2.56,2.56,0,0,0,1.05-.28,1.51,1.51,0,0,0,.58-.54,1.44,1.44,0,0,0,.37-.7l.14-.71a2.36,2.36,0,0,0,0-1.18,2.27,2.27,0,0,0-.57-1,2.3,2.3,0,0,0-1.57-.65,2.25,2.25,0,0,0-1.56.65,2.09,2.09,0,0,0-.57,1,2.15,2.15,0,0,0,0,1.18Z"/><path class="cls-2" d="M406.93,381.18a1.38,1.38,0,0,0,0-2.75,1.38,1.38,0,0,0,0,2.75Z"/><path class="cls-2" d="M407.74,382.65l.07.35.18.43a1.23,1.23,0,0,0,.46.5.86.86,0,0,0,.39.23,1.31,1.31,0,0,0,.7.16l.47-.07.43-.18a1.23,1.23,0,0,0,.5-.46,1.29,1.29,0,0,0,.32-.61l.07-.35a1.85,1.85,0,0,0-.48-1.81l-.37-.3a1.94,1.94,0,0,0-.94-.25,1.36,1.36,0,0,0-.72.16,1.31,1.31,0,0,0-.6.39,1.85,1.85,0,0,0-.48,1.81Z"/><path class="cls-2" d="M409.06,387.6l.41.17.54.23a1.62,1.62,0,0,0,.9,0,1.16,1.16,0,0,0,.57-.15,1.64,1.64,0,0,0,.72-.47l.35-.45.23-.54a1.72,1.72,0,0,0,0-.9,1.55,1.55,0,0,0-.27-.83l-.18-.42a2.27,2.27,0,0,0-.87-.87,2.35,2.35,0,0,0-1.22-.33l-.65.08a2.54,2.54,0,0,0-1.07.63,1.9,1.9,0,0,0-.5.78,1.87,1.87,0,0,0-.21.93,2.53,2.53,0,0,0,.34,1.23,2.42,2.42,0,0,0,.87.87Z"/><path class="cls-2" d="M412.14,390.59a1.37,1.37,0,0,0,0-2.74,1.37,1.37,0,0,0,0,2.74Z"/><path class="cls-2" d="M410.36,392.43a6.59,6.59,0,0,0,1.44,2.67,2,2,0,0,0,3.36-1.39,5.2,5.2,0,0,0-.66-2.42,2.3,2.3,0,0,0-1-1.28,2.13,2.13,0,0,0-2.93.77,2.08,2.08,0,0,0-.22,1.65Z"/><path class="cls-2" d="M413.26,396.29l.37,0a1.41,1.41,0,0,0,.7-.16,1.66,1.66,0,0,0,1-1,1.39,1.39,0,0,0,.16-.7l-.07-.49a1.81,1.81,0,0,0-.47-.8l-.37-.29a1.84,1.84,0,0,0-.92-.25l-.37,0a2.1,2.1,0,0,0-1.32.54,1.49,1.49,0,0,0-.39.6,1.46,1.46,0,0,0-.16.72l.07.5a2,2,0,0,0,.48.82l.38.29a1.81,1.81,0,0,0,.94.25Z"/><path class="cls-2" d="M400.72,377.4a4.58,4.58,0,0,0-.79-1.06,2.4,2.4,0,0,0-.86-.5l-.51-.07a1.44,1.44,0,0,0-.74.17,1,1,0,0,0-.43.25.91.91,0,0,0-.35.35,1.78,1.78,0,0,0-.41,1.17,2.62,2.62,0,0,0,.15.88l.15.41a2.1,2.1,0,0,0,.54.92l.42.32a2,2,0,0,0,1,.28,1.45,1.45,0,0,0,.8-.17,1.64,1.64,0,0,0,.67-.43,1.55,1.55,0,0,0,.43-.67,1.57,1.57,0,0,0,.18-.8,2.08,2.08,0,0,0-.29-1.05Z"/><path class="cls-2" d="M328.79,395.71a4.82,4.82,0,0,0,2.93-1.81l-2.51-1.46c-1.41,4.7,4.55,5.67,6.71,2.06l-2.74-.36c.82,3.2,5.08,7,7.06,2.35l-2.79-.76c.44,3.34,4,7.09,6.41,3l-2.74-.36c.78,4.27,5.79,5.43,7.53,1.25l-2.94-.4c.07,1.33.05,3.08,1.21,4,1.68,1.28,5.07-1.09,6.24.89a1.5,1.5,0,0,0,2.35.3l1.85-2.15-2.51-.66c.52,3.66,3.6,4.11,6.83,4.26,1.93.1,1.92-2.9,0-3-1.58-.07-3.62.17-3.94-2.06a1.5,1.5,0,0,0-2.5-.66l-1.85,2.15,2.36.31a4.1,4.1,0,0,0-3.21-2.43c-1.41-.22-3.72,1.17-3.83-.93a1.51,1.51,0,0,0-2.95-.4L344,397.59a1.51,1.51,0,0,0-2.74-.36l-.82-1.5c-.17-1.24-2.13-2.32-2.8-.76-1.07-.1-1.59-.64-1.58-1.63a1.52,1.52,0,0,0-2.74-.35l-1.22.24a1.51,1.51,0,0,0-2.51-1.45l-1.61,1c-1.83.59-1.05,3.49.8,2.89Z"/><path class="cls-2" d="M322.08,387.92c-.94,1.51-.55,3.38,1.34,3.81a5.1,5.1,0,0,0,4.26-1.19l-2.12-2.12a4.39,4.39,0,0,0-.62,5.77c1.1,1.56,3.71.06,2.59-1.52a1.46,1.46,0,0,1,.15-2.13c1.43-1.3-.69-3.41-2.12-2.12.1-.1-.35.19-.44.22a4.38,4.38,0,0,1-.69.17,2.67,2.67,0,0,0-.4,0c.13,0,0-.09.11,0l.12.1a.8.8,0,0,1,.24.8c-.05,0,.2-.37.17-.32,1-1.65-1.58-3.16-2.59-1.51Z"/><path class="cls-2" d="M323,387.89l2.44-.33c0,.77,1.13,1.41,1.68.7l3.57.72a1.14,1.14,0,0,0,1.66.68l4.13,1.38a1.19,1.19,0,0,0,2.15.28c1.47-2.19,2.54,1.52,4,2.23a1.25,1.25,0,0,0,1.67-.44l2.3,1a1.27,1.27,0,0,0,1.86.75l4.43.95a1.31,1.31,0,0,0,2.25,0l2.78-.28c.08.79.79,1.62,1.69,1.29,1.54-.55,2.17-1.58,2.06,1.74-.05,1.75,2.59,1.72,2.7,0s.44-4.88-1.49-5.79c-1.77-.85-2.55.94-4,1.47l1.69,1.29c-.56-4.82-5.44-4.85-7.7-1h2.25a5.26,5.26,0,0,0-8-1.82l1.86.76c-.87-3.42-5.07-5.71-6.85-1.53l1.67-.44c-1.6-.77-1.34-3.25-3.32-3.74s-3,1.1-3.9,2.44l2.15.29c-1.21-3.25-4.5-4.59-7.54-2.72l1.66.68c-.75-4.15-5.23-5-7.29-1.31l1.83.49c-.32-4.36-5.28-4.05-5.75.15-.08.77,1.15.91,1.34.18Z"/><path class="cls-2" d="M401.6,383c-.09,0-5.1-1.83-3.39-3,1-.67.75-2.53-.65-2.43l-1.92-1.81c.9-.9,0-2.68-1.3-2.23l-1.67-.83c.58-.92-.4-2.41-1.51-2-1.36-1.28-1.4-2.32-.14-3.11a1.33,1.33,0,0,0-1.87-1.88c-1.53,1.46-3.47,3.7-2.22,5.94a4,4,0,0,0,4.94,1.64l-1.51-2c-2.12,3.38,1.46,5.88,4.69,4.76l-1.3-2.24c-3.13,3.15,0,6.67,3.81,6.31l-.66-2.43c-1.47,1.07-2.25,2.63-1.29,4.4,1.1,2,3.69,2.44,5.76,2.62,1.07.09,1.06-1.38.23-1.73Z"/><path class="cls-2" d="M396.11,370.53q3.11,1.67,1.87,4.61a1.19,1.19,0,0,0,.83,1.46c2,.28,5.39,1.72,3.84,4.54a1.3,1.3,0,0,0,1.11,1.94c2.23-.08,3.36,1.08,3.4,3.46a1.39,1.39,0,0,0,1.32,1.73l.44.28c-.91,1.26,1.19,2.91,2.17,1.68,1.85-2.31.11-4.58-2.61-4.7l1.33,1.74c1.37-4-2.48-6.59-6.05-6.76l1.11,1.93c2.24-4.28-1.66-7.7-5.74-8.17l1.15,1.5c1.06-3.14-.73-5.47-3.59-6.63-.83-.34-1.26.94-.58,1.39Z"/><path class="cls-2" d="M323.55,385.28a3.64,3.64,0,0,0-1.88.68,4.47,4.47,0,0,0-1.32,1.58.89.89,0,0,0,.76,1.33,2,2,0,0,0,1.7-.91,5.2,5.2,0,0,1,.4-.53s.16-.07.15,0h0c-.22-.1-.32-.31-.3-.65a.94.94,0,0,0,1.81.5c.43-1.16-.83-1.86-1.82-1.7a1.92,1.92,0,0,0-1.23.69c-.13.17-.49.88-.72.88l.85,1.11a3.49,3.49,0,0,1,1.9-1.78c.55-.24.28-1.24-.31-1.16Z"/><path class="cls-2" d="M324.34,387.93c-.52.2-1,.46-1.52.64a.27.27,0,0,1-.13,0v0c.23,0,.1.19-.39.53L321.1,387a11,11,0,0,0-1.89,2.37c-.44.95.52,2.3,1.58,1.58a10.28,10.28,0,0,0,2-2.21c.72-.86.07-2.49-1.2-2.06a2.14,2.14,0,0,0-.72,3.56c1.32,1.41,3.49.27,4.37-1.05.39-.59-.26-1.51-1-1.24Z"/><path class="cls-2" d="M376.85,390.51l.17.09c.1.06,0,0,.05,0l.11.12c.14.15-.08-.11,0,.05s.2.23.3.35c-.11-.12,0,0,0,.06s.09.2,0,.06a.73.73,0,1,0,1.4-.38,2,2,0,0,0-.7-1.16,2.49,2.49,0,0,0-1.12-.38c-.62-.08-.85.9-.32,1.16Z"/><path class="cls-2" d="M378.06,390.28a3.2,3.2,0,0,0-.68.16l-.62.27a.76.76,0,0,0,.58,1.39c.21,0,.41-.08.62-.14a3.78,3.78,0,0,0,.67-.33.74.74,0,0,0,.3-.92.75.75,0,0,0-.87-.43Z"/><path class="cls-2" d="M384,391.59c.45-.45,1-.31,1.56-.48a.82.82,0,0,0,.19-1.48c-1.07-.54-2.24.24-2.84,1.12-.45.66.54,1.38,1.09.84Z"/><path class="cls-2" d="M390.85,388.74c.25-.21,1.53-1.68,1.89-.9.61,1.29,2.29.29,2.11-.89-.06-.46.62-.59.91-.48a1.21,1.21,0,0,0,1.48-.84c.16-.92.11-1.31,1-1a1,1,0,0,0,1.29-1v-.26a1.21,1.21,0,0,0-.6-1c-2.13-1.21-3.65.73-4,2.69l1.47-.84a2.93,2.93,0,0,0-3.77,3.41l2.11-.89c-1.38-2.72-4.55-.92-5.34,1.21-.34.9.85,1.33,1.45.85Z"/><path class="cls-2" d="M396.09,389.17c-2.33.31-3.59,2.93-3.53,5.07a1,1,0,0,0,2.05.28,8,8,0,0,1,.94-2.16c.28-.45.9-1.4,1.3-1.56,2.28-.91-.31-3.71-1.42-1.84-.49.82-1.28,1.45-1.77,2.29a10.35,10.35,0,0,0-1.07,2.71l2.06.28c-.1-1.73.89-2.68,1.93-3.89.34-.39.17-1.26-.49-1.18Z"/><path class="cls-2" d="M366.19,401.36c-1.63,3.11.14,7,3.06,8.65,3.51,2,7.79.66,10.5-2,1.28-1.27-.59-3-1.93-1.93-2.27,1.77-7.19,1.78-8.29-1.59-1-3.14,2.46-5.77,4.81-7.07,1.45-.8.42-2.84-1.08-2.55-7.35,1.43-8.18,11-2.87,15.28a1.31,1.31,0,0,0,1.85-1.86c-1.6-1.77-2.91-3.75-2.56-6.25a5.22,5.22,0,0,1,4.33-4.48L372.93,395c-4,2.21-8.55,6.84-5.46,11.52,2.84,4.3,8.47,4.53,12.28,1.48l-1.93-1.93c-4.21,4.26-10.47,1.83-10-4.25a.9.9,0,0,0-1.66-.45Z"/><path class="cls-2" d="M374.58,397.75c-.13-.08-.09-.07.12,0a1.65,1.65,0,0,1,.32.06l.49.14a2,2,0,0,1,.82.55l1.81-1.41a4.32,4.32,0,0,0-2.07-1.34,2.69,2.69,0,0,0-2.42-.08,1.09,1.09,0,0,0-.22,1.69,3.58,3.58,0,0,0,1.78.77,14.25,14.25,0,0,0,1.63.66,1.16,1.16,0,0,0,.89-2.11,3.73,3.73,0,0,0-1.79-.67,2.91,2.91,0,0,0-1.7.46.67.67,0,0,0,.34,1.24Z"/><path class="cls-2" d="M374.5,400.75q.79-.18.87.39l-.13.5a1.45,1.45,0,0,1-1.07-.07,2,2,0,0,1-.23.28,4.87,4.87,0,0,0-.52.76l1.27-.52c.64.18.16.83-.3.65.06,0,0-.08,0-.09l-.26,0,.62.16c.15.11-.08-.33,0-.29s0,.11,0,.11c-.48.08-.12,0-.12.1a.64.64,0,0,1,.17-.49c.12,0,.11,0,0,0q.21,0,0,0c.28.1,0-.15.2.1,0-.06.38.57.14.46-.06,0,.33-.25.3-.23s.35-.2.36-.15a.74.74,0,0,1-.73-.7c0-.12,0-.09,0,.08a3.08,3.08,0,0,1-.5.62,3.77,3.77,0,0,0-.39.26c-.21.26-.22-.19.09.12l.34,1.29a2.44,2.44,0,0,1,.41-.84c.36-.39.09.07,0-.05a.09.09,0,0,1-.06-.06.54.54,0,0,1-.14-.42c0-.1,0-.13.07-.11l-.07,0c-.05,0-.24,0-.15,0-.24-.07-.21,0-.35-.13.07,0-.07-.07-.08-.08s-.07-.11.06-.28.44-.28.41-.22-.23-.37-.1-.34-.37.35-.32.31a1.94,1.94,0,0,1-1.25.26l1.16,2a2.17,2.17,0,0,1,1.57-1.41l-1.53-.63c-.09-.15,0-.19.12-.29a1.37,1.37,0,0,0-.48,1.81,1.34,1.34,0,0,0,1.81.47,2.4,2.4,0,0,0,.89-3.36,1.39,1.39,0,0,0-1.53-.62,4.88,4.88,0,0,0-3.31,3c-.36.86.53,1.66,1.3,1.7,2,.11,4.78-1.41,4.16-3.78a2.61,2.61,0,0,0-2.56-1.82,3.22,3.22,0,0,0-2.6,1.49,2.94,2.94,0,0,0,1.85,4.45,3,3,0,0,0,2.73-.62,2.34,2.34,0,0,0,.51-3,2.56,2.56,0,0,0-3-.9A3.85,3.85,0,0,0,372,403.4a1.31,1.31,0,0,0,.34,1.28c2.55,2.6,7.37-2.73,4.45-4.57-1.34-.85-3.38.22-4,1.52a2.27,2.27,0,1,0,4.32.54,2.53,2.53,0,0,0-3.57-1.65,2.63,2.63,0,0,0-.78,3.64,1.81,1.81,0,0,0,2.06.88,2.63,2.63,0,0,0,1.75-1.33c.88-1.69-.95-4-2.8-3a2,2,0,0,0,.38,3.57,1.15,1.15,0,0,0,1.27-.51c.42-.92,1.3-1.6.95-2.73a1.61,1.61,0,0,0-2.05-1,1.28,1.28,0,0,0-.53,2,1.16,1.16,0,0,0,1.89-.15c.32-.7-.36-1.6-1.12-1.13Z"/><path class="cls-2" d="M363.1,408.57v.37a.68.68,0,0,0,.19.47.72.72,0,0,0,.48.2.68.68,0,0,0,.66-.67v-.37a.66.66,0,0,0-.19-.48.69.69,0,0,0-1,0,.66.66,0,0,0-.19.48Z"/><path class="cls-2" d="M326.13,389.58l.22.2a.94.94,0,0,0,1.17.89l.27.26a1,1,0,0,0,1.72.71l1.27-1.19-1.61-.21.44,1.48c0,1,1.13,1.25,1.78.74l1.16-.9H331l1,1.11a1.07,1.07,0,0,0,1.3.17l.47.42c-.42,1.28,1.36,1.85,2.05.87l.29.11c-.51,1.42,1.72,2,2.25.62l-.1-.47a1.2,1.2,0,0,0,1.7,1.7l.59.07a1.24,1.24,0,0,0,2.42.33l.09.14,2.21,1.29,2.15-2.31-1.91-.78-.18,2,2.4.32-.4.39,2.47,1.05.72-1.2,2.31,1.35-.41.86,2.55,1.07.14,1h2.78l.45-1,2.26,1.3.32-.86,2.56,1.06-1.36.56,2.51.66a7.35,7.35,0,0,1-.22-4.83A1.52,1.52,0,0,0,361.9,397l-7.3,1.74,1.5,1.5,2.31-2.94-2.05-2.05c-1.5,2.72-3,2.65-5.32,3.85l-2.21-1.69.05.07c.45-1.34-1.1-2.22-2.2-1.69l-2.93-1.46a1.51,1.51,0,0,0-2.2-.89l-.06-.21-2.17-1.67q-2.13,5.3-4.6.12l-2.67-1.13.65.66L330.49,390l-1-1a1.47,1.47,0,0,0-1.85-1.42l-2.14-.2v2.52h.58l-.87-2.14.3-.25c-1.4-.11-2.05,2.12-.74,2.71,9.36,4.21,21.43,12,32.05,8.38a1.43,1.43,0,0,0,.62-2.36c-1.94-2.18-4.45-1.75-7.21-2.21a38.91,38.91,0,0,1-12.4-4.43L336.36,392l2.37,2.24,1.24-2.18-3.71-1.69-1.41,2.42c6.29,2,11.23,5.88,16.5,9.66,3.54,2.54,7.2,3.07,10.92.46a1.47,1.47,0,0,0,.64-1.58c-.37-2.5.75-4.12-2.09-5.2a1.46,1.46,0,0,0-1.39.36l-.66.54c-1.22,1,.15,2.61,1.4,2.4l3.58-.63L362,397l-.71,1.92c-.45,1.25,1.11,2.22,2.14,1.65l2.68-1.49-2.14-.87,0,1.07c-.24,1.25,1.46,2.69,2.44,1.42l2.37-3.06-2.3-1.77a8.77,8.77,0,0,0-1.92,5.84c0,1.59,2.59,2.06,2.87.39l.31-1.75c.32-1.85-2.51-2.64-2.83-.78l-.3,1.75,2.88.39a5.43,5.43,0,0,1,1.51-4.37c1.14-1.5-1.39-2.94-2.52-1.47L364.1,399l2.67,1.12a5.24,5.24,0,0,0,0-2.61,1.47,1.47,0,0,0-2.14-.87l-2.68,1.48,2.14,1.65.7-1.93c.41-1.14-.8-2-1.79-1.79l-3.57.66,1.4,2.4c-1,.88-.74,1.93-.58,3l.64-1.58c-5.1,3.54-10.07-2.14-14.09-4.9a41,41,0,0,0-11.15-5.6,1.46,1.46,0,0,0-1.41,2.42A9,9,0,0,0,340,395c1.19.12,1.67-1.29,1.25-2.17a6.09,6.09,0,0,0-3.75-3.41c-1.51-.63-2.52,1.87-1.11,2.63a43.22,43.22,0,0,0,9,3.75c2.17.61,8.56.65,10.11,2.41l.63-2.36c-9.76,3.27-21.2-4.27-29.83-8.17l-.73,2.71.62.05a1.44,1.44,0,0,0,1.26-.72l.34-.52a1.47,1.47,0,0,0-.87-2.14,2.57,2.57,0,0,0-2.83.29,1.47,1.47,0,0,0,0,2.52,4.9,4.9,0,0,0,4.39.51l-1.86-1.41c-.39,5.23,6.81,6.41,6.88,1a1.47,1.47,0,0,0-2.21-1.27c-4.6,3.44,2.36,7.86,3.65,2.66a1.47,1.47,0,0,0-2.67-1.13c-2.34,3.08.33,6.23,3.6,6.79,2.75.48,9-1.83,5.68-5.51-1.7-1.88-5.26-.58-4.46,2.2,1.06,3.65,4.48.68,5.15-1.33.45-1.33-1.09-2.19-2.17-1.68-4.53,2.16-1.19,8.1,3.06,5.36l-2.2-.9c.94,3.47,4.16,4.77,7.33,3.25l-2.2-1.7c-1.52,4.59,4.88,6.27,5.74,1.53a1.53,1.53,0,0,0-2.21-1.7,2.92,2.92,0,0,0,.36,5.45c3.69,1.39,7.5-2.35,9.07-5.19a1.51,1.51,0,0,0-2.05-2.06c-2.55,1.15-3.52,2.83-3.8,5.53a1.5,1.5,0,0,0,1.5,1.5c6.94-.47,3.75-8.05.46-5.5a3.06,3.06,0,0,0-.06,4.58c2.62,2.51,6.81,0,9-1.7l-2.51-1.46a12.63,12.63,0,0,0,.21,6.43,1.52,1.52,0,0,0,2.51.66c1.5-1.79,4-6.63.4-7.88-2.91-1-4.14,3.12-4.16,5.2a1.52,1.52,0,0,0,2.56,1.06c5-4.22-5.84-9.5-5.44-1.26a1.51,1.51,0,0,0,2.25,1.29c2.16-1.51,2.82-5-.32-6-3.46-1.11-5.1,2.41-4.42,5.19a1.46,1.46,0,0,0,2.78,0c.66-2,1.53-5.57-1.26-6.39-2.6-.77-3.9,1.92-4.35,3.92-.34,1.47,1.82,2.56,2.54,1.07.93-1.91,2.39-5.54-.61-6.45-2.38-.71-3.56,1.53-4,3.45a1.4,1.4,0,0,0,2.32,1.35c3.29-3.33-3.11-7.19-5.29-1.48-.57,1.49,1.67,2.25,2.47,1,3.67-5.52-6.45-6.58-4.47-1.06a1.33,1.33,0,0,0,2.4.31,3.85,3.85,0,0,0,.42-4,1.32,1.32,0,0,0-1.91-.78,6.67,6.67,0,0,0-3,3.27,1.28,1.28,0,0,0,2.21,1.29c2.53-4-3.33-6.59-4.68-2.09H343c-.38-2.76-2.85-3.3-4.71-1.44l1.7,1.7c2.88-3-2.31-6.1-3.85-1.85l2.25.62c1.18-3.44-2.67-4.57-4.47-1.87l2.05.87c1.16-3.84-2-2.27-3.39-3.8a1.09,1.09,0,0,0-1.51,0l-1.12.92,1.78.74a2.74,2.74,0,0,0-.76-2.51,1,1,0,0,0-1.61-.21l-1.24,1.22,1.71.71c0-2.09-1.81-2.48-3-2.93-.91-.35-1.55,1.16-.66,1.58Z"/><path class="cls-2" d="M408.42,382.49a1.08,1.08,0,0,0,0-2.16,1.08,1.08,0,0,0,0,2.16Z"/><path class="cls-2" d="M406.21,382l.05.85,1-1a2.79,2.79,0,0,1-1.45-.27c-1.3-.46-1.93,1.43-.89,2.12.55-.42.44-.68-.33-.76-.25-.11-.51-.21-.77-.3a3.19,3.19,0,0,0-1.44-.06c-.55.12-2.34,2-2.48,2V387a8.85,8.85,0,0,1,6.29-.1l-.31-2.34-1.3.07-.91,2.19a12.47,12.47,0,0,1,4.73,1.2l-.26-2h.18l-1.28,2.19a3.93,3.93,0,0,1,2.53,1.3l1.61-2.08a5.42,5.42,0,0,1-2.05-2.49L407,386.57a1.46,1.46,0,0,1,.26.73,1.22,1.22,0,0,0,2.21.29,2.31,2.31,0,0,0-.5-3c-1.14-1.23-2.8.34-2.18,1.69a7.09,7.09,0,0,0,3.11,3.38,1.33,1.33,0,0,0,1.61-2.08,6.12,6.12,0,0,0-3.71-2,1.32,1.32,0,0,0-1.28,2.19,2.33,2.33,0,0,0,3.52,0,1.32,1.32,0,0,0-.26-2.05,15.88,15.88,0,0,0-6.05-1.52,1.3,1.3,0,0,0-.91,2.2,3.47,3.47,0,0,0,4.41.32,1.3,1.3,0,0,0-.3-2.34,11.18,11.18,0,0,0-7.65.13,1.28,1.28,0,0,0,0,2.44c1.25.38,2-.14,2.88-.95a6.29,6.29,0,0,0,.48-.67.79.79,0,0,1,1.28-.15c.52.07,1,.45,1.54.46,2.64.08,2.47-2.87.69-4l-.9,2.12a4.33,4.33,0,0,0,2.34,0,1,1,0,0,0,.7-1.25,1.91,1.91,0,0,0-.83-1.28.73.73,0,0,0-1.21.7Z"/><path class="cls-2" d="M392.77,387.43a12.82,12.82,0,0,0-3.61,2.86l1.87,1.09c.26-1.38,1.65-2.9,3.18-2.11l.68-2.52c-2,0-4.45-.41-5.8,1.49-1,1.34-.94,3.42.68,4.24a1.42,1.42,0,0,0,1.91-.5,23.78,23.78,0,0,1,1.89-3.18,6.59,6.59,0,0,1,1-1.18c.45-.35.69-.27,1.22-.26a1.14,1.14,0,0,0,1.09-1.43c-.7-1.93-2.86-1.42-4.12-.36a15.77,15.77,0,0,0-3.48,5l1.91-.5c-.16-.06-.15,0,0,.19a.52.52,0,0,1,.07-.32c.23-.16.2-.27.51-.39.9-.36,2.15,0,3.11-.11a1.36,1.36,0,0,0,.36-2.65c-2.79-1-6.55,1.1-6.42,4.28.05,1,1.56,1.61,2.09.56a8.75,8.75,0,0,1,2.57-3,.72.72,0,0,0-.72-1.24Z"/><path class="cls-2" d="M388.29,389.59c-3-1.15-5.67.6-6.84,3.4-.35.82.66,1.69,1.43,1.43a2.12,2.12,0,0,0,1.69-2.31,1.21,1.21,0,0,0-1.2-1.2,5.12,5.12,0,0,0-5.05,5.34,1.28,1.28,0,0,0,2.51.34c.5-1.34,1.26-3.59,3.27-3.19l-.59-2.22C381,394.1,373.07,389,372,394.61a2,2,0,0,0,1.34,2.43,2.15,2.15,0,0,0,1.79-.36c.7-.33,3-3,4.09-2.32l-.66-1.16.62-.7a1.11,1.11,0,0,0-.66,1.62l.11.15a1.25,1.25,0,0,0,1.37.56l.24-.07a1.37,1.37,0,0,0,1-1.29v-.27a1.33,1.33,0,0,0-.66-1.16c-1.1-.67-2.28-.35-3.45.08-1,.37-2.73,2.22-3.6,2.19l1.19.68c-.41-.72,3.89-.07,4.36,0a8.73,8.73,0,0,0,2.39.12,5.43,5.43,0,0,0,3.91-2.06c.55-.69.52-2.05-.58-2.23-3.62-.57-5.31,2-6.45,5.08l2.51.34c-.09-1.63.75-2.61,2.5-2.94l-1.2-1.2.09.06,1.44,1.44a4.21,4.21,0,0,1,4.39-2.59c.87,0,.92-1.15.2-1.43Z"/><path class="cls-2" d="M372.56,414.82c-.11.09,1,.34,1.24.41a7.6,7.6,0,0,0,2.21.43c1.79,0,2.78-1.4,3-3.06l-2.21.9c3.58,2.26,6.93-2.12,4.38-5.24-1.22-1.49-3.33.64-2.12,2.13.53.65-.3.8-.74.52a1.51,1.51,0,0,0-2.21.89c-.1.73,0,.79-.38.85s-1.38-.4-1.86-.52a3.51,3.51,0,0,0-3.45.57c-1.46,1.27.67,3.38,2.13,2.12Z"/><path class="cls-2" d="M364.14,402.58c-3.94,1.11-3.38,6.61-.57,8.62,1.57,1.12,3.07-1.48,1.51-2.59-.75-.54-1.31-2.81-.14-3.14a1.5,1.5,0,0,0-.8-2.89Z"/><path class="cls-2" d="M381.66,406.82c-3.85,2.34-.5,7,3.23,6.35l-1.48-.84a2.22,2.22,0,0,0,2.16,1.83,3.52,3.52,0,0,0,1.75-.37,3.51,3.51,0,0,1,2.62-.6c3,.33,6.42-2.95,6.51-5.95a1.11,1.11,0,0,0-1.66-.95c-1.87,1.3-2.39,4-4.94,4.09-.65,0-1-.23-1.75,0a17.71,17.71,0,0,0-2.37,1.34,1.22,1.22,0,0,0-1.48-.83q-3.27-1.07-1.64-3.1a.7.7,0,0,0-.95-.94Z"/><path class="cls-2" d="M370.77,414.23a4,4,0,0,0,3.07-1.43l-2.5-.66a2.05,2.05,0,0,1,.27,1.07,1.52,1.52,0,0,0,2.26,1.3c1.81-1.11,3.6-.46,4.86-2.55a1.52,1.52,0,0,0-1.69-2.21c-.9.24-1.77.55-2.66.79a15.31,15.31,0,0,1-1.78.41c-.76.11-1.11-.22-.85.7s.42.53,1.22.5a12.17,12.17,0,0,1,1.71.1,20,20,0,0,1,2.43.45,1.53,1.53,0,0,0,1.9-1.44,5.41,5.41,0,0,1,1.46-3.25l-2.51-.66a1.49,1.49,0,0,1,0,1c-.46,1.6,1.95,2.68,2.75,1.15l1.09-2.1-2.74-.35.82,2.14,2.74-1.15,0-1.38c.67-1.81-2.22-2.6-2.89-.8a4.15,4.15,0,0,0,.32,3.69c.77,1.48,3.35.45,2.74-1.15l-.82-2.15a1.52,1.52,0,0,0-2.74-.36l-1.09,2.1,2.74,1.15a5,5,0,0,0,0-2.61,1.51,1.51,0,0,0-2.51-.66,9,9,0,0,0-2.33,5.37l1.9-1.45c-2.24-.55-8.59-1.94-8.82,1.84-.27,4.31,6.8,1.52,8.74,1l-1.69-2.21c-.56.93-2.82.89-3.78,1.48l2.25,1.29a3.36,3.36,0,0,0-.38-1.87,1.53,1.53,0,0,0-2.51-.66l-1,.55c-1.91.12-1.93,3.12,0,3Z"/><path class="cls-2" d="M365.3,411.43a2.37,2.37,0,0,1,2.71,1.22c1,1.62,3.64.12,2.59-1.51a5.44,5.44,0,0,0-6.1-2.6,1.5,1.5,0,0,0,.8,2.89Z"/><path class="cls-2" d="M367.14,409.36a9.52,9.52,0,0,0-3.58-2.77,1.49,1.49,0,0,0-1.69.69,2.41,2.41,0,0,0-.21,2.09,1.52,1.52,0,0,0,2.5.66c.34-.35.73-.64,1-1l-2.36-1.82a3,3,0,0,0,0,3.5,1.54,1.54,0,0,0,2.05.54,1.51,1.51,0,0,0,.54-2.05c.11.15-.2-.32-.16-.11,0-.09.12-.25.19-.36.94-1.41-1.22-3.1-2.35-1.82-.33.36-.71.66-1,1l2.51.66c-.1-.32-.13-.25-.09.22l-1.7.69a7.3,7.3,0,0,1,2.26,2c1.33,1.41,3.45-.71,2.12-2.12Z"/><path class="cls-2" d="M369,410.25l-1.61-2a1.51,1.51,0,0,0-2.56,1.06,3.36,3.36,0,0,0,5.6,2.35l-2.12-2.12s-.3.32-.21.24.06,0,0-.05.25,0,0,0l-.49,0a1.5,1.5,0,0,0,0,3,3.44,3.44,0,0,0,2.81-1.07,1.5,1.5,0,0,0-2.12-2.12c.09-.08.1-.08,0,0s-.08,0,0,0-.23,0,0,0c-.09,0-.44,0-.13,0,0,0-.37-.12-.2,0s-.17-.11-.17-.12c.21.16,0-.1,0,0s-.09-.15-.1-.19c.12.27,0-.23,0,.08l-2.56,1.06,1.61,2a1.5,1.5,0,0,0,2.12,0,1.54,1.54,0,0,0,0-2.12Z"/><path class="cls-2" d="M365.62,404.7a8.42,8.42,0,0,0-.95,6.09,1.52,1.52,0,0,0,2.2.9,5.65,5.65,0,0,0,1.69-.95l-2.36-.3a2,2,0,0,1,.36.85c.21,1.9,3.21,1.92,3,0a5.27,5.27,0,0,0-.77-2.37,1.53,1.53,0,0,0-2.36-.3,4.16,4.16,0,0,1-1.07.48l2.2.9a5.24,5.24,0,0,1,.65-3.79,1.5,1.5,0,0,0-2.59-1.51Z"/><path class="cls-2" d="M379.8,403.74a5.46,5.46,0,0,1-.82,3.77l1.61-.2a1.83,1.83,0,0,1-.81-1.24,1.14,1.14,0,0,0-2.28,0,5.12,5.12,0,0,1-.39,1.72l2.29.63a4.38,4.38,0,0,1,.58-1.35l-1.66.43a.44.44,0,0,1,.07.22c.23,1.12,1.64.84,2,0a1.81,1.81,0,0,0-.59-2.12,1.24,1.24,0,0,0-1.9.25,5.46,5.46,0,0,0-.78,1.94,1.19,1.19,0,0,0,2.29.63,7.23,7.23,0,0,0,.38-2.35H377.5a3.35,3.35,0,0,0,1.84,2.85,1.05,1.05,0,0,0,1.51-.61,7.77,7.77,0,0,0,.24-4.74c-.2-.68-1.36-.59-1.29.17Z"/><path class="cls-2" d="M392.59,393.23c3,4.48,5.8,9.49,2.66,14.74-.65,1.09.92,2.37,1.78,1.38,3.77-4.3,1.73-9.38-1.44-13.35-.86-1.07-2.73.35-1.92,1.47a29.22,29.22,0,0,1,4.47,9,1.21,1.21,0,0,0,1.13.86c5.67.6,10.82-.79,13.91-5.9l-2.11-.89a5.75,5.75,0,0,1-1.95,3.7l1.65,1.65a22,22,0,0,0,4-7c.44-1.29-1.49-2-2.16-.91-2.72,4.54-6.61,6.7-11.61,7.95-1.23.3-1,2.38.3,2.25,5.69-.53,10.5-4.19,13.35-9l-2.16-.91a18.41,18.41,0,0,1-3.36,6c-.94,1.13.6,2.75,1.65,1.65a9,9,0,0,0,2.52-4.74,1.16,1.16,0,0,0-2.11-.89c-2.68,4.5-7.1,5.26-11.91,4.72l1.14.86a31.4,31.4,0,0,0-4.63-9.61l-1.91,1.48c2.21,2.82,4.32,6.75,1.56,10l1.78,1.38c3.18-5.54,1.26-12.72-3.48-16.77-.58-.5-1.62.15-1.14.88Z"/><path class="cls-2" d="M366.25,409.92c.07-.21-.23.31-.27.38-.57,1-.17.37,0,.24a2.3,2.3,0,0,0-.8,3,2.63,2.63,0,0,0,3.69,1,3,3,0,0,0,1.32-3.75,3.5,3.5,0,0,0-3.48-2,9.94,9.94,0,0,0-1.08.13l-.33.06c.25,0,.29,0,.11,0-.34.07-.36.07,0,.09.16.09.14.07-.05,0a1.32,1.32,0,0,1-.29-.19,2.22,2.22,0,0,0-2.5.17,2.3,2.3,0,0,0-.81,2.37,3.31,3.31,0,0,0,3.53,2.33c.58,0,1.13-.21,1.69-.25q-.36.06.06,0h-.2c-.14-2.38-.45-3.14-.93-2.29a1.77,1.77,0,0,1,.84-.69H368l.33.14.81.8-.08-.11-.35,2.7c1.4-1.37,1.77-4.05-.33-5a1.48,1.48,0,0,0-2.13.87Z"/><path class="cls-2" d="M292.49,461.51c2.24,15.18,7.14,30.26,10.79,45.15,3.69,15.07,7.31,30.16,11,45.23,7.41,30.31,13.62,60.77,17.37,91.76.69,5.68,9.7,5.75,9,0a721.27,721.27,0,0,0-17.53-92.39q-5.75-22.44-11.64-44.85c-4.05-15.41-7.17-31.69-12.87-46.58a3.17,3.17,0,0,0-6.11,1.68Z"/><path class="cls-2" d="M299.47,468.62c1.1-3.1.43-7,.18-10.19-.28-3.52-.57-6.72-2.77-9.54-1.89-2.42-5.87-.86-6.59,1.73-.87,3.17.25,6.44.91,9.58s.73,6.42,2.19,9.22,5.19,1.73,6.08-.8Z"/><path class="cls-2" d="M284.61,462.41c.77,3.6,2.94,6.86,4.46,10.2A105.07,105.07,0,0,1,293.54,484l9.6-4.05q-4.22-8.83-8.5-17.63c-3-6.18-11.71-.77-9.08,5.31a437.82,437.82,0,0,1,20.94,61.85c2.61,9.91,5,19.87,7.46,29.81,2.59,10.44,4.57,21.62,9,31.47,1.84,4.12,8.76,2,8.47-2.29-.69-10.46-4.11-21-6.63-31.16-2.61-10.56-5.13-21.15-7.92-31.66a471.19,471.19,0,0,0-21.67-62.07l-9.61,4.05q4.21,8.83,8.51,17.62c2.59,5.33,11.47,1.6,9.6-4-2.44-7.37-5.73-17.9-12-22.9-3.25-2.59-8-.25-7.05,4.1Z"/><path class="cls-2" d="M428.56,381.54c4.89,13.24,20.44,20.92,30.9,29.14,13.36,10.48,22.33,24.68,30.68,39.24,4.19,7.3,8.51,14.58,12.07,22.22,3.84,8.24,5.17,17.22,8.83,25.47,1.6,3.6,3.68,6.93,5.55,10.39,2.31,4.28,3.6,8.68,5.11,13.26,2.71,8.21,7.42,15.33,12.33,22.38,1.91,2.74,6.44.15,4.53-2.65-5.29-7.77-9.77-15.32-12.5-24.35-2.48-8.21-7.51-14.83-10.64-22.7-3.22-8.1-4.76-16.58-8.49-24.55-3.59-7.64-7.95-14.88-12.27-22.12-8.21-13.76-17-27.69-29.53-38-5.67-4.66-11.92-8.53-17.86-12.82-6.56-4.74-11.59-10-17-15.92a1,1,0,0,0-1.73,1Z"/><path class="cls-2" d="M536.07,543.05c-.22.08-.46.13-.67.23l-.07,0h.07a4.16,4.16,0,0,0-.44.12.93.93,0,0,0-.43.62.77.77,0,0,0,.35.86,1.09,1.09,0,0,0,.64.12.82.82,0,0,0,.41-.17c.28-.22-.12.07.1-.08s.39-.28.59-.41a.72.72,0,0,0,.29-.9.71.71,0,0,0-.84-.41Z"/><path class="cls-2" d="M536.18,544.75c2.3,0,4.53.37,5.85,2.49l1.88-1.46c-1.7-1.85-4.51-3.68-7.13-3.47a1.14,1.14,0,0,0-.31,2.23,24,24,0,0,1,3.12,1,9.51,9.51,0,0,1,2.62,2c.93,1,2.65-.3,1.89-1.45-1.69-2.55-5.42-4.47-8.31-2.7a.77.77,0,0,0,.39,1.42Z"/><path class="cls-2" d="M543.88,547.58c1.18-2.92,1.75-6,2.81-9,1.17-3.29,2.92-6.47,3.67-9.88a1.07,1.07,0,0,0-2-.82,50.56,50.56,0,0,0-6,19.51c-.06.9,1.17.9,1.45.19Z"/><path class="cls-2" d="M598.7,537.59c-1.45,3.72-1.67,7.84-2.54,11.73-1.4,6.19-3.46,12.21-4.88,18.41a180.47,180.47,0,0,1-15.48,42c-3.16,6.22-6.4,12.42-9.84,18.49-3.14,5.55-7.07,11.76-13.43,13.93-9.92,3.39-22.25-4-30.73-8.51-1.68-.89-3.16,1.63-1.49,2.55,8.57,4.74,19.87,11,30,9.48,13-1.9,18.88-17.15,24.16-27.28,7.44-14.26,14.44-28.92,18-44.7,2.65-11.74,7-23.81,7.57-35.94,0-.84-1.09-.87-1.36-.19Z"/><path class="cls-2" d="M563.73,450.3c-2.83-6.33-7.62-11.13-11.48-16.8-4.81-7.08-5.35-14.77-3.52-23,.42-1.88-2.47-2.68-2.89-.8-1.58,7.06-1.82,14.32,1.33,21,3.62,7.69,10.47,13.26,14,21.07.79,1.76,3.38.24,2.6-1.51Z"/><path class="cls-2" d="M603.38,454.62a78.18,78.18,0,0,1,3.32-8.7,26.31,26.31,0,0,1,6.71-7.24c1.07-.82,0-2.66-1.08-1.85-5.26,3.87-11.2,11.32-10.66,18.31a.88.88,0,0,0,.45.77,1.37,1.37,0,0,0,1.6,0,.69.69,0,0,0-.34-1.27Z"/><path class="cls-2" d="M548.46,411.3c1.83-4.54,3.92-9,6.07-13.36.81-1.66,3.67-7.72,5.6-4.84s1.24,9,1,12.39c-.11,1.93,2.89,1.92,3,0,.23-4.09,1.18-13.64-3.31-16-2.67-1.4-5.4,1.3-6.83,3.27-3.71,5.13-6.11,11.9-8.46,17.75-.72,1.79,2.18,2.56,2.89.79Z"/><path class="cls-2" d="M564.33,406.11a15.56,15.56,0,0,1,.47-3.66l-2.95-.4a24.66,24.66,0,0,0,.22,3.54,1.54,1.54,0,0,0,1.5,1.5,1.51,1.51,0,0,0,1.5-1.5,24.66,24.66,0,0,1-.22-3.54,1.5,1.5,0,0,0-2.94-.4,19.21,19.21,0,0,0-.58,4.46,1.5,1.5,0,0,0,3,0Z"/><path class="cls-2" d="M563.33,415.29c-.4,2,.56,3.57,1.92,5,2.36,2.46,5,4.67,7.61,6.92.32.29.79-.17.48-.48q-2.52-2.36-5.07-4.66c-1.85-1.68-4.84-3.69-4.35-6.61.07-.38-.52-.56-.59-.16Z"/><path class="cls-2" d="M563.84,404.44a34.45,34.45,0,0,0,.21,11.28c.07.43.76.32.75-.1-.09-3.67-.18-7.33-.28-11a.39.39,0,0,0-.77-.1,26.25,26.25,0,0,0,1.7,17.3c.21.45,1,.13.81-.34A33.75,33.75,0,0,1,563.84,406c0-.44-.58-.46-.71-.1-1.3,3.59-.55,7.34.22,11l1-.27a37.08,37.08,0,0,1-1-11.59.57.57,0,0,0-1.12-.16c-.83,4.3.22,8.26,1.53,12.36a.58.58,0,0,0,1.11-.31,35.87,35.87,0,0,1,0-10.6l-1.09-.3c-.83,5.64-1.44,12.21,3.65,16.06.45.34,1-.41.6-.79-4.44-4-4-9.58-3.16-15,.11-.71-1-1-1.09-.3a38,38,0,0,0-.07,11.21l1.11-.31c-1.23-3.86-2.33-7.66-1.54-11.74L562.2,405a37,37,0,0,0,1.15,11.86.51.51,0,0,0,1-.27c-.79-3.59-1.26-6.83-.5-10.49l-.72-.1a36.37,36.37,0,0,0,2.3,15.76l.8-.35a26.4,26.4,0,0,1-1.7-16.65l-.77-.1c.09,3.67.19,7.33.29,11l.76-.11a38.93,38.93,0,0,1-.34-11c0-.35-.56-.43-.61-.08Z"/><path class="cls-2" d="M590.27,364.86a21.44,21.44,0,0,0-7.14,11.39c-1,3.85-2.28,10.55-.83,14.34,3.05,8,10.82-5.3,12.53-7.9.64-1-.92-1.87-1.56-.91-1.62,2.47-2.89,5.48-5.07,7.54-4.82,4.54-4.44-2.58-4.33-5.43.27-6.81,2.24-13.32,7.67-17.76.9-.73-.38-2-1.27-1.27Z"/><path class="cls-2" d="M589.62,367.51c4.26-5.55,10.58,1.43,9.55,6.54-.23,1.13,1.5,1.61,1.73.48,1.48-7.28-7.33-15.11-12.83-7.93-.7.92.86,1.82,1.55.91Z"/><path class="cls-2" d="M602.4,377.66c-3.09,1.63-4.34,5.45-5.75,8.46a45.87,45.87,0,0,0-4.12,12.13c-.5,3.24.22,11.12,5.3,7.29,3.47-2.6,5.95-7.41,8.56-10.83,2-2.6,6.55-6.6,7-10,.8-6-8-8-12.15-6.79a.9.9,0,0,0,.48,1.73c2.89-.82,8.07-.43,9.38,3.08,1,2.72-1.25,4.68-2.64,6.54l-8.7,11.64c-.8,1.09-1.61,2.17-2.44,3.24q-5.12-1.82-3.33-6.32a35,35,0,0,1,1.6-5.68c1.41-4,3.59-11.1,7.31-13.6a.49.49,0,0,0-.5-.85Z"/><path class="cls-2" d="M613.06,388.75a23,23,0,0,0-8.2,7.25c-1.68,2.3-4.58,6.36-3.63,9.44.72,2.35,3.19,2.59,5.12,1.55s3.27-2.6,5.06-3.65c1.18-.69,2.65-2,4-1.19s1.07,2.34,1.49,3.7c.25.78,1.55.69,1.48-.2-.12-1.68-.08-4.71-1.82-5.6-2.13-1.08-5.71,1.56-7.34,2.68-1.24.86-5.95,5.58-6.23.39-.08-1.42,1.71-3.81,2.44-5,2.21-3.49,5.17-6,8.32-8.57.49-.41-.13-1.08-.64-.83Z"/><path class="cls-2" d="M612,391.65c2-1,4.5-1.95,6.69-.69,2.79,1.6,2.66,5.09,2,7.67-.82,3.31-2.4,6.49-3.6,9.68-.38,1,1.21,1.41,1.6.44,1.92-4.84,6.17-12.06,2.83-17.16-2.31-3.54-7.25-3.4-10.09-.64-.38.37.1.92.54.7Z"/><path class="cls-2" d="M616.36,403.09c-.12,1-.5,7.31,2,5.69a1.67,1.67,0,0,0,.37-2.34,7.9,7.9,0,0,0-1.27-1.18,2.5,2.5,0,0,1-.74-2.65.68.68,0,0,0-1.31-.37,3.82,3.82,0,0,0,1,3.84,7.23,7.23,0,0,0,.69.55.62.62,0,0,1,.46.71c-.07-.38-.13-.77-.18-1.16-.12-1-.15-2.06-.17-3.09a.44.44,0,0,0-.87,0Z"/><path class="cls-2" d="M464.6,338.49c12.8,12.22,27.47,22.88,41.17,34.09s27.52,22.68,41.34,33.93c1,.85,2.54-.63,1.49-1.49-14.05-11.51-28.21-22.89-42.28-34.38-13.53-11-26.7-23.09-41-33.06-.55-.38-1.17.46-.7.91Z"/><path class="cls-2" d="M505.68,294.23c6.23-1.2,12.14-.18,15.36,5.9,2.79,5.25,2,11.61,1.51,17.29-1,11.81-2.58,23.5-1,35.35.25,1.88,3.26,1.91,3,0a111.7,111.7,0,0,1,0-24.86c.65-7.07,2.11-14.46,1.31-21.56-1.31-11.64-9.82-17.17-21-15-1.89.36-1.09,3.26.8,2.89Z"/><path class="cls-2" d="M469.18,340.08c-6.27-8.78-.65-20.31,5.25-27.76,1.19-1.5-.92-3.63-2.12-2.12-6.7,8.46-12.84,21.42-5.72,31.4,1.12,1.55,3.72.06,2.59-1.52Z"/><path class="cls-2" d="M465.05,337.07a111.35,111.35,0,0,0,51.26,16.62,283.29,283.29,0,0,1,31.15,3.4c10.13,1.75,19.91,4.75,29.95,6.83a1.12,1.12,0,0,0,.59-2.15c-17.27-6.78-37.53-9.09-55.93-10.18-9.8-.59-19.16-1.2-28.58-4.21-9.6-3.07-18.59-7.33-27.71-11.56a.72.72,0,0,0-.73,1.25Z"/><path class="cls-2" d="M518.56,294.57c9.17,9.12,18.66,17.82,27.38,27.39a371.2,371.2,0,0,1,25.42,31.23c.81,1.11,2.68,0,1.86-1.09-15.37-21.19-33.22-42.28-54.06-58.3-.45-.35-1,.39-.6.77Z"/><path class="cls-2" d="M565.5,419.8A234.21,234.21,0,0,0,600,447.1c.9.57,1.64-.8.82-1.4-11.74-8.68-23.11-17.55-34.28-27-.73-.61-1.77.38-1.06,1.06Z"/><path class="cls-2" d="M601.12,444.61l-.45-.16-.2,1.52a59.2,59.2,0,0,0,24.08-18.37c1.87-2.47,6.25-6.61,5.44-9.91-.41-1.71-2.22-2.87-3.43-4-2.59-2.43-5.21-4.82-7.82-7.23-1.2-1.11-3,.66-1.8,1.81l5.56,5.38c.89.86,3.83,2.73,4.21,4,1,3.24-5,9.23-7,11.57-5.7,6.73-13,10.43-20.24,15.09a1,1,0,0,0,.23,1.76l.67.22a.8.8,0,0,0,.79-.21l.5-.48c.47-.44,0-1.06-.57-1Z"/><path class="cls-2" d="M594.89,382.51c.44.35.87.72,1.28,1.1a4.14,4.14,0,0,0,1.37,1.1.78.78,0,0,0,1-.95,3.1,3.1,0,0,0-1.15-1.44,11.38,11.38,0,0,0-1.46-1.1c-.76-.49-1.73.71-1,1.29Z"/><path class="cls-2" d="M577.63,363.46a29.86,29.86,0,0,1,3.78,4.09c1,1.31,1.67,2.85,2.71,4.12.51.62,1.48-.06,1.29-.76-.91-3.36-4.25-6.52-6.91-8.57-.64-.49-1.46.58-.87,1.12Z"/><path class="cls-2" d="M572.66,353c-2.43,1.28-1.11,5.14,0,7A5,5,0,0,0,576,362.2c1.39.36,2.75.21,4.06,1a6,6,0,0,1,2.66,5.3.53.53,0,0,0,1.06,0,6.6,6.6,0,0,0-3.15-6.27,9.07,9.07,0,0,0-3.61-1,4.8,4.8,0,0,1-4-2.83c-.69-1.37-1.39-3.68,0-4.95.25-.23-.08-.61-.36-.46Z"/><path class="cls-2" d="M573.9,353.24c5.42-3.44,11.07.24,11.26,6.4.12,4-.77,8.22-1.25,12.21-.1.84,1.22.83,1.32,0,.62-5.41,3.22-13.94-.9-18.56a7.78,7.78,0,0,0-10.85-.6c-.3.26.09.76.42.55Z"/><path class="cls-2" d="M600.18,372.93a21.25,21.25,0,0,1-.74,7.61l.77.11c0-2.71,0-5.41,0-8.12a.43.43,0,0,0-.86,0c0,2.71,0,5.41,0,8.12a.39.39,0,0,0,.76.1,18.22,18.22,0,0,0,.6-7.9c0-.34-.63-.27-.61.08Z"/><path class="cls-2" d="M594.83,382.81a15.66,15.66,0,0,1,3.09-4.81.51.51,0,0,0-.72-.72,39.41,39.41,0,0,0-4.35,5l.9.52q1.34-2.58,2.65-5.19l-.9-.52-1.72,3.77c-.21.47.41,1.09.79.61l2.69-3.39-.84-.35-.2.6c-.4.47.28,1.16.69.69a1.8,1.8,0,0,0,.49-1.29c0-.39-.56-.68-.83-.34l-2.71,3.36.79.62,1.75-3.76c.28-.59-.59-1.12-.9-.52q-1.34,2.59-2.65,5.19a.52.52,0,0,0,.9.52,39.26,39.26,0,0,1,4.17-4.76l-.72-.72a10.94,10.94,0,0,0-3.05,5.25c-.08.39.5.69.68.28Z"/><path class="cls-2" d="M611.62,391.51c2-2,5.08-3.16,7.75-1.59s3.25,4.84,2.49,7.55a.34.34,0,0,0,.61.26,6.63,6.63,0,0,0-2.48-8.87c-2.94-1.71-7.27-.84-9,2.19a.39.39,0,0,0,.61.46Z"/><path class="cls-2" d="M577.32,352.06c-2.33,1-7,2.13-6.67,5.58.25,2.84,3.42,3.52,5.69,3.78v-1.06c-1.15-.11-3-.37-3.92-1.16-2.11-1.84-2-3.18.05-4.79a13.9,13.9,0,0,1,5.43-2.32l-.47-1.1c-1.87,1-3.82,1.89-5.64,3-.56.34-1.42.63-1.73,1.29-.82,1.73,1.35,3,2.27,3.91l.83-.83-1.92-1.57a.58.58,0,0,0-.91.7,6,6,0,0,0,4.09,3.53c.6.18,1-.75.43-1-1.64-.78-2.26-.89-2-2.91s1-2.37,2.57-3.33c3.22-1.95,7.79-1.87,9.33,2.18s-.36,9.76-1.06,13.93c-.11.65.89.94,1,.28.94-5.46,4.92-18.11-4.15-19-3.15-.3-7.47,1.67-9.15,4.44-1.55,2.55.7,4.31,2.89,5.36l.43-1a4.53,4.53,0,0,1-3.39-3l-.91.71,1.91,1.58c.57.47,1.36-.28.83-.83a4.13,4.13,0,0,0-.83-.84q-1.73-2.33.7-2.82c1.14-1.14,3.58-1.9,5-2.66a.6.6,0,0,0-.46-1.1c-2.6.67-8,2.41-8.32,5.8-.33,3.16,4.83,4.4,7.08,4.69.59.08.74-.95.14-1a17.48,17.48,0,0,1-2.16-.4q-3-4.71.42-5.73c.87-.64,2-.91,3-1.54a.38.38,0,0,0-.39-.65Z"/><path class="cls-2" d="M573.68,360.7c1.82.89,3.84,1.28,5.6,2.36a9.27,9.27,0,0,1,3.6,4.36c.21.47,1.06.26,1-.26-.57-4.41-6.08-6.86-10-7.22a.41.41,0,0,0-.2.76Z"/><path class="cls-2" d="M562.55,394.08a82.29,82.29,0,0,0-.06,17.75l1.1-.15a37.26,37.26,0,0,1-1.35-11c0-.74-1.14-.74-1.16,0a94.83,94.83,0,0,0,.37,11.8c.07.82,1.32.86,1.3,0q-.07-6.42-.17-12.86a.69.69,0,0,0-1.37,0,52.39,52.39,0,0,0,2.52,18.73.68.68,0,0,0,1.32-.36,68.19,68.19,0,0,1-1.88-11.88.69.69,0,0,0-1.37,0,55.5,55.5,0,0,0,1.32,12.39c.2.91,1.59.52,1.39-.39-.54-2.46-1.06-4.93-1.54-7.41-.13-.73-1.29-.55-1.28.18a47.1,47.1,0,0,0,.61,6.82c.12.78,1.49.61,1.39-.19l-.77-6.3-1.46.19L562,415a.77.77,0,0,0,1.28.34,1.58,1.58,0,0,0,.5-1.49h-1.54a48,48,0,0,0,2.31,10.59c.32.95,1.83.54,1.51-.41a46.6,46.6,0,0,1-2.28-10.18c-.11-1-1.64-1-1.54,0l-.16.57,1.39.18-.57-3.57c-.12-.82-1.56-.63-1.45.2l.83,6.3,1.4-.18a52.24,52.24,0,0,1-.67-6.45l-1.29.17c.51,2.48,1,5,1.41,7.45l1.39-.39a53.26,53.26,0,0,1-1.34-12H561.8a70.41,70.41,0,0,0,1.93,12.24l1.32-.36a52,52,0,0,1-2.47-18.37h-1.37l.24,12.86h1.3a116.06,116.06,0,0,1-.51-11.8h-1.16A41.58,41.58,0,0,0,562.51,412c.15.6,1.17.5,1.1-.15a110.74,110.74,0,0,1-.33-17.75c0-.47-.68-.45-.73,0Z"/><path class="cls-2" d="M540.85,540.12c-8.32-5.56-15.75,3.07-19.9,9.44-5.49,8.41-5.66,19.15-5.64,28.87,0,18.81,4,41.48-6.09,58.52-5.07,8.61,8.21,16.33,13.36,7.81,9.42-15.56,8.11-32.65,7.55-50.08-.29-9.37-1-19,.13-28.3.68-5.37,3.4-14.39,9.23-15.85,5-1.25,5.27-7.8,1.36-10.41Z"/><path class="cls-2" d="M544.71,539.13A219.8,219.8,0,0,0,535,570.48c-2.2,9.3-3.9,19.29-2.55,28.84.11.81,1.45.62,1.42-.19a100.2,100.2,0,0,1,3.7-30.85c2.61-9.63,6.08-19.1,8.13-28.87a.52.52,0,0,0-1-.28Z"/><path class="cls-2" d="M285.31,480c-5.46,12.24-8.3,26-12.2,38.83-4.2,13.79-8.57,27.51-13.21,41.16q-13.77,40.47-29.6,80.2c-1.34,3.37,4.1,4.84,5.42,1.5q15.69-39.76,28.92-80.39,6.54-20.1,12.64-40.32c3.91-13.07,9-26.73,10.52-40.31a1.34,1.34,0,0,0-2.49-.67Z"/><path class="cls-2" d="M540.33,666a40.38,40.38,0,0,1-20.07,14.9c-9.9,3.33-20.1-.37-29.32-4.06-1.08-.43-1.55,1.31-.48,1.73,10.13,4.06,21.08,7.7,31.77,3.51A42.8,42.8,0,0,0,541.88,667c.68-.94-.88-1.84-1.55-.91Z"/><path class="cls-2" d="M208.36,644.18c5.17.26,10.14-.68,15.26-1.18,5.78-.56,11.64.13,17.42.55,11.47.83,22.93,1.9,34.39,2.88,22.76,2,45.86,3.86,68.7,2.15,22.05-1.64,44.18-2.47,66.26-3.68a33.42,33.42,0,0,1,8.05.38c2.38.44,4.78,1.92,7.06,2.26,3.56.52,8.33-1.64,11.9-2.33A162.78,162.78,0,0,1,471,642.39,175.46,175.46,0,0,1,508.47,647c10.71,2.54,20.62,7,30.58,11.52,1.74.79,3.27-1.8,1.51-2.59-3.77-1.71-7.4-3.7-11.2-5.33-4.51-1.93-9.32-3-14-4.59-9.68-3.41-20.22-4.84-30.4-5.83a172,172,0,0,0-33.42,0c-5,.5-10,1.21-15,2.17-2.4.46-4.78,1.11-7.18,1.56-3,.57-4.2.09-7.06-.75-9.8-2.9-20.81-.53-30.83,0-11.41.57-22.83.93-34.23,1.58a518.52,518.52,0,0,1-70.07-.29c-13.12-1-26.21-2.28-39.31-3.32-6.81-.54-13.77-1.4-20.6-1.31-6.38.09-12.55,1.74-19,1.42-1.93-.09-1.93,2.91,0,3Z"/><path class="cls-2" d="M516,683.82c1.63,1.61,1.72,4.52-.74,5.2a8.89,8.89,0,0,1-3,0c-3.67-.28-7.34-.74-11-1.26-5.92-.86-11.73-2.12-17.57-3.37a.89.89,0,0,0-.47,1.72,158,158,0,0,0,17.53,3.51c4.63.69,10,2,14.62,1.39,5.51-.73,5.85-5.52,1.42-8.24a.68.68,0,0,0-.82,1.07Z"/><path class="cls-2" d="M514.4,689.83q1.15,4.42-1.76,4.88a8,8,0,0,1-1.93.35,38.17,38.17,0,0,1-4.53.32c-3.05.09-6.11,0-9.16-.2-6.6-.47-12.86-1.9-19.3-3.3a.86.86,0,0,0-.45,1.65A75.39,75.39,0,0,0,511,696.87c2.42-.37,5.66-1.11,6.62-3.7.88-2.38-.55-3.87-2.67-4.56a.67.67,0,0,0-.51,1.22Z"/><path class="cls-2" d="M486.83,695.39c6.83,6.76,16.93,7.8,26.09,8.07,2.52.08,5,0,7.55,0,2.33-.05,8.16-1.27,3.58,2.35-5.44,4.31-14.75,5-21.36,4.68-28.18-1.16-50.79-22.88-79.18-23.42a1.16,1.16,0,0,0,0,2.32c22.34.44,40.73,14.13,61.62,20.06,8.59,2.44,17.82,3.8,26.72,2.45,4.65-.7,17-3,16-9.68a1,1,0,0,0-.95-.73c-13.14-.53-28.24,1.51-39.36-7.06-.57-.44-1.24.49-.75,1Z"/><path class="cls-2" d="M268.6,707c-16.12-.28-32.22,1.53-48.34.41a95.93,95.93,0,0,1-23.58-4.37c-6.78-2.24-14.09-7.27-21.44-6.44-2.11.24-2.78,3.18-.52,3.86,3.95,1.2,7.83,2,11.69,3.56a120.78,120.78,0,0,0,11.56,4.2,104.66,104.66,0,0,0,21.4,3.47c16.35,1.1,32.93-.22,49.23-1.55a1.57,1.57,0,0,0,0-3.14Z"/><path class="cls-2" d="M309.54,400.68l-.09,0a.6.6,0,0,0-.72.73c1.85,6.26,9.15,10.37,13.63,14.54,10.06,9.38,20.94,18.25,33.24,24.53s26.39,9.5,40.17,6.09A43.59,43.59,0,0,0,425,422.78c7-15.24,3.39-32.61-4.65-46.67a1.42,1.42,0,0,0-2.45,1.43c9.77,16.69,12.32,37.87-.94,53.51-11.16,13.17-29.51,17.23-45.85,13.1C354,439.82,338.9,428.36,326,416.68c-3.35-3-6.56-6.4-10.21-9.07-2.39-1.75-4.78-3.85-6-6.69l-.67.87.09,0a.59.59,0,0,0,.31-1.13Z"/><path class="cls-2" d="M247.73,596.56l1.84,1,1.16-1.52c-20.13-7.25-41.54-18.4-63.2-10.33-1.17.44-1.12,2.44.32,2.34a114.61,114.61,0,0,1,55.3,10.06l.95-2.24a391.84,391.84,0,0,0-49.3-13.58l-.34,2.49a152.64,152.64,0,0,1,55.2,15.5l1-2.39c-19.19-5.57-37.52-15.85-58-15a1.31,1.31,0,0,0,0,2.61,238.59,238.59,0,0,1,26.25,5c7.79,2,15.3,4.9,23.06,6.86a1.3,1.3,0,0,0,.69-2.51c-8.37-2.12-16.45-5.27-24.87-7.31a243.54,243.54,0,0,0-25.13-4.64v2.61c20.25-.88,38.39,9.37,57.34,14.87,1.39.4,2.36-1.73,1-2.4a155.45,155.45,0,0,0-56.53-15.78,1.27,1.27,0,0,0-.33,2.49,389.56,389.56,0,0,1,49.31,13.51c1.3.45,2.22-1.67.95-2.25a117,117,0,0,0-56.54-10.32l.31,2.34c21.15-7.93,42.27,3.14,62,10,1.07.38,1.57-1,1-1.72a2.85,2.85,0,0,0-3.64-1.12c-.73.21-.63,1.46.18,1.38Z"/><path class="cls-2" d="M260.89,553.26c-11.43-5.07-24-7.53-36.38-8.65-1.41-.13-1.75,2.24-.34,2.48,12.45,2.14,24.87,4.4,36.66,9.1,1.37.55,2.34-1.76,1-2.4a105,105,0,0,0-38.36-10.21c-1.46-.1-1.82,2.33-.35,2.58,12,2,24,4.1,35.07,9.22a1.31,1.31,0,0,0,1.32-2.27,22.87,22.87,0,0,0-9.95-3.82c-1.48-.2-2.17,2-.63,2.31a24.79,24.79,0,0,1,9.26,3.78l1.32-2.27c-11.32-5.22-23.47-7.44-35.7-9.48l-.34,2.58a101.15,101.15,0,0,1,37,9.85l1-2.4c-11.78-4.7-24.23-6.91-36.68-9l-.33,2.49c12.33,1.08,23.9,4.15,35.67,7.81,1,.31,1.69-1.26.71-1.69Z"/><path class="cls-2" d="M266,541.24l0,.12.28-.49a1.88,1.88,0,0,0-.45.69,3.59,3.59,0,0,0-.08.35l-.17.82a1.52,1.52,0,1,0,2.94,0l-.18-.82c0-.11,0-.24-.07-.35a2,2,0,0,0-.45-.69l.28.49,0-.12a1.06,1.06,0,0,0-2,0Z"/><path class="cls-2" d="M264.11,552.16a90.45,90.45,0,0,0,2.64,24.14c2,7.61,5.59,14.76,6.77,22.59,1.13,7.53,1.51,17.13-.75,24.46-2,6.34-7.51,10.49-9.3,17-.76,2.8,3.62,4,4.34,1.2,1.67-6.43,7.19-10.68,9.05-17.07,2.1-7.18,1.7-16,1-23.31-.74-7.68-3.72-14.52-6.07-21.78a89.47,89.47,0,0,1-4.12-27.23,1.78,1.78,0,0,0-3.56,0Z"/><path class="cls-2" d="M309.73,409.66l-.09,0c-.44-.17-.83.32-.73.72,1.69,6.52,9.83,11.1,14.38,15.34,10.68,9.93,22.15,19.36,35.15,26.11s27.84,10.41,42.53,7.13a46.83,46.83,0,0,0,32-24.83c8-16.44,4.15-35.47-4.61-50.74a1.42,1.42,0,0,0-2.45,1.43c7.84,13.35,12,29.84,6.41,44.84-5.17,14-17.64,23.88-32,27.12-28.3,6.41-54.9-13.23-74.49-31.3a119.82,119.82,0,0,0-9.73-8.56,22.73,22.73,0,0,1-2.11-1.48,20.79,20.79,0,0,1-2.53-3.21,5.76,5.76,0,0,0-.71-1c-1.15-1,.28,0-1.38-.44a.59.59,0,0,0,.31-1.13Z"/><path class="cls-2" d="M210.21,581.82,209,579.43a3.69,3.69,0,0,0-5.77-.74,6.91,6.91,0,0,0-1.75,6.64c.55,3,4.39,3.4,6.35,1.68a59.11,59.11,0,0,0,11.95-15.11l-7.61-4.44c-1.49,3.1-3,6.2-4.5,9.3a4.52,4.52,0,0,0,7.8,4.56,80.09,80.09,0,0,0,8.16-15l-9-2.5a54.91,54.91,0,0,1-4.71,12l8.08,4.71q5.26-11.94,11.58-23.36l-8.5-3.58-8.85,22.66,8.94,2.46c2.32-8.94,4.76-18.12,11.82-24.54l-7.69-4.48a86.57,86.57,0,0,1-8.75,23.94l8.24,3.48a60.91,60.91,0,0,1,11.05-19.78l-7.3-4.26A91.55,91.55,0,0,1,220,574.8l7.93,3.34a67.35,67.35,0,0,1,11.24-21.65l-7.35-3a35.12,35.12,0,0,1-5.58,20.12l7.82,3.3A93,93,0,0,1,242,557l-6.68.86c1,1.18-2,9.12-2.39,10.34a90.34,90.34,0,0,1-4.25,11.37l7.72,3.26a105.79,105.79,0,0,1,4.43-13.11c.85-2.05,1.78-4.06,2.77-6,.54-1.08,1.1-2.14,1.67-3.19,1.46-1.47,1.18-2.07-.82-1.8l-1.93-2.51c.32,1.23-1.24,4.48-1.62,5.73q-.85,2.8-1.74,5.59c-1.38,4.34-2.83,8.65-4.3,13s5.6,7.51,7.6,3.21a169.26,169.26,0,0,1,12.6-22.8h-6.83c1.4,2-3,10.12-3.84,12.26l-4.93,13.44c-1.62,4.39,5.65,7.52,7.62,3.21L259.83,562l-7.78-3.28A90.42,90.42,0,0,1,243,587.3l7.23,4.23a185.39,185.39,0,0,0,10-28.1l-8-2.19a56.35,56.35,0,0,1-3.77,13.09c-1.37,3.13-3.12,7.65-5.67,10-.55,1.5-1,1.73-1.29.66-1.11-.46-2.23-.88-3.37-1.27-1.7-.58-3.44-1.07-5.19-1.48a63.89,63.89,0,0,0-13.78-1.54c-5.42,0-6.95,8.76-1.32,9.73,6.13,1.06,12.29,2,18.44,2.89l1.34-9.85a16.49,16.49,0,0,1-11.43-3.49L224,588.32a35.5,35.5,0,0,1,8.36-.67,30.76,30.76,0,0,1,3.95.42c.59.1,1.17.22,1.74.37,1,.2,1.15.25.45.16L237,585.05l-.11.91,1.47-3.55c1.17-1-2.47-.76-3.34-.9a60.77,60.77,0,0,1-6-1.28,62.62,62.62,0,0,1-11-4.07l-3.89,9.23,8.4,2.76,1.35-9.94c-1.56-.09-5.45-.11-6.61-1.5l1.49,3.58c0-.45,4.08-3.67,4.76-4.23a37.28,37.28,0,0,1,6.82-4.33,36.57,36.57,0,0,1,15.55-3.67c5.54-.12,7.08-8.65,1.34-9.94a25.69,25.69,0,0,1-12.67-6.83L231,560a33.1,33.1,0,0,1,18.78,3.27l4-9.45a64.08,64.08,0,0,1-14.87-5.57l-1.24,9.48a14.91,14.91,0,0,1,12.4,3.52l5-8.68a72.9,72.9,0,0,1-12.36-3.78L241.33,559a14.92,14.92,0,0,1,10.07,3.32c5.32,4,10.45-5,5.2-8.9a24,24,0,0,0-15.27-4.77c-6.19.15-6.57,8-1.38,10.17a74.24,74.24,0,0,0,12.36,3.82c4.7,1,9.21-5,5.05-8.68a26,26,0,0,0-22.5-6.19c-4.4.79-5,7.5-1.24,9.49A75,75,0,0,0,251,563.81c5.48,1.32,9.41-6.72,4-9.45a42.32,42.32,0,0,0-24-4.57c-4.14.45-7.08,5.4-3.62,8.73a35.8,35.8,0,0,0,17.22,9.36l1.35-9.94a47.26,47.26,0,0,0-30.72,12c-3.4,3-8.51,7.88-5.85,12.91,2.45,4.64,10,5.23,14.56,5.5,5.91.35,6.57-8.24,1.34-9.94l-8.4-2.75c-5.37-1.75-9.11,6.75-3.9,9.23a73.23,73.23,0,0,0,17.67,6c4.59.88,12,2.79,15.23-1.91s-.57-9-5.17-10.25c-6.33-1.69-13-1.37-19.39-.11-3.49.69-5.1,6.07-2.21,8.38a27.07,27.07,0,0,0,18.52,6.43c5.35-.2,7.17-9,1.33-9.85-6.59-1-13.18-2.06-19.79-3v9.91a53.15,53.15,0,0,1,18.23,2.55c4.32,1.41,7.79,2,11.08-1.7,6.62-7.39,10.17-18.41,11.72-28,.83-5.12-6.55-7.44-8-2.19A170.54,170.54,0,0,1,243,587.3c-2.17,4.82,4.68,9.08,7.23,4.23a94.17,94.17,0,0,0,10-30.56c.61-4.27-5.6-8.12-7.78-3.28l-12.57,27.87,7.62,3.21,6.63-18.89c1.47-4.17,3.83-8.94.93-13a4,4,0,0,0-6.83,0,214.06,214.06,0,0,0-12.95,22.59l7.6,3.21c2.6-7.34,5.15-14.77,7.23-22.27,1.13-4.12,1.2-10.12-4.72-10-5.45.09-7.89,6.59-9.85,10.65a115.36,115.36,0,0,0-7.29,19.54c-1.23,4.47,5.69,7.73,7.73,3.26a103.32,103.32,0,0,0,6.3-17.65c1.27-5.14,2.62-9.94-.95-14.34-1.72-2.13-5.47-1.36-6.68.86a103.3,103.3,0,0,0-8.91,21.88c-1.32,4.76,5.25,7.36,7.82,3.3a43.47,43.47,0,0,0,6.8-24.44c-.07-3.37-4.91-6.14-7.35-3a78.92,78.92,0,0,0-13.51,25.44c-1.47,4.67,5.56,7.65,7.92,3.34a104.8,104.8,0,0,0,9.45-23.82c1.06-4-4.35-7.7-7.3-4.26A72.69,72.69,0,0,0,216,574.67c-1.7,4.87,5.78,7.89,8.25,3.48a91.9,91.9,0,0,0,9.84-26,4.65,4.65,0,0,0-7.7-4.48c-8.25,7.47-11.51,18.14-14.25,28.59-1.54,5.89,6.8,7.89,8.94,2.46L230,556c1.94-4.95-6-8.11-8.5-3.58q-6.35,11.41-11.63,23.34c-2.37,5.37,5.16,10.13,8.08,4.71a66.28,66.28,0,0,0,5.67-14.17c1.61-6-6.83-7.93-9-2.5a72.77,72.77,0,0,1-6.92,12.94l7.8,4.56q2.15-4.71,4.31-9.42c2.35-5.1-5.2-9.59-7.61-4.44a55.69,55.69,0,0,1-9.72,14.17l6.36,1.68.19-.18h-6.34l1.42,2.29c2.43,3.91,8.25.47,6.15-3.6Z"/><path class="cls-2" d="M258.77,562.34a10.06,10.06,0,0,0,2.3-1.14c3.78-2.57.43-8.52-3.62-6.19-6.65,3.82-9.61,11.45-11.62,18.55a103.82,103.82,0,0,0-2.56,11.93c-.56,3.58-1.77,7.77-.52,11.25,1.07,3,5.18,3.85,6.94.91s1.51-6.22,1.89-9.49A72.79,72.79,0,0,1,253.33,578c1.81-6.9,5.71-12,9-18.08l-6.67-1.81a10.61,10.61,0,0,0,.26,2.64,2.31,2.31,0,0,0,2.83,1.6Z"/><path class="cls-2" d="M571.48,636.62a10.63,10.63,0,0,0,1.45-1.74l-8.55-1.12c6.51,34.63,5.16,69.26-6.85,102.59l9.87,2.72a238.78,238.78,0,0,0,4.67-102.62c-1.08-6.35-10.74-3.65-9.67,2.67a227.21,227.21,0,0,1-4.87,97.23c-1.75,6.45,7.66,8.84,9.87,2.72,12.3-34,15.47-72.68,6-107.79-1.09-4-6.4-4.41-8.55-1.12l-.38.59c-2.13,3.26.78,6.62,4,7a4,4,0,0,0,3-1.13Z"/><path class="cls-2" d="M484.43,710.71c-5.1,3.51-9.06,9-13.34,13.42-4.49,4.66-8.82,9.46-13.35,14.07l10,10c8.36-9,16.77-18.33,21.63-29.78,3.57-8.39-7.43-15.51-12.55-7.34A100.45,100.45,0,0,1,448.28,741c-7.73,5.27-.42,17.95,7.38,12.63a115,115,0,0,0,33.69-35.2l-13.28-5.6c-4,9.74-11.37,17.69-18.33,25.39-6.07,6.71,3.65,16.59,10,10,4.69-4.89,9.38-9.82,13.64-15.09,4-5,8.83-10.1,11.33-16,1.89-4.5-4.44-9-8.26-6.35Z"/><path class="cls-2" d="M340.22,703.87l2,10.45c.47,2.43,4.15,1.39,3.71-1L344,702.83c-.45-2.49-4.27-1.44-3.8,1Z"/><path class="cls-2" d="M341.85,714.64c-.14,2-.27,4.07-.41,6.1s-.68,4,0,5.9a2.56,2.56,0,0,0,4.88,0c.7-1.83.17-4,0-5.9s-.27-4.06-.41-6.1a2.06,2.06,0,0,0-4.12,0Z"/><path class="cls-2" d="M344.33,693.81c-.15,11.66.08,23.3.76,35,.2,3.46,5.41,3.52,5.42,0l.05-21c0-3.39,1.54-10.61-1.94-12.81a3.16,3.16,0,0,0-4.27,1.12,5.67,5.67,0,0,0-.74,2.68c-.36,3.6,5.51,4.35,6.3.85.34-1.56.69-3.11,1-4.67l-6.92-.94q.92,26.65,1.1,53.35c0,4.77,7.39,4.78,7.41,0,.05-17.81-.43-35.56-1.47-53.35-.26-4.58-6.61-4.48-7,0-.16,1.58-.27,3.17-.38,4.76H350l-.28.47-4.27,1.12c-1.83-.81-.86,4.25-.84,5.5l.15,7.66.31,15.31h5.42q-1.39-17.44-2-35c-.09-2.71-4.19-2.73-4.22,0Z"/><path class="cls-2" d="M339.88,694c-.4,12.58-.51,25.16-.93,37.74-.16,4.43,6.32,4.24,6.77,0,.75-7.11,1.29-14.25,1.89-21.37h-7l-1.2,30.89c-.18,4.58,7,4.58,7.12,0l1.08-30.89c.16-4.56-6.64-4.44-7,0-.58,7.12-1.23,14.24-1.66,21.37h6.77c-.13-12.6-.41-25.18-1.43-37.74-.23-2.79-4.31-2.87-4.41,0Z"/><path class="cls-2" d="M539.74,658.68l-.86,1.26,1.69.71.29-.52-1.47-.84c-.61,4.58-9.56,5.08-12.77,4.89a44.48,44.48,0,0,1-11.64-2.7c-6.4-2.17-12.58-4.51-19.43-4.38a1.17,1.17,0,0,0-.59,2.16c7.29,4.69,16.35,13.06,25.55,13.08,4,0,11.89-2.61,12.46-7.28.2-1.67-2.44-1.67-2.63,0s-3.8,3-5.11,3.62c-4.34,2-8.56,1-12.65-1.1-5.71-2.94-11-6.86-16.45-10.33l-.58,2.17c10.39-.22,19.31,5.76,29.47,6.85,5,.53,15.82-.23,16.32-7a1,1,0,0,0-1.47-.85c-.8.6-.94.7-1.09,1.72s1.13,1.69,1.69.71l.77-1.31a.87.87,0,0,0-1.5-.88Z"/><path class="cls-2" d="M539.87,658.08v.07c-.29,2.06,2.77.78,1.5-.4l-.05,0c-.43-.39-1.35-.3-1.44.38Z"/><path class="cls-2" d="M540.25,668.35a13.75,13.75,0,0,0,2.53-4.78.33.33,0,0,0-.61-.25q-2.61,4.14-5.2,8.29c-.23.37.33.82.61.47a26.71,26.71,0,0,0,5-8.86c.14-.45-.57-.76-.77-.32a40,40,0,0,1-4.65,7.67c-.32.42.35.87.7.54,3.91-3.57,6.33-8.22,5.72-13.61a.56.56,0,0,0-.7-.53,19.12,19.12,0,0,1-4.76.67l.17,1.25c1.87-.56,5.53-1.91,5.07,2.34-.11,1.06-1.47,2.69-2,3.59a65.61,65.61,0,0,1-5.7,7.56c-.49.59.3,1.42.85.86a44.19,44.19,0,0,0,5.14-6.43c1.23-1.83,3.15-4.28,3.48-6.54.6-4.14-4.74-3.34-7.14-2.6-.67.2-.58,1.28.16,1.24a20.19,20.19,0,0,0,5-.88l-.7-.53c.68,5.15-1.52,9.54-5.24,13l.7.54a40,40,0,0,0,4.6-7.7l-.76-.32a25.45,25.45,0,0,1-4.73,8.53l.62.47q2.55-4.17,5.09-8.35l-.61-.25a13.25,13.25,0,0,1-2.35,4.59c-.2.27.26.62.47.36Z"/><path class="cls-2" d="M472.59,336.34a13.07,13.07,0,0,1-4.32-5.21c-.2-.43-.81-.05-.63.37a24.25,24.25,0,0,0,8.82,10.7c.35.25.8-.32.46-.6-4.13-3.32-9.22-7.45-9-13.34s4.92-7.33,9.89-5.58a8.1,8.1,0,0,0,2.53.88c2.38,0,1.95-1,3.31-2.25,8.71-7.83,6.21-1.72,12.28-.25a3.68,3.68,0,0,0,3.81-.82c2.42-2.29,3.53-5,7.72-4,3.15.72,5,3.29,6.06,6.12,1.42,3.76.47,8,2.06,11.66,1.76,4.06,4.39,6.54,4.71,11.35,0,.87,1.42.87,1.36,0a17.89,17.89,0,0,0-2-7.54c-.64-1.16-1.57-2.12-2.23-3.27-1.48-2.58-1.19-5.24-1.54-8.06-.55-4.35-2.35-9.25-6.75-11-3.49-1.41-6.31-.37-8.91,1.95a5.24,5.24,0,0,0-.85,1.4c-2.89.95-5.21.5-7-1.33-.93-.46-1.41-1.15-2.47-1.49a5.47,5.47,0,0,0-4.3.42,5.76,5.76,0,0,0-2,1.82c.2-.31-1.27,3-.91,2.7-2.67,2.27-5.48-.32-8.12-.5-3.75-.26-6.85,2.95-7.43,6.45-.84,5,2.72,10.41,6.68,13.18,3.34,2.33-.32-1.13-1-1.89-.12-.13-3.83-5.62-3.88-5.61-1.53.1,2.67,3.82,3.39,4.33.33.23.63-.31.31-.54Z"/><path class="cls-2" d="M505.61,293.05c5.11,2.15,9.22,5.62,10.75,11.11a.9.9,0,0,0,1.74-.48c-1.72-6.14-6.29-10-12-12.37-1.06-.45-1.53,1.29-.48,1.74Z"/><path class="cls-2" d="M474.93,311.5c2.09-5.84,2.41-12.54,5.54-18,5.48-9.51,17.41-5.76,24.09.08.87.76,2.15-.51,1.27-1.28-5.75-5-16.08-9.54-23.26-4.3-6.75,4.93-6.82,15.83-9.38,23-.39,1.09,1.35,1.57,1.74.48Z"/><path class="cls-2" d="M482.14,319.68a13.54,13.54,0,0,1-6.94-8.17c-.36-1.1-2.1-.63-1.74.48a15.37,15.37,0,0,0,7.77,9.25c1,.5,1.95-1.05.91-1.56Z"/><path class="cls-2" d="M464.05,332c-.62,3.16.95,5.37,2.08,8.17.34.85,1.74.47,1.38-.38-1.05-2.53-2.68-4.75-2.33-7.63.08-.65-1-.79-1.13-.16Z"/><path class="cls-2" d="M463.69,332.94c.39,4.93,1.61,8.25,5.41,11.53s7.8,5.3,11.86,7.92c.8.52,1.6-.62,1-1.28-2.58-2.79-6.66-4.05-9.65-6.42a24.17,24.17,0,0,1-4.57-4.23c-1.69-2.24-2.26-5-2.76-7.69a.65.65,0,0,0-1.27.17Z"/><path class="cls-2" d="M523.75,305.05c-5.15-5-12-.5-17.09,2.12-4.81,2.48-10.5,6.62-9.19,12.65.32,1.47,2.57.85,2.25-.62-1.32-6.09,6.6-8.92,10.63-11,1.79-.92,3.52-2.39,5.48-2.92,2.57-.71,4.82.19,7.19,1a.76.76,0,0,0,.73-1.25Z"/><path class="cls-2" d="M513.12,640.76v-.6a.7.7,0,0,0-.69-.68c-.78-.05-1.18.41-1.71.93-.87.86-1.68,1.8-2.49,2.72s.44,2.08,1.26,1.26a8.52,8.52,0,0,0,2.11-3.52.91.91,0,0,0-1.51-.88l-3.21,3.37,1.51,1.17a22.36,22.36,0,0,0,2.39-4.57c.41-1.2-1.24-1.66-1.89-.8l-3.33,4.48,1.77,1c1.09-1.76,2.18-3.53,3.29-5.29.61-1-.85-2.15-1.62-1.25-1.45,1.69-3,3.34-4.34,5.09-.81,1,.55,2.52,1.49,1.5,1.5-1.65,2.88-3.42,4.31-5.13l-1.63-1.25q-1.62,2.65-3.27,5.3c-.71,1.15,1,2.06,1.77,1l3.34-4.47-1.88-.79a19.51,19.51,0,0,1-2.06,4.14c-.56.92.77,2,1.51,1.17l3.12-3.46-1.51-.87a6.39,6.39,0,0,1-1.62,2.74l1.26,1.26c.51-.61,1-1.21,1.52-1.83.27-.33,1.06-1.69,1.42-1.71l-.69-.69.06.6a.66.66,0,0,0,1.31,0Z"/><path class="cls-2" d="M520.48,643.11a11.41,11.41,0,0,1-2,4.13l1.61.94c.84-1.64,1.71-3.27,2.51-4.93l-2-.82a11.16,11.16,0,0,1-.71,2.46,11,11,0,0,0-1.06,2.25,1,1,0,0,0,1.39,1.07c1.52-.93,2.16-3.57,2.44-5.21.19-1.1-1.39-2-2-.83-.8,1.68-1.53,3.38-2.28,5.07a.93.93,0,0,0,1.61.94,8.71,8.71,0,0,0,1.55-4.91.59.59,0,0,0-1.16-.16Z"/><path class="cls-2" d="M493.85,713.27l.61-1.1a.72.72,0,0,0-1.24-.73c-.52.91-1,1.84-1.47,2.76a.85.85,0,0,0,1.47.86c.46-.63.87-1.29,1.3-1.94l-1.6-.94a33.53,33.53,0,0,1-1.83,3.39l1.64,1a20.52,20.52,0,0,1,2.46-4.16l-1.64-1c-.87,2-1.64,4-2.48,6l1.49.63q1.2-2.82,2.66-5.5l-1.66-.71a15.44,15.44,0,0,1-2.75,4.83l1.58.92c.49-1.6,1.46-3.17,1.5-4.88,0-1.4-.74-1.41-1.86-1.49l1,.73,0-.15-.1.76c.74-1.26.2-1.94-1-2.64a1.09,1.09,0,0,0-1.1,1.88,11.85,11.85,0,0,0,2.13.93l.59-2.14c-1.12-.26-2.18-.64-3.27-.18a1.15,1.15,0,0,0-.41,1.57c.58,1,1.9,1.35,3,1.71a1.1,1.1,0,0,0,.84-2,20.22,20.22,0,0,1-2.75-1.74l-.59,2.2a9.44,9.44,0,0,1,1.74.36,1.18,1.18,0,0,0,.91-2.15,4.71,4.71,0,0,0-2.43-.84,1.24,1.24,0,0,0-1.09.62c-.92,1.94,1.35,2.33,2.69,2.75v-2.4l-.23.09a1.25,1.25,0,1,0,1,2.29l.22-.1c1-.46.65-2-.3-2.28a9.44,9.44,0,0,1-1.63-.54l.58.76v.4l-1.21.93a3.84,3.84,0,0,1,1.52.47l.62-2.27a19.24,19.24,0,0,0-2.36-.45c-1.27-.16-1.46,1.62-.6,2.2a20.23,20.23,0,0,0,2.84,1.59l.84-2c-.42-.15-1.36-.35-1.57-.76l-.68,1.69a5.33,5.33,0,0,1,1.79.22c1.36.18,2-1.79.59-2.14a5.9,5.9,0,0,1-1.62-.67l-1.1,1.88a4.17,4.17,0,0,1,1,.53l-.46-.61.07.19.1-.77c-.28.51-.52.7-.36,1.34a1,1,0,0,0,1,.72c.25,0,.54-.08.79-.06l-.85-.48c0-.29-.05-.24-.06.14a3,3,0,0,1-.12.78,10.69,10.69,0,0,1-.36,1.09c-.29.81-.62,1.59-.86,2.42s1,1.67,1.58.92a18,18,0,0,0,3.16-5.68.91.91,0,0,0-1.66-.7,50.78,50.78,0,0,0-2.58,5.79c-.33.86,1.11,1.47,1.49.63.86-1.91,1.79-3.79,2.63-5.71a1,1,0,0,0-1.64-1,20.52,20.52,0,0,0-2.46,4.16,1,1,0,0,0,1.64,1,24.61,24.61,0,0,0,1.79-3.41c.48-1.07-1-2-1.6-.94a22.55,22.55,0,0,0-1.17,2l1.55.66a27.94,27.94,0,0,1,1.16-2.69l-1.31-.56c-.14.4-.28.79-.41,1.19a.61.61,0,0,0,1.11.47Z"/><path class="cls-2" d="M479.82,708.39l.21-.21c1-.65-.27-2-1-1a16.86,16.86,0,0,0-1.59,2.51l1.66.7a7.4,7.4,0,0,1,1.13-1.89l-1.57-1.2-1.4,2.47a1.05,1.05,0,0,0,1.82,1.06,10.81,10.81,0,0,1,1.38-2.11l-1.05.28.16,0-.76-1.32a4.3,4.3,0,0,1-.5,1.14c-.48,1,.85,2.31,1.69,1.3a9.14,9.14,0,0,0,1.31-2l-1.84-1.08a11.59,11.59,0,0,1-1.56,2.82l1.71,1a2.52,2.52,0,0,1,.45-.82l-.8.1.14.05-.62-.47.06.14-.1-.81c-.39,1.54-1.54,2.81-2,4.33a.91.91,0,0,0,1.51.88A12.24,12.24,0,0,0,480,711.4c.36-.74,1.07-1.73.65-2.57-1-2-2.65.5-3,1.51a1,1,0,0,0,1.71,1,13.38,13.38,0,0,0,1.95-3.19c.56-1.24-1.24-2.33-1.84-1.08a7.48,7.48,0,0,1-1,1.56l1.69,1.3a6.1,6.1,0,0,0,.72-1.66,1.09,1.09,0,0,0-.75-1.32c-1.53-.32-2.25,1.74-2.88,2.81l1.82,1.06,1.3-2.53a1,1,0,0,0-1.72-1,8,8,0,0,0-1.31,2.61c-.35,1.14,1.33,1.54,1.75.48a18.7,18.7,0,0,1,1.21-2.46l-1.17.15.12.12-.14-.51-.07.26c-.12.43.47.82.78.45Z"/><path class="cls-2" d="M494,711.35c.84,2.42-3.89,7.81-5.31,9.49-2.21,2.61-4.93,4.81-7,7.5-.62.79.19,2.26,1.19,1.54,2.34-1.67,17.57-16.74,12-19.19-.42-.18-1,.13-.86.66Z"/><path class="cls-2" d="M478.5,706.49c-3.32,4.38-5.63,11.13-6.34,16.55-.13,1,1.34,1,1.66.22,1-2.69,1.67-5.55,2.65-8.27a84.61,84.61,0,0,0,2.91-8.13.48.48,0,0,0-.88-.37Z"/><path class="cls-2" d="M372.09,355.78c2.3,5.23,5.1,7.92,9.82,11,5.41,3.48,9.32,8.48,14.07,12.73a.73.73,0,0,0,1-1,69.45,69.45,0,0,0-10.87-11.27c-1.8-1.42-3.78-2.54-5.69-3.81-3.38-2.27-5.11-4.85-7.41-8.13a.55.55,0,0,0-1,.55Z"/><path class="cls-2" d="M400.46,378.63a3.59,3.59,0,0,0-1.29.35,2.39,2.39,0,0,0-.63.51,2.76,2.76,0,0,0-.68,2.57,2.88,2.88,0,0,0,1.29,1.71,3.11,3.11,0,0,0,2.28.29l-.66.09h.05l.67-.09a1.78,1.78,0,0,0,.85-.44,2.57,2.57,0,0,0,.9-1.31,3.19,3.19,0,0,0-.22-2.6,4.21,4.21,0,0,0-.64-.82,3,3,0,0,0-2.86-.79,3.9,3.9,0,0,0-1.71,1,3.61,3.61,0,0,0-1,3.71,3.27,3.27,0,0,0,.8,1.43,2.93,2.93,0,0,0,5-2,2.8,2.8,0,0,0-2-2.71,2.56,2.56,0,0,0-1.95.26l-.51.4a2.43,2.43,0,0,0-.66,1.11v0l.66-1.13,0,0,.52-.41,0,0,.64-.27h0l.72-.1-.92.14h1.43l.67.28-.05,0,1.29,1.69v-.07l.1.75a.82.82,0,0,1,0-.27l-.11.76a2.58,2.58,0,0,1,.08-.26l-.29.7c.13-.29.25-.59.36-.89l-.29.7a1.16,1.16,0,0,1,.14-.24l-.46.59a1.21,1.21,0,0,1,.19-.2l-.58.45a.88.88,0,0,1,.23-.14l-.69.29.07,0-2.21-.29.07.05-.58-.45.25.24A3.63,3.63,0,0,0,400,384l-.65-.27.25.13L398.4,381v0l.63-1.09,0,0,.49-.38-.05,0,.58-.25-.06,0,.64-.09h-.13l.65.08-.13,0,.57.24a.24.24,0,0,1-.11-.06l.48.37a.26.26,0,0,1-.09-.09l.37.48,0-.06.23.56,0-.12.09.62a.56.56,0,0,1,0-.13l-.08.61a.56.56,0,0,1,0-.12l-.23.55,0-.06-.36.47a.28.28,0,0,1,.09-.1l-.46.36a.24.24,0,0,1,.11-.06l.45-.36a1.64,1.64,0,0,0,.47-.72,2.13,2.13,0,0,0,.11-1.47,2.62,2.62,0,0,0-.58-1,2.25,2.25,0,0,0-1.59-.66Z"/><path class="cls-2" d="M403.72,377.45a1.37,1.37,0,0,0-.15-.38c-.05-.12-.1-.25-.16-.37l.29.7a.29.29,0,0,1,0-.09l.1.76V378a2.82,2.82,0,0,0-.38-1.42,2.13,2.13,0,0,0-.73-.79,2,2,0,0,0-.95-.5,2.73,2.73,0,0,0-1.5,0,3.17,3.17,0,0,0-1.36.79,3,3,0,0,0-.82,1.39,2.91,2.91,0,0,0,.75,2.87l.6.46a2.9,2.9,0,0,0,1.49.4,2.21,2.21,0,0,0,1.13-.25,2.14,2.14,0,0,0,.95-.61,3,3,0,0,0,.76-2.87Z"/><path class="cls-2" d="M394.88,371.85a3.52,3.52,0,0,0-1.67.46,3,3,0,0,0-1,1,4.71,4.71,0,0,0-.31.73,4.76,4.76,0,0,0-.14.92,2.21,2.21,0,0,0,.24,1.07,2.09,2.09,0,0,0,.58.89l.56.43a1.93,1.93,0,0,0,1,.33,1.33,1.33,0,0,0,.74,0,1.93,1.93,0,0,0,1-.33l.56-.43a2.75,2.75,0,0,0,.72-1.23v0l-.28.66a.57.57,0,0,1,.08-.13l-.44.57a.1.1,0,0,1,0-.05l.44-.57c.09-.23.19-.46.28-.68a.56.56,0,0,0,0-.12l-.27.65a.64.64,0,0,1,.08-.14l-.42.54,0,0,.42-.54.27-.64.09-.71a1.93,1.93,0,0,0-.23-1,1.26,1.26,0,0,0-.34-.59,1.38,1.38,0,0,0-.48-.48,1.29,1.29,0,0,0-.59-.34,1.93,1.93,0,0,0-1-.23Z"/><path class="cls-2" d="M396.29,380.39h0l-.57-.44h0l-.44-.57h0l-.28-.68h0l-.1-.75h0l.1-.74h0l.28-.66h0l.43-.55h0l-.43.56a2.05,2.05,0,0,0-.33,1,1.5,1.5,0,0,0,0,.73,2.12,2.12,0,0,0,.33,1h0a2.42,2.42,0,0,0,.22.29l.21.28h0l.57.44h0l.67.28a1.93,1.93,0,0,0,1.13.05,1.64,1.64,0,0,0,.38-.05l.68-.28c.11-.07.08-.07.29-.23-.19.15.21-.15.3-.23l.44-.57a2.14,2.14,0,0,0,.34-1.06,1.4,1.4,0,0,0,0-.76,1.55,1.55,0,0,0-.19-.72,2.28,2.28,0,0,0-.59-.91l-.58-.45-.68-.28a2.21,2.21,0,0,0-1.14-.06,1.49,1.49,0,0,0-.71.2,1.41,1.41,0,0,0-.63.36,2.27,2.27,0,0,0-.74.8l-.28.68-.1.76.1.76a2,2,0,0,0,.51,1,2.09,2.09,0,0,0,.8.73Z"/><path class="cls-2" d="M397.86,376.23a2.73,2.73,0,0,0,.37.86,3.26,3.26,0,0,0,1.2,1.19,3,3,0,0,0,1.57.43,2.27,2.27,0,0,0,1.21-.27,2.38,2.38,0,0,0,1-.65,3.2,3.2,0,0,0,.8-1.38l0,0-.32.76a.05.05,0,0,1,0,0l-.5.65a.08.08,0,0,1,0,0l-.65.5,0,0,.66-.51.51-.66.33-.78.12-.87-.12-.87-.33-.78-.51-.66a2.45,2.45,0,0,0-1.05-.68,1.68,1.68,0,0,0-.82-.22,1.61,1.61,0,0,0-.87,0,1.72,1.72,0,0,0-.83.22,1.75,1.75,0,0,0-.72.42,1.64,1.64,0,0,0-.58.59,1.47,1.47,0,0,0-.42.72,1.62,1.62,0,0,0-.23.83,2.61,2.61,0,0,0,.06,1.3Z"/><path class="cls-2" d="M408.61,380.11v0a3.29,3.29,0,0,0-1.63-2.84l-.78-.33a3.25,3.25,0,0,0-1.75,0,2.48,2.48,0,0,0-1.12.59,2.51,2.51,0,0,0-.85.92,3.29,3.29,0,0,0,0,3.32v0l.52.67a2.48,2.48,0,0,0,1.05.68,1.64,1.64,0,0,0,.83.22,2.43,2.43,0,0,0,1.31-.06l.79-.33.66-.51a2.45,2.45,0,0,0,.68-1.06,2.48,2.48,0,0,0,.28-1.26Z"/><path class="cls-2" d="M411.11,382.74c.74,2.43,3.11,3.31,5.12,4.6a108.92,108.92,0,0,1,9.62,7.24c.7.56,1.69-.36,1-1a53.08,53.08,0,0,0-6.76-5.48c-2.3-1.6-6.8-3.17-7.92-5.8-.26-.61-1.26-.17-1.07.45Z"/><path class="cls-2" d="M318.73,415.22l-.47.27-.21.12a1.34,1.34,0,0,0-.42.4.77.77,0,0,0,.06.86.76.76,0,0,0,.81.27,1.46,1.46,0,0,0,.56-.33l.42-.31a.84.84,0,0,0,.33-.45.73.73,0,0,0-.07-.56.75.75,0,0,0-1-.27Z"/><path class="cls-2" d="M324.43,421.53l.05,0-.23.1.07,0-.26,0h.1l-.27,0,.12,0-.25-.11.07,0-.22-.17.06.05a1.51,1.51,0,0,0,.49.29l-.25-.11,0,0a1.07,1.07,0,0,0,1.28-.16,1.37,1.37,0,0,0,.27-.47.86.86,0,0,0,0-.42.79.79,0,0,0-.13-.39,1.22,1.22,0,0,0-1.42-.58,1.27,1.27,0,0,0-.82.63,1,1,0,0,0-.11.6.92.92,0,0,0,.26.54,1,1,0,0,0,1.13.15Z"/><path class="cls-2" d="M328.64,426.49l.12-.05a.78.78,0,0,0,.38-.2.41.41,0,0,0,.13-.1,1.29,1.29,0,0,0,.3-.52,1.09,1.09,0,0,0-1.35-1.35,1.19,1.19,0,0,0-.52.3,1.12,1.12,0,0,0-.31.51.56.56,0,0,1,0,.12,1,1,0,0,0,0,.55,1.06,1.06,0,0,0,.27.47,1.08,1.08,0,0,0,.46.27,1.06,1.06,0,0,0,.56,0Z"/><path class="cls-2" d="M333.12,429.68c-.06-.09-.08,0,0,0s0-.14,0,0a1.08,1.08,0,0,1,0-.18c0,.19-.05,0,0,0s0-.06,0,0,0,.07,0,0,.14-.16,0-.06.12-.14.12-.13a1.33,1.33,0,0,0,.24-.51,1.23,1.23,0,0,0-1.78-1.36,1.8,1.8,0,0,0-.75,1.92,2.39,2.39,0,0,0,.73,1.41.93.93,0,0,0,1.22.08.94.94,0,0,0,.24-1.2Z"/><path class="cls-2" d="M338,434.05l.27-.14a2.33,2.33,0,0,0,.45-.38l.22-.23a1.64,1.64,0,0,0,.41-.68,1.13,1.13,0,0,0-1.38-1.39,2.79,2.79,0,0,0-1.43,1.36,1.07,1.07,0,0,0,1.46,1.46Z"/><path class="cls-2" d="M344.77,437.93l.15-.22a1.26,1.26,0,0,0,.19-.65,2.24,2.24,0,0,0-.07-.44l-.12-.28a.84.84,0,0,0-.3-.32,1,1,0,0,0-.71-.25,1.37,1.37,0,0,0-.59.16,1.15,1.15,0,0,0-.53.69,1.68,1.68,0,0,0-.07.44,1.26,1.26,0,0,0,.19.65l.14.22a1,1,0,0,0,.86.5,1,1,0,0,0,.86-.5Z"/><path class="cls-2" d="M349.3,442.72a1.22,1.22,0,0,0,.33-.14l.24-.18a1.18,1.18,0,0,0,.31-.53.47.47,0,0,0,0-.17,1,1,0,0,0,0-.48,1.11,1.11,0,0,0-.07-.16.87.87,0,0,0-.25-.38v0a1.33,1.33,0,0,0-.82-.34l-.31,0a1.1,1.1,0,0,0-.52.3,1.41,1.41,0,0,0-.32.54,1.27,1.27,0,0,0,0,.67,1.16,1.16,0,0,0,.55.71,1.14,1.14,0,0,0,.86.14Z"/><path class="cls-2" d="M355.84,445.58l.12-.11a1.25,1.25,0,0,0,.37-.65,1.16,1.16,0,0,0,0-.64,1.23,1.23,0,0,0-.83-.83,1.16,1.16,0,0,0-.64,0,1.25,1.25,0,0,0-.65.37l-.11.12a1,1,0,0,0-.26.4.93.93,0,0,0-.1.47,1,1,0,0,0,.1.48.93.93,0,0,0,.26.39l.25.19a1.14,1.14,0,0,0,.62.17l.32,0a1.33,1.33,0,0,0,.55-.32Z"/><path class="cls-2" d="M360,447.42l.1.17.05.07.18.24.23.18.06,0,.27.12a1,1,0,0,0,.46,0,.6.6,0,0,0,.29-.08.88.88,0,0,0,.36-.24l.18-.23.12-.27a1,1,0,0,0,0-.46.91.91,0,0,0-.14-.42l0-.05a.58.58,0,0,0-.1-.12.53.53,0,0,0-.21-.21,2.31,2.31,0,0,0-.19-.14l-.17-.1-.26-.11a.79.79,0,0,0-.43,0,.55.55,0,0,0-.28.07.89.89,0,0,0-.35.23l-.17.22-.11.26a.79.79,0,0,0,0,.43.86.86,0,0,0,.13.41Z"/><path class="cls-2" d="M367.56,450.63l.06.08-.11-.81,0,.05a1.26,1.26,0,0,0,0,.61,1.32,1.32,0,0,0,.3.51l.1.1a1.18,1.18,0,0,0,1.63,0l.18-.23a1.17,1.17,0,0,0,.15-.58l0-.31a1.1,1.1,0,0,0-.29-.5l-.11-.11a1.1,1.1,0,0,0-.5-.29,1.06,1.06,0,0,0-.61,0l-.05,0,.81.1-.09-.06-.24-.1a.86.86,0,0,0-.42,0,.59.59,0,0,0-.26.07.87.87,0,0,0-.33.22l-.16.2-.1.25a.72.72,0,0,0,0,.41.78.78,0,0,0,.12.39Z"/><path class="cls-2" d="M375.93,453s.19-.09.05,0h0l.15,0s.23,0,0,0,0,0,0,0h.15a1.23,1.23,0,0,0,.91-.44,1.11,1.11,0,0,0,.31-.93,1.06,1.06,0,0,0-.53-.82,1.34,1.34,0,0,0-1.29,0,1.83,1.83,0,0,0-.49.39,2.86,2.86,0,0,0-.59.95.83.83,0,0,0,.31.9.86.86,0,0,0,.95.07Z"/><path class="cls-2" d="M381.36,452v0l.59-.46,0,0-.26.11a.84.84,0,0,0-.31.28.49.49,0,0,0-.14.24.91.91,0,0,0-.1.43.22.22,0,0,1,0,.08l0,.29a.83.83,0,0,0,.2.37.61.61,0,0,0,.19.2.87.87,0,0,0,.37.19,1,1,0,0,0,.58,0l.26-.11a.84.84,0,0,0,.31-.28.58.58,0,0,0,.14-.24.76.76,0,0,0,.09-.42.22.22,0,0,0,0-.08l0-.29a.85.85,0,0,0-.19-.38.64.64,0,0,0-.2-.2.87.87,0,0,0-.37-.19l0,0,.58.46v0a1,1,0,0,0-.35-.35.92.92,0,0,0-.49-.13,1,1,0,0,0-.49.13,1.17,1.17,0,0,0-.35.35Z"/><path class="cls-2" d="M388.81,452.25a1.6,1.6,0,0,0-.19.71,1.38,1.38,0,0,0,.06.46,1.5,1.5,0,0,0,1,1,1.15,1.15,0,0,0,.87-.11,1.21,1.21,0,0,0,.46-.54,1,1,0,0,0,.06-.73,1.18,1.18,0,0,0-.52-.68l-.07,0,.23.18a.27.27,0,0,1-.07-.08l.18.23a.91.91,0,0,1-.11-.16l.12.27a.29.29,0,0,1,0-.1l0,.3a.21.21,0,0,1,0-.11l0,.29v0a1.14,1.14,0,0,0-.11-.85,1.06,1.06,0,0,0-.53-.45,1.07,1.07,0,0,0-1.37.45Z"/><path class="cls-2" d="M395.15,453.25l.05,0-.46-.27,0,0a.89.89,0,0,0,.35.23.55.55,0,0,0,.28.07.44.44,0,0,0,.16,0h0a.76.76,0,0,0,.42-.09l.15-.07a1.07,1.07,0,0,0,.53-.93,1.09,1.09,0,0,0-.53-.93h0a.82.82,0,0,0-.4-.13l-.19,0h0l-.29,0a.89.89,0,0,0-.37.2.53.53,0,0,0-.14.12l.46-.27-.05,0-.25.1a.78.78,0,0,0-.28.26.45.45,0,0,0-.13.23.66.66,0,0,0-.09.39l0,.27.11.25a.7.7,0,0,0,.26.28.85.85,0,0,0,.35.19Z"/><path class="cls-2" d="M400.55,449.46a3.55,3.55,0,0,0-.35.27,2.78,2.78,0,0,0-.21.27l-.06.08-.11.25a.89.89,0,0,0,0,.43.5.5,0,0,0,.08.26.75.75,0,0,0,.21.34l.22.17.25.1a.75.75,0,0,0,.42,0,.78.78,0,0,0,.39-.12l.08-.06,0,0a1.5,1.5,0,0,0,.24-.18,1.37,1.37,0,0,0,.18-.24l0,0,.06-.08.11-.25a.9.9,0,0,0,0-.43A.5.5,0,0,0,402,450a.75.75,0,0,0-.21-.34l-.22-.17-.25-.1a.75.75,0,0,0-.42,0,.89.89,0,0,0-.39.12Z"/><path class="cls-2" d="M407.28,449.31a1.09,1.09,0,0,0,0-2.18,1.09,1.09,0,0,0,0,2.18Z"/><path class="cls-2" d="M410.78,444h0l-.25.19h0a2,2,0,0,0-.19.24h0l-.12.29a.91.91,0,0,0,0,.33s0,.3,0,.33h0s.15.35.06.15c0,0,0,.1.07.15h0l.19.25h0a.89.89,0,0,0,.26.21l.3.13a.9.9,0,0,0,.51,0l.21,0,.3-.13h0a1.89,1.89,0,0,0,.27-.2l.19-.26h0a.82.82,0,0,0,.14-.45.9.9,0,0,0,0-.49l-.12-.3a.87.87,0,0,0-.32-.34A.63.63,0,0,0,412,444a1,1,0,0,0-.47-.11l-.33.05a1.22,1.22,0,0,0-.54.31h0l.25-.2h0l.29-.12h0l.33-.05h0l.34,0h0l-.17,0a.62.62,0,0,0-.33,0,.72.72,0,0,0-.32.08l-.15.07.3-.13h0l.33,0h0l.32,0h0l.28.12h0l.24.19h0l.19.24h0l.12.29v0l0,.31h0a1.17,1.17,0,0,0-1.76-1Z"/><path class="cls-2" d="M415,440.13l0,.37a1.54,1.54,0,0,0,.06.64,1.23,1.23,0,0,0,1.17.89,1.25,1.25,0,0,0,1.18-.89,1.72,1.72,0,0,0,.06-.64l0-.37a1.33,1.33,0,0,0-.35-.85,1.28,1.28,0,0,0-.85-.35,1.23,1.23,0,0,0-.84.35,1.35,1.35,0,0,0-.35.85Z"/><path class="cls-2" d="M421,435.23l-.07.45c0,.16-.06.33-.07.49a2.32,2.32,0,0,0,.07.52,1.26,1.26,0,0,0,2.42,0,1.88,1.88,0,0,0,.08-.52c0-.16,0-.33-.07-.49l-.07-.45-.12-.28a1,1,0,0,0-.31-.34,1.17,1.17,0,0,0-.72-.25,1.33,1.33,0,0,0-.59.16,1.18,1.18,0,0,0-.55.71Z"/><path class="cls-2" d="M424.34,431.23l0,.19.67-1.17a.58.58,0,0,0-.15.11,1.12,1.12,0,0,0-.37.41l-.15.34a.91.91,0,0,0,0,.23.65.65,0,0,0,0,.39,1.08,1.08,0,0,0,.17.55l.07.11a1.57,1.57,0,0,0,.87.67l.39.05a1.08,1.08,0,0,0,.56-.13.64.64,0,0,0,.32-.18,1.15,1.15,0,0,0,.38-.41,1.52,1.52,0,0,0,.15-1.12l-.05-.12-.14-.36a1.15,1.15,0,0,0-.38-.41,1.35,1.35,0,0,0-.53-.28,1.51,1.51,0,0,0-.79,0l1.33.35-.16-.13A1.39,1.39,0,0,0,426,430l-.34-.05a.91.91,0,0,0-.49.11.62.62,0,0,0-.28.17.54.54,0,0,0-.23.22,1.19,1.19,0,0,0-.28.78Z"/><path class="cls-2" d="M427.73,423.08a2.24,2.24,0,0,0-.45.83,2.2,2.2,0,0,0,0,1v-.72a1.38,1.38,0,0,0,.07.94,1.52,1.52,0,0,0,.59.69.53.53,0,0,0,.1.06,1.39,1.39,0,0,0,1.42,0,1.51,1.51,0,0,0,.58-.67,1.4,1.4,0,0,0,.1-.73,2,2,0,0,0-.19-.56l.14.34s0,0,0-.07a1.43,1.43,0,0,0-.52-.75.7.7,0,0,0-.32-.19,1.18,1.18,0,0,0-.56-.13h0l1,.42-.08-.09.22.28a.39.39,0,0,1-.08-.14l.13.32a.83.83,0,0,1,0-.15l0,.34a.49.49,0,0,1,0-.12l-.05.33v0a1.4,1.4,0,0,0-.06-.81,1.23,1.23,0,0,0-.51-.59,1.41,1.41,0,0,0-.63-.17,1.25,1.25,0,0,0-.88.36Z"/><path class="cls-2" d="M430.17,416.91a1.64,1.64,0,0,0-1.13,1.56l.18-.66a1.5,1.5,0,0,0,.15,1.7,1.55,1.55,0,0,0,1.64.58,1.41,1.41,0,0,0,.94-.94,1.37,1.37,0,0,0-.35-1.31,2,2,0,0,0-.37-.27l.28.21a1.62,1.62,0,0,1-.19-.18l.21.27a1.5,1.5,0,0,0-.54-.52l.46.46a.25.25,0,0,0,0-.07l.13.3,0-.11,0,.33v-.11l0,.32a.14.14,0,0,1,0-.06l-.12.28a.25.25,0,0,1,0-.07l-.18.23,0,0a1.19,1.19,0,0,0,.31-.66,1,1,0,0,0-.13-.73,1.17,1.17,0,0,0-1.3-.53Z"/><path class="cls-2" d="M430.47,411a2.26,2.26,0,0,0-.2.26c0,.06-.11.24-.13.3h0a1.27,1.27,0,0,0,0,.67s.11.27.13.3h0a1.21,1.21,0,0,0,.2.26l.13.1.13.1a1,1,0,0,0,.31.13l.17,0a.62.62,0,0,0,.33,0l.17,0,.16-.07.18-.08.13-.1.13-.1h0l.19-.24h0a1.51,1.51,0,0,0,.13-.29,1.3,1.3,0,0,0,0-.62,1.19,1.19,0,0,0-.3-.51,1.12,1.12,0,0,0-.51-.3,1.09,1.09,0,0,0-.62,0h0l.32,0h0l.31,0h0l.29.12,0,0,.24.19-.12-.1a1,1,0,0,0-.42-.22c-.11,0-.23,0-.34-.05l.33.05h0l.29.12h0l.25.19,0,0,.19.25h0l.12.29h0l0,.32h0l0,.32v0l0-.32a1,1,0,0,0-.11-.47.53.53,0,0,0-.15-.26,1,1,0,0,0-.34-.32l-.29-.12-.32,0a.91.91,0,0,0-.46.1,1,1,0,0,0-.39.25Z"/><path class="cls-2" d="M429.93,405.07l0,.31a1.52,1.52,0,0,0,.05.38,1.15,1.15,0,0,0,.3.51,1,1,0,0,0,.7.29,1,1,0,0,0,.71-.29,1.26,1.26,0,0,0,.3-.51,2.22,2.22,0,0,0,0-.38l0-.31a1.13,1.13,0,0,0-.31-.76,1.07,1.07,0,0,0-1.53,0,1.09,1.09,0,0,0-.32.76Z"/><path class="cls-2" d="M560.51,449.09a23.11,23.11,0,0,1,3.25,9.45c.18,1.6,2.7,1.62,2.53,0a25.69,25.69,0,0,0-2.77-9.33c-.73-1.42-2.73-.38-2.45,1a35,35,0,0,0,1.52,5.41,1.34,1.34,0,0,0,2.59-.71l-1.41-5.48a1.35,1.35,0,0,0-2.61.72c3.76,14.86,5.23,30.23.62,45.08-4,13-11.61,24.53-15.72,37.48-.41,1.3,1.68,2.24,2.25,1,5.86-13.16,13.31-26.13,17.09-40.1,4-14.66,2.06-29.63-1.63-44.13l-2.61.72,1.43,5.47,2.59-.71a35.17,35.17,0,0,1-1.52-5.42l-2.45,1a25.15,25.15,0,0,1,2.6,8.31l2.43-.68A23,23,0,0,0,562.33,448c-.76-1.1-2.52-.12-1.82,1.06Z"/><path class="cls-2" d="M604.94,445c-2.62,9.52-3.5,19.66-4.41,29.45q-1.47,15.71-1.66,31.49c-.16,15.77.48,32-3.67,47.37a1.08,1.08,0,0,0,2.08.58c5-14,3.88-30.37,3.89-45,0-10.51.41-21,1.28-31.49.9-10.78,2.87-21.47,3.57-32.25.05-.63-.91-.73-1.08-.15Z"/><path class="cls-2" d="M250.46,710.12a1.54,1.54,0,0,0,0-3.08,1.54,1.54,0,0,0,0,3.08Z"/><path class="cls-2" d="M423.63,687.4c-3.3,2.45-7.75-.48-11.28-1s-7.22.16-10.82.53c-7.85.8-15.68.45-23.56.27-16.2-.38-31.68,2.53-47.51,5.69-7.85,1.56-15.67,3.25-23.38,5.41-7.16,2-14.12,4.85-21.42,6.37-15.76,3.28-32.25-.37-47.89,3.48-1.33.32-1.08,2.53.33,2.43,15.76-1.14,32.06.82,47.62-2.14,7.64-1.45,14.9-4.42,22.34-6.6,8.29-2.43,16.72-4.33,25.17-6.1s16.89-3.66,25.43-4.81c8.74-1.17,17.41-.91,26.2-.72,4.25.09,8.52.14,12.76-.16,4-.29,7.94-1.24,11.92-1.26,5,0,10.82,3.71,15.16,0,.74-.64-.26-2-1.07-1.38Z"/><path class="cls-2" d="M255.51,706.29c-4.61,2-6.56,6-7.94,10.68-2.18,7.33-3.51,15-5.19,22.47l2.37.33a87.32,87.32,0,0,1,6.35-30c.56-1.37-1.82-2.39-2.41-1-4.33,10-7.61,21.33-7.43,32.36a1.26,1.26,0,0,0,2.51,0c1.36-10.92,3-21.13,7.33-31.35l-2.55-.7a90.5,90.5,0,0,0-6.21,30.67,1.21,1.21,0,0,0,2.37.32c1.36-6.14,2.67-12.29,4.08-18.42,1.16-5.07,2.57-11.35,7.38-14.25.74-.45.09-1.45-.66-1.13Z"/><path class="cls-2" d="M344.16,714.4c-5,5.38-2.67,13-5.54,19.26l4.34,1.17q.69-7.51,1.78-15l-4.64-.62c-.06,9.33-3.12,18.33-2.68,27.7.13,2.59,4,3.3,4.65.63a54.08,54.08,0,0,1,2.49-7.47l-4.41-1.19,1,8.6a2.37,2.37,0,0,0,4.74,0c.24-2.26.48-4.51.71-6.77l-4.63.63a60.08,60.08,0,0,1,1.78,6.86l3.53-2.71-.84-1.29c-.79-2.76-4.44-1.94-4.73.64l-.25,2.29,4.71-.64-.24-1a2.42,2.42,0,0,0-4.38-.58l-.47.82,4.38.58-.25-.81c-.56-1.75-3.51-2.59-4.38-.57l-.49,1.16,4.36,1.84.11-.27L341,747.2l.55,1a2.4,2.4,0,0,0,3.74.48l1.32-1.25-4-1,.57,1.61a2.41,2.41,0,0,0,4.34.57l.74-1.14-4.33-.56.13.73.61-2.3-.54.51,2.31-.61a3.3,3.3,0,0,0-3.06.37l3.24.84c-1.7-2.73-5.64-3.18-7.4-.26-1.3,2.18,1.21,4.14,3.22,3.22.46-.2,3.11,1.1,4.08,1a3.29,3.29,0,0,0,2.17-1.19c2.16-2.12-1.16-5.43-3.31-3.31,1.51-1.49-4.53-.88-5.31-.53l3.22,3.22-.75.27a2.41,2.41,0,0,0,3.23.85l-.59.12a2.39,2.39,0,0,0,2.3-.61c1.19-1.14,1.29-2,1-3.55-.37-2.16-3.31-2.11-4.33-.57l-.75,1.14,4.34.56-.56-1.61a2.41,2.41,0,0,0-4-1.05L342,745.27l3.74.49-.54-1a2.4,2.4,0,0,0-3.75-.48,5.15,5.15,0,0,0-1.34,2.37c-.69,2.52,3.26,4.39,4.37,1.84l.5-1.15-4.37-.58.25.81a2.43,2.43,0,0,0,4.38.57l.47-.82-4.38-.57.24,1c.67,2.84,4.42,1.87,4.71-.63l.26-2.29-4.72.64a6.59,6.59,0,0,0,3.05,4.16c1.83,1.24,4-.8,3.53-2.71-.54-2.31-1.15-4.59-1.86-6.85-.84-2.66-4.35-2-4.64.63-.25,2.26-.49,4.51-.73,6.77h4.74l-1-8.6c-.23-2-3.38-3.63-4.42-1.2a61.92,61.92,0,0,0-3,8.6l4.65.63c-.44-9.36,2.63-18.37,2.67-27.7,0-2.58-4.26-3.34-4.65-.63-.77,5.4-1.41,10.81-1.88,16.24-.19,2.25,3.4,3.26,4.34,1.18,2.87-6.33.71-13.56,4.06-19.65.86-1.57-1.26-3.35-2.54-2Z"/><path class="cls-2" d="M474.48,725.45c-1.51-.49-2.18.07-3.19,1.19-2.73,3-4.68,7.51-6.82,11-1.34,2.15,1.58,4.09,3.34,2.58,3-2.59,6-5.22,9-7.84L473,730.13c-1.89,5.67-7,10.93-10.45,15.76-1.61,2.25,1.72,4.27,3.57,2.75l4-3.3-3.18-3.18c-4,4.2-8.24,8.15-12.64,12l3.24,3.24q3.74-3.42,7.22-7.08c2-2.13-1-4.89-3.16-3.15-3,2.37-6,4.74-9,7.07l2.67,3.47,3.69-3.69c1.76-1.76-.54-5-2.72-3.53q-2.43,1.6-4.84,3.24l2.62,3.39c.73-.92,1.48-1.84,2.22-2.75a2.19,2.19,0,0,0-2.64-3.42l-2.76,1.47,3,3,1.26-1.73c1.36-1.85-1.23-4.07-3-3l-2.39,1.4,3.06,3.05,1.26-2.42a2.26,2.26,0,0,0-3.54-2.73l-1.76,1.47,3.21,3.22a10.64,10.64,0,0,0,1.76-2.7c.91-1.95-1-4.44-3.14-3.14l-2.29,1.41,2.84,3.68a7.51,7.51,0,0,0,1.47-2.23c.83-1.87-1.12-4.9-3.26-3.26l.36,0,2.31,1.76-.15-.39-1.1,2.7.28-.17c2.62-1.6.22-5.74-2.42-4.13l-.28.17a2.43,2.43,0,0,0-1.1,2.7l.16.39c.35.88,1.21,1.89,2.3,1.75a4.28,4.28,0,0,0,2.53-1.07l-4-2.32-.44.75c-1.52,1.91.43,5.29,2.84,3.68l2.25-1.49-3.15-3.14-1,1.8a2.27,2.27,0,0,0,3.21,3.22l1.74-1.5-3.55-2.73-1.22,2.44c-1,1.91,1,4.27,3.06,3l2.36-1.43-3-3L450,753.16c-1.34,1.89,1.21,4,3,3l2.75-1.51-2.64-3.42-2.2,2.78c-1.42,1.78.37,4.79,2.62,3.39,1.65-1,3.29-2,4.93-3.09l-2.72-3.53-3.64,3.74c-2,2.09.95,4.85,3.12,3.13,3-2.38,6-4.71,9-7l-2.7-3.5q-3.54,3.61-7.3,7c-2.21,2,1,5.14,3.24,3.24a162.12,162.12,0,0,0,12.58-12c2-2.15-1-5-3.18-3.18l-4.05,3.27,3.57,2.75c3.76-5.2,9-10.63,10.94-16.84.7-2.27-2.21-3.7-3.82-2.22-2.92,2.68-5.86,5.35-8.76,8.06l3.34,2.57c.36-.67,5.8-10.92,5.44-11,2,.75,3-2.57.9-3.25Z"/><path class="cls-2" d="M449,741.93c-4.87.65-6.22,6.86-4.44,10.84a9.86,9.86,0,0,0,5.51,4.85c2.81,1,5.78-.56,8.14-2l-3.63-4.71a20.82,20.82,0,0,1-2.47,2.41c-2.26,1.88.16,6.07,2.92,5a21.88,21.88,0,0,0,8.8-5.93l-4.21-4.22c-1.58,1.89-6,7.16-8.45,4.87-2.87-2.69,1.29-5,2.42-7.26.69-1.34-.12-3.49-1.9-3.31-7,.71-9.43,8.88-5.31,14.08,2.11,2.67,5.17,4.3,8.53,3s6.67-4.47,8.92-7.13c2.46-2.9-1.61-7.09-4.21-4.22a15.78,15.78,0,0,1-6.19,4.36l2.92,5a21.72,21.72,0,0,0,2.47-2.42c2.15-2.46-.58-6.56-3.63-4.71-2,1.18-4.3,2.52-5.85-.07-1.1-1.86-.38-4,.85-5.57.78-1,.43-3.1-1.19-2.88Z"/><path class="cls-2" d="M460.77,754.14c5.71-2.52,10.5-8.6,14.32-13.36s8.14-9.87,10.15-15.58a1.77,1.77,0,0,0-2.94-1.71c-4.17,4.82-7.14,10.68-11.25,15.62-3.73,4.48-8.78,8.57-11.72,13.59-.58,1,.53,1.84,1.44,1.44Z"/><path class="cls-2" d="M342.08,712.44c-3.69,1.3-3.23,6.72-3.69,9.95a158.27,158.27,0,0,0-2,18.53c-.07,3.48.67,7.42,4,9.32a7.26,7.26,0,0,0,9.21-2l-4.3-3.31-1.93,1.79c-2.67,1.36-1.09,4.89,1.39,5.14,9,.93,6.84-7.57,5.64-13.5l-4.87,2.05a3.57,3.57,0,0,1,.73,3.68q.3,3.58-3.94.84l-4.83,2a9.74,9.74,0,0,0,8.39,5.09v-5.23a5.67,5.67,0,0,1-3.42-.55c-2.8-1-4.49,3.29-2,4.73,10.41,6,10.62-14,9.85-19.12-.3-2-3.1-1.59-3.62,0a29.34,29.34,0,0,0-1.13,6.94c-.06.7-.48,9.18-2.49,7.71l-2,4.73a11.29,11.29,0,0,0,4.8.79c3.39-.11,3.34-5,0-5.23a4,4,0,0,1-3.83-2.52c-1.55-2.73-5.35-.8-4.83,2,.88,4.78,5.78,6,9.85,4.22,5.6-2.4,4.87-7.09,3.33-12.19-.83-2.74-5.53-2.39-5.23.71.16,1.58.38,3.15.61,4.73.27,1.78,1.15,2.77-1,2.54l1.39,5.15a8.22,8.22,0,0,0,3.88-3.8c1.7-3.17-2.67-5.54-4.73-2.76q-4.86.09-4.1-4.06c0-1.18.08-2.36.16-3.54.14-2.57.34-5.14.55-7.71.37-4.54-.31-11.3,1.56-15.48.38-.85-.27-2.13-1.35-1.75Z"/><path class="cls-2" d="M244.47,726.46a58.14,58.14,0,0,0-4.32,16.61c-.24,1.83,3,2.29,3.26.44a59.24,59.24,0,0,1,3.69-14.09l-3.35-.92a68.3,68.3,0,0,0-1.59,7.65c-.33,2.33-.08,5.61-1.53,7.54L243.8,745c1.85-11.84,3.92-23.17,8.79-34.22,1.11-2.51-2.6-4.71-3.73-2.17-5,11.19-8.71,23.57-8.46,35.92a1.75,1.75,0,0,0,3.23.88c1.29-1.71,1.35-3.28,1.55-5.38a68.6,68.6,0,0,1,1.92-10.64c.57-2.2-2.56-3-3.35-.92a61.41,61.41,0,0,0-3.6,14.57h3.32c.65-5.34,2-10.48,3.1-15.72.26-1.2-1.53-2.14-2.1-.89Z"/><path class="cls-2" d="M522.7,582.52c3.83,0,3.84-5.95,0-5.95s-3.84,5.95,0,5.95Z"/></g></svg>