<svg xmlns="http://www.w3.org/2000/svg" viewBox="0 0 714.22 841.41"><defs><style>.cls-1{fill:#e19226;stroke:#b11f24;stroke-miterlimit:10;stroke-width:0.25px;}.cls-2{fill:#026e5d;}</style></defs><title>Brown Girls Food Club Logo</title><g id="Background"><rect class="cls-1" x="-5.96" y="-0.26" width="720.18" height="844"/></g><g id="New_Logo" data-name="New Logo"><path class="cls-2" d="M395.68,124.44c-38.83,25.77-60.18,70.95-70.23,115.07s-12,89.47-19.88,133.89c-3.89,21.83-9.33,43.72-18.9,63.81-10.47,22-24.71,41.88-39.7,61-29.55,37.72-62.48,74.7-77.45,121.16-14,43.47-8.12,97.23,29.33,127.44,3.31,2.67,7.91,3.24,11.14,0,2.78-2.78,3.3-8.42,0-11.13-30.38-25-36.13-69.12-26.16-105.28,12.31-44.63,43.69-80.53,71.78-116.07,14.69-18.58,29-37.56,40.61-58.28a262.85,262.85,0,0,0,24.29-61.75c11.07-42.46,12.95-86.52,20.76-129.58,4.2-23.16,10.09-46.43,19.89-67.92,10.59-23.22,26.08-42.29,43.6-60.59,5.7-5.94-1.76-16.64-9.08-11.77Z"/><path class="cls-2" d="M401.57,131.78c-14.94-14.23-37.61-17-57.18-13.1-21.63,4.33-40.13,17.61-53.67,34.71C259,193.47,256,246.21,247.86,294.63c-4.37,26.06-10.37,52.37-23.5,75.57-12.39,21.91-30,40.43-41.1,63.14-11.25,23.13-16.14,48.58-19.65,73.87-3.76,27.11-7.25,54.37-9,81.68-1.95,30.41-1.45,61.56,5.41,91.38,5.15,22.37,15.23,45.51,36.09,57.26a2,2,0,0,0,2-3.4c-18.55-11.55-27.81-32.49-32.71-53-6.15-25.74-7.14-52.42-6-78.76s4.49-52.43,7.81-78.52c3.08-24.3,6.39-48.85,14.63-72,8.42-23.68,23.67-42.68,37.78-63.1,14-20.24,23.11-42.24,28.65-66.16,11.08-47.74,9.32-99.28,31.92-143.85,11-21.76,28-41.92,51.13-51.28a75.14,75.14,0,0,1,69,6,1,1,0,0,0,1.25-1.62Z"/><path class="cls-2" d="M395.47,130.58a4,4,0,0,0,4.73-2.05,2,2,0,0,0-1.18-2.89c-1.22-.5-2.48-.9-3.73-1.32l-.56,4.13c3.18.05,5.73,1.09,8.71,2,2.45.71,3.79-2.72,1.7-4-2.95-1.85-7-2.26-10.41-2.14a2.12,2.12,0,0,0-.56,4.14c1.26.36,2.52.76,3.81,1.05L396.6,127c0,.45-.25.66-.73.62a1.51,1.51,0,0,0-.4,3Z"/><path class="cls-2" d="M404.76,134.68c7.82,1.12,15.14,2.92,21.31,8.17,6,5.09,13.41,15.92,8.07,23.74-4.58,6.71-13.7,0-18.9,6.67-1.58,2-2.35,4.44-3.51,6.69-2.16,4.18-5.48,4.71-9.87,4.83-6.33.17-11.8.88-16,6.16-4.66,5.92-6.67,12.38-13.19,16.83-10,6.85-26.09,11.26-28.41,25.15-1,5.81,2,11.86,8.21,12.59,5.08.59,10-2.44,10.13-7.81.07-3.25-5.25-4.13-5.81-.79a2.79,2.79,0,0,1-5,1.41c-2.15-2.58-6.28.74-4.59,3.54a53.62,53.62,0,0,1,4.89,45.37c-3.71,10.66-12.17,28.76,2.3,35.89,9.14,4.5,21.29-5,18.91-15-1.23-5.14-6.21-9.67-11.74-8.46A7.8,7.8,0,0,0,356.24,311c1.38,2.77,5.72.82,4.93-2.08-.85-3.09,3-3.22,4.82-2.12,1,.59,1.63,2.81,1.64,3.92a7.4,7.4,0,0,1-2.47,5.09c-3.61,3.47-8.66,3.15-11.27-1.24-5.1-8.58,2-19,4.53-27.25,5-16.12,2.5-34-6.1-48.39l-4.59,3.54c4.33,5.25,13.69,2.77,14.8-4l-5.8-.78c-.08,3.27-4.94,1.92-6,.22-2.46-3.88,1.22-9.16,3.89-11.82,4.47-4.44,10.45-7.07,15.88-10.09,5.11-2.85,10-6.11,13.56-10.87,4.34-5.85,5.88-13.75,14.37-14.36,5.28-.39,11.17.42,15.37-3.56a19.41,19.41,0,0,0,4-6.43c1.82-4,2.72-5.57,7.7-5.35,6.15.27,11.15-1.4,14.19-7.22,2.91-5.59,1.65-12.27-.92-17.72-5.75-12.16-20.33-21.66-34-19.21-1.65.3-1.71,3.15,0,3.39Z"/><path class="cls-2" d="M376.29,360.85c-4-5.66-7.77-14.89-.05-19.36,4.63-2.68,10.88-2,15.9-1.13,7.67,1.33,16.82,3.59,23.84-1.17a11.28,11.28,0,0,0,4.87-8c.43-3.16-.43-6.25-.38-9.4,0-2,.28-4.16,1.73-5.66,1.95-2,4-.93,6.15-.7,2.82.3,5,.42,6.5-2.5,1.57-3.16.75-7.35-.47-10.46L433,304.36c4.09.4,4.86-3.68,4.69-6.84-.18-3.39-1.23-5.74,2.31-6.3a11.63,11.63,0,0,1,3.22.26,63.22,63.22,0,0,0,6.7,1c3.36.09,6.6-1,7.68-4.55.92-3-.06-6.5-.44-9.46-.48-3.73-1-7.46-1.62-11.17a104.37,104.37,0,0,0-6-22.11c-2.06-5-2.88-8.29-.95-13.45a83.51,83.51,0,0,0,3.86-12.93c2.28-11.39,2.51-23.54-3.11-33.95-3.31-6.14-6.36-13.82-11-19.06-1.37-1.56-3.63.72-2.27,2.27,2.59,2.94,4.25,7.37,6.13,10.78,1.65,3,3.48,5.94,5,9,3.36,6.75,3.71,14.09,3.23,21.52A71.78,71.78,0,0,1,447.69,225c-1.1,3.73-3.25,7.48-3.61,11.39-.29,3.13.92,5.8,2.12,8.61A89.54,89.54,0,0,1,451,260.07c1,4.12,1.66,8.3,2.28,12.48.51,3.43,3.66,15-.81,16.68-4.28,1.6-9.27-1.73-13.73-.86a5.47,5.47,0,0,0-3.88,2.5c-1,1.59,0,10.74-1.93,10.55a1.47,1.47,0,0,0-1.41,1.86c.79,2,2,5.56.93,7.67-1.8,3.56-5.56.24-8.13.58-3.32.44-5.53,3.6-6.36,6.61-1.74,6.24,2.84,13.92-3.45,18.58-4.12,3-10.39,2.77-15.18,2.12-8.18-1.11-18-4.41-25.46.83-8.13,5.69-4.84,16.33,1.23,22.07.59.56,1.66-.18,1.16-.89Z"/><path class="cls-2" d="M440.07,234.94c-8.77-7.6-13-18.81-25.81-20.4-11.77-1.46-22.53,5.27-29.65,14.15-1,1.26.72,3.07,1.81,1.81,7.41-8.67,17.79-15.59,29.72-13,11.15,2.46,13.65,13.92,23,18.58.72.35,1.59-.59.91-1.18Z"/><path class="cls-2" d="M421.6,246c-15.66-1.07-32.18.31-45-10.53-1.46-1.25-3.59.87-2.12,2.12C388,249.05,405,247.87,421.6,249c1.93.13,1.92-2.87,0-3Z"/><path class="cls-2" d="M432.52,250a26.78,26.78,0,0,0-8.37-3.53c-1.88-.45-2.68,2.44-.8,2.89A24.21,24.21,0,0,1,431,252.6c1.62,1.05,3.13-1.54,1.51-2.59Z"/><path class="cls-2" d="M432,250.42c1.49-6.59-2.26-12.68-7.82-16.11-7.48-4.61-17.09-3.23-25.09-.94a1.29,1.29,0,0,0,.69,2.48c6.54-1.3,13.59-2.76,20.08-.41,6.24,2.26,10.48,8,10,14.69a1.1,1.1,0,0,0,2.16.29Z"/><path class="cls-2" d="M431.54,252.66a1.42,1.42,0,0,0-1.8,1.27,13.32,13.32,0,0,1-2.35,2.62,16.46,16.46,0,0,1-6.25,3.24,21.8,21.8,0,0,1-11.14.11c-9-2.25-15-9.2-21.82-14.86a1.15,1.15,0,0,0-1.63,1.62c7.24,8,17.7,16.33,29,16.11a20.62,20.62,0,0,0,12.17-3.9c1.77-1.36,5.37-4.47,4.23-7a.82.82,0,0,0-.92-.37l-.45.12a.78.78,0,0,0-.53.93l.07.34c.15.85,1.29.53,1.38-.19Z"/><path class="cls-2" d="M435.35,278.81c-3.9-4-11.18-1.7-13.31,3.1-2.69,6.1,3.51,12.86,9.73,11.78a1.26,1.26,0,0,0-.33-2.46c-4.49.41-9.54-4.27-6.9-8.89,2-3.44,6.54-3.88,9.78-2.2a.85.85,0,0,0,1-1.33Z"/><path class="cls-2" d="M436.33,288.23,436,288a.94.94,0,0,0-.93,0,1.72,1.72,0,0,0-.94,2.47c1.13,1.8,3.16,0,4.54.58,1.21.55,2.28-1.17,1.07-1.81a10,10,0,0,0-6.42-1.09l.86,2a5.71,5.71,0,0,1,3.89-.79l.32-2.31h-5.92l.61,2.27a5.34,5.34,0,0,1,3.6-.54l-.3-2.29a4,4,0,0,1-3.4.35v2.48a17.3,17.3,0,0,1,13,2,1.4,1.4,0,0,0,1.41-2.41,20.13,20.13,0,0,0-15.14-2.05,1.29,1.29,0,0,0,0,2.48,7.4,7.4,0,0,0,5.34-.67c1.24-.62.47-2.19-.63-2.33a8.5,8.5,0,0,0-5.15.9c-1.12.53-.55,2.28.61,2.27l5.92-.09a1.18,1.18,0,0,0,0-2.35,8.09,8.09,0,0,0-5.34,1.17,1.12,1.12,0,0,0,.86,2,7.41,7.41,0,0,1,4.76.75l1.07-1.81a3.23,3.23,0,0,0-1.54-.39,19.51,19.51,0,0,0-2.77.93.89.89,0,0,0,.9-1.54Z"/><path class="cls-2" d="M428,254.34a6.76,6.76,0,0,0,.68-4.28,1.49,1.49,0,0,0-1.64-1.08,1.52,1.52,0,0,0-1.3,1.48,7.47,7.47,0,0,1-.48,1.45,1.52,1.52,0,0,0,1,1.85,1.54,1.54,0,0,0,1.85-1,10.36,10.36,0,0,0,.59-2.25l-2.95.4a3.29,3.29,0,0,1-.38,2,1.54,1.54,0,0,0,.54,2,1.51,1.51,0,0,0,2-.54Z"/><path class="cls-2" d="M428.11,254.23a14.19,14.19,0,0,0,1.49-2.51L427,250.2a10.42,10.42,0,0,1-1.36,2.28,1.54,1.54,0,0,0,0,2.12,1.51,1.51,0,0,0,2.12,0,12.77,12.77,0,0,0,1.83-2.88,1.57,1.57,0,0,0-.54-2.06,1.51,1.51,0,0,0-2.05.54,13.92,13.92,0,0,1-1.49,2.52,1.52,1.52,0,0,0,.54,2.05,1.54,1.54,0,0,0,2.05-.54Z"/><path class="cls-2" d="M427,258.37a13.84,13.84,0,0,0,4.27-4.7c.79-1.43-1.22-3.17-2.36-1.82a14.34,14.34,0,0,1-3.26,3c-1.64,1-.13,3.61,1.51,2.59A16.44,16.44,0,0,0,431,254l-2.35-1.82a10.61,10.61,0,0,1-3.19,3.63c-1.59,1.08-.09,3.68,1.51,2.59Z"/><path class="cls-2" d="M427.2,257.06a13.77,13.77,0,0,0,5.29-5.12l-2.59-1.51a10.34,10.34,0,0,1-4.09,4.54,1.5,1.5,0,0,0,1.51,2.59,13.06,13.06,0,0,0,5.17-5.62,1.5,1.5,0,0,0-2.59-1.51,10.83,10.83,0,0,1-4.21,4c-1.7.91-.19,3.5,1.51,2.59Z"/><path class="cls-2" d="M433.89,304.69c.64-3.19-1.56-5.44-4.68-5.9-2.49-.36-5.16.3-7.61.64-3.83.52-7.65,1.08-11.48,1.62-1.5.21-.86,2.49.63,2.28l9-1.26c2.6-.36,12.33-3.05,12.26,2.36,0,1.05,1.65,1.33,1.86.26Z"/><path class="cls-2" d="M409.84,303.35A113.7,113.7,0,0,0,427,314.88c1.07.58,2.41-.95,1.36-1.77A114.86,114.86,0,0,0,410.86,302c-.8-.41-1.81.69-1,1.32Z"/><path class="cls-2" d="M430.41,304.9c-2-.09-4.08-.2-6.12-.25-.92,0-1.16,1.47-.22,1.64a6.69,6.69,0,0,0,5.05-.82.92.92,0,0,0,0-1.57,11.13,11.13,0,0,0-12.55.38,1,1,0,0,0,0,1.7,9.09,9.09,0,0,0,9.16.11,1,1,0,0,0,.45-1.11,3.92,3.92,0,0,0-6-2.62,1,1,0,0,0,.23,1.81,15.33,15.33,0,0,0,6.14.44l-.26-2a11,11,0,0,0-3.69,2,1,1,0,0,0,.44,1.68,10.51,10.51,0,0,0,6.72-.81,1,1,0,0,0,0-1.74,8.86,8.86,0,0,0-3.42-.94c-.93-.08-1.26,1.13-.71,1.72a2.76,2.76,0,0,0,3.74.55,1,1,0,0,0-.24-1.85l-1.69-.07-.16-1.23c.4-.61-3,.13-2-.06A7.12,7.12,0,0,0,423,303a1,1,0,0,0,.79,1.88c1.57-.42,5.31-1.22,5.78,1.36l1.53-1.18-1.24-1.9-2.06.28a7.69,7.69,0,0,1,.45,5.16l1.94-.25.11-1.64h-1.52c1.61.85,1.58,1.74-.09,2.65l-1.24.5-2.22-2.3-.4,1.53,3.45,1,.78-1.39a9.52,9.52,0,0,1-8.77-2.23l-.24,1.82a7,7,0,0,1,6.88.3l.28-2.13a4.58,4.58,0,0,1-5.9-2.23l-.69,1.71a9.47,9.47,0,0,1,8.67,2.36l.24-1.84a6.1,6.1,0,0,1-5.68-.06l.54,1.33a2.55,2.55,0,0,1,4.48-1.05l1.43-1.86a15.84,15.84,0,0,0-12.47-2.93c-1.32.22-1,2.41.31,2.34l10.27-.56a1.21,1.21,0,0,0,.6-2.23,10.84,10.84,0,0,0-11.76.62,1.23,1.23,0,0,0-.55,1.35,3.16,3.16,0,0,0,4.63,1.92c1.21-.55.42-2.12-.61-2.24l-6.46-.73c-1-.11-1.42,1.08-1,1.81a7,7,0,0,0,5.88,3.61,14.69,14.69,0,0,0,4-.23c1.22-.2,2.42-.55,3.65-.74,1.07-.15,5.73-.56,6.22,0l.18,1.39.17-.3a1.14,1.14,0,0,0-2-1.15l-.19.29a1.18,1.18,0,0,0,.18,1.39c1.84,2.32,4.34-.88,2.13-2.84-4.93-4.39-14.71,3.86-18.15-2.64l-1,1.82,6.46.72-.61-2.24L419,302.8l-.55,1.36a8.44,8.44,0,0,1,9.33-.62l.61-2.23-10.27.57.32,2.33a13.54,13.54,0,0,1,10.65,2.68c1.14.85,2.25-.9,1.43-1.85a4.91,4.91,0,0,0-8.43,2.1,1.21,1.21,0,0,0,.55,1.33,8.37,8.37,0,0,0,8.05,0,1.18,1.18,0,0,0,.24-1.84,11.88,11.88,0,0,0-11-2.95,1.18,1.18,0,0,0-.7,1.72,6.82,6.82,0,0,0,8.53,3.29,1.18,1.18,0,0,0,.28-2.12,9.51,9.51,0,0,0-9.22-.29,1.17,1.17,0,0,0-.23,1.82,11.9,11.9,0,0,0,11,2.77,1.14,1.14,0,0,0,.78-1.39,4.28,4.28,0,0,0-7-2.15,1.12,1.12,0,0,0-.18,1.35,6.86,6.86,0,0,0,5.5,3.32,1.06,1.06,0,0,0,.95-.55c.78-1.7.24-3.3-1.71-3.72a1.13,1.13,0,0,0-1.24.51,2.9,2.9,0,0,0,3.32,4.38c3.61-1.27,2.34-5.56.18-7.44a1.09,1.09,0,0,0-1.52,0,3.3,3.3,0,0,0-.43,4.23,1.08,1.08,0,0,0,1.95-.25,9.46,9.46,0,0,0-.48-6.29c-.41-1-2.18-1-2.06.28a4.24,4.24,0,0,0,2.29,3.7,1.05,1.05,0,0,0,1.53-1.18c-.72-3.83-5.38-3.59-8.33-2.78l.79,1.87a4.76,4.76,0,0,1,4-1,1,1,0,0,0,.87-.5L429,303a1,1,0,0,0-.16-1.24c-2.26-2.39-4.92,2.13-.29,3.47l-.25-1.86-1.28-.23-.72,1.73,2.41.66v-1.74a7.08,7.08,0,0,1-5.17.62L424,306l2.8-1.47c1-.32.9-2.11-.27-2a14.17,14.17,0,0,1-5.61-.35l.24,1.81c2.45.95,2.44,1.38-.05,1.31a6.56,6.56,0,0,1-3.57-1.1V306a9.52,9.52,0,0,1,10.64-.51V303.9l-3.69.78-.22,1.64c2,0,4.08-.12,6.12-.2a.61.61,0,0,0,0-1.22Z"/><path class="cls-2" d="M429.73,304.49a2.24,2.24,0,0,0-.1.37,2.87,2.87,0,0,0-.12.55,2.39,2.39,0,0,0,.1.88,1.63,1.63,0,0,0,3.17.07,1.43,1.43,0,0,0-1-1.82,1.12,1.12,0,0,0-1.36.77,1.13,1.13,0,0,0,.77,1.36.85.85,0,0,1-.55-.95c.09-.36,0-.08,0,0s0,.05.07-.08c-.08.08-.05.07.07,0l-.21.12.5-.14c-.15,0,.06,0,.12,0a1.25,1.25,0,0,1,.12.08c.07,0-.07-.11,0,0a.9.9,0,0,1-.06-.22s-.07-.36-.06-.3a3.81,3.81,0,0,1,0-.48.74.74,0,0,0-1.45-.19Z"/><path class="cls-2" d="M431.75,305.87c.07.05.11.05,0,0s.13.12,0,0c.05.13.07.15.05.08s0,0,0,0,0,.39,0,.07c0,.05.05-.36,0-.14s0,0,0,0,0-.12.05-.17c0,.11-.09.1,0,0a.47.47,0,0,0,.07-.12s-.12.16,0,0l.1-.1c-.13.09-.16.12-.09.08s0,0,0,0a.37.37,0,0,1-.21,0c-.25,0,.12.06-.09,0s.1.15-.13-.08c0,0-.14-.22-.07-.09a.73.73,0,0,1-.11-.38c0,.15,0-.13,0-.15,0,.14,0-.1.05-.12-.08.16.16-.18.07-.07s-.08.13,0,0,.08,0,0,0l-.11.06-.14.06s.29-.1.13-.05.21,0,.07,0,.19,0,.19,0,.33.16.16.06a1.73,1.73,0,0,1,.23.21c0,.05.17.37.13.21a1.24,1.24,0,0,0-1.35-.88,1.22,1.22,0,0,0-1.07,1.21,1.67,1.67,0,0,0,1.22,1.64,2,2,0,0,0,1.59-.32,2,2,0,0,0,.64-2.95,1.9,1.9,0,0,0-3,.48,2.37,2.37,0,0,0-.32,1.66c.12.3.14.34.05.13,0,0,0,.09.05.13a2,2,0,0,0,.2.41,1.6,1.6,0,0,0,.69.6.94.94,0,0,0,.94-1.62Z"/><path class="cls-2" d="M430.43,304.87a3.61,3.61,0,0,0,.15.92l.35.86V306l0,.1a1.31,1.31,0,0,0,1.9,1.46,1.37,1.37,0,0,0,.63-1.11,1.35,1.35,0,0,0-.94-1.25l-.09,0,.71.54c-.17-.29-.33-.59-.51-.88a5.24,5.24,0,0,0-.74-.81.88.88,0,0,0-1-.14.89.89,0,0,0-.39,1Z"/><path class="cls-2" d="M431.4,306.15a20.68,20.68,0,0,0-.64-2.58l-.76,1.34s.29-.16.14-.06-.09,0,0,0,.08,0,0,0a.81.81,0,0,1,.24.25l-.15-.57c0-.18,0-.16,0,0a.94.94,0,0,0,0,.5c.08.22,0-.09,0,.05s0-.24,0,.06a1.18,1.18,0,0,0,0,.72,1.15,1.15,0,0,0,1.38.79,1.55,1.55,0,0,0,1.07-1.63,2.08,2.08,0,0,0-.23-.95l-.2-.25c-.28-.23-.33-.27-.15-.1s.13.13.06.05a2.55,2.55,0,0,0-.21-.28,2.35,2.35,0,0,0-2.85-.61,1.1,1.1,0,0,0-.51,1.24,23.49,23.49,0,0,0,1.26,2.63c.46.86,1.67.25,1.49-.63Z"/><path class="cls-2" d="M431.2,306c.5-.33,1-.59,1.53-.94a1.14,1.14,0,0,0-.26-2,17.92,17.92,0,0,0-3.59-1.23,1.24,1.24,0,0,0-1.45.71,1.23,1.23,0,0,0,.5,1.54,19.8,19.8,0,0,0,3.94,1.15l-.49-1.88c-.42.45-.77.95-1.18,1.41-.58.67.17,1.83,1,1.29Z"/><path class="cls-2" d="M427.39,302.71c1.6.31,4,.13,4.55,2.1.26.92-.59,7.21-2.61,5.31l-1.55,2,1.7.89,1-2.36a15.9,15.9,0,0,1-5.57-2,1.32,1.32,0,0,0-1.8,1.79,7.59,7.59,0,0,0,3.58,3.16,1.32,1.32,0,0,0,1.33-2.27l-2.85-1.78-1.32,2.25c.82.4,1.65.79,2.48,1.16,1.46.64,2.75-1.42,1.28-2.19-.81-.42-1.62-.82-2.44-1.22a1.31,1.31,0,0,0-1.32,2.25l2.84,1.8,1.33-2.27a5.4,5.4,0,0,1-2.64-2.21l-1.8,1.79a18,18,0,0,0,6.22,2.26c1.33.21,2.4-1.64,1-2.36l-1.71-.88c-1.24-.63-2.67,1-1.55,2a3.54,3.54,0,0,0,4.54.31c1.7-1.18,2.11-3.43,2.3-5.35.42-4.38-2.8-6.68-7-5.95a.92.92,0,0,0,0,1.76Z"/><path class="cls-2" d="M412.3,303.45a1.93,1.93,0,0,0,1,1.13,3.84,3.84,0,0,0,1.52.39,1,1,0,0,0,.72-1.74A4.47,4.47,0,0,0,413,302a1.13,1.13,0,0,0-.3,2.21,3.81,3.81,0,0,1,1.61.59l.51-1.9a5.21,5.21,0,0,1-1.69-.28c-.45-.1-1,.3-.8.8Z"/><path class="cls-2" d="M414.91,247.65c-3.81,1.83.66,7.5,2.86,8.71,3.92,2.17,8.6.48,11-3.1l-2.73-.74c-.11,1.66-.5,3.22-2.3,3.51a8.74,8.74,0,0,1-4.07-.31c-2.63-1-3.33-4.09-2.31-6.49a1.5,1.5,0,0,0-2.59-1.51c-3.44,4.48,0,10.6,5.28,11.16a8.57,8.57,0,0,0,6.94-2.39c1.55-1.56,2.92-4.46,1.68-6.56a1.53,1.53,0,0,0-2.05-.54l-.17.1a1.5,1.5,0,0,0-.69,1.69l0,.15c.54,1.85,3.44,1.06,2.89-.8l0-.15-.69,1.7.17-.1-2.05-.54c.65,1.11-1.27,3.1-2,3.59a5.71,5.71,0,0,1-4.09.83,4.11,4.11,0,0,1-2.62-6.63l-2.59-1.51c-1.76,4.14-.56,9.36,4.1,10.88,2,.65,5.37.92,7.35,0s2.65-4.13,2.75-6.12c.09-1.53-2-1.9-2.73-.75a5.5,5.5,0,0,1-6.06,2.51,5.56,5.56,0,0,1-2.76-1.88c-.37-.45-1.66-2.25-1-2.8,1.17-.92-.32-2.52-1.5-1.95Z"/><path class="cls-2" d="M419.06,248.07c1.35,1.28,3.83,1.36,5.59,1.27a1.31,1.31,0,0,0,.34-2.55,14.74,14.74,0,0,0-4.41-.85,1.35,1.35,0,0,0-.35,2.64,32.63,32.63,0,0,0,5.41,1.25,1.26,1.26,0,0,0,.63-2.34,31.2,31.2,0,0,0-5.33-1.5l-.36,2.64a12.39,12.39,0,0,1,3.72.66l.35-2.54a19.74,19.74,0,0,1-2.77.06,8.06,8.06,0,0,0-2.5,0,.75.75,0,0,0-.32,1.24Z"/><path class="cls-2" d="M417.23,247.83c-2.27,2.27-.6,6.35,2,7.57,3.11,1.46,6.92-.79,7.54-4.06h-2.68c.28,1.57-2.5,1.61-3.32,1.11s-1.16-2.26,0-2.69l-1.59-2.07a3.79,3.79,0,0,0-.41,1.17c-.19,1.16,1.19,2.26,2.14,1.24a3.63,3.63,0,0,0,.7-1c.49-1-.34-2.51-1.59-2.07a4.38,4.38,0,0,0-.72,7.85c3.1,1.83,8.37-.18,7.43-4.3-.28-1.27-2.48-1.38-2.68,0-.26,1.78-2.07,3.33-3.91,2.55s-1.88-2.86-1.57-4.51a.83.83,0,0,0-1.38-.8Z"/><path class="cls-2" d="M420.58,247.91c-1.6-.27-2.65,1.32-2.82,2.74a3.67,3.67,0,0,0,2.3,3.85,4.47,4.47,0,0,0,4.66-.69c1.35-1.17,1.95-3.75.15-4.8a1.27,1.27,0,0,0-1.85,1.42c.26.78.67,1.3-.23,1.84a2.14,2.14,0,0,1-2,.1,1.54,1.54,0,0,1-1-1.58c.07-.76.63-1.15,1.07-1.71.29-.36.27-1.07-.31-1.17Z"/><path class="cls-2" d="M397.74,342.8c-1.92,8.58.45,17.41,4.95,24.86,4.71,7.8,12.15,13.26,18.1,20C433.15,401.71,441.06,420,439,439c-2.13,19.19-14.95,34.62-26.41,49.28-11.67,14.94-22.09,31.32-40.48,38.44-9,3.48-18.53,5.4-28,7.11s-20.53,2.23-29,7.43c-7.09,4.33-.63,15.49,6.53,11.17,7.31-4.41,17.7-4.53,26-6,9-1.57,17.95-3.33,26.54-6.41a74.59,74.59,0,0,0,23.45-13.1c7.94-6.72,14-15.5,20.32-23.68,12.05-15.58,25.83-31.18,31.64-50.4,5.87-19.39,1.33-40.65-8.68-57.85a103.7,103.7,0,0,0-19.78-24.14c-4.14-3.79-8.22-7.28-11-12.27-2.65-4.84-3.65-10.42-4.77-15.78-.79-3.78-6.76-3.72-7.59,0Z"/><path class="cls-2" d="M391.66,373.82a2.21,2.21,0,0,0,1.41-.58,1.53,1.53,0,0,0,.41-.65,1.52,1.52,0,0,0,.17-.76l-.07-.53a2,2,0,0,0-.51-.88l-.41-.31a2.06,2.06,0,0,0-1-.28,1.46,1.46,0,0,0-.77.18,1.41,1.41,0,0,0-.64.41,1.5,1.5,0,0,0-.41.64,1.45,1.45,0,0,0-.17.77l.07.53a2,2,0,0,0,.51.88l.4.31a2,2,0,0,0,1,.27Z"/><path class="cls-2" d="M393.89,378.66c2.56,0,2.57-4,0-4s-2.57,4,0,4Z"/><path class="cls-2" d="M394.41,380.86a2.68,2.68,0,0,0,.07.27,1.95,1.95,0,1,0,2.39-2.39l-.27-.07a1.77,1.77,0,0,0-2.19,2.19Z"/><path class="cls-2" d="M396.53,383.73l0,.35a1.13,1.13,0,0,0,.13.54,1,1,0,0,0,.29.45,1,1,0,0,0,.45.29,1,1,0,0,0,.54.12l.38-.05a1.3,1.3,0,0,0,.62-.36l.22-.28a1.38,1.38,0,0,0,.19-.71l.05-.35a1.21,1.21,0,0,0-.13-.56,1.18,1.18,0,0,0-.3-.47,1.12,1.12,0,0,0-.47-.3,1.07,1.07,0,0,0-.56-.12l-.38.05a1.42,1.42,0,0,0-.64.37l-.23.3a1.46,1.46,0,0,0-.2.73Z"/><path class="cls-2" d="M396.35,390.67c4.24-3.84,10.57-2.77,12.59,2.94.81,2.3.93,5.37-.86,7.26s-4.76,1.84-7.11,1.58c-1.67-.18-1.65,2.42,0,2.6,3.37.38,7.27-.11,9.46-3s1.95-7,.54-10.1c-2.78-6.12-12.05-8.93-16.21-2.49-.64,1,.77,2,1.59,1.22Z"/><path class="cls-2" d="M387.88,391.48c-12.12-1.42-12.46,20.62-.42,20.31,4.9-.12,8.75-4.29,9.28-9a11.11,11.11,0,0,0-9.52-12.18c-1.82-.3-2.6,2.48-.77,2.78,4,.66,7.25,3.44,7.57,7.7a7.41,7.41,0,0,1-5.85,8c-4.58.84-7.56-4-7.53-8.13,0-4.63,3.36-7,7.42-8.21a.66.66,0,0,0-.18-1.29Z"/><path class="cls-2" d="M377.19,395.22c-7.56-6.47-16.19,5.27-12.73,12.59.83,1.74,3.42.22,2.59-1.52-2-4.21,3.25-13,8-9,1.46,1.25,3.59-.86,2.12-2.12Z"/><path class="cls-2" d="M388.63,395.2a6.9,6.9,0,0,0-6.49,6.88,5.63,5.63,0,0,0,7.44,5.57c3.66-1.23,5-5.87,3.28-9.15-1.84-3.46-6.83-4-8.32,0-.51,1.35,1.34,2.14,2.26,1.31l1.59-1.44-2.1-1.62a17.88,17.88,0,0,1-2,3.32c-.91,1.23,1,2.62,2.07,1.6l1.62-1.61-2-1.58-1.72,3.1c-.68,1.22,1.05,2.72,2,1.56a13.29,13.29,0,0,1,2.31-2.25l-1.72-1.73A13.76,13.76,0,0,1,385,402.1a1.25,1.25,0,0,0,1.77,1.77,21,21,0,0,0,2.89-2.84l-2-1.52-2.92,4c-.72,1,.72,2.44,1.71,1.71l3.2-2.37-1.7-1.71-3.18,4.59c-.64.92.42,2.09,1.41,1.82a6.94,6.94,0,0,0,5.18-7.33l-2.14.88c1,1.14.4,1.75.24,2.94-.19,1.54,0,1.35.84.75a3.92,3.92,0,0,0,1.44-2.24,4.24,4.24,0,0,0-2.12-4.75c-1.46-.75-2.76,1.48-1.29,2.2a1.65,1.65,0,0,1,.56,2.62c-.59.63-1.44.72-1.8,1.61a2.07,2.07,0,0,0,2,2.78c3.93.06,3.74-5.57,1.95-7.68a1.26,1.26,0,0,0-2.13.89,4.46,4.46,0,0,1-3.34,4.93L387,407l3.18-4.58c.69-1-.71-2.45-1.71-1.71l-3.2,2.37,1.71,1.71,2.92-4c.83-1.13-1.06-2.6-2-1.51A21,21,0,0,1,385,402.1l1.77,1.77a17.14,17.14,0,0,0,2.25-3.4c.5-1-.62-2.54-1.73-1.73a16.8,16.8,0,0,0-2.85,2.61l2,1.56,1.76-3.08a1.31,1.31,0,0,0-2.05-1.58l-1.64,1.59,2.07,1.59a17.87,17.87,0,0,0,2-3.3,1.35,1.35,0,0,0-2.1-1.63l-1.62,1.43,2.26,1.32c.66-1.71,2.65-.67,3.3.31a4.1,4.1,0,0,1,.57,3,3.49,3.49,0,0,1-4.34,2.87c-2.2-.65-2.68-3.33-1.94-5.25a6.45,6.45,0,0,1,4.08-3.64.7.7,0,0,0-.18-1.36Z"/><path class="cls-2" d="M402.2,393.82c-.42-1.94,2-1.7,2.89-1.12a5.2,5.2,0,0,1,1.79,2c.78,1.49.86,3.53-.76,4.48a2.73,2.73,0,0,1-3-4.53L401.48,393l-1,1.56c-.59,1,.66,2.37,1.63,1.63l2.22-1.69-1.76-1.35a10.51,10.51,0,0,1-1.7,3.29c-.85,1.14.91,2.27,1.87,1.44l2.77-2.4-1.85-1.43-2.17,3.51a1.18,1.18,0,0,0,1.6,1.6l2.56-1.67-1.59-1.59-2.17,3.88c-.54,1,.58,2.22,1.58,1.58l2.85-1.82L404.77,398a1.7,1.7,0,0,1-1.49.89l1.1,1.91c2.07-1.81,3.87-4.47,1.72-7l-1.44,1.87a1.89,1.89,0,0,1,.82,2.81l2.08.86c-.34-2.94,0-6.87-3.87-7.43a4.14,4.14,0,0,0-3.51,1.08c-1.13,1.22-.25,4.15-.12,5.68l2.27-.61-1.69-3.65L399,396.1a3.53,3.53,0,0,1,1.32,4h2.35c-.19-.55-1.78-7-.3-6.68l-.54-2.05c-2.37,1.85-3,5.72-.72,7.89a1.05,1.05,0,0,0,1.64-1.27c-.89-1.74-.79-3.63.82-4.88a1.23,1.23,0,0,0-.55-2.05c-5.33-1.31-3.6,7.16-2.7,9.69a1.23,1.23,0,0,0,2.35,0,6,6,0,0,0-2.44-6.74c-1.1-.78-2.13.68-1.67,1.67l1.69,3.65a1.23,1.23,0,0,0,2.27-.62l-.26-3c-.08-1-.1-1.68,1.26-1.34,1.94.47,1.45,3.51,1.62,5,.11.91,1.34,1.79,2.08.86a4.25,4.25,0,0,0-1.34-6.58,1.19,1.19,0,0,0-1.44,1.86c1.18,1.32-.77,2.9-1.65,3.67s.11,2.06,1.11,1.9a4,4,0,0,0,2.87-1.93,1.15,1.15,0,0,0-1.56-1.57l-2.87,1.81L403.9,401l2.19-3.87c.55-1-.59-2.24-1.59-1.59l-2.57,1.65,1.6,1.6,2.19-3.5c.74-1.19-.88-2.26-1.85-1.43l-2.79,2.39,1.86,1.44a12.68,12.68,0,0,0,2-3.86c.28-.92-.91-2-1.76-1.35l-2.21,1.71,1.62,1.62,1-1.56c.59-1-.64-2.35-1.62-1.62a5,5,0,1,0,6.74,7c1.94-2.87.16-6.89-2.58-8.53-2.47-1.48-6.74-.06-5.21,3.35.36.79,1.52.21,1.35-.57Z"/><path class="cls-2" d="M377.52,401.43c3.62,0,3.63-5.63,0-5.63s-3.62,5.63,0,5.63Z"/><path class="cls-2" d="M374.27,402.71v.34a2.1,2.1,0,0,0,.24,1.11,2.2,2.2,0,0,0,.6.93,2.09,2.09,0,0,0,.93.59,2.11,2.11,0,0,0,1.11.25l.77-.1a2.92,2.92,0,0,0,1.27-.74l.45-.59a2.84,2.84,0,0,0,.39-1.45v-.34a2.11,2.11,0,0,0-.25-1.11,2.09,2.09,0,0,0-.59-.93,3.21,3.21,0,0,0-2-.85l-.77.11a2.78,2.78,0,0,0-1.27.74l-.45.58a2.88,2.88,0,0,0-.39,1.46Z"/><path class="cls-2" d="M379.22,408.48l.07-.2-1,1.32.05,0A1.68,1.68,0,0,0,379,409a1.29,1.29,0,0,0,.3-.52,1.79,1.79,0,0,0,.2-.89l-.09-.61-.23-.56a1.63,1.63,0,0,0-.6-.65,1.19,1.19,0,0,0-.51-.3,1.79,1.79,0,0,0-.89-.2l-.62.09-.55.23a1.71,1.71,0,0,0-.65.6,1.19,1.19,0,0,0-.3.51,1.79,1.79,0,0,0-.2.89l.08.62.24.55a2.2,2.2,0,0,0,.83.83l0,0-1-1.32.07.2.22.52a1.59,1.59,0,0,0,.55.6,1.06,1.06,0,0,0,.47.27,1.59,1.59,0,0,0,.83.19l.57-.08.51-.21a2.51,2.51,0,0,0,1-1.29Z"/><path class="cls-2" d="M383.47,416.29c3.13,0,3.13-4.85,0-4.85s-3.12,4.85,0,4.85Z"/><path class="cls-2" d="M387.94,416.56c3,0,3-4.64,0-4.64s-3,4.64,0,4.64Z"/><path class="cls-2" d="M391.66,414.93c2.8,0,2.81-4.36,0-4.36s-2.81,4.36,0,4.36Z"/><path class="cls-2" d="M394.64,412.65a1.76,1.76,0,0,0,0-3.52,1.76,1.76,0,0,0,0,3.52Z"/><path class="cls-2" d="M396.12,410.75c3.17,0,3.18-4.92,0-4.92s-3.17,4.92,0,4.92Z"/><path class="cls-2" d="M396.81,404l-.08.17,0,.08-.21.49a3.33,3.33,0,0,0-.07.54,2.16,2.16,0,0,0,.57,1.37,1.42,1.42,0,0,0,.62.4,1.47,1.47,0,0,0,.75.16l.51-.07a1.87,1.87,0,0,0,.85-.49l.31-.39a2,2,0,0,0,.26-1,3.33,3.33,0,0,0-.07-.54c-.07-.16-.13-.33-.21-.49l0-.08-.08-.17a1.79,1.79,0,0,0-3.09,0Z"/><path class="cls-2" d="M398.36,403.06c2.85,0,2.85-4.43,0-4.43s-2.86,4.43,0,4.43Z"/><path class="cls-2" d="M397.24,398.76c2.58,0,2.58-4,0-4s-2.58,4,0,4Z"/><path class="cls-2" d="M396.5,395.62c2.85,0,2.85-4.43,0-4.43s-2.86,4.43,0,4.43Z"/><path class="cls-2" d="M392.4,392.54c2.72,0,2.72-4.22,0-4.22s-2.72,4.22,0,4.22Z"/><path class="cls-2" d="M388.31,390.68c2.72,0,2.72-4.22,0-4.22s-2.72,4.22,0,4.22Z"/><path class="cls-2" d="M384.59,392c3,0,3-4.65,0-4.65s-3,4.65,0,4.65Z"/><path class="cls-2" d="M377.62,390.21l-.09.26,1.06-1.37a.83.83,0,0,0-.27.19,1.9,1.9,0,0,0-.6.66l-.24.57a1.76,1.76,0,0,0,0,.94,1.72,1.72,0,0,0,.28.87l.37.48a2.59,2.59,0,0,0,1.66.69l.63-.08a1.82,1.82,0,0,0,.8-.42,1.79,1.79,0,0,0,.61-.67l.24-.56a2.67,2.67,0,0,0-.24-1.82l-.37-.47a1.66,1.66,0,0,0-.5-.38l1.06,1.37-.09-.26-.22-.53a1.78,1.78,0,0,0-.57-.62,1.1,1.1,0,0,0-.49-.28,1.6,1.6,0,0,0-.86-.19l-.59.08-.52.22a1.73,1.73,0,0,0-.63.57,1.69,1.69,0,0,0-.39.75Z"/><path class="cls-2" d="M376.74,392.92a2.47,2.47,0,0,0-.29.22,1.15,1.15,0,0,0-.43.42,1.13,1.13,0,0,0-.3.53,1.19,1.19,0,0,0-.17.6,2.09,2.09,0,0,0,0,.35l.08.63v0l0,.05,0,.13.23.56a1.87,1.87,0,0,0,.6.65,1.19,1.19,0,0,0,.51.3,1.82,1.82,0,0,0,.89.2l.62-.09.55-.23a1.82,1.82,0,0,0,.66-.6,1.76,1.76,0,0,0,.41-.79,2.6,2.6,0,0,0,.15-.84v0l-.09-.64-.24-.57-.37-.48-.48-.37h0l0,0a2.32,2.32,0,0,0-2.31,0Z"/><path class="cls-2" d="M392.35,386.71l-.28.42-.21.51a1.6,1.6,0,0,0,0,.84,1.1,1.1,0,0,0,.14.53,1.6,1.6,0,0,0,.44.68l.43.33.5.21a1.6,1.6,0,0,0,.84,0A1.63,1.63,0,0,0,395,390l.42-.28a2.27,2.27,0,0,0,.8-.8,2.19,2.19,0,0,0,.3-1.12l-.08-.58a2.25,2.25,0,0,0-.57-1,1.65,1.65,0,0,0-.71-.46,1.7,1.7,0,0,0-.86-.19,2.15,2.15,0,0,0-1.11.3,2.19,2.19,0,0,0-.8.8Z"/><path class="cls-2" d="M394.8,385l-.29.43-.18.44a1.44,1.44,0,0,0,0,.74,1,1,0,0,0,.13.47,1.28,1.28,0,0,0,.39.6l.37.3.45.18a1.43,1.43,0,0,0,.74,0,1.41,1.41,0,0,0,.69-.22l.43-.29a2.07,2.07,0,0,0,.71-.7,2,2,0,0,0,.26-1l-.07-.52a2,2,0,0,0-.5-.87,2.28,2.28,0,0,0-1.39-.57,2,2,0,0,0-1,.26,2.07,2.07,0,0,0-.7.71Z"/><path class="cls-2" d="M400.59,410.36c3.62,0,3.62-5.63,0-5.63s-3.63,5.63,0,5.63Z"/><path class="cls-2" d="M404.68,409.67c3.21,0,3.22-5,0-5s-3.22,5,0,5Z"/><path class="cls-2" d="M409.14,408c2.95,0,2.95-4.57,0-4.57s-2.94,4.57,0,4.57Z"/><path class="cls-2" d="M412.49,404.16a1.83,1.83,0,0,0,0-3.65,1.83,1.83,0,0,0,0,3.65Z"/><path class="cls-2" d="M413.61,400.12c2.89,0,2.9-4.5,0-4.5s-2.9,4.5,0,4.5Z"/><path class="cls-2" d="M413.24,396.63c2.71,0,2.72-4.22,0-4.22s-2.72,4.22,0,4.22Z"/><path class="cls-2" d="M362.27,409.37a2,2,0,0,0,1-.23,1.91,1.91,0,0,0,.82-.53,1.85,1.85,0,0,0,.53-.82,1.89,1.89,0,0,0,.22-1l-.09-.68a2.52,2.52,0,0,0-.66-1.14l-.52-.4a2.55,2.55,0,0,0-1.29-.35,2,2,0,0,0-1,.22,2.29,2.29,0,0,0-1.36,1.36,2,2,0,0,0-.22,1l.09.68a2.68,2.68,0,0,0,.66,1.13l.52.4a2.57,2.57,0,0,0,1.3.36Z"/><path class="cls-2" d="M375.15,411.26l-.36.07-.44.18a1.42,1.42,0,0,0-.52.48.89.89,0,0,0-.24.42,1.35,1.35,0,0,0-.16.71l.06.5.19.44a1.45,1.45,0,0,0,.48.53,1.47,1.47,0,0,0,.63.33l.36.07a2,2,0,0,0,1,0,1.94,1.94,0,0,0,.85-.5l.3-.39a1.87,1.87,0,0,0,.26-1,1.46,1.46,0,0,0-.16-.74,1.42,1.42,0,0,0-.4-.62,1.94,1.94,0,0,0-.85-.5,2,2,0,0,0-1,0Z"/><path class="cls-2" d="M363,398.1c3.17,0,3.17-4.92,0-4.92s-3.17,4.92,0,4.92Z"/><path class="cls-2" d="M366.73,397a2.11,2.11,0,0,0,1.11-.25,2.09,2.09,0,0,0,.93-.59,3.21,3.21,0,0,0,.85-2l-.11-.77a2.78,2.78,0,0,0-.74-1.27l-.58-.45a2.88,2.88,0,0,0-1.46-.39,2.15,2.15,0,0,0-1.11.24,2.26,2.26,0,0,0-.93.6,2.09,2.09,0,0,0-.59.93,2.11,2.11,0,0,0-.25,1.11l.1.77a3,3,0,0,0,.74,1.27l.59.45a2.84,2.84,0,0,0,1.45.39Z"/><path class="cls-2" d="M370.82,394.75c3.17,0,3.18-4.92,0-4.92s-3.17,4.92,0,4.92Z"/><path class="cls-2" d="M372.05,392.79l.15.28a2.3,2.3,0,0,0,.82.82,2.31,2.31,0,0,0,2.31,0,2.38,2.38,0,0,0,.82-.82l.15-.28a2.47,2.47,0,1,0-4.25,0Z"/><path class="cls-2" d="M393.46,372.76l0,.31a2,2,0,0,0,.22,1,2,2,0,0,0,.54.84,2,2,0,0,0,.84.54,1.91,1.91,0,0,0,1,.22l.69-.09a2.58,2.58,0,0,0,1.15-.67l.41-.52a2.66,2.66,0,0,0,.35-1.32l0-.31a2,2,0,0,0-.23-1,2.06,2.06,0,0,0-.54-.85,3,3,0,0,0-1.87-.77l-.7.09a2.73,2.73,0,0,0-1.16.68l-.42.54a2.79,2.79,0,0,0-.36,1.33Z"/><path class="cls-2" d="M400.21,380.53l.17.69.18.42a1.36,1.36,0,0,0,.45.5,1.66,1.66,0,0,0,1.07.37,1.93,1.93,0,0,0,.88-.24,1.75,1.75,0,0,0,.81-1l.17-.69a1.94,1.94,0,0,0-.5-1.89,2,2,0,0,0-1.36-.56,1.93,1.93,0,0,0-1.87,2.45Z"/><path class="cls-2" d="M401,383l0,.34a1.68,1.68,0,0,0,.18.83,1.81,1.81,0,0,0,.44.69,1.57,1.57,0,0,0,.7.44,1.55,1.55,0,0,0,.82.19l.57-.08a2.17,2.17,0,0,0,.95-.55l.33-.44a2,2,0,0,0,.3-1.08l0-.34a1.62,1.62,0,0,0-.19-.84A2,2,0,0,0,404,381a1.62,1.62,0,0,0-.84-.19l-.58.08a2.12,2.12,0,0,0-1,.56l-.34.44a2.12,2.12,0,0,0-.3,1.1Z"/><path class="cls-2" d="M387.5,368.57l.07.29a2.32,2.32,0,0,0,.6,1,2.35,2.35,0,0,0,1,.61,2.45,2.45,0,0,0,1.26,0,2.25,2.25,0,0,0,1-.61,2.34,2.34,0,0,0,.61-1l.06-.29a2.36,2.36,0,0,0,0-1.29,2.31,2.31,0,0,0-.62-1.07l-.49-.38a2.53,2.53,0,0,0-1.23-.34,1.87,1.87,0,0,0-.93.21,1.83,1.83,0,0,0-.78.51,2.42,2.42,0,0,0-.63,1.07,2.56,2.56,0,0,0,0,1.29Z"/><path class="cls-2" d="M391.07,369.81l.13.71.21.49a1.54,1.54,0,0,0,.54.59,1.07,1.07,0,0,0,.45.26,1.59,1.59,0,0,0,.8.18,2.56,2.56,0,0,0,1.05-.28,1.58,1.58,0,0,0,.58-.54,1.53,1.53,0,0,0,.37-.7l.14-.71a2.36,2.36,0,0,0,0-1.18,2.27,2.27,0,0,0-.57-1,2.31,2.31,0,0,0-1.57-.65,2.27,2.27,0,0,0-1.56.65,2.09,2.09,0,0,0-.57,1,2.15,2.15,0,0,0,0,1.18Z"/><path class="cls-2" d="M406.54,381.27a1.38,1.38,0,0,0,0-2.75,1.38,1.38,0,0,0,0,2.75Z"/><path class="cls-2" d="M407.35,382.74l.07.35.18.43a1.23,1.23,0,0,0,.46.5.78.78,0,0,0,.39.23,1.3,1.3,0,0,0,.69.16l.48-.06.43-.19a2,2,0,0,0,.82-1.07l.07-.35a1.85,1.85,0,0,0-.48-1.81l-.37-.29a1.89,1.89,0,0,0-.95-.26,1.35,1.35,0,0,0-.71.16,1.39,1.39,0,0,0-.6.39,1.85,1.85,0,0,0-.48,1.81Z"/><path class="cls-2" d="M408.66,387.69l.42.18.54.22a1.62,1.62,0,0,0,.9,0,1.16,1.16,0,0,0,.57-.15,1.64,1.64,0,0,0,.72-.47l.35-.45.23-.54a1.72,1.72,0,0,0,0-.9,1.57,1.57,0,0,0-.27-.83l-.18-.42a2.27,2.27,0,0,0-.87-.87,2.38,2.38,0,0,0-1.22-.33l-.65.08a2.54,2.54,0,0,0-1.07.63,1.9,1.9,0,0,0-.5.78,1.87,1.87,0,0,0-.21.93,2.41,2.41,0,0,0,.33,1.23,2.59,2.59,0,0,0,.87.87Z"/><path class="cls-2" d="M411.75,390.68a1.37,1.37,0,0,0,0-2.74,1.37,1.37,0,0,0,0,2.74Z"/><path class="cls-2" d="M410,392.52a6.59,6.59,0,0,0,1.44,2.67,2,2,0,0,0,2.15.41,2,2,0,0,0,1.21-1.8,5.23,5.23,0,0,0-.66-2.42,2.3,2.3,0,0,0-1-1.28,2.21,2.21,0,0,0-1.65-.22,2.16,2.16,0,0,0-1.28,1,2.08,2.08,0,0,0-.22,1.65Z"/><path class="cls-2" d="M412.87,396.38l.37,0a1.31,1.31,0,0,0,.7-.16,1.34,1.34,0,0,0,.59-.38,1.4,1.4,0,0,0,.38-.58,1.57,1.57,0,0,0,.16-.71L415,394a1.84,1.84,0,0,0-.47-.81l-.37-.29a1.87,1.87,0,0,0-.92-.25l-.37,0a2.1,2.1,0,0,0-1.32.54,2,2,0,0,0-.55,1.32l.07.5a1.9,1.9,0,0,0,.48.82l.37.29a1.88,1.88,0,0,0,.95.25Z"/><path class="cls-2" d="M400.33,377.5a4.43,4.43,0,0,0-.79-1.07,2.4,2.4,0,0,0-.86-.5l-.51-.07a1.48,1.48,0,0,0-.75.17,1,1,0,0,0-.42.25,1,1,0,0,0-.35.35,1.78,1.78,0,0,0-.41,1.17,2.62,2.62,0,0,0,.15.88l.15.41a2.1,2.1,0,0,0,.54.92l.42.32a2.11,2.11,0,0,0,1,.29,1.57,1.57,0,0,0,.8-.18,1.87,1.87,0,0,0,1.1-1.1,1.57,1.57,0,0,0,.18-.8,2,2,0,0,0-.29-1Z"/><path class="cls-2" d="M328.39,395.8a4.81,4.81,0,0,0,2.94-1.81l-2.51-1.46c-1.41,4.7,4.55,5.67,6.71,2.06l-2.75-.36c.82,3.2,5.08,7,7.07,2.35l-2.8-.76c.45,3.34,4,7.09,6.42,3l-2.74-.35c.77,4.26,5.79,5.42,7.53,1.24l-2.95-.4c.07,1.33.06,3.08,1.22,4,1.67,1.28,5.07-1.08,6.24.89a1.5,1.5,0,0,0,2.35.3l1.85-2.15-2.51-.66c.52,3.67,3.6,4.11,6.83,4.27,1.93.09,1.92-2.91,0-3-1.58-.08-3.62.16-3.94-2.07a1.5,1.5,0,0,0-2.5-.66L353,402.37l2.36.31a4.12,4.12,0,0,0-3.21-2.43c-1.41-.22-3.73,1.17-3.84-.93a1.5,1.5,0,0,0-2.94-.4l-1.75-1.24a1.52,1.52,0,0,0-2.74-.36l-.83-1.5c-.16-1.24-2.13-2.32-2.79-.75-1.07-.11-1.6-.65-1.58-1.63a1.52,1.52,0,0,0-2.74-.36l-1.22.25a1.51,1.51,0,0,0-2.51-1.46l-1.61,1c-1.83.59-1.05,3.49.79,2.89Z"/><path class="cls-2" d="M321.69,388c-.94,1.51-.55,3.39,1.33,3.81a5.11,5.11,0,0,0,4.27-1.19l-2.13-2.12a4.41,4.41,0,0,0-.62,5.77c1.11,1.56,3.72.06,2.59-1.51a1.48,1.48,0,0,1,.16-2.14c1.43-1.3-.69-3.4-2.13-2.12.11-.09-.34.19-.43.22a4.38,4.38,0,0,1-.69.17c-.13,0-.27,0-.4,0,.13,0,0-.09.11,0l.12.1a.83.83,0,0,1,.24.8c-.05,0,.2-.36.17-.32,1-1.65-1.58-3.15-2.59-1.51Z"/><path class="cls-2" d="M322.62,388l2.44-.34c0,.77,1.12,1.41,1.68.7l3.56.72a1.15,1.15,0,0,0,1.67.68l4.13,1.38a1.19,1.19,0,0,0,2.15.28c1.47-2.19,2.54,1.53,4,2.23a1.24,1.24,0,0,0,1.67-.44l2.3,1a1.27,1.27,0,0,0,1.86.75l4.43,1a1.32,1.32,0,0,0,2.25,0l2.78-.29c.08.79.79,1.62,1.69,1.29,1.54-.55,2.17-1.58,2.06,1.74-.05,1.75,2.59,1.72,2.7,0s.44-4.88-1.49-5.79c-1.78-.84-2.55.94-4,1.48l1.69,1.28c-.56-4.81-5.44-4.84-7.7-1h2.25a5.26,5.26,0,0,0-8-1.82l1.86.76c-.87-3.42-5.07-5.71-6.85-1.53l1.67-.43c-1.6-.78-1.34-3.26-3.32-3.74s-3,1.1-3.9,2.44l2.15.28c-1.21-3.25-4.5-4.59-7.54-2.72l1.66.68c-.75-4.15-5.23-5-7.29-1.31l1.82.49c-.31-4.35-5.27-4-5.74.15-.08.78,1.15.91,1.34.19Z"/><path class="cls-2" d="M401.21,383.06c-.09,0-5.1-1.84-3.39-3,1-.68.75-2.54-.66-2.43l-1.91-1.82c.9-.9,0-2.68-1.3-2.23l-1.67-.82c.58-.93-.4-2.42-1.51-2-1.36-1.28-1.4-2.32-.14-3.11a1.33,1.33,0,0,0-1.87-1.88c-1.53,1.46-3.47,3.7-2.22,5.94a4,4,0,0,0,4.94,1.64l-1.51-2c-2.12,3.38,1.45,5.88,4.69,4.76l-1.3-2.24c-3.13,3.15,0,6.67,3.8,6.31l-.65-2.43c-1.47,1.07-2.25,2.63-1.29,4.4,1.1,2,3.69,2.44,5.76,2.62,1.07.09,1.06-1.38.23-1.72Z"/><path class="cls-2" d="M395.72,370.62q3.11,1.67,1.87,4.61a1.2,1.2,0,0,0,.83,1.47c2,.27,5.39,1.71,3.84,4.54a1.29,1.29,0,0,0,1.11,1.93c2.22-.07,3.36,1.08,3.4,3.46a1.38,1.38,0,0,0,1.32,1.73l.44.28c-.91,1.27,1.19,2.91,2.17,1.68,1.85-2.31.11-4.58-2.61-4.7l1.32,1.74c1.38-4-2.47-6.59-6-6.76l1.11,1.93c2.24-4.28-1.66-7.7-5.74-8.17l1.15,1.5c1.06-3.14-.73-5.46-3.59-6.63-.84-.34-1.26.94-.58,1.39Z"/><path class="cls-2" d="M323.15,385.37a3.73,3.73,0,0,0-1.87.68,4.55,4.55,0,0,0-1.33,1.59.89.89,0,0,0,.77,1.32,2,2,0,0,0,1.7-.91,5.2,5.2,0,0,1,.4-.53s.16-.06.14,0h0a.57.57,0,0,1-.3-.64.94.94,0,0,0,1.81.49c.43-1.16-.84-1.86-1.82-1.7a2,2,0,0,0-1.23.69c-.13.17-.49.88-.72.88l.85,1.11a3.49,3.49,0,0,1,1.9-1.78.63.63,0,0,0-.32-1.16Z"/><path class="cls-2" d="M324,388c-.52.2-1,.46-1.52.64,0,0-.15,0-.13,0v0c.23,0,.1.19-.39.53l-1.2-2.06a10.71,10.71,0,0,0-1.89,2.37c-.44.95.52,2.3,1.58,1.59a10.77,10.77,0,0,0,2.05-2.21c.72-.87.07-2.5-1.2-2.07a2.14,2.14,0,0,0-.72,3.57c1.32,1.4,3.49.26,4.37-1.06.39-.59-.26-1.51-.95-1.24Z"/><path class="cls-2" d="M376.46,390.6l.17.09c.1.06,0,0,0,0l.12.11c.14.15-.08-.11,0,.05a3.44,3.44,0,0,0,.3.35c-.11-.12,0,0,0,.06s.09.2,0,.06a.73.73,0,0,0,1.4-.38,1.89,1.89,0,0,0-.71-1.15,2.35,2.35,0,0,0-1.11-.39c-.62-.08-.85.9-.32,1.16Z"/><path class="cls-2" d="M377.67,390.38a2.67,2.67,0,0,0-.68.15l-.63.27a.76.76,0,0,0-.31.95.78.78,0,0,0,.9.45c.21-.05.41-.09.61-.15a4.22,4.22,0,0,0,.68-.32.74.74,0,0,0,.3-.93.73.73,0,0,0-.87-.42Z"/><path class="cls-2" d="M383.61,391.68c.46-.45,1-.31,1.57-.48a.81.81,0,0,0,.19-1.47c-1.07-.55-2.24.23-2.84,1.11-.45.66.54,1.38,1.08.84Z"/><path class="cls-2" d="M390.46,388.83c.25-.21,1.52-1.68,1.89-.9.61,1.29,2.28.29,2.11-.89-.06-.46.62-.59.91-.48a1.2,1.2,0,0,0,1.48-.84c.16-.92.1-1.31,1-1a1,1,0,0,0,1.29-1v-.25a1.21,1.21,0,0,0-.6-1.05c-2.13-1.21-3.65.74-4,2.69l1.47-.84a2.93,2.93,0,0,0-3.77,3.41l2.11-.89c-1.38-2.72-4.55-.92-5.34,1.21-.34.9.85,1.33,1.45.85Z"/><path class="cls-2" d="M395.7,389.26c-2.33.31-3.59,2.93-3.53,5.07a1,1,0,0,0,2.05.28,8.14,8.14,0,0,1,.94-2.16c.27-.44.9-1.4,1.3-1.56,2.28-.91-.31-3.71-1.42-1.84-.49.82-1.28,1.45-1.77,2.29a10.35,10.35,0,0,0-1.07,2.71l2.06.28c-.1-1.73.89-2.68,1.93-3.89.34-.39.16-1.26-.49-1.18Z"/><path class="cls-2" d="M365.8,401.45c-1.63,3.12.14,7,3.06,8.65,3.51,2,7.79.66,10.5-2,1.28-1.27-.59-3-1.93-1.93-2.27,1.77-7.19,1.78-8.29-1.59-1-3.14,2.46-5.77,4.81-7.07,1.45-.8.42-2.84-1.08-2.55-7.35,1.43-8.18,11-2.88,15.28a1.32,1.32,0,0,0,1.86-1.86c-1.6-1.77-2.91-3.75-2.56-6.25a5.2,5.2,0,0,1,4.32-4.47l-1.07-2.56c-4,2.21-8.55,6.84-5.46,11.52,2.84,4.31,8.47,4.53,12.28,1.48l-1.93-1.93c-4.21,4.26-10.47,1.83-10-4.25a.9.9,0,0,0-1.66-.45Z"/><path class="cls-2" d="M374.19,397.84c-.13-.08-.09-.06.12,0l.32.06a4.58,4.58,0,0,1,.49.15,1.87,1.87,0,0,1,.82.54l1.81-1.41a4.32,4.32,0,0,0-2.07-1.34,2.72,2.72,0,0,0-2.42-.08,1.09,1.09,0,0,0-.22,1.69,3.58,3.58,0,0,0,1.78.77,12.64,12.64,0,0,0,1.63.66,1.16,1.16,0,0,0,.89-2.11,3.76,3.76,0,0,0-1.79-.67,2.91,2.91,0,0,0-1.7.46.67.67,0,0,0,.34,1.24Z"/><path class="cls-2" d="M374.11,400.84q.79-.18.87.39l-.13.5a1.45,1.45,0,0,1-1.07-.07,2,2,0,0,1-.23.28,4.87,4.87,0,0,0-.52.76l1.27-.51c.64.17.16.83-.31.65.07,0,0-.09,0-.09a1.31,1.31,0,0,0-.25,0l.62.16c.15.11-.08-.33.05-.28s0,.1,0,.1c-.48.08-.12,0-.12.1a.62.62,0,0,1,.17-.48c.12-.05.11-.05,0,0,.13,0,.13,0,0,0,.28.1.05-.14.2.1,0-.06.38.57.14.46-.06,0,.33-.25.3-.23s.35-.19.36-.15a.74.74,0,0,1-.73-.7c0-.12,0-.09,0,.08a2.72,2.72,0,0,1-.5.63c-.1.08-.3.15-.38.25-.21.26-.22-.19.09.13l.34,1.28a2.44,2.44,0,0,1,.41-.84c.36-.39.09.07,0-.05a.13.13,0,0,1-.07-.06.57.57,0,0,1-.13-.42c0-.09,0-.13.07-.11l-.07,0c-.05,0-.24,0-.15,0-.25-.07-.21,0-.36-.13.08,0-.06-.07-.07-.08s-.07-.1.06-.28.43-.28.41-.21-.23-.38-.1-.35-.37.35-.32.31a2,2,0,0,1-1.25.26l1.16,2a2.15,2.15,0,0,1,1.57-1.41l-1.53-.62c-.09-.15,0-.2.11-.3a1.37,1.37,0,0,0-.47,1.81,1.35,1.35,0,0,0,1.81.48,2.41,2.41,0,0,0,.89-3.37,1.39,1.39,0,0,0-1.53-.62,4.93,4.93,0,0,0-3.31,3c-.36.86.53,1.66,1.3,1.7,2,.12,4.78-1.41,4.16-3.78a2.59,2.59,0,0,0-2.56-1.81,3.21,3.21,0,0,0-2.6,1.48,2.94,2.94,0,0,0,1.85,4.45,3,3,0,0,0,2.73-.62,2.34,2.34,0,0,0,.51-3,2.57,2.57,0,0,0-3-.9,3.87,3.87,0,0,0-2.08,2.65,1.34,1.34,0,0,0,.34,1.29c2.55,2.59,7.37-2.74,4.45-4.58-1.35-.85-3.38.22-4,1.53a2.27,2.27,0,1,0,4.32.53,2.53,2.53,0,0,0-3.57-1.65,2.65,2.65,0,0,0-.79,3.65,1.83,1.83,0,0,0,2.07.87,2.67,2.67,0,0,0,1.75-1.32c.88-1.7-.95-4-2.8-3a2,2,0,0,0,.38,3.57,1.12,1.12,0,0,0,1.27-.51c.42-.92,1.3-1.59.95-2.73a1.62,1.62,0,0,0-2.05-1,1.28,1.28,0,0,0-.53,2,1.15,1.15,0,0,0,1.89-.15c.32-.7-.37-1.59-1.12-1.13Z"/><path class="cls-2" d="M362.7,408.66l0,.37a.67.67,0,0,0,.66.67.68.68,0,0,0,.67-.67v-.37a.67.67,0,0,0-.2-.48.66.66,0,0,0-.48-.2.69.69,0,0,0-.48.2.72.72,0,0,0-.2.48Z"/><path class="cls-2" d="M325.73,389.67l.23.2a.94.94,0,0,0,1.17.89l.27.26a1,1,0,0,0,1.72.71l1.27-1.19-1.61-.21.44,1.48c0,1,1.13,1.25,1.78.74l1.15-.9h-1.5l1,1.12a1.08,1.08,0,0,0,1.3.16l.47.42c-.42,1.28,1.36,1.86,2.05.87l.29.11c-.51,1.42,1.72,2,2.25.62l-.11-.47a1.21,1.21,0,0,0,1.71,1.71l.58.06a1.24,1.24,0,0,0,2.43.33l.09.14,2.21,1.3L347,395.7l-1.92-.78-.17,2,2.39.31-.39.39,2.47,1.05.72-1.19,2.31,1.34-.41.86,2.54,1.07.15,1h2.78l.45-1,2.26,1.3.32-.86,2.56,1.06-1.36.56,2.51.66a7.34,7.34,0,0,1-.22-4.83,1.52,1.52,0,0,0-2.51-1.46l-7.3,1.74,1.5,1.5,2.31-2.94-2-2.05c-1.5,2.72-3,2.65-5.32,3.85l-2.21-1.69.05.07c.45-1.34-1.11-2.22-2.2-1.69l-2.93-1.46a1.51,1.51,0,0,0-2.2-.89l-.06-.21-2.17-1.67q-2.13,5.29-4.6.12l-2.67-1.13.65.66-2.22-1.27-1-1a1.48,1.48,0,0,0-1.86-1.42l-2.13-.2v2.52h.58l-.87-2.14.3-.25c-1.4-.11-2.05,2.13-.74,2.72,9.36,4.2,21.43,12,32.05,8.37a1.43,1.43,0,0,0,.62-2.35c-1.94-2.19-4.45-1.76-7.22-2.22a39.09,39.09,0,0,1-12.4-4.43L336,392.11l2.37,2.24,1.24-2.17-3.71-1.7-1.41,2.43c6.28,2,11.23,5.87,16.5,9.65,3.54,2.54,7.2,3.07,10.92.46a1.46,1.46,0,0,0,.64-1.57c-.37-2.51.75-4.13-2.09-5.21a1.46,1.46,0,0,0-1.39.36l-.66.55c-1.23,1,.15,2.6,1.4,2.39l3.58-.62-1.79-1.79-.71,1.92c-.45,1.25,1.1,2.22,2.14,1.65l2.68-1.48-2.14-.87,0,1.06c-.24,1.26,1.46,2.69,2.44,1.42l2.37-3.06-2.3-1.77a8.77,8.77,0,0,0-1.92,5.84c0,1.59,2.59,2.06,2.87.39l.31-1.75c.31-1.85-2.51-2.64-2.83-.78l-.3,1.75,2.88.39a5.43,5.43,0,0,1,1.51-4.37c1.14-1.5-1.39-2.94-2.52-1.47l-2.36,3.06,2.66,1.12a5.13,5.13,0,0,0,0-2.61,1.47,1.47,0,0,0-2.14-.87l-2.68,1.48,2.14,1.65.7-1.93c.41-1.13-.8-2-1.79-1.79l-3.57.67,1.4,2.39c-1,.89-.74,1.93-.58,3l.64-1.58c-5.11,3.54-10.08-2.14-14.09-4.9a41,41,0,0,0-11.15-5.6,1.46,1.46,0,0,0-1.41,2.42,9,9,0,0,0,5.76,2.53c1.19.13,1.67-1.29,1.25-2.17a6,6,0,0,0-3.75-3.4c-1.51-.64-2.52,1.86-1.11,2.62a43.36,43.36,0,0,0,8.95,3.75c2.18.61,8.57.65,10.12,2.41l.63-2.36c-9.76,3.27-21.2-4.27-29.83-8.17l-.73,2.71.61.05a1.43,1.43,0,0,0,1.26-.72l.35-.52a1.48,1.48,0,0,0-.87-2.14,2.59,2.59,0,0,0-2.84.29,1.47,1.47,0,0,0,0,2.52,4.9,4.9,0,0,0,4.39.51L326.16,389c-.39,5.24,6.81,6.41,6.88,1a1.48,1.48,0,0,0-2.22-1.27c-4.59,3.44,2.37,7.87,3.66,2.66a1.47,1.47,0,0,0-2.68-1.13c-2.33,3.08.34,6.23,3.61,6.8,2.75.47,9-1.83,5.68-5.51-1.7-1.88-5.26-.59-4.46,2.19,1.06,3.65,4.48.68,5.15-1.33.45-1.33-1.09-2.19-2.17-1.68-4.53,2.16-1.19,8.1,3.06,5.36l-2.2-.9c.93,3.47,4.16,4.77,7.33,3.25l-2.2-1.69c-1.52,4.58,4.88,6.26,5.74,1.52a1.53,1.53,0,0,0-2.21-1.7,2.91,2.91,0,0,0,.36,5.45c3.69,1.4,7.5-2.35,9.07-5.19a1.51,1.51,0,0,0-2.05-2.06c-2.55,1.15-3.52,2.83-3.8,5.53a1.5,1.5,0,0,0,1.5,1.5c6.93-.47,3.75-8,.46-5.5a3.06,3.06,0,0,0-.06,4.58c2.62,2.51,6.81,0,9-1.7l-2.5-1.46a12.52,12.52,0,0,0,.21,6.43,1.51,1.51,0,0,0,2.51.66c1.5-1.79,4-6.63.4-7.87-2.91-1-4.14,3.11-4.16,5.19a1.52,1.52,0,0,0,2.56,1.06c5-4.22-5.84-9.49-5.44-1.26a1.5,1.5,0,0,0,2.25,1.29c2.16-1.51,2.82-5-.33-6-3.45-1.11-5.09,2.41-4.41,5.19a1.45,1.45,0,0,0,2.78,0c.66-2,1.53-5.57-1.26-6.39-2.6-.77-3.9,1.92-4.36,3.92-.33,1.47,1.83,2.56,2.55,1.08.93-1.91,2.39-5.55-.61-6.45-2.38-.72-3.56,1.52-4.05,3.45a1.39,1.39,0,0,0,2.31,1.34c3.29-3.33-3.1-7.19-5.28-1.48-.57,1.5,1.67,2.25,2.47,1,3.66-5.52-6.45-6.58-4.47-1.06a1.33,1.33,0,0,0,2.4.31,3.87,3.87,0,0,0,.42-4,1.32,1.32,0,0,0-1.91-.78,6.71,6.71,0,0,0-3,3.27,1.28,1.28,0,0,0,2.21,1.3c2.53-4-3.33-6.6-4.68-2.09h2.38c-.38-2.77-2.85-3.31-4.72-1.45l1.71,1.71c2.88-3-2.31-6.11-3.85-1.86L338,395c1.18-3.44-2.67-4.56-4.48-1.86l2.06.86c1.16-3.84-2-2.27-3.4-3.8a1.08,1.08,0,0,0-1.5,0l-1.13.92,1.79.74a2.77,2.77,0,0,0-.76-2.51,1,1,0,0,0-1.61-.21l-1.24,1.23,1.71.7c0-2.09-1.81-2.47-3-2.93-.91-.35-1.55,1.16-.67,1.58Z"/><path class="cls-2" d="M408,382.58a1.08,1.08,0,0,0,0-2.16,1.08,1.08,0,0,0,0,2.16Z"/><path class="cls-2" d="M405.82,382.09l.05.84,1-1a2.79,2.79,0,0,1-1.45-.27c-1.3-.46-1.93,1.43-.89,2.13.55-.43.44-.69-.33-.77-.25-.11-.51-.21-.77-.3a3.23,3.23,0,0,0-1.45-.06c-.55.12-2.34,2-2.47,2v2.44a8.91,8.91,0,0,1,6.29-.1l-.31-2.34-1.3.07-.91,2.2a12.32,12.32,0,0,1,4.73,1.19l-.26-2.05H408l-1.28,2.19a3.93,3.93,0,0,1,2.53,1.3l1.61-2.08a5.42,5.42,0,0,1-2.05-2.49l-2.19,1.68a1.46,1.46,0,0,1,.26.73,1.22,1.22,0,0,0,2.21.29,2.29,2.29,0,0,0-.5-3c-1.15-1.24-2.8.33-2.19,1.68a7.16,7.16,0,0,0,3.12,3.38,1.33,1.33,0,0,0,1.61-2.08,6.12,6.12,0,0,0-3.71-2,1.32,1.32,0,0,0-1.28,2.19,2.32,2.32,0,0,0,3.52,0,1.32,1.32,0,0,0-.26-2.05,15.88,15.88,0,0,0-6.05-1.52,1.3,1.3,0,0,0-.91,2.2,3.47,3.47,0,0,0,4.41.32,1.3,1.3,0,0,0-.3-2.34,11.18,11.18,0,0,0-7.65.13,1.28,1.28,0,0,0,0,2.44c1.24.38,2-.14,2.88-.95a6.2,6.2,0,0,0,.47-.67.8.8,0,0,1,1.29-.15c.52.07,1,.45,1.54.46,2.64.08,2.47-2.87.69-4l-.9,2.12a4.33,4.33,0,0,0,2.34,0,1,1,0,0,0,.7-1.25,1.93,1.93,0,0,0-.83-1.28.73.73,0,0,0-1.21.71Z"/><path class="cls-2" d="M392.38,387.52a12.82,12.82,0,0,0-3.61,2.86l1.87,1.09c.26-1.38,1.65-2.9,3.18-2.11l.68-2.52c-2,0-4.45-.41-5.8,1.49-1,1.34-.94,3.42.68,4.24a1.39,1.39,0,0,0,1.9-.5,24.17,24.17,0,0,1,1.9-3.17,6,6,0,0,1,1-1.18c.45-.36.69-.28,1.22-.27a1.14,1.14,0,0,0,1.09-1.42c-.7-1.93-2.86-1.43-4.12-.37a15.62,15.62,0,0,0-3.48,5l1.91-.5c-.16-.06-.15,0,0,.19a.54.54,0,0,1,.07-.32c.23-.16.2-.27.51-.39.9-.36,2.15,0,3.11-.11a1.36,1.36,0,0,0,.36-2.65c-2.79-1-6.55,1.11-6.42,4.28.05,1,1.56,1.61,2.09.57a8.69,8.69,0,0,1,2.57-3,.72.72,0,0,0-.72-1.24Z"/><path class="cls-2" d="M387.9,389.68c-3-1.15-5.67.6-6.84,3.4-.35.82.66,1.69,1.43,1.43a2.12,2.12,0,0,0,1.69-2.31A1.21,1.21,0,0,0,383,391a5.13,5.13,0,0,0-5.05,5.34,1.28,1.28,0,0,0,2.5.34c.51-1.33,1.27-3.59,3.28-3.19l-.59-2.22c-2.53,2.92-10.45-2.22-11.49,3.43a2,2,0,0,0,1.34,2.43,2.11,2.11,0,0,0,1.79-.36c.7-.33,3-3,4.09-2.32l-.66-1.16.62-.69a1.1,1.1,0,0,0-.66,1.61l.1.15a1.27,1.27,0,0,0,1.38.56l.24-.07a1.37,1.37,0,0,0,1-1.29v-.27a1.33,1.33,0,0,0-.66-1.15c-1.1-.68-2.28-.36-3.45.07-1,.37-2.73,2.23-3.6,2.19l1.19.68c-.41-.72,3.88-.07,4.36,0a9.12,9.12,0,0,0,2.39.13,5.48,5.48,0,0,0,3.91-2.07c.55-.69.52-2-.58-2.22-3.62-.57-5.31,2-6.45,5.07l2.51.34c-.09-1.62.75-2.6,2.5-2.94l-1.2-1.2.09.06,1.44,1.44a4.2,4.2,0,0,1,4.39-2.59c.87,0,.92-1.15.2-1.43Z"/><path class="cls-2" d="M372.16,414.91c-.1.09,1,.34,1.25.42a7.93,7.93,0,0,0,2.21.42c1.79,0,2.78-1.4,3-3.06l-2.21.9c3.57,2.26,6.93-2.12,4.38-5.23-1.22-1.5-3.33.63-2.12,2.12.53.65-.3.8-.74.52a1.51,1.51,0,0,0-2.21.89c-.1.73,0,.79-.38.85s-1.38-.4-1.86-.52a3.54,3.54,0,0,0-3.45.57c-1.46,1.27.67,3.38,2.12,2.12Z"/><path class="cls-2" d="M363.75,402.67c-3.94,1.11-3.38,6.61-.57,8.62,1.57,1.13,3.07-1.47,1.51-2.59-.75-.54-1.31-2.81-.14-3.14a1.5,1.5,0,0,0-.8-2.89Z"/><path class="cls-2" d="M381.27,406.91c-3.85,2.34-.5,7,3.23,6.35l-1.48-.84a2.2,2.2,0,0,0,2.16,1.83,3.54,3.54,0,0,0,1.75-.37,3.51,3.51,0,0,1,2.62-.6c3,.33,6.42-2.94,6.51-5.95a1.11,1.11,0,0,0-1.66-.95c-1.87,1.31-2.39,4-4.94,4.09-.65,0-1-.23-1.75,0a16.64,16.64,0,0,0-2.37,1.35,1.23,1.23,0,0,0-1.48-.84q-3.27-1.06-1.64-3.09a.7.7,0,0,0-1-.95Z"/><path class="cls-2" d="M370.38,414.32a4,4,0,0,0,3.07-1.43l-2.5-.66a2.08,2.08,0,0,1,.27,1.07,1.52,1.52,0,0,0,2.26,1.3c1.81-1.11,3.6-.45,4.86-2.55a1.52,1.52,0,0,0-1.7-2.2c-.89.24-1.76.54-2.65.78a15.8,15.8,0,0,1-1.78.41c-.76.12-1.11-.22-.85.7s.42.54,1.22.5a10.91,10.91,0,0,1,1.71.11,20.31,20.31,0,0,1,2.43.44,1.52,1.52,0,0,0,1.9-1.44,5.48,5.48,0,0,1,1.45-3.25l-2.5-.66a1.49,1.49,0,0,1,0,1c-.46,1.6,1.95,2.68,2.74,1.15l1.1-2.09-2.74-.36.82,2.15,2.74-1.16,0-1.38c.67-1.81-2.23-2.6-2.89-.8a4.15,4.15,0,0,0,.32,3.69c.77,1.48,3.35.45,2.74-1.15l-.82-2.15a1.52,1.52,0,0,0-2.74-.36l-1.1,2.1,2.75,1.15a5.13,5.13,0,0,0,0-2.61A1.51,1.51,0,0,0,378,406a9,9,0,0,0-2.33,5.37l1.9-1.45c-2.24-.55-8.59-1.94-8.83,1.85-.26,4.3,6.81,1.51,8.75,1l-1.69-2.21c-.56.93-2.82.89-3.78,1.48l2.25,1.29a3.33,3.33,0,0,0-.38-1.86,1.52,1.52,0,0,0-2.51-.67l-.95.55c-1.91.13-1.93,3.13,0,3Z"/><path class="cls-2" d="M364.91,411.52a2.38,2.38,0,0,1,2.71,1.23c1,1.62,3.64.11,2.59-1.52a5.44,5.44,0,0,0-6.1-2.6,1.5,1.5,0,0,0,.8,2.89Z"/><path class="cls-2" d="M366.75,409.45a9.52,9.52,0,0,0-3.58-2.77,1.51,1.51,0,0,0-1.69.69,2.38,2.38,0,0,0-.21,2.09,1.51,1.51,0,0,0,2.5.66c.34-.35.72-.64,1.05-1l-2.36-1.82a3,3,0,0,0,0,3.5,1.54,1.54,0,0,0,2.05.54,1.51,1.51,0,0,0,.54-2.05c.11.15-.2-.32-.16-.1,0-.1.12-.26.19-.37.94-1.41-1.23-3.1-2.36-1.82-.32.37-.7.66-1,1l2.51.66c-.1-.32-.13-.25-.09.22l-1.7.69a7.34,7.34,0,0,1,2.26,2c1.33,1.4,3.45-.72,2.12-2.13Z"/><path class="cls-2" d="M368.64,410.34l-1.61-2a1.51,1.51,0,0,0-2.56,1.06,3.36,3.36,0,0,0,5.6,2.35L368,409.6s-.31.33-.21.24.06,0,0,0,.25,0,0,0l-.49,0a1.54,1.54,0,0,0-1.5,1.5,1.5,1.5,0,0,0,1.5,1.5,3.41,3.41,0,0,0,2.81-1.07A1.5,1.5,0,0,0,368,409.6c.09-.07.09-.08,0,0s-.08.05,0,0-.23.06,0,0c-.09,0-.44,0-.13,0,0,0-.38-.12-.2,0s-.17-.11-.17-.11c.21.15-.05-.11,0,0s-.09-.15-.1-.18c.12.26,0-.24,0,.07l-2.56,1.06,1.61,2a1.5,1.5,0,0,0,2.12,0,1.55,1.55,0,0,0,0-2.12Z"/><path class="cls-2" d="M365.23,404.79a8.37,8.37,0,0,0-1,6.09,1.52,1.52,0,0,0,2.2.9,5.48,5.48,0,0,0,1.68-.95l-2.35-.3a2,2,0,0,1,.36.85c.2,1.9,3.21,1.92,3,0a5.19,5.19,0,0,0-.77-2.36,1.53,1.53,0,0,0-2.36-.31,4,4,0,0,1-1.07.48l2.2.9a5.25,5.25,0,0,1,.65-3.79,1.5,1.5,0,0,0-2.59-1.51Z"/><path class="cls-2" d="M379.41,403.83a5.5,5.5,0,0,1-.82,3.78l1.61-.21a1.88,1.88,0,0,1-.82-1.24,1.14,1.14,0,0,0-2.28,0,4.88,4.88,0,0,1-.38,1.72l2.29.63a4.38,4.38,0,0,1,.58-1.35l-1.66.44a.38.38,0,0,1,.07.21c.23,1.12,1.64.84,2,0a1.81,1.81,0,0,0-.59-2.12,1.24,1.24,0,0,0-1.9.25,5.46,5.46,0,0,0-.78,1.94,1.19,1.19,0,0,0,2.29.63,6.92,6.92,0,0,0,.37-2.35H377.1A3.38,3.38,0,0,0,379,409a1.05,1.05,0,0,0,1.51-.61,7.77,7.77,0,0,0,.24-4.74c-.2-.68-1.36-.59-1.29.17Z"/><path class="cls-2" d="M392.2,393.32c3,4.48,5.8,9.5,2.66,14.75-.65,1.08.92,2.36,1.78,1.37,3.77-4.3,1.73-9.38-1.44-13.35-.86-1.07-2.73.35-1.92,1.48a29.06,29.06,0,0,1,4.47,9,1.21,1.21,0,0,0,1.13.86c5.67.6,10.82-.79,13.9-5.9l-2.1-.89a5.8,5.8,0,0,1-1.95,3.7l1.65,1.65a22,22,0,0,0,4-7c.44-1.29-1.49-2-2.17-.91-2.71,4.54-6.6,6.7-11.6,7.95-1.23.31-1,2.38.3,2.26,5.69-.54,10.5-4.2,13.35-9l-2.16-.91a18.41,18.41,0,0,1-3.36,6c-.94,1.13.6,2.75,1.65,1.65a9,9,0,0,0,2.52-4.74,1.16,1.16,0,0,0-2.11-.89c-2.68,4.5-7.11,5.26-11.91,4.72l1.14.86a31.47,31.47,0,0,0-4.63-9.6l-1.92,1.47c2.22,2.83,4.33,6.75,1.57,10l1.78,1.37c3.18-5.54,1.26-12.72-3.48-16.77-.58-.5-1.62.15-1.14.88Z"/><path class="cls-2" d="M365.86,410c.07-.21-.23.31-.27.38-.57,1-.17.37,0,.24a2.3,2.3,0,0,0-.8,3.05,2.63,2.63,0,0,0,3.69,1,3.06,3.06,0,0,0,1.32-3.76,3.52,3.52,0,0,0-3.48-2c-.36,0-.72.08-1.08.13l-.33.06c.25,0,.29,0,.11,0-.34.07-.36.07,0,.09.16.09.14.07-.05-.05a1.32,1.32,0,0,1-.29-.19,2.22,2.22,0,0,0-2.5.17,2.3,2.3,0,0,0-.81,2.37,3.31,3.31,0,0,0,3.53,2.33c.57,0,1.12-.21,1.69-.25q-.36.06.06,0h-.2q-.21-3.57-.93-2.28a1.74,1.74,0,0,1,.84-.7h1.2l.34.14.81.8-.08-.11-.35,2.7c1.4-1.36,1.77-4.05-.33-5a1.48,1.48,0,0,0-2.13.87Z"/><path class="cls-2" d="M292.1,461.6c2.24,15.18,7.14,30.26,10.79,45.16,3.69,15.07,7.31,30.15,11,45.22,7.41,30.31,13.62,60.77,17.37,91.76.69,5.68,9.7,5.75,9,0a723.33,723.33,0,0,0-17.53-92.39Q317,528.91,311.08,506.5c-4.05-15.41-7.18-31.68-12.88-46.58a3.17,3.17,0,0,0-6.1,1.68Z"/><path class="cls-2" d="M299.08,468.72c1.1-3.11.43-7,.18-10.2-.28-3.52-.57-6.71-2.78-9.54-1.88-2.42-5.86-.86-6.58,1.74-.87,3.16.25,6.43.91,9.57s.73,6.42,2.19,9.22,5.19,1.74,6.08-.79Z"/><path class="cls-2" d="M284.22,462.51c.77,3.6,2.93,6.85,4.46,10.19a103,103,0,0,1,4.46,11.39l9.61-4q-4.22-8.84-8.5-17.63c-3-6.18-11.71-.77-9.09,5.31a436.29,436.29,0,0,1,20.95,61.86c2.61,9.9,5,19.87,7.46,29.81,2.59,10.43,4.57,21.61,9,31.46,1.84,4.12,8.76,2,8.47-2.29-.7-10.46-4.11-21-6.63-31.16-2.62-10.56-5.13-21.15-7.92-31.66a471.7,471.7,0,0,0-21.67-62.07l-9.62,4.05q4.23,8.83,8.51,17.63c2.6,5.33,11.48,1.59,9.61-4.05-2.45-7.37-5.73-17.9-12-22.9-3.25-2.58-8-.25-7,4.11Z"/><path class="cls-2" d="M428.17,381.63c4.89,13.24,20.44,20.93,30.9,29.14,13.36,10.48,22.33,24.69,30.68,39.24,4.19,7.3,8.51,14.58,12.07,22.22,3.84,8.24,5.17,17.23,8.83,25.47,1.6,3.6,3.68,6.93,5.55,10.39,2.31,4.28,3.6,8.68,5.11,13.26,2.71,8.21,7.42,15.33,12.32,22.38,1.92,2.75,6.45.16,4.54-2.65-5.3-7.77-9.77-15.32-12.5-24.35-2.48-8.2-7.51-14.83-10.64-22.7-3.22-8.1-4.76-16.58-8.5-24.55-3.58-7.64-7.94-14.88-12.26-22.12-8.21-13.76-17-27.69-29.53-38-5.67-4.66-11.92-8.53-17.86-12.82-6.56-4.74-11.59-10-17-15.92a1,1,0,0,0-1.73,1Z"/><path class="cls-2" d="M535.68,543.14c-.22.08-.46.14-.67.23l-.07,0H535a4.16,4.16,0,0,0-.44.12,1,1,0,0,0-.44.62.8.8,0,0,0,.35.86,1.13,1.13,0,0,0,.65.12.82.82,0,0,0,.41-.17c.28-.21-.12.08.1-.08l.59-.41a.72.72,0,0,0-.55-1.31Z"/><path class="cls-2" d="M535.79,544.84c2.3,0,4.53.37,5.85,2.49l1.88-1.45c-1.71-1.86-4.51-3.69-7.13-3.48a1.14,1.14,0,0,0-.31,2.23,24.07,24.07,0,0,1,3.12,1,9.28,9.28,0,0,1,2.62,2c.93,1,2.64-.3,1.88-1.45-1.68-2.55-5.41-4.47-8.3-2.7a.77.77,0,0,0,.39,1.42Z"/><path class="cls-2" d="M543.49,547.68c1.18-2.93,1.75-6,2.81-9,1.17-3.29,2.91-6.47,3.66-9.88A1.07,1.07,0,0,0,548,528a50.56,50.56,0,0,0-6,19.51c-.07.9,1.16.91,1.45.2Z"/><path class="cls-2" d="M598.31,537.68c-1.45,3.72-1.67,7.85-2.54,11.73-1.4,6.19-3.46,12.21-4.88,18.41a180.12,180.12,0,0,1-15.49,42c-3.15,6.21-6.39,12.41-9.83,18.48-3.14,5.55-7.07,11.76-13.43,13.93-9.92,3.39-22.25-4-30.74-8.51-1.67-.89-3.15,1.63-1.49,2.55,8.58,4.74,19.88,11,30,9.48,13-1.9,18.88-17.15,24.16-27.27,7.44-14.27,14.44-28.93,18-44.71,2.65-11.74,7-23.81,7.57-35.94,0-.84-1.09-.87-1.36-.19Z"/><path class="cls-2" d="M563.33,450.39c-2.82-6.33-7.62-11.13-11.47-16.8-4.81-7.08-5.35-14.77-3.52-23,.42-1.88-2.47-2.68-2.89-.8-1.58,7.06-1.82,14.32,1.33,21,3.62,7.69,10.47,13.26,14,21.07.79,1.76,3.38.24,2.59-1.51Z"/><path class="cls-2" d="M603,454.71a79.62,79.62,0,0,1,3.33-8.69,26.2,26.2,0,0,1,6.71-7.25c1.07-.82,0-2.66-1.08-1.84-5.26,3.86-11.2,11.32-10.66,18.3a.89.89,0,0,0,.44.77c.71.3.92.37,1.61,0a.69.69,0,0,0-.35-1.27Z"/><path class="cls-2" d="M548.07,411.39c1.82-4.53,3.92-9,6.07-13.36.81-1.66,3.67-7.72,5.6-4.84s1.23,9,1,12.39c-.11,1.93,2.89,1.92,3,0,.23-4.09,1.18-13.64-3.31-16-2.68-1.4-5.4,1.3-6.83,3.27-3.72,5.13-6.11,11.9-8.46,17.75-.72,1.79,2.18,2.57,2.89.79Z"/><path class="cls-2" d="M563.94,406.21a15.13,15.13,0,0,1,.47-3.67l-2.95-.4a24.57,24.57,0,0,0,.22,3.54,1.54,1.54,0,0,0,1.5,1.5,1.51,1.51,0,0,0,1.5-1.5,24.57,24.57,0,0,1-.22-3.54,1.5,1.5,0,0,0-2.94-.4,19.22,19.22,0,0,0-.58,4.47,1.5,1.5,0,0,0,3,0Z"/><path class="cls-2" d="M562.93,415.38c-.39,2,.57,3.57,1.93,5,2.36,2.46,5,4.68,7.61,6.92.32.29.79-.17.47-.47-1.67-1.58-3.36-3.13-5.06-4.67s-4.84-3.69-4.35-6.61c.07-.38-.52-.55-.6-.16Z"/><path class="cls-2" d="M563.45,404.53a34.45,34.45,0,0,0,.21,11.28c.07.43.76.33.75-.1-.09-3.67-.18-7.33-.28-11a.39.39,0,0,0-.77-.1,26.25,26.25,0,0,0,1.7,17.3c.2.45,1,.13.81-.34a33.62,33.62,0,0,1-2.42-15.52c0-.43-.58-.46-.71-.1-1.3,3.59-.55,7.34.22,11l1-.27a37.08,37.08,0,0,1-1-11.59.57.57,0,0,0-1.12-.15c-.83,4.29.22,8.25,1.53,12.35a.58.58,0,0,0,1.11-.31,35.87,35.87,0,0,1,0-10.6l-1.09-.3c-.83,5.64-1.44,12.21,3.65,16.06.45.34,1-.41.6-.78-4.44-4-4-9.59-3.16-15,.11-.71-1-1-1.09-.3a38,38,0,0,0-.07,11.21l1.11-.31c-1.23-3.86-2.33-7.66-1.54-11.74l-1.12-.15A36.75,36.75,0,0,0,563,416.91c.16.64,1.12.37,1-.27-.79-3.59-1.26-6.83-.5-10.49l-.72-.1A36.52,36.52,0,0,0,565,421.81l.81-.34a26.41,26.41,0,0,1-1.7-16.65l-.78-.11.3,11,.76-.11a38.55,38.55,0,0,1-.34-11c0-.34-.56-.43-.61-.08Z"/><path class="cls-2" d="M589.88,365a21.37,21.37,0,0,0-7.14,11.4c-1,3.84-2.28,10.54-.84,14.33,3.06,8,10.83-5.3,12.54-7.9.63-1-.92-1.87-1.56-.91-1.62,2.47-2.9,5.49-5.07,7.54-4.82,4.54-4.44-2.58-4.33-5.43.27-6.81,2.24-13.32,7.67-17.76.9-.73-.38-2-1.27-1.27Z"/><path class="cls-2" d="M589.23,367.6c4.26-5.55,10.58,1.43,9.55,6.54-.23,1.13,1.5,1.61,1.73.48,1.48-7.28-7.33-15.11-12.83-7.93-.7.92.86,1.82,1.55.91Z"/><path class="cls-2" d="M602,377.75c-3.09,1.64-4.34,5.45-5.75,8.46a45.51,45.51,0,0,0-4.12,12.13c-.5,3.24.21,11.12,5.3,7.3,3.46-2.61,5.95-7.42,8.56-10.84,2-2.59,6.55-6.6,7-10,.8-6-8-8-12.15-6.79a.9.9,0,0,0,.48,1.74c2.89-.83,8.07-.44,9.38,3.07,1,2.72-1.25,4.68-2.64,6.54L599.37,401c-.8,1.09-1.61,2.17-2.44,3.24-3.41-1.21-4.53-3.31-3.33-6.32a35,35,0,0,1,1.6-5.68c1.41-4,3.59-11.1,7.31-13.6a.49.49,0,0,0-.5-.85Z"/><path class="cls-2" d="M612.67,388.84a23,23,0,0,0-8.2,7.25c-1.68,2.3-4.59,6.37-3.63,9.44.72,2.35,3.19,2.6,5.12,1.55s3.26-2.6,5.06-3.65c1.18-.69,2.65-2,4-1.19s1.06,2.34,1.49,3.7c.25.78,1.54.69,1.48-.2-.12-1.68-.08-4.71-1.82-5.6-2.13-1.08-5.71,1.56-7.34,2.68-1.24.86-5.95,5.58-6.24.39-.07-1.41,1.72-3.81,2.45-5,2.2-3.49,5.17-6,8.32-8.57.49-.4-.13-1.08-.64-.83Z"/><path class="cls-2" d="M611.56,391.75c2-1,4.5-2,6.69-.7,2.79,1.6,2.66,5.09,2,7.68-.81,3.3-2.4,6.49-3.59,9.67-.38,1,1.21,1.41,1.6.44,1.92-4.84,6.17-12.06,2.83-17.16-2.31-3.54-7.25-3.4-10.09-.64-.38.37.1.92.54.71Z"/><path class="cls-2" d="M616,403.18c-.12,1-.5,7.31,2,5.69a1.67,1.67,0,0,0,.37-2.34,7.41,7.41,0,0,0-1.27-1.17,2.52,2.52,0,0,1-.74-2.66.68.68,0,0,0-1.31-.37,3.82,3.82,0,0,0,1,3.84,7.23,7.23,0,0,0,.69.55.63.63,0,0,1,.46.72q-.11-.58-.18-1.17c-.12-1-.15-2.06-.17-3.09a.44.44,0,0,0-.87,0Z"/><path class="cls-2" d="M464.21,338.58c12.8,12.23,27.47,22.88,41.17,34.09s27.51,22.68,41.34,33.94c1,.85,2.54-.63,1.49-1.5-14.05-11.51-28.21-22.89-42.29-34.38-13.52-11-26.69-23.09-41-33.06-.54-.37-1.16.46-.69.91Z"/><path class="cls-2" d="M505.29,294.32c6.23-1.2,12.14-.17,15.36,5.9,2.79,5.26,2,11.61,1.51,17.29-1,11.81-2.58,23.51-1,35.35.25,1.89,3.25,1.91,3,0a111.11,111.11,0,0,1,0-24.86c.65-7.07,2.1-14.46,1.31-21.55-1.31-11.65-9.82-17.18-21-15-1.89.37-1.09,3.26.8,2.89Z"/><path class="cls-2" d="M468.79,340.17c-6.27-8.78-.65-20.31,5.25-27.76,1.19-1.49-.92-3.63-2.12-2.12-6.7,8.46-12.84,21.42-5.72,31.4,1.11,1.56,3.72.06,2.59-1.52Z"/><path class="cls-2" d="M464.66,337.16a111.35,111.35,0,0,0,51.26,16.62,283.29,283.29,0,0,1,31.15,3.4C557.2,358.93,567,361.93,577,364a1.12,1.12,0,0,0,.6-2.15c-17.27-6.78-37.53-9.08-55.93-10.18-9.8-.58-19.16-1.2-28.58-4.21-9.6-3.07-18.59-7.33-27.71-11.56a.72.72,0,0,0-.73,1.25Z"/><path class="cls-2" d="M518.17,294.66c9.16,9.12,18.66,17.82,27.38,27.39A371.2,371.2,0,0,1,571,353.28c.8,1.11,2.67,0,1.86-1.08-15.37-21.2-33.22-42.29-54.07-58.31-.45-.35-1,.39-.59.77Z"/><path class="cls-2" d="M565.11,419.89a233.17,233.17,0,0,0,34.52,27.3c.9.57,1.64-.79.82-1.4-11.75-8.68-23.11-17.55-34.28-27-.73-.61-1.77.39-1.06,1.06Z"/><path class="cls-2" d="M600.73,444.7l-.45-.16-.2,1.52a59.1,59.1,0,0,0,24.07-18.37c1.88-2.47,6.25-6.61,5.45-9.91-.41-1.71-2.23-2.86-3.43-4-2.59-2.43-5.21-4.82-7.82-7.22-1.2-1.11-3,.65-1.8,1.8,1.85,1.8,3.7,3.6,5.56,5.38.89.86,3.83,2.74,4.21,4,1,3.25-5,9.23-7,11.57-5.7,6.73-13,10.43-20.25,15.09a1,1,0,0,0,.23,1.76l.68.22a.8.8,0,0,0,.79-.21l.5-.48c.47-.44,0-1.06-.57-1Z"/><path class="cls-2" d="M594.5,382.6c.44.35.87.72,1.28,1.1a4.14,4.14,0,0,0,1.37,1.1.78.78,0,0,0,1-.95,3.15,3.15,0,0,0-1.15-1.44,11.31,11.31,0,0,0-1.46-1.09c-.76-.5-1.73.7-1,1.28Z"/><path class="cls-2" d="M577.24,363.56a29.21,29.21,0,0,1,3.78,4.08c1,1.31,1.67,2.85,2.71,4.12.51.62,1.48-.05,1.29-.75-.91-3.37-4.25-6.53-6.91-8.58-.64-.49-1.46.58-.87,1.13Z"/><path class="cls-2" d="M572.27,353.12c-2.43,1.28-1.11,5.14,0,6.95a5,5,0,0,0,3.32,2.22c1.4.36,2.76.21,4.07,1a6,6,0,0,1,2.66,5.3.53.53,0,0,0,1.06,0,6.61,6.61,0,0,0-3.15-6.28,9.24,9.24,0,0,0-3.61-1,4.8,4.8,0,0,1-4-2.83c-.69-1.37-1.39-3.68,0-4.95.26-.23-.07-.61-.35-.46Z"/><path class="cls-2" d="M573.51,353.33c5.42-3.44,11.07.24,11.26,6.4.12,4-.77,8.22-1.25,12.21-.11.84,1.22.84,1.32,0,.62-5.41,3.22-13.94-.9-18.56a7.78,7.78,0,0,0-10.85-.6c-.3.26.09.76.42.55Z"/><path class="cls-2" d="M599.79,373a21.23,21.23,0,0,1-.74,7.61l.77.11c0-2.71,0-5.41,0-8.12a.43.43,0,0,0-.86,0c0,2.71,0,5.41,0,8.12a.39.39,0,0,0,.76.1,18.36,18.36,0,0,0,.6-7.9c0-.34-.63-.26-.61.08Z"/><path class="cls-2" d="M594.44,382.91a15.58,15.58,0,0,1,3.09-4.82.51.51,0,0,0-.72-.72,39.41,39.41,0,0,0-4.35,5l.9.53,2.65-5.19-.9-.53-1.72,3.77c-.21.47.41,1.09.79.61l2.69-3.39-.84-.34-.2.59c-.4.48.28,1.16.69.69a1.79,1.79,0,0,0,.49-1.28c0-.4-.56-.69-.83-.35l-2.71,3.37.79.61,1.75-3.75c.27-.6-.59-1.13-.9-.53q-1.33,2.6-2.65,5.19a.52.52,0,0,0,.9.53,37.8,37.8,0,0,1,4.17-4.77l-.72-.72a10.94,10.94,0,0,0-3,5.25c-.08.39.5.69.68.29Z"/><path class="cls-2" d="M611.23,391.61c2-2,5.07-3.17,7.75-1.6s3.25,4.84,2.48,7.55a.34.34,0,0,0,.62.26A6.64,6.64,0,0,0,619.6,389c-2.94-1.71-7.27-.84-9,2.19a.39.39,0,0,0,.61.47Z"/><path class="cls-2" d="M576.93,352.15c-2.33,1-7,2.13-6.67,5.59.25,2.83,3.42,3.51,5.69,3.77v-1.06c-1.15-.11-3-.36-3.92-1.16-2.11-1.84-2-3.18.05-4.79a14.07,14.07,0,0,1,5.42-2.32l-.46-1.1c-1.87,1-3.83,1.89-5.64,3-.56.34-1.42.63-1.73,1.29-.82,1.73,1.34,2.95,2.27,3.91l.83-.83-1.92-1.57a.58.58,0,0,0-.91.7A6,6,0,0,0,574,361.1c.6.18,1-.75.43-1-1.64-.78-2.26-.89-2-2.9s1-2.38,2.58-3.34c3.22-1.95,7.78-1.87,9.33,2.19s-.36,9.75-1.06,13.92c-.11.65.89.94,1,.28.94-5.46,4.92-18.11-4.15-19-3.15-.3-7.47,1.67-9.15,4.44-1.55,2.55.7,4.31,2.88,5.36l.44-1a4.53,4.53,0,0,1-3.39-3l-.91.7,1.91,1.58c.57.47,1.36-.28.83-.83a3.84,3.84,0,0,0-.83-.83q-1.73-2.34.7-2.83c1.14-1.14,3.58-1.9,5-2.66a.6.6,0,0,0-.46-1.1c-2.6.67-8,2.41-8.32,5.8-.33,3.16,4.83,4.4,7.08,4.69.59.08.73-.95.14-1a17.48,17.48,0,0,1-2.16-.4q-3-4.71.42-5.72c.87-.65,2-.92,3-1.55a.38.38,0,0,0-.39-.65Z"/><path class="cls-2" d="M573.28,360.79c1.83.89,3.85,1.28,5.6,2.36a9.31,9.31,0,0,1,3.61,4.37c.21.46,1.06.25,1-.27-.57-4.41-6.08-6.86-10-7.22a.41.41,0,0,0-.21.76Z"/><path class="cls-2" d="M562.16,394.18a82.19,82.19,0,0,0-.07,17.74l1.11-.15a37.24,37.24,0,0,1-1.35-11,.58.58,0,0,0-1.16,0,94.67,94.67,0,0,0,.37,11.79c.07.83,1.32.86,1.3,0q-.08-6.42-.17-12.86a.69.69,0,0,0-1.37,0,52.39,52.39,0,0,0,2.52,18.73.68.68,0,0,0,1.32-.36,68.19,68.19,0,0,1-1.88-11.88.69.69,0,0,0-1.37,0,56.09,56.09,0,0,0,1.31,12.39c.2.91,1.6.52,1.4-.39-.54-2.46-1.06-4.93-1.54-7.4-.14-.74-1.29-.56-1.28.17a47.1,47.1,0,0,0,.61,6.82c.12.78,1.49.61,1.39-.18l-.77-6.31-1.46.19.53,3.59a.76.76,0,0,0,1.27.33,1.56,1.56,0,0,0,.51-1.49h-1.54a47.91,47.91,0,0,0,2.31,10.59c.32.95,1.83.54,1.51-.41A46.6,46.6,0,0,1,563.38,414c-.11-1-1.64-1-1.54,0l-.16.57,1.39.18-.57-3.57c-.13-.82-1.56-.63-1.45.2l.83,6.31,1.39-.19a52.22,52.22,0,0,1-.66-6.45l-1.29.17c.51,2.48,1,5,1.4,7.45l1.4-.39a53.26,53.26,0,0,1-1.34-12h-1.37a70.41,70.41,0,0,0,1.93,12.24l1.32-.36a52,52,0,0,1-2.47-18.37h-1.37l.24,12.86h1.3a113.17,113.17,0,0,1-.51-11.79h-1.16a42,42,0,0,0,1.42,11.26c.16.6,1.18.5,1.11-.15a109.49,109.49,0,0,1-.33-17.74c0-.48-.68-.46-.73,0Z"/><path class="cls-2" d="M540.46,540.21c-8.32-5.56-15.75,3.07-19.9,9.45-5.49,8.4-5.66,19.14-5.64,28.86,0,18.81,4,41.49-6.09,58.53-5.07,8.6,8.21,16.32,13.36,7.8,9.42-15.56,8.11-32.64,7.55-50.08-.29-9.37-1-19,.13-28.3.68-5.37,3.4-14.39,9.23-15.85,5-1.25,5.27-7.8,1.36-10.41Z"/><path class="cls-2" d="M544.31,539.22a221.05,221.05,0,0,0-9.68,31.35c-2.2,9.3-3.9,19.29-2.56,28.84.12.81,1.46.62,1.43-.19a100.2,100.2,0,0,1,3.7-30.85c2.61-9.63,6.08-19.1,8.13-28.87a.53.53,0,0,0-1-.28Z"/><path class="cls-2" d="M284.91,480.1c-5.45,12.25-8.29,26-12.19,38.83q-6.3,20.69-13.21,41.16-13.77,40.47-29.6,80.21c-1.34,3.36,4.1,4.83,5.42,1.49Q251,602,264.25,561.4q6.54-20.1,12.64-40.32c3.91-13.07,8.95-26.72,10.51-40.31a1.35,1.35,0,0,0-2.49-.67Z"/><path class="cls-2" d="M539.94,666.13A40.38,40.38,0,0,1,519.87,681c-9.9,3.34-20.1-.37-29.33-4.06-1.07-.43-1.54,1.31-.47,1.74,10.13,4,21.08,7.69,31.77,3.5A42.8,42.8,0,0,0,541.49,667c.68-.94-.88-1.84-1.55-.91Z"/><path class="cls-2" d="M208,644.27c5.17.26,10.14-.68,15.26-1.18,5.78-.56,11.64.13,17.41.55,11.48.83,22.94,1.9,34.4,2.88,22.76,2,45.86,3.86,68.7,2.15C365.79,647,387.92,646.2,410,645a33.42,33.42,0,0,1,8.05.38c2.38.44,4.77,1.92,7.06,2.26,3.56.53,8.33-1.64,11.9-2.33a162.78,162.78,0,0,1,33.63-2.82,175.46,175.46,0,0,1,37.44,4.62c10.71,2.54,20.62,7,30.58,11.52,1.74.79,3.27-1.8,1.51-2.59-3.77-1.71-7.4-3.69-11.21-5.33-4.5-1.93-9.31-3-13.94-4.59-9.68-3.41-20.22-4.84-30.4-5.83a172,172,0,0,0-33.42,0q-7.54.75-15,2.17c-2.41.46-4.78,1.11-7.18,1.56-3,.57-4.2.09-7.06-.75-9.8-2.9-20.81-.53-30.83,0-11.41.57-22.83.94-34.23,1.58a518.67,518.67,0,0,1-70.08-.29c-13.11-1-26.2-2.28-39.31-3.32-6.8-.54-13.76-1.39-20.59-1.31-6.38.09-12.55,1.74-19,1.42-1.93-.09-1.93,2.91,0,3Z"/><path class="cls-2" d="M515.59,683.91c1.63,1.61,1.71,4.52-.74,5.21a9,9,0,0,1-3,0c-3.66-.28-7.33-.74-11-1.26-5.92-.86-11.73-2.12-17.57-3.37a.89.89,0,0,0-.48,1.72,158.68,158.68,0,0,0,17.54,3.51c4.63.69,10,2,14.62,1.39,5.51-.73,5.85-5.52,1.42-8.24a.68.68,0,0,0-.82,1.07Z"/><path class="cls-2" d="M514,689.92q1.15,4.43-1.77,4.88a7.82,7.82,0,0,1-1.93.35,37.86,37.86,0,0,1-4.52.32c-3.05.09-6.11,0-9.16-.2-6.6-.47-12.86-1.9-19.3-3.3a.86.86,0,0,0-.45,1.65A75.39,75.39,0,0,0,510.57,697c2.42-.37,5.66-1.11,6.62-3.7.87-2.38-.55-3.87-2.67-4.56a.67.67,0,0,0-.51,1.22Z"/><path class="cls-2" d="M486.44,695.49c6.83,6.75,16.93,7.79,26.08,8.07,2.53.07,5,0,7.56,0,2.33,0,8.16-1.26,3.58,2.35-5.44,4.31-14.75,5-21.36,4.68-28.18-1.16-50.8-22.88-79.18-23.42a1.16,1.16,0,0,0,0,2.32c22.34.44,40.73,14.13,61.62,20.06,8.59,2.44,17.81,3.8,26.71,2.45,4.66-.7,17.05-3,16.05-9.68a1,1,0,0,0-1-.72c-13.14-.54-28.24,1.5-39.36-7.07-.57-.44-1.24.49-.75,1Z"/><path class="cls-2" d="M268.21,707.1c-16.12-.28-32.22,1.53-48.34.42a96.41,96.41,0,0,1-23.58-4.38c-6.78-2.24-14.09-7.27-21.44-6.44-2.11.24-2.78,3.18-.52,3.87,3.95,1.19,7.83,2,11.69,3.55a120.78,120.78,0,0,0,11.56,4.2,104.66,104.66,0,0,0,21.4,3.47c16.35,1.1,32.93-.22,49.23-1.55a1.57,1.57,0,0,0,0-3.14Z"/><path class="cls-2" d="M309.15,400.77l-.09,0a.59.59,0,0,0-.72.73c1.84,6.26,9.15,10.38,13.63,14.55,10,9.37,20.94,18.24,33.24,24.52s26.39,9.5,40.17,6.1a43.63,43.63,0,0,0,29.26-23.76c7-15.24,3.4-32.62-4.65-46.68a1.42,1.42,0,0,0-2.44,1.44c9.77,16.68,12.31,37.86-.94,53.5-11.16,13.17-29.51,17.23-45.85,13.11-17.15-4.34-32.25-15.8-45.13-27.48-3.35-3-6.56-6.39-10.21-9.07-2.39-1.75-4.79-3.85-6-6.69l-.67.87.09,0a.59.59,0,0,0,.31-1.13Z"/><path class="cls-2" d="M247.34,596.65l1.84,1,1.16-1.52c-20.13-7.24-41.54-18.4-63.2-10.33-1.17.44-1.12,2.44.32,2.34a114.62,114.62,0,0,1,55.3,10.07l.94-2.25a391.23,391.23,0,0,0-49.29-13.58l-.34,2.49a152.51,152.51,0,0,1,55.2,15.51l1-2.4c-19.19-5.57-37.52-15.85-58-15a1.31,1.31,0,0,0,0,2.62,234,234,0,0,1,26.25,5c7.79,2,15.3,4.89,23.06,6.85a1.3,1.3,0,0,0,.69-2.51c-8.37-2.12-16.45-5.26-24.87-7.3A243.58,243.58,0,0,0,192.25,583v2.62c20.25-.89,38.39,9.36,57.33,14.86,1.4.4,2.37-1.73,1-2.4a155.65,155.65,0,0,0-56.53-15.78,1.27,1.27,0,0,0-.33,2.49,391.24,391.24,0,0,1,49.31,13.51c1.3.45,2.22-1.67.95-2.24a116.93,116.93,0,0,0-56.54-10.33l.31,2.34c21.15-7.93,42.27,3.15,62,10,1.08.38,1.58-1,1-1.72a2.86,2.86,0,0,0-3.65-1.12c-.72.21-.63,1.46.19,1.38Z"/><path class="cls-2" d="M260.5,553.35c-11.43-5.07-24-7.53-36.39-8.65-1.4-.13-1.74,2.24-.33,2.48,12.45,2.14,24.87,4.4,36.66,9.1,1.37.55,2.34-1.75,1-2.4a105,105,0,0,0-38.37-10.21c-1.45-.1-1.81,2.34-.34,2.58,12,2,24,4.1,35.07,9.22a1.31,1.31,0,0,0,1.32-2.27,22.73,22.73,0,0,0-9.95-3.81c-1.48-.21-2.17,2-.63,2.3a24.79,24.79,0,0,1,9.26,3.78l1.32-2.27c-11.32-5.22-23.48-7.44-35.7-9.48l-.35,2.58a101.34,101.34,0,0,1,37,9.85l1-2.4c-11.78-4.7-24.23-6.91-36.68-9l-.34,2.49c12.34,1.08,23.9,4.15,35.68,7.81,1,.31,1.68-1.26.71-1.69Z"/><path class="cls-2" d="M265.65,541.33l0,.12.29-.48a1.72,1.72,0,0,0-.45.68c0,.11-.05.24-.08.35l-.17.83a1.52,1.52,0,1,0,2.94,0L268,542c0-.11,0-.24-.07-.35a2,2,0,0,0-.45-.68l.28.48,0-.12a1.06,1.06,0,0,0-2,0Z"/><path class="cls-2" d="M263.71,552.25a90.86,90.86,0,0,0,2.65,24.14c2,7.62,5.59,14.76,6.77,22.59,1.13,7.53,1.51,17.13-.75,24.46-2,6.35-7.51,10.49-9.3,17-.76,2.79,3.62,4,4.34,1.19,1.67-6.43,7.19-10.68,9.05-17.07,2.1-7.18,1.7-16,1-23.31-.74-7.68-3.72-14.52-6.07-21.78a89.42,89.42,0,0,1-4.12-27.23,1.79,1.79,0,0,0-3.57,0Z"/><path class="cls-2" d="M309.34,409.75l-.09,0c-.44-.17-.84.32-.73.72,1.69,6.52,9.82,11.11,14.38,15.35,10.68,9.93,22.15,19.35,35.15,26.11s27.84,10.4,42.53,7.12a46.81,46.81,0,0,0,32-24.83c8-16.44,4.15-35.47-4.61-50.74a1.42,1.42,0,0,0-2.45,1.43c7.83,13.35,12,29.84,6.41,44.84-5.17,14-17.64,23.88-32,27.12-28.31,6.41-54.9-13.23-74.49-31.3a119.82,119.82,0,0,0-9.73-8.56,24.72,24.72,0,0,1-2.11-1.47,22.08,22.08,0,0,1-2.54-3.22,5.21,5.21,0,0,0-.7-1c-1.15-1,.28,0-1.39-.44a.59.59,0,0,0,.32-1.13Z"/><path class="cls-2" d="M209.82,581.91l-1.24-2.39a3.68,3.68,0,0,0-5.76-.74,6.91,6.91,0,0,0-1.75,6.64c.55,3,4.39,3.4,6.35,1.68a59,59,0,0,0,12-15.11l-7.61-4.44c-1.49,3.1-3,6.2-4.5,9.3a4.52,4.52,0,0,0,7.8,4.56,80.09,80.09,0,0,0,8.16-15l-9-2.49a55,55,0,0,1-4.71,12l8.08,4.72q5.26-12,11.58-23.36l-8.5-3.59-8.85,22.66,8.93,2.46c2.32-8.93,4.76-18.12,11.83-24.54l-7.7-4.48a86.14,86.14,0,0,1-8.75,23.94l8.25,3.48a60.91,60.91,0,0,1,11-19.78l-7.31-4.26a91.33,91.33,0,0,1-8.51,21.78l7.92,3.33a67.57,67.57,0,0,1,11.25-21.65l-7.35-3.05a35.2,35.2,0,0,1-5.58,20.12l7.82,3.3a92.47,92.47,0,0,1,8-19.87l-6.68.86c.95,1.18-2,9.12-2.39,10.34a90.34,90.34,0,0,1-4.25,11.37l7.72,3.26a107.42,107.42,0,0,1,4.42-13.11q1.29-3.07,2.78-6c.54-1.07,1.1-2.14,1.67-3.19,1.46-1.47,1.18-2.07-.82-1.8l-1.93-2.51c.31,1.23-1.24,4.49-1.62,5.74-.57,1.86-1.15,3.73-1.74,5.59-1.38,4.33-2.83,8.65-4.3,12.95s5.6,7.51,7.6,3.21A169.26,169.26,0,0,1,254.7,561h-6.83c1.4,2-3.06,10.12-3.84,12.26l-4.94,13.44c-1.61,4.39,5.66,7.52,7.63,3.21l12.72-27.78-7.78-3.28a90.42,90.42,0,0,1-9.07,28.59l7.23,4.23a187.6,187.6,0,0,0,9.95-28.1l-8-2.19A56.85,56.85,0,0,1,248,574.42c-1.37,3.14-3.12,7.66-5.67,10q-.83,2.26-1.29.66c-1.11-.46-2.23-.88-3.37-1.27q-2.57-.87-5.19-1.48a63.89,63.89,0,0,0-13.78-1.54c-5.42,0-7,8.76-1.32,9.73,6.13,1.06,12.29,1.95,18.44,2.89l1.34-9.85A16.42,16.42,0,0,1,225.77,580l-2.21,8.39a34.44,34.44,0,0,1,8.36-.67,29.08,29.08,0,0,1,4,.42,17.33,17.33,0,0,1,1.74.36c1,.2,1.15.26.45.16l-1.48-3.55-.11.91L238,582.5c1.17-1-2.47-.76-3.34-.9a60.77,60.77,0,0,1-6-1.28,62.62,62.62,0,0,1-11-4.07l-3.89,9.23,8.4,2.77,1.34-9.94c-1.55-.1-5.45-.12-6.6-1.51l1.48,3.58c0-.45,4.08-3.67,4.77-4.22a36.14,36.14,0,0,1,22.37-8c5.54-.11,7.08-8.65,1.34-9.94a25.49,25.49,0,0,1-12.67-6.83l-3.62,8.74a33.09,33.09,0,0,1,18.78,3.26l4-9.45a63.91,63.91,0,0,1-14.87-5.57l-1.24,9.48a14.88,14.88,0,0,1,12.39,3.52l5.06-8.68a73.29,73.29,0,0,1-12.37-3.78l-1.37,10.17A14.86,14.86,0,0,1,251,562.38c5.32,4,10.45-5,5.2-8.9a24.06,24.06,0,0,0-15.27-4.77c-6.19.15-6.58,8-1.38,10.17a73.32,73.32,0,0,0,12.36,3.82c4.7,1,9.21-5,5.05-8.68a26,26,0,0,0-22.5-6.19c-4.4.79-5,7.51-1.24,9.49a74.82,74.82,0,0,0,17.36,6.58c5.48,1.32,9.41-6.72,4-9.45a42.32,42.32,0,0,0-24-4.57c-4.15.45-7.08,5.4-3.62,8.74A35.86,35.86,0,0,0,244.17,568l1.35-9.94a47.32,47.32,0,0,0-30.72,12c-3.4,3.05-8.51,7.88-5.85,12.91,2.45,4.64,10,5.23,14.55,5.5,5.92.35,6.58-8.24,1.35-9.94l-8.4-2.75c-5.37-1.75-9.11,6.75-3.9,9.24a73.2,73.2,0,0,0,17.67,6c4.59.88,12,2.79,15.23-1.91s-.57-9-5.17-10.25c-6.33-1.69-13-1.36-19.39-.11-3.5.69-5.1,6.07-2.21,8.39a27.11,27.11,0,0,0,18.52,6.42c5.35-.2,7.17-9,1.33-9.85-6.59-1-13.18-2.06-19.79-3v9.91A53.19,53.19,0,0,1,237,593.22c4.32,1.4,7.79,2,11.08-1.71,6.61-7.39,10.17-18.41,11.72-28,.83-5.12-6.55-7.44-8-2.19a170.54,170.54,0,0,1-9.22,26.06c-2.17,4.82,4.68,9.08,7.23,4.23a94.09,94.09,0,0,0,10.05-30.56c.6-4.27-5.6-8.12-7.79-3.28q-6.29,13.94-12.57,27.87l7.63,3.22,6.63-18.9c1.47-4.17,3.83-8.94.93-13-1.75-2.44-5.13-2.64-6.83,0a214.06,214.06,0,0,0-13,22.59l7.6,3.21c2.6-7.34,5.15-14.76,7.22-22.27,1.14-4.12,1.21-10.12-4.71-10-5.45.1-7.89,6.59-9.85,10.65a115.36,115.36,0,0,0-7.29,19.54c-1.23,4.47,5.69,7.73,7.73,3.26a103.32,103.32,0,0,0,6.3-17.65c1.27-5.14,2.62-9.94-.95-14.34-1.72-2.13-5.47-1.36-6.68.86a102.86,102.86,0,0,0-8.91,21.89c-1.32,4.75,5.25,7.35,7.82,3.29a43.47,43.47,0,0,0,6.8-24.44c-.07-3.37-4.91-6.14-7.35-3a78.92,78.92,0,0,0-13.51,25.44c-1.47,4.68,5.56,7.65,7.92,3.34a104.8,104.8,0,0,0,9.45-23.82c1.06-4-4.35-7.7-7.3-4.25a72.54,72.54,0,0,0-13.57,23.56c-1.7,4.87,5.77,7.89,8.25,3.48a91.47,91.47,0,0,0,9.83-26,4.64,4.64,0,0,0-7.69-4.48c-8.25,7.47-11.51,18.14-14.25,28.59-1.54,5.89,6.8,7.89,8.93,2.46l8.89-22.65c1.94-5-6-8.11-8.5-3.58q-6.34,11.41-11.63,23.34c-2.37,5.37,5.16,10.13,8.08,4.72a66.57,66.57,0,0,0,5.67-14.18c1.61-6-6.83-7.93-9-2.49a73,73,0,0,1-6.92,12.93l7.8,4.56q2.15-4.71,4.31-9.42c2.35-5.1-5.2-9.59-7.61-4.44A56,56,0,0,1,202,581.72l6.36,1.68.18-.18h-6.33l1.42,2.29c2.43,3.91,8.25.48,6.15-3.6Z"/><path class="cls-2" d="M258.38,562.44a10.53,10.53,0,0,0,2.3-1.15c3.78-2.57.43-8.51-3.62-6.19-6.65,3.82-9.61,11.45-11.62,18.56a101.15,101.15,0,0,0-2.56,11.92c-.56,3.59-1.77,7.77-.52,11.26a3.85,3.85,0,0,0,6.94.9c1.72-2.88,1.51-6.22,1.89-9.49a72.79,72.79,0,0,1,1.75-10.17c1.81-6.9,5.7-12,9-18.08l-6.67-1.81a10.61,10.61,0,0,0,.26,2.64,2.31,2.31,0,0,0,2.83,1.61Z"/><path class="cls-2" d="M571.09,636.72a11.14,11.14,0,0,0,1.45-1.75L564,633.85c6.51,34.63,5.16,69.26-6.85,102.59l9.87,2.73a238.83,238.83,0,0,0,4.67-102.63c-1.09-6.35-10.74-3.65-9.67,2.67a227.2,227.2,0,0,1-4.87,97.23c-1.75,6.45,7.66,8.84,9.87,2.73,12.3-34,15.47-72.69,6-107.8-1.09-4-6.4-4.41-8.55-1.12l-.38.59c-2.13,3.26.77,6.62,4,7a4,4,0,0,0,3-1.12Z"/><path class="cls-2" d="M484,710.8c-5.1,3.51-9.06,9-13.35,13.42-4.48,4.66-8.81,9.46-13.34,14.08l10,10c8.36-9,16.77-18.33,21.63-29.78,3.57-8.39-7.44-15.51-12.55-7.34a100.45,100.45,0,0,1-28.52,29.91c-7.73,5.27-.43,17.95,7.38,12.63A115,115,0,0,0,489,718.5l-13.28-5.6c-4,9.74-11.37,17.69-18.33,25.4-6.07,6.71,3.65,16.58,10,10,4.69-4.89,9.38-9.81,13.64-15.09,4-5,8.83-10.1,11.33-16,1.89-4.5-4.44-9-8.26-6.35Z"/><path class="cls-2" d="M339.83,704l2,10.44c.47,2.43,4.15,1.39,3.71-1l-1.91-10.47c-.45-2.48-4.27-1.44-3.8,1.05Z"/><path class="cls-2" d="M341.46,714.74c-.14,2-.27,4.06-.41,6.09s-.68,4,0,5.9a2.55,2.55,0,0,0,4.88,0c.7-1.83.17-4,0-5.9s-.27-4.06-.41-6.09a2.06,2.06,0,0,0-4.12,0Z"/><path class="cls-2" d="M343.94,693.9c-.15,11.67.08,23.3.76,35,.2,3.46,5.41,3.52,5.42,0l.05-21.05c0-3.39,1.54-10.61-1.94-12.81a3.16,3.16,0,0,0-4.27,1.12,5.67,5.67,0,0,0-.74,2.68c-.37,3.6,5.51,4.35,6.29.85.35-1.56.7-3.11,1-4.67L343.6,694q.9,26.65,1.1,53.36c0,4.76,7.39,4.77,7.41,0,.05-17.82-.44-35.57-1.47-53.36-.26-4.58-6.61-4.48-7,0-.16,1.59-.27,3.17-.38,4.76h6.41l-.28.47-4.27,1.12c-1.83-.81-.86,4.26-.84,5.5l.15,7.66.31,15.31h5.42q-1.41-17.45-2-35c-.09-2.71-4.19-2.73-4.22,0Z"/><path class="cls-2" d="M339.49,694.13c-.4,12.57-.51,25.15-.94,37.73-.15,4.43,6.33,4.24,6.78,0,.75-7.11,1.29-14.25,1.89-21.37h-7L339,741.38c-.18,4.59,7,4.58,7.12,0l1.08-30.89c.16-4.55-6.64-4.44-7,0-.58,7.12-1.23,14.24-1.67,21.37h6.78c-.14-12.6-.41-25.17-1.43-37.73-.23-2.8-4.31-2.87-4.41,0Z"/><path class="cls-2" d="M539.35,658.77l-.86,1.26,1.69.71.29-.52-1.47-.84c-.61,4.58-9.56,5.08-12.77,4.89a44.48,44.48,0,0,1-11.64-2.7c-6.4-2.17-12.58-4.51-19.44-4.38a1.17,1.17,0,0,0-.58,2.16c7.28,4.7,16.35,13.06,25.55,13.08,4,0,11.89-2.6,12.45-7.28.21-1.66-2.43-1.66-2.62,0s-3.8,3-5.11,3.62c-4.34,2-8.56,1-12.65-1.1-5.71-2.94-11-6.86-16.45-10.32l-.59,2.16c10.39-.22,19.32,5.76,29.48,6.85,5,.54,15.82-.23,16.32-7a1,1,0,0,0-1.47-.85c-.8.61-.94.71-1.09,1.72s1.13,1.7,1.69.72l.77-1.32a.87.87,0,0,0-1.5-.88Z"/><path class="cls-2" d="M539.47,658.17v.07c-.28,2.06,2.78.78,1.51-.4l-.06-.05c-.42-.39-1.34-.3-1.44.38Z"/><path class="cls-2" d="M539.86,668.44a13.75,13.75,0,0,0,2.53-4.78.33.33,0,0,0-.61-.25q-2.61,4.14-5.2,8.29c-.23.37.33.82.61.47a26.61,26.61,0,0,0,5-8.86c.14-.44-.57-.76-.77-.32a39.71,39.71,0,0,1-4.65,7.67c-.32.42.34.87.7.54,3.91-3.57,6.33-8.22,5.71-13.61a.56.56,0,0,0-.7-.53,19.53,19.53,0,0,1-4.75.68l.17,1.24c1.87-.56,5.53-1.91,5.07,2.34-.11,1.06-1.47,2.69-2,3.6a66.38,66.38,0,0,1-5.7,7.55c-.49.59.3,1.42.85.86a44.87,44.87,0,0,0,5.14-6.43c1.23-1.83,3.15-4.28,3.48-6.54.6-4.14-4.75-3.34-7.15-2.6a.64.64,0,0,0,.17,1.25,21.14,21.14,0,0,0,5-.88l-.7-.54c.68,5.15-1.52,9.54-5.24,13l.7.54a39.71,39.71,0,0,0,4.6-7.7l-.76-.32a25.45,25.45,0,0,1-4.73,8.53l.61.47q2.57-4.15,5.1-8.35l-.61-.25a13.16,13.16,0,0,1-2.35,4.59c-.2.27.26.62.47.36Z"/><path class="cls-2" d="M472.2,336.43a13.07,13.07,0,0,1-4.32-5.21c-.21-.42-.81-.05-.63.37a24.27,24.27,0,0,0,8.82,10.71c.35.24.8-.33.46-.61-4.13-3.32-9.23-7.45-9-13.33s4.92-7.33,9.89-5.59a8.13,8.13,0,0,0,2.52.88c2.39,0,2-1,3.31-2.25,8.72-7.83,6.22-1.72,12.29-.25a3.68,3.68,0,0,0,3.81-.82c2.42-2.29,3.53-5,7.72-4,3.15.72,5,3.3,6.06,6.12,1.42,3.76.47,8,2.06,11.66,1.76,4.07,4.39,6.55,4.71,11.35,0,.87,1.42.88,1.36,0a17.89,17.89,0,0,0-2-7.54c-.64-1.16-1.57-2.12-2.23-3.26-1.48-2.59-1.19-5.25-1.54-8.06-.55-4.36-2.35-9.25-6.75-11-3.49-1.4-6.31-.37-8.91,1.95a5.41,5.41,0,0,0-.85,1.4q-4.34,1.42-7-1.33c-.93-.46-1.41-1.15-2.47-1.49a5.52,5.52,0,0,0-4.3.42,5.76,5.76,0,0,0-2,1.82c.2-.3-1.27,3-.92,2.7-2.67,2.27-5.47-.32-8.11-.5-3.75-.26-6.85,2.95-7.43,6.45-.84,5,2.72,10.41,6.68,13.18,3.34,2.33-.32-1.13-1-1.89-.12-.13-3.83-5.62-3.88-5.61-1.53.11,2.67,3.82,3.39,4.33.33.23.63-.3.31-.54Z"/><path class="cls-2" d="M505.22,293.14c5.11,2.15,9.22,5.63,10.75,11.11a.9.9,0,0,0,1.74-.48c-1.72-6.14-6.29-10-12-12.37-1.07-.45-1.53,1.29-.48,1.74Z"/><path class="cls-2" d="M474.54,311.59c2.09-5.84,2.41-12.54,5.54-18,5.48-9.51,17.41-5.75,24.09.08.87.76,2.15-.51,1.27-1.27-5.75-5-16.09-9.55-23.26-4.31-6.75,4.93-6.82,15.83-9.38,23-.39,1.1,1.35,1.57,1.74.48Z"/><path class="cls-2" d="M481.75,319.77a13.51,13.51,0,0,1-6.94-8.17c-.36-1.1-2.1-.63-1.74.48a15.37,15.37,0,0,0,7.77,9.25c1,.5,2-1.05.91-1.56Z"/><path class="cls-2" d="M463.66,332.06c-.63,3.16.95,5.37,2.08,8.17.34.85,1.74.47,1.38-.38-1.05-2.53-2.68-4.75-2.33-7.63.08-.64-1-.79-1.13-.16Z"/><path class="cls-2" d="M463.3,333c.38,4.93,1.61,8.25,5.41,11.53s7.8,5.3,11.85,7.93c.81.51,1.6-.62,1-1.29-2.58-2.79-6.66-4-9.66-6.41a24.81,24.81,0,0,1-4.56-4.24c-1.69-2.24-2.26-5-2.76-7.69a.65.65,0,0,0-1.27.17Z"/><path class="cls-2" d="M523.36,305.14c-5.15-5-12-.5-17.09,2.12-4.81,2.48-10.5,6.62-9.19,12.65.31,1.47,2.56.85,2.25-.62-1.32-6.09,6.59-8.92,10.63-11,1.79-.92,3.52-2.38,5.48-2.92,2.57-.7,4.82.19,7.19,1a.75.75,0,0,0,.73-1.25Z"/><path class="cls-2" d="M512.73,640.85v-.59a.7.7,0,0,0-.69-.69c-.78-.05-1.19.41-1.71.93-.88.86-1.68,1.8-2.5,2.72s.45,2.08,1.26,1.26a8.31,8.31,0,0,0,2.11-3.52.91.91,0,0,0-1.51-.88l-3.2,3.37,1.51,1.17a22.11,22.11,0,0,0,2.39-4.57c.41-1.19-1.24-1.66-1.89-.8l-3.33,4.48,1.77,1c1.09-1.76,2.18-3.53,3.29-5.29.61-1-.85-2.15-1.63-1.25-1.45,1.69-3,3.34-4.33,5.1-.82,1,.55,2.51,1.49,1.49,1.5-1.64,2.88-3.42,4.31-5.13l-1.63-1.25q-1.62,2.66-3.27,5.3c-.71,1.15,1,2.06,1.77,1,1.11-1.49,2.23-3,3.34-4.47l-1.88-.79a19.51,19.51,0,0,1-2.06,4.14c-.56.93.77,2,1.51,1.17l3.12-3.45-1.51-.88a6.41,6.41,0,0,1-1.63,2.74l1.26,1.26c.51-.61,1-1.21,1.53-1.83.27-.33,1.06-1.69,1.42-1.71l-.69-.68.05.59a.66.66,0,0,0,1.32,0Z"/><path class="cls-2" d="M520.09,643.21a11.46,11.46,0,0,1-2,4.12l1.62.95c.84-1.65,1.71-3.28,2.51-4.94l-2-.82a11.41,11.41,0,0,1-.71,2.47,10.41,10.41,0,0,0-1.06,2.24,1,1,0,0,0,1.39,1.07c1.52-.93,2.16-3.57,2.44-5.21.19-1.1-1.39-2-2-.83-.8,1.68-1.53,3.38-2.29,5.07a.94.94,0,0,0,1.62.95,8.66,8.66,0,0,0,1.54-4.92.59.59,0,0,0-1.15-.15Z"/><path class="cls-2" d="M493.46,713.36l.61-1.1a.72.72,0,0,0-1.24-.73c-.52.91-1,1.84-1.47,2.77a.85.85,0,0,0,1.47.85c.46-.62.87-1.29,1.3-1.94l-1.6-.94a32.49,32.49,0,0,1-1.83,3.39l1.64,1a20.52,20.52,0,0,1,2.46-4.16l-1.64-1c-.87,2-1.64,4-2.48,6l1.49.63c.8-1.87,1.69-3.71,2.66-5.5l-1.66-.7a15.71,15.71,0,0,1-2.75,4.82l1.58.92c.49-1.6,1.46-3.17,1.5-4.88,0-1.4-.74-1.41-1.86-1.49l.95.73,0-.15-.1.76c.74-1.26.2-1.94-1-2.64a1.09,1.09,0,0,0-1.1,1.88,11.18,11.18,0,0,0,2.13.93l.59-2.14c-1.12-.25-2.18-.64-3.27-.18a1.15,1.15,0,0,0-.41,1.57c.58,1,1.9,1.35,3,1.71a1.1,1.1,0,0,0,.84-2,20.22,20.22,0,0,1-2.75-1.74l-.6,2.2a8.65,8.65,0,0,1,1.75.37,1.19,1.19,0,0,0,.91-2.16,4.71,4.71,0,0,0-2.43-.84,1.24,1.24,0,0,0-1.09.62c-.92,1.94,1.35,2.33,2.69,2.76v-2.41l-.23.09a1.25,1.25,0,1,0,1,2.29l.22-.1c1-.45.65-2-.3-2.28a8.65,8.65,0,0,1-1.63-.54l.58.76v.4l-1.21.93a3.86,3.86,0,0,1,1.52.48l.62-2.28a21.07,21.07,0,0,0-2.37-.45c-1.26-.16-1.46,1.62-.59,2.2a20.7,20.7,0,0,0,2.83,1.59l.85-2c-.42-.14-1.36-.35-1.57-.76l-.69,1.69a5.36,5.36,0,0,1,1.8.22c1.36.19,2-1.79.59-2.14a5.9,5.9,0,0,1-1.62-.67l-1.1,1.88a4.55,4.55,0,0,1,1,.53l-.46-.61.07.19.1-.77c-.28.51-.52.7-.36,1.34a1,1,0,0,0,1,.72c.25,0,.54-.08.79-.05l-.85-.49c0-.29-.06-.24-.06.14a3.42,3.42,0,0,1-.12.78,10.87,10.87,0,0,1-.36,1.1c-.29.8-.62,1.58-.87,2.41s1,1.68,1.59.92a18,18,0,0,0,3.16-5.68.91.91,0,0,0-1.66-.7,50.78,50.78,0,0,0-2.58,5.79c-.33.86,1.11,1.48,1.49.63.86-1.91,1.79-3.79,2.63-5.71a1,1,0,0,0-1.64-1,20.8,20.8,0,0,0-2.46,4.16,1,1,0,0,0,1.64,1,24.06,24.06,0,0,0,1.79-3.41c.48-1.07-1-2-1.6-.94a21.39,21.39,0,0,0-1.17,2l1.55.65a26.59,26.59,0,0,1,1.16-2.69l-1.31-.56c-.14.4-.28.8-.41,1.19a.61.61,0,0,0,1.11.47Z"/><path class="cls-2" d="M479.43,708.49l.21-.21a.73.73,0,1,0-1-1,16.86,16.86,0,0,0-1.59,2.51l1.66.7a6.92,6.92,0,0,1,1.13-1.88l-1.57-1.21-1.4,2.47a1.05,1.05,0,0,0,1.82,1.06,10.81,10.81,0,0,1,1.38-2.11l-1.05.28.15,0-.75-1.32a4.65,4.65,0,0,1-.5,1.14c-.49,1,.85,2.31,1.69,1.31a9.45,9.45,0,0,0,1.31-2l-1.84-1.08a11.84,11.84,0,0,1-1.56,2.83l1.71,1a2.52,2.52,0,0,1,.45-.82l-.8.1.14.06-.63-.48.07.14-.1-.81c-.39,1.55-1.54,2.81-2,4.33a.91.91,0,0,0,1.51.88,11.88,11.88,0,0,0,1.72-2.89c.37-.73,1.08-1.72.66-2.56-1-2-2.65.49-3,1.51a1,1,0,0,0,1.71,1,13.51,13.51,0,0,0,2-3.19c.56-1.23-1.24-2.32-1.84-1.08a7.48,7.48,0,0,1-1,1.56l1.69,1.3a6.43,6.43,0,0,0,.72-1.66,1.11,1.11,0,0,0-.75-1.32c-1.54-.32-2.25,1.74-2.88,2.81l1.82,1.06,1.3-2.53a1,1,0,0,0-1.72-1A8,8,0,0,0,477,710c-.35,1.14,1.32,1.54,1.75.48a20.7,20.7,0,0,1,1.2-2.46l-1.16.15.12.13-.14-.52-.07.26c-.12.43.47.82.78.46Z"/><path class="cls-2" d="M493.65,711.45c.84,2.41-3.89,7.8-5.31,9.48-2.21,2.62-4.93,4.81-7,7.5-.62.79.19,2.26,1.19,1.54,2.34-1.66,17.57-16.74,12-19.19-.42-.18-1,.13-.86.67Z"/><path class="cls-2" d="M478.11,706.58c-3.32,4.39-5.64,11.13-6.34,16.55-.14,1,1.34,1,1.65.22,1.05-2.69,1.68-5.55,2.66-8.27A84.61,84.61,0,0,0,479,707a.48.48,0,0,0-.88-.37Z"/><path class="cls-2" d="M371.7,355.87c2.3,5.23,5.1,7.92,9.81,11,5.42,3.48,9.33,8.48,14.08,12.73a.73.73,0,0,0,1-1,69.37,69.37,0,0,0-10.86-11.27c-1.8-1.42-3.79-2.54-5.69-3.81-3.38-2.27-5.11-4.85-7.41-8.13a.55.55,0,0,0-.95.55Z"/><path class="cls-2" d="M400.07,378.72a3.41,3.41,0,0,0-1.29.36,2.57,2.57,0,0,0-.64.5,2.79,2.79,0,0,0-.67,2.57,2.88,2.88,0,0,0,1.29,1.71,3.11,3.11,0,0,0,2.28.29l-.66.09h.05l.67-.09a1.89,1.89,0,0,0,.85-.45,2.57,2.57,0,0,0,.9-1.31,3.19,3.19,0,0,0-.22-2.6A4.21,4.21,0,0,0,402,379a3,3,0,0,0-2.86-.79,3.91,3.91,0,0,0-1.72,1,4,4,0,0,0-1,1.7,4.1,4.1,0,0,0,0,2,3.4,3.4,0,0,0,.81,1.43,2.87,2.87,0,0,0,2.41.79,2.82,2.82,0,0,0,1.73-.82,2.82,2.82,0,0,0-1.18-4.72,2.55,2.55,0,0,0-1.95.25l-.52.4a2.55,2.55,0,0,0-.65,1.11v.05l.66-1.14,0,0,.53-.41,0,0,.64-.27h0l.72-.09c-.31,0-.62.09-.93.13H400l.67.28-.05,0,1.29,1.68v-.07l.1.75a1.22,1.22,0,0,1,0-.27l-.1.76a1,1,0,0,1,.08-.25l-.29.69c.13-.29.25-.59.36-.89l-.29.7a1.83,1.83,0,0,1,.13-.24l-.45.59a1.21,1.21,0,0,1,.19-.2l-.59.45a1.88,1.88,0,0,1,.24-.14l-.69.29.07,0-2.21-.29.07.05-.58-.45.25.24a3.56,3.56,0,0,0,1.38.77l-.65-.27.25.13L398,381.07v.05l.63-1.09,0,0,.49-.39-.06,0,.59-.25-.06,0,.64-.09h-.13l.64.09-.12,0,.57.24a.34.34,0,0,1-.12-.06l.49.37a.2.2,0,0,1-.09-.09l.37.48,0-.06.23.56,0-.12.09.62a.29.29,0,0,1,0-.13l-.08.62a.5.5,0,0,1,0-.13l-.23.55,0-.05-.35.46a.39.39,0,0,1,.08-.1l-.45.36a.24.24,0,0,1,.11-.06l.45-.35a1.73,1.73,0,0,0,.47-.73,2.1,2.1,0,0,0,.11-1.46,2.58,2.58,0,0,0-.58-1,2.25,2.25,0,0,0-1.59-.66Z"/><path class="cls-2" d="M403.33,377.54a1.37,1.37,0,0,0-.15-.38c-.05-.12-.1-.25-.16-.37l.29.7a.29.29,0,0,1,0-.09l.1.77v-.1a2.82,2.82,0,0,0-.38-1.42,2.13,2.13,0,0,0-.73-.79,2,2,0,0,0-1-.5,2.7,2.7,0,0,0-1.49,0,3.21,3.21,0,0,0-1.36.79,3.14,3.14,0,0,0-.83,1.39,2.93,2.93,0,0,0,.76,2.87l.6.46a2.9,2.9,0,0,0,1.49.4,2.21,2.21,0,0,0,1.13-.25,2.14,2.14,0,0,0,.95-.61,3,3,0,0,0,.76-2.87Z"/><path class="cls-2" d="M394.49,371.94a3.5,3.5,0,0,0-1.67.47,2.88,2.88,0,0,0-1,1,4.71,4.71,0,0,0-.31.73,4.76,4.76,0,0,0-.14.92,2.18,2.18,0,0,0,.24,1.07,2.07,2.07,0,0,0,.57.89l.57.44a2.12,2.12,0,0,0,1,.33,1.54,1.54,0,0,0,.74,0,2.12,2.12,0,0,0,1-.33l.56-.44a2.81,2.81,0,0,0,.72-1.22v0l-.28.66a.57.57,0,0,1,.08-.13l-.44.57,0-.05.44-.57c.1-.23.2-.45.29-.68a.56.56,0,0,0,0-.12l-.27.66a.71.71,0,0,1,.08-.15l-.42.54,0,0,.42-.54.27-.64.09-.71a1.93,1.93,0,0,0-.23-1,1.31,1.31,0,0,0-.34-.59,1.38,1.38,0,0,0-.48-.48,1.35,1.35,0,0,0-.59-.34,2,2,0,0,0-1-.23Z"/><path class="cls-2" d="M395.89,380.48h0l-.57-.45h0l-.44-.58h0l-.28-.67h0l-.1-.74h0l.1-.74h0l.28-.66v0l.43-.56h0l-.43.56a2,2,0,0,0-.32,1,1.3,1.3,0,0,0,0,.73,2.11,2.11,0,0,0,.32,1h0a2.42,2.42,0,0,0,.22.29l.21.28h0l.57.44h0l.67.28a1.93,1.93,0,0,0,1.13.05,1.64,1.64,0,0,0,.38-.05l.68-.28a2.59,2.59,0,0,0,.29-.23c-.19.15.21-.14.3-.22l.44-.58a2.14,2.14,0,0,0,.34-1.06,1.4,1.4,0,0,0,0-.76,1.39,1.39,0,0,0-.2-.71,2.13,2.13,0,0,0-.58-.92l-.58-.45-.68-.28a2.11,2.11,0,0,0-1.14,0,1.44,1.44,0,0,0-.72.19,1.36,1.36,0,0,0-.62.37,2.11,2.11,0,0,0-.74.8l-.28.68-.11.75.11.76a2,2,0,0,0,.51,1,2.13,2.13,0,0,0,.79.73Z"/><path class="cls-2" d="M397.47,376.32a2.71,2.71,0,0,0,.36.86,3.42,3.42,0,0,0,1.2,1.19,3.05,3.05,0,0,0,1.58.43,2.29,2.29,0,0,0,1.21-.27,2.36,2.36,0,0,0,1-.64,3.29,3.29,0,0,0,.8-1.39s0,0,0,0l-.31.76a.08.08,0,0,1,0,0l-.5.65,0,0-.66.5a.05.05,0,0,0,0,0l.66-.51.51-.66.33-.78.12-.87-.12-.87-.33-.78-.51-.66a2.4,2.4,0,0,0-1.05-.67,3.19,3.19,0,0,0-2.52,0,1.56,1.56,0,0,0-.72.42,1.61,1.61,0,0,0-.58.58,1.56,1.56,0,0,0-.42.72,1.62,1.62,0,0,0-.23.83,2.5,2.5,0,0,0,.06,1.3Z"/><path class="cls-2" d="M408.22,380.2v0a3.23,3.23,0,0,0-.45-1.66,3.33,3.33,0,0,0-1.18-1.18l-.79-.33a3.21,3.21,0,0,0-1.74,0,2.48,2.48,0,0,0-1.12.59,2.51,2.51,0,0,0-.85.92,3.29,3.29,0,0,0,0,3.32v0l.52.66a2.42,2.42,0,0,0,1.05.68,1.64,1.64,0,0,0,.83.22,2.44,2.44,0,0,0,1.31-.06l.78-.33.67-.51a2.45,2.45,0,0,0,.68-1.06,2.48,2.48,0,0,0,.28-1.26Z"/><path class="cls-2" d="M410.72,382.83c.74,2.44,3.11,3.32,5.12,4.6a108.92,108.92,0,0,1,9.62,7.24c.7.57,1.69-.36,1-1a53.08,53.08,0,0,0-6.76-5.48c-2.3-1.6-6.81-3.17-7.92-5.8-.26-.61-1.26-.17-1.07.45Z"/><path class="cls-2" d="M318.34,415.31l-.47.27-.21.13a1.33,1.33,0,0,0-.43.39.78.78,0,0,0,.88,1.13,1.46,1.46,0,0,0,.56-.33l.41-.31a.78.78,0,0,0,.34-.44.75.75,0,0,0-.07-.57.76.76,0,0,0-1-.27Z"/><path class="cls-2" d="M324,421.62l0,0-.23.09.07,0-.26,0h.1l-.27,0,.12,0-.25-.11.06,0-.21-.17,0,0a1.49,1.49,0,0,0,.5.29l-.25-.11,0,0a1.07,1.07,0,0,0,1.28-.16,1.37,1.37,0,0,0,.27-.47.86.86,0,0,0,0-.42.79.79,0,0,0-.13-.39,1.24,1.24,0,0,0-1.42-.58,1.25,1.25,0,0,0-.82.63,1,1,0,0,0-.11.6.92.92,0,0,0,.26.54,1,1,0,0,0,1.13.15Z"/><path class="cls-2" d="M328.25,426.58l.12,0a1,1,0,0,0,.38-.2.32.32,0,0,0,.12-.11,1.21,1.21,0,0,0,.31-.52,1.1,1.1,0,0,0-1.35-1.35,1.29,1.29,0,0,0-.52.3,1.17,1.17,0,0,0-.31.51l0,.12a1.06,1.06,0,0,0,0,.56,1.08,1.08,0,0,0,.27.46,1,1,0,0,0,.46.27,1.06,1.06,0,0,0,.56,0Z"/><path class="cls-2" d="M332.72,429.77c-.05-.09-.07,0,0,0s0-.14,0,0a1.08,1.08,0,0,1,0-.18c0,.19-.06,0,0,0s0-.06,0,0,0,.07,0,0,.14-.16,0-.06.12-.14.11-.13a1.09,1.09,0,0,0,.24-.51,1.22,1.22,0,0,0-1.77-1.36,1.8,1.8,0,0,0-.75,1.92,2.39,2.39,0,0,0,.73,1.42.94.94,0,0,0,1.22.07.93.93,0,0,0,.23-1.2Z"/><path class="cls-2" d="M337.6,434.14l.27-.14a2.33,2.33,0,0,0,.45-.38l.22-.23a1.64,1.64,0,0,0,.41-.68,1.13,1.13,0,0,0-1.38-1.39,2.79,2.79,0,0,0-1.43,1.36,1.07,1.07,0,0,0,1.46,1.46Z"/><path class="cls-2" d="M344.38,438l.14-.23a1.18,1.18,0,0,0,.2-.65,2.24,2.24,0,0,0-.07-.44l-.12-.27a1,1,0,0,0-.3-.33,1.14,1.14,0,0,0-.71-.25,1.33,1.33,0,0,0-.59.16,1.18,1.18,0,0,0-.53.69,1.68,1.68,0,0,0-.07.44,1.17,1.17,0,0,0,.19.65l.14.23a1,1,0,0,0,1.72,0Z"/><path class="cls-2" d="M348.91,442.81a1.62,1.62,0,0,0,.33-.13l.24-.19a1.21,1.21,0,0,0,.31-.52.57.57,0,0,0,0-.18,1,1,0,0,0,0-.48.52.52,0,0,0-.06-.16.87.87,0,0,0-.25-.38l0,0a.75.75,0,0,0-.37-.24.79.79,0,0,0-.45-.1l-.3,0a1.1,1.1,0,0,0-.52.3,1.41,1.41,0,0,0-.32.54,1.27,1.27,0,0,0,0,.67,1.19,1.19,0,0,0,.54.72,1.2,1.2,0,0,0,.87.13Z"/><path class="cls-2" d="M355.45,445.67l.12-.11a1.25,1.25,0,0,0,.37-.65,1.12,1.12,0,0,0,0-.63,1.21,1.21,0,0,0-.84-.84,1.13,1.13,0,0,0-.63,0,1.25,1.25,0,0,0-.65.37l-.11.12a1.31,1.31,0,0,0-.36.87,1,1,0,0,0,.1.48.93.93,0,0,0,.26.39l.25.2a1.19,1.19,0,0,0,.62.16l.32,0a1.23,1.23,0,0,0,.55-.32Z"/><path class="cls-2" d="M359.57,447.51l.1.17a.56.56,0,0,1,.05.08l.18.23.23.18.06,0,.27.12a1,1,0,0,0,.46,0,.57.57,0,0,0,.28-.08.85.85,0,0,0,.37-.24l.18-.23.12-.27a1,1,0,0,0,0-.46.91.91,0,0,0-.14-.42s0,0,0-.05l-.1-.12a.53.53,0,0,0-.21-.21,2.31,2.31,0,0,0-.19-.14l-.17-.1-.26-.11a.82.82,0,0,0-.44,0,.64.64,0,0,0-.27.07.82.82,0,0,0-.35.23l-.17.22-.11.26a1.2,1.2,0,0,0,.11.84Z"/><path class="cls-2" d="M367.17,450.72l.06.08-.11-.81,0,.05a1.26,1.26,0,0,0,0,.61,1.19,1.19,0,0,0,.3.51l.1.1a.88.88,0,0,0,.37.24.86.86,0,0,0,.44.1,1.27,1.27,0,0,0,.82-.34l.18-.23a1.17,1.17,0,0,0,.15-.58l0-.3a1.08,1.08,0,0,0-.29-.51l-.11-.11a1.15,1.15,0,0,0-1.12-.29l0,0,.81.1-.09-.05-.25-.11a.81.81,0,0,0-.41,0,.59.59,0,0,0-.26.07.83.83,0,0,0-.33.22l-.16.21-.1.24a.72.72,0,0,0,0,.41.69.69,0,0,0,.12.39Z"/><path class="cls-2" d="M375.54,453.12s.19-.09,0,0h0l.14,0c.05,0,.24,0,0,0s0,0,0,0H376a1.22,1.22,0,0,0,.91-.43,1.13,1.13,0,0,0,.31-.94,1.06,1.06,0,0,0-.53-.82,1.34,1.34,0,0,0-1.29,0,1.83,1.83,0,0,0-.49.39,2.7,2.7,0,0,0-.59.95.83.83,0,0,0,.3.9.86.86,0,0,0,1,.07Z"/><path class="cls-2" d="M381,452.13v0l.59-.45h0l-.26.11a.84.84,0,0,0-.31.28.48.48,0,0,0-.14.25.87.87,0,0,0-.1.42s0,.05,0,.08l0,.29a.75.75,0,0,0,.2.37.52.52,0,0,0,.19.2.87.87,0,0,0,.37.19,1,1,0,0,0,.58,0l.26-.11a.76.76,0,0,0,.31-.28.58.58,0,0,0,.14-.24.76.76,0,0,0,.09-.42.22.22,0,0,0,0-.08l0-.29a.85.85,0,0,0-.19-.38.52.52,0,0,0-.2-.19.79.79,0,0,0-.37-.2h0l.59.45v0a1,1,0,0,0-.35-.35,1,1,0,0,0-.49-.13,1.05,1.05,0,0,0-.49.13,1.17,1.17,0,0,0-.35.35Z"/><path class="cls-2" d="M388.42,452.34a1.64,1.64,0,0,0-.19.72,1.36,1.36,0,0,0,.06.45,1.48,1.48,0,0,0,1,1,1.11,1.11,0,0,0,.87-.11,1.16,1.16,0,0,0,.46-.54,1.09,1.09,0,0,0-.46-1.4l-.07-.05.23.18a.27.27,0,0,1-.07-.08l.17.23c0-.05-.07-.1-.1-.16l.12.27a.17.17,0,0,1,0-.1l0,.3a.41.41,0,0,1,0-.11l0,.29v0a1.19,1.19,0,0,0-.11-.85,1.06,1.06,0,0,0-.53-.45,1.11,1.11,0,0,0-.72-.06,1.07,1.07,0,0,0-.65.51Z"/><path class="cls-2" d="M394.76,453.34l.05,0-.46-.27,0,0a.79.79,0,0,0,.35.23.55.55,0,0,0,.28.07.44.44,0,0,0,.16,0h0a.76.76,0,0,0,.42-.09l.15-.06a1.09,1.09,0,0,0,0-1.87h0a.82.82,0,0,0-.4-.13l-.19,0h0l-.29,0a.89.89,0,0,0-.37.2.41.41,0,0,0-.14.12l.46-.27-.05,0-.25.1a.81.81,0,0,0-.28.27.46.46,0,0,0-.14.22.74.74,0,0,0-.08.39l0,.28.11.24a.7.7,0,0,0,.26.28.75.75,0,0,0,.35.19Z"/><path class="cls-2" d="M400.16,449.56a2.45,2.45,0,0,0-.35.26c-.08.09-.14.18-.21.27l-.06.08-.11.26a.86.86,0,0,0,0,.42.59.59,0,0,0,.07.26.87.87,0,0,0,.22.34l.22.17.25.1a.67.67,0,0,0,.42,0,.69.69,0,0,0,.39-.12l.08-.06,0,0c.07-.06.17-.12.24-.19a1.37,1.37,0,0,0,.18-.24l0,0,.06-.08.11-.25a.75.75,0,0,0,0-.42.5.5,0,0,0-.07-.27.74.74,0,0,0-.22-.34l-.21-.16-.25-.11a.86.86,0,0,0-.42,0,.79.79,0,0,0-.39.13Z"/><path class="cls-2" d="M406.89,449.4a1.09,1.09,0,0,0,0-2.18,1.09,1.09,0,0,0,0,2.18Z"/><path class="cls-2" d="M410.39,444.09h0l-.24.19h0l-.19.24h0l-.12.29a1.26,1.26,0,0,0-.05.33s0,.3.05.33h0s.15.35.06.15c0,0,0,.1.07.15h0l.2.25v0a1.35,1.35,0,0,0,.27.2l.3.13a.9.9,0,0,0,.51,0,1.77,1.77,0,0,0,.21,0l.3-.13h0a2.69,2.69,0,0,0,.27-.2l.19-.25h0a.88.88,0,0,0,.14-.46.9.9,0,0,0,0-.49l-.12-.3a1,1,0,0,0-.32-.34.63.63,0,0,0-.27-.16,1,1,0,0,0-.47-.11l-.33.05a1.22,1.22,0,0,0-.54.31h0l.25-.2h0l.29-.12h0l.33-.05h-.05l.34.05h0l-.17,0a.62.62,0,0,0-.33,0,.72.72,0,0,0-.32.08l-.15.07.3-.13,0,0L411,444h0l.32.05h0l.29.12h0l.25.19h0l.19.24h0l.12.29v0l0,.31h0a1.18,1.18,0,0,0-.58-1,1.16,1.16,0,0,0-1.18,0Z"/><path class="cls-2" d="M414.59,440.22l0,.37a1.53,1.53,0,0,0,.05.64,1.23,1.23,0,0,0,2.36,0,1.53,1.53,0,0,0,0-.64l0-.37a1.33,1.33,0,0,0-.35-.85,1.28,1.28,0,0,0-.85-.35,1.23,1.23,0,0,0-.84.35,1.42,1.42,0,0,0-.36.85Z"/><path class="cls-2" d="M420.58,435.32l-.07.45c0,.16-.06.33-.07.49a2.32,2.32,0,0,0,.07.52,1.26,1.26,0,0,0,2.42,0,1.55,1.55,0,0,0,.07-.52,2.76,2.76,0,0,0-.07-.49l-.07-.45-.12-.28a.8.8,0,0,0-.3-.33,1.12,1.12,0,0,0-.72-.26,1.33,1.33,0,0,0-.59.16,1.18,1.18,0,0,0-.55.71Z"/><path class="cls-2" d="M424,431.32l0,.19.67-1.17a.44.44,0,0,0-.15.12,1,1,0,0,0-.37.4l-.15.35a.83.83,0,0,0,0,.22.65.65,0,0,0,0,.39,1.08,1.08,0,0,0,.17.55l.07.11a1.57,1.57,0,0,0,.87.67l.39.05a1,1,0,0,0,.56-.13.68.68,0,0,0,.32-.18,1.15,1.15,0,0,0,.38-.41,1.46,1.46,0,0,0,.14-1.12.56.56,0,0,0,0-.12l-.15-.35a1,1,0,0,0-.38-.42,1.13,1.13,0,0,0-.52-.27,1.41,1.41,0,0,0-.79,0l1.33.35-.16-.13a1.39,1.39,0,0,0-.56-.33l-.34,0a1,1,0,0,0-.49.11.66.66,0,0,0-.29.17.54.54,0,0,0-.22.23,1.16,1.16,0,0,0-.28.77Z"/><path class="cls-2" d="M427.34,423.17a2.11,2.11,0,0,0-.45.83,2.24,2.24,0,0,0,0,1v-.73a1.45,1.45,0,0,0,.08.94,1.47,1.47,0,0,0,.59.69.27.27,0,0,0,.1.06,1.39,1.39,0,0,0,1.42,0,1.51,1.51,0,0,0,.58-.67,1.3,1.3,0,0,0,.09-.73,1.67,1.67,0,0,0-.18-.56l.14.34a.19.19,0,0,1,0-.07,1.53,1.53,0,0,0-.52-.75.8.8,0,0,0-.32-.19,1.07,1.07,0,0,0-.56-.12h0l1,.42-.08-.09.21.28s-.05-.09-.08-.14l.14.32a.42.42,0,0,1,0-.15l0,.34v-.12l0,.33v0a1.33,1.33,0,0,0-.07-.81,1.16,1.16,0,0,0-.5-.59,1.56,1.56,0,0,0-.63-.17,1.25,1.25,0,0,0-.88.36Z"/><path class="cls-2" d="M429.78,417a1.65,1.65,0,0,0-1.13,1.56l.18-.66a1.51,1.51,0,0,0,.15,1.71,1.56,1.56,0,0,0,1.64.57,1.39,1.39,0,0,0,.94-.94,1.37,1.37,0,0,0-.35-1.31,2,2,0,0,0-.37-.27l.28.21a1.62,1.62,0,0,1-.19-.18l.21.27a1.58,1.58,0,0,0-.54-.52l.46.46,0-.07.13.3,0-.11,0,.33v-.11l0,.32a.14.14,0,0,1,0-.06l-.12.29a.3.3,0,0,1,0-.08l-.18.24,0,0a1.16,1.16,0,0,0,.31-.66,1.1,1.1,0,0,0-.13-.73,1.18,1.18,0,0,0-1.3-.53Z"/><path class="cls-2" d="M430.08,411.07a1.71,1.71,0,0,0-.2.27,2.55,2.55,0,0,0-.13.29h0a1.31,1.31,0,0,0,0,.68l.12.29h0a1.21,1.21,0,0,0,.2.26l.13.1.13.1a1,1,0,0,0,.31.13l.17,0a.58.58,0,0,0,.32,0c-.06,0,.13,0,.18,0l.16-.07a.58.58,0,0,0,.18-.08l.13-.1.13-.1h0l.19-.24h0a1.51,1.51,0,0,0,.13-.29,1.3,1.3,0,0,0,0-.62,1.19,1.19,0,0,0-.3-.51,1.12,1.12,0,0,0-.51-.3,1.09,1.09,0,0,0-.62,0h0l.31,0h0l.31,0h0l.29.12,0,0,.24.19-.12-.1a1,1,0,0,0-.42-.22c-.11,0-.23,0-.34,0l.33,0h0l.29.12h0l.24.19h0l.19.24h0l.12.29h0l0,.32h0l0,.32v0l.05-.32a1,1,0,0,0-.11-.47.61.61,0,0,0-.15-.26.92.92,0,0,0-.34-.31l-.29-.13-.32,0a.81.81,0,0,0-.46.11.88.88,0,0,0-.39.24Z"/><path class="cls-2" d="M429.54,405.16l0,.31a1.67,1.67,0,0,0,.05.39,1.18,1.18,0,0,0,.3.5,1,1,0,0,0,.7.29,1,1,0,0,0,.7-.29,1.31,1.31,0,0,0,.31-.5,2.45,2.45,0,0,0,0-.39l0-.31a1.09,1.09,0,0,0-.32-.76,1,1,0,0,0-.76-.31,1.07,1.07,0,0,0-.76.31,1.09,1.09,0,0,0-.32.76Z"/><path class="cls-2" d="M560.12,449.19a23,23,0,0,1,3.25,9.44c.18,1.6,2.7,1.62,2.53,0a25.88,25.88,0,0,0-2.77-9.33c-.73-1.41-2.73-.38-2.45,1a36.63,36.63,0,0,0,1.51,5.42,1.35,1.35,0,0,0,2.6-.72l-1.42-5.48a1.35,1.35,0,0,0-2.6.72c3.76,14.87,5.22,30.23.62,45.09-4,13-11.61,24.52-15.72,37.47-.41,1.3,1.68,2.24,2.25.95,5.86-13.16,13.31-26.13,17.09-40.1,4-14.66,2.06-29.63-1.64-44.13l-2.6.72,1.42,5.48,2.6-.72a34.89,34.89,0,0,1-1.53-5.42l-2.45,1a24.7,24.7,0,0,1,2.6,8.31l2.44-.67a23,23,0,0,0-3.91-10.18c-.76-1.1-2.52-.12-1.82,1.07Z"/><path class="cls-2" d="M604.55,445.11c-2.63,9.51-3.5,19.65-4.41,29.44q-1.47,15.7-1.66,31.49c-.16,15.77.47,32-3.67,47.38a1.08,1.08,0,0,0,2.08.57c5-14,3.88-30.37,3.89-45,0-10.51.41-21,1.28-31.49.9-10.77,2.87-21.47,3.57-32.25,0-.63-.92-.73-1.08-.14Z"/><path class="cls-2" d="M250.07,710.21a1.54,1.54,0,0,0,0-3.08,1.54,1.54,0,0,0,0,3.08Z"/><path class="cls-2" d="M423.24,687.49c-3.3,2.45-7.75-.48-11.29-1s-7.22.16-10.81.53c-7.85.8-15.69.45-23.56.27-16.2-.37-31.68,2.53-47.52,5.69-7.84,1.56-15.66,3.26-23.37,5.41-7.16,2-14.12,4.86-21.42,6.37-15.76,3.28-32.25-.36-47.89,3.48-1.33.33-1.08,2.53.33,2.43,15.76-1.14,32.06.82,47.62-2.14,7.64-1.45,14.9-4.42,22.34-6.6,8.29-2.43,16.72-4.33,25.17-6.1s16.89-3.66,25.43-4.8c8.74-1.18,17.41-.92,26.2-.73,4.25.09,8.52.14,12.76-.16,4-.28,7.94-1.24,11.91-1.26,5,0,10.83,3.71,15.17,0,.74-.64-.26-2-1.07-1.38Z"/><path class="cls-2" d="M255.11,706.38c-4.6,2-6.55,6-7.94,10.68-2.17,7.33-3.5,15-5.18,22.48l2.37.32a87.37,87.37,0,0,1,6.35-30c.55-1.37-1.82-2.39-2.42-1-4.32,10-7.6,21.33-7.42,32.36a1.26,1.26,0,0,0,2.51,0c1.36-10.91,3-21.13,7.33-31.35l-2.55-.7A90.5,90.5,0,0,0,242,739.86a1.21,1.21,0,0,0,2.37.32c1.36-6.14,2.67-12.29,4.08-18.42,1.16-5.07,2.56-11.35,7.38-14.25.74-.45.09-1.45-.67-1.13Z"/><path class="cls-2" d="M343.77,714.49c-5,5.38-2.67,13-5.54,19.26l4.34,1.17c.46-5,1-10,1.78-15l-4.64-.63c-.06,9.33-3.12,18.33-2.68,27.7.13,2.59,4,3.3,4.65.63a53.64,53.64,0,0,1,2.49-7.47L339.76,739l1,8.6a2.37,2.37,0,0,0,4.74,0q.36-3.37.71-6.77l-4.63.63a59.71,59.71,0,0,1,1.78,6.87l3.53-2.72L346,744.3c-.79-2.76-4.44-1.94-4.73.64l-.25,2.29,4.71-.64-.24-1a2.42,2.42,0,0,0-4.38-.57l-.47.81,4.38.58-.26-.81c-.55-1.75-3.5-2.59-4.37-.57l-.5,1.16,4.37,1.84.11-.27-3.75-.48.54,1a2.42,2.42,0,0,0,3.75.48l1.31-1.25-4-1.05.57,1.62a2.41,2.41,0,0,0,4.34.56l.74-1.14-4.33-.56.13.73.61-2.3-.54.51,2.3-.6a3.25,3.25,0,0,0-3.05.36l3.23.84c-1.69-2.73-5.63-3.18-7.39-.25-1.3,2.17,1.21,4.13,3.22,3.21.45-.2,3.11,1.1,4.08,1a3.35,3.35,0,0,0,2.17-1.2c2.16-2.12-1.16-5.43-3.31-3.31,1.51-1.49-4.53-.88-5.31-.53l3.22,3.22-.76.27a2.42,2.42,0,0,0,3.24.85l-.59.12a2.39,2.39,0,0,0,2.3-.61c1.19-1.14,1.29-2,1-3.55-.37-2.16-3.31-2.11-4.33-.57l-.75,1.14,4.34.56-.56-1.61a2.41,2.41,0,0,0-4-1l-1.32,1.25,3.74.48-.54-1a2.4,2.4,0,0,0-3.75-.48,5.2,5.2,0,0,0-1.34,2.37c-.69,2.52,3.26,4.39,4.37,1.84l.5-1.15-4.37-.57.25.8a2.42,2.42,0,0,0,4.38.57l.47-.81-4.38-.58.23,1c.68,2.84,4.43,1.88,4.72-.63l.26-2.29-4.72.64a6.59,6.59,0,0,0,3.05,4.16c1.83,1.24,4-.8,3.53-2.71-.54-2.31-1.15-4.59-1.87-6.85-.84-2.66-4.35-1.95-4.63.63q-.37,3.39-.73,6.77h4.74l-1-8.6c-.22-2-3.37-3.63-4.41-1.19a61.34,61.34,0,0,0-3,8.59l4.65.63c-.44-9.35,2.63-18.37,2.67-27.7,0-2.58-4.26-3.34-4.65-.63-.77,5.4-1.41,10.81-1.88,16.24-.19,2.25,3.4,3.26,4.34,1.18,2.87-6.32.71-13.56,4.06-19.65.86-1.57-1.26-3.35-2.54-2Z"/><path class="cls-2" d="M474.09,725.54c-1.51-.49-2.18.07-3.19,1.19-2.73,3-4.68,7.51-6.82,11-1.34,2.15,1.58,4.09,3.34,2.58,3-2.59,6-5.22,9-7.84l-3.82-2.22c-1.89,5.68-7,10.93-10.45,15.76-1.61,2.25,1.72,4.27,3.57,2.75l4-3.3-3.18-3.18c-4,4.2-8.24,8.16-12.64,12l3.24,3.24q3.72-3.42,7.21-7.08c2-2.13-.95-4.89-3.15-3.15-3,2.37-6,4.74-9,7.07l2.67,3.47,3.69-3.69c1.76-1.76-.54-4.95-2.72-3.53q-2.43,1.61-4.84,3.24l2.61,3.39,2.23-2.75a2.19,2.19,0,0,0-2.64-3.42l-2.76,1.48,3,3,1.26-1.72c1.36-1.86-1.23-4.08-3-3l-2.39,1.4,3.06,3,1.26-2.41A2.27,2.27,0,0,0,450,750l-1.75,1.47,3.21,3.22a10.91,10.91,0,0,0,1.76-2.7c.91-2-1-4.44-3.14-3.14l-2.29,1.41,2.84,3.68a7.51,7.51,0,0,0,1.47-2.23c.82-1.87-1.13-4.9-3.26-3.26l.36,0,2.31,1.76-.16-.39-1.09,2.7.28-.17c2.62-1.6.22-5.74-2.42-4.13l-.28.17a2.44,2.44,0,0,0-1.1,2.7l.16.39c.35.88,1.21,1.89,2.3,1.75a4.28,4.28,0,0,0,2.53-1.07l-4-2.32-.44.75c-1.52,1.91.43,5.29,2.84,3.69l2.24-1.5-3.14-3.14-1,1.8a2.27,2.27,0,0,0,3.21,3.22l1.73-1.5-3.54-2.73-1.22,2.44c-1,1.91,1,4.28,3,3.05l2.37-1.43-3-3-1.24,1.74c-1.34,1.89,1.21,4,3,3l2.75-1.51-2.64-3.42-2.2,2.78c-1.42,1.78.36,4.79,2.62,3.39,1.64-1,3.29-2,4.93-3.09l-2.72-3.53-3.64,3.75c-2,2.09.95,4.84,3.12,3.12q4.5-3.56,9-7l-2.7-3.5q-3.54,3.62-7.3,7c-2.22,2,1,5.14,3.24,3.24a163.93,163.93,0,0,0,12.58-12c2-2.15-1-5-3.18-3.18l-4,3.27,3.57,2.75c3.76-5.2,9-10.63,10.94-16.84.7-2.27-2.21-3.7-3.82-2.22-2.92,2.68-5.86,5.35-8.76,8.06l3.34,2.58c.36-.68,5.79-10.92,5.44-11.06,2,.75,3-2.57.9-3.25Z"/><path class="cls-2" d="M448.61,742c-4.88.66-6.22,6.87-4.44,10.84a9.86,9.86,0,0,0,5.51,4.85c2.81,1,5.77-.55,8.14-2L454.19,751a20.82,20.82,0,0,1-2.47,2.41c-2.26,1.88.16,6.07,2.92,5a21.78,21.78,0,0,0,8.8-5.93l-4.21-4.22c-1.58,1.89-6,7.16-8.45,4.88-2.87-2.7,1.29-5,2.42-7.27.68-1.34-.12-3.49-1.9-3.31-7,.71-9.43,8.88-5.31,14.09,2.11,2.66,5.17,4.29,8.53,3s6.67-4.47,8.92-7.13c2.46-2.89-1.62-7.09-4.21-4.22a15.78,15.78,0,0,1-6.19,4.36l2.92,5a21.72,21.72,0,0,0,2.47-2.42c2.15-2.46-.58-6.56-3.64-4.71-2,1.18-4.3,2.52-5.84-.07-1.1-1.86-.38-4,.85-5.57.78-1,.43-3.09-1.19-2.88Z"/><path class="cls-2" d="M460.38,754.23c5.71-2.51,10.5-8.6,14.32-13.35s8.13-9.88,10.15-15.59a1.77,1.77,0,0,0-2.94-1.71c-4.17,4.82-7.14,10.68-11.25,15.62-3.73,4.49-8.78,8.57-11.73,13.59-.57,1,.54,1.84,1.45,1.44Z"/><path class="cls-2" d="M341.69,712.53c-3.69,1.3-3.23,6.72-3.69,10A158.21,158.21,0,0,0,336,741c-.07,3.47.67,7.41,4,9.31a7.27,7.27,0,0,0,9.21-1.94l-4.3-3.32-1.93,1.79c-2.67,1.37-1.09,4.89,1.39,5.14,9,.94,6.84-7.57,5.64-13.5l-4.87,2a3.57,3.57,0,0,1,.73,3.68q.3,3.59-3.94.84l-4.83,2a9.74,9.74,0,0,0,8.39,5.09V747a5.71,5.71,0,0,1-3.43-.55c-2.79-1-4.48,3.29-2,4.73,10.41,6,10.62-14,9.84-19.12-.29-2-3.09-1.58-3.61,0a29.34,29.34,0,0,0-1.13,6.94c-.06.7-.48,9.18-2.49,7.71l-2,4.73a11.29,11.29,0,0,0,4.8.79c3.39-.11,3.34-5,0-5.23a4,4,0,0,1-3.83-2.52c-1.56-2.73-5.35-.8-4.83,2,.88,4.78,5.78,5.95,9.84,4.22,5.61-2.4,4.87-7.09,3.34-12.19-.83-2.74-5.53-2.39-5.23.71.16,1.59.38,3.15.61,4.73.27,1.78,1.15,2.77-1,2.54l1.39,5.15a8.27,8.27,0,0,0,3.88-3.8c1.7-3.17-2.67-5.54-4.73-2.76q-4.86.09-4.1-4.05c0-1.19.08-2.37.16-3.55.14-2.57.34-5.14.55-7.71.36-4.54-.32-11.3,1.56-15.47.38-.86-.27-2.14-1.35-1.76Z"/><path class="cls-2" d="M244.08,726.55a58.14,58.14,0,0,0-4.32,16.61c-.24,1.83,3,2.29,3.26.44a59.7,59.7,0,0,1,3.68-14.09l-3.34-.92a66.58,66.58,0,0,0-1.59,7.65c-.33,2.34-.08,5.61-1.53,7.54l3.17,1.34c1.85-11.84,3.92-23.17,8.79-34.21,1.1-2.52-2.6-4.72-3.73-2.18-5,11.19-8.71,23.57-8.46,35.93a1.75,1.75,0,0,0,3.23.87c1.29-1.71,1.34-3.28,1.55-5.38a68.58,68.58,0,0,1,1.91-10.64c.58-2.2-2.55-3-3.34-.92a61.41,61.41,0,0,0-3.6,14.57h3.32c.65-5.34,2-10.48,3.1-15.72.25-1.2-1.53-2.14-2.1-.89Z"/><path class="cls-2" d="M522.31,582.61c3.83,0,3.83-6,0-6s-3.84,6,0,6Z"/></g></svg>