<svg xmlns="http://www.w3.org/2000/svg" viewBox="0 0 714.22 841.41"><defs><style>.cls-1{fill:#b2d1d9;}.cls-2{fill:#dcb228;}</style></defs><title>Brown Girls Food Club Logo</title><g id="Background"><rect class="cls-1" x="-5.96" y="-2.26" width="720.18" height="844"/></g><g id="New_Logo" data-name="New Logo"><path class="cls-2" d="M395.53,124.1c-38.82,25.78-60.17,71-70.22,115.08s-12,89.46-19.88,133.88c-3.89,21.84-9.33,43.72-18.9,63.82-10.47,22-24.71,41.88-39.7,61C217.28,535.6,184.35,572.57,169.38,619c-14,43.46-8.12,97.22,29.33,127.44,3.31,2.67,7.9,3.23,11.14,0,2.78-2.78,3.3-8.42,0-11.14-30.38-25-36.13-69.11-26.16-105.27C196,585.44,227.38,549.54,255.47,514c14.69-18.58,29-37.56,40.61-58.28A262.93,262.93,0,0,0,320.37,394c11.07-42.45,12.95-86.51,20.76-129.57,4.2-23.17,10.09-46.43,19.89-67.92,10.59-23.23,26.08-42.3,43.6-60.59,5.7-5.95-1.76-16.64-9.09-11.78Z"/><path class="cls-2" d="M401.43,131.44c-14.94-14.22-37.61-17-57.18-13.09-21.63,4.33-40.13,17.61-53.67,34.71-31.7,40.07-34.74,92.82-42.86,141.23-4.37,26.07-10.37,52.37-23.5,75.58-12.39,21.9-30,40.42-41.1,63.14-11.25,23.12-16.14,48.58-19.65,73.87-3.77,27.1-7.25,54.36-9,81.68-2,30.41-1.45,61.55,5.41,91.37C165,702.3,175.1,725.45,196,737.2a2,2,0,0,0,2-3.4c-18.55-11.56-27.81-32.5-32.71-53-6.15-25.73-7.14-52.42-6-78.75s4.49-52.44,7.81-78.53c3.08-24.29,6.39-48.84,14.63-72,8.42-23.68,23.67-42.69,37.78-63.11,14-20.23,23.11-42.23,28.65-66.15,11.08-47.75,9.32-99.28,31.92-143.86,11-21.75,28.05-41.92,51.13-51.27a75.1,75.1,0,0,1,69,6,1,1,0,0,0,1.25-1.62Z"/><path class="cls-2" d="M395.33,130.25a4.06,4.06,0,0,0,4.73-2.06,2,2,0,0,0-1.18-2.89c-1.22-.5-2.48-.89-3.73-1.32l-.56,4.14c3.18,0,5.73,1.08,8.71,2,2.45.71,3.79-2.72,1.7-4-2.95-1.85-7-2.26-10.41-2.14A2.11,2.11,0,0,0,394,128c1.26.37,2.52.77,3.81,1.06l-1.38-2.42c0,.45-.25.66-.73.62a1.51,1.51,0,0,0-.4,3Z"/><path class="cls-2" d="M404.62,134.35c7.82,1.12,15.14,2.92,21.31,8.17,6,5.09,13.41,15.92,8.07,23.74-4.58,6.71-13.7,0-18.9,6.66-1.58,2-2.35,4.44-3.51,6.7-2.16,4.18-5.48,4.7-9.87,4.82-6.33.17-11.8.89-16,6.16-4.66,5.93-6.67,12.38-13.19,16.84-10,6.84-26.09,11.26-28.41,25.14-1,5.81,2,11.87,8.21,12.59,5.08.6,10-2.43,10.12-7.8.08-3.25-5.25-4.13-5.8-.79a2.79,2.79,0,0,1-5,1.4c-2.15-2.57-6.28.75-4.59,3.55A53.62,53.62,0,0,1,352,286.9c-3.71,10.65-12.17,28.75,2.3,35.88,9.14,4.51,21.29-4.95,18.91-15-1.23-5.14-6.21-9.67-11.74-8.47a7.8,7.8,0,0,0-5.39,11.3c1.38,2.77,5.72.82,4.93-2.08-.85-3.1,3-3.22,4.82-2.12,1,.59,1.63,2.8,1.64,3.92a7.38,7.38,0,0,1-2.47,5.08c-3.61,3.47-8.66,3.15-11.27-1.23-5.11-8.59,2-19,4.53-27.25,5-16.13,2.49-34-6.1-48.4l-4.59,3.55c4.33,5.24,13.69,2.77,14.8-4l-5.8-.78c-.08,3.27-4.94,1.91-6,.22-2.46-3.88,1.22-9.17,3.89-11.82,4.47-4.44,10.45-7.07,15.88-10.1,5.11-2.84,10-6.11,13.56-10.87,4.34-5.85,5.88-13.74,14.37-14.36,5.27-.38,11.16.43,15.37-3.55a19.56,19.56,0,0,0,4-6.44c1.82-4,2.72-5.57,7.7-5.35,6.15.28,11.15-1.39,14.19-7.21,2.91-5.59,1.65-12.28-.92-17.72-5.75-12.16-20.33-21.66-34-19.21-1.65.3-1.71,3.15,0,3.39Z"/><path class="cls-2" d="M376.15,360.51c-3.95-5.66-7.77-14.88,0-19.36,4.63-2.67,10.88-2,15.9-1.12,7.67,1.32,16.82,3.59,23.84-1.17a11.28,11.28,0,0,0,4.87-8c.42-3.16-.43-6.26-.38-9.41,0-2,.28-4.15,1.73-5.66,1.95-2,4-.93,6.15-.69,2.82.3,5.05.42,6.5-2.5,1.57-3.16.75-7.36-.47-10.46L432.82,304c4.09.4,4.86-3.68,4.69-6.85-.18-3.38-1.23-5.73,2.31-6.29a11.66,11.66,0,0,1,3.22.26,60.71,60.71,0,0,0,6.7,1c3.36.1,6.6-1,7.68-4.54.92-3-.06-6.5-.44-9.46-.48-3.73-1-7.46-1.62-11.18a104.28,104.28,0,0,0-6-22.1c-2.06-5-2.88-8.29-.95-13.46a82.86,82.86,0,0,0,3.86-12.93c2.28-11.38,2.51-23.54-3.11-33.95-3.31-6.13-6.36-13.81-11-19.06-1.37-1.55-3.63.73-2.27,2.27,2.59,2.94,4.25,7.38,6.13,10.79,1.65,3,3.48,5.94,5,9,3.36,6.76,3.71,14.1,3.23,21.53a72.18,72.18,0,0,1-2.73,15.65c-1.1,3.74-3.25,7.49-3.61,11.39-.29,3.14.92,5.8,2.12,8.62a89.25,89.25,0,0,1,4.83,15.06c.95,4.12,1.66,8.29,2.28,12.47.51,3.43,3.66,15-.81,16.69-4.29,1.6-9.27-1.73-13.73-.87a5.52,5.52,0,0,0-3.89,2.51c-.95,1.59,0,10.74-1.92,10.55a1.47,1.47,0,0,0-1.41,1.86c.79,2,2,5.55.93,7.67-1.8,3.55-5.57.24-8.13.58-3.32.43-5.53,3.59-6.36,6.61-1.74,6.24,2.84,13.92-3.45,18.58-4.12,3.05-10.39,2.76-15.18,2.11-8.18-1.11-18-4.4-25.46.84-8.13,5.69-4.84,16.32,1.23,22.07.59.55,1.66-.18,1.16-.9Z"/><path class="cls-2" d="M439.93,234.61c-8.77-7.61-13-18.81-25.81-20.4-11.77-1.46-22.53,5.26-29.65,14.15-1,1.26.72,3.07,1.8,1.81,7.42-8.67,17.8-15.59,29.73-13,11.15,2.45,13.65,13.92,23,18.57.72.36,1.59-.58.91-1.17Z"/><path class="cls-2" d="M421.46,245.66c-15.66-1.06-32.18.32-45-10.53-1.46-1.24-3.59.87-2.12,2.12,13.5,11.47,30.47,10.28,47.08,11.41,1.93.13,1.92-2.87,0-3Z"/><path class="cls-2" d="M432.38,249.67a26.76,26.76,0,0,0-8.37-3.52c-1.88-.46-2.68,2.43-.8,2.89a24.42,24.42,0,0,1,7.66,3.22c1.62,1.06,3.13-1.54,1.51-2.59Z"/><path class="cls-2" d="M431.84,250.09c1.49-6.59-2.26-12.69-7.82-16.11-7.48-4.61-17.09-3.23-25.09-.95a1.29,1.29,0,0,0,.69,2.49c6.54-1.31,13.59-2.76,20.08-.41,6.24,2.25,10.48,8,10,14.68a1.11,1.11,0,0,0,2.16.3Z"/><path class="cls-2" d="M431.4,252.33a1.41,1.41,0,0,0-1.8,1.27,13.61,13.61,0,0,1-2.35,2.62,16.46,16.46,0,0,1-6.25,3.24,21.91,21.91,0,0,1-11.14.11c-9-2.26-15-9.21-21.82-14.87a1.15,1.15,0,0,0-1.63,1.63c7.24,8,17.7,16.32,29,16.11a20.63,20.63,0,0,0,12.17-3.91c1.77-1.36,5.37-4.47,4.23-7a.83.83,0,0,0-.92-.38l-.45.12a.78.78,0,0,0-.53.93l.07.35c.15.85,1.29.53,1.38-.19Z"/><path class="cls-2" d="M435.21,278.48c-3.9-4-11.18-1.7-13.31,3.1-2.69,6.09,3.5,12.86,9.73,11.78a1.26,1.26,0,0,0-.33-2.46c-4.49.41-9.54-4.27-6.9-8.9,2-3.44,6.54-3.87,9.78-2.2a.85.85,0,0,0,1-1.32Z"/><path class="cls-2" d="M436.18,287.9l-.32-.24a.94.94,0,0,0-.93,0,1.71,1.71,0,0,0-.94,2.46c1.13,1.81,3.16,0,4.54.59,1.21.55,2.28-1.17,1.06-1.82a10.06,10.06,0,0,0-6.41-1.09l.86,2a5.77,5.77,0,0,1,3.89-.79l.32-2.3h-5.92l.61,2.27a5.28,5.28,0,0,1,3.6-.55l-.3-2.29a4.08,4.08,0,0,1-3.4.36V289a17.3,17.3,0,0,1,13.05,2,1.39,1.39,0,0,0,1.41-2.4,20.08,20.08,0,0,0-15.14-2,1.29,1.29,0,0,0,0,2.48,7.45,7.45,0,0,0,5.34-.67c1.24-.63.47-2.2-.63-2.34a8.69,8.69,0,0,0-5.16.9,1.23,1.23,0,0,0,.62,2.27l5.92-.08a1.18,1.18,0,0,0,0-2.35,8.08,8.08,0,0,0-5.34,1.16,1.13,1.13,0,0,0,.86,2,7.35,7.35,0,0,1,4.76.75l1.06-1.82a3.29,3.29,0,0,0-1.54-.39,19.57,19.57,0,0,0-2.76.94.89.89,0,0,0,.89-1.54Z"/><path class="cls-2" d="M427.89,254a6.76,6.76,0,0,0,.68-4.28,1.48,1.48,0,0,0-1.64-1.08,1.52,1.52,0,0,0-1.3,1.47,7.8,7.8,0,0,1-.48,1.46,1.5,1.5,0,0,0,1,1.84,1.52,1.52,0,0,0,1.85-1,10.07,10.07,0,0,0,.59-2.25l-2.95.4a3.34,3.34,0,0,1-.38,2,1.54,1.54,0,0,0,.54,2.05,1.52,1.52,0,0,0,2.05-.54Z"/><path class="cls-2" d="M428,253.9a13.92,13.92,0,0,0,1.49-2.52l-2.59-1.51a10.35,10.35,0,0,1-1.36,2.27,1.55,1.55,0,0,0,0,2.13,1.52,1.52,0,0,0,2.12,0,12.62,12.62,0,0,0,1.83-2.89,1.56,1.56,0,0,0-.54-2,1.51,1.51,0,0,0-2.05.54,14.19,14.19,0,0,1-1.49,2.51,1.51,1.51,0,0,0,.54,2.05,1.53,1.53,0,0,0,2.05-.53Z"/><path class="cls-2" d="M426.86,258a13.75,13.75,0,0,0,4.27-4.7c.79-1.43-1.22-3.16-2.36-1.81a14.34,14.34,0,0,1-3.26,3c-1.64,1-.13,3.61,1.51,2.59a16.67,16.67,0,0,0,3.87-3.43l-2.35-1.82a10.51,10.51,0,0,1-3.2,3.62c-1.58,1.08-.08,3.69,1.52,2.59Z"/><path class="cls-2" d="M427.06,256.72a13.74,13.74,0,0,0,5.29-5.11l-2.59-1.52a10.33,10.33,0,0,1-4.1,4.55c-1.68.94-.17,3.54,1.52,2.59a13.06,13.06,0,0,0,5.17-5.62,1.5,1.5,0,0,0-2.59-1.52,10.76,10.76,0,0,1-4.21,4c-1.71.91-.19,3.5,1.51,2.59Z"/><path class="cls-2" d="M433.75,304.35c.63-3.18-1.56-5.44-4.68-5.89-2.49-.36-5.16.3-7.61.63-3.83.53-7.65,1.08-11.48,1.62-1.5.22-.86,2.49.63,2.29l9-1.26c2.6-.37,12.33-3.05,12.26,2.36,0,1,1.65,1.32,1.86.25Z"/><path class="cls-2" d="M409.7,303a114.45,114.45,0,0,0,17.14,11.53c1.07.58,2.41-1,1.36-1.77a114.92,114.92,0,0,0-17.48-11.09c-.8-.41-1.81.69-1,1.33Z"/><path class="cls-2" d="M430.27,304.57c-2-.09-4.08-.21-6.12-.25-.92,0-1.16,1.46-.22,1.63a6.61,6.61,0,0,0,5-.81.92.92,0,0,0,0-1.58,11.1,11.1,0,0,0-12.54.39,1,1,0,0,0,0,1.69,9.07,9.07,0,0,0,9.16.12,1,1,0,0,0,.45-1.12,3.93,3.93,0,0,0-6-2.62,1,1,0,0,0,.23,1.82,15.32,15.32,0,0,0,6.14.43l-.26-2a11.16,11.16,0,0,0-3.69,2,1,1,0,0,0,.44,1.67,10.44,10.44,0,0,0,6.72-.8,1,1,0,0,0,0-1.74,8.69,8.69,0,0,0-3.42-.94c-.93-.08-1.26,1.13-.71,1.72a2.75,2.75,0,0,0,3.74.55,1,1,0,0,0-.25-1.85l-1.68-.07-.16-1.23c.4-.62-3,.12-2-.06a6.94,6.94,0,0,0-2.36,1.16,1,1,0,0,0,.79,1.87c1.56-.42,5.31-1.21,5.78,1.36l1.53-1.17-1.24-1.91-2.07.28a7.66,7.66,0,0,1,.46,5.17L430,308l.11-1.64H428.6q2.41,1.29-.09,2.65l-1.24.51-2.22-2.3-.4,1.53,3.44,1,.79-1.39a9.52,9.52,0,0,1-8.77-2.23l-.24,1.81a7.06,7.06,0,0,1,6.88.3l.28-2.12a4.57,4.57,0,0,1-5.9-2.24l-.69,1.72a9.44,9.44,0,0,1,8.67,2.36l.23-1.85a6.08,6.08,0,0,1-5.67,0l.54,1.33a2.56,2.56,0,0,1,4.48-1.06l1.43-1.85a15.85,15.85,0,0,0-12.47-2.94c-1.32.22-1,2.41.31,2.34l10.27-.55a1.21,1.21,0,0,0,.6-2.23,10.84,10.84,0,0,0-11.76.61,1.25,1.25,0,0,0-.55,1.36,3.15,3.15,0,0,0,4.63,1.91c1.21-.54.42-2.12-.61-2.23l-6.46-.74c-1-.11-1.42,1.09-1,1.81a7,7,0,0,0,5.88,3.61,14.71,14.71,0,0,0,4-.22c1.22-.21,2.42-.56,3.65-.74,1.07-.16,5.73-.56,6.22,0l.18,1.39.17-.3a1.13,1.13,0,0,0-2-1.14l-.19.29a1.17,1.17,0,0,0,.18,1.38c1.84,2.33,4.34-.87,2.13-2.84-4.93-4.39-14.71,3.86-18.15-2.63l-1,1.81,6.46.73-.61-2.24-1.09-.48-.56,1.36a8.46,8.46,0,0,1,9.34-.63l.61-2.22-10.27.56.32,2.34a13.54,13.54,0,0,1,10.65,2.68c1.14.85,2.25-.91,1.43-1.86a4.92,4.92,0,0,0-8.43,2.1,1.2,1.2,0,0,0,.55,1.33,8.4,8.4,0,0,0,8,.05,1.18,1.18,0,0,0,.24-1.84,11.82,11.82,0,0,0-10.95-2.95,1.17,1.17,0,0,0-.7,1.71,6.83,6.83,0,0,0,8.53,3.3,1.18,1.18,0,0,0,.27-2.13,9.49,9.49,0,0,0-9.21-.28,1.16,1.16,0,0,0-.23,1.81,11.9,11.9,0,0,0,11,2.78,1.14,1.14,0,0,0,.79-1.39,4.28,4.28,0,0,0-7-2.16,1.13,1.13,0,0,0-.18,1.36,6.85,6.85,0,0,0,5.5,3.31,1.05,1.05,0,0,0,.95-.54c.78-1.7.24-3.31-1.71-3.72a1.14,1.14,0,0,0-1.24.5,2.9,2.9,0,0,0,3.32,4.38c3.61-1.26,2.34-5.55.18-7.43a1.08,1.08,0,0,0-1.52,0,3.3,3.3,0,0,0-.43,4.23,1.08,1.08,0,0,0,1.95-.26,9.46,9.46,0,0,0-.48-6.29c-.41-1-2.18-1-2.06.28a4.26,4.26,0,0,0,2.29,3.71,1.06,1.06,0,0,0,1.53-1.18c-.72-3.84-5.38-3.59-8.33-2.79l.79,1.88a4.71,4.71,0,0,1,3.95-1,1,1,0,0,0,.88-.51l.21-.31a1,1,0,0,0-.16-1.23c-2.26-2.39-4.92,2.13-.29,3.46L428.2,303l-1.29-.23-.71,1.73,2.41.66v-1.74a7.07,7.07,0,0,1-5.17.61l.44,1.68,2.8-1.47c1-.33.9-2.11-.27-2a14.18,14.18,0,0,1-5.61-.36l.24,1.82c2.45.94,2.44,1.38-.05,1.3a6.55,6.55,0,0,1-3.57-1.09v1.69a9.5,9.5,0,0,1,10.63-.5v-1.58l-3.68.79-.22,1.63c2,0,4.08-.11,6.12-.19a.61.61,0,0,0,0-1.22Z"/><path class="cls-2" d="M429.59,304.15a2.54,2.54,0,0,0-.1.37,2.82,2.82,0,0,0-.12.56,2.61,2.61,0,0,0,.09.88,1.64,1.64,0,0,0,3.18.07,1.42,1.42,0,0,0-1-1.82,1.1,1.1,0,1,0-.59,2.12.84.84,0,0,1-.55-.95c.09-.35,0-.08,0,0s0,0,.07-.09c-.08.08-.05.07.07,0a.88.88,0,0,1-.21.12l.5-.13c-.15,0,.06,0,.12,0l.12.07c.07,0-.07-.11,0,0a1.87,1.87,0,0,1-.07-.22s-.06-.36-.05-.3a3.85,3.85,0,0,1,0-.48.74.74,0,0,0-1.45-.2Z"/><path class="cls-2" d="M431.61,305.54c.07,0,.11,0,0,0l0,0c.05.12.07.15.05.08s0,0,0,0,0,.38,0,.07c0,0,0-.36,0-.14s0,0,0,0,0-.12.05-.18c0,.12-.09.11,0,.06a.54.54,0,0,0,.07-.13c0,.05-.12.17,0,.05l.1-.09c-.13.09-.16.11-.09.07s0,0,0,0a.37.37,0,0,1-.21,0c-.25,0,.12.06-.09,0s.1.15-.13-.08c0,0-.15-.22-.08-.09a.86.86,0,0,1-.1-.38c0,.15,0-.14,0-.15s0-.1,0-.13c-.08.17.16-.17.07-.07s-.08.13,0,0,.08-.05,0,0l-.1.06s-.14.05-.14.07.29-.1.13-.06.21,0,.07,0,.19,0,.19,0,.33.16.16.06a1.73,1.73,0,0,1,.23.21s.17.37.12.21a1.22,1.22,0,0,0-1.35-.88,1.2,1.2,0,0,0-1.06,1.2A1.68,1.68,0,0,0,430.8,307a2.09,2.09,0,0,0,1.59-.32c.93-.63,1.51-2,.64-2.95a1.9,1.9,0,0,0-3,.48,2.31,2.31,0,0,0-.32,1.66c.12.29.14.33.05.13,0,0,0,.08,0,.13a2,2,0,0,0,.2.41,1.74,1.74,0,0,0,.69.6.94.94,0,0,0,.94-1.62Z"/><path class="cls-2" d="M430.29,304.53a3.61,3.61,0,0,0,.15.92l.35.87v-.64l0,.11a1.3,1.3,0,0,0,1.9,1.45,1.29,1.29,0,0,0-.31-2.35l-.09,0,.71.55c-.17-.29-.33-.59-.51-.88a5.32,5.32,0,0,0-.74-.82.86.86,0,0,0-1.43.83Z"/><path class="cls-2" d="M431.26,305.82a20.84,20.84,0,0,0-.64-2.59l-.76,1.35s.29-.16.14-.06-.09,0,0,0,.08,0,0,0a.81.81,0,0,1,.24.25l-.15-.58c0-.17,0-.16,0,.05a.91.91,0,0,0,0,.49c.07.23,0-.09,0,0s0-.23,0,.06a1.21,1.21,0,0,0,0,.73,1.16,1.16,0,0,0,1.38.79,1.56,1.56,0,0,0,1.07-1.63,2.08,2.08,0,0,0-.23-1l-.2-.26q-.42-.35-.15-.09c.11.11.13.13.06.05a2.92,2.92,0,0,0-.21-.28,2.35,2.35,0,0,0-2.85-.61,1.09,1.09,0,0,0-.51,1.23,25.46,25.46,0,0,0,1.25,2.64c.47.85,1.68.24,1.5-.63Z"/><path class="cls-2" d="M431.06,305.63c.5-.33,1-.6,1.53-.94a1.14,1.14,0,0,0-.26-2.05,18.6,18.6,0,0,0-3.59-1.24,1.26,1.26,0,0,0-1.45.72,1.22,1.22,0,0,0,.5,1.53,18.55,18.55,0,0,0,3.94,1.15l-.5-1.87c-.41.45-.76.95-1.17,1.41-.58.66.17,1.82,1,1.29Z"/><path class="cls-2" d="M427.24,302.38c1.61.31,4,.12,4.56,2.1.26.92-.59,7.21-2.61,5.31l-1.56,2,1.71.89,1-2.35a15.72,15.72,0,0,1-5.57-2,1.33,1.33,0,0,0-1.8,1.8,7.69,7.69,0,0,0,3.58,3.16,1.32,1.32,0,0,0,1.33-2.27L425,309.2l-1.32,2.26c.82.39,1.65.78,2.48,1.15,1.46.65,2.75-1.41,1.28-2.18-.81-.42-1.62-.83-2.44-1.23a1.31,1.31,0,0,0-1.32,2.26l2.84,1.8,1.33-2.27a5.32,5.32,0,0,1-2.64-2.22l-1.8,1.8a17.75,17.75,0,0,0,6.22,2.25c1.33.22,2.4-1.63,1-2.35l-1.71-.88c-1.24-.63-2.67,1-1.55,2a3.53,3.53,0,0,0,4.54.31c1.7-1.17,2.11-3.43,2.3-5.34.42-4.38-2.8-6.69-7-5.95a.92.92,0,0,0,0,1.76Z"/><path class="cls-2" d="M412.16,303.12a1.91,1.91,0,0,0,1,1.12,3.68,3.68,0,0,0,1.52.39,1,1,0,0,0,.72-1.73,4.48,4.48,0,0,0-2.55-1.21,1.13,1.13,0,0,0-.29,2.22,3.93,3.93,0,0,1,1.61.58l.51-1.89a5,5,0,0,1-1.69-.29c-.45-.09-1,.31-.8.81Z"/><path class="cls-2" d="M414.77,247.31c-3.81,1.84.66,7.5,2.86,8.72,3.92,2.17,8.6.47,10.95-3.11l-2.73-.74c-.11,1.67-.5,3.23-2.3,3.52a8.74,8.74,0,0,1-4.07-.32c-2.63-1-3.33-4.08-2.31-6.48a1.5,1.5,0,0,0-2.59-1.51c-3.44,4.48,0,10.59,5.28,11.15a8.56,8.56,0,0,0,6.94-2.38c1.55-1.57,2.92-4.46,1.68-6.56a1.53,1.53,0,0,0-2.06-.54l-.16.09a1.52,1.52,0,0,0-.69,1.7l0,.15c.54,1.84,3.44,1.06,2.89-.8l0-.15-.69,1.69.17-.09-2.05-.54c.65,1.11-1.27,3.09-2,3.58a5.68,5.68,0,0,1-4.09.84,4.1,4.1,0,0,1-2.62-6.63l-2.59-1.51c-1.76,4.14-.56,9.36,4.1,10.87,2,.66,5.37.92,7.35.05s2.65-4.13,2.75-6.13c.09-1.53-2-1.9-2.73-.74A5.51,5.51,0,0,1,420,254a5.58,5.58,0,0,1-2.76-1.88c-.37-.45-1.66-2.26-1-2.8,1.17-.93-.32-2.53-1.5-2Z"/><path class="cls-2" d="M418.91,247.73c1.35,1.29,3.84,1.37,5.59,1.27a1.3,1.3,0,0,0,.35-2.54,14.75,14.75,0,0,0-4.41-.86,1.36,1.36,0,0,0-.36,2.65,32,32,0,0,0,5.42,1.24,1.26,1.26,0,0,0,.63-2.33,32.17,32.17,0,0,0-5.33-1.51l-.36,2.65a12.08,12.08,0,0,1,3.72.66l.34-2.55a19.57,19.57,0,0,1-2.76.06,8.37,8.37,0,0,0-2.5,0,.75.75,0,0,0-.33,1.23Z"/><path class="cls-2" d="M417.09,247.49c-2.27,2.27-.6,6.35,2,7.57,3.11,1.46,6.92-.79,7.54-4.06H424c.28,1.58-2.5,1.62-3.32,1.12s-1.16-2.26,0-2.7l-1.59-2.06a3.71,3.71,0,0,0-.41,1.17c-.19,1.15,1.19,2.26,2.14,1.24a4,4,0,0,0,.7-1c.49-1-.34-2.52-1.59-2.07a4.38,4.38,0,0,0-.72,7.85c3.09,1.83,8.37-.19,7.43-4.3-.28-1.27-2.48-1.38-2.68,0-.26,1.77-2.08,3.32-3.91,2.54s-1.88-2.85-1.57-4.51a.83.83,0,0,0-1.38-.8Z"/><path class="cls-2" d="M420.44,247.57c-1.6-.26-2.65,1.33-2.83,2.75a3.67,3.67,0,0,0,2.3,3.84,4.48,4.48,0,0,0,4.67-.69c1.35-1.16,1.95-3.74.15-4.79a1.27,1.27,0,0,0-1.85,1.42c.26.77.67,1.3-.23,1.84a2.18,2.18,0,0,1-2,.1,1.56,1.56,0,0,1-1-1.58c.07-.77.63-1.16,1.07-1.71.29-.37.27-1.08-.31-1.18Z"/><path class="cls-2" d="M397.6,342.47c-1.93,8.58.45,17.41,4.95,24.86,4.71,7.8,12.15,13.26,18.1,20,12.36,14,20.27,32.33,18.17,51.28-2.13,19.2-14.95,34.62-26.41,49.28-11.67,14.94-22.09,31.33-40.48,38.45-9,3.48-18.53,5.4-28,7.1s-20.53,2.24-29,7.43c-7.09,4.34-.63,15.49,6.53,11.17,7.31-4.41,17.7-4.52,26-6,9-1.56,18-3.32,26.55-6.4a74.79,74.79,0,0,0,23.45-13.1c7.94-6.73,14-15.5,20.32-23.68,12.05-15.59,25.83-31.18,31.64-50.4,5.87-19.39,1.33-40.65-8.68-57.86a103.65,103.65,0,0,0-19.78-24.13c-4.14-3.79-8.22-7.28-11-12.28-2.65-4.84-3.65-10.42-4.77-15.77-.79-3.79-6.76-3.72-7.59,0Z"/><path class="cls-2" d="M391.52,373.49a2.29,2.29,0,0,0,1.41-.59,1.5,1.5,0,0,0,.41-.64,1.55,1.55,0,0,0,.17-.77l-.07-.53a2.17,2.17,0,0,0-.51-.88l-.41-.31a2,2,0,0,0-1-.27,1.55,1.55,0,0,0-.77.17,1.5,1.5,0,0,0-.64.41,1.53,1.53,0,0,0-.41.65,1.42,1.42,0,0,0-.17.76l.07.53a1.91,1.91,0,0,0,.51.88l.4.31a2.1,2.1,0,0,0,1,.28Z"/><path class="cls-2" d="M393.75,378.32c2.56,0,2.57-4,0-4s-2.57,4,0,4Z"/><path class="cls-2" d="M394.27,380.52a2.13,2.13,0,0,0,.07.27,1.94,1.94,0,1,0,3.75-1,2,2,0,0,0-1.36-1.36l-.27-.07a1.78,1.78,0,0,0-2.19,2.19Z"/><path class="cls-2" d="M396.39,383.4l0,.34a1.08,1.08,0,0,0,.13.54,1,1,0,0,0,.29.46,1,1,0,0,0,.45.29,1,1,0,0,0,.54.12l.38,0a1.49,1.49,0,0,0,.62-.36l.22-.29a1.35,1.35,0,0,0,.19-.71l.05-.34a1.18,1.18,0,0,0-.13-.56,1.29,1.29,0,0,0-.77-.77,1.07,1.07,0,0,0-.56-.12l-.38.05a1.42,1.42,0,0,0-.64.37l-.23.29a1.49,1.49,0,0,0-.2.74Z"/><path class="cls-2" d="M396.21,390.34c4.24-3.85,10.57-2.78,12.59,2.94.81,2.29.93,5.36-.86,7.26s-4.76,1.84-7.12,1.58c-1.66-.19-1.64,2.42,0,2.6,3.38.37,7.28-.11,9.47-3s1.95-7,.54-10.11c-2.78-6.11-12.06-8.92-16.21-2.49-.64,1,.76,2,1.59,1.23Z"/><path class="cls-2" d="M387.74,391.15c-12.12-1.43-12.46,20.62-.42,20.31,4.9-.13,8.75-4.29,9.28-9a11.11,11.11,0,0,0-9.52-12.19c-1.82-.3-2.6,2.48-.77,2.78,4,.66,7.25,3.44,7.57,7.71a7.41,7.41,0,0,1-5.85,8c-4.58.84-7.56-4-7.53-8.13,0-4.63,3.36-7,7.42-8.21a.66.66,0,0,0-.18-1.29Z"/><path class="cls-2" d="M377.05,394.89c-7.56-6.48-16.2,5.26-12.73,12.58.83,1.75,3.41.23,2.59-1.51-2-4.22,3.25-13,8-8.95,1.46,1.25,3.59-.86,2.12-2.12Z"/><path class="cls-2" d="M388.49,394.86a6.9,6.9,0,0,0-6.49,6.89,5.63,5.63,0,0,0,7.44,5.57c3.66-1.24,5-5.87,3.28-9.15-1.84-3.47-6.83-4-8.32,0-.51,1.35,1.34,2.15,2.26,1.32l1.59-1.45-2.1-1.62a18,18,0,0,1-2,3.33c-.91,1.22,1,2.62,2.07,1.59l1.62-1.6-2-1.58-1.72,3.1c-.68,1.22,1.05,2.71,2,1.55a13.61,13.61,0,0,1,2.31-2.24l-1.72-1.73a14,14,0,0,1-1.84,2.91,1.25,1.25,0,0,0,1.77,1.77,21,21,0,0,0,2.89-2.85l-2-1.51-2.91,4c-.72,1,.72,2.44,1.71,1.71l3.2-2.37-1.71-1.7-3.17,4.58c-.64.93.42,2.09,1.41,1.83a7,7,0,0,0,5.18-7.34l-2.14.89c1,1.14.4,1.74.24,2.94-.19,1.53,0,1.35.84.74a3.9,3.9,0,0,0,1.44-2.23,4.25,4.25,0,0,0-2.12-4.76c-1.47-.74-2.76,1.48-1.29,2.21a1.65,1.65,0,0,1,.56,2.62c-.6.63-1.44.72-1.8,1.61a2.07,2.07,0,0,0,1.95,2.78c3.93,0,3.74-5.58,2-7.68a1.26,1.26,0,0,0-2.13.88,4.47,4.47,0,0,1-3.34,4.94l1.4,1.83,3.18-4.58c.69-1-.71-2.45-1.71-1.71l-3.2,2.37,1.71,1.7,2.92-4c.83-1.14-1.06-2.6-2-1.52a21,21,0,0,1-2.89,2.85l1.77,1.77a17.21,17.21,0,0,0,2.25-3.41c.5-1-.62-2.53-1.73-1.72a15.67,15.67,0,0,0-2.85,2.61l2,1.55,1.76-3.07a1.31,1.31,0,0,0-2-1.58l-1.64,1.58,2.07,1.6a17.62,17.62,0,0,0,2-3.31,1.35,1.35,0,0,0-2.11-1.62l-1.61,1.43,2.26,1.31c.66-1.71,2.65-.67,3.3.31a4.14,4.14,0,0,1,.57,3,3.49,3.49,0,0,1-4.34,2.87c-2.21-.65-2.68-3.34-1.94-5.25a6.47,6.47,0,0,1,4.08-3.65.7.7,0,0,0-.18-1.36Z"/><path class="cls-2" d="M402.06,393.49c-.42-1.95,2-1.7,2.89-1.12a5.2,5.2,0,0,1,1.79,2c.78,1.48.86,3.53-.76,4.47a2.72,2.72,0,0,1-3-4.52l-1.61-1.62-1,1.56c-.59.95.66,2.37,1.63,1.63l2.22-1.7-1.76-1.35a10.45,10.45,0,0,1-1.7,3.3c-.85,1.14.91,2.27,1.87,1.44l2.77-2.41-1.85-1.42-2.17,3.51a1.18,1.18,0,0,0,1.6,1.6l2.56-1.67-1.59-1.59-2.17,3.88c-.54,1,.58,2.22,1.58,1.58l2.85-1.82-1.57-1.57a1.73,1.73,0,0,1-1.49.89l1.1,1.9c2.07-1.8,3.87-4.47,1.72-6.95l-1.44,1.87a1.88,1.88,0,0,1,.82,2.81l2.08.86c-.34-2.94,0-6.88-3.87-7.43a4.08,4.08,0,0,0-3.51,1.08c-1.14,1.22-.25,4.14-.12,5.68l2.27-.62-1.69-3.65-1.66,1.67a3.52,3.52,0,0,1,1.32,4h2.35c-.19-.54-1.78-7-.3-6.67l-.54-2.05c-2.38,1.85-3,5.72-.72,7.88a1,1,0,0,0,1.64-1.26,3.7,3.7,0,0,1,.82-4.89,1.24,1.24,0,0,0-.55-2.05c-5.33-1.3-3.6,7.17-2.7,9.69a1.23,1.23,0,0,0,2.35,0,6.05,6.05,0,0,0-2.44-6.74c-1.1-.77-2.13.69-1.67,1.67l1.69,3.65a1.22,1.22,0,0,0,2.27-.61l-.26-3c-.08-1-.1-1.67,1.26-1.34,1.94.48,1.45,3.51,1.62,5,.1.91,1.34,1.78,2.08.86a4.27,4.27,0,0,0-1.34-6.59,1.2,1.2,0,0,0-1.45,1.87c1.19,1.31-.76,2.9-1.64,3.66s.11,2.07,1.11,1.91a4,4,0,0,0,2.87-1.93,1.15,1.15,0,0,0-1.56-1.57l-2.87,1.81,1.58,1.57,2.19-3.87c.55-1-.59-2.24-1.59-1.59l-2.57,1.66,1.6,1.6,2.19-3.51c.74-1.19-.88-2.26-1.86-1.42l-2.78,2.39,1.86,1.44a12.79,12.79,0,0,0,2-3.86c.28-.92-.91-2-1.76-1.35l-2.21,1.7,1.62,1.63,1-1.57c.59-.95-.64-2.34-1.62-1.62-2.41,1.81-3.12,5.46-.85,7.73a5.16,5.16,0,0,0,7.59-.76c1.94-2.87.16-6.88-2.58-8.52-2.48-1.49-6.74-.06-5.21,3.34.36.8,1.52.21,1.35-.56Z"/><path class="cls-2" d="M377.38,401.09c3.62,0,3.63-5.62,0-5.62s-3.62,5.62,0,5.62Z"/><path class="cls-2" d="M374.13,402.37v.35a2.15,2.15,0,0,0,.24,1.11,2.23,2.23,0,0,0,.6.92,2.11,2.11,0,0,0,.93.6,2.21,2.21,0,0,0,1.11.25l.77-.1a2.94,2.94,0,0,0,1.27-.75l.45-.58a2.84,2.84,0,0,0,.39-1.45v-.35a2.15,2.15,0,0,0-.25-1.11,2.52,2.52,0,0,0-1.52-1.52,2.11,2.11,0,0,0-1.11-.25l-.77.1a3,3,0,0,0-1.27.74l-.45.59a2.84,2.84,0,0,0-.39,1.45Z"/><path class="cls-2" d="M379.08,408.15l.07-.21-1,1.33.05,0a1.79,1.79,0,0,0,.65-.6,1.19,1.19,0,0,0,.3-.51,1.82,1.82,0,0,0,.2-.89l-.09-.62-.23-.55a1.71,1.71,0,0,0-.6-.65,1,1,0,0,0-.51-.3,1.69,1.69,0,0,0-.89-.2l-.62.08-.55.24a1.68,1.68,0,0,0-.65.59,1.32,1.32,0,0,0-.3.51,1.86,1.86,0,0,0-.2.9l.08.61.24.56a2.28,2.28,0,0,0,.83.83l.05,0-1-1.33.07.21.22.51a1.59,1.59,0,0,0,.55.6,1,1,0,0,0,.47.28,1.69,1.69,0,0,0,.83.19l.57-.08.51-.22a1.59,1.59,0,0,0,.6-.55,1.67,1.67,0,0,0,.39-.73Z"/><path class="cls-2" d="M383.33,416c3.13,0,3.13-4.85,0-4.85s-3.12,4.85,0,4.85Z"/><path class="cls-2" d="M387.8,416.23c3,0,3-4.64,0-4.64s-3,4.64,0,4.64Z"/><path class="cls-2" d="M391.52,414.6c2.8,0,2.81-4.36,0-4.36s-2.81,4.36,0,4.36Z"/><path class="cls-2" d="M394.49,412.31a1.76,1.76,0,0,0,0-3.51,1.76,1.76,0,0,0,0,3.51Z"/><path class="cls-2" d="M396,410.41c3.17,0,3.18-4.92,0-4.92s-3.17,4.92,0,4.92Z"/><path class="cls-2" d="M396.67,403.7l-.08.17,0,.08-.21.48a3.31,3.31,0,0,0-.07.55,1.47,1.47,0,0,0,.17.74,1.42,1.42,0,0,0,.4.62,1.33,1.33,0,0,0,.62.4,1.48,1.48,0,0,0,.75.17l.51-.07a1.89,1.89,0,0,0,.85-.5l.3-.39a1.84,1.84,0,0,0,.27-1,3.31,3.31,0,0,0-.07-.55l-.21-.48,0-.08-.08-.17a1.78,1.78,0,0,0-.64-.64,1.76,1.76,0,0,0-1.81,0,1.78,1.78,0,0,0-.64.64Z"/><path class="cls-2" d="M398.22,402.73c2.85,0,2.85-4.43,0-4.43s-2.86,4.43,0,4.43Z"/><path class="cls-2" d="M397.1,398.42c2.58,0,2.58-4,0-4s-2.58,4,0,4Z"/><path class="cls-2" d="M396.35,395.29c2.86,0,2.86-4.43,0-4.43s-2.85,4.43,0,4.43Z"/><path class="cls-2" d="M392.26,392.2c2.72,0,2.72-4.21,0-4.21s-2.72,4.21,0,4.21Z"/><path class="cls-2" d="M388.17,390.34c2.71,0,2.72-4.21,0-4.21s-2.72,4.21,0,4.21Z"/><path class="cls-2" d="M384.45,391.67c3,0,3-4.64,0-4.64s-3,4.64,0,4.64Z"/><path class="cls-2" d="M377.48,389.88l-.09.26,1.06-1.38a1.05,1.05,0,0,0-.27.2,1.82,1.82,0,0,0-.6.66l-.24.56a1.77,1.77,0,0,0,0,.94,1.64,1.64,0,0,0,.28.88l.37.48a1.78,1.78,0,0,0,.75.49,1.92,1.92,0,0,0,.91.2l.63-.09a1.72,1.72,0,0,0,.8-.42,1.69,1.69,0,0,0,.61-.66l.24-.56a1.77,1.77,0,0,0,0-.94,1.73,1.73,0,0,0-.28-.88l-.37-.48a1.66,1.66,0,0,0-.5-.38l1.06,1.38-.09-.26-.22-.53a1.62,1.62,0,0,0-.57-.62,1.23,1.23,0,0,0-.49-.29,1.7,1.7,0,0,0-.86-.19l-.59.08-.52.22a2.46,2.46,0,0,0-1,1.33Z"/><path class="cls-2" d="M376.6,392.59a2.32,2.32,0,0,0-.29.21,1.26,1.26,0,0,0-.43.43,1.18,1.18,0,0,0-.31.53,1.22,1.22,0,0,0-.16.6,2,2,0,0,0,0,.34l.08.64v0l0,.06,0,.13.23.55a1.71,1.71,0,0,0,.6.65,1,1,0,0,0,.51.3,1.71,1.71,0,0,0,.89.2l.62-.08.55-.23a1.9,1.9,0,0,0,.66-.6,1.82,1.82,0,0,0,.41-.79,2.61,2.61,0,0,0,.15-.85v0l-.09-.63-.24-.57-.37-.48-.48-.37,0,0h0a2.28,2.28,0,0,0-2.31,0Z"/><path class="cls-2" d="M392.21,386.37l-.28.43-.21.5a1.6,1.6,0,0,0,0,.84,1.14,1.14,0,0,0,.14.54,1.57,1.57,0,0,0,.44.67l.43.33.5.22a1.6,1.6,0,0,0,.84,0,1.53,1.53,0,0,0,.79-.25l.42-.28a2.24,2.24,0,0,0,.8-.79,2.21,2.21,0,0,0,.3-1.12l-.08-.59a2.37,2.37,0,0,0-.57-1,1.72,1.72,0,0,0-.71-.45,1.6,1.6,0,0,0-.86-.19,2.21,2.21,0,0,0-1.12.3,2.3,2.3,0,0,0-.79.79Z"/><path class="cls-2" d="M394.66,384.64l-.29.42-.18.45a1.43,1.43,0,0,0,0,.74,1,1,0,0,0,.13.47,1.39,1.39,0,0,0,.39.6l.37.29.45.19a1.33,1.33,0,0,0,.74,0,1.31,1.31,0,0,0,.69-.22l.43-.28a1.91,1.91,0,0,0,.7-.71,1.89,1.89,0,0,0,.27-1l-.07-.52a1.9,1.9,0,0,0-.5-.87,2.21,2.21,0,0,0-1.4-.58,1.94,1.94,0,0,0-1,.27,2,2,0,0,0-.7.71Z"/><path class="cls-2" d="M400.45,410c3.62,0,3.62-5.62,0-5.62s-3.63,5.62,0,5.62Z"/><path class="cls-2" d="M404.54,409.33c3.21,0,3.22-5,0-5s-3.22,5,0,5Z"/><path class="cls-2" d="M409,407.63c2.95,0,2.95-4.57,0-4.57s-2.94,4.57,0,4.57Z"/><path class="cls-2" d="M412.35,403.83a1.83,1.83,0,0,0,0-3.66,1.83,1.83,0,0,0,0,3.66Z"/><path class="cls-2" d="M413.47,399.79c2.89,0,2.9-4.5,0-4.5s-2.9,4.5,0,4.5Z"/><path class="cls-2" d="M413.1,396.3c2.71,0,2.72-4.22,0-4.22s-2.72,4.22,0,4.22Z"/><path class="cls-2" d="M362.13,409a2,2,0,0,0,1-.22,1.91,1.91,0,0,0,.82-.53,1.88,1.88,0,0,0,.53-.83,1.85,1.85,0,0,0,.22-1l-.09-.68a2.54,2.54,0,0,0-.66-1.13l-.52-.4a2.55,2.55,0,0,0-1.29-.35,1.85,1.85,0,0,0-1,.22,1.94,1.94,0,0,0-.83.53,2,2,0,0,0-.53.83,1.93,1.93,0,0,0-.22,1l.09.69a2.54,2.54,0,0,0,.66,1.13l.52.4a2.56,2.56,0,0,0,1.3.35Z"/><path class="cls-2" d="M375,410.92l-.36.07-.44.19a1.42,1.42,0,0,0-.52.48.86.86,0,0,0-.24.41,1.36,1.36,0,0,0-.16.72l.06.49.19.45a1.42,1.42,0,0,0,.48.52,1.39,1.39,0,0,0,.63.34l.36.06a1.77,1.77,0,0,0,1,0,1.9,1.9,0,0,0,.86-.49l.3-.39a1.89,1.89,0,0,0,.26-1,2.09,2.09,0,0,0-.56-1.37,2,2,0,0,0-.86-.5,2,2,0,0,0-1,0Z"/><path class="cls-2" d="M362.87,397.76c3.17,0,3.17-4.92,0-4.92s-3.17,4.92,0,4.92Z"/><path class="cls-2" d="M366.59,396.7a2.21,2.21,0,0,0,1.11-.25,2.11,2.11,0,0,0,.93-.6,2.23,2.23,0,0,0,.6-.92,2.15,2.15,0,0,0,.24-1.11l-.1-.77a2.87,2.87,0,0,0-.74-1.27l-.58-.45a2.89,2.89,0,0,0-1.46-.4,2.23,2.23,0,0,0-1.11.25,2.2,2.2,0,0,0-.93.6,2.11,2.11,0,0,0-.59.92,2.17,2.17,0,0,0-.25,1.12l.1.76a3,3,0,0,0,.74,1.27l.59.45a2.76,2.76,0,0,0,1.45.4Z"/><path class="cls-2" d="M370.68,394.42c3.17,0,3.18-4.93,0-4.93s-3.17,4.93,0,4.93Z"/><path class="cls-2" d="M371.91,392.45l.15.29a2.38,2.38,0,0,0,.82.82,2.31,2.31,0,0,0,2.31,0,2.47,2.47,0,0,0,.82-.82l.15-.29a2.42,2.42,0,0,0,.33-1.24,2.45,2.45,0,0,0-.33-1.24,2.46,2.46,0,0,0-4.25,0,2.46,2.46,0,0,0-.34,1.24,2.43,2.43,0,0,0,.34,1.24Z"/><path class="cls-2" d="M393.32,372.42l0,.32a2,2,0,0,0,.22,1,2.35,2.35,0,0,0,1.38,1.38,2,2,0,0,0,1,.22l.69-.09a2.67,2.67,0,0,0,1.15-.67l.41-.53a2.6,2.6,0,0,0,.35-1.31l0-.32a2,2,0,0,0-.23-1A2.36,2.36,0,0,0,397,370a2,2,0,0,0-1-.22l-.7.09a2.63,2.63,0,0,0-1.16.68l-.42.53a2.82,2.82,0,0,0-.36,1.33Z"/><path class="cls-2" d="M400.07,380.19l.17.7.18.42a1.33,1.33,0,0,0,.45.49,1.67,1.67,0,0,0,1.07.38,1.93,1.93,0,0,0,.88-.24,1.81,1.81,0,0,0,.81-1.05l.17-.7a1.93,1.93,0,0,0-.5-1.88,1.93,1.93,0,0,0-3.23,1.88Z"/><path class="cls-2" d="M400.87,382.65l0,.35a1.54,1.54,0,0,0,.18.82,1.67,1.67,0,0,0,.44.69,1.69,1.69,0,0,0,.7.45,1.64,1.64,0,0,0,.82.18l.57-.07a2.18,2.18,0,0,0,.95-.56l.33-.43a2,2,0,0,0,.3-1.08l0-.35a1.62,1.62,0,0,0-.19-.84,1.51,1.51,0,0,0-.45-.7,1.63,1.63,0,0,0-.7-.45,1.73,1.73,0,0,0-.84-.19l-.58.08a2.22,2.22,0,0,0-1,.56l-.34.44a2.14,2.14,0,0,0-.3,1.1Z"/><path class="cls-2" d="M387.36,368.23l.07.3a2.32,2.32,0,0,0,.6,1,2.49,2.49,0,0,0,1,.61,2.35,2.35,0,0,0,2.3-.61,2.34,2.34,0,0,0,.61-1l.06-.3a2.43,2.43,0,0,0-.62-2.36l-.49-.38a2.41,2.41,0,0,0-1.23-.33,1.87,1.87,0,0,0-.93.21,1.81,1.81,0,0,0-.78.5,2.48,2.48,0,0,0-.63,1.07,2.56,2.56,0,0,0,0,1.29Z"/><path class="cls-2" d="M390.93,369.48l.13.7.21.5a1.56,1.56,0,0,0,.53.58,1.08,1.08,0,0,0,.46.27,1.59,1.59,0,0,0,.8.18,2.43,2.43,0,0,0,1.05-.29,2.28,2.28,0,0,0,.95-1.24l.14-.7a2.36,2.36,0,0,0,0-1.18,2.22,2.22,0,0,0-2.14-1.63,2.27,2.27,0,0,0-1.56.65,2.12,2.12,0,0,0-.57,1,2.15,2.15,0,0,0,0,1.18Z"/><path class="cls-2" d="M406.4,380.93a1.37,1.37,0,0,0,0-2.74,1.37,1.37,0,0,0,0,2.74Z"/><path class="cls-2" d="M407.21,382.41l.07.35.18.43a1.3,1.3,0,0,0,.46.5.86.86,0,0,0,.39.23,1.52,1.52,0,0,0,.69.16l.48-.07.43-.18a1.31,1.31,0,0,0,.5-.46,1.29,1.29,0,0,0,.32-.61l.07-.35a1.89,1.89,0,0,0,0-1,2,2,0,0,0-.48-.82l-.38-.29a1.81,1.81,0,0,0-.94-.25,1.35,1.35,0,0,0-.71.16,1.37,1.37,0,0,0-.6.38,2,2,0,0,0-.48.82,1.89,1.89,0,0,0,0,1Z"/><path class="cls-2" d="M408.52,387.35l.42.18.54.23a1.72,1.72,0,0,0,.9,0,1.16,1.16,0,0,0,.57-.15,1.8,1.8,0,0,0,.72-.47l.35-.46.23-.53a1.72,1.72,0,0,0,0-.9,1.61,1.61,0,0,0-.27-.84l-.18-.42a2.42,2.42,0,0,0-.87-.87,2.38,2.38,0,0,0-1.22-.33l-.65.09a2.42,2.42,0,0,0-1.07.62,1.9,1.9,0,0,0-.5.78,1.88,1.88,0,0,0-.21.94,2.38,2.38,0,0,0,.33,1.22,2.42,2.42,0,0,0,.87.87Z"/><path class="cls-2" d="M411.61,390.35a1.37,1.37,0,0,0,0-2.74,1.37,1.37,0,0,0,0,2.74Z"/><path class="cls-2" d="M409.83,392.19a6.66,6.66,0,0,0,1.44,2.67,2,2,0,0,0,3.36-1.39,5.17,5.17,0,0,0-.66-2.42,2.36,2.36,0,0,0-1-1.29,2.21,2.21,0,0,0-1.65-.21,2.18,2.18,0,0,0-1.28,1,2.11,2.11,0,0,0-.22,1.66Z"/><path class="cls-2" d="M412.72,396.05l.38,0a1.41,1.41,0,0,0,.7-.16,1.66,1.66,0,0,0,1-1,1.41,1.41,0,0,0,.15-.7l-.06-.49a1.84,1.84,0,0,0-.47-.81l-.37-.28a1.77,1.77,0,0,0-.92-.25l-.38,0a1.45,1.45,0,0,0-.71.16,1.72,1.72,0,0,0-1,1,1.46,1.46,0,0,0-.16.72l.07.49a1.93,1.93,0,0,0,.48.83l.37.29a1.94,1.94,0,0,0,.94.25Z"/><path class="cls-2" d="M400.19,377.16a4.37,4.37,0,0,0-.79-1.06,2.26,2.26,0,0,0-.86-.5l-.51-.07a1.48,1.48,0,0,0-.75.17.91.91,0,0,0-.42.25,1,1,0,0,0-.35.34,1.86,1.86,0,0,0-.42,1.17,3,3,0,0,0,.16.89l.15.41a2,2,0,0,0,.54.91l.41.33a2.07,2.07,0,0,0,1,.28,1.57,1.57,0,0,0,.8-.18,1.46,1.46,0,0,0,.67-.43,1.61,1.61,0,0,0,.43-.66,1.59,1.59,0,0,0,.18-.8,2.12,2.12,0,0,0-.29-1Z"/><path class="cls-2" d="M328.25,395.47a4.78,4.78,0,0,0,2.94-1.82l-2.51-1.46c-1.41,4.71,4.55,5.67,6.71,2.07l-2.75-.36c.82,3.2,5.08,7,7.07,2.35l-2.8-.76c.45,3.33,4,7.08,6.42,3l-2.74-.36c.77,4.27,5.79,5.42,7.53,1.24l-2.95-.39c.07,1.33.06,3.08,1.22,4,1.67,1.29,5.07-1.08,6.24.9a1.5,1.5,0,0,0,2.35.3l1.85-2.15-2.51-.67c.52,3.67,3.6,4.12,6.83,4.27,1.93.1,1.92-2.9,0-3-1.58-.07-3.62.17-3.94-2.06a1.51,1.51,0,0,0-2.51-.67L352.86,402l2.36.3a4.11,4.11,0,0,0-3.21-2.42c-1.41-.22-3.73,1.17-3.84-.93a1.5,1.5,0,0,0-2.94-.4l-1.75-1.25a1.51,1.51,0,0,0-2.74-.35l-.83-1.5c-.16-1.25-2.13-2.32-2.79-.76-1.07-.1-1.6-.64-1.58-1.63a1.52,1.52,0,0,0-2.74-.36l-1.22.25a1.51,1.51,0,0,0-2.51-1.46l-1.61,1.05c-1.83.59-1,3.49.79,2.89Z"/><path class="cls-2" d="M321.55,387.67c-.94,1.52-.55,3.39,1.33,3.81a5,5,0,0,0,4.26-1.18L325,388.18a4.41,4.41,0,0,0-.62,5.77c1.11,1.56,3.71.06,2.59-1.52a1.48,1.48,0,0,1,.15-2.13c1.44-1.31-.68-3.41-2.12-2.12.11-.1-.34.19-.43.22a3.27,3.27,0,0,1-.69.16h-.4c.13,0,0-.08.11,0l.12.11a.85.85,0,0,1,.24.8c-.05,0,.2-.37.17-.32,1-1.65-1.58-3.16-2.59-1.52Z"/><path class="cls-2" d="M322.48,387.65l2.44-.33c0,.76,1.12,1.4,1.68.69l3.56.73a1.15,1.15,0,0,0,1.67.68L336,390.8a1.19,1.19,0,0,0,2.15.28c1.47-2.2,2.54,1.52,4,2.22a1.23,1.23,0,0,0,1.67-.44l2.3,1a1.28,1.28,0,0,0,1.86.75l4.43.95a1.32,1.32,0,0,0,2.25,0l2.78-.28a1.35,1.35,0,0,0,1.69,1.29c1.54-.55,2.17-1.58,2.06,1.74-.05,1.74,2.59,1.72,2.7,0s.43-4.88-1.49-5.8-2.55.95-4,1.48l1.69,1.29c-.56-4.82-5.44-4.85-7.7-1h2.25a5.26,5.26,0,0,0-8-1.82l1.86.75c-.87-3.42-5.07-5.7-6.85-1.52l1.67-.44c-1.6-.77-1.34-3.25-3.32-3.74s-3,1.1-3.9,2.44l2.15.28c-1.21-3.24-4.5-4.59-7.54-2.71l1.66.67c-.75-4.14-5.23-5-7.29-1.31l1.82.5c-.31-4.36-5.27-4.06-5.74.15-.08.77,1.15.91,1.34.18Z"/><path class="cls-2" d="M401.07,382.72c-.09,0-5.1-1.84-3.39-3,1-.67.75-2.54-.66-2.43l-1.91-1.81c.9-.91,0-2.69-1.3-2.24l-1.67-.82c.58-.92-.4-2.41-1.51-2-1.36-1.29-1.4-2.32-.14-3.12a1.32,1.32,0,0,0-1.87-1.87c-1.53,1.46-3.47,3.69-2.22,5.94a4,4,0,0,0,4.94,1.64l-1.52-2c-2.11,3.38,1.46,5.88,4.7,4.75l-1.3-2.23c-3.13,3.15,0,6.67,3.8,6.31l-.65-2.43c-1.47,1.07-2.25,2.63-1.29,4.4,1.1,2,3.69,2.44,5.76,2.62,1.07.09,1.06-1.38.23-1.73Z"/><path class="cls-2" d="M395.58,370.29c2.07,1.11,2.69,2.64,1.87,4.61a1.19,1.19,0,0,0,.83,1.46c2,.28,5.39,1.72,3.83,4.54a1.31,1.31,0,0,0,1.12,1.94c2.22-.08,3.36,1.08,3.4,3.46A1.38,1.38,0,0,0,408,388l.44.28c-.91,1.26,1.19,2.9,2.17,1.68,1.85-2.32.11-4.58-2.61-4.7l1.32,1.73c1.38-4-2.47-6.59-6-6.76l1.11,1.94c2.24-4.28-1.66-7.7-5.74-8.18l1.15,1.51c1.06-3.14-.73-5.47-3.59-6.63-.84-.34-1.26.94-.58,1.39Z"/><path class="cls-2" d="M323,385a3.64,3.64,0,0,0-1.87.68,4.61,4.61,0,0,0-1.33,1.58.9.9,0,0,0,.77,1.33,2,2,0,0,0,1.7-.91c.1-.12.31-.47.4-.54s.16-.06.14,0h0a.58.58,0,0,1-.3-.65.93.93,0,0,0,1.8.5c.44-1.17-.83-1.86-1.81-1.71a1.93,1.93,0,0,0-1.23.7c-.13.16-.49.87-.72.87l.85,1.12a3.54,3.54,0,0,1,1.9-1.79c.55-.23.28-1.23-.32-1.15Z"/><path class="cls-2" d="M323.81,387.68c-.52.2-1,.47-1.52.64,0,0-.15,0-.13,0v0c.23,0,.1.19-.39.53l-1.21-2.07a11.86,11.86,0,0,0-1.89,2.37c-.43,1,.53,2.3,1.59,1.59a10.52,10.52,0,0,0,2.05-2.21c.72-.86.07-2.5-1.2-2.06a2.13,2.13,0,0,0-.72,3.56c1.32,1.4,3.49.27,4.37-1.06a.85.85,0,0,0-.95-1.24Z"/><path class="cls-2" d="M376.32,390.26a1,1,0,0,1,.17.1c.1.06,0,0,0,0l.12.12c.14.14-.08-.12,0,.05s.2.23.3.35c-.11-.12,0,0,0,.06s.09.2,0,.06a.73.73,0,1,0,1.4-.39,1.92,1.92,0,0,0-.71-1.15,2.45,2.45,0,0,0-1.11-.38c-.62-.08-.85.89-.32,1.15Z"/><path class="cls-2" d="M377.53,390a3.2,3.2,0,0,0-.68.16l-.63.27a.76.76,0,0,0,.59,1.39c.2-.05.41-.09.61-.15a3.51,3.51,0,0,0,.68-.32.74.74,0,0,0,.3-.92.75.75,0,0,0-.87-.43Z"/><path class="cls-2" d="M383.47,391.35c.46-.46,1-.31,1.57-.48a.82.82,0,0,0,.19-1.48c-1.07-.55-2.24.24-2.84,1.12-.45.66.54,1.38,1.08.84Z"/><path class="cls-2" d="M390.31,388.49c.26-.2,1.53-1.67,1.9-.89.61,1.29,2.28.29,2.11-.89-.07-.46.62-.59.91-.48a1.22,1.22,0,0,0,1.48-.84c.16-.92.1-1.31,1-1a1,1,0,0,0,1.3-1v-.26a1.23,1.23,0,0,0-.6-1c-2.13-1.21-3.65.73-4,2.68l1.47-.83a2.92,2.92,0,0,0-3.77,3.4l2.11-.88c-1.38-2.73-4.55-.93-5.34,1.21-.34.9.85,1.33,1.44.84Z"/><path class="cls-2" d="M395.56,388.93c-2.33.31-3.59,2.92-3.53,5.07a1,1,0,0,0,2.05.27,8.28,8.28,0,0,1,.94-2.16c.27-.44.9-1.4,1.29-1.55,2.29-.91-.3-3.71-1.41-1.84-.49.81-1.28,1.45-1.77,2.29a10.08,10.08,0,0,0-1.07,2.71l2.06.28c-.1-1.73.89-2.68,1.93-3.89.34-.39.16-1.27-.49-1.18Z"/><path class="cls-2" d="M365.66,401.12c-1.63,3.11.14,7,3.06,8.65,3.51,2,7.79.66,10.5-2,1.28-1.28-.59-3-1.93-1.94-2.27,1.78-7.19,1.79-8.29-1.59-1-3.13,2.46-5.76,4.81-7.06,1.45-.8.42-2.84-1.08-2.55-7.35,1.42-8.18,11-2.88,15.28a1.32,1.32,0,0,0,1.86-1.86c-1.6-1.77-2.91-3.75-2.56-6.25a5.18,5.18,0,0,1,4.32-4.48l-1.07-2.55c-4,2.21-8.55,6.84-5.46,11.51,2.84,4.31,8.47,4.54,12.28,1.49l-1.93-1.94c-4.21,4.27-10.47,1.84-10-4.24a.9.9,0,0,0-1.66-.45Z"/><path class="cls-2" d="M374.05,397.51q-.19-.12.12,0l.32.07.49.14a1.79,1.79,0,0,1,.81.54l1.82-1.4a4.25,4.25,0,0,0-2.07-1.34,2.72,2.72,0,0,0-2.42-.09,1.1,1.1,0,0,0-.22,1.7,3.67,3.67,0,0,0,1.77.77,15.18,15.18,0,0,0,1.64.66,1.17,1.17,0,0,0,.89-2.12,3.86,3.86,0,0,0-1.79-.66,2.9,2.9,0,0,0-1.7.45.68.68,0,0,0,.34,1.25Z"/><path class="cls-2" d="M374,400.51q.79-.18.87.39l-.13.5a1.45,1.45,0,0,1-1.07-.08,2.09,2.09,0,0,1-.23.29,4.87,4.87,0,0,0-.52.76l1.27-.52c.63.18.16.83-.31.65.07,0,0-.08,0-.09l-.25,0,.61.17c.16.11-.07-.33.06-.29s0,.1,0,.11c-.48.07-.12,0-.12.1a.63.63,0,0,1,.17-.49c.12-.05.11-.05,0,0,.13,0,.13,0,0,0,.28.1.05-.15.2.09,0-.05.38.58.14.47-.06,0,.33-.25.3-.24s.35-.19.36-.14a.75.75,0,0,1-.73-.7c0-.12,0-.1,0,.07a2.58,2.58,0,0,1-.5.63c-.1.09-.3.16-.38.26-.21.26-.22-.2.09.12l.34,1.29a2.24,2.24,0,0,1,.41-.85c.36-.39.09.08,0,0a.13.13,0,0,1-.07-.06.54.54,0,0,1-.13-.42c0-.1,0-.14.07-.11l-.07,0c-.05,0-.24,0-.15,0-.25-.07-.21,0-.36-.14.08.05-.07-.06-.07-.07s-.07-.11.06-.28.43-.28.41-.22-.23-.37-.1-.34-.37.34-.32.31a2,2,0,0,1-1.25.26l1.16,2a2.16,2.16,0,0,1,1.57-1.4l-1.53-.63c-.09-.15,0-.19.11-.3a1.39,1.39,0,0,0-.47,1.82,1.35,1.35,0,0,0,1.81.47,2.4,2.4,0,0,0,.89-3.36,1.37,1.37,0,0,0-1.53-.62,4.88,4.88,0,0,0-3.31,3c-.36.86.53,1.66,1.3,1.7,2,.11,4.78-1.42,4.16-3.78a2.61,2.61,0,0,0-2.56-1.82,3.22,3.22,0,0,0-2.6,1.49A2.94,2.94,0,0,0,373.3,405a3,3,0,0,0,2.73-.62,2.35,2.35,0,0,0,.51-3,2.54,2.54,0,0,0-3-.9,3.85,3.85,0,0,0-2.08,2.65,1.33,1.33,0,0,0,.34,1.28c2.55,2.6,7.37-2.73,4.45-4.58-1.35-.84-3.38.23-4,1.53a2.27,2.27,0,1,0,4.32.54,2.53,2.53,0,0,0-3.57-1.65,2.63,2.63,0,0,0-.79,3.64,1.82,1.82,0,0,0,2.07.88,2.65,2.65,0,0,0,1.75-1.33c.88-1.7-1-4-2.8-3a2,2,0,0,0,.38,3.58,1.14,1.14,0,0,0,1.27-.52c.42-.91,1.3-1.59.95-2.72a1.62,1.62,0,0,0-2.06-1,1.28,1.28,0,0,0-.52,2,1.16,1.16,0,0,0,1.89-.16c.32-.69-.37-1.59-1.12-1.12Z"/><path class="cls-2" d="M362.56,408.32l0,.38a.7.7,0,0,0,.19.47.66.66,0,0,0,.47.19.67.67,0,0,0,.67-.66v-.38a.67.67,0,0,0-.2-.48.69.69,0,0,0-.48-.19.68.68,0,0,0-.48.19.72.72,0,0,0-.2.48Z"/><path class="cls-2" d="M325.59,389.34l.23.2a.94.94,0,0,0,1.17.89l.27.26a1,1,0,0,0,1.72.71l1.27-1.2-1.61-.2.44,1.48c0,1,1.13,1.25,1.78.73l1.15-.9h-1.5l.95,1.12a1.09,1.09,0,0,0,1.31.17l.47.42c-.42,1.28,1.36,1.85,2.05.86l.29.12c-.51,1.42,1.72,2,2.25.62l-.11-.47a1.21,1.21,0,0,0,1.71,1.7l.58.07a1.24,1.24,0,0,0,2.43.33l.09.14,2.21,1.29,2.14-2.31-1.91-.78-.18,2,2.4.32-.39.39,2.47,1,.72-1.19,2.31,1.35-.42.85,2.55,1.08.15,1h2.78l.45-1,2.26,1.29.32-.85,2.56,1.06-1.36.56,2.51.66a7.35,7.35,0,0,1-.22-4.83,1.51,1.51,0,0,0-2.51-1.46l-7.3,1.73,1.5,1.5,2.31-2.93L355.83,395c-1.5,2.72-3,2.65-5.32,3.85l-2.21-1.69.05.07c.45-1.34-1.11-2.22-2.2-1.69l-2.93-1.46a1.52,1.52,0,0,0-2.2-.9L341,393l-2.17-1.67q-2.13,5.3-4.6.11l-2.67-1.12.65.66L330,389.72l-1-1a1.48,1.48,0,0,0-1.86-1.41l-2.13-.21v2.53h.58l-.87-2.14.29-.26c-1.39-.1-2,2.13-.73,2.72,9.36,4.2,21.43,12,32,8.38a1.44,1.44,0,0,0,.62-2.36c-1.94-2.18-4.45-1.75-7.22-2.21a39.33,39.33,0,0,1-12.4-4.43l-1.45,2.48,2.36,2.23,1.25-2.17-3.71-1.69-1.41,2.42c6.28,2,11.23,5.88,16.5,9.66,3.54,2.54,7.2,3.06,10.92.46a1.48,1.48,0,0,0,.64-1.58c-.37-2.5.75-4.12-2.09-5.21a1.44,1.44,0,0,0-1.39.37l-.66.54c-1.23,1,.15,2.61,1.4,2.4s2.38-.41,3.57-.63l-1.78-1.79-.71,1.93c-.45,1.25,1.1,2.22,2.14,1.64l2.68-1.48L363.4,398l0,1.06c-.24,1.26,1.46,2.69,2.44,1.42l2.36-3.05-2.29-1.77A8.73,8.73,0,0,0,364,401.5c0,1.6,2.58,2.06,2.87.39l.31-1.75c.31-1.84-2.51-2.63-2.83-.77l-.3,1.75,2.88.38a5.41,5.41,0,0,1,1.51-4.36c1.14-1.5-1.39-2.94-2.52-1.47l-2.36,3.06,2.66,1.12a5.13,5.13,0,0,0,0-2.61,1.46,1.46,0,0,0-2.14-.87l-2.68,1.48,2.14,1.64.7-1.92c.41-1.14-.8-2-1.79-1.79l-3.57.66,1.4,2.4c-1,.88-.74,1.93-.58,3l.64-1.58c-5.11,3.54-10.08-2.14-14.09-4.91a41.53,41.53,0,0,0-11.15-5.6,1.46,1.46,0,0,0-1.41,2.43,9,9,0,0,0,5.76,2.53c1.19.12,1.67-1.29,1.25-2.17a6.09,6.09,0,0,0-3.75-3.41c-1.51-.63-2.52,1.86-1.11,2.63a42.79,42.79,0,0,0,8.95,3.74c2.18.62,8.57.66,10.12,2.42l.63-2.36c-9.76,3.26-21.2-4.27-29.83-8.18l-.74,2.72.62.05a1.45,1.45,0,0,0,1.26-.72l.35-.52a1.48,1.48,0,0,0-.88-2.14,2.59,2.59,0,0,0-2.83.28,1.48,1.48,0,0,0,0,2.53,4.9,4.9,0,0,0,4.39.51L326,388.69c-.39,5.24,6.81,6.42,6.88,1a1.49,1.49,0,0,0-2.22-1.28c-4.59,3.45,2.36,7.87,3.66,2.66a1.47,1.47,0,0,0-2.68-1.12c-2.33,3.08.34,6.23,3.61,6.79,2.75.48,9-1.83,5.68-5.51-1.71-1.88-5.27-.58-4.46,2.2,1.06,3.65,4.48.68,5.15-1.34.45-1.32-1.1-2.18-2.17-1.67-4.53,2.16-1.19,8.1,3.06,5.35l-2.2-.89c.93,3.47,4.16,4.77,7.33,3.25l-2.2-1.7c-1.52,4.58,4.88,6.27,5.74,1.52a1.52,1.52,0,0,0-2.21-1.69,2.91,2.91,0,0,0,.36,5.45c3.69,1.39,7.5-2.35,9.07-5.2a1.51,1.51,0,0,0-2.05-2.05c-2.56,1.14-3.53,2.82-3.8,5.52a1.5,1.5,0,0,0,1.5,1.5c6.93-.46,3.75-8,.46-5.49a3,3,0,0,0-.06,4.57c2.62,2.51,6.8,0,9-1.69l-2.5-1.46a12.52,12.52,0,0,0,.21,6.43,1.52,1.52,0,0,0,2.51.66c1.5-1.79,4-6.63.4-7.88-2.91-1-4.14,3.11-4.16,5.2a1.52,1.52,0,0,0,2.56,1.06c5-4.22-5.84-9.5-5.44-1.27a1.51,1.51,0,0,0,2.25,1.3c2.16-1.51,2.82-5-.33-6-3.45-1.1-5.09,2.42-4.41,5.2a1.46,1.46,0,0,0,2.78,0c.66-2,1.53-5.57-1.26-6.4-2.6-.77-3.9,1.93-4.36,3.93-.33,1.47,1.83,2.56,2.55,1.07.93-1.91,2.39-5.55-.61-6.45-2.38-.71-3.56,1.52-4.05,3.45a1.4,1.4,0,0,0,2.31,1.35c3.29-3.33-3.1-7.19-5.28-1.49-.57,1.5,1.67,2.26,2.47,1.05,3.66-5.52-6.45-6.59-4.47-1.07a1.33,1.33,0,0,0,2.4.32,3.87,3.87,0,0,0,.42-4,1.32,1.32,0,0,0-1.91-.78,6.67,6.67,0,0,0-3,3.27,1.28,1.28,0,0,0,2.21,1.29c2.53-4-3.33-6.59-4.68-2.09h2.38c-.38-2.76-2.85-3.3-4.72-1.44l1.71,1.7c2.88-3-2.31-6.1-3.85-1.85l2.25.62c1.18-3.45-2.67-4.57-4.48-1.87l2.06.87c1.16-3.84-2-2.27-3.4-3.81a1.09,1.09,0,0,0-1.5,0l-1.13.93,1.79.74a2.76,2.76,0,0,0-.76-2.51,1,1,0,0,0-1.61-.21L327.56,390l1.71.71c0-2.1-1.81-2.48-3-2.93-.91-.35-1.55,1.16-.67,1.58Z"/><path class="cls-2" d="M407.89,382.24a1.08,1.08,0,0,0,0-2.15,1.08,1.08,0,0,0,0,2.15Z"/><path class="cls-2" d="M405.68,381.75l.05.85,1-1a2.69,2.69,0,0,1-1.45-.26c-1.3-.46-1.93,1.42-.89,2.12.55-.43.44-.68-.33-.76-.25-.11-.51-.21-.77-.3a3.23,3.23,0,0,0-1.45-.06c-.55.12-2.34,2-2.47,2v2.45a8.91,8.91,0,0,1,6.29-.11l-.31-2.33-1.3.07-.91,2.19a12.56,12.56,0,0,1,4.73,1.2l-.26-2h.18l-1.28,2.19a3.93,3.93,0,0,1,2.53,1.3l1.61-2.08a5.4,5.4,0,0,1-2.05-2.5l-2.19,1.69a1.46,1.46,0,0,1,.26.73,1.22,1.22,0,0,0,2.21.28,2.3,2.3,0,0,0-.5-3c-1.15-1.24-2.8.34-2.19,1.69a7.09,7.09,0,0,0,3.12,3.37,1.33,1.33,0,0,0,1.6-2.08,6.11,6.11,0,0,0-3.7-1.95,1.32,1.32,0,0,0-1.28,2.19,2.32,2.32,0,0,0,3.52,0,1.32,1.32,0,0,0-.26-2.05,16.06,16.06,0,0,0-6-1.51,1.3,1.3,0,0,0-.91,2.2,3.45,3.45,0,0,0,4.41.31,1.29,1.29,0,0,0-.3-2.33,11.23,11.23,0,0,0-7.65.12,1.28,1.28,0,0,0,0,2.45c1.24.38,2-.14,2.88-.95a7.37,7.37,0,0,0,.47-.67.8.8,0,0,1,1.29-.16c.52.08,1,.45,1.54.47,2.64.08,2.47-2.87.69-4l-.9,2.12a4.29,4.29,0,0,0,2.33,0,1,1,0,0,0,.71-1.24,2,2,0,0,0-.83-1.29.73.73,0,0,0-1.21.71Z"/><path class="cls-2" d="M392.24,387.19a12.79,12.79,0,0,0-3.61,2.85l1.87,1.09c.26-1.38,1.65-2.9,3.18-2.11l.68-2.51c-2,0-4.45-.41-5.8,1.48-1,1.35-.94,3.42.68,4.25a1.41,1.41,0,0,0,1.9-.5,25,25,0,0,1,1.9-3.18,6.59,6.59,0,0,1,1-1.18c.45-.36.69-.28,1.22-.26a1.14,1.14,0,0,0,1.09-1.43c-.7-1.93-2.86-1.43-4.12-.36a15.57,15.57,0,0,0-3.48,5l1.91-.49c-.16-.06-.15,0,0,.19a.52.52,0,0,1,.07-.32c.23-.16.2-.27.51-.4.9-.36,2.15,0,3.11-.1a1.36,1.36,0,0,0,.35-2.65c-2.78-1-6.55,1.1-6.41,4.28.05,1,1.56,1.61,2.09.56a8.87,8.87,0,0,1,2.57-3,.71.71,0,0,0-.72-1.23Z"/><path class="cls-2" d="M387.76,389.35c-3-1.15-5.67.6-6.84,3.39-.35.83.66,1.69,1.43,1.44a2.14,2.14,0,0,0,1.69-2.31,1.22,1.22,0,0,0-1.2-1.21,5.14,5.14,0,0,0-5,5.35,1.28,1.28,0,0,0,2.5.34c.51-1.34,1.27-3.59,3.28-3.19l-.59-2.23c-2.54,2.93-10.45-2.22-11.49,3.44a2,2,0,0,0,1.34,2.43,2.18,2.18,0,0,0,1.79-.36c.7-.34,3-3,4.09-2.33l-.66-1.15.62-.7a1.11,1.11,0,0,0-.66,1.62l.1.14a1.27,1.27,0,0,0,1.38.57l.24-.07a1.38,1.38,0,0,0,1-1.29V393a1.34,1.34,0,0,0-.66-1.16c-1.1-.67-2.28-.35-3.45.08-1,.37-2.73,2.22-3.6,2.19l1.19.68c-.41-.72,3.88-.07,4.36,0a9.12,9.12,0,0,0,2.39.12,5.43,5.43,0,0,0,3.91-2.07c.55-.68.52-2-.58-2.22-3.63-.57-5.31,2-6.45,5.08l2.51.34c-.09-1.63.75-2.61,2.5-2.94l-1.2-1.2.09.06,1.44,1.43c.71-1.92,2.5-2.63,4.39-2.58.87,0,.92-1.15.2-1.43Z"/><path class="cls-2" d="M372,414.58c-.1.09,1,.33,1.25.41a7.6,7.6,0,0,0,2.21.43c1.79,0,2.78-1.4,3-3.06l-2.21.89c3.57,2.26,6.93-2.11,4.38-5.23-1.22-1.49-3.33.64-2.12,2.12.53.66-.3.8-.74.52a1.52,1.52,0,0,0-2.21.9c-.1.73,0,.79-.38.85s-1.38-.4-1.86-.52a3.53,3.53,0,0,0-3.45.56c-1.46,1.27.67,3.39,2.12,2.13Z"/><path class="cls-2" d="M363.61,402.34c-3.94,1.1-3.38,6.6-.57,8.62,1.57,1.12,3.07-1.48,1.51-2.59-.75-.55-1.31-2.81-.15-3.14a1.5,1.5,0,0,0-.79-2.89Z"/><path class="cls-2" d="M381.13,406.58c-3.85,2.34-.5,7,3.23,6.35l-1.48-.84a2.22,2.22,0,0,0,2.16,1.83,3.55,3.55,0,0,0,1.75-.38,3.56,3.56,0,0,1,2.62-.59c3,.33,6.42-2.95,6.51-5.95a1.11,1.11,0,0,0-1.66-.95c-1.87,1.3-2.39,4-4.94,4.09-.65,0-1-.23-1.75,0a16.68,16.68,0,0,0-2.37,1.34,1.23,1.23,0,0,0-1.48-.84q-3.27-1.07-1.64-3.09a.7.7,0,0,0-.95-.94Z"/><path class="cls-2" d="M370.24,414a4,4,0,0,0,3.07-1.43l-2.51-.66a2,2,0,0,1,.28,1.07,1.51,1.51,0,0,0,2.26,1.29c1.81-1.11,3.6-.45,4.86-2.55a1.52,1.52,0,0,0-1.7-2.2c-.89.24-1.76.54-2.65.79-.59.15-1.18.32-1.78.41-.76.11-1.11-.22-.85.7s.42.53,1.22.5a12.26,12.26,0,0,1,1.71.1,20.35,20.35,0,0,1,2.43.45,1.53,1.53,0,0,0,1.9-1.45,5.48,5.48,0,0,1,1.45-3.25l-2.5-.66a1.49,1.49,0,0,1,0,1c-.46,1.61,1.95,2.69,2.74,1.16l1.1-2.1-2.74-.36.82,2.15,2.74-1.15,0-1.38c.67-1.82-2.23-2.6-2.89-.8a4.15,4.15,0,0,0,.32,3.69c.77,1.48,3.35.45,2.74-1.16l-.82-2.14a1.52,1.52,0,0,0-2.74-.36l-1.1,2.09,2.75,1.16a5.13,5.13,0,0,0,0-2.61,1.52,1.52,0,0,0-2.51-.67,9,9,0,0,0-2.33,5.37l1.9-1.44c-2.24-.56-8.59-1.94-8.83,1.84-.26,4.3,6.81,1.52,8.75,1l-1.69-2.2c-.56.92-2.82.88-3.78,1.47l2.25,1.3a3.36,3.36,0,0,0-.38-1.87,1.52,1.52,0,0,0-2.51-.66l-.95.55c-1.91.12-1.93,3.12,0,3Z"/><path class="cls-2" d="M364.77,411.19a2.37,2.37,0,0,1,2.71,1.22c1,1.62,3.64.12,2.59-1.51a5.44,5.44,0,0,0-6.1-2.6,1.5,1.5,0,0,0,.8,2.89Z"/><path class="cls-2" d="M366.61,409.12a9.52,9.52,0,0,0-3.58-2.77,1.49,1.49,0,0,0-1.69.69,2.34,2.34,0,0,0-.21,2.09,1.52,1.52,0,0,0,2.5.66c.34-.35.72-.65,1.05-1L362.32,407a3,3,0,0,0,0,3.5,1.54,1.54,0,0,0,2,.54,1.52,1.52,0,0,0,.54-2.05c.11.15-.2-.32-.16-.11,0-.09.12-.26.19-.37.94-1.4-1.23-3.09-2.36-1.81-.32.36-.7.66-1,1l2.51.66c-.1-.33-.13-.25-.09.22l-1.7.69a7.3,7.3,0,0,1,2.26,2c1.33,1.41,3.45-.72,2.12-2.12Z"/><path class="cls-2" d="M368.5,410l-1.61-2a1.51,1.51,0,0,0-2.56,1.06,3.36,3.36,0,0,0,5.6,2.34l-2.12-2.12s-.31.33-.21.24.06,0,0-.05.25,0,0,0a4,4,0,0,0-.49,0,1.53,1.53,0,0,0-1.5,1.5,1.51,1.51,0,0,0,1.5,1.5,3.42,3.42,0,0,0,2.81-1.08,1.5,1.5,0,0,0-2.12-2.12c.09-.07.09-.08,0,0s-.08.05,0,0-.23,0,0,0c-.09,0-.44,0-.13,0,0,0-.38-.12-.2,0s-.17-.1-.17-.11c.21.15-.05-.11,0,0s-.09-.16-.1-.19c.12.26,0-.23,0,.08l-2.56,1.06,1.61,2a1.51,1.51,0,0,0,2.12,0,1.55,1.55,0,0,0,0-2.12Z"/><path class="cls-2" d="M365.09,404.46a8.36,8.36,0,0,0-.95,6.09,1.52,1.52,0,0,0,2.2.9,5.48,5.48,0,0,0,1.68-.95l-2.35-.3a2,2,0,0,1,.36.85c.2,1.9,3.21,1.92,3,0a5.27,5.27,0,0,0-.77-2.37,1.53,1.53,0,0,0-2.36-.3,4.32,4.32,0,0,1-1.07.48l2.2.89a5.22,5.22,0,0,1,.65-3.78,1.5,1.5,0,0,0-2.59-1.51Z"/><path class="cls-2" d="M379.27,403.5a5.43,5.43,0,0,1-.83,3.77l1.62-.21a1.84,1.84,0,0,1-.82-1.23,1.14,1.14,0,0,0-2.28,0,4.78,4.78,0,0,1-.38,1.71l2.28.63a4.72,4.72,0,0,1,.59-1.34l-1.66.43a.44.44,0,0,1,.07.22c.23,1.11,1.64.83,2,0a1.81,1.81,0,0,0-.59-2.12,1.23,1.23,0,0,0-1.9.25,5.34,5.34,0,0,0-.78,1.93,1.18,1.18,0,0,0,2.28.63,6.68,6.68,0,0,0,.38-2.34H377a3.38,3.38,0,0,0,1.85,2.85,1,1,0,0,0,1.51-.62,7.74,7.74,0,0,0,.24-4.73c-.2-.68-1.36-.59-1.29.17Z"/><path class="cls-2" d="M392.06,393c3,4.48,5.8,9.49,2.66,14.74-.65,1.08.92,2.37,1.78,1.38,3.77-4.3,1.73-9.38-1.44-13.36-.86-1.07-2.73.36-1.92,1.48a29.22,29.22,0,0,1,4.47,9,1.22,1.22,0,0,0,1.13.86c5.67.59,10.82-.79,13.9-5.91l-2.1-.88a5.8,5.8,0,0,1-2,3.7l1.65,1.64a22.13,22.13,0,0,0,4-7c.44-1.29-1.49-2-2.17-.91-2.71,4.54-6.6,6.7-11.6,8-1.23.3-1,2.37.3,2.25,5.69-.53,10.5-4.19,13.35-9l-2.17-.91a18.2,18.2,0,0,1-3.35,6c-.94,1.13.6,2.75,1.65,1.64a9,9,0,0,0,2.52-4.73,1.16,1.16,0,0,0-2.11-.89c-2.68,4.5-7.11,5.26-11.91,4.72l1.14.86a31.63,31.63,0,0,0-4.63-9.61l-1.92,1.48c2.22,2.82,4.33,6.74,1.57,10l1.78,1.38c3.18-5.54,1.26-12.72-3.48-16.77-.59-.51-1.62.14-1.14.88Z"/><path class="cls-2" d="M365.72,409.67c.07-.21-.23.31-.27.39-.57,1-.17.37,0,.24a2.29,2.29,0,0,0-.8,3,2.62,2.62,0,0,0,3.69,1,3.05,3.05,0,0,0,1.32-3.75,3.5,3.5,0,0,0-3.48-2,8,8,0,0,0-1.08.13l-.33.06c.25,0,.28,0,.11,0-.34.07-.36.06,0,.09.16.08.14.07-.05-.05a1.15,1.15,0,0,1-.29-.2,2.22,2.22,0,0,0-2.5.18,2.3,2.3,0,0,0-.81,2.37,3.31,3.31,0,0,0,3.53,2.33c.57,0,1.12-.21,1.69-.25-.24,0-.22,0,.06,0l-.2,0q-.21-3.56-.93-2.28a1.77,1.77,0,0,1,.84-.69h1.2l.34.14.8.8-.08-.11-.34,2.7c1.4-1.37,1.77-4.06-.33-5a1.48,1.48,0,0,0-2.13.87Z"/><path class="cls-2" d="M292,461.27c2.24,15.18,7.14,30.26,10.79,45.15,3.69,15.07,7.31,30.16,11,45.23,7.41,30.3,13.62,60.77,17.37,91.76.69,5.68,9.7,5.75,9,0A722.68,722.68,0,0,0,322.58,551q-5.74-22.44-11.64-44.85c-4.05-15.41-7.18-31.69-12.88-46.58a3.17,3.17,0,0,0-6.1,1.68Z"/><path class="cls-2" d="M298.94,468.38c1.1-3.1.43-7,.18-10.19-.28-3.52-.57-6.72-2.78-9.55-1.88-2.42-5.86-.85-6.58,1.74-.87,3.17.25,6.43.91,9.58s.73,6.42,2.19,9.22,5.19,1.73,6.08-.8Z"/><path class="cls-2" d="M284.08,462.17c.77,3.6,2.93,6.86,4.46,10.19a103.94,103.94,0,0,1,4.46,11.4l9.61-4.05q-4.22-8.83-8.5-17.63c-3-6.19-11.71-.77-9.09,5.31a436.17,436.17,0,0,1,21,61.85c2.61,9.91,5,19.87,7.46,29.81,2.59,10.43,4.57,21.62,9,31.47,1.84,4.12,8.76,2.05,8.47-2.3-.7-10.45-4.11-21-6.63-31.16-2.62-10.55-5.13-21.14-7.92-31.66a472.21,472.21,0,0,0-21.67-62.07L285,467.39q4.23,8.83,8.51,17.62c2.6,5.33,11.48,1.6,9.61-4.05-2.45-7.36-5.73-17.89-12-22.89-3.25-2.59-8-.25-7.05,4.1Z"/><path class="cls-2" d="M428,381.3c4.89,13.23,20.43,20.92,30.9,29.13,13.36,10.49,22.33,24.69,30.67,39.24,4.19,7.31,8.52,14.59,12.08,22.23,3.84,8.24,5.17,17.22,8.83,25.46,1.6,3.6,3.68,6.94,5.55,10.4,2.31,4.28,3.59,8.67,5.11,13.26,2.71,8.21,7.42,15.32,12.32,22.37,1.92,2.75,6.45.16,4.54-2.65-5.3-7.76-9.77-15.32-12.5-24.35-2.48-8.2-7.51-14.83-10.64-22.7-3.22-8.1-4.76-16.57-8.5-24.55A252,252,0,0,0,494.13,447c-8.21-13.76-17-27.69-29.53-38-5.67-4.67-11.92-8.54-17.86-12.83-6.56-4.73-11.59-9.95-17-15.91-.67-.74-2.09,0-1.73,1Z"/><path class="cls-2" d="M535.54,542.81c-.22.07-.46.13-.67.22l-.08,0h.08a1.8,1.8,0,0,0-.44.12,1,1,0,0,0-.44.62.81.81,0,0,0,.35.86,1.13,1.13,0,0,0,.65.12.92.92,0,0,0,.41-.17c.28-.22-.12.07.1-.09s.39-.27.59-.4a.73.73,0,0,0,.29-.9.7.7,0,0,0-.84-.41Z"/><path class="cls-2" d="M535.64,544.51c2.31,0,4.54.37,5.85,2.48l1.89-1.45c-1.71-1.85-4.51-3.68-7.13-3.47a1.14,1.14,0,0,0-.31,2.23,24,24,0,0,1,3.12,1,9.32,9.32,0,0,1,2.62,2c.93,1,2.64-.3,1.88-1.46-1.68-2.55-5.41-4.46-8.3-2.69a.77.77,0,0,0,.38,1.42Z"/><path class="cls-2" d="M543.35,547.34c1.18-2.92,1.75-6,2.81-9,1.17-3.3,2.91-6.47,3.66-9.88a1.07,1.07,0,0,0-2-.82,50.66,50.66,0,0,0-6,19.51c-.07.89,1.16.9,1.45.19Z"/><path class="cls-2" d="M598.17,537.35c-1.45,3.72-1.67,7.84-2.54,11.72-1.4,6.2-3.46,12.22-4.88,18.41a180,180,0,0,1-15.49,42c-3.15,6.22-6.39,12.42-9.83,18.49-3.14,5.54-7.07,11.76-13.43,13.93-9.92,3.39-22.25-4-30.74-8.51-1.67-.9-3.15,1.62-1.49,2.55,8.58,4.74,19.88,11,30,9.48,13-1.9,18.88-17.15,24.16-27.28,7.44-14.27,14.44-28.92,18-44.7,2.65-11.74,7-23.81,7.57-36,0-.83-1.09-.86-1.36-.18Z"/><path class="cls-2" d="M563.19,450.06c-2.82-6.33-7.62-11.13-11.47-16.8-4.81-7.09-5.35-14.78-3.52-23,.42-1.88-2.47-2.69-2.89-.8-1.58,7.06-1.82,14.32,1.33,21,3.62,7.7,10.47,13.27,14,21.08.79,1.76,3.38.24,2.59-1.51Z"/><path class="cls-2" d="M602.84,454.38a79.7,79.7,0,0,1,3.33-8.7,26.35,26.35,0,0,1,6.71-7.25c1.07-.81,0-2.66-1.08-1.84-5.26,3.87-11.2,11.32-10.66,18.3a.91.91,0,0,0,.44.78c.71.3.92.37,1.61,0a.69.69,0,0,0-.35-1.27Z"/><path class="cls-2" d="M547.93,411.06c1.82-4.54,3.92-9,6.07-13.36.81-1.66,3.67-7.73,5.6-4.84s1.23,8.95,1,12.39c-.12,1.93,2.89,1.92,3,0,.23-4.09,1.18-13.65-3.31-16-2.68-1.4-5.4,1.29-6.83,3.26-3.72,5.13-6.11,11.91-8.46,17.75-.73,1.79,2.18,2.57,2.89.8Z"/><path class="cls-2" d="M563.8,405.87a15.05,15.05,0,0,1,.47-3.66l-2.95-.4a24.75,24.75,0,0,0,.22,3.54,1.54,1.54,0,0,0,1.5,1.5,1.51,1.51,0,0,0,1.5-1.5,24.75,24.75,0,0,1-.22-3.54,1.5,1.5,0,0,0-2.94-.4,19.21,19.21,0,0,0-.58,4.46,1.5,1.5,0,0,0,3,0Z"/><path class="cls-2" d="M562.79,415.05c-.39,2,.57,3.57,1.93,5,2.36,2.45,5,4.67,7.61,6.92.32.28.79-.18.47-.48q-2.5-2.36-5.06-4.66c-1.85-1.68-4.84-3.7-4.35-6.61.07-.39-.52-.56-.6-.16Z"/><path class="cls-2" d="M563.31,404.19a34.78,34.78,0,0,0,.2,11.29c.08.43.77.32.76-.11-.09-3.66-.19-7.33-.28-11,0-.43-.67-.55-.77-.11a26.27,26.27,0,0,0,1.7,17.31c.2.45,1,.12.81-.34a33.64,33.64,0,0,1-2.42-15.52c0-.44-.58-.47-.71-.1-1.3,3.59-.55,7.33.22,11l1-.27a37.11,37.11,0,0,1-1-11.6.57.57,0,0,0-1.12-.15c-.83,4.3.22,8.25,1.52,12.36a.58.58,0,0,0,1.12-.31,35.94,35.94,0,0,1,0-10.61l-1.09-.3c-.83,5.64-1.44,12.22,3.65,16.07.45.34,1-.41.6-.79-4.44-4-4-9.58-3.16-15,.11-.71-1-1-1.09-.3a38.36,38.36,0,0,0-.08,11.22l1.12-.31c-1.23-3.86-2.33-7.66-1.54-11.75l-1.12-.15a36.81,36.81,0,0,0,1.15,11.87c.16.64,1.12.37,1-.27a23.88,23.88,0,0,1-.5-10.5l-.72-.09a36.45,36.45,0,0,0,2.29,15.75l.81-.34a26.4,26.4,0,0,1-1.7-16.65l-.78-.1.3,11,.76-.1a38.57,38.57,0,0,1-.34-11c0-.35-.56-.43-.61-.09Z"/><path class="cls-2" d="M589.74,364.62A21.25,21.25,0,0,0,582.6,376c-1,3.85-2.28,10.55-.84,14.34,3.06,8,10.83-5.31,12.54-7.9.63-1-.92-1.88-1.56-.91-1.63,2.47-2.9,5.48-5.07,7.54-4.82,4.54-4.44-2.58-4.33-5.44.27-6.8,2.24-13.32,7.67-17.75.9-.74-.38-2-1.27-1.27Z"/><path class="cls-2" d="M589.09,367.27c4.25-5.56,10.58,1.42,9.55,6.54-.23,1.13,1.5,1.61,1.73.47,1.48-7.27-7.33-15.1-12.83-7.92-.71.92.86,1.82,1.55.91Z"/><path class="cls-2" d="M601.87,377.41c-3.09,1.64-4.34,5.45-5.75,8.47A45.57,45.57,0,0,0,592,398c-.5,3.24.21,11.13,5.3,7.3,3.46-2.6,6-7.41,8.56-10.83,2-2.6,6.54-6.6,7-10,.8-6-8.05-8-12.15-6.79a.9.9,0,0,0,.48,1.73c2.89-.83,8.07-.43,9.38,3.08,1,2.72-1.25,4.68-2.64,6.54l-8.7,11.64c-.8,1.09-1.61,2.17-2.44,3.23q-5.13-1.8-3.33-6.31a35.09,35.09,0,0,1,1.6-5.69c1.41-4,3.59-11.1,7.31-13.6a.49.49,0,0,0-.5-.85Z"/><path class="cls-2" d="M612.53,388.5a23.07,23.07,0,0,0-8.2,7.26c-1.68,2.3-4.59,6.36-3.63,9.44.72,2.34,3.18,2.59,5.12,1.55s3.26-2.6,5.06-3.66c1.18-.68,2.65-2,4-1.18s1.06,2.33,1.49,3.7c.25.77,1.54.68,1.48-.2-.12-1.68-.08-4.72-1.82-5.6-2.13-1.08-5.71,1.56-7.34,2.68-1.24.86-5.95,5.58-6.24.39-.07-1.42,1.72-3.81,2.45-5,2.2-3.5,5.17-6,8.32-8.58.49-.4-.13-1.07-.64-.83Z"/><path class="cls-2" d="M611.42,391.41c2-1,4.5-2,6.69-.7,2.79,1.61,2.66,5.1,2,7.68-.81,3.31-2.4,6.49-3.59,9.67-.38,1,1.21,1.42,1.6.44,1.92-4.83,6.17-12.06,2.83-17.16-2.31-3.54-7.25-3.39-10.09-.64a.45.45,0,0,0,.54.71Z"/><path class="cls-2" d="M615.83,402.85c-.12.95-.5,7.31,2,5.68a1.65,1.65,0,0,0,.37-2.33A7.18,7.18,0,0,0,617,405a2.53,2.53,0,0,1-.73-2.66.68.68,0,0,0-1.31-.36,3.82,3.82,0,0,0,1,3.84c.21.2.46.36.68.54a.63.63,0,0,1,.47.72c-.07-.38-.13-.77-.18-1.16-.12-1-.15-2.06-.17-3.09a.44.44,0,0,0-.87,0Z"/><path class="cls-2" d="M464.07,338.24c12.8,12.23,27.47,22.88,41.17,34.1s27.51,22.67,41.33,33.93c1,.85,2.55-.63,1.5-1.49-14.05-11.51-28.21-22.9-42.29-34.38-13.52-11-26.69-23.09-41-33.06-.54-.38-1.16.46-.69.9Z"/><path class="cls-2" d="M505.15,294c6.23-1.21,12.14-.18,15.36,5.9,2.79,5.25,2,11.61,1.51,17.28-1,11.82-2.58,23.51-1,35.35.25,1.89,3.25,1.92,3,0a111.11,111.11,0,0,1,0-24.86c.65-7.06,2.1-14.45,1.31-21.55-1.32-11.64-9.82-17.17-21-15-1.89.36-1.09,3.25.8,2.89Z"/><path class="cls-2" d="M468.65,339.84c-6.27-8.79-.65-20.31,5.25-27.76,1.19-1.5-.92-3.64-2.12-2.12-6.7,8.45-12.84,21.42-5.72,31.39,1.11,1.56,3.72.07,2.59-1.51Z"/><path class="cls-2" d="M464.52,336.83a111.34,111.34,0,0,0,51.26,16.61,283.31,283.31,0,0,1,31.15,3.41c10.13,1.75,19.91,4.75,29.94,6.83a1.12,1.12,0,0,0,.6-2.15c-17.27-6.78-37.53-9.09-55.93-10.18-9.8-.59-19.16-1.21-28.58-4.22-9.61-3.07-18.59-7.32-27.71-11.56a.73.73,0,0,0-.73,1.26Z"/><path class="cls-2" d="M518,294.33c9.16,9.12,18.66,17.81,27.38,27.39A367.54,367.54,0,0,1,570.82,353c.81,1.11,2.68,0,1.87-1.09-15.37-21.19-33.22-42.28-54.07-58.3-.45-.35-1,.38-.59.77Z"/><path class="cls-2" d="M565,419.56a233,233,0,0,0,34.53,27.29c.9.58,1.64-.79.82-1.39-11.75-8.68-23.11-17.55-34.28-27-.73-.62-1.77.38-1.07,1.06Z"/><path class="cls-2" d="M600.59,444.37l-.46-.17-.19,1.52A59,59,0,0,0,624,427.36c1.88-2.47,6.25-6.61,5.45-9.92-.41-1.7-2.23-2.86-3.43-4-2.59-2.43-5.21-4.82-7.82-7.23-1.2-1.11-3,.66-1.8,1.81l5.56,5.38c.89.85,3.83,2.73,4.21,4,1,3.24-5,9.22-7,11.57-5.71,6.73-13,10.43-20.25,15.08a1,1,0,0,0,.23,1.77l.68.22a.84.84,0,0,0,.79-.21l.5-.48c.47-.45,0-1.06-.57-1Z"/><path class="cls-2" d="M594.36,382.27c.44.35.87.71,1.28,1.09a4.07,4.07,0,0,0,1.37,1.11.78.78,0,0,0,1-1,3.05,3.05,0,0,0-1.15-1.44,10.53,10.53,0,0,0-1.46-1.1c-.76-.49-1.73.71-1,1.29Z"/><path class="cls-2" d="M577.1,363.22a29.78,29.78,0,0,1,3.78,4.08c1,1.32,1.67,2.86,2.71,4.13.51.62,1.48-.06,1.29-.76-.91-3.36-4.25-6.52-6.91-8.57-.64-.5-1.46.58-.87,1.12Z"/><path class="cls-2" d="M572.13,352.79c-2.43,1.28-1.11,5.14,0,6.95a5,5,0,0,0,3.32,2.22c1.4.36,2.76.2,4.07,1a6,6,0,0,1,2.66,5.3.53.53,0,0,0,1.06,0,6.62,6.62,0,0,0-3.15-6.27,9.07,9.07,0,0,0-3.61-1,4.82,4.82,0,0,1-4-2.83c-.69-1.37-1.39-3.68,0-4.95.26-.23-.07-.61-.35-.46Z"/><path class="cls-2" d="M573.37,353c5.42-3.45,11.07.24,11.26,6.4.12,4-.77,8.22-1.25,12.2-.11.85,1.22.84,1.32,0,.62-5.4,3.22-13.93-.9-18.56a7.79,7.79,0,0,0-10.85-.6.35.35,0,0,0,.42.56Z"/><path class="cls-2" d="M599.65,372.69a21.28,21.28,0,0,1-.74,7.61l.77.1c0-2.7.05-5.41,0-8.11a.43.43,0,0,0-.86,0c0,2.7,0,5.41,0,8.11a.39.39,0,0,0,.76.11,18.38,18.38,0,0,0,.6-7.9c0-.35-.63-.27-.61.08Z"/><path class="cls-2" d="M594.3,382.57a15.66,15.66,0,0,1,3.09-4.81.51.51,0,0,0-.72-.72,39.32,39.32,0,0,0-4.35,4.95l.9.53,2.65-5.19-.9-.52-1.72,3.76c-.22.48.41,1.1.79.61l2.69-3.38-.84-.35-.2.6c-.4.47.28,1.16.69.68a1.79,1.79,0,0,0,.49-1.28c0-.39-.56-.68-.83-.34l-2.71,3.36.79.61,1.75-3.75c.27-.6-.59-1.12-.9-.52q-1.34,2.58-2.65,5.18a.52.52,0,0,0,.9.53,37.71,37.71,0,0,1,4.17-4.76l-.72-.72a10.91,10.91,0,0,0-3,5.24c-.08.39.5.7.68.29Z"/><path class="cls-2" d="M611.09,391.27c2-2,5.07-3.16,7.75-1.59s3.25,4.84,2.48,7.55a.34.34,0,0,0,.62.26,6.64,6.64,0,0,0-2.48-8.87c-3-1.71-7.27-.85-9,2.18a.39.39,0,0,0,.61.47Z"/><path class="cls-2" d="M576.79,351.81c-2.33,1-7,2.14-6.67,5.59.25,2.83,3.42,3.52,5.69,3.78v-1.06c-1.15-.11-3-.37-3.92-1.16-2.11-1.84-2-3.18.05-4.8a14.23,14.23,0,0,1,5.42-2.32l-.46-1.09c-1.87,1-3.83,1.89-5.64,3-.56.34-1.42.64-1.73,1.3-.83,1.72,1.34,3,2.27,3.9l.83-.83-1.92-1.57a.59.59,0,0,0-.91.71,5.93,5.93,0,0,0,4.09,3.52c.6.19,1-.75.43-1-1.64-.79-2.26-.89-2-2.91s1-2.37,2.58-3.34c3.22-1.95,7.78-1.86,9.33,2.19s-.36,9.75-1.06,13.93c-.11.65.89.93,1,.27.94-5.46,4.92-18.11-4.15-19-3.15-.3-7.47,1.66-9.15,4.44-1.55,2.55.7,4.3,2.88,5.36l.44-1a4.56,4.56,0,0,1-3.39-3l-.91.7,1.91,1.58a.59.59,0,0,0,.83-.83,4.08,4.08,0,0,0-.83-.83q-1.72-2.32.7-2.82c1.14-1.14,3.58-1.9,5-2.67a.6.6,0,0,0-.47-1.09c-2.59.67-7.95,2.4-8.31,5.8-.33,3.16,4.83,4.4,7.08,4.69.59.07.73-1,.14-1.05a15.79,15.79,0,0,1-2.16-.4q-3-4.69.42-5.72c.87-.64,2-.91,3-1.54a.38.38,0,0,0-.39-.66Z"/><path class="cls-2" d="M573.14,360.45c1.83.9,3.85,1.28,5.6,2.37a9.29,9.29,0,0,1,3.61,4.36c.21.47,1.06.25,1-.27-.57-4.4-6.08-6.85-10-7.22a.41.41,0,0,0-.21.76Z"/><path class="cls-2" d="M562,393.84a82.29,82.29,0,0,0-.07,17.75l1.11-.15a37.34,37.34,0,0,1-1.35-11c0-.75-1.14-.74-1.17,0a96.87,96.87,0,0,0,.38,11.8c.07.82,1.31.85,1.3,0q-.08-6.43-.17-12.86a.69.69,0,0,0-1.37,0,52.42,52.42,0,0,0,2.52,18.73.69.69,0,0,0,1.32-.37,67,67,0,0,1-1.88-11.87.69.69,0,0,0-1.37,0,56,56,0,0,0,1.31,12.38c.2.91,1.6.53,1.4-.38-.54-2.47-1.07-4.93-1.54-7.41-.14-.73-1.29-.55-1.28.18a47.23,47.23,0,0,0,.61,6.82c.12.78,1.49.61,1.39-.19l-.77-6.31-1.46.2.53,3.58a.77.77,0,0,0,1.27.34,1.57,1.57,0,0,0,.51-1.49H561.7A48,48,0,0,0,564,424.21c.32,1,1.83.54,1.5-.41a47.3,47.3,0,0,1-2.27-10.18c-.11-1-1.64-1-1.54,0l-.16.57,1.39.18-.57-3.57c-.13-.82-1.56-.64-1.45.19l.83,6.31,1.39-.19a51.86,51.86,0,0,1-.66-6.44l-1.29.17c.51,2.47,1,5,1.4,7.44l1.4-.38a53.26,53.26,0,0,1-1.34-12h-1.37a70.41,70.41,0,0,0,1.93,12.24l1.32-.37a52,52,0,0,1-2.47-18.36h-1.37l.24,12.86h1.3a113.36,113.36,0,0,1-.51-11.8h-1.17A42.44,42.44,0,0,0,562,411.74c.16.59,1.18.5,1.11-.15a109.59,109.59,0,0,1-.33-17.75c0-.48-.68-.46-.73,0Z"/><path class="cls-2" d="M540.32,539.88c-8.32-5.56-15.75,3.07-19.9,9.44-5.49,8.41-5.66,19.15-5.64,28.86,0,18.81,4,41.49-6.09,58.53-5.07,8.6,8.21,16.32,13.36,7.81,9.42-15.57,8.1-32.65,7.55-50.09-.29-9.36-1-19,.13-28.29.68-5.38,3.4-14.4,9.23-15.85,5-1.25,5.27-7.8,1.36-10.41Z"/><path class="cls-2" d="M544.17,538.89a220.92,220.92,0,0,0-9.68,31.34c-2.2,9.31-3.9,19.3-2.56,28.85.12.81,1.46.61,1.43-.2a100.17,100.17,0,0,1,3.7-30.84c2.61-9.63,6.08-19.11,8.13-28.87a.53.53,0,0,0-1-.28Z"/><path class="cls-2" d="M284.77,479.77c-5.45,12.24-8.29,26-12.2,38.83q-6.29,20.67-13.21,41.15Q245.61,600.22,229.77,640c-1.34,3.36,4.1,4.83,5.42,1.5q15.69-39.76,28.92-80.4,6.54-20.09,12.64-40.31c3.91-13.07,8.95-26.73,10.51-40.31a1.34,1.34,0,0,0-2.49-.67Z"/><path class="cls-2" d="M539.8,665.8a40.48,40.48,0,0,1-20.07,14.9c-9.9,3.33-20.1-.37-29.33-4.06-1.07-.43-1.54,1.31-.47,1.73,10.13,4.06,21.08,7.7,31.77,3.5a42.67,42.67,0,0,0,19.65-15.17c.68-.93-.88-1.83-1.55-.9Z"/><path class="cls-2" d="M207.83,643.94c5.17.26,10.14-.68,15.26-1.18,5.78-.56,11.64.13,17.41.54,11.48.83,22.94,1.9,34.4,2.89,22.76,1.94,45.86,3.85,68.7,2.15,22-1.65,44.18-2.47,66.26-3.68a32.43,32.43,0,0,1,8.05.38c2.38.43,4.77,1.91,7.06,2.25,3.56.53,8.33-1.64,11.9-2.32a162.78,162.78,0,0,1,33.63-2.82,176.09,176.09,0,0,1,37.44,4.61c10.71,2.55,20.62,7,30.58,11.52,1.74.79,3.27-1.79,1.51-2.59-3.77-1.7-7.4-3.69-11.21-5.32-4.5-1.93-9.31-3-13.94-4.59-9.68-3.41-20.22-4.84-30.4-5.83a172,172,0,0,0-33.42,0q-7.55.74-15,2.17c-2.41.46-4.78,1.1-7.18,1.56-3,.57-4.2.09-7.06-.76-9.8-2.89-20.81-.52-30.83,0-11.41.57-22.83.93-34.23,1.58a520.31,520.31,0,0,1-70.08-.29c-13.11-1-26.2-2.28-39.31-3.32-6.8-.54-13.76-1.4-20.59-1.31-6.38.08-12.55,1.74-19,1.42-1.93-.1-1.93,2.9,0,3Z"/><path class="cls-2" d="M515.45,683.58c1.63,1.61,1.71,4.52-.74,5.2a9.22,9.22,0,0,1-3,0c-3.66-.28-7.33-.74-11-1.27-5.92-.86-11.73-2.12-17.57-3.36a.89.89,0,0,0-.48,1.71,156.72,156.72,0,0,0,17.53,3.52c4.64.69,10,2,14.63,1.38,5.51-.72,5.85-5.51,1.42-8.23a.68.68,0,0,0-.82,1.07Z"/><path class="cls-2" d="M513.87,689.59c.76,2.95.18,4.57-1.77,4.88a8.32,8.32,0,0,1-1.93.35,37.86,37.86,0,0,1-4.52.32c-3,.08-6.11,0-9.16-.2-6.6-.47-12.86-1.9-19.3-3.31a.86.86,0,0,0-.45,1.65,75.25,75.25,0,0,0,33.69,3.34c2.42-.36,5.66-1.1,6.62-3.7.87-2.37-.55-3.86-2.67-4.55a.67.67,0,0,0-.51,1.22Z"/><path class="cls-2" d="M486.3,695.15c6.83,6.75,16.92,7.8,26.08,8.07,2.53.08,5,0,7.56,0,2.33-.05,8.16-1.27,3.58,2.35-5.45,4.3-14.75,5-21.36,4.68-28.18-1.16-50.8-22.88-79.18-23.42a1.16,1.16,0,0,0,0,2.32c22.34.44,40.72,14.13,61.62,20.06,8.59,2.44,17.81,3.79,26.71,2.45,4.66-.7,17.05-3,16.05-9.68a1,1,0,0,0-1-.73c-13.14-.53-28.24,1.51-39.36-7.06-.57-.44-1.24.49-.75,1Z"/><path class="cls-2" d="M268.07,706.77c-16.12-.28-32.23,1.53-48.35.41a95.94,95.94,0,0,1-23.57-4.37c-6.78-2.24-14.09-7.28-21.44-6.44-2.11.23-2.78,3.18-.52,3.86,3.94,1.2,7.83,2,11.69,3.56A118.06,118.06,0,0,0,197.44,708a104.69,104.69,0,0,0,21.39,3.48c16.36,1.1,32.94-.22,49.24-1.55a1.57,1.57,0,0,0,0-3.14Z"/><path class="cls-2" d="M309,400.43l-.09,0a.59.59,0,0,0-.72.73c1.84,6.26,9.15,10.37,13.62,14.54,10.06,9.38,20.95,18.25,33.25,24.53s26.39,9.5,40.17,6.09a43.58,43.58,0,0,0,29.26-23.76c7-15.24,3.4-32.62-4.65-46.67a1.42,1.42,0,0,0-2.45,1.43c9.78,16.68,12.32,37.87-.93,53.5C405.31,444,387,448,370.62,443.91c-17.15-4.33-32.25-15.79-45.13-27.47-3.35-3-6.56-6.4-10.21-9.07-2.39-1.75-4.79-3.85-6-6.69l-.67.87h.08a.59.59,0,0,0,.32-1.13Z"/><path class="cls-2" d="M247.2,596.32l1.84,1,1.16-1.52c-20.13-7.25-41.54-18.4-63.2-10.33-1.17.44-1.12,2.43.32,2.34a114.61,114.61,0,0,1,55.3,10.06l.94-2.24A393,393,0,0,0,194.27,582l-.34,2.49A152.71,152.71,0,0,1,249.13,600l1-2.4c-19.19-5.56-37.52-15.84-58-14.94a1.31,1.31,0,0,0,0,2.61,236.27,236.27,0,0,1,26.25,5c7.79,2,15.3,4.89,23.06,6.85a1.3,1.3,0,0,0,.69-2.51c-8.37-2.11-16.45-5.26-24.87-7.3a243.54,243.54,0,0,0-25.13-4.64v2.61c20.25-.88,38.39,9.37,57.33,14.86,1.4.41,2.37-1.72,1-2.39A155.45,155.45,0,0,0,193.93,582a1.27,1.27,0,0,0-.34,2.49A387.58,387.58,0,0,1,242.91,598c1.3.44,2.22-1.67,1-2.25a116.94,116.94,0,0,0-56.54-10.32l.31,2.34c21.15-7.93,42.27,3.14,62,10,1.08.38,1.58-1,1-1.72a2.86,2.86,0,0,0-3.65-1.13c-.72.22-.63,1.47.19,1.39Z"/><path class="cls-2" d="M260.36,553c-11.43-5.07-24-7.54-36.39-8.66-1.4-.12-1.74,2.25-.33,2.49,12.45,2.14,24.87,4.4,36.66,9.1,1.37.54,2.34-1.76,1-2.4a105,105,0,0,0-38.37-10.21c-1.45-.11-1.81,2.33-.34,2.58,12,2,24,4.1,35.07,9.22a1.31,1.31,0,0,0,1.32-2.27,22.75,22.75,0,0,0-10-3.82c-1.48-.2-2.18,2-.63,2.31a24.85,24.85,0,0,1,9.26,3.78l1.32-2.27c-11.32-5.22-23.48-7.45-35.7-9.49l-.35,2.58a101.54,101.54,0,0,1,37,9.85l1-2.39c-11.78-4.7-24.23-6.91-36.68-9L224,546.9c12.34,1.08,23.9,4.15,35.68,7.81,1,.3,1.68-1.26.71-1.69Z"/><path class="cls-2" d="M265.51,541l0,.11.28-.48a1.78,1.78,0,0,0-.44.69,3.59,3.59,0,0,0-.08.35l-.17.82a1.52,1.52,0,1,0,2.94,0l-.18-.82c0-.12,0-.24-.07-.35a1.92,1.92,0,0,0-.45-.69l.28.48,0-.11a1.06,1.06,0,0,0-2,0Z"/><path class="cls-2" d="M263.57,551.92a89.93,89.93,0,0,0,2.65,24.13c2,7.62,5.59,14.76,6.77,22.59,1.13,7.54,1.51,17.14-.75,24.47-2,6.34-7.52,10.49-9.3,17-.76,2.8,3.61,4,4.34,1.2,1.67-6.44,7.19-10.69,9.05-17.07,2.09-7.18,1.7-16,1-23.31-.74-7.68-3.72-14.53-6.07-21.78a89.47,89.47,0,0,1-4.12-27.23,1.79,1.79,0,0,0-3.57,0Z"/><path class="cls-2" d="M309.2,409.42l-.09,0a.6.6,0,0,0-.73.73c1.69,6.52,9.82,11.1,14.38,15.34,10.68,9.93,22.15,19.36,35.15,26.11s27.84,10.41,42.53,7.13a46.82,46.82,0,0,0,32-24.84c8-16.43,4.15-35.46-4.61-50.73a1.42,1.42,0,0,0-2.45,1.43c7.83,13.35,12,29.84,6.41,44.84-5.17,14-17.64,23.87-32,27.12-28.31,6.4-54.9-13.23-74.49-31.3a116.1,116.1,0,0,0-9.73-8.56,22.73,22.73,0,0,1-2.11-1.48A21.47,21.47,0,0,1,311,412a5.64,5.64,0,0,0-.7-1c-1.15-1,.27,0-1.39-.43a.59.59,0,0,0,.32-1.13Z"/><path class="cls-2" d="M209.68,581.58l-1.24-2.39a3.69,3.69,0,0,0-5.76-.75,7,7,0,0,0-1.76,6.65c.56,3,4.4,3.4,6.36,1.68a59.07,59.07,0,0,0,11.94-15.11l-7.6-4.45c-1.49,3.11-3,6.21-4.5,9.31a4.52,4.52,0,0,0,7.8,4.56,79.86,79.86,0,0,0,8.16-15l-9-2.49a54.63,54.63,0,0,1-4.71,11.95l8.08,4.72q5.26-11.94,11.58-23.36l-8.5-3.58L211.64,576l8.93,2.47c2.32-8.94,4.76-18.12,11.83-24.54l-7.7-4.48A86.37,86.37,0,0,1,216,573.35l8.25,3.48A61.06,61.06,0,0,1,235.25,557l-7.31-4.25a91.1,91.1,0,0,1-8.51,21.77l7.92,3.34a67.52,67.52,0,0,1,11.25-21.66l-7.35-3a35.2,35.2,0,0,1-5.58,20.12l7.82,3.3a92.47,92.47,0,0,1,8-19.87l-6.68.86c1,1.18-2,9.12-2.39,10.33a89.91,89.91,0,0,1-4.25,11.38l7.72,3.25a108.59,108.59,0,0,1,4.42-13.11q1.29-3.06,2.78-6c.54-1.07,1.1-2.13,1.67-3.18,1.46-1.47,1.18-2.07-.82-1.8L242,555.93c.31,1.23-1.24,4.48-1.62,5.73q-.85,2.8-1.74,5.59c-1.38,4.34-2.84,8.65-4.3,13s5.6,7.51,7.6,3.21a168.65,168.65,0,0,1,12.6-22.8h-6.83c1.4,2-3.06,10.12-3.84,12.25L239,586.31c-1.61,4.4,5.66,7.52,7.63,3.22l12.72-27.78-7.79-3.28a90.23,90.23,0,0,1-9.06,28.59l7.23,4.23a188,188,0,0,0,9.95-28.1l-8-2.2a56.7,56.7,0,0,1-3.77,13.09c-1.37,3.14-3.12,7.66-5.67,10q-.82,2.25-1.29.66c-1.11-.46-2.23-.89-3.37-1.27a52.78,52.78,0,0,0-5.19-1.48,63.27,63.27,0,0,0-13.78-1.54c-5.42,0-6.95,8.76-1.32,9.73,6.13,1.06,12.29,1.94,18.44,2.89l1.33-9.86a16.45,16.45,0,0,1-11.42-3.48l-2.22,8.38a35.07,35.07,0,0,1,8.37-.67,30.76,30.76,0,0,1,3.95.42c.59.1,1.16.22,1.74.37,1,.2,1.15.25.45.16l-1.48-3.56-.11.92,1.48-3.55c1.17-1-2.47-.76-3.34-.9-2-.32-4-.77-6-1.28a62.62,62.62,0,0,1-11-4.07l-3.89,9.23,8.4,2.76,1.34-9.94c-1.55-.09-5.45-.12-6.6-1.51l1.48,3.58c0-.44,4.08-3.67,4.77-4.22a36.24,36.24,0,0,1,22.36-8c5.55-.12,7.09-8.65,1.35-9.94A25.59,25.59,0,0,1,234.05,551l-3.62,8.74a33,33,0,0,1,18.78,3.27l4-9.45A63.49,63.49,0,0,1,238.33,548l-1.24,9.49A14.88,14.88,0,0,1,249.48,561l5.06-8.68a74.22,74.22,0,0,1-12.37-3.78l-1.37,10.16a14.87,14.87,0,0,1,10.07,3.32c5.32,4,10.44-5,5.2-8.91a24,24,0,0,0-15.27-4.76c-6.19.15-6.58,8-1.38,10.17a74.24,74.24,0,0,0,12.36,3.82c4.7,1,9.21-5,5-8.68a26,26,0,0,0-22.5-6.19c-4.4.78-5,7.5-1.24,9.49a74.82,74.82,0,0,0,17.36,6.58c5.48,1.31,9.41-6.72,4-9.45a42.41,42.41,0,0,0-24-4.58c-4.15.46-7.08,5.4-3.62,8.74A35.88,35.88,0,0,0,244,567.64l1.34-9.95a47.27,47.27,0,0,0-30.71,12c-3.4,3.05-8.51,7.89-5.85,12.92,2.45,4.63,10,5.22,14.55,5.49,5.91.35,6.58-8.23,1.35-9.94l-8.41-2.74c-5.36-1.75-9.1,6.75-3.89,9.23a72.78,72.78,0,0,0,17.67,6c4.59.88,12,2.79,15.23-1.9s-.57-9-5.17-10.26c-6.33-1.68-13-1.36-19.39-.1-3.5.69-5.1,6.07-2.22,8.38a27.15,27.15,0,0,0,18.52,6.43c5.35-.2,7.18-9,1.34-9.86-6.59-1-13.18-2.06-19.79-2.94v9.91a52.94,52.94,0,0,1,18.23,2.55c4.32,1.41,7.79,2,11.07-1.7,6.62-7.39,10.18-18.41,11.73-28,.83-5.13-6.55-7.44-8-2.2a170.28,170.28,0,0,1-9.22,26.07c-2.17,4.81,4.68,9.08,7.23,4.23a94.17,94.17,0,0,0,10.05-30.56c.6-4.27-5.6-8.12-7.79-3.28q-6.28,13.93-12.57,27.87l7.63,3.21,6.63-18.89c1.47-4.17,3.83-8.94.93-13a4,4,0,0,0-6.83,0,213.88,213.88,0,0,0-13,22.59l7.61,3.2c2.6-7.34,5.15-14.76,7.22-22.27,1.14-4.11,1.21-10.11-4.71-10-5.45.09-7.89,6.58-9.85,10.65a115.36,115.36,0,0,0-7.29,19.54c-1.23,4.46,5.69,7.73,7.73,3.25a102.91,102.91,0,0,0,6.3-17.64c1.27-5.14,2.62-9.94-.95-14.35-1.72-2.12-5.47-1.35-6.68.86a102.55,102.55,0,0,0-8.91,21.89c-1.32,4.75,5.25,7.35,7.82,3.3a43.47,43.47,0,0,0,6.8-24.44c-.07-3.37-4.91-6.14-7.35-3A78.82,78.82,0,0,0,219,575.6c-1.47,4.67,5.56,7.65,7.92,3.34a104.88,104.88,0,0,0,9.45-23.83c1.06-4-4.35-7.69-7.3-4.25a72.69,72.69,0,0,0-13.57,23.57c-1.7,4.86,5.77,7.89,8.25,3.48a91.58,91.58,0,0,0,9.83-26,4.64,4.64,0,0,0-7.69-4.48c-8.25,7.47-11.51,18.14-14.25,28.58-1.54,5.9,6.8,7.9,8.93,2.47l8.89-22.65c1.94-4.95-6-8.11-8.5-3.58q-6.35,11.4-11.63,23.33c-2.38,5.37,5.16,10.13,8.08,4.72a66.36,66.36,0,0,0,5.67-14.18c1.61-6-6.83-7.93-9-2.49a72.77,72.77,0,0,1-6.92,12.94l7.8,4.56c1.43-3.14,2.86-6.29,4.3-9.42,2.36-5.11-5.19-9.59-7.6-4.45a56,56,0,0,1-9.72,14.18l6.35,1.68.19-.18h-6.33l1.42,2.29c2.43,3.91,8.25.47,6.15-3.6Z"/><path class="cls-2" d="M258.24,562.1a9.71,9.71,0,0,0,2.3-1.15c3.78-2.56.43-8.51-3.62-6.18-6.65,3.82-9.61,11.45-11.62,18.55a100.88,100.88,0,0,0-2.56,11.93c-.56,3.58-1.77,7.77-.52,11.25,1.07,3,5.18,3.85,6.94.91s1.51-6.23,1.89-9.49a72.92,72.92,0,0,1,1.75-10.18c1.81-6.89,5.7-11.94,9-18.07l-6.67-1.81a10.61,10.61,0,0,0,.26,2.64,2.32,2.32,0,0,0,2.83,1.6Z"/><path class="cls-2" d="M571,636.38a11.07,11.07,0,0,0,1.45-1.74l-8.55-1.12c6.51,34.63,5.15,69.26-6.85,102.59l9.87,2.72a238.79,238.79,0,0,0,4.67-102.62c-1.09-6.36-10.74-3.66-9.67,2.66A227.25,227.25,0,0,1,557,736.11c-1.75,6.44,7.66,8.84,9.87,2.72,12.3-34,15.47-72.69,6-107.8-1.09-4-6.4-4.4-8.55-1.11l-.39.59c-2.12,3.26.78,6.61,4,7a3.92,3.92,0,0,0,3-1.12Z"/><path class="cls-2" d="M483.9,710.47c-5.1,3.51-9.06,9-13.35,13.41-4.48,4.66-8.81,9.46-13.34,14.08l10,10c8.36-9,16.77-18.34,21.63-29.79,3.56-8.38-7.44-15.5-12.55-7.33a100.57,100.57,0,0,1-28.52,29.91c-7.73,5.27-.43,18,7.38,12.63a114.93,114.93,0,0,0,33.69-35.21l-13.28-5.6c-4,9.75-11.37,17.7-18.33,25.4-6.07,6.71,3.65,16.59,10,10,4.69-4.89,9.38-9.82,13.64-15.1,4-5,8.83-10.1,11.33-16,1.89-4.51-4.44-9-8.26-6.35Z"/><path class="cls-2" d="M339.69,703.63l2,10.44c.47,2.44,4.15,1.4,3.71-1l-1.91-10.46c-.46-2.49-4.28-1.44-3.8,1Z"/><path class="cls-2" d="M341.32,714.4c-.14,2-.27,4.07-.41,6.1s-.68,4,0,5.9a2.56,2.56,0,0,0,4.88,0c.7-1.84.17-4,0-5.9s-.27-4.06-.41-6.1a2.06,2.06,0,0,0-4.12,0Z"/><path class="cls-2" d="M343.8,693.56c-.15,11.67.08,23.31.76,35,.2,3.45,5.41,3.52,5.42,0l0-21.06c0-3.38,1.54-10.6-1.94-12.81a3.18,3.18,0,0,0-4.27,1.12,5.74,5.74,0,0,0-.74,2.68c-.37,3.6,5.51,4.36,6.29.86.35-1.56.7-3.11,1-4.68l-6.92-.93q.9,26.65,1.1,53.35c0,4.77,7.39,4.78,7.4,0q.09-26.71-1.46-53.35c-.26-4.59-6.61-4.48-7,0-.16,1.58-.27,3.17-.38,4.75h6.41l-.28.47L344.94,700c-1.83-.8-.86,4.26-.84,5.51l.15,7.66.31,15.31H350q-1.41-17.44-2-35c-.09-2.71-4.19-2.72-4.22,0Z"/><path class="cls-2" d="M339.35,693.79c-.4,12.58-.51,25.16-.94,37.73-.15,4.44,6.33,4.25,6.78,0,.75-7.11,1.29-14.24,1.89-21.37h-7l-1.2,30.9c-.18,4.58,7,4.58,7.12,0l1.08-30.9c.16-4.55-6.64-4.44-7,0-.58,7.12-1.23,14.24-1.67,21.37h6.78c-.14-12.59-.41-25.17-1.43-37.73-.23-2.79-4.31-2.87-4.41,0Z"/><path class="cls-2" d="M539.21,658.44l-.86,1.26,1.69.71.29-.52-1.47-.85c-.61,4.59-9.56,5.09-12.77,4.9a44.89,44.89,0,0,1-11.64-2.7c-6.4-2.18-12.58-4.51-19.44-4.39a1.17,1.17,0,0,0-.58,2.17c7.28,4.69,16.35,13.05,25.55,13.07,4,0,11.89-2.6,12.45-7.27.21-1.67-2.43-1.67-2.62,0s-3.8,3-5.11,3.62c-4.34,2-8.57,1-12.65-1.1-5.71-2.94-11-6.87-16.45-10.33l-.59,2.17c10.39-.23,19.32,5.76,29.48,6.85,5,.53,15.82-.23,16.32-7a1,1,0,0,0-1.47-.84c-.8.6-.94.7-1.09,1.72s1.13,1.69,1.69.71l.77-1.31a.87.87,0,0,0-1.5-.88Z"/><path class="cls-2" d="M539.33,657.84v.07c-.29,2.05,2.78.78,1.51-.4l-.06,0c-.42-.39-1.34-.31-1.44.38Z"/><path class="cls-2" d="M539.71,668.11a13.7,13.7,0,0,0,2.54-4.78.34.34,0,0,0-.61-.26q-2.61,4.15-5.2,8.3c-.23.37.33.82.61.47a26.71,26.71,0,0,0,5-8.86c.14-.45-.57-.76-.77-.33a39.79,39.79,0,0,1-4.65,7.68c-.32.42.34.87.7.54,3.91-3.58,6.33-8.22,5.71-13.61a.56.56,0,0,0-.7-.53,19.11,19.11,0,0,1-4.75.67l.17,1.25c1.87-.56,5.52-1.91,5.07,2.34-.12,1.06-1.47,2.69-2,3.59a67.39,67.39,0,0,1-5.7,7.56c-.49.59.3,1.42.85.85a46.07,46.07,0,0,0,5.14-6.42c1.23-1.83,3.15-4.28,3.48-6.54.59-4.15-4.75-3.34-7.15-2.61-.66.21-.57,1.29.17,1.25a20.73,20.73,0,0,0,5-.88l-.7-.53c.68,5.15-1.52,9.53-5.24,13l.7.54a40,40,0,0,0,4.6-7.7l-.76-.33a25.59,25.59,0,0,1-4.73,8.54l.61.47q2.57-4.17,5.1-8.35l-.61-.26a13.21,13.21,0,0,1-2.35,4.6c-.2.26.26.62.46.36Z"/><path class="cls-2" d="M472.06,336.1a13.06,13.06,0,0,1-4.32-5.21c-.21-.43-.81-.06-.63.36A24.09,24.09,0,0,0,475.93,342c.35.25.8-.33.46-.6-4.13-3.32-9.23-7.45-9-13.34s4.92-7.33,9.89-5.59a7.57,7.57,0,0,0,2.52.88c2.39.05,2-1,3.31-2.24,8.72-7.83,6.22-1.72,12.29-.25a3.7,3.7,0,0,0,3.81-.82c2.42-2.29,3.53-5,7.72-4,3.15.73,5,3.3,6.06,6.12,1.42,3.77.47,8,2.06,11.66,1.76,4.07,4.39,6.55,4.7,11.36.06.87,1.43.87,1.37,0a17.81,17.81,0,0,0-2-7.54c-.64-1.17-1.57-2.13-2.23-3.27-1.48-2.58-1.19-5.24-1.54-8.06-.55-4.35-2.36-9.25-6.75-11-3.49-1.41-6.31-.38-8.91,1.94a5.46,5.46,0,0,0-.85,1.41q-4.33,1.43-7-1.34c-.93-.45-1.41-1.14-2.47-1.48a5.43,5.43,0,0,0-4.3.42,5.78,5.78,0,0,0-2,1.82c.21-.31-1.27,3-.91,2.69-2.67,2.28-5.47-.32-8.11-.5-3.75-.25-6.85,3-7.43,6.46-.84,5,2.72,10.41,6.68,13.17,3.34,2.33-.32-1.13-1-1.88-.13-.13-3.84-5.62-3.88-5.62-1.53.11,2.67,3.83,3.39,4.34.33.23.63-.31.31-.54Z"/><path class="cls-2" d="M505.08,292.8c5.11,2.16,9.22,5.63,10.75,11.12a.9.9,0,0,0,1.74-.48c-1.72-6.14-6.29-10-12-12.37-1.07-.45-1.53,1.29-.48,1.73Z"/><path class="cls-2" d="M474.4,311.26c2.09-5.84,2.41-12.54,5.54-18,5.48-9.5,17.41-5.75,24.09.08.87.76,2.15-.51,1.27-1.27-5.75-5-16.09-9.55-23.26-4.3-6.75,4.93-6.82,15.82-9.38,23-.39,1.09,1.35,1.56,1.74.48Z"/><path class="cls-2" d="M481.61,319.44a13.56,13.56,0,0,1-6.94-8.17c-.36-1.1-2.1-.63-1.74.47A15.37,15.37,0,0,0,480.7,321c1,.51,1.95-1,.91-1.55Z"/><path class="cls-2" d="M463.52,331.73c-.63,3.16.94,5.37,2.08,8.17.34.85,1.74.47,1.38-.38-1.05-2.53-2.68-4.75-2.33-7.64.08-.64-1-.78-1.13-.15Z"/><path class="cls-2" d="M463.16,332.7c.38,4.92,1.61,8.25,5.41,11.52s7.8,5.3,11.85,7.93c.81.52,1.6-.62,1-1.28-2.58-2.79-6.66-4.05-9.66-6.42a24.76,24.76,0,0,1-4.56-4.23c-1.69-2.24-2.26-5-2.76-7.69a.65.65,0,0,0-1.27.17Z"/><path class="cls-2" d="M523.22,304.81c-5.15-5-12-.5-17.09,2.12-4.81,2.47-10.5,6.62-9.19,12.65.31,1.47,2.56.84,2.25-.62-1.32-6.09,6.59-8.92,10.63-11,1.79-.92,3.52-2.39,5.48-2.92,2.57-.71,4.82.18,7.19,1a.75.75,0,0,0,.73-1.24Z"/><path class="cls-2" d="M512.59,640.51v-.59a.71.71,0,0,0-.69-.69c-.78,0-1.19.42-1.71.94-.88.86-1.68,1.8-2.5,2.71s.45,2.08,1.26,1.26a8.31,8.31,0,0,0,2.11-3.52.91.91,0,0,0-1.51-.88l-3.2,3.37,1.51,1.17a21.36,21.36,0,0,0,2.38-4.57c.42-1.19-1.23-1.65-1.88-.79L505,643.4l1.77,1c1.09-1.77,2.18-3.53,3.29-5.29.61-1-.85-2.15-1.63-1.25-1.45,1.69-3,3.34-4.34,5.09-.81,1,.56,2.52,1.5,1.49,1.5-1.64,2.88-3.41,4.31-5.12l-1.63-1.25c-1.08,1.77-2.17,3.53-3.27,5.3-.71,1.14,1,2.06,1.77,1l3.34-4.47-1.88-.79a20.24,20.24,0,0,1-2.06,4.14c-.56.92.77,2,1.51,1.17l3.12-3.46-1.51-.88a6.3,6.3,0,0,1-1.63,2.74l1.26,1.26c.51-.6,1-1.21,1.53-1.82.27-.34,1.06-1.69,1.42-1.71l-.69-.69,0,.59a.66.66,0,0,0,1.32,0Z"/><path class="cls-2" d="M520,642.87a11.43,11.43,0,0,1-2,4.13l1.62.94c.84-1.64,1.71-3.27,2.51-4.93l-2-.83a11.65,11.65,0,0,1-.71,2.47,10.63,10.63,0,0,0-1.06,2.24,1,1,0,0,0,1.39,1.08c1.52-.94,2.16-3.58,2.44-5.22.19-1.09-1.4-2-1.95-.82-.8,1.67-1.53,3.38-2.29,5.07a.94.94,0,0,0,1.62.94A8.63,8.63,0,0,0,521.1,643a.59.59,0,0,0-1.15-.16Z"/><path class="cls-2" d="M493.32,713l.61-1.11a.72.72,0,0,0-1.24-.72c-.52.91-1,1.84-1.47,2.76a.85.85,0,0,0,1.47.86c.46-.63.87-1.3,1.3-2l-1.6-.93a33.53,33.53,0,0,1-1.83,3.39l1.64,1a20.25,20.25,0,0,1,2.46-4.16l-1.64-1c-.87,2-1.64,4-2.49,6l1.5.63c.8-1.87,1.69-3.71,2.66-5.5l-1.66-.7a15.88,15.88,0,0,1-2.75,4.83l1.58.92c.49-1.6,1.46-3.17,1.5-4.89,0-1.39-.74-1.4-1.86-1.48l.95.73,0-.15-.1.76c.75-1.26.21-1.94-1-2.64a1.09,1.09,0,0,0-1.1,1.88,12.26,12.26,0,0,0,2.13.93l.59-2.14c-1.12-.26-2.18-.65-3.27-.18a1.16,1.16,0,0,0-.42,1.57c.59,1,1.91,1.35,3,1.71a1.1,1.1,0,0,0,.84-2,21.24,21.24,0,0,1-2.75-1.74l-.6,2.2a9.37,9.37,0,0,1,1.75.36,1.19,1.19,0,0,0,.9-2.16,4.83,4.83,0,0,0-2.42-.84,1.27,1.27,0,0,0-1.09.63c-.92,1.94,1.35,2.33,2.69,2.75v-2.41l-.23.09a1.25,1.25,0,1,0,1,2.29l.22-.09c1-.46.65-2-.3-2.29a8.62,8.62,0,0,1-1.63-.53l.58.76v.4l-1.21.92a4,4,0,0,1,1.52.48l.62-2.28a23.58,23.58,0,0,0-2.37-.45c-1.26-.15-1.46,1.62-.59,2.2a20.76,20.76,0,0,0,2.83,1.6l.85-2c-.42-.15-1.36-.35-1.57-.76l-.69,1.69c.42-.16,1.36.16,1.8.22,1.36.18,2-1.79.59-2.14a5.9,5.9,0,0,1-1.62-.67l-1.1,1.88a4.17,4.17,0,0,1,1,.53l-.46-.61.07.19.1-.77c-.28.5-.52.7-.36,1.33a1,1,0,0,0,1,.73c.25,0,.54-.08.79-.06l-.85-.49q-.06-.42-.06.15a2.89,2.89,0,0,1-.13.77,8.28,8.28,0,0,1-.35,1.1c-.3.81-.62,1.59-.87,2.42s1,1.67,1.59.92a18,18,0,0,0,3.16-5.68.91.91,0,0,0-1.66-.7,53.37,53.37,0,0,0-2.59,5.78c-.32.86,1.12,1.48,1.5.63.86-1.9,1.79-3.78,2.63-5.7a1,1,0,0,0-1.64-1,20.52,20.52,0,0,0-2.46,4.16,1,1,0,0,0,1.64,1,24.17,24.17,0,0,0,1.79-3.42.93.93,0,0,0-1.6-.93,22.55,22.55,0,0,0-1.17,2l1.55.66a26.76,26.76,0,0,1,1.16-2.7l-1.31-.55c-.14.4-.28.79-.41,1.19-.23.65.78,1.07,1.11.47Z"/><path class="cls-2" d="M479.29,708.15l.21-.21a.73.73,0,1,0-1-1,16.86,16.86,0,0,0-1.59,2.51l1.66.7a7.37,7.37,0,0,1,1.12-1.89L478.12,707l-1.4,2.47a1.06,1.06,0,0,0,1.82,1.07,10.81,10.81,0,0,1,1.38-2.11l-1.05.28.15,0-.75-1.32a5,5,0,0,1-.5,1.14c-.49,1,.85,2.31,1.69,1.3a9.38,9.38,0,0,0,1.31-2l-1.85-1.08a11.56,11.56,0,0,1-1.55,2.82l1.71,1a2.57,2.57,0,0,1,.45-.83l-.8.11.14.05-.63-.48.07.14-.1-.8c-.39,1.54-1.54,2.81-2,4.33a.91.91,0,0,0,1.51.87,11.63,11.63,0,0,0,1.72-2.88c.37-.74,1.08-1.73.66-2.57-1-2-2.65.5-3,1.51a1,1,0,0,0,1.71,1,13.72,13.72,0,0,0,1.95-3.19c.56-1.24-1.24-2.33-1.85-1.08a6.77,6.77,0,0,1-1,1.55l1.68,1.31a6.27,6.27,0,0,0,.73-1.66,1.12,1.12,0,0,0-.75-1.33c-1.54-.32-2.25,1.75-2.88,2.81l1.82,1.07,1.3-2.53a1,1,0,0,0-1.72-1,8.11,8.11,0,0,0-1.31,2.61c-.35,1.15,1.32,1.54,1.75.49a19.3,19.3,0,0,1,1.2-2.46l-1.16.15.12.12-.14-.51-.07.26c-.12.43.47.81.78.45Z"/><path class="cls-2" d="M493.51,711.11c.84,2.42-3.89,7.81-5.31,9.49-2.21,2.61-4.93,4.81-7,7.5-.62.79.19,2.25,1.19,1.54,2.34-1.67,17.57-16.74,12-19.19-.42-.19-1.05.13-.86.66Z"/><path class="cls-2" d="M478,706.25c-3.32,4.38-5.64,11.12-6.34,16.54-.14,1,1.34,1,1.65.23,1.05-2.69,1.68-5.55,2.66-8.28a85.41,85.41,0,0,0,2.91-8.12.48.48,0,0,0-.88-.37Z"/><path class="cls-2" d="M371.56,355.54c2.3,5.22,5.1,7.92,9.81,11,5.42,3.48,9.33,8.48,14.08,12.72a.72.72,0,0,0,1-1,69,69,0,0,0-10.86-11.27c-1.8-1.42-3.79-2.54-5.69-3.82-3.38-2.26-5.11-4.84-7.41-8.12a.55.55,0,0,0-.95.55Z"/><path class="cls-2" d="M399.93,378.39a3.39,3.39,0,0,0-1.29.35,2.61,2.61,0,0,0-.64.51,2.78,2.78,0,0,0-.67,2.57,2.88,2.88,0,0,0,1.29,1.71,3.09,3.09,0,0,0,2.27.29l-.65.09h.05l.67-.09a1.89,1.89,0,0,0,.85-.45,2.65,2.65,0,0,0,.9-1.3,3.22,3.22,0,0,0-.22-2.61,4.47,4.47,0,0,0-.64-.81,3,3,0,0,0-2.86-.8,4.11,4.11,0,0,0-1.72,1,4.05,4.05,0,0,0-1,1.71,4.1,4.1,0,0,0,0,2,3.46,3.46,0,0,0,.81,1.43,2.86,2.86,0,0,0,2.41.78,2.8,2.8,0,0,0,1.73-.81,2.91,2.91,0,0,0,.84-2,2.94,2.94,0,0,0-.41-1.48,3,3,0,0,0-1.61-1.23,2.55,2.55,0,0,0-1.95.26l-.52.39a2.59,2.59,0,0,0-.65,1.12v0l.66-1.13,0,0,.53-.41,0,0,.64-.26h0l.72-.1-.93.13h1.44l.67.28,0,0,1.29,1.68v-.06l.1.75a1.22,1.22,0,0,1,0-.27l-.1.76a1.29,1.29,0,0,1,.08-.26l-.29.7c.13-.29.25-.59.36-.89l-.29.7a1.36,1.36,0,0,1,.13-.24l-.45.58.19-.19-.59.45a1.16,1.16,0,0,1,.24-.14l-.69.29.07,0-2.21-.28.07,0-.58-.45a2.83,2.83,0,0,1,.25.24,3.69,3.69,0,0,0,1.38.77l-.65-.28.25.14-1.16-2.84v0l.63-1.09-.05,0,.5-.38-.06,0,.59-.24-.06,0,.64-.09h-.13l.64.08-.12,0,.57.24-.12-.06.49.37a.38.38,0,0,1-.09-.09l.37.47,0-.05.23.56,0-.13.09.62a.24.24,0,0,1,0-.12l-.08.61a.56.56,0,0,1,0-.12l-.23.55,0-.06-.35.47a.39.39,0,0,1,.08-.1l-.46.35.12-.06.45-.35a1.64,1.64,0,0,0,.47-.72,2.19,2.19,0,0,0,.11-1.47,2.62,2.62,0,0,0-.58-1,2.21,2.21,0,0,0-1.59-.66Z"/><path class="cls-2" d="M403.19,377.21a1.26,1.26,0,0,0-.15-.38c-.05-.13-.1-.25-.16-.37l.29.7a.29.29,0,0,1,0-.09l.1.76v-.09a2.82,2.82,0,0,0-.38-1.42,3.23,3.23,0,0,0-1.69-1.3,2.9,2.9,0,0,0-1.49,0,3.23,3.23,0,0,0-2.19,2.19,2.94,2.94,0,0,0,.76,2.87l.6.46a3,3,0,0,0,1.49.4,2.31,2.31,0,0,0,1.13-.25,2.23,2.23,0,0,0,.95-.61,3,3,0,0,0,.76-2.87Z"/><path class="cls-2" d="M394.35,371.61a3.49,3.49,0,0,0-1.67.46,2.9,2.9,0,0,0-1,1,4.71,4.71,0,0,0-.31.73,4.78,4.78,0,0,0-.14.91,2.16,2.16,0,0,0,.24,1.07,2,2,0,0,0,.57.9l.57.43a2.12,2.12,0,0,0,1,.33,1.33,1.33,0,0,0,.74,0,2.12,2.12,0,0,0,1-.33l.56-.43a2.84,2.84,0,0,0,.72-1.23v0l-.28.67c0-.05.05-.09.07-.13l-.43.56,0,0,.44-.57c.1-.23.2-.46.29-.69a.56.56,0,0,0,0-.12l-.27.66a.64.64,0,0,1,.08-.14l-.42.54,0,0,.42-.54.27-.64.09-.71a1.93,1.93,0,0,0-.23-1,1.26,1.26,0,0,0-.34-.59,1.38,1.38,0,0,0-.48-.48,1.26,1.26,0,0,0-.59-.34,1.93,1.93,0,0,0-1-.23Z"/><path class="cls-2" d="M395.75,380.15h0l-.57-.44h0l-.44-.57h0l-.28-.68h0l-.1-.75h0l.1-.74h0l.28-.66h0l.43-.55h0l-.43.56a2,2,0,0,0-.32,1,1.29,1.29,0,0,0,0,.73,2.11,2.11,0,0,0,.32,1h0c.06.1.27.36.22.28l.21.28h0l.57.44h0l.66.28a2,2,0,0,0,1.14.05,2.64,2.64,0,0,0,.38-.05l.68-.29a2.11,2.11,0,0,0,.29-.22c-.19.15.21-.15.29-.23l.45-.57a2.14,2.14,0,0,0,.34-1.06,2.79,2.79,0,0,0-.2-1.48,2,2,0,0,0-.59-.91l-.57-.45-.68-.29a2.21,2.21,0,0,0-1.14-.05,1.45,1.45,0,0,0-.72.2,1.34,1.34,0,0,0-.62.36,2.19,2.19,0,0,0-.74.8l-.28.68-.11.76.11.76a2,2,0,0,0,.5,1,2.27,2.27,0,0,0,.8.74Z"/><path class="cls-2" d="M397.33,376a2.81,2.81,0,0,0,.36.86,3.42,3.42,0,0,0,1.2,1.19,3.15,3.15,0,0,0,1.58.43,2.5,2.5,0,0,0,1.21-.27,2.38,2.38,0,0,0,1-.65,3.2,3.2,0,0,0,.8-1.38v0l-.32.75,0,0-.5.64,0,0-.66.51,0,0,.66-.51.51-.66.33-.78.12-.87-.12-.87-.33-.78-.51-.66a2.48,2.48,0,0,0-1.05-.68,1.61,1.61,0,0,0-.83-.22,1.57,1.57,0,0,0-.86,0,1.61,1.61,0,0,0-.83.22,1.64,1.64,0,0,0-.72.42,1.75,1.75,0,0,0-.59.59,1.64,1.64,0,0,0-.42.72,1.68,1.68,0,0,0-.22.82,2.44,2.44,0,0,0,.06,1.31Z"/><path class="cls-2" d="M408.08,379.87v0a3.21,3.21,0,0,0-.45-1.66,3.26,3.26,0,0,0-1.18-1.18l-.79-.33a3.21,3.21,0,0,0-1.74,0,2.46,2.46,0,0,0-1.12.58,2.54,2.54,0,0,0-.85.93,3.21,3.21,0,0,0-.45,1.66,3.26,3.26,0,0,0,.45,1.66v0l.52.67a2.51,2.51,0,0,0,1,.68,1.72,1.72,0,0,0,.83.22,2.44,2.44,0,0,0,1.31-.06l.78-.33.67-.51a2.55,2.55,0,0,0,.68-1.06,2.48,2.48,0,0,0,.28-1.26Z"/><path class="cls-2" d="M410.58,382.5c.74,2.43,3.11,3.31,5.12,4.6a108.92,108.92,0,0,1,9.62,7.24c.7.56,1.69-.36,1-1a54.87,54.87,0,0,0-6.76-5.48c-2.3-1.6-6.81-3.17-7.92-5.79-.26-.62-1.26-.18-1.07.45Z"/><path class="cls-2" d="M318.2,415l-.47.27-.21.12a1.6,1.6,0,0,0-.43.39.77.77,0,0,0,.06.86.8.8,0,0,0,.82.28,1.59,1.59,0,0,0,.56-.33l.41-.32a.78.78,0,0,0,.34-.44.73.73,0,0,0-1.08-.83Z"/><path class="cls-2" d="M323.9,421.28l.05,0-.23.1.07,0-.26,0h.1l-.27,0,.12,0-.25-.1.06,0-.21-.17.05.05a1.68,1.68,0,0,0,.5.29l-.25-.11,0,0a1.07,1.07,0,0,0,1.28-.16,1.47,1.47,0,0,0,.27-.47.86.86,0,0,0,0-.42.79.79,0,0,0-.13-.39,1.3,1.3,0,0,0-2.24.05,1,1,0,0,0-.11.6.92.92,0,0,0,1.39.68Z"/><path class="cls-2" d="M328.11,426.24l.12,0a.82.82,0,0,0,.38-.2.29.29,0,0,0,.12-.1,1.27,1.27,0,0,0,.31-.52,1.09,1.09,0,0,0-.29-1.07,1.07,1.07,0,0,0-1.06-.28,1.28,1.28,0,0,0-.53.3,1.22,1.22,0,0,0-.3.5s0,.08,0,.13a1,1,0,0,0,.73,1.28,1.06,1.06,0,0,0,.56,0Z"/><path class="cls-2" d="M332.58,429.44c-.05-.09-.07,0,0,0s0-.13,0,0a1,1,0,0,1,0-.17c0,.19-.06,0,0,0s0-.05,0,0,0,.07,0,0,.14-.16,0,0,.12-.14.11-.14a1,1,0,0,0,.24-.5,1.22,1.22,0,0,0-1.77-1.36,1.8,1.8,0,0,0-.75,1.92,2.33,2.33,0,0,0,.73,1.41.93.93,0,0,0,1.22.07.92.92,0,0,0,.23-1.19Z"/><path class="cls-2" d="M337.46,433.81l.27-.14a2.32,2.32,0,0,0,.44-.38l.23-.23a1.61,1.61,0,0,0,.41-.69,1.13,1.13,0,0,0-1.38-1.38,2.71,2.71,0,0,0-1.43,1.36,1.09,1.09,0,0,0,.17,1.29,1.12,1.12,0,0,0,1.29.17Z"/><path class="cls-2" d="M344.24,437.69a1.76,1.76,0,0,0,.14-.23,1.13,1.13,0,0,0,.2-.64,2.13,2.13,0,0,0-.07-.44l-.12-.28a1.18,1.18,0,0,0-.3-.33,1.14,1.14,0,0,0-.71-.25,1.48,1.48,0,0,0-.59.16,1.22,1.22,0,0,0-.54.7,2.12,2.12,0,0,0-.06.44,1.12,1.12,0,0,0,.19.64,1.76,1.76,0,0,0,.14.23,1,1,0,0,0,1.72,0Z"/><path class="cls-2" d="M348.77,442.48a1.64,1.64,0,0,0,.33-.14l.24-.18a1.24,1.24,0,0,0,.31-.53,1,1,0,0,0,0-.18,1,1,0,0,0,0-.47.44.44,0,0,0-.06-.16.82.82,0,0,0-.25-.38l0,0a.91.91,0,0,0-.37-.24,1,1,0,0,0-.45-.1l-.3.05a1.17,1.17,0,0,0-.52.29,1.53,1.53,0,0,0-.32.55,1.14,1.14,0,0,0,0,.66,1.19,1.19,0,0,0,.54.72,1.16,1.16,0,0,0,.87.14Z"/><path class="cls-2" d="M355.31,445.34l.12-.11a1.29,1.29,0,0,0,.37-.65,1.16,1.16,0,0,0,0-.64,1.24,1.24,0,0,0-.31-.53,1.17,1.17,0,0,0-.53-.3,1.13,1.13,0,0,0-.63,0,1.17,1.17,0,0,0-.65.36l-.11.13a.9.9,0,0,0-.26.4,1.15,1.15,0,0,0,0,.94.9.9,0,0,0,.26.4l.25.19a1.2,1.2,0,0,0,.62.17l.32,0a1.33,1.33,0,0,0,.55-.32Z"/><path class="cls-2" d="M359.43,447.18l.1.16a.56.56,0,0,0,.05.08l.18.24.23.18.06,0,.27.11a.8.8,0,0,0,.46,0,.55.55,0,0,0,.28-.07.85.85,0,0,0,.37-.24l.18-.23.11-.27a.81.81,0,0,0,0-.46.8.8,0,0,0-.13-.42s0,0,0-.05a.64.64,0,0,0-.1-.13.58.58,0,0,0-.21-.2,1.15,1.15,0,0,0-.19-.14l-.17-.1-.26-.11a.74.74,0,0,0-.44,0,.52.52,0,0,0-.27.07.74.74,0,0,0-.35.23l-.17.22-.11.26a.79.79,0,0,0,0,.43.86.86,0,0,0,.13.41Z"/><path class="cls-2" d="M367,450.38l.06.09-.11-.81,0,0a1.26,1.26,0,0,0,0,.61,1.12,1.12,0,0,0,.3.5l.1.11a1.18,1.18,0,0,0,1.63,0l.18-.23a1.19,1.19,0,0,0,.15-.58l0-.31a1.1,1.1,0,0,0-.29-.5l-.11-.11a1.08,1.08,0,0,0-.51-.29,1.06,1.06,0,0,0-.61,0h-.05l.82.11-.09-.06-.25-.1a.81.81,0,0,0-.41,0,.48.48,0,0,0-.26.07.72.72,0,0,0-.33.21l-.16.21-.1.25a.72.72,0,0,0,0,.41.64.64,0,0,0,.12.38Z"/><path class="cls-2" d="M375.39,452.79s.2-.09.06,0,0,0,0,0l.14,0c.05,0,.24,0,0,0s0,0,0,0h.15a1.23,1.23,0,0,0,.91-.44,1.11,1.11,0,0,0,.31-.93,1.06,1.06,0,0,0-.53-.82,1.37,1.37,0,0,0-1.29,0,2.09,2.09,0,0,0-.49.4,2.62,2.62,0,0,0-.59.95.84.84,0,0,0,.3.9.89.89,0,0,0,.95.07Z"/><path class="cls-2" d="M380.83,451.8h0l.59-.45h0l-.26.12a.76.76,0,0,0-.31.28.49.49,0,0,0-.14.24.88.88,0,0,0-.1.43s0,.05,0,.08l0,.29a.79.79,0,0,0,.2.37.44.44,0,0,0,.19.19.79.79,0,0,0,.37.2,1.14,1.14,0,0,0,.58,0l.26-.11a.84.84,0,0,0,.31-.28.58.58,0,0,0,.14-.24.76.76,0,0,0,.09-.42.25.25,0,0,0,0-.08l0-.3a.82.82,0,0,0-.19-.37.64.64,0,0,0-.2-.2.87.87,0,0,0-.38-.2h0l.59.45h0a.91.91,0,0,0-.35-.35.92.92,0,0,0-.49-.13,1,1,0,0,0-.49.13,1.06,1.06,0,0,0-.35.35Z"/><path class="cls-2" d="M388.28,452a1.57,1.57,0,0,0-.19.71,1.42,1.42,0,0,0,.06.46,1.5,1.5,0,0,0,1,1,1.1,1.1,0,0,0,1.33-.65,1.18,1.18,0,0,0,.06-.74,1.16,1.16,0,0,0-.52-.67l-.07,0,.23.18-.08-.08.18.23c0-.05-.07-.1-.1-.16l.12.27a.19.19,0,0,1,0-.1l0,.29a.34.34,0,0,1,0-.1l0,.29v0a1.17,1.17,0,0,0-.11-.84,1.13,1.13,0,0,0-.53-.46,1.08,1.08,0,0,0-1.37.46Z"/><path class="cls-2" d="M394.61,453l.06,0-.46-.26,0,0a.89.89,0,0,0,.35.23.55.55,0,0,0,.28.07l.16,0h0a.86.86,0,0,0,.42-.09l.15-.07a1.08,1.08,0,0,0,0-1.86h0a.82.82,0,0,0-.4-.13l-.19,0h0l-.29,0a.87.87,0,0,0-.37.19.41.41,0,0,0-.14.12l.46-.26-.06,0-.24.1a.7.7,0,0,0-.28.26.55.55,0,0,0-.14.23.74.74,0,0,0-.08.39l0,.27.11.24a.73.73,0,0,0,.26.29.75.75,0,0,0,.34.18Z"/><path class="cls-2" d="M400,449.22a3.55,3.55,0,0,0-.35.27,2.78,2.78,0,0,0-.21.27l-.06.08-.11.25a.86.86,0,0,0,0,.42.6.6,0,0,0,.07.27,1,1,0,0,0,.22.34l.22.16.25.11a.86.86,0,0,0,.42,0,.79.79,0,0,0,.39-.13l.08,0,0,0c.07-.06.17-.12.24-.19a1.3,1.3,0,0,0,.18-.23l0,0,.06-.09.11-.25a.75.75,0,0,0,0-.42.48.48,0,0,0-.07-.26.69.69,0,0,0-.22-.34l-.21-.17-.25-.1a.75.75,0,0,0-.42,0,.69.69,0,0,0-.39.12Z"/><path class="cls-2" d="M406.75,449.07a1.09,1.09,0,0,0,0-2.18,1.09,1.09,0,0,0,0,2.18Z"/><path class="cls-2" d="M410.24,443.75h0L410,444h0l-.19.25h0s-.12.27-.12.29a1.2,1.2,0,0,0-.05.33s0,.3.05.32h0s.15.36.06.15c0,0,0,.11.07.16h0l.2.26h0a1.39,1.39,0,0,0,.27.21l.3.13a1,1,0,0,0,.51,0,.86.86,0,0,0,.21,0l.3-.12h0a1.78,1.78,0,0,0,.27-.21l.19-.25h0a.83.83,0,0,0,.14-.46.91.91,0,0,0,0-.49l-.12-.29a1.07,1.07,0,0,0-.32-.35.72.72,0,0,0-.27-.15.89.89,0,0,0-.48-.11l-.32,0a1.33,1.33,0,0,0-.55.32h0l.25-.19h0l.29-.13h0l.33,0h-.05l.33,0h0l-.17,0a.62.62,0,0,0-.33,0,.61.61,0,0,0-.32.08l-.15.07.3-.13h0l.32,0h0l.32,0h0l.29.12h0l.25.19h0l.19.24h0l.12.28h0l0,.31v0a1.2,1.2,0,0,0-.58-1,1.23,1.23,0,0,0-1.19,0Z"/><path class="cls-2" d="M414.45,439.89l0,.37a1.49,1.49,0,0,0,.05.63,1.22,1.22,0,0,0,2.36,0,1.49,1.49,0,0,0,.05-.63l0-.37a1.34,1.34,0,0,0-.36-.85,1.19,1.19,0,0,0-.84-.35,1.23,1.23,0,0,0-.85.35,1.44,1.44,0,0,0-.35.85Z"/><path class="cls-2" d="M420.44,435l-.07.44c0,.16-.06.34-.07.49a2.25,2.25,0,0,0,.07.52,1.26,1.26,0,0,0,1.21.92,1.28,1.28,0,0,0,1.21-.92,1.52,1.52,0,0,0,.07-.52,2.89,2.89,0,0,0-.07-.49l-.07-.44-.12-.29a.94.94,0,0,0-.3-.33,1.17,1.17,0,0,0-.72-.25,1.41,1.41,0,0,0-.6.16,1.18,1.18,0,0,0-.54.71Z"/><path class="cls-2" d="M423.81,431l0,.19.67-1.17a.42.42,0,0,0-.15.11,1.15,1.15,0,0,0-.38.41l-.14.34a.91.91,0,0,0,0,.23.65.65,0,0,0,0,.39,1,1,0,0,0,.17.55l.07.11a1.51,1.51,0,0,0,.87.66l.39.06a1.18,1.18,0,0,0,.56-.13.7.7,0,0,0,.32-.19,1.12,1.12,0,0,0,.38-.4,1.49,1.49,0,0,0,.14-1.13.56.56,0,0,0,0-.12l-.15-.35a1.07,1.07,0,0,0-.38-.41,1.14,1.14,0,0,0-.52-.28,1.51,1.51,0,0,0-.79,0l1.33.35-.16-.14a1.51,1.51,0,0,0-.56-.33l-.34,0a.91.91,0,0,0-.49.11.64.64,0,0,0-.29.16.84.84,0,0,0-.23.23,1.21,1.21,0,0,0-.27.78Z"/><path class="cls-2" d="M427.2,422.84a2,2,0,0,0-.45.83,2.2,2.2,0,0,0,0,1V424a1.39,1.39,0,0,0,.08.94,1.58,1.58,0,0,0,.59.69l.1.06a1.41,1.41,0,0,0,1.42,0,1.57,1.57,0,0,0,.58-.67,1.3,1.3,0,0,0,.09-.73,1.54,1.54,0,0,0-.18-.56l.14.34a.25.25,0,0,1,0-.07,1.56,1.56,0,0,0-.52-.76.68.68,0,0,0-.32-.18,1.18,1.18,0,0,0-.56-.13h0l1,.41a.3.3,0,0,1-.08-.08l.21.28-.08-.14.14.32a.42.42,0,0,1,0-.16l0,.35v-.12l0,.33v0a1.32,1.32,0,0,0-.07-.81,1.23,1.23,0,0,0-.5-.6,1.55,1.55,0,0,0-.63-.16,1.21,1.21,0,0,0-.88.36Z"/><path class="cls-2" d="M429.64,416.67a1.63,1.63,0,0,0-1.13,1.55l.18-.65a1.49,1.49,0,0,0,.14,1.7,1.57,1.57,0,0,0,1.65.58,1.43,1.43,0,0,0,.94-.94,1.37,1.37,0,0,0-.35-1.31,1.59,1.59,0,0,0-.37-.27l.28.21a1.62,1.62,0,0,1-.19-.18l.21.27a1.58,1.58,0,0,0-.54-.52l.46.46,0-.08.13.31a.45.45,0,0,1,0-.11l0,.32v-.11l0,.32a.43.43,0,0,0,0-.05l-.11.28a.25.25,0,0,1,0-.07l-.18.23,0,0a1.26,1.26,0,0,0,.31-.66,1.08,1.08,0,0,0-.13-.73,1.17,1.17,0,0,0-1.3-.53Z"/><path class="cls-2" d="M429.94,410.74a1.64,1.64,0,0,0-.2.26,2.71,2.71,0,0,0-.13.3h0a1.27,1.27,0,0,0,0,.67l.12.3h0a1,1,0,0,0,.2.26s.14.12.13.1l.13.11a1.37,1.37,0,0,0,.31.13l.17,0a.58.58,0,0,0,.32,0l.18,0,.16-.07.18-.08.13-.1.13-.1h0l.19-.25h0a1.6,1.6,0,0,0,.13-.3,1.26,1.26,0,0,0,0-.61,1.29,1.29,0,0,0-.3-.52,1.19,1.19,0,0,0-.51-.29,1.09,1.09,0,0,0-.62,0h0l.31,0h0l.31,0h0l.29.12-.05,0,.25.2-.12-.1a1,1,0,0,0-.42-.22,2,2,0,0,0-.34-.05l.33,0h0l.29.12h0l.24.19h0l.19.25h0l.12.29h0l0,.32h0l0,.32v0l.05-.33a.92.92,0,0,0-.11-.46.72.72,0,0,0-.15-.27,1,1,0,0,0-.34-.31l-.29-.12-.32,0a1,1,0,0,0-.47.1.93.93,0,0,0-.38.25Z"/><path class="cls-2" d="M429.4,404.83l0,.31a1.58,1.58,0,0,0,.05.38,1.15,1.15,0,0,0,.3.51,1,1,0,0,0,1.4,0,1.28,1.28,0,0,0,.31-.51,2.33,2.33,0,0,0,0-.38l0-.31a1.09,1.09,0,0,0-.32-.76,1.06,1.06,0,0,0-1.52,0,1.05,1.05,0,0,0-.32.76Z"/><path class="cls-2" d="M560,448.85a23.11,23.11,0,0,1,3.25,9.45c.18,1.6,2.7,1.62,2.53,0A25.88,25.88,0,0,0,563,449c-.73-1.42-2.73-.39-2.45,1a36,36,0,0,0,1.51,5.42,1.35,1.35,0,0,0,2.6-.71l-1.42-5.48a1.35,1.35,0,0,0-2.6.72c3.76,14.86,5.22,30.22.62,45.08-4,13-11.61,24.53-15.72,37.48-.41,1.3,1.68,2.23,2.25.94,5.86-13.16,13.31-26.13,17.09-40.09,4-14.66,2.06-29.64-1.64-44.13l-2.6.72,1.42,5.47,2.6-.71a35.2,35.2,0,0,1-1.53-5.42l-2.45,1a24.77,24.77,0,0,1,2.6,8.31l2.44-.67a22.93,22.93,0,0,0-3.91-10.17c-.76-1.11-2.52-.12-1.82,1.06Z"/><path class="cls-2" d="M604.41,444.77c-2.63,9.51-3.5,19.65-4.41,29.45q-1.49,15.7-1.66,31.48c-.16,15.78.47,32-3.67,47.38a1.08,1.08,0,0,0,2.08.58c5-14,3.88-30.37,3.89-45,0-10.51.41-21,1.28-31.49.9-10.78,2.87-21.47,3.57-32.25a.55.55,0,0,0-1.08-.15Z"/><path class="cls-2" d="M249.93,709.87a1.54,1.54,0,0,0,0-3.07,1.54,1.54,0,0,0,0,3.07Z"/><path class="cls-2" d="M423.1,687.16c-3.3,2.45-7.75-.48-11.29-1s-7.22.16-10.81.53c-7.85.8-15.69.45-23.56.27-16.2-.38-31.68,2.53-47.52,5.69-7.84,1.56-15.66,3.25-23.37,5.41-7.16,2-14.12,4.85-21.42,6.37-15.76,3.27-32.25-.37-47.89,3.48-1.33.32-1.08,2.53.33,2.43,15.76-1.15,32.06.82,47.62-2.14,7.64-1.46,14.9-4.42,22.34-6.6,8.29-2.43,16.72-4.33,25.17-6.1s16.89-3.66,25.43-4.81c8.74-1.17,17.41-.92,26.2-.73,4.25.1,8.52.15,12.76-.16,4-.28,7.94-1.23,11.91-1.25,5,0,10.83,3.71,15.17,0,.74-.64-.26-2-1.07-1.38Z"/><path class="cls-2" d="M255,706.05c-4.6,2-6.55,6-7.94,10.67-2.18,7.34-3.5,15-5.18,22.48l2.37.32a87.08,87.08,0,0,1,6.35-30c.55-1.37-1.82-2.39-2.42-1-4.32,10.05-7.6,21.34-7.42,32.37a1.26,1.26,0,0,0,2.51,0c1.36-10.92,3-21.14,7.33-31.35l-2.55-.7a90.49,90.49,0,0,0-6.21,30.66,1.21,1.21,0,0,0,2.37.32c1.36-6.13,2.67-12.28,4.08-18.41,1.16-5.07,2.56-11.36,7.38-14.25.74-.45.09-1.46-.67-1.13Z"/><path class="cls-2" d="M343.63,714.16c-5,5.38-2.67,13-5.54,19.25l4.34,1.18c.46-5,1-10,1.78-15l-4.64-.63c-.06,9.34-3.12,18.34-2.68,27.7.12,2.6,4,3.31,4.65.63a53.08,53.08,0,0,1,2.49-7.46l-4.41-1.19,1,8.6a2.37,2.37,0,0,0,4.74,0q.36-3.39.71-6.77l-4.63.62A60.79,60.79,0,0,1,343.2,748l3.53-2.71-.84-1.29c-.79-2.76-4.44-2-4.73.64l-.25,2.28,4.71-.64-.24-1a2.42,2.42,0,0,0-4.38-.57l-.47.82,4.38.57-.26-.8c-.56-1.75-3.5-2.6-4.37-.57l-.5,1.16,4.37,1.84.11-.27-3.75-.49.54,1a2.42,2.42,0,0,0,3.75.48l1.31-1.25-4-1,.57,1.61a2.41,2.41,0,0,0,4.34.57l.74-1.14-4.33-.57.13.74.61-2.31-.54.52,2.3-.61a3.28,3.28,0,0,0-3,.36l3.23.85c-1.69-2.73-5.63-3.19-7.39-.26C337.45,748,340,750,342,749.08c.45-.21,3.11,1.09,4.08,1a3.29,3.29,0,0,0,2.17-1.19c2.16-2.12-1.16-5.43-3.31-3.32,1.51-1.48-4.53-.88-5.31-.52l3.21,3.22-.75.27a2.42,2.42,0,0,0,3.24.84l-.59.12a2.36,2.36,0,0,0,2.3-.6c1.19-1.14,1.29-2,1-3.56-.37-2.15-3.31-2.11-4.33-.56l-.75,1.13,4.34.57-.56-1.61a2.41,2.41,0,0,0-4-1.05L341.43,745l3.74.48-.54-1a2.41,2.41,0,0,0-3.75-.49,5.23,5.23,0,0,0-1.34,2.38c-.69,2.52,3.26,4.38,4.37,1.84l.5-1.16-4.37-.57.25.81a2.43,2.43,0,0,0,4.38.57l.47-.82-4.38-.57.23,1c.68,2.84,4.43,1.87,4.72-.64l.26-2.28-4.72.64a6.59,6.59,0,0,0,3.05,4.16c1.83,1.24,4-.8,3.53-2.72-.54-2.31-1.15-4.58-1.87-6.84-.84-2.66-4.35-2-4.63.63q-.37,3.38-.73,6.77h4.74l-1-8.6c-.22-2-3.37-3.63-4.41-1.2a61.92,61.92,0,0,0-3,8.6l4.65.62c-.44-9.35,2.63-18.36,2.67-27.7,0-2.57-4.26-3.33-4.65-.63-.77,5.4-1.41,10.81-1.88,16.25-.19,2.25,3.4,3.26,4.34,1.17,2.87-6.32.71-13.55,4.06-19.64.86-1.57-1.26-3.35-2.54-2Z"/><path class="cls-2" d="M474,725.21c-1.51-.5-2.18.07-3.19,1.18-2.73,3-4.68,7.52-6.82,11-1.34,2.16,1.58,4.1,3.34,2.58,3-2.59,6-5.22,9-7.83l-3.82-2.22c-1.89,5.67-7,10.93-10.45,15.75-1.61,2.26,1.72,4.28,3.57,2.76l4-3.3-3.18-3.19c-4,4.21-8.24,8.16-12.64,12l3.24,3.24c2.48-2.29,4.88-4.64,7.21-7.08,2-2.13-.95-4.89-3.15-3.16-3,2.37-6,4.75-9,7.08l2.67,3.46,3.69-3.69c1.76-1.76-.54-5-2.72-3.52q-2.43,1.6-4.84,3.23l2.61,3.4,2.23-2.75a2.19,2.19,0,0,0-2.64-3.42l-2.76,1.47,3,3,1.26-1.73c1.36-1.85-1.23-4.07-3-3l-2.39,1.39,3.06,3.06,1.26-2.42a2.27,2.27,0,0,0-3.55-2.73l-1.75,1.47,3.21,3.21a10.86,10.86,0,0,0,1.76-2.69c.91-1.95-1-4.45-3.14-3.15l-2.3,1.41,2.85,3.69a7.43,7.43,0,0,0,1.47-2.24c.82-1.86-1.13-4.9-3.26-3.26l.36,0,2.31,1.75-.16-.38-1.1,2.7.28-.17c2.63-1.6.23-5.74-2.41-4.13l-.28.17a2.43,2.43,0,0,0-1.1,2.7l.16.39c.35.88,1.21,1.89,2.3,1.75a4.28,4.28,0,0,0,2.53-1.07l-4-2.32-.44.75c-1.52,1.91.43,5.29,2.84,3.68l2.24-1.49-3.14-3.14-1,1.8a2.27,2.27,0,0,0,3.21,3.21l1.73-1.49-3.54-2.74-1.22,2.44c-1,1.91,1,4.28,3.05,3.06l2.37-1.44-3-3-1.23,1.74c-1.35,1.89,1.21,4,3,3l2.75-1.5L452.6,751c-.73.93-1.46,1.85-2.2,2.77-1.42,1.79.36,4.8,2.62,3.4,1.64-1,3.29-2,4.93-3.1l-2.72-3.52-3.64,3.74c-2,2.09,1,4.84,3.12,3.12,3-2.37,6-4.7,9-7l-2.7-3.5q-3.54,3.63-7.3,7c-2.22,2,1,5.13,3.24,3.24a165.88,165.88,0,0,0,12.58-12c2-2.15-1-5-3.18-3.19l-4.05,3.27,3.57,2.76c3.76-5.2,9-10.63,10.94-16.84.7-2.28-2.21-3.7-3.82-2.22-2.93,2.68-5.86,5.35-8.76,8l3.34,2.58c.36-.67,5.79-10.92,5.44-11,2,.75,3-2.58.9-3.25Z"/><path class="cls-2" d="M448.47,741.69c-4.88.65-6.22,6.86-4.44,10.84a9.89,9.89,0,0,0,5.51,4.85c2.81,1,5.77-.56,8.14-2l-3.63-4.71a21.63,21.63,0,0,1-2.47,2.41c-2.26,1.88.16,6.06,2.92,5a21.82,21.82,0,0,0,8.8-5.92L459.09,748c-1.58,1.88-6,7.16-8.45,4.87-2.87-2.7,1.28-5,2.42-7.26.68-1.34-.12-3.5-1.9-3.32-7,.72-9.43,8.89-5.31,14.09,2.11,2.67,5.17,4.3,8.53,3s6.67-4.48,8.92-7.13c2.46-2.9-1.62-7.1-4.21-4.22a15.88,15.88,0,0,1-6.19,4.36l2.92,5a20.82,20.82,0,0,0,2.47-2.41c2.15-2.47-.58-6.56-3.64-4.71-1.95,1.18-4.3,2.52-5.84-.07-1.11-1.86-.38-4,.85-5.57.78-1,.43-3.1-1.19-2.88Z"/><path class="cls-2" d="M460.24,753.9c5.71-2.52,10.5-8.6,14.32-13.36s8.13-9.88,10.15-15.58a1.77,1.77,0,0,0-2.94-1.71c-4.17,4.81-7.14,10.68-11.25,15.62-3.74,4.48-8.78,8.57-11.73,13.59-.57,1,.54,1.84,1.45,1.44Z"/><path class="cls-2" d="M341.55,712.2c-3.69,1.3-3.23,6.72-3.69,9.95a158.27,158.27,0,0,0-2,18.53c-.07,3.47.67,7.42,4,9.32a7.27,7.27,0,0,0,9.21-2l-4.3-3.31-1.93,1.78c-2.67,1.37-1.09,4.89,1.39,5.15,9,.93,6.84-7.57,5.64-13.5L345,740.22a3.55,3.55,0,0,1,.73,3.67q.3,3.58-3.94.84l-4.83,2a9.76,9.76,0,0,0,8.39,5.09v-5.23a5.71,5.71,0,0,1-3.43-.56c-2.79-1-4.49,3.3-2,4.73,10.41,6,10.62-14,9.84-19.11-.29-2-3.09-1.59-3.61,0a28.84,28.84,0,0,0-1.13,6.94c-.06.7-.48,9.18-2.49,7.7l-2,4.73a11.3,11.3,0,0,0,4.8.8c3.39-.11,3.34-5,0-5.23a4,4,0,0,1-3.83-2.53c-1.56-2.72-5.35-.8-4.83,2,.88,4.77,5.78,6,9.84,4.21,5.61-2.39,4.87-7.08,3.34-12.18-.83-2.75-5.54-2.4-5.23.71.16,1.58.38,3.15.61,4.72.27,1.79,1.14,2.78-1,2.55l1.39,5.14a8.2,8.2,0,0,0,3.88-3.79c1.7-3.18-2.67-5.55-4.73-2.76q-4.86.09-4.1-4.06c0-1.18.08-2.36.16-3.54.14-2.57.34-5.14.55-7.71.36-4.55-.32-11.3,1.56-15.48.38-.85-.27-2.14-1.35-1.75Z"/><path class="cls-2" d="M243.94,726.22a58.06,58.06,0,0,0-4.32,16.61c-.24,1.83,3,2.29,3.26.44a59.58,59.58,0,0,1,3.68-14.09l-3.34-.93a66.58,66.58,0,0,0-1.59,7.65c-.33,2.34-.08,5.62-1.53,7.55l3.17,1.33c1.85-11.84,3.92-23.16,8.79-34.21,1.1-2.51-2.6-4.71-3.73-2.18-5,11.2-8.71,23.57-8.47,35.93a1.76,1.76,0,0,0,3.24.88c1.29-1.71,1.34-3.29,1.55-5.38a68.58,68.58,0,0,1,1.91-10.64c.58-2.21-2.55-3-3.34-.93a61.61,61.61,0,0,0-3.6,14.58h3.31c.66-5.35,2-10.48,3.11-15.73.25-1.19-1.53-2.13-2.1-.88Z"/><path class="cls-2" d="M522.17,582.28c3.83,0,3.83-6,0-6s-3.84,6,0,6Z"/></g></svg>