<svg xmlns="http://www.w3.org/2000/svg" viewBox="0 0 1080 1920"><defs><style>.cls-1{fill:#e2deb4;stroke:#b11f24;stroke-miterlimit:10;stroke-width:0.25px;}.cls-2{font-size:45px;font-family:Cocogoose-Light, Cocogoose;font-weight:300;}.cls-2,.cls-8{fill:#b11f24;}.cls-3{letter-spacing:-0.03em;}.cls-4{letter-spacing:-0.02em;}.cls-5{letter-spacing:0em;}.cls-6{letter-spacing:-0.04em;}.cls-7{letter-spacing:-0.02em;}.cls-8{font-size:72px;font-family:FatFlamingo5, Fat Flamingo5;}</style></defs><title>BGFC Story</title><g id="Layer_2" data-name="Layer 2"><rect class="cls-1" x="0.34" y="0.38" width="1080" height="1920"/></g><g id="Layer_1" data-name="Layer 1"><text class="cls-2" transform="translate(95.95 677.1)">Yes! Send us pictures and reviews <tspan x="0" y="60">of any minority owned restaurants </tspan><tspan x="0" y="120">you l</tspan><tspan class="cls-3" x="116.39" y="120">o</tspan><tspan x="149.19" y="120">ve via DM or email.</tspan><tspan x="0" y="240">We&apos;d l</tspan><tspan class="cls-3" x="153.94" y="240">o</tspan><tspan x="186.75" y="240">ve </tspan><tspan class="cls-4" x="261.74" y="240">t</tspan><tspan class="cls-5" x="275.49" y="240">o feature them on our </tspan><tspan x="0" y="300">page! Please include ph</tspan><tspan class="cls-6" x="604.95" y="300">o</tspan><tspan class="cls-7" x="637.35" y="300">t</tspan><tspan x="651.1" y="300">os, </tspan><tspan x="0" y="360">restaurant name, location, the </tspan><tspan x="0" y="420">type of cuisine, price range and </tspan><tspan x="0" y="480">general vibe so we can maintain </tspan><tspan x="0" y="540">a </tspan><tspan class="cls-3" x="48.4" y="540">c</tspan><tspan x="75.4" y="540">onsistent and detailed index. </tspan><tspan x="0" y="600">Credit will be given, but let us </tspan><tspan x="0" y="660">know if you’d prefer us n</tspan><tspan class="cls-6" x="614.6" y="660">o</tspan><tspan x="647" y="660">t </tspan><tspan class="cls-7" x="675.71" y="660">t</tspan><tspan x="689.46" y="660">o. </tspan></text><text class="cls-8" transform="translate(91.95 460.73)">What about a <tspan x="0" y="86.4">submission? </tspan><tspan x="0" y="172.8"> </tspan></text></g></svg>