<svg xmlns="http://www.w3.org/2000/svg" viewBox="0 0 7916.4 9988.87"><defs><style>.cls-1{fill:#e2deb4;}.cls-1,.cls-15,.cls-18{stroke:#b11f24;stroke-miterlimit:10;}.cls-1,.cls-15{stroke-width:0.25px;}.cls-2{font-size:45px;font-family:Cocogoose-Light, Cocogoose;font-weight:300;}.cls-15,.cls-2,.cls-5{fill:#b11f24;}.cls-3{letter-spacing:-0.03em;}.cls-4{letter-spacing:-0.02em;}.cls-5{font-size:72px;}.cls-15,.cls-18,.cls-5{font-family:FatFlamingo5, Fat Flamingo5;}.cls-6{letter-spacing:-0.02em;}.cls-7{letter-spacing:0em;}.cls-8{letter-spacing:-0.02em;}.cls-9{letter-spacing:-0.01em;}.cls-10{letter-spacing:-0.14em;}.cls-11{letter-spacing:-0.03em;}.cls-12{letter-spacing:0em;}.cls-13{letter-spacing:-0.04em;}.cls-14{letter-spacing:-0.02em;}.cls-15,.cls-18{font-size:60px;}.cls-16{letter-spacing:-0.04em;}.cls-17{letter-spacing:-0.04em;}.cls-18{fill:none;}.cls-19{letter-spacing:-0.03em;}</style></defs><title>BGFC Story</title><g id="Layer_2" data-name="Layer 2"><rect class="cls-1" x="4547.13" y="0.13" width="1080" height="1920"/><rect class="cls-1" x="1127.12" y="0.13" width="1080" height="1920"/><rect class="cls-1" x="2251.13" y="0.13" width="1080" height="1920"/><rect class="cls-1" x="3400.13" y="0.13" width="1080" height="1920"/><rect class="cls-1" x="5686.13" y="0.13" width="1080" height="1920"/><rect class="cls-1" x="6834.13" y="0.13" width="1080" height="1920"/><rect class="cls-1" x="0.13" y="2032.13" width="1080" height="1920"/><rect class="cls-1" x="5686.13" y="2032.13" width="1080" height="1920"/><rect class="cls-1" x="4547.13" y="2032.13" width="1080" height="1920"/><rect class="cls-1" x="3400.13" y="2032.13" width="1080" height="1920"/><rect class="cls-1" x="2251.36" y="2032.13" width="1080" height="1920"/><rect class="cls-1" x="2.28" y="4025.13" width="1080" height="1920"/><rect class="cls-1" x="2254.28" y="4025.13" width="1080" height="1920"/><rect class="cls-1" x="6836.28" y="6027.13" width="1080" height="1920"/><rect class="cls-1" x="5688.28" y="6027.13" width="1080" height="1920"/><rect class="cls-1" x="4549.28" y="6027.13" width="1080" height="1920"/><rect class="cls-1" x="3402.28" y="6027.13" width="1080" height="1920"/><rect class="cls-1" x="2254.28" y="6027.13" width="1080" height="1920"/><rect class="cls-1" x="1129.28" y="6027.13" width="1080" height="1920"/><rect class="cls-1" x="6836.28" y="4025.13" width="1080" height="1920"/><rect class="cls-1" x="5688.28" y="4025.13" width="1080" height="1920"/><rect class="cls-1" x="4549.28" y="4025.13" width="1080" height="1920"/><rect class="cls-1" x="3402.28" y="4025.13" width="1080" height="1920"/><rect class="cls-1" x="6836.28" y="8055.13" width="1080" height="1920"/><rect class="cls-1" x="5688.28" y="8055.13" width="1080" height="1920"/><rect class="cls-1" x="4549.28" y="8055.13" width="1080" height="1920"/><rect class="cls-1" x="3402.28" y="8055.13" width="1080" height="1920"/><rect class="cls-1" x="2254.28" y="8055.13" width="1080" height="1920"/><rect class="cls-1" x="1127.29" y="8068.75" width="1080" height="1920"/><rect class="cls-1" x="1129.28" y="4025.13" width="1080" height="1920"/><rect class="cls-1" x="1126.92" y="2032.13" width="1080" height="1920"/></g><g id="Layer_1" data-name="Layer 1"><text class="cls-2" transform="translate(4642.73 854.84)">We&apos;ll be visiting food trucks, <tspan x="0" y="60">supper clubs, </tspan><tspan class="cls-3" x="348.61" y="60">c</tspan><tspan x="375.61" y="60">ooking classes and </tspan><tspan x="0" y="120">workshops </tspan><tspan class="cls-4" x="288.56" y="120">t</tspan><tspan x="302.31" y="120">oo!</tspan></text><text class="cls-5" transform="translate(4638.73 460.48)">Is this limited to <tspan x="0" y="86.4">only brick and </tspan><tspan x="0" y="172.8">mortar </tspan><tspan x="0" y="259.2">restaurants?</tspan><tspan x="0" y="345.6"> </tspan></text><text class="cls-2" transform="translate(5781.73 2794.84)">Nope! Despite the name, you <tspan x="0" y="60">don&apos;t have </tspan><tspan class="cls-6" x="277.49" y="60">t</tspan><tspan class="cls-7" x="291.23" y="60">o be b</tspan><tspan class="cls-8" x="457.44" y="60">r</tspan><tspan x="480.03" y="60">own. We&apos;re </tspan><tspan x="0" y="120">inviting anyone who identifies as a </tspan><tspan x="0" y="180">Womxn of Color </tspan><tspan class="cls-4" x="412.67" y="180">t</tspan><tspan x="426.41" y="180">o join us, no </tspan><tspan x="0" y="240">matter your backg</tspan><tspan class="cls-9" x="472.65" y="240">r</tspan><tspan x="495.24" y="240">ound.</tspan></text><text class="cls-5" transform="translate(5777.73 2492.48)">Do you have to <tspan x="0" y="86.4">be a brown </tspan><tspan x="0" y="172.8">womxn?</tspan></text><text class="cls-2" transform="translate(4642.73 2708.84)"><tspan class="cls-10">T</tspan><tspan x="21.78" y="0">o build a </tspan><tspan class="cls-11" x="254.7" y="0">c</tspan><tspan class="cls-12" x="281.7" y="0">ommunity of like </tspan><tspan x="0" y="60">minded folks by gathering, eating </tspan><tspan x="0" y="120">good food, dis</tspan><tspan class="cls-3" x="364.7" y="120">co</tspan><tspan x="424.5" y="120">vering </tspan><tspan x="0" y="180">something new and supporting </tspan><tspan x="0" y="240">underrepresented restaurants. </tspan><tspan x="0" y="360">We want this Instagram page </tspan><tspan class="cls-4" x="747.73" y="360">t</tspan><tspan x="761.48" y="360">o </tspan><tspan x="0" y="420">serve as n</tspan><tspan class="cls-13" x="257.04" y="420">o</tspan><tspan class="cls-7" x="289.44" y="420">t just a meeting place </tspan><tspan x="0" y="480">but also an index of minority run </tspan><tspan x="0" y="540">restaurants. </tspan></text><text class="cls-5" transform="translate(4638.73 2492.48)">What&apos;s the <tspan x="0" y="86.4">point? </tspan></text><text class="cls-2" transform="translate(3495.73 2708.84)">Besides having amazing food, <tspan x="0" y="60">these restaurants are highly </tspan><tspan x="0" y="120">underrated and can use our </tspan><tspan x="0" y="180">support in a city dominated by </tspan><tspan x="0" y="240" xml:space="preserve">systemic racism,  gentrification </tspan><tspan x="0" y="300">and a general lack of diversity. </tspan><tspan x="0" y="360">These places are less likely </tspan><tspan class="cls-4" x="694.25" y="360">t</tspan><tspan x="708" y="360">o get </tspan><tspan x="0" y="420">your business </tspan><tspan class="cls-3" x="352.1" y="420">c</tspan><tspan x="379.1" y="420">ompared </tspan><tspan class="cls-14" x="636.92" y="420">t</tspan><tspan x="650.67" y="420">o </tspan><tspan x="0" y="480">restaurants with inves</tspan><tspan class="cls-4" x="537.34" y="480">t</tspan><tspan x="551.09" y="480">ors, </tspan><tspan x="0" y="540">hospitality g</tspan><tspan class="cls-9" x="296.97" y="540">r</tspan><tspan x="319.56" y="540">oups and PR behind </tspan><tspan x="0" y="600">them. These restaurants need </tspan><tspan x="0" y="660">your business </tspan><tspan class="cls-4" x="352.1" y="660">t</tspan><tspan x="365.85" y="660">o survive. </tspan></text><text class="cls-5" transform="translate(3491.73 2492.48)">Why those <tspan x="0" y="86.4">restaurants?</tspan></text><text class="cls-2" transform="translate(2346.97 2634.42)">We hold meetups at POC, WOC <tspan x="0" y="60">and immigrant owned restaurants </tspan><tspan x="0" y="120">in the greater Austin area. </tspan></text><text class="cls-5" transform="translate(2342.97 2492.48)">What do you do? </text><text class="cls-15" transform="translate(21.05 5019.41)">BROWN GIRLS FOOD CLUB</text><text class="cls-2" transform="translate(1222.53 2634.42)">We&apos;re a g<tspan class="cls-9" x="249.3" y="0">r</tspan><tspan x="271.89" y="0">oup of badass Muslim </tspan><tspan x="0" y="60">b</tspan><tspan class="cls-9" x="34.87" y="60">r</tspan><tspan x="57.46" y="60">own gals (hence the name) </tspan><tspan x="0" y="120">based in Austin and we like </tspan><tspan class="cls-4" x="689.87" y="120">t</tspan><tspan x="703.61" y="120">o eat.</tspan><tspan x="0" y="240">Some of us are new </tspan><tspan class="cls-4" x="517.85" y="240">t</tspan><tspan x="531.6" y="240">o Austin and </tspan><tspan x="0" y="300">some have been here a while. </tspan><tspan x="0" y="360">We were searching for </tspan><tspan class="cls-11" x="0" y="420">c</tspan><tspan x="27" y="420">ommunity and found each </tspan><tspan class="cls-16" x="693.85" y="420">o</tspan><tspan x="726.25" y="420">ther. </tspan><tspan x="0" y="540">We figured there are </tspan><tspan class="cls-17" x="548.86" y="540">o</tspan><tspan x="581.26" y="540">ther ladies </tspan><tspan x="0" y="600">out there hungry for </tspan><tspan class="cls-3" x="517.02" y="600">c</tspan><tspan x="544.02" y="600">onnection, </tspan><tspan x="0" y="660">support and good food so we </tspan><tspan x="0" y="720">started this club!</tspan></text><text class="cls-5" transform="translate(1218.53 2492.48)">Who are you? </text><text class="cls-15" transform="translate(2273.05 5019.41)">BROWN GIRLS FOOD CLUB</text><text class="cls-18" transform="translate(2273.05 4960.41)">BROWN GIRLS FOOD CLUB</text><text class="cls-18" transform="translate(2273.05 5075.75)">BROWN GIRLS FOOD CLUB</text><text class="cls-15" transform="translate(6855.05 7021.41)">BROWN GIRLS FOOD CLUB</text><text class="cls-18" transform="translate(6855.05 6962.41)">BROWN GIRLS FOOD CLUB</text><text class="cls-18" transform="translate(6855.05 6903.75)">BROWN GIRLS FOOD CLUB</text><text class="cls-18" transform="translate(6855.05 6845.75)">BROWN GIRLS FOOD CLUB</text><text class="cls-18" transform="translate(6855.05 6790.41)">BROWN GIRLS FOOD CLUB</text><text class="cls-18" transform="translate(6855.05 6731.75)">BROWN GIRLS FOOD CLUB</text><text class="cls-18" transform="translate(6855.05 6673.75)">BROWN GIRLS FOOD CLUB</text><text class="cls-18" transform="translate(6855.05 6618.41)">BROWN GIRLS FOOD CLUB</text><text class="cls-18" transform="translate(6855.05 6559.75)">BROWN GIRLS FOOD CLUB</text><text class="cls-18" transform="translate(6855.05 6501.75)">BROWN GIRLS FOOD CLUB</text><text class="cls-18" transform="translate(6855.05 6446.41)">BROWN GIRLS FOOD CLUB</text><text class="cls-18" transform="translate(6855.05 6388.75)">BROWN GIRLS FOOD CLUB</text><text class="cls-18" transform="translate(6855.05 7644.75)">BROWN GIRLS FOOD CLUB</text><text class="cls-18" transform="translate(6855.05 7589.41)">BROWN GIRLS FOOD CLUB</text><text class="cls-18" transform="translate(6855.05 7530.75)">BROWN GIRLS FOOD CLUB</text><text class="cls-18" transform="translate(6855.05 7472.75)">BROWN GIRLS FOOD CLUB</text><text class="cls-18" transform="translate(6855.05 7417.41)">BROWN GIRLS FOOD CLUB</text><text class="cls-18" transform="translate(6855.05 7358.75)">BROWN GIRLS FOOD CLUB</text><text class="cls-18" transform="translate(6855.05 7300.75)">BROWN GIRLS FOOD CLUB</text><text class="cls-18" transform="translate(6855.05 7247.75)">BROWN GIRLS FOOD CLUB</text><text class="cls-18" transform="translate(6855.05 7193.75)">BROWN GIRLS FOOD CLUB</text><text class="cls-18" transform="translate(6855.05 7136.41)">BROWN GIRLS FOOD CLUB</text><text class="cls-18" transform="translate(6855.05 7077.75)">BROWN GIRLS FOOD CLUB</text><text class="cls-15" transform="translate(5707.05 7021.41)">BROWN GIRLS FOOD CLUB</text><text class="cls-18" transform="translate(5707.05 6962.41)">BROWN GIRLS FOOD CLUB</text><text class="cls-18" transform="translate(5707.05 6903.75)">BROWN GIRLS FOOD CLUB</text><text class="cls-18" transform="translate(5707.05 6845.75)">BROWN GIRLS FOOD CLUB</text><text class="cls-18" transform="translate(5707.05 6790.41)">BROWN GIRLS FOOD CLUB</text><text class="cls-18" transform="translate(5707.05 6731.75)">BROWN GIRLS FOOD CLUB</text><text class="cls-18" transform="translate(5707.05 6673.75)">BROWN GIRLS FOOD CLUB</text><text class="cls-18" transform="translate(5707.05 6618.41)">BROWN GIRLS FOOD CLUB</text><text class="cls-18" transform="translate(5707.05 6559.75)">BROWN GIRLS FOOD CLUB</text><text class="cls-18" transform="translate(5707.05 6501.75)">BROWN GIRLS FOOD CLUB</text><text class="cls-18" transform="translate(5707.05 6446.41)">BROWN GIRLS FOOD CLUB</text><text class="cls-18" transform="translate(5707.05 7589.41)">BROWN GIRLS FOOD CLUB</text><text class="cls-18" transform="translate(5707.05 7530.75)">BROWN GIRLS FOOD CLUB</text><text class="cls-18" transform="translate(5707.05 7472.75)">BROWN GIRLS FOOD CLUB</text><text class="cls-18" transform="translate(5707.05 7417.41)">BROWN GIRLS FOOD CLUB</text><text class="cls-18" transform="translate(5707.05 7358.75)">BROWN GIRLS FOOD CLUB</text><text class="cls-18" transform="translate(5707.05 7300.75)">BROWN GIRLS FOOD CLUB</text><text class="cls-18" transform="translate(5707.05 7247.75)">BROWN GIRLS FOOD CLUB</text><text class="cls-18" transform="translate(5707.05 7193.75)">BROWN GIRLS FOOD CLUB</text><text class="cls-18" transform="translate(5707.05 7136.41)">BROWN GIRLS FOOD CLUB</text><text class="cls-18" transform="translate(5707.05 7077.75)">BROWN GIRLS FOOD CLUB</text><text class="cls-15" transform="translate(4568.05 7021.41)">BROWN GIRLS FOOD CLUB</text><text class="cls-18" transform="translate(4568.05 6962.41)">BROWN GIRLS FOOD CLUB</text><text class="cls-18" transform="translate(4568.05 6903.75)">BROWN GIRLS FOOD CLUB</text><text class="cls-18" transform="translate(4568.05 6845.75)">BROWN GIRLS FOOD CLUB</text><text class="cls-18" transform="translate(4568.05 6790.41)">BROWN GIRLS FOOD CLUB</text><text class="cls-18" transform="translate(4568.05 6731.75)">BROWN GIRLS FOOD CLUB</text><text class="cls-18" transform="translate(4568.05 6673.75)">BROWN GIRLS FOOD CLUB</text><text class="cls-18" transform="translate(4568.05 6618.41)">BROWN GIRLS FOOD CLUB</text><text class="cls-18" transform="translate(4568.05 6559.75)">BROWN GIRLS FOOD CLUB</text><text class="cls-18" transform="translate(4568.05 6501.75)">BROWN GIRLS FOOD CLUB</text><text class="cls-18" transform="translate(4568.05 7530.75)">BROWN GIRLS FOOD CLUB</text><text class="cls-18" transform="translate(4568.05 7472.75)">BROWN GIRLS FOOD CLUB</text><text class="cls-18" transform="translate(4568.05 7417.41)">BROWN GIRLS FOOD CLUB</text><text class="cls-18" transform="translate(4568.05 7358.75)">BROWN GIRLS FOOD CLUB</text><text class="cls-18" transform="translate(4568.05 7300.75)">BROWN GIRLS FOOD CLUB</text><text class="cls-18" transform="translate(4568.05 7247.75)">BROWN GIRLS FOOD CLUB</text><text class="cls-18" transform="translate(4568.05 7193.75)">BROWN GIRLS FOOD CLUB</text><text class="cls-18" transform="translate(4568.05 7136.41)">BROWN GIRLS FOOD CLUB</text><text class="cls-18" transform="translate(4568.05 7077.75)">BROWN GIRLS FOOD CLUB</text><text class="cls-15" transform="translate(3421.05 7021.41)">BROWN GIRLS FOOD CLUB</text><text class="cls-18" transform="translate(3421.05 6962.41)">BROWN GIRLS FOOD CLUB</text><text class="cls-18" transform="translate(3421.05 6903.75)">BROWN GIRLS FOOD CLUB</text><text class="cls-18" transform="translate(3421.05 6845.75)">BROWN GIRLS FOOD CLUB</text><text class="cls-18" transform="translate(3421.05 6790.41)">BROWN GIRLS FOOD CLUB</text><text class="cls-18" transform="translate(3421.05 6731.75)">BROWN GIRLS FOOD CLUB</text><text class="cls-18" transform="translate(3421.05 6673.75)">BROWN GIRLS FOOD CLUB</text><text class="cls-18" transform="translate(3421.05 6618.41)">BROWN GIRLS FOOD CLUB</text><text class="cls-18" transform="translate(3421.05 6559.75)">BROWN GIRLS FOOD CLUB</text><text class="cls-18" transform="translate(3421.05 7472.75)">BROWN GIRLS FOOD CLUB</text><text class="cls-18" transform="translate(3421.05 7417.41)">BROWN GIRLS FOOD CLUB</text><text class="cls-18" transform="translate(3421.05 7358.75)">BROWN GIRLS FOOD CLUB</text><text class="cls-18" transform="translate(3421.05 7300.75)">BROWN GIRLS FOOD CLUB</text><text class="cls-18" transform="translate(3421.05 7247.75)">BROWN GIRLS FOOD CLUB</text><text class="cls-18" transform="translate(3421.05 7193.75)">BROWN GIRLS FOOD CLUB</text><text class="cls-18" transform="translate(3421.05 7136.41)">BROWN GIRLS FOOD CLUB</text><text class="cls-18" transform="translate(3421.05 7077.75)">BROWN GIRLS FOOD CLUB</text><text class="cls-15" transform="translate(2273.05 7021.41)">BROWN GIRLS FOOD CLUB</text><text class="cls-18" transform="translate(2273.05 6962.41)">BROWN GIRLS FOOD CLUB</text><text class="cls-18" transform="translate(2273.05 6903.75)">BROWN GIRLS FOOD CLUB</text><text class="cls-18" transform="translate(2273.05 6845.75)">BROWN GIRLS FOOD CLUB</text><text class="cls-18" transform="translate(2273.05 6790.41)">BROWN GIRLS FOOD CLUB</text><text class="cls-18" transform="translate(2273.05 6731.75)">BROWN GIRLS FOOD CLUB</text><text class="cls-18" transform="translate(2273.05 6673.75)">BROWN GIRLS FOOD CLUB</text><text class="cls-18" transform="translate(2273.05 6618.41)">BROWN GIRLS FOOD CLUB</text><text class="cls-18" transform="translate(2273.05 7417.41)">BROWN GIRLS FOOD CLUB</text><text class="cls-18" transform="translate(2273.05 7358.75)">BROWN GIRLS FOOD CLUB</text><text class="cls-18" transform="translate(2273.05 7300.75)">BROWN GIRLS FOOD CLUB</text><text class="cls-18" transform="translate(2273.05 7247.75)">BROWN GIRLS FOOD CLUB</text><text class="cls-18" transform="translate(2273.05 7193.75)">BROWN GIRLS FOOD CLUB</text><text class="cls-18" transform="translate(2273.05 7136.41)">BROWN GIRLS FOOD CLUB</text><text class="cls-18" transform="translate(2273.05 7077.75)">BROWN GIRLS FOOD CLUB</text><text class="cls-15" transform="translate(1148.05 7021.41)">BROWN GIRLS FOOD CLUB</text><text class="cls-18" transform="translate(1148.05 6962.41)">BROWN GIRLS FOOD CLUB</text><text class="cls-18" transform="translate(1148.05 6903.75)">BROWN GIRLS FOOD CLUB</text><text class="cls-18" transform="translate(1148.05 6845.75)">BROWN GIRLS FOOD CLUB</text><text class="cls-18" transform="translate(1148.05 6790.41)">BROWN GIRLS FOOD CLUB</text><text class="cls-18" transform="translate(1148.05 6731.75)">BROWN GIRLS FOOD CLUB</text><text class="cls-18" transform="translate(1148.05 6673.75)">BROWN GIRLS FOOD CLUB</text><text class="cls-18" transform="translate(1148.05 7358.75)">BROWN GIRLS FOOD CLUB</text><text class="cls-18" transform="translate(1148.05 7300.75)">BROWN GIRLS FOOD CLUB</text><text class="cls-18" transform="translate(1148.05 7247.75)">BROWN GIRLS FOOD CLUB</text><text class="cls-18" transform="translate(1148.05 7193.75)">BROWN GIRLS FOOD CLUB</text><text class="cls-18" transform="translate(1148.05 7136.41)">BROWN GIRLS FOOD CLUB</text><text class="cls-18" transform="translate(1148.05 7077.75)">BROWN GIRLS FOOD CLUB</text><text class="cls-15" transform="translate(6855.05 5019.41)">BROWN GIRLS FOOD CLUB</text><text class="cls-18" transform="translate(6855.05 4960.41)">BROWN GIRLS FOOD CLUB</text><text class="cls-18" transform="translate(6855.05 4901.75)">BROWN GIRLS FOOD CLUB</text><text class="cls-18" transform="translate(6855.05 4843.75)">BROWN GIRLS FOOD CLUB</text><text class="cls-18" transform="translate(6855.05 4788.41)">BROWN GIRLS FOOD CLUB</text><text class="cls-18" transform="translate(6855.05 4729.75)">BROWN GIRLS FOOD CLUB</text><text class="cls-18" transform="translate(6855.05 5298.75)">BROWN GIRLS FOOD CLUB</text><text class="cls-18" transform="translate(6855.05 5245.75)">BROWN GIRLS FOOD CLUB</text><text class="cls-18" transform="translate(6855.05 5191.75)">BROWN GIRLS FOOD CLUB</text><text class="cls-18" transform="translate(6855.05 5134.41)">BROWN GIRLS FOOD CLUB</text><text class="cls-18" transform="translate(6855.05 5075.75)">BROWN GIRLS FOOD CLUB</text><text class="cls-15" transform="translate(5707.05 5019.41)">BROWN GIRLS FOOD CLUB</text><text class="cls-18" transform="translate(5707.05 4960.41)">BROWN GIRLS FOOD CLUB</text><text class="cls-18" transform="translate(5707.05 4901.75)">BROWN GIRLS FOOD CLUB</text><text class="cls-18" transform="translate(5707.05 4843.75)">BROWN GIRLS FOOD CLUB</text><text class="cls-18" transform="translate(5707.05 4788.41)">BROWN GIRLS FOOD CLUB</text><text x="-0.21" y="-0.25"/><text class="cls-18" transform="translate(5707.05 5245.75)">BROWN GIRLS FOOD CLUB</text><text class="cls-18" transform="translate(5707.05 5191.75)">BROWN GIRLS FOOD CLUB</text><text class="cls-18" transform="translate(5707.05 5134.41)">BROWN GIRLS FOOD CLUB</text><text class="cls-18" transform="translate(5707.05 5075.75)">BROWN GIRLS FOOD CLUB</text><text class="cls-15" transform="translate(4568.05 5019.41)">BROWN GIRLS FOOD CLUB</text><text class="cls-18" transform="translate(4568.05 4960.41)">BROWN GIRLS FOOD CLUB</text><text class="cls-18" transform="translate(4568.05 4901.75)">BROWN GIRLS FOOD CLUB</text><text class="cls-18" transform="translate(4568.05 4843.75)">BROWN GIRLS FOOD CLUB</text><text class="cls-18" transform="translate(4568.05 5191.75)">BROWN GIRLS FOOD CLUB</text><text class="cls-18" transform="translate(4568.05 5134.41)">BROWN GIRLS FOOD CLUB</text><text class="cls-18" transform="translate(4568.05 5075.75)">BROWN GIRLS FOOD CLUB</text><text class="cls-15" transform="translate(3421.05 5019.41)">BROWN GIRLS FOOD CLUB</text><text class="cls-18" transform="translate(3421.05 4960.41)">BROWN GIRLS FOOD CLUB</text><text class="cls-18" transform="translate(3421.05 4901.75)">BROWN GIRLS FOOD CLUB</text><text class="cls-18" transform="translate(3421.05 5134.41)">BROWN GIRLS FOOD CLUB</text><text class="cls-18" transform="translate(3421.05 5075.75)">BROWN GIRLS FOOD CLUB</text><text class="cls-15" transform="translate(5707.05 9049.41)">BROWN GIRLS FOOD CLUB</text><text class="cls-18" transform="translate(5707.05 8990.41)">BROWN GIRLS FOOD CLUB</text><text class="cls-18" transform="translate(5707.05 8931.75)">BROWN GIRLS FOOD CLUB</text><text class="cls-18" transform="translate(5707.05 8873.75)">BROWN GIRLS FOOD CLUB</text><text class="cls-18" transform="translate(5707.05 8818.41)">BROWN GIRLS FOOD CLUB</text><text class="cls-18" transform="translate(5707.05 8759.75)">BROWN GIRLS FOOD CLUB</text><text class="cls-18" transform="translate(5707.05 8701.75)">BROWN GIRLS FOOD CLUB</text><text class="cls-18" transform="translate(5707.05 8646.41)">BROWN GIRLS FOOD CLUB</text><text class="cls-18" transform="translate(5707.05 8587.75)">BROWN GIRLS FOOD CLUB</text><text class="cls-18" transform="translate(5707.05 8529.75)">BROWN GIRLS FOOD CLUB</text><text class="cls-18" transform="translate(5707.05 8474.41)">BROWN GIRLS FOOD CLUB</text><text class="cls-18" transform="translate(5707.05 8416.75)">BROWN GIRLS FOOD CLUB</text><text class="cls-18" transform="translate(5707.05 8358.75)">BROWN GIRLS FOOD CLUB</text><text class="cls-18" transform="translate(5707.05 8304.75)">BROWN GIRLS FOOD CLUB</text><text class="cls-18" transform="translate(5707.05 8248.75)">BROWN GIRLS FOOD CLUB</text><text class="cls-18" transform="translate(5707.05 8193.41)">BROWN GIRLS FOOD CLUB</text><text class="cls-18" transform="translate(5707.05 8134.75)">BROWN GIRLS FOOD CLUB</text><text class="cls-18" transform="translate(5707.05 9957.41)">BROWN GIRLS FOOD CLUB</text><text class="cls-18" transform="translate(5707.05 9902.75)">BROWN GIRLS FOOD CLUB</text><text class="cls-18" transform="translate(5707.05 9844.75)">BROWN GIRLS FOOD CLUB</text><text class="cls-18" transform="translate(5707.05 9789.41)">BROWN GIRLS FOOD CLUB</text><text class="cls-18" transform="translate(5707.05 9730.75)">BROWN GIRLS FOOD CLUB</text><text class="cls-18" transform="translate(5707.05 9672.75)">BROWN GIRLS FOOD CLUB</text><text class="cls-18" transform="translate(5707.05 9617.41)">BROWN GIRLS FOOD CLUB</text><text class="cls-18" transform="translate(5707.05 9558.75)">BROWN GIRLS FOOD CLUB</text><text class="cls-18" transform="translate(5707.05 9500.75)">BROWN GIRLS FOOD CLUB</text><text class="cls-18" transform="translate(5707.05 9445.41)">BROWN GIRLS FOOD CLUB</text><text class="cls-18" transform="translate(5707.05 9386.75)">BROWN GIRLS FOOD CLUB</text><text class="cls-18" transform="translate(5707.05 9328.75)">BROWN GIRLS FOOD CLUB</text><text class="cls-18" transform="translate(5707.05 9275.75)">BROWN GIRLS FOOD CLUB</text><text class="cls-18" transform="translate(5707.05 9221.75)">BROWN GIRLS FOOD CLUB</text><text class="cls-18" transform="translate(5707.05 9164.41)">BROWN GIRLS FOOD CLUB</text><text class="cls-18" transform="translate(5707.05 9105.75)">BROWN GIRLS FOOD CLUB</text><text class="cls-15" transform="translate(4568.05 9049.41)">BROWN GIRLS FOOD CLUB</text><text class="cls-18" transform="translate(4568.05 8990.41)">BROWN GIRLS FOOD CLUB</text><text class="cls-18" transform="translate(4568.05 8931.75)">BROWN GIRLS FOOD CLUB</text><text class="cls-18" transform="translate(4568.05 8873.75)">BROWN GIRLS FOOD CLUB</text><text class="cls-18" transform="translate(4568.05 8818.41)">BROWN GIRLS FOOD CLUB</text><text class="cls-18" transform="translate(4568.05 8759.75)">BROWN GIRLS FOOD CLUB</text><text class="cls-18" transform="translate(4568.05 8701.75)">BROWN GIRLS FOOD CLUB</text><text class="cls-18" transform="translate(4568.05 8646.41)">BROWN GIRLS FOOD CLUB</text><text class="cls-18" transform="translate(4568.05 8587.75)">BROWN GIRLS FOOD CLUB</text><text class="cls-18" transform="translate(4568.05 8529.75)">BROWN GIRLS FOOD CLUB</text><text class="cls-18" transform="translate(4568.05 8474.41)">BROWN GIRLS FOOD CLUB</text><text class="cls-18" transform="translate(4568.05 8416.75)">BROWN GIRLS FOOD CLUB</text><text class="cls-18" transform="translate(4568.05 8358.75)">BROWN GIRLS FOOD CLUB</text><text class="cls-18" transform="translate(4568.05 8304.75)">BROWN GIRLS FOOD CLUB</text><text class="cls-18" transform="translate(4568.05 8248.75)">BROWN GIRLS FOOD CLUB</text><text class="cls-18" transform="translate(4568.05 8193.41)">BROWN GIRLS FOOD CLUB</text><text class="cls-18" transform="translate(4568.05 9902.75)">BROWN GIRLS FOOD CLUB</text><text class="cls-18" transform="translate(4568.05 9844.75)">BROWN GIRLS FOOD CLUB</text><text class="cls-18" transform="translate(4568.05 9789.41)">BROWN GIRLS FOOD CLUB</text><text class="cls-18" transform="translate(4568.05 9730.75)">BROWN GIRLS FOOD CLUB</text><text class="cls-18" transform="translate(4568.05 9672.75)">BROWN GIRLS FOOD CLUB</text><text class="cls-18" transform="translate(4568.05 9617.41)">BROWN GIRLS FOOD CLUB</text><text class="cls-18" transform="translate(4568.05 9558.75)">BROWN GIRLS FOOD CLUB</text><text class="cls-18" transform="translate(4568.05 9500.75)">BROWN GIRLS FOOD CLUB</text><text class="cls-18" transform="translate(4568.05 9445.41)">BROWN GIRLS FOOD CLUB</text><text class="cls-18" transform="translate(4568.05 9386.75)">BROWN GIRLS FOOD CLUB</text><text class="cls-18" transform="translate(4568.05 9328.75)">BROWN GIRLS FOOD CLUB</text><text class="cls-18" transform="translate(4568.05 9275.75)">BROWN GIRLS FOOD CLUB</text><text class="cls-18" transform="translate(4568.05 9221.75)">BROWN GIRLS FOOD CLUB</text><text class="cls-18" transform="translate(4568.05 9164.41)">BROWN GIRLS FOOD CLUB</text><text class="cls-18" transform="translate(4568.05 9105.75)">BROWN GIRLS FOOD CLUB</text><text class="cls-15" transform="translate(3421.05 9049.41)">BROWN GIRLS FOOD CLUB</text><text class="cls-18" transform="translate(3421.05 8990.41)">BROWN GIRLS FOOD CLUB</text><text class="cls-18" transform="translate(3421.05 8931.75)">BROWN GIRLS FOOD CLUB</text><text class="cls-18" transform="translate(3421.05 8873.75)">BROWN GIRLS FOOD CLUB</text><text class="cls-18" transform="translate(3421.05 8818.41)">BROWN GIRLS FOOD CLUB</text><text class="cls-18" transform="translate(3421.05 8759.75)">BROWN GIRLS FOOD CLUB</text><text class="cls-18" transform="translate(3421.05 8701.75)">BROWN GIRLS FOOD CLUB</text><text class="cls-18" transform="translate(3421.05 8646.41)">BROWN GIRLS FOOD CLUB</text><text class="cls-18" transform="translate(3421.05 8587.75)">BROWN GIRLS FOOD CLUB</text><text class="cls-18" transform="translate(3421.05 8529.75)">BROWN GIRLS FOOD CLUB</text><text class="cls-18" transform="translate(3421.05 8474.41)">BROWN GIRLS FOOD CLUB</text><text class="cls-18" transform="translate(3421.05 8416.75)">BROWN GIRLS FOOD CLUB</text><text class="cls-18" transform="translate(3421.05 8358.75)">BROWN GIRLS FOOD CLUB</text><text class="cls-18" transform="translate(3421.05 8304.75)">BROWN GIRLS FOOD CLUB</text><text class="cls-18" transform="translate(3421.05 8248.75)">BROWN GIRLS FOOD CLUB</text><text class="cls-18" transform="translate(3421.05 9844.75)">BROWN GIRLS FOOD CLUB</text><text class="cls-18" transform="translate(3421.05 9789.41)">BROWN GIRLS FOOD CLUB</text><text class="cls-18" transform="translate(3421.05 9730.75)">BROWN GIRLS FOOD CLUB</text><text class="cls-18" transform="translate(3421.05 9672.75)">BROWN GIRLS FOOD CLUB</text><text class="cls-18" transform="translate(3421.05 9617.41)">BROWN GIRLS FOOD CLUB</text><text class="cls-18" transform="translate(3421.05 9558.75)">BROWN GIRLS FOOD CLUB</text><text class="cls-18" transform="translate(3421.05 9500.75)">BROWN GIRLS FOOD CLUB</text><text class="cls-18" transform="translate(3421.05 9445.41)">BROWN GIRLS FOOD CLUB</text><text class="cls-18" transform="translate(3421.05 9386.75)">BROWN GIRLS FOOD CLUB</text><text class="cls-18" transform="translate(3421.05 9328.75)">BROWN GIRLS FOOD CLUB</text><text class="cls-18" transform="translate(3421.05 9275.75)">BROWN GIRLS FOOD CLUB</text><text class="cls-18" transform="translate(3421.05 9221.75)">BROWN GIRLS FOOD CLUB</text><text class="cls-18" transform="translate(3421.05 9164.41)">BROWN GIRLS FOOD CLUB</text><text class="cls-18" transform="translate(3421.05 9105.75)">BROWN GIRLS FOOD CLUB</text><text class="cls-15" transform="translate(2273.05 9049.41)">BROWN GIRLS FOOD CLUB</text><text class="cls-18" transform="translate(2273.05 8990.41)">BROWN GIRLS FOOD CLUB</text><text class="cls-18" transform="translate(2273.05 8931.75)">BROWN GIRLS FOOD CLUB</text><text class="cls-18" transform="translate(2273.05 8873.75)">BROWN GIRLS FOOD CLUB</text><text class="cls-18" transform="translate(2273.05 8818.41)">BROWN GIRLS FOOD CLUB</text><text class="cls-18" transform="translate(2273.05 8759.75)">BROWN GIRLS FOOD CLUB</text><text class="cls-18" transform="translate(2273.05 8701.75)">BROWN GIRLS FOOD CLUB</text><text class="cls-18" transform="translate(2273.05 8646.41)">BROWN GIRLS FOOD CLUB</text><text class="cls-18" transform="translate(2273.05 8587.75)">BROWN GIRLS FOOD CLUB</text><text class="cls-18" transform="translate(2273.05 8529.75)">BROWN GIRLS FOOD CLUB</text><text class="cls-18" transform="translate(2273.05 8474.41)">BROWN GIRLS FOOD CLUB</text><text class="cls-18" transform="translate(2273.05 8416.75)">BROWN GIRLS FOOD CLUB</text><text class="cls-18" transform="translate(2273.05 8358.75)">BROWN GIRLS FOOD CLUB</text><text class="cls-18" transform="translate(2273.05 8304.75)">BROWN GIRLS FOOD CLUB</text><text class="cls-18" transform="translate(2273.05 9789.41)">BROWN GIRLS FOOD CLUB</text><text class="cls-18" transform="translate(2273.05 9730.75)">BROWN GIRLS FOOD CLUB</text><text class="cls-18" transform="translate(2273.05 9672.75)">BROWN GIRLS FOOD CLUB</text><text class="cls-18" transform="translate(2273.05 9617.41)">BROWN GIRLS FOOD CLUB</text><text class="cls-18" transform="translate(2273.05 9558.75)">BROWN GIRLS FOOD CLUB</text><text class="cls-18" transform="translate(2273.05 9500.75)">BROWN GIRLS FOOD CLUB</text><text class="cls-18" transform="translate(2273.05 9445.41)">BROWN GIRLS FOOD CLUB</text><text class="cls-18" transform="translate(2273.05 9386.75)">BROWN GIRLS FOOD CLUB</text><text class="cls-18" transform="translate(2273.05 9328.75)">BROWN GIRLS FOOD CLUB</text><text class="cls-18" transform="translate(2273.05 9275.75)">BROWN GIRLS FOOD CLUB</text><text class="cls-18" transform="translate(2273.05 9221.75)">BROWN GIRLS FOOD CLUB</text><text class="cls-18" transform="translate(2273.05 9164.41)">BROWN GIRLS FOOD CLUB</text><text class="cls-18" transform="translate(2273.05 9105.75)">BROWN GIRLS FOOD CLUB</text><text class="cls-15" transform="translate(1148.05 9063.41)">BROWN GIRLS FOOD CLUB</text><text class="cls-18" transform="translate(1148.05 9004.41)">BROWN GIRLS FOOD CLUB</text><text class="cls-18" transform="translate(1148.05 8945.75)">BROWN GIRLS FOOD CLUB</text><text class="cls-18" transform="translate(1148.05 8887.75)">BROWN GIRLS FOOD CLUB</text><text class="cls-18" transform="translate(1148.05 8832.41)">BROWN GIRLS FOOD CLUB</text><text class="cls-18" transform="translate(1148.05 8773.75)">BROWN GIRLS FOOD CLUB</text><text class="cls-18" transform="translate(1148.05 8715.75)">BROWN GIRLS FOOD CLUB</text><text class="cls-18" transform="translate(1148.05 8660.41)">BROWN GIRLS FOOD CLUB</text><text class="cls-18" transform="translate(1148.05 8601.75)">BROWN GIRLS FOOD CLUB</text><text class="cls-18" transform="translate(1148.05 8543.75)">BROWN GIRLS FOOD CLUB</text><text class="cls-18" transform="translate(1148.05 8488.41)">BROWN GIRLS FOOD CLUB</text><text class="cls-18" transform="translate(1148.05 8430.75)">BROWN GIRLS FOOD CLUB</text><text class="cls-18" transform="translate(1148.05 8372.75)">BROWN GIRLS FOOD CLUB</text><text class="cls-18" transform="translate(1148.05 9744.75)">BROWN GIRLS FOOD CLUB</text><text class="cls-18" transform="translate(1148.05 9686.75)">BROWN GIRLS FOOD CLUB</text><text class="cls-18" transform="translate(1148.05 9631.41)">BROWN GIRLS FOOD CLUB</text><text class="cls-18" transform="translate(1148.05 9572.75)">BROWN GIRLS FOOD CLUB</text><text class="cls-18" transform="translate(1148.05 9514.75)">BROWN GIRLS FOOD CLUB</text><text class="cls-18" transform="translate(1148.05 9459.41)">BROWN GIRLS FOOD CLUB</text><text class="cls-18" transform="translate(1148.05 9400.75)">BROWN GIRLS FOOD CLUB</text><text class="cls-18" transform="translate(1148.05 9342.75)">BROWN GIRLS FOOD CLUB</text><text class="cls-18" transform="translate(1148.05 9289.75)">BROWN GIRLS FOOD CLUB</text><text class="cls-18" transform="translate(1148.05 9235.75)">BROWN GIRLS FOOD CLUB</text><text class="cls-18" transform="translate(1148.05 9178.41)">BROWN GIRLS FOOD CLUB</text><text class="cls-18" transform="translate(1148.05 9119.75)">BROWN GIRLS FOOD CLUB</text><text class="cls-15" transform="translate(1148.05 5019.41)">BROWN GIRLS FOOD CLUB</text><text class="cls-18" transform="translate(1148.05 4960.41)">BROWN GIRLS FOOD CLUB</text><text class="cls-18" transform="translate(1148.05 4901.75)">BROWN GIRLS FOOD CLUB</text><text class="cls-18" transform="translate(1148.05 4843.75)">BROWN GIRLS FOOD CLUB</text><text class="cls-18" transform="translate(1148.05 4788.41)">BROWN GIRLS FOOD CLUB</text><text class="cls-18" transform="translate(1148.05 4729.75)">BROWN GIRLS FOOD CLUB</text><text class="cls-18" transform="translate(1148.05 4671.75)">BROWN GIRLS FOOD CLUB</text><text class="cls-18" transform="translate(1148.05 4616.41)">BROWN GIRLS FOOD CLUB</text><text class="cls-18" transform="translate(1148.05 4557.75)">BROWN GIRLS FOOD CLUB</text><text class="cls-18" transform="translate(1148.05 4499.75)">BROWN GIRLS FOOD CLUB</text><text class="cls-18" transform="translate(1148.05 4444.41)">BROWN GIRLS FOOD CLUB</text><text class="cls-18" transform="translate(1148.05 4386.75)">BROWN GIRLS FOOD CLUB</text><text class="cls-18" transform="translate(1148.05 4328.75)">BROWN GIRLS FOOD CLUB</text><text class="cls-18" transform="translate(1148.05 4274.75)">BROWN GIRLS FOOD CLUB</text><text class="cls-18" transform="translate(1148.05 4218.75)">BROWN GIRLS FOOD CLUB</text><text class="cls-18" transform="translate(1148.05 4163.41)">BROWN GIRLS FOOD CLUB</text><text class="cls-18" transform="translate(1148.05 4104.75)">BROWN GIRLS FOOD CLUB</text><text class="cls-18" transform="translate(1148.05 5927.41)">BROWN GIRLS FOOD CLUB</text><text class="cls-18" transform="translate(1148.05 5872.75)">BROWN GIRLS FOOD CLUB</text><text class="cls-18" transform="translate(1148.05 5814.75)">BROWN GIRLS FOOD CLUB</text><text class="cls-18" transform="translate(1148.05 5759.41)">BROWN GIRLS FOOD CLUB</text><text class="cls-18" transform="translate(1148.05 5700.75)">BROWN GIRLS FOOD CLUB</text><text class="cls-18" transform="translate(1148.05 5642.75)">BROWN GIRLS FOOD CLUB</text><text class="cls-18" transform="translate(1148.05 5587.41)">BROWN GIRLS FOOD CLUB</text><text class="cls-18" transform="translate(1148.05 5528.75)">BROWN GIRLS FOOD CLUB</text><text class="cls-18" transform="translate(1148.05 5470.75)">BROWN GIRLS FOOD CLUB</text><text class="cls-18" transform="translate(1148.05 5415.41)">BROWN GIRLS FOOD CLUB</text><text class="cls-18" transform="translate(1148.05 5356.75)">BROWN GIRLS FOOD CLUB</text><text class="cls-18" transform="translate(1148.05 5298.75)">BROWN GIRLS FOOD CLUB</text><text class="cls-18" transform="translate(1148.05 5245.75)">BROWN GIRLS FOOD CLUB</text><text class="cls-18" transform="translate(1148.05 5191.75)">BROWN GIRLS FOOD CLUB</text><text class="cls-18" transform="translate(1148.05 5134.41)">BROWN GIRLS FOOD CLUB</text><text class="cls-18" transform="translate(1148.05 5075.75)">BROWN GIRLS FOOD CLUB</text><text x="-0.21" y="-0.25"/><text class="cls-2" transform="translate(1222.73 676.84)">Yes! Send us pictures and reviews <tspan x="0" y="60">of any minority owned restaurants </tspan><tspan x="0" y="120">you l</tspan><tspan class="cls-11" x="116.39" y="120">o</tspan><tspan x="149.19" y="120">ve via DM or email.</tspan><tspan x="0" y="240">We&apos;d l</tspan><tspan class="cls-11" x="153.94" y="240">o</tspan><tspan x="186.75" y="240">ve </tspan><tspan class="cls-4" x="261.74" y="240">t</tspan><tspan class="cls-12" x="275.49" y="240">o feature them on our </tspan><tspan x="0" y="300">page! Please include ph</tspan><tspan class="cls-17" x="604.95" y="300">o</tspan><tspan class="cls-14" x="637.35" y="300">t</tspan><tspan x="651.1" y="300">os, </tspan><tspan x="0" y="360">restaurant name, location, the </tspan><tspan x="0" y="420">type of cuisine, price range and </tspan><tspan x="0" y="480">general vibe so we can maintain </tspan><tspan x="0" y="540">a </tspan><tspan class="cls-11" x="48.4" y="540">c</tspan><tspan x="75.4" y="540">onsistent and detailed index. </tspan><tspan x="0" y="600">Credit will be given, but let us </tspan><tspan x="0" y="660">know if you’d prefer us n</tspan><tspan class="cls-17" x="614.6" y="660">o</tspan><tspan x="647" y="660">t </tspan><tspan class="cls-14" x="675.71" y="660">t</tspan><tspan x="689.46" y="660">o. </tspan></text><text class="cls-5" transform="translate(1218.73 460.48)">What about a <tspan x="0" y="86.4">submission? </tspan><tspan x="0" y="172.8"> </tspan></text><text class="cls-2" transform="translate(2297.73 676.84)">Send it our way! Please DM or <tspan x="0" y="60">email us </tspan><tspan class="cls-6" x="221.49" y="60">t</tspan><tspan x="235.23" y="60">o submit </tspan><tspan x="0" y="120">re</tspan><tspan class="cls-11" x="57.35" y="120">c</tspan><tspan x="84.35" y="120">ommendations </tspan><tspan class="cls-14" x="475.31" y="120">t</tspan><tspan x="489.05" y="120">o minority </tspan><tspan x="0" y="180">owned restaurants in the greater </tspan><tspan x="0" y="240">Austin area. </tspan></text><text class="cls-5" transform="translate(2297.73 460.48)">I have a <tspan x="0" y="86.4">recommendation! </tspan><tspan x="0" y="172.8"> </tspan></text><text class="cls-2" transform="translate(3502.73 854.84)">It sucks that you can&apos;t make it but <tspan x="0" y="60">feel free </tspan><tspan class="cls-6" x="228.66" y="60">t</tspan><tspan x="242.41" y="60">o visit any restaurant we </tspan><tspan x="0" y="120">highlight on your own. Be sure </tspan><tspan class="cls-4" x="765.71" y="120">t</tspan><tspan x="779.45" y="120">o </tspan><tspan x="0" y="180">tell your friends and family </tspan><tspan class="cls-4" x="672.88" y="180">t</tspan><tspan x="686.63" y="180">oo! </tspan><tspan x="0" y="240">We want </tspan><tspan class="cls-6" x="232.15" y="240">t</tspan><tspan x="245.9" y="240">o drive business </tspan><tspan class="cls-14" x="662.41" y="240">t</tspan><tspan x="676.16" y="240">o </tspan><tspan x="0" y="300">these places. </tspan></text><text class="cls-5" transform="translate(3491.73 460.48)">What if I can&apos;t <tspan x="0" y="86.4">make it but </tspan><tspan x="0" y="172.8">really want to </tspan><tspan x="0" y="259.2">try that place? </tspan><tspan x="0" y="345.6"> </tspan></text><text class="cls-2" transform="translate(5781.73 676.84)">Everything! The focus is on POC, <tspan x="0" y="60">WOC and immigrant owned </tspan><tspan x="0" y="120">restaurants and the rich culinary </tspan><tspan x="0" y="180">cultures behind them. We&apos;ll be </tspan><tspan x="0" y="240">exploring restaurants and cuisines </tspan><tspan x="0" y="300">f</tspan><tspan class="cls-9" x="14.6" y="300">r</tspan><tspan x="37.19" y="300">om all </tspan><tspan class="cls-11" x="205.67" y="300">o</tspan><tspan x="238.47" y="300">ver the world. Bring </tspan><tspan x="0" y="360">your curiosity and maybe some </tspan><tspan x="0" y="420">Tums.</tspan></text><text class="cls-5" transform="translate(5777.73 460.48)">What are we <tspan x="0" y="86.4">eating? </tspan></text><text class="cls-2" transform="translate(6929.73 676.84)">Meetups will be held monthly! <tspan x="0" y="60">Keep an eye out on our </tspan><tspan x="0" y="120">Instagram page for </tspan><tspan x="0" y="180">announcements on when and </tspan><tspan x="0" y="240">where we&apos;re eating.</tspan></text><text class="cls-5" transform="translate(6925.73 460.48)">When are we <tspan x="0" y="86.4">eating?</tspan></text><text class="cls-2" transform="translate(95.73 2634.84)"><tspan class="cls-19">F</tspan><tspan x="26.73" y="0">or now meetups are based in </tspan><tspan x="0" y="60">Austin but we may include field </tspan><tspan x="0" y="120">trips </tspan><tspan class="cls-6" x="122.04" y="120">t</tspan><tspan x="135.79" y="120">o nearby cities in the future.</tspan><tspan x="0" y="240">We&apos;re also happy </tspan><tspan class="cls-4" x="457.82" y="240">t</tspan><tspan x="471.57" y="240">o highlight </tspan><tspan x="0" y="300">restaurants in </tspan><tspan class="cls-17" x="353.85" y="300">o</tspan><tspan x="386.25" y="300">ther cities. </tspan></text><text class="cls-5" transform="translate(91.73 2492.48)">Just in Austin? <tspan x="0" y="86.4"> </tspan></text></g></svg>